<?xml version="1.0" standalone="no"?>
  <!DOCTYPE svg PUBLIC "-//W3C//DTD SVG 1.1//EN" "http://www.w3.org/Graphics/SVG/1.1/DTD/svg11.dtd" >
  <svg>
  <metadata>
  Created by font-carrier
  </metadata>
  <defs>
  <font id="SFUIText-BoldItalic" horiz-adv-x="2930" vert-adv-y="2930" >
    <font-face
      
      font-family="SF UI Text"
      
      font-weight="400"
      
      font-stretch="normal"
      
      units-per-em="2048"
      
      ascent="1950"
      
      descent="-494"
      
    />
      <missing-glyph />

      

      
      <glyph glyph-name="uni21" unicode="&#x21;" d="M759 1443L526 475L259 475L439 1443L759 1443M317-30Q235-30 185 19Q136 65 136 135Q136 212 185 261Q234 311 317 311Q399 311 450 262Q498 215 498 145Q498 69 450 20Q400-30 317-30Z"  horiz-adv-x="729" vert-adv-y="2048"  />

      
      <glyph glyph-name="uni22" unicode="&#x22;" d="M254 831L383 1443L633 1443L504 831L254 831M716 831L845 1443L1095 1443L966 831L716 831Z"  horiz-adv-x="1016" vert-adv-y="2048"  />

      
      <glyph glyph-name="uni23" unicode="&#x23;" d="M1153 857L1045 605L1249 605L1163 382L957 382L798 0L570 0L729 382L499 382L340 0L113 0L272 382L70 382L158 605L360 605L468 857L268 857L354 1078L556 1078L709 1444L936 1444L784 1078L1013 1078L1166 1444L1394 1444L1242 1078L1447 1078L1360 857L1153 857M566 585L823 585L947 876L688 876L566 585Z"  horiz-adv-x="1360" vert-adv-y="2048"  />

      
      <glyph glyph-name="uni24" unicode="&#x24;" d="M750 223Q858 227 921 278Q983 328 983 407Q983 462 946 500Q910 537 824 571L750 223M822 1220Q725 1216 664 1168Q605 1120 605 1047Q605 947 751 886L822 1220M929 826Q1279 708 1279 443Q1279 234 1123 110Q969-12 715-12L700-12L673-138L533-138L563 2Q383 37 274 147Q164 258 159 417L443 417Q458 283 613 238L693 616L633 636Q477 688 392 789Q307 890 307 1020Q307 1214 455 1334Q604 1455 847 1455L872 1455L900 1588L1040 1588L1008 1437Q1171 1398 1269 1288Q1367 1178 1369 1031L1092 1031Q1077 1152 957 1199L881 842L929 826Z"  horiz-adv-x="1415" vert-adv-y="2048"  />

      
      <glyph glyph-name="uni25" unicode="&#x25;" d="M615 1285Q555 1285 512 1220Q468 1155 468 1066Q468 1005 493 970Q518 935 562 935Q621 935 664 1000Q707 1065 707 1156Q707 1285 615 1285M175 0L906 761L1485 1443L1799 1443L1055 673L489 0L175 0M553 742Q413 742 330 830Q247 917 247 1064Q247 1238 355 1357Q463 1476 621 1476Q761 1476 845 1389Q928 1302 928 1155Q928 981 819 862Q711 742 553 742M1411 509Q1351 509 1308 444Q1264 379 1264 290Q1264 229 1289 195Q1314 160 1357 160Q1417 160 1460 225Q1503 290 1503 380Q1503 509 1411 509M1348-34Q1208-34 1125 54Q1042 141 1042 289Q1042 463 1150 582Q1259 701 1417 701Q1557 701 1640 614Q1724 526 1724 379Q1724 206 1615 86Q1506-34 1348-34Z"  horiz-adv-x="1806" vert-adv-y="2048"  />

      
      <glyph glyph-name="uni26" unicode="&#x26;" d="M662 1089Q662 1015 753 897Q989 977 989 1133Q989 1192 948 1228Q907 1263 841 1263Q767 1263 714 1212Q662 1161 662 1089M632 189Q780 189 893 257L631 644L606 636Q586 628 584 628Q370 549 370 392Q370 303 441 247Q514 189 632 189M1008 76Q829-28 608-28Q389-28 243 84Q97 197 97 367Q97 650 454 789L526 818Q410 984 410 1112Q410 1262 533 1363Q656 1465 839 1465Q1011 1465 1125 1378Q1239 1291 1239 1159Q1239 886 860 742L1078 431Q1179 564 1191 729L1194 762L1438 762L1435 724Q1409 444 1208 232L1363 0L1059 0L1008 76Z"  horiz-adv-x="1525" vert-adv-y="2048"  />

      
      <glyph glyph-name="uni27" unicode="&#x27;" d="M254 831L383 1443L633 1443L504 831L254 831Z"  horiz-adv-x="553" vert-adv-y="2048"  />

      
      <glyph glyph-name="uni28" unicode="&#x28;" d="M298-277Q180-43 180 299Q180 621 303 921Q427 1224 651 1442L959 1442Q739 1226 613 927Q480 612 480 274Q480-12 568-277L298-277Z"  horiz-adv-x="803" vert-adv-y="2048"  />

      
      <glyph glyph-name="uni29" unicode="&#x29;" d="M582 1442Q700 1208 700 866Q700 544 577 245Q453-59 229-277L-79-277Q140-61 267 239Q400 553 400 891Q400 1177 312 1442L582 1442Z"  horiz-adv-x="802" vert-adv-y="2048"  />

      
      <glyph glyph-name="uni2a" unicode="&#x2a;" d="M698 911L672 615L470 620L573 924L292 759L228 954L535 1042L278 1184L418 1358L620 1143L646 1446L848 1441L743 1131L1026 1298L1090 1104L783 1017L1039 874L900 700L698 911Z"  horiz-adv-x="1032" vert-adv-y="2048"  />

      
      <glyph glyph-name="uni2b" unicode="&#x2b;" d="M769 46L508 46L595 455L190 455L243 713L648 713L735 1121L996 1121L909 713L1322 713L1269 455L856 455L769 46Z"  horiz-adv-x="1415" vert-adv-y="2048"  />

      
      <glyph glyph-name="uni2c" unicode="&#x2c;" d="M31-388L244 247L532 247L265-388L31-388Z"  horiz-adv-x="722" vert-adv-y="2048"  />

      
      <glyph glyph-name="uni2d" unicode="&#x2d;" d="M187 446L244 719L901 719L844 446L187 446Z"  horiz-adv-x="992" vert-adv-y="2048"  />

      
      <glyph glyph-name="uni2e" unicode="&#x2e;" d="M298-27Q220-27 169 24Q121 72 121 141Q121 219 169 269Q219 320 298 320Q377 320 427 270Q475 222 475 152Q475 75 427 25Q377-27 298-27Z"  horiz-adv-x="712" vert-adv-y="2048"  />

      
      <glyph glyph-name="uni2f" unicode="&#x2f;" d="M-95-288L688 1443L963 1443L174-288L-95-288Z"  horiz-adv-x="772" vert-adv-y="2048"  />

      
      <glyph glyph-name="uni30" unicode="&#x30;" d="M683-37Q452-37 317 114Q182 265 182 522Q182 935 383 1209Q582 1480 879 1480Q1111 1480 1247 1329Q1382 1179 1382 921Q1382 507 1181 234Q982-37 683-37M486 506Q486 367 540 289Q595 211 692 211Q846 211 962 429Q1078 647 1078 938Q1078 1076 1024 1153Q969 1231 872 1231Q718 1231 602 1014Q486 796 486 506Z"  horiz-adv-x="1401" vert-adv-y="2048"  />

      
      <glyph glyph-name="uni31" unicode="&#x31;" d="M662 1134L644 1134L238 892L298 1186L727 1443L1028 1443L721 0L419 0L662 1134Z"  horiz-adv-x="1051" vert-adv-y="2048"  />

      
      <glyph glyph-name="uni32" unicode="&#x32;" d="M269 1021Q286 1222 443 1351Q600 1480 827 1480Q1036 1480 1174 1369Q1312 1257 1312 1087Q1312 952 1218 834Q1131 725 870 517L554 267L550 249L1180 249L1129 0L80 0L127 224L683 672Q886 836 948 908Q1013 983 1013 1059Q1013 1137 954 1187Q894 1236 801 1236Q706 1236 637 1178Q568 1121 549 1026L548 1021L269 1021Z"  horiz-adv-x="1318" vert-adv-y="2048"  />

      
      <glyph glyph-name="uni33" unicode="&#x33;" d="M600 855L792 855Q909 855 981 913Q1053 971 1053 1065Q1053 1143 991 1191Q929 1239 829 1239Q742 1239 674 1192Q607 1144 582 1067L303 1067Q342 1256 492 1368Q641 1480 855 1480Q1069 1480 1207 1374Q1345 1267 1345 1102Q1345 962 1249 859Q1153 756 1006 737L1003 719Q1254 661 1254 420Q1254 221 1092 92Q930-37 679-37Q441-37 291 80Q140 196 139 381Q139 401 144 441L428 441L428 438Q419 342 491 279Q564 215 683 215Q804 215 879 279Q954 343 954 447Q954 528 887 579Q820 629 713 629L554 629L600 855Z"  horiz-adv-x="1366" vert-adv-y="2048"  />

      
      <glyph glyph-name="uni34" unicode="&#x34;" d="M803 252L94 252L143 531Q377 844 904 1443L1343 1443L1142 503L1331 503L1279 252L1091 252L1036 0L748 0L803 252M415 494L859 494L1013 1208L997 1208Q663 830 418 510L415 494Z"  horiz-adv-x="1413" vert-adv-y="2048"  />

      
      <glyph glyph-name="uni35" unicode="&#x35;" d="M692-37Q467-37 318 85Q169 206 169 389L171 427L450 427L450 424Q453 329 524 270Q595 211 707 211Q833 211 915 295Q996 379 996 507Q996 613 928 678Q862 740 755 740Q607 740 517 633L240 633L482 1443L1381 1443L1328 1192L672 1192L561 845L578 844Q692 958 867 958Q1043 958 1162 839Q1283 720 1283 540Q1283 287 1120 126Q956-37 692-37Z"  horiz-adv-x="1361" vert-adv-y="2048"  />

      
      <glyph glyph-name="uni36" unicode="&#x36;" d="M1314 523Q1314 286 1145 125Q977-37 730-37Q478-37 334 117Q189 272 189 542Q189 924 380 1196Q579 1480 905 1480Q1121 1480 1263 1359Q1405 1239 1409 1052L1115 1052Q1104 1135 1043 1183Q982 1231 889 1231Q750 1231 646 1107Q543 983 504 769L522 768Q654 948 884 948Q1072 948 1193 829Q1314 710 1314 523M780 723Q657 723 572 641Q486 559 486 440Q486 339 555 274Q625 209 734 209Q855 209 937 292Q1019 374 1019 496Q1019 596 952 659Q885 723 780 723Z"  horiz-adv-x="1406" vert-adv-y="2048"  />

      
      <glyph glyph-name="uni37" unicode="&#x37;" d="M987 1176L991 1195L288 1195L340 1443L1357 1443L1305 1192L447 0L119 0L987 1176Z"  horiz-adv-x="1239" vert-adv-y="2048"  />

      
      <glyph glyph-name="uni38" unicode="&#x38;" d="M1297 411Q1297 215 1127 89Q956-37 693-37Q446-37 290 76Q133 188 133 366Q133 524 244 639Q355 754 533 780L537 797Q446 834 393 907Q340 980 340 1066Q340 1245 494 1363Q648 1480 882 1480Q1095 1480 1241 1373Q1386 1265 1386 1107Q1386 969 1295 870Q1205 771 1056 746L1052 728Q1167 688 1232 604Q1297 519 1297 411M733 638Q611 638 531 569Q450 500 450 396Q450 304 520 248Q590 193 706 193Q829 193 910 261Q990 329 990 433Q990 524 919 581Q847 638 733 638M628 1035Q628 957 688 907Q749 857 843 857Q945 857 1016 921Q1086 984 1086 1076Q1086 1154 1026 1204Q965 1254 871 1254Q767 1254 698 1191Q628 1129 628 1035Z"  horiz-adv-x="1416" vert-adv-y="2048"  />

      
      <glyph glyph-name="uni39" unicode="&#x39;" d="M781 717Q904 717 989 799Q1073 881 1073 1000Q1073 1102 1005 1166Q938 1230 829 1230Q708 1230 626 1148Q543 1065 543 944Q543 844 610 781Q677 717 781 717M247 918Q247 1159 415 1320Q583 1480 834 1480Q1085 1480 1227 1325Q1370 1170 1370 897Q1370 519 1179 247Q980-37 659-37Q446-37 302 81Q158 198 150 379L445 379Q453 302 516 256Q578 211 676 211Q820 211 924 336Q1028 460 1063 671L1046 672Q914 492 686 492Q495 492 371 612Q247 733 247 918Z"  horiz-adv-x="1404" vert-adv-y="2048"  />

      
      <glyph glyph-name="uni3a" unicode="&#x3a;" d="M298-27Q220-27 169 24Q121 72 121 141Q121 219 169 269Q219 320 298 320Q377 320 427 270Q475 222 475 152Q475 75 427 25Q377-27 298-27M454 711Q376 711 325 761Q277 809 277 879Q277 956 325 1006Q375 1058 454 1058Q533 1058 583 1008Q631 960 631 890Q631 813 583 763Q534 711 454 711Z"  horiz-adv-x="712" vert-adv-y="2048"  />

      
      <glyph glyph-name="uni3b" unicode="&#x3b;" d="M-14-388L199 247L487 247L220-388L-14-388M456 711Q378 711 327 761Q279 809 279 879Q279 956 327 1006Q377 1058 456 1058Q534 1058 585 1008Q633 960 633 890Q633 813 585 763Q535 711 456 711Z"  horiz-adv-x="712" vert-adv-y="2048"  />

      
      <glyph glyph-name="uni3c" unicode="&#x3c;" d="M1105-39L257 491L305 726L1364 1187L1301 881L578 603L575 584L1164 253L1105-39Z"  horiz-adv-x="1415" vert-adv-y="2048"  />

      
      <glyph glyph-name="uni3d" unicode="&#x3d;" d="M143 216L196 475L1269 475L1216 216L143 216M243 695L296 954L1369 954L1316 695L243 695Z"  horiz-adv-x="1416" vert-adv-y="2048"  />

      
      <glyph glyph-name="uni3e" unicode="&#x3e;" d="M403 1187L1251 657L1203 423L143-39L206 268L929 546L933 564L343 896L403 1187Z"  horiz-adv-x="1415" vert-adv-y="2048"  />

      
      <glyph glyph-name="uni3f" unicode="&#x3f;" d="M231 1053Q256 1234 388 1343Q524 1456 731 1456Q941 1456 1071 1354Q1199 1253 1199 1096Q1199 969 1124 864Q1049 759 915 699Q802 650 757 607Q710 564 696 493L688 451L417 451L429 514Q452 646 509 717Q563 785 681 837Q800 892 851 947Q899 1000 899 1072Q899 1134 851 1174Q801 1216 716 1216Q639 1216 582 1172Q524 1128 504 1053L231 1053M493-29Q411-29 360 16Q308 61 308 134Q308 212 360 263Q412 314 493 314Q572 314 624 269Q677 223 677 151Q677 75 626 24Q574-29 493-29Z"  horiz-adv-x="1141" vert-adv-y="2048"  />

      
      <glyph glyph-name="uni40" unicode="&#x40;" d="M1135 1444Q1463 1444 1674 1254Q1886 1064 1886 768Q1886 501 1750 321Q1614 140 1412 140Q1306 140 1239 185Q1171 231 1171 303L1172 328L1154 325Q1073 183 918 183Q782 183 700 277Q618 370 618 526Q618 732 734 875Q850 1017 1017 1017Q1105 1017 1170 973Q1236 929 1252 857L1270 856L1295 981L1502 981L1381 424Q1376 400 1376 386Q1376 305 1462 305Q1556 305 1629 444Q1703 583 1703 761Q1703 991 1541 1136Q1378 1281 1122 1281Q811 1281 597 1062Q382 842 382 524Q382 251 568 89Q755-74 1068-73Q1171-73 1221-58L1187-221Q1099-237 1011-237Q651-237 426-29Q201 178 201 511Q201 910 468 1177Q735 1444 1135 1444M1202 649Q1202 729 1162 777Q1122 824 1054 824Q967 824 906 740Q845 655 845 536Q845 458 885 413Q924 367 992 367Q1080 367 1141 449Q1202 531 1202 649Z"  horiz-adv-x="1899" vert-adv-y="2048"  />

      
      <glyph glyph-name="uni41" unicode="&#x41;" d="M1007 344L498 344L312 0L-3 0L817 1443L1166 1443L1353 0L1042 0L1007 344M612 577L993 577L935 1142L916 1142L612 577Z"  horiz-adv-x="1501" vert-adv-y="2048"  />

      
      <glyph glyph-name="uni42" unicode="&#x42;" d="M99 0L406 1443L995 1443Q1181 1443 1295 1357Q1408 1272 1408 1132Q1408 990 1316 886Q1225 783 1082 763L1080 744Q1199 722 1269 645Q1338 568 1338 456Q1338 256 1184 128Q1030 0 790 0L99 0M583 851L823 851Q947 851 1025 911Q1104 971 1104 1065Q1104 1219 888 1219L663 1219L583 851M738 237Q867 237 950 303Q1033 369 1033 472Q1033 556 973 602Q912 647 799 647L540 647L451 237L738 237Z"  horiz-adv-x="1420" vert-adv-y="2048"  />

      
      <glyph glyph-name="uni43" unicode="&#x43;" d="M1258 932L1258 946Q1253 1066 1169 1139Q1086 1212 953 1212Q756 1212 622 1034Q488 855 488 589Q488 423 573 326Q657 230 803 230Q926 230 1023 294Q1120 358 1155 464L1454 464Q1407 236 1223 100Q1039-37 777-37Q505-37 342 128Q179 293 179 568Q179 967 403 1224Q626 1480 972 1480Q1220 1480 1387 1335Q1554 1190 1554 975Q1554 947 1552 932L1258 932Z"  horiz-adv-x="1532" vert-adv-y="2048"  />

      
      <glyph glyph-name="uni44" unicode="&#x44;" d="M917 1443Q1193 1443 1351 1288Q1508 1132 1508 856Q1508 484 1296 242Q1083 0 755 0L100 0L406 1443L917 1443M458 257L728 257Q933 257 1064 413Q1197 571 1197 822Q1197 992 1106 1089Q1013 1187 850 1187L659 1187L458 257Z"  horiz-adv-x="1535" vert-adv-y="2048"  />

      
      <glyph glyph-name="uni45" unicode="&#x45;" d="M1056 0L99 0L406 1443L1362 1443L1309 1185L657 1185L582 848L1198 848L1148 609L533 609L455 258L1108 258L1056 0Z"  horiz-adv-x="1273" vert-adv-y="2048"  />

      
      <glyph glyph-name="uni46" unicode="&#x46;" d="M99 0L406 1443L1351 1443L1298 1185L657 1185L574 809L1159 809L1108 562L523 562L403 0L99 0Z"  horiz-adv-x="1235" vert-adv-y="2048"  />

      
      <glyph glyph-name="uni47" unicode="&#x47;" d="M1496 576Q1438 277 1255 120Q1074-37 789-37Q514-37 348 131Q181 298 181 574Q181 972 403 1227Q625 1480 971 1480Q1211 1480 1379 1344Q1547 1209 1554 1010L1554 977L1260 977Q1254 1081 1168 1146Q1082 1211 952 1211Q754 1211 622 1036Q490 861 490 595Q490 427 578 330Q666 232 817 232Q958 232 1059 308Q1160 383 1186 509L1191 534L884 534L931 760L1533 760L1496 576Z"  horiz-adv-x="1566" vert-adv-y="2048"  />

      
      <glyph glyph-name="uni48" unicode="&#x48;" d="M1050 0L1179 603L531 603L402 0L99 0L406 1443L710 1443L585 861L1233 861L1358 1443L1662 1443L1355 0L1050 0Z"  horiz-adv-x="1605" vert-adv-y="2048"  />

      
      <glyph glyph-name="uni49" unicode="&#x49;" d="M99 0L406 1443L710 1443L403 0L99 0Z"  horiz-adv-x="653" vert-adv-y="2048"  />

      
      <glyph glyph-name="uni4a" unicode="&#x4a;" d="M383 413L383 404Q384 327 432 282Q481 237 563 237Q730 237 775 446L988 1443L1290 1443L1068 401Q1024 188 892 76Q759-37 550-37Q340-37 212 80Q84 196 89 382Q89 403 90 413L383 413Z"  horiz-adv-x="1229" vert-adv-y="2048"  />

      
      <glyph glyph-name="uni4b" unicode="&#x4b;" d="M99 0L406 1443L707 1443L571 808L589 808L1248 1443L1606 1443L936 790L1318 0L978 0L685 606L493 424L401 0L99 0Z"  horiz-adv-x="1454" vert-adv-y="2048"  />

      
      <glyph glyph-name="uni4c" unicode="&#x4c;" d="M1043 0L99 0L406 1443L709 1443L456 263L1097 263L1043 0Z"  horiz-adv-x="1219" vert-adv-y="2048"  />

      
      <glyph glyph-name="uni4d" unicode="&#x4d;" d="M99 0L406 1443L753 1443L941 473L959 473L1567 1443L1935 1443L1628 0L1347 0L1554 965L1538 965L980 83L779 83L604 965L588 965L381 0L99 0Z"  horiz-adv-x="1879" vert-adv-y="2048"  />

      
      <glyph glyph-name="uni4e" unicode="&#x4e;" d="M99 0L406 1443L637 1443L1116 514L1134 514L1336 1443L1629 1443L1322 0L1093 0L610 922L592 922L392 0L99 0Z"  horiz-adv-x="1573" vert-adv-y="2048"  />

      
      <glyph glyph-name="uni4f" unicode="&#x4f;" d="M804-37Q524-37 350 138Q180 310 180 576Q180 971 407 1227Q631 1480 970 1480Q1252 1480 1425 1305Q1592 1134 1592 867Q1592 470 1366 215Q1144-37 804-37M1282 844Q1282 1009 1193 1109Q1104 1209 958 1209Q762 1209 626 1033Q490 855 490 598Q490 433 580 333Q669 233 816 233Q1013 233 1147 408Q1282 584 1282 844Z"  horiz-adv-x="1617" vert-adv-y="2048"  />

      
      <glyph glyph-name="uni50" unicode="&#x50;" d="M933 1443Q1147 1443 1276 1328Q1406 1212 1406 1021Q1406 758 1232 602Q1061 448 782 448L500 448L403 0L100 0L406 1443L933 1443M549 693L778 693Q923 693 1011 775Q1099 856 1099 992Q1099 1091 1036 1143Q974 1195 861 1195L659 1195L549 693Z"  horiz-adv-x="1368" vert-adv-y="2048"  />

      
      <glyph glyph-name="uni51" unicode="&#x51;" d="M1073-141L1010-11Q915-37 804-37Q525-37 351 138Q180 309 180 576Q180 971 407 1227Q631 1480 970 1480Q1253 1480 1425 1305Q1592 1135 1592 867Q1592 623 1500 424Q1409 228 1245 110L1361-141L1073-141M815 228Q864 228 905 238L792 481L1066 481L1114 397Q1285 560 1285 845Q1285 1012 1195 1113Q1106 1213 959 1213Q761 1213 624 1035Q487 857 487 597Q487 430 578 329Q668 228 815 228Z"  horiz-adv-x="1617" vert-adv-y="2048"  />

      
      <glyph glyph-name="uni52" unicode="&#x52;" d="M406 1443L977 1443Q1177 1443 1303 1329Q1429 1214 1429 1034Q1429 873 1333 744Q1235 611 1072 558L1270 0L945 0L773 523L515 523L403 0L99 0L406 1443M562 755L826 755Q958 755 1040 826Q1121 895 1121 1007Q1121 1098 1065 1149Q1009 1199 908 1199L660 1199L562 755Z"  horiz-adv-x="1418" vert-adv-y="2048"  />

      
      <glyph glyph-name="uni53" unicode="&#x53;" d="M398 412Q414 320 497 264Q580 208 698 208Q820 208 896 260Q972 312 972 397Q972 460 923 503Q873 545 756 582L606 629Q446 679 359 781Q271 884 271 1023Q271 1221 433 1351Q594 1480 839 1480Q1076 1480 1229 1355Q1381 1231 1388 1033L1103 1033Q1089 1124 1014 1179Q938 1235 827 1235Q721 1235 650 1185Q578 1135 578 1059Q578 938 772 877L920 831Q1104 773 1190 679Q1276 585 1276 439Q1276 225 1110 94Q945-37 676-37Q428-37 275 83Q119 203 106 412L398 412Z"  horiz-adv-x="1362" vert-adv-y="2048"  />

      
      <glyph glyph-name="uni54" unicode="&#x54;" d="M447 0L701 1185L269 1185L322 1443L1490 1443L1437 1185L1005 1185L751 0L447 0Z"  horiz-adv-x="1349" vert-adv-y="2048"  />

      
      <glyph glyph-name="uni55" unicode="&#x55;" d="M775-37Q514-37 360 96Q210 225 209 433Q209 497 222 559L409 1443L714 1443L528 566Q516 510 517 464Q519 356 592 295Q665 234 793 234Q920 234 1007 306Q1094 379 1123 513L1321 1443L1625 1443L1414 446Q1366 217 1200 91Q1032-37 775-37Z"  horiz-adv-x="1564" vert-adv-y="2048"  />

      
      <glyph glyph-name="uni56" unicode="&#x56;" d="M485 0L303 1443L624 1443L725 342L743 342L1297 1443L1637 1443L850 0L485 0Z"  horiz-adv-x="1477" vert-adv-y="2048"  />

      
      <glyph glyph-name="uni57" unicode="&#x57;" d="M680 0L395 0L319 1443L621 1443L637 426L653 426L1135 1443L1380 1443L1439 426L1455 426L1900 1443L2211 1443L1526 0L1235 0L1165 955L1149 955L680 0Z"  horiz-adv-x="2067" vert-adv-y="2048"  />

      
      <glyph glyph-name="uni58" unicode="&#x58;" d="M642 744L333 1443L673 1443L884 949L902 949L1301 1443L1639 1443L1004 711L1326 0L993 0L772 485L754 485L345 0L14 0L642 744Z"  horiz-adv-x="1494" vert-adv-y="2048"  />

      
      <glyph glyph-name="uni59" unicode="&#x59;" d="M499 0L613 531L303 1443L619 1443L815 836L833 836L1280 1443L1610 1443L913 519L803 0L499 0Z"  horiz-adv-x="1451" vert-adv-y="2048"  />

      
      <glyph glyph-name="uni5a" unicode="&#x5a;" d="M102 204L1017 1167L1019 1185L330 1185L383 1443L1459 1443L1417 1240L504 276L502 258L1226 258L1173 0L60 0L102 204Z"  horiz-adv-x="1384" vert-adv-y="2048"  />

      
      <glyph glyph-name="uni5b" unicode="&#x5b;" d="M998 1444L952 1221L658 1221L391-18L698-18L652-240L65-240L423 1444L998 1444Z"  horiz-adv-x="848" vert-adv-y="2048"  />

      
      <glyph glyph-name="uni5c" unicode="&#x5c;" d="M283 1443L550 1443L582-288L316-288L283 1443Z"  horiz-adv-x="771" vert-adv-y="2048"  />

      
      <glyph glyph-name="uni5d" unicode="&#x5d;" d="M530-240L-51-240L-6-17L295-17L562 1222L262 1222L308 1444L888 1444L530-240Z"  horiz-adv-x="848" vert-adv-y="2048"  />

      
      <glyph glyph-name="uni5e" unicode="&#x5e;" d="M421 823L155 823L593 1425L849 1425L1030 823L780 823L691 1196L673 1196L421 823Z"  horiz-adv-x="988" vert-adv-y="2048"  />

      
      <glyph glyph-name="uni5f" unicode="&#x5f;" d="M-146-334L-100-107L849-107L803-334L-146-334Z"  horiz-adv-x="945" vert-adv-y="2048"  />

      
      <glyph glyph-name="uni60" unicode="&#x60;" d="M742 1281L492 1634L795 1634L1007 1281L742 1281Z"  horiz-adv-x="1071" vert-adv-y="2048"  />

      
      <glyph glyph-name="uni61" unicode="&#x61;" d="M533 202Q626 202 698 254Q770 306 788 386L809 481L581 473Q481 469 425 430Q368 391 368 326Q368 271 414 237Q460 202 533 202M410-17Q270-17 176 69Q82 155 82 284Q82 452 212 550Q341 649 573 656L847 665L862 733Q867 758 867 773Q867 830 818 864Q769 897 685 897Q538 897 493 799L218 799Q253 950 386 1038Q518 1127 706 1127Q908 1127 1031 1038Q1154 948 1154 802Q1154 752 1145 713L994 0L711 0L740 136L722 136Q619-17 410-17Z"  horiz-adv-x="1202" vert-adv-y="2048"  />

      
      <glyph glyph-name="uni62" unicode="&#x62;" d="M746-17Q629-17 538 43Q446 103 418 200L400 200L357 0L74 0L398 1524L689 1524L567 949L586 950Q703 1121 918 1121Q1085 1121 1189 1006Q1295 890 1295 699Q1295 392 1136 187Q978-17 746-17M682 230Q813 230 903 350Q993 471 993 649Q993 760 936 821Q881 880 787 880Q656 880 563 757Q471 635 471 465Q471 354 530 291Q587 230 682 230Z"  horiz-adv-x="1340" vert-adv-y="2048"  />

      
      <glyph glyph-name="uni63" unicode="&#x63;" d="M921 723Q917 799 861 844Q806 888 722 888Q591 888 506 765Q423 644 423 463Q423 343 484 277Q539 217 631 217Q805 217 856 373L1135 373Q1106 201 969 92Q825-24 614-24Q394-24 263 103Q132 229 132 441Q132 738 300 931Q471 1127 741 1127Q934 1127 1063 1016Q1182 913 1195 766Q1197 753 1197 723L921 723Z"  horiz-adv-x="1208" vert-adv-y="2048"  />

      
      <glyph glyph-name="uni64" unicode="&#x64;" d="M510-17Q342-17 237 97Q128 215 128 413Q128 718 290 921Q450 1121 687 1121Q806 1121 892 1062Q973 1006 1000 915L1018 915L1148 1524L1440 1524L1117 0L834 0L866 153L848 153Q723-17 510-17M640 223Q771 223 864 346Q955 468 955 639Q955 750 896 813Q838 874 743 874Q611 874 521 757Q430 639 430 463Q430 353 490 287Q549 223 640 223Z"  horiz-adv-x="1342" vert-adv-y="2048"  />

      
      <glyph glyph-name="uni65" unicode="&#x65;" d="M623-24Q405-24 272 101Q135 230 135 450Q135 752 301 940Q467 1127 732 1127Q933 1127 1063 1002Q1197 873 1197 665Q1197 583 1180 485L410 485L409 454Q409 332 478 265Q541 203 641 203Q804 203 859 317L1139 317Q1101 163 964 70Q824-24 623-24M921 669Q924 687 924 707Q924 792 870 846Q814 903 720 903Q621 903 545 839Q471 775 442 669L921 669Z"  horiz-adv-x="1251" vert-adv-y="2048"  />

      
      <glyph glyph-name="uni66" unicode="&#x66;" d="M336 863L162 863L209 1092L380 1092L405 1218Q436 1373 535 1445Q632 1515 808 1515Q895 1515 990 1493L948 1288Q910 1299 836 1299Q713 1299 688 1181L670 1092L900 1092L853 863L629 863L445 0L152 0L336 863Z"  horiz-adv-x="836" vert-adv-y="2048"  />

      
      <glyph glyph-name="uni67" unicode="&#x67;" d="M530-417Q308-417 169-322Q32-228 33-83L323-83Q328-138 387-171Q449-206 549-206Q771-206 813-18L857 176L839 177Q729 22 514 22Q347 22 241 137Q133 253 133 438Q133 728 291 925Q449 1121 679 1121Q793 1121 882 1063Q971 1005 1002 911L1019 911L1061 1103L1345 1103L1099-44Q1062-219 913-317Q762-417 530-417M641 237Q770 237 859 353Q949 469 949 639Q949 746 891 810Q832 874 735 874Q604 874 518 762Q432 649 432 476Q432 366 488 301Q545 237 641 237Z"  horiz-adv-x="1327" vert-adv-y="2048"  />

      
      <glyph glyph-name="uni68" unicode="&#x68;" d="M397 1515L689 1515L564 937L582 937Q701 1124 925 1124Q1079 1124 1175 1032Q1268 943 1268 807Q1268 749 1254 676L1112 0L821 0L953 628Q963 676 963 712Q963 790 909 837Q856 883 770 883Q672 883 599 820Q527 758 506 659L366 0L74 0L397 1515Z"  horiz-adv-x="1321" vert-adv-y="2048"  />

      
      <glyph glyph-name="uni69" unicode="&#x69;" d="M312 1103L605 1103L370 0L77 0L312 1103M523 1257Q446 1257 398 1298Q351 1338 351 1400Q351 1465 398 1507Q446 1551 523 1551Q600 1551 648 1510Q695 1471 695 1409Q695 1344 648 1301Q600 1257 523 1257Z"  horiz-adv-x="599" vert-adv-y="2048"  />

      
      <glyph glyph-name="uni6a" unicode="&#x6a;" d="M358-55Q325-209 219-292Q113-373-51-374Q-112-374-182-362L-134-136Q-108-142-71-142Q48-142 74-22L314 1103L605 1103L358-55M524 1257Q447 1257 399 1298Q352 1338 352 1400Q352 1465 399 1507Q447 1551 524 1551Q601 1551 649 1510Q696 1471 696 1409Q696 1344 649 1301Q601 1257 524 1257Z"  horiz-adv-x="599" vert-adv-y="2048"  />

      
      <glyph glyph-name="uni6b" unicode="&#x6b;" d="M978 1103L1318 1103L789 621L1117 0L796 0L554 457L444 363L366 0L74 0L398 1524L689 1524L512 690L530 690L978 1103Z"  horiz-adv-x="1210" vert-adv-y="2048"  />

      
      <glyph glyph-name="uni6c" unicode="&#x6c;" d="M398 1524L691 1524L367 0L74 0L398 1524Z"  horiz-adv-x="593" vert-adv-y="2048"  />

      
      <glyph glyph-name="uni6d" unicode="&#x6d;" d="M302 1112L584 1112L545 930L563 930Q676 1127 878 1127Q989 1127 1067 1067Q1139 1013 1162 929L1180 929Q1304 1127 1535 1127Q1670 1127 1757 1040Q1843 954 1843 821Q1843 760 1828 689L1683 0L1392 0L1528 645Q1538 697 1538 729Q1538 797 1497 840Q1454 883 1383 883Q1303 883 1242 827Q1179 769 1158 671L1016 0L734 0L870 645Q880 689 880 729Q880 797 839 840Q796 883 725 883Q646 883 585 827Q522 770 501 675L358 0L66 0L302 1112Z"  horiz-adv-x="1893" vert-adv-y="2048"  />

      
      <glyph glyph-name="uni6e" unicode="&#x6e;" d="M302 1112L584 1112L547 937L565 937Q684 1127 913 1127Q1065 1127 1159 1035Q1252 946 1252 807Q1252 749 1238 676L1096 0L805 0L937 628Q947 674 947 712Q947 788 895 835Q843 883 758 883Q662 883 590 820Q519 758 498 659L358 0L66 0L302 1112Z"  horiz-adv-x="1305" vert-adv-y="2048"  />

      
      <glyph glyph-name="uni6f" unicode="&#x6f;" d="M437 467Q437 352 491 284Q547 215 644 215Q764 215 852 334Q942 456 942 628Q942 751 889 820Q836 889 741 889Q609 889 522 766Q437 645 437 467M627-24Q405-24 269 109Q134 241 134 458Q134 742 306 932Q483 1127 757 1127Q979 1127 1113 994Q1247 861 1247 644Q1247 363 1077 173Q900-24 627-24Z"  horiz-adv-x="1298" vert-adv-y="2048"  />

      
      <glyph glyph-name="uni70" unicode="&#x70;" d="M677 230Q808 230 898 350Q988 471 988 649Q988 760 931 821Q876 880 782 880Q651 880 558 757Q466 635 466 465Q466 354 525 291Q582 230 677 230M-5-345L304 1103L587 1103L554 950L572 950Q698 1121 912 1121Q1079 1121 1184 1006Q1290 890 1290 699Q1290 391 1130 187Q972-17 736-17Q618-17 533 44Q451 102 423 200L405 200L287-345L-5-345Z"  horiz-adv-x="1334" vert-adv-y="2048"  />

      
      <glyph glyph-name="uni71" unicode="&#x71;" d="M636 223Q767 223 860 346Q952 468 952 639Q952 750 893 813Q836 874 741 874Q610 874 520 756Q430 637 430 461Q430 347 487 284Q542 223 636 223M753-345L859 153L842 153Q717-17 505-17Q338-17 234 99Q128 217 128 411Q128 716 289 919Q448 1121 684 1121Q804 1121 896 1061Q982 1004 1011 915L1029 915L1069 1103L1352 1103L1044-345L753-345Z"  horiz-adv-x="1336" vert-adv-y="2048"  />

      
      <glyph glyph-name="uni72" unicode="&#x72;" d="M297 1103L580 1103L549 951L567 951Q661 1121 841 1121Q931 1121 982 1097L925 829Q850 859 757 859Q539 859 485 608L354 0L62 0L297 1103Z"  horiz-adv-x="908" vert-adv-y="2048"  />

      
      <glyph glyph-name="uni73" unicode="&#x73;" d="M362 318Q374 261 429 225Q486 189 567 189Q652 189 703 221Q755 253 755 306Q755 375 642 412L470 472Q210 561 210 770Q210 931 337 1030Q463 1127 667 1127Q867 1127 990 1037Q1112 948 1123 799L856 799Q846 851 794 883Q743 914 667 914Q590 914 540 882Q491 850 491 800Q491 732 613 691L792 628Q926 582 987 513Q1047 444 1047 338Q1047 176 914 76Q781-24 566-24Q354-24 220 71Q87 165 81 318L362 318Z"  horiz-adv-x="1150" vert-adv-y="2048"  />

      
      <glyph glyph-name="uni74" unicode="&#x74;" d="M567-14Q209-14 209 221Q209 264 220 317L336 854L161 854L208 1084L383 1084L439 1351L732 1351L675 1084L910 1084L862 854L628 854L524 375Q516 338 516 311Q516 213 668 213Q699 213 720 216L674-6Q626-14 567-14Z"  horiz-adv-x="846" vert-adv-y="2048"  />

      
      <glyph glyph-name="uni75" unicode="&#x75;" d="M1088 0L805 0L841 167L823 167Q715-24 480-24Q328-24 234 64Q138 153 138 298Q138 356 153 439L292 1103L585 1103L454 487Q444 440 444 401Q444 228 628 228Q727 228 799 291Q869 354 892 459L1029 1103L1321 1103L1088 0Z"  horiz-adv-x="1305" vert-adv-y="2048"  />

      
      <glyph glyph-name="uni76" unicode="&#x76;" d="M504 1103L567 296L585 296L979 1103L1291 1103L680 0L349 0L210 1103L504 1103Z"  horiz-adv-x="1184" vert-adv-y="2048"  />

      
      <glyph glyph-name="uni77" unicode="&#x77;" d="M1305 0L993 0L958 758L940 758L585 0L279 0L219 1103L503 1103L508 316L526 316L881 1103L1164 1103L1189 312L1207 312L1541 1103L1832 1103L1305 0Z"  horiz-adv-x="1735" vert-adv-y="2048"  />

      
      <glyph glyph-name="uni78" unicode="&#x78;" d="M588 354L311 0L-8 0L455 552L224 1103L542 1103L671 745L689 745L959 1103L1284 1103L818 549L1053 0L746 0L606 354L588 354Z"  horiz-adv-x="1191" vert-adv-y="2048"  />

      
      <glyph glyph-name="uni79" unicode="&#x79;" d="M131-403Q69-403-1-398L45-163Q65-169 126-169Q277-169 337-47L359-3L215 1103L512 1103L576 281L594 281L999 1103L1311 1103L681-40Q575-240 448-323Q324-403 131-403Z"  horiz-adv-x="1208" vert-adv-y="2048"  />

      
      <glyph glyph-name="uni7a" unicode="&#x7a;" d="M80 172L769 853L771 871L239 871L288 1103L1186 1103L1145 911L493 250L492 232L1011 232L963 0L45 0L80 172Z"  horiz-adv-x="1160" vert-adv-y="2048"  />

      
      <glyph glyph-name="uni7b" unicode="&#x7b;" d="M416 601Q579 577 579 426Q579 389 570 345L513 85Q502 33 502 0Q502-66 545-94Q587-122 683-122L728-122L683-338L585-338Q413-338 312-267Q212-198 212-81Q212-23 227 47L275 265Q287 322 287 361Q287 421 255 447Q223 472 150 472L207 749Q302 749 348 795Q395 840 420 957L463 1151Q505 1350 631 1437Q751 1518 979 1518L1078 1518L1033 1298L988 1298Q872 1298 814 1252Q754 1205 730 1093L678 856Q631 638 420 619L416 601Z"  horiz-adv-x="926" vert-adv-y="2048"  />

      
      <glyph glyph-name="uni7c" unicode="&#x7c;" d="M103-289L472 1443L739 1443L370-289L103-289Z"  horiz-adv-x="749" vert-adv-y="2048"  />

      
      <glyph glyph-name="uni7d" unicode="&#x7d;" d="M610 579Q447 601 447 753Q447 790 456 835L513 1094Q524 1146 524 1179Q524 1245 482 1273Q440 1301 343 1301L298 1301L343 1518L441 1518Q613 1518 715 1447Q814 1377 814 1260Q814 1202 799 1133L751 914Q739 859 739 819Q739 758 772 733Q803 708 876 708L819 431Q725 431 678 385Q631 339 606 223L563 29Q521-170 395-256Q275-338 47-338L-53-338L-7-119L38-119Q154-119 212-73Q272-26 296 86L348 323Q394 541 606 561L610 579Z"  horiz-adv-x="926" vert-adv-y="2048"  />

      
      <glyph glyph-name="uni7e" unicode="&#x7e;" d="M772 479Q656 479 548 597Q481 668 471 677Q429 714 390 714Q296 714 264 555L35 555Q66 757 162 866Q254 971 389 971Q504 971 612 854Q680 780 688 773Q729 736 766 736Q861 736 892 896L1122 896Q1091 692 1000 584Q910 479 772 479Z"  horiz-adv-x="1225" vert-adv-y="2048"  />

      
      <glyph glyph-name="unia1" unicode="&#xa1;" d="M56-322L289 647L556 647L376-322L56-322M498 1152Q580 1152 631 1103Q679 1057 679 987Q679 910 631 861Q581 811 498 811Q416 811 366 860Q317 907 317 977Q317 1054 366 1102Q416 1152 498 1152Z"  horiz-adv-x="729" vert-adv-y="2048"  />

      
      <glyph glyph-name="unia2" unicode="&#xa2;" d="M1262 525Q1235 366 1114 259Q988 148 801 131L763-52L521-52L564 156Q422 201 342 316Q260 432 260 595Q260 872 409 1062Q560 1254 803 1280L839 1449L1081 1449L1040 1257Q1163 1215 1240 1121Q1313 1032 1323 922Q1325 896 1325 879L1049 879Q1045 955 988 1000Q933 1044 850 1044Q718 1044 634 920Q551 799 551 617Q551 497 612 430Q667 369 759 369Q931 369 984 525L1262 525Z"  horiz-adv-x="1415" vert-adv-y="2048"  />

      
      <glyph glyph-name="unia3" unicode="&#xa3;" d="M1205 6L81 6L134 262Q274 272 381 360Q496 455 510 599Q510 616 507 638L197 638L240 851L495 851Q477 991 477 1030Q477 1240 620 1359Q767 1480 1032 1480Q1286 1480 1453 1403L1403 1164Q1286 1230 1081 1230Q938 1230 858 1171Q773 1108 773 985Q773 936 782 851L1167 851L1124 638L798 638L799 612Q790 353 559 281L556 263L1258 263L1205 6Z"  horiz-adv-x="1415" vert-adv-y="2048"  />

      
      <glyph glyph-name="unia4" unicode="&#xa4;" d="M513 648Q513 553 582 485Q651 416 747 416Q843 416 913 485Q982 553 982 648Q982 743 913 812Q843 881 747 881Q651 881 582 812Q513 743 513 648M1155 843Q1198 749 1198 648Q1198 506 1117 388L1216 263L1017 94L915 225Q833 192 747 192Q597 192 477 283L259 102L126 276L340 454Q297 545 297 648Q297 791 378 909L278 1034L476 1203L579 1072Q661 1105 747 1105Q898 1105 1017 1013L1235 1194L1367 1020L1155 843Z"  horiz-adv-x="1415" vert-adv-y="2048"  />

      
      <glyph glyph-name="unia5" unicode="&#xa5;" d="M829 206L785 0L481 0L526 206L254 206L290 375L561 375L590 508L318 508L354 677L550 677L285 1443L601 1443L797 836L815 836L1262 1443L1592 1443L1011 677L1198 677L1162 508L893 508L864 375L1134 375L1098 206L829 206Z"  horiz-adv-x="1415" vert-adv-y="2048"  />

      
      <glyph glyph-name="unia6" unicode="&#xa6;" d="M330 773L472 1443L739 1443L597 773L330 773M103-289L245 380L512 380L370-289L103-289Z"  horiz-adv-x="749" vert-adv-y="2048"  />

      
      <glyph glyph-name="unia7" unicode="&#xa7;" d="M602 406Q669 423 710 464Q752 506 752 558Q752 644 646 690L542 742Q473 728 428 687Q382 645 382 592Q382 511 496 459L602 406M444-288Q261-288 141-195Q18-99 14 54L266 54Q275-3 324-40Q374-77 446-77Q522-77 572-41Q621-5 621 49Q621 129 519 171L352 251Q122 356 122 543Q122 652 195 730Q268 807 391 833L393 852Q247 951 247 1090Q247 1242 369 1339Q489 1434 677 1434Q858 1434 971 1342Q1085 1249 1097 1093L848 1093Q841 1152 793 1187Q746 1222 675 1222Q604 1222 557 1188Q511 1153 511 1100Q511 1026 621 979L773 902Q1011 790 1011 608Q1011 502 939 421Q866 339 746 314L744 298Q886 200 886 61Q886-92 761-190Q636-288 444-288Z"  horiz-adv-x="1032" vert-adv-y="2048"  />

      
      <glyph glyph-name="unia8" unicode="&#xa8;" d="M527 1267Q459 1267 415 1310Q371 1353 371 1419Q371 1485 415 1528Q459 1570 527 1570Q594 1570 638 1528Q682 1485 682 1419Q682 1353 638 1310Q594 1267 527 1267M994 1267Q927 1267 883 1310Q839 1353 839 1419Q839 1485 883 1528Q927 1570 994 1570Q1062 1570 1106 1528Q1150 1485 1150 1419Q1150 1353 1106 1310Q1062 1267 994 1267Z"  horiz-adv-x="1071" vert-adv-y="2048"  />

      
      <glyph glyph-name="unia9" unicode="&#xa9;" d="M905-135Q587-135 371 78Q154 290 154 603Q154 953 399 1197Q644 1440 998 1440Q1320 1440 1535 1229Q1750 1019 1750 703Q1750 352 1505 109Q1260-135 905-135M913 26Q1190 26 1387 223Q1584 419 1584 695Q1584 947 1415 1113Q1246 1279 990 1279Q713 1279 516 1083Q319 886 319 611Q319 361 489 193Q659 26 913 26M1129 759Q1128 819 1089 856Q1051 892 989 892Q899 892 838 807Q777 723 777 599Q777 515 816 468Q856 421 926 421Q1035 421 1077 516L1270 516Q1240 396 1146 328Q1052 259 918 259Q770 259 678 353Q586 446 586 598Q586 794 703 924Q819 1053 996 1053Q1140 1053 1231 970Q1321 887 1316 759L1129 759Z"  horiz-adv-x="1743" vert-adv-y="2048"  />

      
      <glyph glyph-name="uniaa" unicode="&#xaa;" d="M608 912Q530 909 486 879Q442 849 442 798Q442 753 478 726Q513 698 570 698Q639 698 692 738Q745 779 759 843L775 917L608 912M458 503Q335 503 257 575Q179 647 179 762Q179 904 284 985Q388 1065 575 1069L808 1074L814 1102Q820 1123 820 1126Q826 1156 825 1162Q826 1207 789 1233Q752 1259 689 1259Q579 1259 546 1186L294 1186Q328 1320 434 1392Q539 1464 698 1464Q874 1464 981 1386Q1088 1308 1088 1178Q1088 1140 1081 1106L955 516L698 516L719 620L702 621Q617 503 458 503Z"  horiz-adv-x="1030" vert-adv-y="2048"  />

      
      <glyph glyph-name="uniab" unicode="&#xab;" d="M973 550L971 540L1223 151L959 151L698 562L700 570L1127 981L1415 981L973 550M467 556L465 545L712 151L448 151L187 562L189 570L606 981L904 981L467 556Z"  horiz-adv-x="1447" vert-adv-y="2048"  />

      
      <glyph glyph-name="uniac" unicode="&#xac;" d="M1168 59L913 59L997 455L207 455L260 713L1305 713L1168 59Z"  horiz-adv-x="1415" vert-adv-y="2048"  />

      
      <glyph glyph-name="uniae" unicode="&#xae;" d="M487 664L590 1151L838 1151Q904 1151 950 1108Q995 1065 995 1005Q995 944 957 899Q920 856 858 841L942 664L798 664L723 829L647 829L612 664L487 664M668 925L771 925Q859 925 859 993Q859 1047 793 1047L694 1047L668 925M215 897Q215 1116 369 1269Q524 1422 745 1422Q974 1422 1124 1273Q1275 1124 1275 897Q1275 678 1121 525Q966 372 745 372Q516 372 366 521Q215 670 215 897M1142 897Q1142 1070 1030 1181Q918 1292 745 1292Q579 1292 464 1177Q348 1062 348 897Q348 725 459 613Q571 502 743 502Q909 502 1025 617Q1142 733 1142 897Z"  horiz-adv-x="1261" vert-adv-y="2048"  />

      
      <glyph glyph-name="uniaf" unicode="&#xaf;" d="M371 1316L409 1496L1144 1496L1106 1316L371 1316Z"  horiz-adv-x="1071" vert-adv-y="2048"  />

      
      <glyph glyph-name="unib0" unicode="&#xb0;" d="M577 874Q452 874 364 963Q276 1052 276 1178Q276 1303 364 1392Q452 1481 577 1481Q702 1481 791 1392Q879 1303 879 1178Q879 1052 791 963Q702 874 577 874M577 1046Q633 1046 673 1085Q712 1123 712 1178Q712 1233 673 1271Q633 1310 577 1310Q523 1310 483 1271Q443 1232 443 1178Q443 1124 483 1085Q523 1046 577 1046Z"  horiz-adv-x="806" vert-adv-y="2048"  />

      
      <glyph glyph-name="unib1" unicode="&#xb1;" d="M148 71L194 296L1191 296L1145 71L148 71M845 416L593 416L644 650L271 650L317 874L690 874L742 1108L993 1108L942 874L1316 874L1270 650L896 650L845 416Z"  horiz-adv-x="1415" vert-adv-y="2048"  />

      
      <glyph glyph-name="unib2" unicode="&#xb2;" d="M330 1527Q339 1668 451 1759Q563 1850 728 1850Q878 1850 973 1775Q1067 1699 1067 1580Q1067 1495 1013 1423Q957 1349 817 1249Q650 1130 625 1117L623 1105L983 1105L940 896L220 896L260 1088L582 1321Q714 1415 760 1464Q806 1512 806 1556Q806 1596 778 1620Q750 1644 704 1644Q654 1644 618 1613Q581 1581 571 1528L571 1527L330 1527Z"  horiz-adv-x="917" vert-adv-y="2048"  />

      
      <glyph glyph-name="unib3" unicode="&#xb3;" d="M593 1464L706 1464Q765 1464 802 1492Q839 1521 839 1565Q839 1603 809 1626Q779 1650 730 1650Q634 1650 605 1566L364 1566Q390 1696 495 1773Q601 1850 753 1850Q902 1850 999 1779Q1095 1707 1095 1597Q1095 1507 1032 1443Q968 1379 871 1372L870 1359Q1033 1322 1033 1165Q1033 1035 924 952Q816 870 643 870Q468 870 362 965Q255 1060 272 1201L521 1201Q517 1150 551 1118Q585 1086 642 1086Q701 1086 736 1116Q772 1147 772 1196Q772 1235 739 1261Q706 1286 655 1286L556 1286L593 1464Z"  horiz-adv-x="944" vert-adv-y="2048"  />

      
      <glyph glyph-name="unib4" unicode="&#xb4;" d="M775 1634L1085 1634L724 1281L452 1281L775 1634Z"  horiz-adv-x="1071" vert-adv-y="2048"  />

      
      <glyph glyph-name="unib6" unicode="&#xb6;" d="M537-259L692 460Q507 478 396 594Q287 709 287 880Q287 1124 452 1279Q617 1434 889 1442L1179 1443L817-259L537-259M1347 1443L1627 1443L1266-259L986-259L1347 1443Z"  horiz-adv-x="1538" vert-adv-y="2048"  />

      
      <glyph glyph-name="unib7" unicode="&#xb7;" d="M442 555Q359 555 308 606Q259 655 259 728Q259 809 308 860Q359 912 442 912Q525 912 575 861Q624 813 624 739Q624 658 575 607Q525 555 442 555Z"  horiz-adv-x="723" vert-adv-y="2048"  />

      
      <glyph glyph-name="unib8" unicode="&#xb8;" d="M260-116L356 30L540 30L444-117Q603-143 603-281Q603-377 531-435Q459-493 340-493Q233-493 154-457L182-324Q247-351 324-351Q416-351 416-293Q416-232 300-232L243-232L260-116Z"  horiz-adv-x="1071" vert-adv-y="2048"  />

      
      <glyph glyph-name="unib9" unicode="&#xb9;" d="M576 1576L563 1576L312 1431L361 1669L627 1824L895 1824L698 896L430 896L576 1576Z"  horiz-adv-x="759" vert-adv-y="2048"  />

      
      <glyph glyph-name="uniba" unicode="&#xba;" d="M725 1250Q627 1250 558 1151Q490 1053 490 914Q490 816 531 762Q573 707 646 707Q743 707 811 806Q880 905 880 1045Q880 1140 839 1195Q797 1250 725 1250M634 486Q440 486 327 601Q214 715 214 913Q214 1154 363 1312Q512 1470 739 1470Q933 1470 1045 1355Q1156 1240 1156 1039Q1156 799 1008 643Q861 486 634 486Z"  horiz-adv-x="1106" vert-adv-y="2048"  />

      
      <glyph glyph-name="unibb" unicode="&#xbb;" d="M313 981L577 981L839 570L837 562L410 151L122 151L563 581L565 592L313 981M826 981L1090 981L1351 570L1349 562L932 151L634 151L1071 576L1073 586L826 981Z"  horiz-adv-x="1448" vert-adv-y="2048"  />

      
      <glyph glyph-name="unibc" unicode="&#xbc;" d="M1791 136L1332 136L1377 375Q1513 564 1829 928L2211 928L2087 347L2198 347L2154 136L2043 136L2014 0L1762 0L1791 136M1601 337L1840 337L1927 739L1914 739Q1735 530 1604 349L1601 337M594 1195L581 1195L330 1050L379 1288L645 1443L913 1443L716 515L448 515L594 1195M1087 756L1542 1443L1818 1443L1262 694L812 0L535 0L1087 756Z"  horiz-adv-x="2292" vert-adv-y="2048"  />

      
      <glyph glyph-name="unibd" unicode="&#xbd;" d="M1513 631Q1522 772 1634 863Q1746 954 1911 954Q2061 954 2156 879Q2250 803 2250 684Q2250 599 2196 527Q2140 453 2000 353Q1833 234 1808 221L1806 209L2166 209L2123 0L1403 0L1443 192L1765 425Q1897 519 1943 568Q1989 616 1989 660Q1989 700 1961 724Q1933 748 1887 748Q1837 748 1801 717Q1764 685 1754 632L1754 631L1513 631M594 1195L581 1195L330 1050L379 1288L645 1443L913 1443L716 515L448 515L594 1195M1087 756L1542 1443L1818 1443L1262 694L812 0L535 0L1087 756Z"  horiz-adv-x="2287" vert-adv-y="2048"  />

      
      <glyph glyph-name="unibe" unicode="&#xbe;" d="M567 1083L680 1083Q739 1083 776 1111Q813 1140 813 1184Q813 1222 783 1245Q753 1269 704 1269Q608 1269 579 1185L338 1185Q364 1315 469 1392Q575 1469 727 1469Q876 1469 973 1398Q1069 1326 1069 1216Q1069 1126 1006 1062Q942 998 845 991L844 978Q1007 941 1007 784Q1007 654 898 571Q790 489 617 489Q442 489 336 584Q229 679 246 820L495 820Q491 769 525 737Q559 705 616 705Q675 705 710 735Q746 766 746 815Q746 854 713 880Q680 905 629 905L530 905L567 1083M1939 136L1480 136L1525 375Q1661 564 1977 928L2359 928L2235 347L2346 347L2302 136L2191 136L2162 0L1910 0L1939 136M1749 337L1988 337L2075 739L2062 739Q1884 530 1752 349L1749 337M1235 756L1690 1443L1966 1443L1410 694L960 0L683 0L1235 756Z"  horiz-adv-x="2426" vert-adv-y="2048"  />

      
      <glyph glyph-name="unibf" unicode="&#xbf;" d="M735 1152Q817 1152 868 1107Q920 1062 920 989Q920 911 868 860Q816 809 735 809Q655 809 604 854Q551 900 551 972Q551 1048 602 1100Q654 1152 735 1152M997 69Q971-112 840-221Q704-334 497-334Q287-334 157-232Q29-131 29 26Q29 153 104 257Q179 362 313 422Q425 472 470 514Q517 558 531 628L540 671L810 671L798 608Q776 476 719 405Q665 337 547 285Q427 230 377 175Q328 122 328 50Q328-12 376-52Q426-94 511-94Q588-94 646-50Q703-7 724 69L997 69Z"  horiz-adv-x="1140" vert-adv-y="2048"  />

      
      <glyph glyph-name="unic0" unicode="&#xc0;" d="M1007 344L498 344L312 0L-3 0L817 1443L1166 1443L1353 0L1042 0L1007 344M612 577L993 577L935 1142L916 1142L612 577M1159 1590L893 1590L676 1908L982 1908L1159 1590Z"  horiz-adv-x="1501" vert-adv-y="2048"  />

      
      <glyph glyph-name="unic1" unicode="&#xc1;" d="M1007 344L498 344L312 0L-3 0L817 1443L1166 1443L1353 0L1042 0L1007 344M612 577L993 577L935 1142L916 1142L612 577M1218 1908L1533 1908L1152 1590L875 1590L1218 1908Z"  horiz-adv-x="1501" vert-adv-y="2048"  />

      
      <glyph glyph-name="unic2" unicode="&#xc2;" d="M1007 344L498 344L312 0L-3 0L817 1443L1166 1443L1353 0L1042 0L1007 344M612 577L993 577L935 1142L916 1142L612 577M1413 1590L1164 1590L1072 1781L1054 1781L882 1590L607 1590L935 1925L1226 1925L1413 1590Z"  horiz-adv-x="1501" vert-adv-y="2048"  />

      
      <glyph glyph-name="unic3" unicode="&#xc3;" d="M1007 344L498 344L312 0L-3 0L817 1443L1166 1443L1353 0L1042 0L1007 344M612 577L993 577L935 1142L916 1142L612 577M1212 1578Q1121 1578 1031 1650Q941 1722 907 1722Q826 1722 810 1618L629 1618Q646 1747 721 1822Q794 1895 898 1895Q989 1895 1079 1823Q1169 1751 1202 1751Q1284 1751 1300 1855L1481 1855Q1463 1726 1389 1651Q1316 1578 1212 1578Z"  horiz-adv-x="1501" vert-adv-y="2048"  />

      
      <glyph glyph-name="unic4" unicode="&#xc4;" d="M1007 344L498 344L312 0L-3 0L817 1443L1166 1443L1353 0L1042 0L1007 344M612 577L993 577L935 1142L916 1142L612 577M819 1579Q751 1579 707 1622Q663 1665 663 1731Q663 1797 707 1840Q751 1882 819 1882Q886 1882 930 1840Q974 1797 974 1731Q974 1665 930 1622Q886 1579 819 1579M1286 1579Q1219 1579 1175 1622Q1131 1665 1131 1731Q1131 1797 1175 1840Q1219 1882 1286 1882Q1354 1882 1398 1840Q1442 1797 1442 1731Q1442 1665 1398 1622Q1354 1579 1286 1579Z"  horiz-adv-x="1501" vert-adv-y="2048"  />

      
      <glyph glyph-name="unic5" unicode="&#xc5;" d="M1007 344L498 344L312 0L-3 0L817 1443L1166 1443L1353 0L1042 0L1007 344M612 577L993 577L935 1142L916 1142L612 577M1072 1578Q967 1578 897 1646Q826 1715 826 1819Q826 1922 896 1989Q966 2057 1072 2057Q1177 2057 1247 1989Q1317 1922 1317 1819Q1317 1715 1247 1646Q1177 1578 1072 1578M1071 1714Q1117 1714 1147 1744Q1177 1773 1177 1818Q1177 1862 1147 1892Q1117 1921 1071 1921Q1025 1921 996 1892Q966 1862 966 1818Q966 1772 996 1743Q1025 1714 1071 1714Z"  horiz-adv-x="1501" vert-adv-y="2048"  />

      
      <glyph glyph-name="unic6" unicode="&#xc6;" d="M1050 1202L671 598L1050 598L1180 1202L1050 1202M1002 364L537 364L303 0L-4 0L899 1443L2158 1443L2104 1185L1454 1185L1379 844L1993 844L1943 605L1330 605L1253 258L1903 258L1851 0L922 0L1002 364Z"  horiz-adv-x="2059" vert-adv-y="2048"  />

      
      <glyph glyph-name="unic7" unicode="&#xc7;" d="M1258 932L1258 946Q1253 1066 1169 1139Q1086 1212 953 1212Q756 1212 622 1034Q488 855 488 589Q488 423 573 326Q657 230 803 230Q926 230 1023 294Q1120 358 1155 464L1454 464Q1411 256 1253 123Q1095-10 866-33L809-120Q968-146 968-284Q968-380 896-438Q824-496 705-496Q598-496 519-460L547-327Q612-354 689-354Q781-354 781-296Q781-235 665-235L608-235L625-119L683-31Q451-2 316 158Q179 319 179 568Q179 967 403 1224Q626 1480 972 1480Q1220 1480 1387 1335Q1554 1190 1554 975Q1554 947 1552 932L1258 932Z"  horiz-adv-x="1534" vert-adv-y="2048"  />

      
      <glyph glyph-name="unic8" unicode="&#xc8;" d="M1052 1590L786 1590L569 1908L875 1908L1052 1590M1056 0L99 0L406 1443L1362 1443L1309 1185L657 1185L582 848L1198 848L1148 609L533 609L455 258L1108 258L1056 0Z"  horiz-adv-x="1274" vert-adv-y="2048"  />

      
      <glyph glyph-name="unic9" unicode="&#xc9;" d="M1111 1908L1426 1908L1045 1590L768 1590L1111 1908M1056 0L99 0L406 1443L1362 1443L1309 1185L657 1185L582 848L1198 848L1148 609L533 609L455 258L1108 258L1056 0Z"  horiz-adv-x="1274" vert-adv-y="2048"  />

      
      <glyph glyph-name="unica" unicode="&#xca;" d="M1306 1590L1057 1590L965 1781L947 1781L775 1590L500 1590L828 1925L1119 1925L1306 1590M1056 0L99 0L406 1443L1362 1443L1309 1185L657 1185L582 848L1198 848L1148 609L533 609L455 258L1108 258L1056 0Z"  horiz-adv-x="1274" vert-adv-y="2048"  />

      
      <glyph glyph-name="unicb" unicode="&#xcb;" d="M712 1579Q644 1579 600 1622Q556 1665 556 1731Q556 1797 600 1840Q644 1882 712 1882Q779 1882 823 1840Q867 1797 867 1731Q867 1665 823 1622Q779 1579 712 1579M1179 1579Q1112 1579 1068 1622Q1024 1665 1024 1731Q1024 1797 1068 1840Q1112 1882 1179 1882Q1247 1882 1291 1840Q1335 1797 1335 1731Q1335 1665 1291 1622Q1247 1579 1179 1579M1056 0L99 0L406 1443L1362 1443L1309 1185L657 1185L582 848L1198 848L1148 609L533 609L455 258L1108 258L1056 0Z"  horiz-adv-x="1274" vert-adv-y="2048"  />

      
      <glyph glyph-name="unicc" unicode="&#xcc;" d="M99 0L406 1443L710 1443L403 0L99 0M726 1590L460 1590L243 1908L549 1908L726 1590Z"  horiz-adv-x="653" vert-adv-y="2048"  />

      
      <glyph glyph-name="unicd" unicode="&#xcd;" d="M99 0L406 1443L710 1443L403 0L99 0M785 1908L1100 1908L719 1590L442 1590L785 1908Z"  horiz-adv-x="653" vert-adv-y="2048"  />

      
      <glyph glyph-name="unice" unicode="&#xce;" d="M99 0L406 1443L710 1443L403 0L99 0M980 1590L731 1590L639 1781L621 1781L449 1590L174 1590L502 1925L793 1925L980 1590Z"  horiz-adv-x="653" vert-adv-y="2048"  />

      
      <glyph glyph-name="unicf" unicode="&#xcf;" d="M99 0L406 1443L710 1443L403 0L99 0M386 1579Q318 1579 274 1622Q230 1665 230 1731Q230 1797 274 1840Q318 1882 386 1882Q453 1882 497 1840Q541 1797 541 1731Q541 1665 497 1622Q453 1579 386 1579M853 1579Q786 1579 742 1622Q698 1665 698 1731Q698 1797 742 1840Q786 1882 853 1882Q921 1882 965 1840Q1009 1797 1009 1731Q1009 1665 965 1622Q921 1579 853 1579Z"  horiz-adv-x="653" vert-adv-y="2048"  />

      
      <glyph glyph-name="unid0" unicode="&#xd0;" d="M728 257Q933 257 1064 413Q1197 571 1197 822Q1197 992 1106 1089Q1013 1187 850 1187L659 1187L585 845L759 845L712 618L536 618L458 257L728 257M917 1443Q1193 1443 1351 1288Q1508 1132 1508 856Q1508 484 1296 242Q1083 0 755 0L100 0L231 618L57 618L104 845L279 845L406 1443L917 1443Z"  horiz-adv-x="1516" vert-adv-y="2048"  />

      
      <glyph glyph-name="unid1" unicode="&#xd1;" d="M1220 1578Q1129 1578 1039 1650Q949 1722 915 1722Q834 1722 818 1618L637 1618Q654 1747 729 1822Q802 1895 906 1895Q997 1895 1087 1823Q1177 1751 1210 1751Q1292 1751 1308 1855L1489 1855Q1471 1726 1397 1651Q1324 1578 1220 1578M99 0L406 1443L637 1443L1116 514L1134 514L1336 1443L1629 1443L1322 0L1093 0L610 922L592 922L392 0L99 0Z"  horiz-adv-x="1573" vert-adv-y="2048"  />

      
      <glyph glyph-name="unid2" unicode="&#xd2;" d="M1139 1589L873 1589L656 1907L962 1907L1139 1589M804-37Q524-37 350 138Q180 310 180 576Q180 971 407 1227Q631 1480 970 1480Q1252 1480 1425 1305Q1592 1134 1592 867Q1592 470 1366 215Q1144-37 804-37M1282 844Q1282 1009 1193 1109Q1104 1209 958 1209Q762 1209 626 1033Q490 855 490 598Q490 433 580 333Q669 233 816 233Q1013 233 1147 408Q1282 584 1282 844Z"  horiz-adv-x="1617" vert-adv-y="2048"  />

      
      <glyph glyph-name="unid3" unicode="&#xd3;" d="M1198 1907L1513 1907L1132 1589L855 1589L1198 1907M804-37Q524-37 350 138Q180 310 180 576Q180 971 407 1227Q631 1480 970 1480Q1252 1480 1425 1305Q1592 1134 1592 867Q1592 470 1366 215Q1144-37 804-37M1282 844Q1282 1009 1193 1109Q1104 1209 958 1209Q762 1209 626 1033Q490 855 490 598Q490 433 580 333Q669 233 816 233Q1013 233 1147 408Q1282 584 1282 844Z"  horiz-adv-x="1617" vert-adv-y="2048"  />

      
      <glyph glyph-name="unid4" unicode="&#xd4;" d="M1393 1589L1144 1589L1052 1780L1034 1780L862 1589L587 1589L915 1924L1206 1924L1393 1589M804-37Q524-37 350 138Q180 310 180 576Q180 971 407 1227Q631 1480 970 1480Q1252 1480 1425 1305Q1592 1134 1592 867Q1592 470 1366 215Q1144-37 804-37M1282 844Q1282 1009 1193 1109Q1104 1209 958 1209Q762 1209 626 1033Q490 855 490 598Q490 433 580 333Q669 233 816 233Q1013 233 1147 408Q1282 584 1282 844Z"  horiz-adv-x="1617" vert-adv-y="2048"  />

      
      <glyph glyph-name="unid5" unicode="&#xd5;" d="M804-37Q524-37 350 138Q180 310 180 576Q180 971 407 1227Q631 1480 970 1480Q1252 1480 1425 1305Q1592 1134 1592 867Q1592 470 1366 215Q1144-37 804-37M1282 844Q1282 1009 1193 1109Q1104 1209 958 1209Q762 1209 626 1033Q490 855 490 598Q490 433 580 333Q669 233 816 233Q1013 233 1147 408Q1282 584 1282 844M1192 1577Q1101 1577 1011 1649Q921 1721 887 1721Q806 1721 790 1617L609 1617Q626 1746 701 1821Q774 1894 878 1894Q969 1894 1059 1822Q1149 1750 1182 1750Q1264 1750 1280 1854L1461 1854Q1443 1725 1369 1650Q1296 1577 1192 1577Z"  horiz-adv-x="1617" vert-adv-y="2048"  />

      
      <glyph glyph-name="unid6" unicode="&#xd6;" d="M799 1578Q731 1578 687 1621Q643 1664 643 1730Q643 1796 687 1839Q731 1881 799 1881Q866 1881 910 1839Q954 1796 954 1730Q954 1664 910 1621Q866 1578 799 1578M1266 1578Q1199 1578 1155 1621Q1111 1664 1111 1730Q1111 1796 1155 1839Q1199 1881 1266 1881Q1334 1881 1378 1839Q1422 1796 1422 1730Q1422 1664 1378 1621Q1334 1578 1266 1578M804-37Q524-37 350 138Q180 310 180 576Q180 971 407 1227Q631 1480 970 1480Q1252 1480 1425 1305Q1592 1134 1592 867Q1592 470 1366 215Q1144-37 804-37M1282 844Q1282 1009 1193 1109Q1104 1209 958 1209Q762 1209 626 1033Q490 855 490 598Q490 433 580 333Q669 233 816 233Q1013 233 1147 408Q1282 584 1282 844Z"  horiz-adv-x="1617" vert-adv-y="2048"  />

      
      <glyph glyph-name="unid7" unicode="&#xd7;" d="M723 397L364 118L220 323L579 603L346 922L557 1078L785 769L1146 1048L1290 842L930 562L1165 238L954 82L723 397Z"  horiz-adv-x="1415" vert-adv-y="2048"  />

      
      <glyph glyph-name="unid8" unicode="&#xd8;" d="M666 267Q734 233 816 233Q1013 233 1147 408Q1282 584 1282 844Q1282 989 1211 1087L666 267M1118 1169Q1047 1209 958 1209Q762 1209 626 1033Q490 855 490 598Q490 441 571 343L1118 1169M1381 1344Q1592 1172 1592 867Q1592 470 1366 215Q1144-37 804-37Q641-37 507 27L444-68L342-2L404 91Q180 265 180 576Q180 971 407 1227Q631 1480 970 1480Q1142 1480 1278 1411L1342 1507L1450 1448L1381 1344Z"  horiz-adv-x="1592" vert-adv-y="2048"  />

      
      <glyph glyph-name="unid9" unicode="&#xd9;" d="M1181 1590L915 1590L698 1908L1004 1908L1181 1590M775-37Q514-37 360 96Q210 225 209 433Q209 497 222 559L409 1443L714 1443L528 566Q516 510 517 464Q519 356 592 295Q665 234 793 234Q920 234 1007 306Q1094 379 1123 513L1321 1443L1625 1443L1414 446Q1366 217 1200 91Q1032-37 775-37Z"  horiz-adv-x="1564" vert-adv-y="2048"  />

      
      <glyph glyph-name="unida" unicode="&#xda;" d="M1240 1908L1555 1908L1174 1590L897 1590L1240 1908M775-37Q514-37 360 96Q210 225 209 433Q209 497 222 559L409 1443L714 1443L528 566Q516 510 517 464Q519 356 592 295Q665 234 793 234Q920 234 1007 306Q1094 379 1123 513L1321 1443L1625 1443L1414 446Q1366 217 1200 91Q1032-37 775-37Z"  horiz-adv-x="1564" vert-adv-y="2048"  />

      
      <glyph glyph-name="unidb" unicode="&#xdb;" d="M1435 1590L1186 1590L1094 1781L1076 1781L904 1590L629 1590L957 1925L1248 1925L1435 1590M775-37Q514-37 360 96Q210 225 209 433Q209 497 222 559L409 1443L714 1443L528 566Q516 510 517 464Q519 356 592 295Q665 234 793 234Q920 234 1007 306Q1094 379 1123 513L1321 1443L1625 1443L1414 446Q1366 217 1200 91Q1032-37 775-37Z"  horiz-adv-x="1564" vert-adv-y="2048"  />

      
      <glyph glyph-name="unidc" unicode="&#xdc;" d="M841 1579Q773 1579 729 1622Q685 1665 685 1731Q685 1797 729 1840Q773 1882 841 1882Q908 1882 952 1840Q996 1797 996 1731Q996 1665 952 1622Q908 1579 841 1579M1308 1579Q1241 1579 1197 1622Q1153 1665 1153 1731Q1153 1797 1197 1840Q1241 1882 1308 1882Q1376 1882 1420 1840Q1464 1797 1464 1731Q1464 1665 1420 1622Q1376 1579 1308 1579M775-37Q514-37 360 96Q210 225 209 433Q209 497 222 559L409 1443L714 1443L528 566Q516 510 517 464Q519 356 592 295Q665 234 793 234Q920 234 1007 306Q1094 379 1123 513L1321 1443L1625 1443L1414 446Q1366 217 1200 91Q1032-37 775-37Z"  horiz-adv-x="1564" vert-adv-y="2048"  />

      
      <glyph glyph-name="unidd" unicode="&#xdd;" d="M499 0L613 531L303 1443L619 1443L815 836L833 836L1280 1443L1610 1443L913 519L803 0L499 0M1181 1908L1496 1908L1115 1590L838 1590L1181 1908Z"  horiz-adv-x="1451" vert-adv-y="2048"  />

      
      <glyph glyph-name="unide" unicode="&#xde;" d="M407 1443L709 1443L659 1211L929 1211Q1117 1211 1238 1099Q1359 987 1359 814Q1359 588 1198 440Q1034 290 778 290L464 290L401 0L100 0L407 1443M514 536L751 536Q892 536 974 602Q1055 669 1055 782Q1055 963 834 963L606 963L514 536Z"  horiz-adv-x="1382" vert-adv-y="2048"  />

      
      <glyph glyph-name="unidf" unicode="&#xdf;" d="M102 0L336 1088Q372 1255 510 1352Q649 1449 851 1449Q1062 1449 1196 1345Q1331 1241 1331 1078Q1331 948 1246 852Q1161 757 1029 737L1025 718Q1160 694 1236 616Q1312 536 1312 416Q1312 221 1171 102Q1030-17 805-17Q661-17 553 23L603 257Q676 223 770 223Q879 223 950 282Q1021 340 1021 431Q1021 512 953 557Q887 601 770 601L695 601L745 846L820 846Q912 846 975 899Q1040 953 1040 1032Q1040 1109 985 1156Q930 1204 842 1204Q651 1204 604 986L393 0L102 0Z"  horiz-adv-x="1405" vert-adv-y="2048"  />

      
      <glyph glyph-name="unie0" unicode="&#xe0;" d="M533 202Q626 202 698 254Q770 306 788 386L809 481L581 473Q481 469 425 430Q368 391 368 326Q368 271 414 237Q460 202 533 202M410-17Q270-17 176 69Q82 155 82 284Q82 452 212 550Q341 649 573 656L847 665L862 733Q867 758 867 773Q867 830 818 864Q769 897 685 897Q538 897 493 799L218 799Q253 950 386 1038Q518 1127 706 1127Q908 1127 1031 1038Q1154 948 1154 802Q1154 752 1145 713L994 0L711 0L740 136L722 136Q619-17 410-17M639 1281L389 1634L692 1634L904 1281L639 1281Z"  horiz-adv-x="1202" vert-adv-y="2048"  />

      
      <glyph glyph-name="unie1" unicode="&#xe1;" d="M533 202Q626 202 698 254Q770 306 788 386L809 481L581 473Q481 469 425 430Q368 391 368 326Q368 271 414 237Q460 202 533 202M410-17Q270-17 176 69Q82 155 82 284Q82 452 212 550Q341 649 573 656L847 665L862 733Q867 758 867 773Q867 830 818 864Q769 897 685 897Q538 897 493 799L218 799Q253 950 386 1038Q518 1127 706 1127Q908 1127 1031 1038Q1154 948 1154 802Q1154 752 1145 713L994 0L711 0L740 136L722 136Q619-17 410-17M951 1634L1261 1634L900 1281L628 1281L951 1634Z"  horiz-adv-x="1202" vert-adv-y="2048"  />

      
      <glyph glyph-name="unie2" unicode="&#xe2;" d="M533 202Q626 202 698 254Q770 306 788 386L809 481L581 473Q481 469 425 430Q368 391 368 326Q368 271 414 237Q460 202 533 202M410-17Q270-17 176 69Q82 155 82 284Q82 452 212 550Q341 649 573 656L847 665L862 733Q867 758 867 773Q867 830 818 864Q769 897 685 897Q538 897 493 799L218 799Q253 950 386 1038Q518 1127 706 1127Q908 1127 1031 1038Q1154 948 1154 802Q1154 752 1145 713L994 0L711 0L740 136L722 136Q619-17 410-17M1157 1251L907 1251L803 1460L785 1460L592 1251L316 1251L666 1605L957 1605L1157 1251Z"  horiz-adv-x="1202" vert-adv-y="2048"  />

      
      <glyph glyph-name="unie3" unicode="&#xe3;" d="M533 202Q626 202 698 254Q770 306 788 386L809 481L581 473Q481 469 425 430Q368 391 368 326Q368 271 414 237Q460 202 533 202M410-17Q270-17 176 69Q82 155 82 284Q82 452 212 550Q341 649 573 656L847 665L862 733Q867 758 867 773Q867 830 818 864Q769 897 685 897Q538 897 493 799L218 799Q253 950 386 1038Q518 1127 706 1127Q908 1127 1031 1038Q1154 948 1154 802Q1154 752 1145 713L994 0L711 0L740 136L722 136Q619-17 410-17M949 1247Q856 1247 769 1329Q682 1411 646 1411Q571 1411 552 1287L368 1287Q384 1422 459 1503Q533 1584 639 1584Q731 1584 818 1502Q905 1420 941 1420Q1017 1420 1036 1544L1220 1544Q1204 1408 1130 1327Q1055 1247 949 1247Z"  horiz-adv-x="1202" vert-adv-y="2048"  />

      
      <glyph glyph-name="unie4" unicode="&#xe4;" d="M533 202Q626 202 698 254Q770 306 788 386L809 481L581 473Q481 469 425 430Q368 391 368 326Q368 271 414 237Q460 202 533 202M410-17Q270-17 176 69Q82 155 82 284Q82 452 212 550Q341 649 573 656L847 665L862 733Q867 758 867 773Q867 830 818 864Q769 897 685 897Q538 897 493 799L218 799Q253 950 386 1038Q518 1127 706 1127Q908 1127 1031 1038Q1154 948 1154 802Q1154 752 1145 713L994 0L711 0L740 136L722 136Q619-17 410-17M547 1251Q479 1251 435 1294Q391 1337 391 1403Q391 1469 435 1512Q479 1554 547 1554Q614 1554 658 1512Q702 1469 702 1403Q702 1337 658 1294Q614 1251 547 1251M1014 1251Q947 1251 903 1294Q859 1337 859 1403Q859 1469 903 1512Q947 1554 1014 1554Q1082 1554 1126 1512Q1170 1469 1170 1403Q1170 1337 1126 1294Q1082 1251 1014 1251Z"  horiz-adv-x="1202" vert-adv-y="2048"  />

      
      <glyph glyph-name="unie5" unicode="&#xe5;" d="M533 202Q626 202 698 254Q770 306 788 386L809 481L581 473Q481 469 425 430Q368 391 368 326Q368 271 414 237Q460 202 533 202M410-17Q270-17 176 69Q82 155 82 284Q82 452 212 550Q341 649 573 656L847 665L862 733Q867 758 867 773Q867 830 818 864Q769 897 685 897Q538 897 493 799L218 799Q253 950 386 1038Q518 1127 706 1127Q908 1127 1031 1038Q1154 948 1154 802Q1154 752 1145 713L994 0L711 0L740 136L722 136Q619-17 410-17M836 1251Q731 1251 661 1319Q590 1388 590 1492Q590 1595 660 1662Q730 1730 836 1730Q941 1730 1011 1662Q1081 1595 1081 1492Q1081 1388 1011 1319Q941 1251 836 1251M835 1387Q881 1387 911 1417Q941 1446 941 1491Q941 1535 911 1565Q881 1594 835 1594Q789 1594 760 1565Q730 1535 730 1491Q730 1445 760 1416Q789 1387 835 1387Z"  horiz-adv-x="1202" vert-adv-y="2048"  />

      
      <glyph glyph-name="unie6" unicode="&#xe6;" d="M1296-24Q1173-24 1064 32Q953 89 909 178L891 178Q833 91 724 35Q608-24 476-24Q305-24 194 66Q84 155 84 288Q84 462 212 559Q339 655 575 663L849 672L864 733Q869 761 869 773Q869 830 820 864Q771 897 686 897Q539 897 495 799L220 799Q255 953 386 1041Q514 1127 702 1127Q947 1127 1039 971L1057 971Q1197 1127 1417 1127Q1610 1127 1739 1001Q1871 871 1872 665Q1872 579 1854 485L1086 485Q1085 477 1085 453Q1085 332 1154 264Q1217 203 1317 203Q1478 203 1533 317L1814 317Q1775 163 1638 70Q1497-24 1296-24M1596 669Q1599 678 1599 707Q1599 792 1546 846Q1490 903 1396 903Q1296 903 1220 839Q1146 775 1117 669L1596 669M535 195Q627 195 700 250Q772 305 790 386L811 481L583 473Q483 469 426 430Q369 391 369 325Q369 269 415 232Q462 195 535 195Z"  horiz-adv-x="1925" vert-adv-y="2048"  />

      
      <glyph glyph-name="unie7" unicode="&#xe7;" d="M921 723Q917 799 861 844Q806 888 722 888Q591 888 506 765Q423 644 423 463Q423 343 484 277Q539 217 631 217Q805 217 856 373L1135 373Q1108 214 987 107Q860-6 671-22L607-120Q766-146 766-284Q766-380 694-438Q622-496 503-496Q396-496 317-460L345-327Q410-354 487-354Q579-354 579-296Q579-235 463-235L406-235L423-119L493-13Q324 20 229 140Q132 261 132 441Q132 738 300 931Q471 1127 741 1127Q934 1127 1063 1016Q1182 913 1195 766Q1197 753 1197 723L921 723Z"  horiz-adv-x="1214" vert-adv-y="2048"  />

      
      <glyph glyph-name="unie8" unicode="&#xe8;" d="M613 1281L363 1634L666 1634L878 1281L613 1281M623-24Q405-24 272 101Q135 230 135 450Q135 752 301 940Q467 1127 732 1127Q933 1127 1063 1002Q1197 873 1197 665Q1197 583 1180 485L410 485L409 454Q409 332 478 265Q541 203 641 203Q804 203 859 317L1139 317Q1101 163 964 70Q824-24 623-24M921 669Q924 687 924 707Q924 792 870 846Q814 903 720 903Q621 903 545 839Q471 775 442 669L921 669Z"  horiz-adv-x="1248" vert-adv-y="2048"  />

      
      <glyph glyph-name="unie9" unicode="&#xe9;" d="M925 1634L1235 1634L874 1281L602 1281L925 1634M623-24Q405-24 272 101Q135 230 135 450Q135 752 301 940Q467 1127 732 1127Q933 1127 1063 1002Q1197 873 1197 665Q1197 583 1180 485L410 485L409 454Q409 332 478 265Q541 203 641 203Q804 203 859 317L1139 317Q1101 163 964 70Q824-24 623-24M921 669Q924 687 924 707Q924 792 870 846Q814 903 720 903Q621 903 545 839Q471 775 442 669L921 669Z"  horiz-adv-x="1248" vert-adv-y="2048"  />

      
      <glyph glyph-name="uniea" unicode="&#xea;" d="M1166 1251L916 1251L812 1460L794 1460L601 1251L325 1251L675 1605L966 1605L1166 1251M623-24Q405-24 272 101Q135 230 135 450Q135 752 301 940Q467 1127 732 1127Q933 1127 1063 1002Q1197 873 1197 665Q1197 583 1180 485L410 485L409 454Q409 332 478 265Q541 203 641 203Q804 203 859 317L1139 317Q1101 163 964 70Q824-24 623-24M921 669Q924 687 924 707Q924 792 870 846Q814 903 720 903Q621 903 545 839Q471 775 442 669L921 669Z"  horiz-adv-x="1248" vert-adv-y="2048"  />

      
      <glyph glyph-name="unieb" unicode="&#xeb;" d="M623-24Q405-24 272 101Q135 230 135 450Q135 752 301 940Q467 1127 732 1127Q933 1127 1063 1002Q1197 873 1197 665Q1197 583 1180 485L410 485L409 454Q409 332 478 265Q541 203 641 203Q804 203 859 317L1139 317Q1101 163 964 70Q824-24 623-24M921 669Q924 687 924 707Q924 792 870 846Q814 903 720 903Q621 903 545 839Q471 775 442 669L921 669M556 1251Q488 1251 444 1294Q400 1337 400 1403Q400 1469 444 1512Q488 1554 556 1554Q623 1554 667 1512Q711 1469 711 1403Q711 1337 667 1294Q623 1251 556 1251M1023 1251Q956 1251 912 1294Q868 1337 868 1403Q868 1469 912 1512Q956 1554 1023 1554Q1091 1554 1135 1512Q1179 1469 1179 1403Q1179 1337 1135 1294Q1091 1251 1023 1251Z"  horiz-adv-x="1248" vert-adv-y="2048"  />

      
      <glyph glyph-name="uniec" unicode="&#xec;" d="M344 1281L94 1634L397 1634L609 1281L344 1281M312 1103L603 1103L369 0L78 0L312 1103Z"  horiz-adv-x="599" vert-adv-y="2048"  />

      
      <glyph glyph-name="unied" unicode="&#xed;" d="M656 1634L966 1634L605 1281L333 1281L656 1634M312 1103L603 1103L369 0L78 0L312 1103Z"  horiz-adv-x="599" vert-adv-y="2048"  />

      
      <glyph glyph-name="uniee" unicode="&#xee;" d="M897 1251L647 1251L543 1460L525 1460L332 1251L56 1251L406 1605L697 1605L897 1251M312 1103L603 1103L369 0L78 0L312 1103Z"  horiz-adv-x="599" vert-adv-y="2048"  />

      
      <glyph glyph-name="unief" unicode="&#xef;" d="M312 1103L603 1103L369 0L78 0L312 1103M287 1251Q219 1251 175 1294Q131 1337 131 1403Q131 1469 175 1512Q219 1554 287 1554Q354 1554 398 1512Q442 1469 442 1403Q442 1337 398 1294Q354 1251 287 1251M754 1251Q687 1251 643 1294Q599 1337 599 1403Q599 1469 643 1512Q687 1554 754 1554Q822 1554 866 1512Q910 1469 910 1403Q910 1337 866 1294Q822 1251 754 1251Z"  horiz-adv-x="599" vert-adv-y="2048"  />

      
      <glyph glyph-name="unif0" unicode="&#xf0;" d="M632-24Q411-24 269 110Q127 243 127 448Q127 713 277 891Q427 1070 651 1070Q756 1070 845 1026Q934 982 969 913L987 912Q979 1063 885 1226L573 1132L549 1283L793 1357Q734 1427 633 1514L963 1514Q1011 1466 1035 1435L1288 1515L1313 1363L1125 1305Q1269 1057 1269 782Q1269 615 1227 475Q1159 243 1002 110Q843-24 632-24M955 609Q955 714 891 780Q827 845 726 845Q604 845 517 731Q430 618 430 460Q430 352 490 288Q550 224 651 224Q770 224 863 341Q955 458 955 609Z"  horiz-adv-x="1301" vert-adv-y="2048"  />

      
      <glyph glyph-name="unif1" unicode="&#xf1;" d="M976 1253Q883 1253 796 1335Q709 1417 673 1417Q598 1417 579 1293L395 1293Q411 1428 486 1509Q560 1590 666 1590Q758 1590 845 1508Q932 1426 968 1426Q1044 1426 1063 1550L1247 1550Q1231 1414 1157 1333Q1082 1253 976 1253M302 1112L584 1112L547 937L565 937Q684 1127 913 1127Q1065 1127 1159 1035Q1252 946 1252 807Q1252 749 1238 676L1096 0L805 0L937 628Q947 674 947 712Q947 788 895 835Q843 883 758 883Q662 883 590 820Q519 758 498 659L358 0L66 0L302 1112Z"  horiz-adv-x="1304" vert-adv-y="2048"  />

      
      <glyph glyph-name="unif2" unicode="&#xf2;" d="M634 1281L384 1634L687 1634L899 1281L634 1281M437 467Q437 352 491 284Q547 215 644 215Q764 215 852 334Q942 456 942 628Q942 751 889 820Q836 889 741 889Q609 889 522 766Q437 645 437 467M627-24Q405-24 269 109Q134 241 134 458Q134 742 306 932Q483 1127 757 1127Q979 1127 1113 994Q1247 861 1247 644Q1247 363 1077 173Q900-24 627-24Z"  horiz-adv-x="1289" vert-adv-y="2048"  />

      
      <glyph glyph-name="unif3" unicode="&#xf3;" d="M946 1634L1256 1634L895 1281L623 1281L946 1634M437 467Q437 352 491 284Q547 215 644 215Q764 215 852 334Q942 456 942 628Q942 751 889 820Q836 889 741 889Q609 889 522 766Q437 645 437 467M627-24Q405-24 269 109Q134 241 134 458Q134 742 306 932Q483 1127 757 1127Q979 1127 1113 994Q1247 861 1247 644Q1247 363 1077 173Q900-24 627-24Z"  horiz-adv-x="1289" vert-adv-y="2048"  />

      
      <glyph glyph-name="unif4" unicode="&#xf4;" d="M1187 1251L937 1251L833 1460L815 1460L622 1251L346 1251L696 1605L987 1605L1187 1251M437 467Q437 352 491 284Q547 215 644 215Q764 215 852 334Q942 456 942 628Q942 751 889 820Q836 889 741 889Q609 889 522 766Q437 645 437 467M627-24Q405-24 269 109Q134 241 134 458Q134 742 306 932Q483 1127 757 1127Q979 1127 1113 994Q1247 861 1247 644Q1247 363 1077 173Q900-24 627-24Z"  horiz-adv-x="1289" vert-adv-y="2048"  />

      
      <glyph glyph-name="unif5" unicode="&#xf5;" d="M979 1247Q886 1247 799 1329Q712 1411 676 1411Q601 1411 582 1287L398 1287Q414 1422 489 1503Q563 1584 669 1584Q761 1584 848 1502Q935 1420 971 1420Q1047 1420 1066 1544L1250 1544Q1234 1408 1160 1327Q1085 1247 979 1247M437 467Q437 352 491 284Q547 215 644 215Q764 215 852 334Q942 456 942 628Q942 751 889 820Q836 889 741 889Q609 889 522 766Q437 645 437 467M627-24Q405-24 269 109Q134 241 134 458Q134 742 306 932Q483 1127 757 1127Q979 1127 1113 994Q1247 861 1247 644Q1247 363 1077 173Q900-24 627-24Z"  horiz-adv-x="1289" vert-adv-y="2048"  />

      
      <glyph glyph-name="unif6" unicode="&#xf6;" d="M577 1251Q509 1251 465 1294Q421 1337 421 1403Q421 1469 465 1512Q509 1554 577 1554Q644 1554 688 1512Q732 1469 732 1403Q732 1337 688 1294Q644 1251 577 1251M1044 1251Q977 1251 933 1294Q889 1337 889 1403Q889 1469 933 1512Q977 1554 1044 1554Q1112 1554 1156 1512Q1200 1469 1200 1403Q1200 1337 1156 1294Q1112 1251 1044 1251M437 467Q437 352 491 284Q547 215 644 215Q764 215 852 334Q942 456 942 628Q942 751 889 820Q836 889 741 889Q609 889 522 766Q437 645 437 467M627-24Q405-24 269 109Q134 241 134 458Q134 742 306 932Q483 1127 757 1127Q979 1127 1113 994Q1247 861 1247 644Q1247 363 1077 173Q900-24 627-24Z"  horiz-adv-x="1289" vert-adv-y="2048"  />

      
      <glyph glyph-name="unif7" unicode="&#xf7;" d="M193 472L240 697L1320 697L1273 472L193 472M830 814Q755 814 709 860Q664 905 664 971Q664 1044 709 1091Q755 1138 830 1138Q904 1138 950 1092Q995 1047 995 981Q995 908 950 862Q905 814 830 814M665 30Q590 30 544 76Q499 121 499 187Q499 260 544 307Q590 355 665 355Q739 355 785 308Q830 263 830 197Q830 124 785 78Q740 30 665 30Z"  horiz-adv-x="1416" vert-adv-y="2048"  />

      
      <glyph glyph-name="unif8" unicode="&#xf8;" d="M513 262Q566 215 644 215Q764 215 852 334Q942 456 942 628Q942 701 923 754L513 262M861 849Q812 889 741 889Q609 889 522 766Q437 645 437 467Q437 407 452 359L861 849M1119 988Q1247 857 1247 644Q1247 363 1077 173Q900-24 627-24Q459-24 339 53L234-73L144-10L255 123Q134 253 134 458Q134 742 306 932Q483 1127 757 1127Q917 1127 1034 1056L1131 1172L1224 1114L1119 988Z"  horiz-adv-x="1298" vert-adv-y="2048"  />

      
      <glyph glyph-name="unif9" unicode="&#xf9;" d="M689 1281L439 1634L742 1634L954 1281L689 1281M1088 0L805 0L841 167L823 167Q715-24 480-24Q328-24 234 64Q138 153 138 298Q138 356 153 439L292 1103L585 1103L454 487Q444 440 444 401Q444 228 628 228Q727 228 799 291Q869 354 892 459L1029 1103L1321 1103L1088 0Z"  horiz-adv-x="1305" vert-adv-y="2048"  />

      
      <glyph glyph-name="unifa" unicode="&#xfa;" d="M1001 1634L1311 1634L950 1281L678 1281L1001 1634M1088 0L805 0L841 167L823 167Q715-24 480-24Q328-24 234 64Q138 153 138 298Q138 356 153 439L292 1103L585 1103L454 487Q444 440 444 401Q444 228 628 228Q727 228 799 291Q869 354 892 459L1029 1103L1321 1103L1088 0Z"  horiz-adv-x="1305" vert-adv-y="2048"  />

      
      <glyph glyph-name="unifb" unicode="&#xfb;" d="M1242 1251L992 1251L888 1460L870 1460L677 1251L401 1251L751 1605L1042 1605L1242 1251M1088 0L805 0L841 167L823 167Q715-24 480-24Q328-24 234 64Q138 153 138 298Q138 356 153 439L292 1103L585 1103L454 487Q444 440 444 401Q444 228 628 228Q727 228 799 291Q869 354 892 459L1029 1103L1321 1103L1088 0Z"  horiz-adv-x="1305" vert-adv-y="2048"  />

      
      <glyph glyph-name="unifc" unicode="&#xfc;" d="M1088 0L805 0L841 167L823 167Q715-24 480-24Q328-24 234 64Q138 153 138 298Q138 356 153 439L292 1103L585 1103L454 487Q444 440 444 401Q444 228 628 228Q727 228 799 291Q869 354 892 459L1029 1103L1321 1103L1088 0M632 1251Q564 1251 520 1294Q476 1337 476 1403Q476 1469 520 1512Q564 1554 632 1554Q699 1554 743 1512Q787 1469 787 1403Q787 1337 743 1294Q699 1251 632 1251M1099 1251Q1032 1251 988 1294Q944 1337 944 1403Q944 1469 988 1512Q1032 1554 1099 1554Q1167 1554 1211 1512Q1255 1469 1255 1403Q1255 1337 1211 1294Q1167 1251 1099 1251Z"  horiz-adv-x="1305" vert-adv-y="2048"  />

      
      <glyph glyph-name="unifd" unicode="&#xfd;" d="M131-403Q69-403-1-398L45-163Q65-169 126-169Q277-169 337-47L359-3L215 1103L512 1103L576 281L594 281L999 1103L1311 1103L681-40Q575-240 448-323Q324-403 131-403M958 1634L1268 1634L907 1281L635 1281L958 1634Z"  horiz-adv-x="1208" vert-adv-y="2048"  />

      
      <glyph glyph-name="unife" unicode="&#xfe;" d="M680 230Q811 230 901 350Q991 471 991 649Q991 760 933 821Q878 880 785 880Q654 880 561 757Q468 635 468 465Q468 354 528 291Q585 230 680 230M290-345L-2-345L393 1507L684 1507L566 950L584 950Q705 1122 916 1122Q1081 1122 1186 1007Q1293 890 1293 699Q1293 391 1133 187Q974-17 738-17Q621-17 535 44Q452 102 425 200L407 200L290-345Z"  horiz-adv-x="1337" vert-adv-y="2048"  />

      
      <glyph glyph-name="uniff" unicode="&#xff;" d="M131-403Q69-403-1-398L45-163Q65-169 126-169Q277-169 337-47L359-3L215 1103L512 1103L576 281L594 281L999 1103L1311 1103L681-40Q575-240 448-323Q324-403 131-403M589 1251Q521 1251 477 1294Q433 1337 433 1403Q433 1469 477 1512Q521 1554 589 1554Q656 1554 700 1512Q744 1469 744 1403Q744 1337 700 1294Q656 1251 589 1251M1056 1251Q989 1251 945 1294Q901 1337 901 1403Q901 1469 945 1512Q989 1554 1056 1554Q1124 1554 1168 1512Q1212 1469 1212 1403Q1212 1337 1168 1294Q1124 1251 1056 1251Z"  horiz-adv-x="1208" vert-adv-y="2048"  />

      
      <glyph glyph-name="uni0100" unicode="&#x0100;" d="M1007 344L498 344L312 0L-3 0L817 1443L1166 1443L1353 0L1042 0L1007 344M612 577L993 577L935 1142L916 1142L612 577M659 1632L696 1813L1442 1813L1404 1632L659 1632Z"  horiz-adv-x="1501" vert-adv-y="2048"  />

      
      <glyph glyph-name="uni0101" unicode="&#x0101;" d="M533 202Q626 202 698 254Q770 306 788 386L809 481L581 473Q481 469 425 430Q368 391 368 326Q368 271 414 237Q460 202 533 202M410-17Q270-17 176 69Q82 155 82 284Q82 452 212 550Q341 649 573 656L847 665L862 733Q867 758 867 773Q867 830 818 864Q769 897 685 897Q538 897 493 799L218 799Q253 950 386 1038Q518 1127 706 1127Q908 1127 1031 1038Q1154 948 1154 802Q1154 752 1145 713L994 0L711 0L740 136L722 136Q619-17 410-17M395 1316L433 1496L1168 1496L1130 1316L395 1316Z"  horiz-adv-x="1202" vert-adv-y="2048"  />

      
      <glyph glyph-name="uni0102" unicode="&#x0102;" d="M1007 344L498 344L312 0L-3 0L817 1443L1166 1443L1353 0L1042 0L1007 344M612 577L993 577L935 1142L916 1142L612 577M657 1884Q657 1895 659 1915L864 1915L864 1894Q864 1831 916 1791Q967 1750 1045 1750Q1213 1750 1250 1915L1455 1915Q1433 1762 1322 1671Q1209 1579 1039 1579Q872 1579 764 1666Q657 1752 657 1884Z"  horiz-adv-x="1501" vert-adv-y="2048"  />

      
      <glyph glyph-name="uni0103" unicode="&#x0103;" d="M533 202Q626 202 698 254Q770 306 788 386L809 481L581 473Q481 469 425 430Q368 391 368 326Q368 271 414 237Q460 202 533 202M410-17Q270-17 176 69Q82 155 82 284Q82 452 212 550Q341 649 573 656L847 665L862 733Q867 758 867 773Q867 830 818 864Q769 897 685 897Q538 897 493 799L218 799Q253 950 386 1038Q518 1127 706 1127Q908 1127 1031 1038Q1154 948 1154 802Q1154 752 1145 713L994 0L711 0L740 136L722 136Q619-17 410-17M607 1602Q605 1586 605 1573Q605 1505 655 1463Q705 1421 787 1421Q970 1421 1001 1602L1207 1602Q1191 1441 1078 1347Q963 1251 780 1251Q608 1251 502 1339Q398 1424 398 1556Q398 1582 402 1602L607 1602Z"  horiz-adv-x="1202" vert-adv-y="2048"  />

      
      <glyph glyph-name="uni0104" unicode="&#x0104;" d="M612 577L993 577L935 1142L916 1142L612 577M1271-444Q1219-458 1163-458Q1047-458 977-403Q908-349 908-257Q908-107 1092 2L1094 13L1040 13L1007 344L498 344L312 0L-3 0L817 1443L1166 1443L1350 31Q1128-70 1128-193Q1128-285 1248-285Q1288-285 1305-280L1271-444Z"  horiz-adv-x="1501" vert-adv-y="2048"  />

      
      <glyph glyph-name="uni0105" unicode="&#x0105;" d="M809-458Q689-458 620-396Q551-334 562-236Q575-100 748-5L750 6L714 6L740 136L722 136Q619-17 410-17Q270-17 176 69Q82 155 82 284Q82 452 212 550Q341 649 573 656L847 665L862 733Q867 759 867 773Q867 830 818 864Q769 897 685 897Q538 897 493 799L218 799Q253 950 386 1038Q518 1127 706 1127Q908 1127 1031 1038Q1154 948 1154 802Q1154 752 1145 713L1000 31Q792-62 780-181Q775-229 806-257Q837-285 895-285Q937-285 955-280L922-444Q868-458 809-458M533 202Q626 202 698 254Q770 306 788 386L809 481L581 473Q482 469 425 430Q368 391 368 326Q368 271 414 236Q460 202 533 202Z"  horiz-adv-x="1202" vert-adv-y="2048"  />

      
      <glyph glyph-name="uni0106" unicode="&#x0106;" d="M1189 1909L1504 1909L1123 1591L846 1591L1189 1909M1258 932L1258 946Q1253 1066 1169 1139Q1086 1212 953 1212Q756 1212 622 1034Q488 855 488 589Q488 423 573 326Q657 230 803 230Q926 230 1023 294Q1120 358 1155 464L1454 464Q1407 236 1223 100Q1039-37 777-37Q505-37 342 128Q179 293 179 568Q179 967 403 1224Q626 1480 972 1480Q1220 1480 1387 1335Q1554 1190 1554 975Q1554 947 1552 932L1258 932Z"  horiz-adv-x="1534" vert-adv-y="2048"  />

      
      <glyph glyph-name="uni0107" unicode="&#x0107;" d="M921 723Q917 799 861 844Q806 888 722 888Q591 888 506 765Q423 644 423 463Q423 343 484 277Q539 217 631 217Q805 217 856 373L1135 373Q1106 201 969 92Q825-24 614-24Q394-24 263 103Q132 229 132 441Q132 738 300 931Q471 1127 741 1127Q934 1127 1063 1016Q1182 913 1195 766Q1197 753 1197 723L921 723M951 1634L1261 1634L900 1281L628 1281L951 1634Z"  horiz-adv-x="1218" vert-adv-y="2048"  />

      
      <glyph glyph-name="uni0108" unicode="&#x0108;" d="M1258 932L1258 946Q1253 1066 1169 1139Q1086 1212 953 1212Q756 1212 622 1034Q488 855 488 589Q488 423 573 326Q657 230 803 230Q926 230 1023 294Q1120 358 1155 464L1454 464Q1407 236 1223 100Q1039-37 777-37Q505-37 342 128Q179 293 179 568Q179 967 403 1224Q626 1480 972 1480Q1220 1480 1387 1335Q1554 1190 1554 975Q1554 947 1552 932L1258 932M1384 1591L1135 1591L1043 1782L1025 1782L853 1591L578 1591L906 1926L1197 1926L1384 1591Z"  horiz-adv-x="1534" vert-adv-y="2048"  />

      
      <glyph glyph-name="uni0109" unicode="&#x0109;" d="M1192 1251L942 1251L838 1460L820 1460L627 1251L351 1251L701 1605L992 1605L1192 1251M921 723Q917 799 861 844Q806 888 722 888Q591 888 506 765Q423 644 423 463Q423 343 484 277Q539 217 631 217Q805 217 856 373L1135 373Q1106 201 969 92Q825-24 614-24Q394-24 263 103Q132 229 132 441Q132 738 300 931Q471 1127 741 1127Q934 1127 1063 1016Q1182 913 1195 766Q1197 753 1197 723L921 723Z"  horiz-adv-x="1218" vert-adv-y="2048"  />

      
      <glyph glyph-name="uni010A" unicode="&#x010A;" d="M1027 1580Q958 1580 913 1625Q869 1670 869 1738Q869 1806 913 1851Q958 1896 1027 1896Q1096 1896 1140 1851Q1184 1806 1184 1738Q1184 1670 1140 1625Q1096 1580 1027 1580M1258 932L1258 946Q1253 1066 1169 1139Q1086 1212 953 1212Q756 1212 622 1034Q488 855 488 589Q488 423 573 326Q657 230 803 230Q926 230 1023 294Q1120 358 1155 464L1454 464Q1407 236 1223 100Q1039-37 777-37Q505-37 342 128Q179 293 179 568Q179 967 403 1224Q626 1480 972 1480Q1220 1480 1387 1335Q1554 1190 1554 975Q1554 947 1552 932L1258 932Z"  horiz-adv-x="1534" vert-adv-y="2048"  />

      
      <glyph glyph-name="uni010B" unicode="&#x010B;" d="M921 723Q917 799 861 844Q806 888 722 888Q591 888 506 765Q423 644 423 463Q423 343 484 277Q539 217 631 217Q805 217 856 373L1135 373Q1106 201 969 92Q825-24 614-24Q394-24 263 103Q132 229 132 441Q132 738 300 931Q471 1127 741 1127Q934 1127 1063 1016Q1182 913 1195 766Q1197 753 1197 723L921 723M824 1274Q756 1274 709 1321Q663 1368 663 1438Q663 1508 709 1555Q756 1602 824 1602Q892 1602 939 1555Q985 1508 985 1438Q985 1368 939 1321Q892 1274 824 1274Z"  horiz-adv-x="1218" vert-adv-y="2048"  />

      
      <glyph glyph-name="uni010C" unicode="&#x010C;" d="M1258 932L1258 946Q1253 1066 1169 1139Q1086 1212 953 1212Q756 1212 622 1034Q488 855 488 589Q488 423 573 326Q657 230 803 230Q926 230 1023 294Q1120 358 1155 464L1454 464Q1407 236 1223 100Q1039-37 777-37Q505-37 342 128Q179 293 179 568Q179 967 403 1224Q626 1480 972 1480Q1220 1480 1387 1335Q1554 1190 1554 975Q1554 947 1552 932L1258 932M673 1926L923 1926L1015 1735L1033 1735L1205 1926L1480 1926L1152 1591L861 1591L673 1926Z"  horiz-adv-x="1534" vert-adv-y="2048"  />

      
      <glyph glyph-name="uni010D" unicode="&#x010D;" d="M654 1251L454 1605L703 1605L806 1396L824 1396L1018 1605L1295 1605L945 1251L654 1251M921 723Q917 799 861 844Q806 888 722 888Q591 888 506 765Q423 644 423 463Q423 343 484 277Q539 217 631 217Q805 217 856 373L1135 373Q1106 201 969 92Q825-24 614-24Q394-24 263 103Q132 229 132 441Q132 738 300 931Q471 1127 741 1127Q934 1127 1063 1016Q1182 913 1195 766Q1197 753 1197 723L921 723Z"  horiz-adv-x="1218" vert-adv-y="2048"  />

      
      <glyph glyph-name="uni010E" unicode="&#x010E;" d="M548 1925L798 1925L890 1734L908 1734L1080 1925L1355 1925L1027 1590L736 1590L548 1925M917 1443Q1193 1443 1351 1288Q1508 1132 1508 856Q1508 484 1296 242Q1083 0 755 0L100 0L406 1443L917 1443M458 257L728 257Q933 257 1064 413Q1197 571 1197 822Q1197 992 1106 1089Q1013 1187 850 1187L659 1187L458 257Z"  horiz-adv-x="1535" vert-adv-y="2048"  />

      
      <glyph glyph-name="uni010F" unicode="&#x010F;" d="M1822 1524L1665 1019L1464 1019L1571 1524L1822 1524M510-17Q342-17 237 97Q128 215 128 413Q128 718 290 921Q450 1121 687 1121Q806 1121 892 1062Q973 1006 1000 915L1018 915L1148 1524L1440 1524L1117 0L834 0L866 153L848 153Q723-17 510-17M640 223Q771 223 864 346Q955 468 955 639Q955 750 896 813Q838 874 743 874Q611 874 521 757Q430 639 430 463Q430 353 490 287Q549 223 640 223Z"  horiz-adv-x="1559" vert-adv-y="2048"  />

      
      <glyph glyph-name="uni0110" unicode="&#x0110;" d="M728 257Q933 257 1064 413Q1197 571 1197 822Q1197 992 1106 1089Q1013 1187 850 1187L659 1187L585 845L789 845L741 618L536 618L458 257L728 257M917 1443Q1193 1443 1351 1288Q1508 1132 1508 856Q1508 484 1296 242Q1083 0 755 0L100 0L231 618L87 618L134 845L279 845L406 1443L917 1443Z"  horiz-adv-x="1518" vert-adv-y="2048"  />

      
      <glyph glyph-name="uni0111" unicode="&#x0111;" d="M640 223Q771 223 864 346Q955 468 955 639Q955 750 896 813Q838 874 743 874Q611 874 521 757Q430 639 430 463Q430 353 490 287Q549 223 640 223M1518 1260L1384 1260L1117 0L834 0L866 153L848 153Q723-17 510-17Q342-17 237 97Q128 215 128 413Q128 718 290 921Q450 1121 687 1121Q806 1121 892 1062Q973 1006 1000 915L1018 915L1092 1260L910 1260L942 1412L1124 1412L1148 1524L1440 1524L1416 1412L1550 1412L1518 1260Z"  horiz-adv-x="1343" vert-adv-y="2048"  />

      
      <glyph glyph-name="uni0112" unicode="&#x0112;" d="M1056 0L99 0L406 1443L1362 1443L1309 1185L657 1185L582 848L1198 848L1148 609L533 609L455 258L1108 258L1056 0M552 1632L589 1813L1335 1813L1297 1632L552 1632Z"  horiz-adv-x="1274" vert-adv-y="2048"  />

      
      <glyph glyph-name="uni0113" unicode="&#x0113;" d="M623-24Q405-24 272 101Q135 230 135 450Q135 752 301 940Q467 1127 732 1127Q933 1127 1063 1002Q1197 873 1197 665Q1197 583 1180 485L410 485L409 454Q409 332 478 265Q541 203 641 203Q804 203 859 317L1139 317Q1101 163 964 70Q824-24 623-24M921 669Q924 687 924 707Q924 792 870 846Q814 903 720 903Q621 903 545 839Q471 775 442 669L921 669M404 1316L442 1496L1177 1496L1139 1316L404 1316Z"  horiz-adv-x="1248" vert-adv-y="2048"  />

      
      <glyph glyph-name="uni0114" unicode="&#x0114;" d="M1056 0L99 0L406 1443L1362 1443L1309 1185L657 1185L582 848L1198 848L1148 609L533 609L455 258L1108 258L1056 0M550 1884Q550 1895 552 1915L757 1915L757 1894Q757 1831 809 1791Q860 1750 938 1750Q1106 1750 1143 1915L1348 1915Q1326 1762 1215 1671Q1102 1579 932 1579Q765 1579 657 1666Q550 1752 550 1884Z"  horiz-adv-x="1274" vert-adv-y="2048"  />

      
      <glyph glyph-name="uni0115" unicode="&#x0115;" d="M623-24Q405-24 272 101Q135 230 135 450Q135 752 301 940Q467 1127 732 1127Q933 1127 1063 1002Q1197 873 1197 665Q1197 583 1180 485L410 485L409 454Q409 332 478 265Q541 203 641 203Q804 203 859 317L1139 317Q1101 163 964 70Q824-24 623-24M921 669Q924 687 924 707Q924 792 870 846Q814 903 720 903Q621 903 545 839Q471 775 442 669L921 669M616 1602Q614 1586 614 1573Q614 1505 664 1463Q714 1421 796 1421Q979 1421 1010 1602L1216 1602Q1200 1441 1087 1347Q972 1251 789 1251Q617 1251 511 1339Q407 1424 407 1556Q407 1582 411 1602L616 1602Z"  horiz-adv-x="1248" vert-adv-y="2048"  />

      
      <glyph glyph-name="uni0116" unicode="&#x0116;" d="M949 1579Q880 1579 835 1624Q791 1669 791 1737Q791 1805 835 1850Q880 1895 949 1895Q1018 1895 1062 1850Q1106 1805 1106 1737Q1106 1669 1062 1624Q1018 1579 949 1579M1056 0L99 0L406 1443L1362 1443L1309 1185L657 1185L582 848L1198 848L1148 609L533 609L455 258L1108 258L1056 0Z"  horiz-adv-x="1274" vert-adv-y="2048"  />

      
      <glyph glyph-name="uni0117" unicode="&#x0117;" d="M798 1274Q730 1274 683 1321Q637 1368 637 1438Q637 1508 683 1555Q730 1602 798 1602Q866 1602 913 1555Q959 1508 959 1438Q959 1368 913 1321Q866 1274 798 1274M623-24Q405-24 272 101Q135 230 135 450Q135 752 301 940Q467 1127 732 1127Q933 1127 1063 1002Q1197 873 1197 665Q1197 583 1180 485L410 485L409 454Q409 332 478 265Q541 203 641 203Q804 203 859 317L1139 317Q1101 163 964 70Q824-24 623-24M921 669Q924 687 924 707Q924 792 870 846Q814 903 720 903Q621 903 545 839Q471 775 442 669L921 669Z"  horiz-adv-x="1248" vert-adv-y="2048"  />

      
      <glyph glyph-name="uni0118" unicode="&#x0118;" d="M853-458Q737-458 667-403Q598-349 598-257Q598-116 760-11L762 0L99 0L406 1443L1362 1443L1309 1185L657 1185L582 848L1198 848L1148 609L533 609L455 258L1108 258L1063 40Q818-53 818-193Q818-235 851-260Q883-285 938-285Q978-285 995-280L961-444Q909-458 853-458Z"  horiz-adv-x="1274" vert-adv-y="2048"  />

      
      <glyph glyph-name="uni0119" unicode="&#x0119;" d="M736-458Q620-458 549-403Q478-348 478-264Q478-123 617-40L616-23L602-23Q388-17 262 111Q135 239 135 450Q135 751 301 939Q466 1127 732 1127Q937 1127 1067 998Q1197 869 1197 665Q1197 581 1180 485L410 485L409 454Q409 339 472 271Q535 203 641 203Q804 203 859 317L1139 317Q1098 156 898 28Q697-99 697-195Q697-287 826-287Q854-287 870-285L836-446Q793-458 736-458M921 669Q924 687 924 707Q924 795 867 849Q811 903 720 903Q622 903 547 840Q471 777 442 669L921 669Z"  horiz-adv-x="1251" vert-adv-y="2048"  />

      
      <glyph glyph-name="uni011A" unicode="&#x011A;" d="M595 1925L845 1925L937 1734L955 1734L1127 1925L1402 1925L1074 1590L783 1590L595 1925M1056 0L99 0L406 1443L1362 1443L1309 1185L657 1185L582 848L1198 848L1148 609L533 609L455 258L1108 258L1056 0Z"  horiz-adv-x="1274" vert-adv-y="2048"  />

      
      <glyph glyph-name="uni011B" unicode="&#x011B;" d="M628 1251L428 1605L677 1605L780 1396L798 1396L992 1605L1269 1605L919 1251L628 1251M623-24Q405-24 272 101Q135 230 135 450Q135 752 301 940Q467 1127 732 1127Q933 1127 1063 1002Q1197 873 1197 665Q1197 583 1180 485L410 485L409 454Q409 332 478 265Q541 203 641 203Q804 203 859 317L1139 317Q1101 163 964 70Q824-24 623-24M921 669Q924 687 924 707Q924 792 870 846Q814 903 720 903Q621 903 545 839Q471 775 442 669L921 669Z"  horiz-adv-x="1248" vert-adv-y="2048"  />

      
      <glyph glyph-name="uni011C" unicode="&#x011C;" d="M1382 1591L1133 1591L1041 1782L1023 1782L851 1591L576 1591L904 1926L1195 1926L1382 1591M1496 576Q1438 277 1255 120Q1074-37 789-37Q514-37 348 131Q181 298 181 574Q181 972 403 1227Q625 1480 971 1480Q1211 1480 1379 1344Q1547 1209 1554 1010L1554 977L1260 977Q1254 1081 1168 1146Q1082 1211 952 1211Q754 1211 622 1036Q490 861 490 595Q490 427 578 330Q666 232 817 232Q958 232 1059 308Q1160 383 1186 509L1191 534L884 534L931 760L1533 760L1496 576Z"  horiz-adv-x="1567" vert-adv-y="2048"  />

      
      <glyph glyph-name="uni011D" unicode="&#x011D;" d="M1183 1252L933 1252L829 1461L811 1461L618 1252L342 1252L692 1606L983 1606L1183 1252M530-417Q308-417 169-322Q32-228 33-83L323-83Q328-138 387-171Q449-206 549-206Q771-206 813-18L857 176L839 177Q729 22 514 22Q347 22 241 137Q133 253 133 438Q133 728 291 925Q449 1121 679 1121Q793 1121 882 1063Q971 1005 1002 911L1019 911L1061 1103L1345 1103L1099-44Q1062-219 913-317Q762-417 530-417M641 237Q770 237 859 353Q949 469 949 639Q949 746 891 810Q832 874 735 874Q604 874 518 762Q432 649 432 476Q432 366 488 301Q545 237 641 237Z"  horiz-adv-x="1327" vert-adv-y="2048"  />

      
      <glyph glyph-name="uni011E" unicode="&#x011E;" d="M1496 576Q1438 277 1255 120Q1074-37 789-37Q514-37 348 131Q181 298 181 574Q181 972 403 1227Q625 1480 971 1480Q1211 1480 1379 1344Q1547 1209 1554 1010L1554 977L1260 977Q1254 1081 1168 1146Q1082 1211 952 1211Q754 1211 622 1036Q490 861 490 595Q490 427 578 330Q666 232 817 232Q958 232 1059 308Q1160 383 1186 509L1191 534L884 534L931 760L1533 760L1496 576M626 1885Q626 1896 628 1916L833 1916L833 1895Q833 1832 885 1792Q936 1751 1014 1751Q1182 1751 1219 1916L1424 1916Q1402 1763 1291 1672Q1178 1580 1008 1580Q841 1580 733 1667Q626 1753 626 1885Z"  horiz-adv-x="1567" vert-adv-y="2048"  />

      
      <glyph glyph-name="uni011F" unicode="&#x011F;" d="M633 1603Q631 1587 631 1574Q631 1506 681 1464Q731 1422 813 1422Q996 1422 1027 1603L1233 1603Q1217 1442 1104 1348Q989 1252 806 1252Q634 1252 527 1340Q424 1425 424 1557Q424 1583 428 1603L633 1603M530-417Q308-417 169-322Q32-228 33-83L323-83Q328-138 387-171Q449-206 549-206Q771-206 813-18L857 176L839 177Q729 22 514 22Q347 22 241 137Q133 253 133 438Q133 728 291 925Q449 1121 679 1121Q793 1121 882 1063Q971 1005 1002 911L1019 911L1061 1103L1345 1103L1099-44Q1062-219 913-317Q762-417 530-417M641 237Q770 237 859 353Q949 469 949 639Q949 746 891 810Q832 874 735 874Q604 874 518 762Q432 649 432 476Q432 366 488 301Q545 237 641 237Z"  horiz-adv-x="1327" vert-adv-y="2048"  />

      
      <glyph glyph-name="uni0120" unicode="&#x0120;" d="M1025 1580Q956 1580 911 1625Q867 1670 867 1738Q867 1806 911 1851Q956 1896 1025 1896Q1094 1896 1138 1851Q1182 1806 1182 1738Q1182 1670 1138 1625Q1094 1580 1025 1580M1496 576Q1438 277 1255 120Q1074-37 789-37Q514-37 348 131Q181 298 181 574Q181 972 403 1227Q625 1480 971 1480Q1211 1480 1379 1344Q1547 1209 1554 1010L1554 977L1260 977Q1254 1081 1168 1146Q1082 1211 952 1211Q754 1211 622 1036Q490 861 490 595Q490 427 578 330Q666 232 817 232Q958 232 1059 308Q1160 383 1186 509L1191 534L884 534L931 760L1533 760L1496 576Z"  horiz-adv-x="1567" vert-adv-y="2048"  />

      
      <glyph glyph-name="uni0121" unicode="&#x0121;" d="M815 1275Q746 1275 700 1322Q654 1369 654 1439Q654 1509 700 1556Q746 1603 815 1603Q883 1603 929 1556Q976 1509 976 1439Q976 1369 929 1322Q883 1275 815 1275M530-417Q308-417 169-322Q32-228 33-83L323-83Q328-138 387-171Q449-206 549-206Q771-206 813-18L857 176L839 177Q729 22 514 22Q347 22 241 137Q133 253 133 438Q133 728 291 925Q449 1121 679 1121Q793 1121 882 1063Q971 1005 1002 911L1019 911L1061 1103L1345 1103L1099-44Q1062-219 913-317Q762-417 530-417M641 237Q770 237 859 353Q949 469 949 639Q949 746 891 810Q832 874 735 874Q604 874 518 762Q432 649 432 476Q432 366 488 301Q545 237 641 237Z"  horiz-adv-x="1327" vert-adv-y="2048"  />

      
      <glyph glyph-name="uni0122" unicode="&#x0122;" d="M472-509L644-151L936-151L730-509L472-509M1496 576Q1438 277 1255 120Q1074-37 789-37Q514-37 348 131Q181 298 181 574Q181 972 403 1227Q625 1480 971 1480Q1211 1480 1379 1344Q1547 1209 1554 1010L1554 977L1260 977Q1254 1081 1168 1146Q1082 1211 952 1211Q754 1211 622 1036Q490 861 490 595Q490 427 578 330Q666 232 817 232Q958 232 1059 308Q1160 383 1186 509L1191 534L884 534L931 760L1533 760L1496 576Z"  horiz-adv-x="1567" vert-adv-y="2048"  />

      
      <glyph glyph-name="uni0123" unicode="&#x0123;" d="M1352 1649L1180 1291L888 1291L1094 1649L1352 1649M530-417Q308-417 169-322Q32-228 33-83L323-83Q328-138 387-171Q449-206 549-206Q771-206 813-18L857 176L839 177Q729 22 514 22Q347 22 241 137Q133 253 133 438Q133 728 291 925Q449 1121 679 1121Q793 1121 882 1063Q971 1005 1002 911L1019 911L1061 1103L1345 1103L1099-44Q1062-219 913-317Q762-417 530-417M641 237Q770 237 859 353Q949 469 949 639Q949 746 891 810Q832 874 735 874Q604 874 518 762Q432 649 432 476Q432 366 488 301Q545 237 641 237Z"  horiz-adv-x="1328" vert-adv-y="2048"  />

      
      <glyph glyph-name="uni0124" unicode="&#x0124;" d="M1050 0L1179 603L531 603L402 0L99 0L406 1443L710 1443L585 861L1233 861L1358 1443L1662 1443L1355 0L1050 0M1456 1590L1207 1590L1115 1781L1097 1781L925 1590L650 1590L978 1925L1269 1925L1456 1590Z"  horiz-adv-x="1606" vert-adv-y="2048"  />

      
      <glyph glyph-name="uni0125" unicode="&#x0125;" d="M397 1515L689 1515L564 937L582 937Q701 1124 925 1124Q1079 1124 1175 1032Q1268 943 1268 807Q1268 749 1254 676L1112 0L821 0L953 628Q963 676 963 712Q963 790 909 837Q856 883 770 883Q672 883 599 820Q527 758 506 659L366 0L74 0L397 1515M962 1662L713 1662L621 1853L603 1853L431 1662L156 1662L484 1997L775 1997L962 1662Z"  horiz-adv-x="1321" vert-adv-y="2048"  />

      
      <glyph glyph-name="uni0126" unicode="&#x0126;" d="M1251 1055L603 1055L561 861L1209 861L1251 1055M1683 1055L1555 1055L1331 0L1026 0L1155 603L507 603L378 0L75 0L299 1055L172 1055L215 1261L343 1261L382 1443L686 1443L647 1261L1295 1261L1334 1443L1638 1443L1599 1261L1725 1261L1683 1055Z"  horiz-adv-x="1557" vert-adv-y="2048"  />

      
      <glyph glyph-name="uni0127" unicode="&#x0127;" d="M582 937Q701 1124 925 1124Q1079 1124 1175 1032Q1268 943 1268 807Q1268 749 1254 676L1112 0L821 0L953 628Q963 676 963 712Q963 790 909 837Q856 883 770 883Q672 883 599 820Q527 758 506 659L366 0L74 0L343 1260L171 1260L204 1418L376 1418L397 1515L689 1515L668 1418L885 1418L852 1260L634 1260L564 937L582 937Z"  horiz-adv-x="1339" vert-adv-y="2048"  />

      
      <glyph glyph-name="uni0128" unicode="&#x0128;" d="M99 0L406 1443L710 1443L403 0L99 0M779 1578Q688 1578 598 1650Q508 1722 474 1722Q393 1722 377 1618L196 1618Q213 1747 288 1822Q361 1895 465 1895Q556 1895 646 1823Q736 1751 769 1751Q851 1751 867 1855L1048 1855Q1030 1726 956 1651Q883 1578 779 1578Z"  horiz-adv-x="653" vert-adv-y="2048"  />

      
      <glyph glyph-name="uni0129" unicode="&#x0129;" d="M312 1103L603 1103L369 0L78 0L312 1103M689 1247Q596 1247 509 1329Q422 1411 386 1411Q311 1411 292 1287L108 1287Q124 1422 199 1503Q273 1584 379 1584Q471 1584 558 1502Q645 1420 681 1420Q757 1420 776 1544L960 1544Q944 1408 870 1327Q795 1247 689 1247Z"  horiz-adv-x="599" vert-adv-y="2048"  />

      
      <glyph glyph-name="uni012A" unicode="&#x012A;" d="M99 0L406 1443L710 1443L403 0L99 0M226 1632L263 1813L1009 1813L971 1632L226 1632Z"  horiz-adv-x="653" vert-adv-y="2048"  />

      
      <glyph glyph-name="uni012B" unicode="&#x012B;" d="M312 1103L603 1103L369 0L78 0L312 1103M135 1316L173 1496L908 1496L870 1316L135 1316Z"  horiz-adv-x="599" vert-adv-y="2048"  />

      
      <glyph glyph-name="uni012C" unicode="&#x012C;" d="M99 0L406 1443L710 1443L403 0L99 0M224 1884Q224 1895 226 1915L431 1915L431 1894Q431 1831 483 1791Q534 1750 612 1750Q780 1750 817 1915L1022 1915Q1000 1762 889 1671Q776 1579 606 1579Q439 1579 331 1666Q224 1752 224 1884Z"  horiz-adv-x="653" vert-adv-y="2048"  />

      
      <glyph glyph-name="uni012D" unicode="&#x012D;" d="M312 1103L603 1103L369 0L78 0L312 1103M347 1602Q345 1586 345 1573Q345 1505 395 1463Q445 1421 527 1421Q710 1421 741 1602L947 1602Q931 1441 818 1347Q703 1251 520 1251Q348 1251 242 1339Q138 1424 138 1556Q138 1582 142 1602L347 1602Z"  horiz-adv-x="599" vert-adv-y="2048"  />

      
      <glyph glyph-name="uni012E" unicode="&#x012E;" d="M711 1443L412 40Q183-60 183-189Q183-233 215-259Q248-285 303-285Q343-285 360-280L326-444Q274-458 218-458Q103-458 33-402Q-37-345-37-253Q-37-102 153 15L155 26L106 26L407 1443L711 1443Z"  horiz-adv-x="653" vert-adv-y="2048"  />

      
      <glyph glyph-name="uni012F" unicode="&#x012F;" d="M524 1257Q448 1257 400 1297Q352 1337 352 1400Q352 1467 400 1509Q448 1551 524 1551Q600 1551 648 1511Q696 1471 696 1409Q696 1342 648 1300Q599 1257 524 1257M193-458Q78-458 8-402Q-62-345-62-253Q-62-104 131 15L133 26L84 26L313 1103L607 1103L380 40Q158-56 158-189Q158-233 190-259Q223-285 278-285Q318-285 335-280L301-444Q245-458 193-458Z"  horiz-adv-x="599" vert-adv-y="2048"  />

      
      <glyph glyph-name="uni0130" unicode="&#x0130;" d="M99 0L406 1443L710 1443L403 0L99 0M623 1579Q554 1579 509 1624Q465 1669 465 1737Q465 1805 509 1850Q554 1895 623 1895Q692 1895 736 1850Q780 1805 780 1737Q780 1669 736 1624Q692 1579 623 1579Z"  horiz-adv-x="654" vert-adv-y="2048"  />

      
      <glyph glyph-name="uni0131" unicode="&#x0131;" d="M312 1103L603 1103L369 0L78 0L312 1103Z"  horiz-adv-x="599" vert-adv-y="2048"  />

      
      <glyph glyph-name="uni0132" unicode="&#x0132;" d="M99 0L406 1443L710 1443L403 0L99 0M1031 413L1031 404Q1032 327 1080 282Q1129 237 1211 237Q1378 237 1423 446L1636 1443L1938 1443L1716 401Q1672 188 1540 76Q1407-37 1198-37Q988-37 860 80Q732 196 737 382Q737 403 738 413L1031 413Z"  horiz-adv-x="1881" vert-adv-y="2048"  />

      
      <glyph glyph-name="uni0133" unicode="&#x0133;" d="M312 1103L605 1103L370 0L77 0L312 1103M523 1257Q446 1257 398 1298Q351 1338 351 1400Q351 1465 398 1507Q446 1551 523 1551Q600 1551 648 1510Q695 1471 695 1409Q695 1344 648 1301Q600 1257 523 1257M957-55Q924-209 818-292Q712-373 548-374Q487-374 417-362L465-136Q491-142 528-142Q647-142 673-22L913 1103L1204 1103L957-55M1123 1257Q1046 1257 998 1298Q951 1338 951 1400Q951 1465 998 1507Q1046 1551 1123 1551Q1200 1551 1248 1510Q1295 1471 1295 1409Q1295 1344 1248 1301Q1200 1257 1123 1257Z"  horiz-adv-x="1199" vert-adv-y="2048"  />

      
      <glyph glyph-name="uni0134" unicode="&#x0134;" d="M383 413L383 404Q384 327 432 282Q481 237 563 237Q730 237 775 446L988 1443L1290 1443L1068 401Q1024 188 892 76Q759-37 550-37Q340-37 212 80Q84 196 89 382Q89 403 90 413L383 413M1560 1590L1311 1590L1219 1781L1201 1781L1029 1590L754 1590L1082 1925L1373 1925L1560 1590Z"  horiz-adv-x="1229" vert-adv-y="2048"  />

      
      <glyph glyph-name="uni0135" unicode="&#x0135;" d="M358-55Q325-209 219-292Q113-373-51-374Q-112-374-182-362L-134-136Q-108-142-71-142Q48-142 74-22L314 1103L605 1103L358-55M898 1251L648 1251L544 1460L526 1460L333 1251L57 1251L407 1605L698 1605L898 1251Z"  horiz-adv-x="599" vert-adv-y="2048"  />

      
      <glyph glyph-name="uni0136" unicode="&#x0136;" d="M99 0L406 1443L707 1443L571 808L589 808L1248 1443L1606 1443L936 790L1318 0L978 0L685 606L493 424L401 0L99 0M346-509L518-151L810-151L604-509L346-509Z"  horiz-adv-x="1454" vert-adv-y="2048"  />

      
      <glyph glyph-name="uni0137" unicode="&#x0137;" d="M978 1103L1318 1103L789 621L1117 0L796 0L554 457L444 363L366 0L74 0L398 1524L689 1524L512 690L530 690L978 1103M243-509L415-151L707-151L501-509L243-509Z"  horiz-adv-x="1223" vert-adv-y="2048"  />

      
      <glyph glyph-name="uni0139" unicode="&#x0139;" d="M784 1908L1099 1908L718 1590L441 1590L784 1908M1043 0L99 0L406 1443L709 1443L456 263L1097 263L1043 0Z"  horiz-adv-x="1219" vert-adv-y="2048"  />

      
      <glyph glyph-name="uni013A" unicode="&#x013A;" d="M771 1988L1086 1988L705 1670L428 1670L771 1988M398 1524L691 1524L367 0L74 0L398 1524Z"  horiz-adv-x="594" vert-adv-y="2048"  />

      
      <glyph glyph-name="uni013B" unicode="&#x013B;" d="M239-509L411-151L703-151L497-509L239-509M1043 0L99 0L406 1443L709 1443L456 263L1097 263L1043 0Z"  horiz-adv-x="1219" vert-adv-y="2048"  />

      
      <glyph glyph-name="uni013C" unicode="&#x013C;" d="M-110-509L62-151L354-151L148-509L-110-509M399 1524L692 1524L368 0L75 0L399 1524Z"  horiz-adv-x="594" vert-adv-y="2048"  />

      
      <glyph glyph-name="uni013D" unicode="&#x013D;" d="M1180 1443L1023 939L827 939L934 1443L1180 1443M1043 0L99 0L406 1443L709 1443L456 263L1097 263L1043 0Z"  horiz-adv-x="1219" vert-adv-y="2048"  />

      
      <glyph glyph-name="uni013E" unicode="&#x013E;" d="M1073 1524L916 1019L715 1019L822 1524L1073 1524M398 1524L691 1524L367 0L74 0L398 1524Z"  horiz-adv-x="814" vert-adv-y="2048"  />

      
      <glyph glyph-name="uni0141" unicode="&#x0141;" d="M1126 263L1072 0L128 0L270 667L89 583L131 788L314 872L435 1443L738 1443L649 1027L897 1142L855 937L605 821L485 263L1126 263Z"  horiz-adv-x="1223" vert-adv-y="2048"  />

      
      <glyph glyph-name="uni0142" unicode="&#x0142;" d="M674 885L542 821L367 0L74 0L215 664L86 602L128 807L259 870L398 1524L691 1524L585 1027L716 1090L674 885Z"  horiz-adv-x="593" vert-adv-y="2048"  />

      
      <glyph glyph-name="uni0143" unicode="&#x0143;" d="M1226 1908L1541 1908L1160 1590L883 1590L1226 1908M99 0L406 1443L637 1443L1116 514L1134 514L1336 1443L1629 1443L1322 0L1093 0L610 922L592 922L392 0L99 0Z"  horiz-adv-x="1573" vert-adv-y="2048"  />

      
      <glyph glyph-name="uni0144" unicode="&#x0144;" d="M943 1640L1253 1640L892 1287L620 1287L943 1640M302 1112L584 1112L547 937L565 937Q684 1127 913 1127Q1065 1127 1159 1035Q1252 946 1252 807Q1252 749 1238 676L1096 0L805 0L937 628Q947 674 947 712Q947 788 895 835Q843 883 758 883Q662 883 590 820Q519 758 498 659L358 0L66 0L302 1112Z"  horiz-adv-x="1304" vert-adv-y="2048"  />

      
      <glyph glyph-name="uni0145" unicode="&#x0145;" d="M402-509L574-151L866-151L660-509L402-509M99 0L406 1443L637 1443L1116 514L1134 514L1336 1443L1629 1443L1322 0L1093 0L610 922L592 922L392 0L99 0Z"  horiz-adv-x="1573" vert-adv-y="2048"  />

      
      <glyph glyph-name="uni0146" unicode="&#x0146;" d="M248-509L420-151L712-151L506-509L248-509M302 1112L584 1112L547 937L565 937Q684 1127 913 1127Q1065 1127 1159 1035Q1252 946 1252 807Q1252 749 1238 676L1096 0L805 0L937 628Q947 674 947 712Q947 788 895 835Q843 883 758 883Q662 883 590 820Q519 758 498 659L358 0L66 0L302 1112Z"  horiz-adv-x="1304" vert-adv-y="2048"  />

      
      <glyph glyph-name="uni0147" unicode="&#x0147;" d="M710 1925L960 1925L1052 1734L1070 1734L1242 1925L1517 1925L1189 1590L898 1590L710 1925M99 0L406 1443L637 1443L1116 514L1134 514L1336 1443L1629 1443L1322 0L1093 0L610 922L592 922L392 0L99 0Z"  horiz-adv-x="1573" vert-adv-y="2048"  />

      
      <glyph glyph-name="uni0148" unicode="&#x0148;" d="M646 1257L446 1611L695 1611L798 1402L816 1402L1010 1611L1287 1611L937 1257L646 1257M302 1112L584 1112L547 937L565 937Q684 1127 913 1127Q1065 1127 1159 1035Q1252 946 1252 807Q1252 749 1238 676L1096 0L805 0L937 628Q947 674 947 712Q947 788 895 835Q843 883 758 883Q662 883 590 820Q519 758 498 659L358 0L66 0L302 1112Z"  horiz-adv-x="1304" vert-adv-y="2048"  />

      
      <glyph glyph-name="uni014C" unicode="&#x014C;" d="M804-37Q524-37 350 138Q180 310 180 576Q180 971 407 1227Q631 1480 970 1480Q1252 1480 1425 1305Q1592 1134 1592 867Q1592 470 1366 215Q1144-37 804-37M1282 844Q1282 1009 1193 1109Q1104 1209 958 1209Q762 1209 626 1033Q490 855 490 598Q490 433 580 333Q669 233 816 233Q1013 233 1147 408Q1282 584 1282 844M639 1631L676 1812L1422 1812L1384 1631L639 1631Z"  horiz-adv-x="1617" vert-adv-y="2048"  />

      
      </font>
</defs>
</svg>
