<?xml version="1.0" standalone="no"?>
  <!DOCTYPE svg PUBLIC "-//W3C//DTD SVG 1.1//EN" "http://www.w3.org/Graphics/SVG/1.1/DTD/svg11.dtd" >
  <svg>
  <metadata>
  Created by font-carrier
  </metadata>
  <defs>
  <font id="SFUIDisplay-Ultralight" horiz-adv-x="2459" vert-adv-y="2459" >
    <font-face
      
      font-family="SF UI Display"
      
      font-weight="400"
      
      font-stretch="normal"
      
      units-per-em="2048"
      
      ascent="1950"
      
      descent="-494"
      
    />
      <missing-glyph />

      

      
      <glyph glyph-name="uni21" unicode="&#x21;" d="M276 1443L275 411L223 411L222 1443L276 1443M249-10Q225-10 208 7Q191 24 191 48Q191 72 208 89Q225 105 249 105Q273 105 290 89Q307 72 307 48Q307 24 290 7Q273-10 249-10Z"  horiz-adv-x="500" vert-adv-y="2048"  />

      
      <glyph glyph-name="uni22" unicode="&#x22;" d="M98 998L98 1443L146 1443L146 998L98 998M345 998L345 1443L394 1443L394 998L345 998Z"  horiz-adv-x="494" vert-adv-y="2048"  />

      
      <glyph glyph-name="uni23" unicode="&#x23;" d="M898 951L807 497L1076 497L1067 451L798 451L703 0L654 0L749 451L344 451L250 0L201 0L297 451L40 451L48 497L306 497L397 951L153 951L161 997L405 997L499 1450L547 1450L453 997L858 997L952 1450L1000 1450L906 997L1189 997L1180 951L898 951M354 496L759 496L849 951L445 951L354 496Z"  horiz-adv-x="1229" vert-adv-y="2048"  />

      
      <glyph glyph-name="uni24" unicode="&#x24;" d="M564-176L564-20Q362-13 223 102Q84 217 80 382L129 382Q136 239 262 137Q388 34 564 27L564 723L559 725Q314 784 215 865Q116 946 116 1090Q116 1247 243 1352Q369 1457 564 1463L564 1596L608 1596L608 1463Q792 1456 922 1351Q1051 1247 1056 1103L1006 1103Q1001 1226 885 1318Q768 1410 608 1417L608 762L614 761Q875 701 981 613Q1086 525 1086 368Q1086 206 951 97Q816-12 608-20L608-176L564-176M1036 367Q1036 503 941 581Q845 658 608 714L608 27Q789 33 913 131Q1036 229 1036 367M165 1092Q165 968 254 897Q343 826 564 773L564 1417Q393 1412 279 1319Q165 1226 165 1092Z"  horiz-adv-x="1179" vert-adv-y="2048"  />

      
      <glyph glyph-name="uni25" unicode="&#x25;" d="M1344 331Q1344 175 1281 83Q1217-10 1105-10Q993-10 929 83Q866 175 866 331Q866 487 929 578Q993 672 1105 672Q1217 672 1281 579Q1344 487 1344 331M1105 32Q1194 32 1245 114Q1295 194 1295 331Q1295 467 1245 548Q1194 630 1105 630Q1016 630 964 547Q914 467 914 331Q914 195 964 114Q1015 32 1105 32M527 1110Q527 954 464 862Q400 769 288 769Q176 769 112 862Q49 954 49 1110Q49 1266 112 1357Q176 1451 288 1451Q400 1451 464 1358Q527 1266 527 1110M288 811Q377 811 428 893Q478 973 478 1110Q478 1246 428 1327Q377 1409 288 1409Q199 1409 147 1326Q97 1246 97 1110Q97 974 147 893Q198 811 288 811M122 0L1203 1443L1262 1443L181 0L122 0Z"  horiz-adv-x="1395" vert-adv-y="2048"  />

      
      <glyph glyph-name="uni26" unicode="&#x26;" d="M1019 215Q925 106 791 43Q656-20 518-20Q320-20 195 87Q71 194 71 361Q71 585 344 732L461 794Q329 926 280 1005Q232 1084 232 1165Q232 1290 330 1376Q428 1462 570 1462Q710 1462 803 1379Q897 1295 897 1168Q897 964 536 783L1014 280Q1154 491 1154 713L1154 801L1203 801L1203 714Q1203 471 1049 249L1293 0L1228 0L1019 215M373 695Q120 560 120 360Q120 218 230 123Q343 26 519 26Q641 26 772 88Q902 149 983 245L493 759Q374 695 373 695M505 816Q848 980 848 1167Q848 1272 767 1345Q686 1417 569 1417Q453 1417 367 1342Q281 1266 281 1164Q281 1093 327 1022Q373 949 505 816Z"  horiz-adv-x="1375" vert-adv-y="2048"  />

      
      <glyph glyph-name="uni27" unicode="&#x27;" d="M98 998L98 1443L146 1443L146 998L98 998Z"  horiz-adv-x="246" vert-adv-y="2048"  />

      
      <glyph glyph-name="uni28" unicode="&#x28;" d="M414-251Q146 96 146 597Q146 1095 415 1443L468 1443Q196 1081 196 597Q196 114 468-251L414-251Z"  horiz-adv-x="550" vert-adv-y="2048"  />

      
      <glyph glyph-name="uni29" unicode="&#x29;" d="M81-251Q353 116 353 597Q353 1079 81 1443L134 1443Q402 1095 402 597Q402 94 134-251L81-251Z"  horiz-adv-x="550" vert-adv-y="2048"  />

      
      <glyph glyph-name="uni2a" unicode="&#x2a;" d="M492 1009L494 654L447 654L449 1009L143 829L120 869L428 1045L120 1220L143 1261L449 1081L447 1437L494 1437L492 1081L798 1261L821 1221L513 1046L821 870L798 829L492 1009Z"  horiz-adv-x="943" vert-adv-y="2048"  />

      
      <glyph glyph-name="uni2b" unicode="&#x2b;" d="M613 37L564 37L564 554L103 554L103 601L564 601L564 1104L613 1104L613 601L1073 601L1073 554L613 554L613 37Z"  horiz-adv-x="1178" vert-adv-y="2048"  />

      
      <glyph glyph-name="uni2c" unicode="&#x2c;" d="M171-211L227 173L280 173L213-211L171-211Z"  horiz-adv-x="490" vert-adv-y="2048"  />

      
      <glyph glyph-name="uni2d" unicode="&#x2d;" d="M103 554L103 601L759 601L759 554L103 554Z"  horiz-adv-x="865" vert-adv-y="2048"  />

      
      <glyph glyph-name="uni2e" unicode="&#x2e;" d="M243-10Q220-10 203 7Q186 24 186 47Q186 71 203 88Q220 105 243 105Q267 105 284 88Q300 71 300 47Q300 24 284 7Q267-10 243-10Z"  horiz-adv-x="488" vert-adv-y="2048"  />

      
      <glyph glyph-name="uni2f" unicode="&#x2f;" d="M0-332L448 1443L497 1443L48-332L0-332Z"  horiz-adv-x="497" vert-adv-y="2048"  />

      
      <glyph glyph-name="uni30" unicode="&#x30;" d="M589-20Q356-20 220 180Q84 380 84 722Q84 1063 220 1263Q356 1463 589 1463Q822 1463 958 1263Q1094 1063 1094 722Q1094 380 958 180Q822-20 589-20M589 26Q799 26 922 214Q1044 402 1044 722Q1044 1042 922 1229Q799 1417 589 1417Q380 1417 257 1229Q134 1042 134 722Q134 402 257 214Q379 26 589 26Z"  horiz-adv-x="1181" vert-adv-y="2048"  />

      
      <glyph glyph-name="uni31" unicode="&#x31;" d="M483 1390L481 1390Q464 1380 84 1143L84 1200Q381 1388 483 1450L532 1450L532 0L483 0L483 1390Z"  horiz-adv-x="774" vert-adv-y="2048"  />

      
      <glyph glyph-name="uni32" unicode="&#x32;" d="M127 1062Q132 1237 254 1350Q376 1463 561 1463Q742 1463 865 1351Q988 1239 988 1073Q988 960 924 852Q860 744 682 556L206 51L206 47L1051 47L1051 0L132 0L132 41L646 588Q818 769 878 869Q938 968 938 1072Q938 1218 829 1318Q720 1417 560 1417Q398 1417 290 1317Q181 1216 177 1062L127 1062Z"  horiz-adv-x="1138" vert-adv-y="2048"  />

      
      <glyph glyph-name="uni33" unicode="&#x33;" d="M375 774L533 774Q708 774 817 864Q926 955 926 1098Q926 1235 818 1326Q710 1417 547 1417Q393 1417 285 1327Q176 1237 167 1103L118 1103Q126 1258 248 1361Q370 1463 547 1463Q731 1463 854 1360Q976 1256 976 1100Q976 966 894 874Q811 782 667 755L667 751Q837 740 938 643Q1039 545 1039 391Q1039 213 903 97Q767-20 560-20Q359-20 223 89Q86 197 84 357L134 357Q136 217 260 122Q383 26 561 26Q745 26 867 129Q989 233 989 391Q989 549 868 639Q747 728 533 728L375 728L375 774Z"  horiz-adv-x="1126" vert-adv-y="2048"  />

      
      <glyph glyph-name="uni34" unicode="&#x34;" d="M815 379L67 379L67 426Q400 927 796 1449L864 1450L864 425L1101 425L1101 379L864 379L864 0L815 0L815 379M127 425L815 425L815 1390L813 1390Q471 944 127 428L127 425Z"  horiz-adv-x="1164" vert-adv-y="2048"  />

      
      <glyph glyph-name="uni35" unicode="&#x35;" d="M589-20Q407-20 275 83Q143 186 125 341L175 341Q193 206 312 116Q430 26 590 26Q779 26 905 149Q1030 272 1030 457Q1030 641 907 765Q784 890 602 890Q476 890 370 830Q264 769 202 662L148 662L237 1443L984 1443L984 1396L280 1396L206 737L208 737Q270 829 376 882Q482 936 603 936Q807 936 944 799Q1080 662 1080 458Q1080 252 940 116Q800-20 589-20Z"  horiz-adv-x="1163" vert-adv-y="2048"  />

      
      <glyph glyph-name="uni36" unicode="&#x36;" d="M608-20Q376-20 238 149Q89 328 89 680Q89 1039 231 1251Q373 1463 614 1463Q786 1463 907 1366Q1029 1269 1052 1112L1002 1112Q980 1245 871 1331Q762 1417 614 1417Q383 1417 256 1197Q130 977 138 590L142 590Q177 745 308 844Q440 944 609 944Q813 944 951 807Q1088 671 1088 469Q1088 260 951 120Q813-20 608-20M608 26Q790 26 914 154Q1038 281 1038 469Q1038 651 914 774Q789 898 606 898Q430 898 299 775Q168 653 168 487Q168 292 295 159Q421 26 608 26Z"  horiz-adv-x="1166" vert-adv-y="2048"  />

      
      <glyph glyph-name="uni37" unicode="&#x37;" d="M940 1394L940 1396L83 1396L83 1443L993 1443L993 1393L295 0L239 0L940 1394Z"  horiz-adv-x="1074" vert-adv-y="2048"  />

      
      <glyph glyph-name="uni38" unicode="&#x38;" d="M587-20Q365-20 228 97Q93 213 93 395Q93 535 189 638Q284 740 437 767L437 769Q304 797 225 883Q144 971 144 1092Q144 1255 268 1359Q392 1463 587 1463Q783 1463 907 1359Q1031 1255 1031 1092Q1031 975 949 886Q869 799 739 769L739 767Q891 740 987 638Q1083 534 1083 395Q1083 212 948 97Q810-20 587-20M587 26Q787 26 912 132Q1033 235 1033 395Q1033 547 911 643Q788 741 588 741Q389 741 265 643Q143 547 143 395Q143 235 263 132Q387 26 587 26M587 789Q759 789 870 874Q981 960 981 1091Q981 1231 875 1323Q765 1417 588 1417Q412 1417 301 1323Q194 1231 194 1091Q194 960 305 874Q416 789 587 789Z"  horiz-adv-x="1178" vert-adv-y="2048"  />

      
      <glyph glyph-name="uni39" unicode="&#x39;" d="M550-20Q373-20 253 79Q135 175 112 330L162 330Q184 198 286 114Q393 26 550 26Q770 26 896 223Q1018 415 1026 754Q1027 787 1025 853L1023 853Q990 703 857 602Q723 499 555 499Q348 499 212 634Q76 767 76 967Q76 1180 212 1321Q348 1463 555 1463Q785 1463 925 1291Q1074 1113 1074 763Q1074 404 935 193Q794-20 550-20M557 545Q735 545 866 670Q996 793 996 956Q996 1149 870 1283Q743 1417 555 1417Q371 1417 248 1288Q126 1159 126 967Q126 791 247 669Q370 545 557 545Z"  horiz-adv-x="1166" vert-adv-y="2048"  />

      
      <glyph glyph-name="uni3a" unicode="&#x3a;" d="M243-10Q220-10 203 7Q186 24 186 47Q186 71 203 88Q220 105 243 105Q267 105 284 88Q300 71 300 47Q300 24 284 7Q267-10 243-10M243 770Q220 770 203 787Q186 804 186 827Q186 851 203 868Q220 884 243 884Q267 884 284 868Q300 851 300 827Q300 804 284 787Q267 770 243 770Z"  horiz-adv-x="488" vert-adv-y="2048"  />

      
      <glyph glyph-name="uni3b" unicode="&#x3b;" d="M243 770Q220 770 203 787Q186 804 186 827Q186 851 203 868Q220 884 243 884Q267 884 284 868Q300 851 300 827Q300 804 284 787Q267 770 243 770M162-211L218 173L271 173L203-211L162-211Z"  horiz-adv-x="488" vert-adv-y="2048"  />

      
      <glyph glyph-name="uni3c" unicode="&#x3c;" d="M250 535L250 530L986-7L986-63L190 510L190 554L986 1130L986 1074L250 535Z"  horiz-adv-x="1179" vert-adv-y="2048"  />

      
      <glyph glyph-name="uni3d" unicode="&#x3d;" d="M105 368L105 414L1072 414L1072 368L105 368M105 741L105 787L1072 787L1072 741L105 741Z"  horiz-adv-x="1179" vert-adv-y="2048"  />

      
      <glyph glyph-name="uni3e" unicode="&#x3e;" d="M190 1130L986 555L986 510L190-63L190-7L927 530L927 535L190 1074L190 1130Z"  horiz-adv-x="1179" vert-adv-y="2048"  />

      
      <glyph glyph-name="uni3f" unicode="&#x3f;" d="M61 1105Q71 1259 179 1360Q288 1461 446 1461Q610 1461 719 1361Q828 1261 828 1111Q828 1012 779 936Q730 859 613 776Q508 701 472 643Q435 585 435 494L435 397L386 397L386 496Q386 595 427 661Q467 727 578 809Q777 957 777 1109Q777 1242 681 1329Q586 1415 446 1415Q310 1415 217 1330Q122 1244 109 1105L61 1105M413-10Q390-10 373 7Q356 24 356 48Q356 72 373 89Q390 105 413 105Q438 105 454 89Q471 72 471 48Q471 24 454 7Q438-10 413-10Z"  horiz-adv-x="911" vert-adv-y="2048"  />

      
      <glyph glyph-name="uni40" unicode="&#x40;" d="M856 968Q727 968 640 859Q552 751 552 591Q552 427 637 324Q721 221 856 221Q983 221 1059 326Q1136 431 1136 604Q1136 772 1061 870Q986 968 856 968M882 1431Q1234 1431 1456 1220Q1678 1008 1678 673Q1678 435 1599 304Q1520 173 1377 173Q1274 173 1210 230Q1145 287 1137 387L1133 387Q1052 176 855 176Q700 176 602 292Q504 408 504 592Q504 777 602 895Q701 1013 855 1013Q950 1013 1027 958Q1104 902 1132 813L1136 813L1136 991L1184 991L1184 440Q1184 217 1379 217Q1499 217 1565 336Q1631 455 1631 674Q1631 989 1421 1188Q1212 1387 880 1387Q548 1387 329 1166Q111 946 111 609Q111 257 325 36Q539-184 877-184Q1089-184 1203-149L1203-195Q1097-228 877-228Q518-228 291 5Q64 238 64 609Q64 967 295 1199Q526 1431 882 1431Z"  horiz-adv-x="1727" vert-adv-y="2048"  />

      
      <glyph glyph-name="uni41" unicode="&#x41;" d="M935 501L264 501L74 0L19 0L574 1443L625 1443L1180 0L1124 0L935 501M282 547L917 547L602 1374L597 1374L282 547Z"  horiz-adv-x="1201" vert-adv-y="2048"  />

      
      <glyph glyph-name="uni42" unicode="&#x42;" d="M123 0L123 1443L587 1443Q775 1443 892 1347Q1009 1250 1009 1094Q1009 961 930 868Q852 776 716 749L716 745Q877 729 978 634Q1086 534 1086 379Q1086 205 956 103Q826 0 601 0L123 0M173 765L574 765Q748 765 853 854Q959 944 959 1093Q959 1230 856 1314Q753 1397 583 1397L173 1397L173 765M599 46Q803 46 920 137Q1037 227 1037 380Q1037 537 915 628Q791 719 577 719L173 719L173 46L599 46Z"  horiz-adv-x="1139" vert-adv-y="2048"  />

      
      <glyph glyph-name="uni43" unicode="&#x43;" d="M691-20Q404-20 233 184Q62 388 62 732Q62 1069 232 1266Q401 1463 691 1463Q906 1463 1068 1323Q1230 1182 1249 979L1200 979Q1180 1163 1034 1289Q886 1416 691 1416Q425 1416 268 1232Q112 1047 112 732Q112 408 270 217Q427 27 691 27Q894 27 1037 141Q1182 257 1200 440L1249 440Q1232 237 1074 108Q918-20 691-20Z"  horiz-adv-x="1303" vert-adv-y="2048"  />

      
      <glyph glyph-name="uni44" unicode="&#x44;" d="M559 1443Q889 1443 1069 1255Q1249 1067 1249 722Q1249 376 1069 188Q889 0 559 0L123 0L123 1443L559 1443M174 47L558 47Q866 47 1033 222Q1199 397 1199 722Q1199 1046 1033 1221Q866 1396 558 1396L174 1396L174 47Z"  horiz-adv-x="1313" vert-adv-y="2048"  />

      
      <glyph glyph-name="uni45" unicode="&#x45;" d="M949 0L123 0L123 1443L949 1443L949 1396L173 1396L173 764L913 764L913 718L173 718L173 47L949 47L949 0Z"  horiz-adv-x="1050" vert-adv-y="2048"  />

      
      <glyph glyph-name="uni46" unicode="&#x46;" d="M123 0L123 1443L940 1443L940 1396L173 1396L173 762L879 762L879 715L173 715L173 0L123 0Z"  horiz-adv-x="1020" vert-adv-y="2048"  />

      
      <glyph glyph-name="uni47" unicode="&#x47;" d="M1258 564Q1258 292 1105 136Q951-20 684-20Q408-20 235 189Q62 397 62 731Q62 1060 233 1262Q404 1463 684 1463Q897 1463 1053 1345Q1208 1227 1248 1036L1199 1036Q1157 1208 1016 1312Q875 1416 684 1416Q426 1416 269 1228Q112 1040 112 731Q112 418 271 222Q430 27 684 27Q928 27 1069 170Q1209 313 1209 562L1209 662L678 662L678 708L1258 708L1258 564Z"  horiz-adv-x="1332" vert-adv-y="2048"  />

      
      <glyph glyph-name="uni48" unicode="&#x48;" d="M1121 0L1121 718L173 718L173 0L123 0L123 1443L173 1443L173 765L1121 765L1121 1443L1171 1443L1171 0L1121 0Z"  horiz-adv-x="1296" vert-adv-y="2048"  />

      
      <glyph glyph-name="uni49" unicode="&#x49;" d="M123 0L123 1443L173 1443L173 0L123 0Z"  horiz-adv-x="298" vert-adv-y="2048"  />

      
      <glyph glyph-name="uni4a" unicode="&#x4a;" d="M89 315Q96 187 187 106Q279 26 417 26Q576 26 667 121Q758 216 758 384L758 1443L808 1443L808 381Q808 196 704 88Q599-21 417-21Q257-21 151 73Q45 167 40 315L89 315Z"  horiz-adv-x="933" vert-adv-y="2048"  />

      
      <glyph glyph-name="uni4b" unicode="&#x4b;" d="M123 0L123 1443L173 1443L173 607L177 607L961 1443L1025 1443L431 808L1095 0L1031 0L395 773L173 536L173 0L123 0Z"  horiz-adv-x="1107" vert-adv-y="2048"  />

      
      <glyph glyph-name="uni4c" unicode="&#x4c;" d="M948 0L123 0L123 1443L173 1443L173 47L948 47L948 0Z"  horiz-adv-x="1009" vert-adv-y="2048"  />

      
      <glyph glyph-name="uni4d" unicode="&#x4d;" d="M1450 0L1401 0L1401 1328L1397 1328L813 1L760 1L176 1328L172 1328L172 0L123 0L123 1443L176 1443L785 63L789 63L1395 1443L1450 1443L1450 0Z"  horiz-adv-x="1576" vert-adv-y="2048"  />

      
      <glyph glyph-name="uni4e" unicode="&#x4e;" d="M123 0L123 1443L178 1443L1136 95L1140 95L1140 1443L1190 1443L1190 0L1144 0L177 1359L173 1359L173 0L123 0Z"  horiz-adv-x="1315" vert-adv-y="2048"  />

      
      <glyph glyph-name="uni4f" unicode="&#x4f;" d="M698 1463Q989 1463 1162 1262Q1334 1062 1334 722Q1334 381 1162 180Q990-20 698-20Q406-20 234 180Q62 381 62 722Q62 1062 234 1262Q406 1463 698 1463M698 1416Q429 1416 271 1228Q112 1041 112 722Q112 404 271 215Q430 27 698 27Q965 27 1125 215Q1284 404 1284 722Q1284 1040 1125 1228Q966 1416 698 1416Z"  horiz-adv-x="1398" vert-adv-y="2048"  />

      
      <glyph glyph-name="uni50" unicode="&#x50;" d="M571 1443Q783 1443 909 1329Q1034 1215 1034 1022Q1034 829 908 715Q782 601 570 601L173 601L173 0L123 0L123 1443L571 1443M173 648L567 648Q759 648 871 748Q984 849 984 1022Q984 1196 872 1296Q759 1396 567 1396L173 1396L173 648Z"  horiz-adv-x="1087" vert-adv-y="2048"  />

      
      <glyph glyph-name="uni51" unicode="&#x51;" d="M1155-182L989 45Q859-20 698-20Q405-20 233 180Q62 381 62 722Q62 1062 234 1262Q406 1463 698 1463Q989 1463 1162 1262Q1334 1062 1334 722Q1334 258 1031 68L1214-182L1155-182M698 27Q843 27 961 85L760 360L819 360L1002 108Q1283 282 1283 722Q1283 1039 1124 1228Q965 1416 698 1416Q430 1416 271 1228Q112 1039 112 722Q112 404 271 216Q430 27 698 27Z"  horiz-adv-x="1398" vert-adv-y="2048"  />

      
      <glyph glyph-name="uni52" unicode="&#x52;" d="M173 676L570 676Q763 676 873 772Q984 869 984 1036Q984 1206 874 1301Q764 1396 569 1396L173 1396L173 676M173 0L123 0L123 1443L571 1443Q787 1443 911 1334Q1035 1226 1035 1036Q1035 878 943 774Q851 668 688 640L1069 0L1012 0L636 632Q600 630 570 630L173 630L173 0Z"  horiz-adv-x="1124" vert-adv-y="2048"  />

      
      <glyph glyph-name="uni53" unicode="&#x53;" d="M101 382Q109 226 241 126Q372 26 570 26Q763 26 887 126Q1009 225 1009 377Q1009 497 924 570Q839 643 647 691L480 733Q278 783 185 867Q91 950 91 1082Q91 1245 227 1355Q361 1463 552 1463Q752 1463 889 1359Q1024 1256 1031 1102L981 1102Q974 1237 852 1327Q730 1417 552 1417Q380 1417 262 1323Q141 1226 141 1082Q141 968 227 896Q311 826 496 780L661 739Q868 687 962 604Q1059 518 1059 379Q1059 204 923 93Q786-20 568-20Q349-20 204 93Q59 206 51 382L101 382Z"  horiz-adv-x="1114" vert-adv-y="2048"  />

      
      <glyph glyph-name="uni54" unicode="&#x54;" d="M534 0L534 1396L13 1396L13 1443L1104 1443L1104 1396L583 1396L583 0L534 0Z"  horiz-adv-x="1117" vert-adv-y="2048"  />

      
      <glyph glyph-name="uni55" unicode="&#x55;" d="M173 500Q173 282 303 154Q432 27 652 27Q873 27 1002 154Q1132 282 1132 500L1132 1443L1182 1443L1182 499Q1182 262 1039 121Q895-20 652-20Q409-20 266 121Q123 262 123 499L123 1443L173 1443L173 500Z"  horiz-adv-x="1307" vert-adv-y="2048"  />

      
      <glyph glyph-name="uni56" unicode="&#x56;" d="M575 0L19 1443L74 1443L598 71L602 71L1127 1443L1181 1443L626 0L575 0Z"  horiz-adv-x="1203" vert-adv-y="2048"  />

      
      <glyph glyph-name="uni57" unicode="&#x57;" d="M487 0L446 0L40 1443L92 1443L466 99L470 99L866 1443L909 1443L1304 99L1309 99L1683 1443L1734 1443L1328 0L1288 0L890 1338L885 1338L487 0Z"  horiz-adv-x="1777" vert-adv-y="2048"  />

      
      <glyph glyph-name="uni58" unicode="&#x58;" d="M41 1443L101 1443L594 763L595 763L1089 1443L1148 1443L625 722L1147 0L1087 0L595 680L594 680L99 0L40 0L41 1443Z"  horiz-adv-x="1190" vert-adv-y="2048"  />

      
      <glyph glyph-name="uni59" unicode="&#x59;" d="M549 0L549 631L20 1443L80 1443L572 685L576 685L1067 1443L1126 1443L599 631L599 0L549 0Z"  horiz-adv-x="1148" vert-adv-y="2048"  />

      
      <glyph glyph-name="uni5a" unicode="&#x5a;" d="M63 42L1017 1392L1017 1396L92 1396L92 1443L1081 1443L1081 1400L128 51L128 47L1082 47L1082 0L63 0L63 42Z"  horiz-adv-x="1147" vert-adv-y="2048"  />

      
      <glyph glyph-name="uni5b" unicode="&#x5b;" d="M494 1443L494 1398L197 1398L197-191L509-191L509-235L148-235L148 1443L494 1443Z"  horiz-adv-x="556" vert-adv-y="2048"  />

      
      <glyph glyph-name="uni5c" unicode="&#x5c;" d="M0 1443L49 1443L497-332L449-332L0 1443Z"  horiz-adv-x="497" vert-adv-y="2048"  />

      
      <glyph glyph-name="uni5d" unicode="&#x5d;" d="M406-235L45-235L45-191L357-191L357 1398L60 1398L60 1443L406 1443L406-235Z"  horiz-adv-x="556" vert-adv-y="2048"  />

      
      <glyph glyph-name="uni5e" unicode="&#x5e;" d="M106 825L51 825L353 1421L394 1421L696 825L641 825L375 1355L372 1355L106 825Z"  horiz-adv-x="749" vert-adv-y="2048"  />

      
      <glyph glyph-name="uni5f" unicode="&#x5f;" d="M-66-196L-66-152L867-152L867-196L-66-196Z"  horiz-adv-x="801" vert-adv-y="2048"  />

      
      <glyph glyph-name="uni60" unicode="&#x60;" d="M455 1254L209 1557L272 1557L508 1254L455 1254Z"  horiz-adv-x="686" vert-adv-y="2048"  />

      
      <glyph glyph-name="uni61" unicode="&#x61;" d="M448 30Q617 30 738 138Q858 245 858 396L858 578L477 549Q139 523 139 286Q139 175 227 103Q314 30 448 30M445-16Q288-16 189 69Q89 153 89 286Q89 562 469 592L858 622L858 719Q858 872 772 959Q685 1046 533 1046Q382 1046 289 972Q196 898 175 763L128 763Q145 916 254 1004Q363 1092 533 1092Q706 1092 807 993Q907 893 907 722L907 0L858 0L858 245L857 245Q818 129 704 57Q589-16 445-16Z"  horiz-adv-x="1021" vert-adv-y="2048"  />

      
      <glyph glyph-name="uni62" unicode="&#x62;" d="M599-16Q448-16 334 75Q219 166 180 319L178 319L178 0L129 0L129 1506L178 1506L178 761L180 761Q218 911 331 1001Q445 1092 598 1092Q798 1092 924 939Q1050 785 1050 539Q1050 293 924 138Q798-16 599-16M594 1046Q412 1046 295 903Q178 760 178 537Q178 315 294 173Q411 31 593 31Q774 31 888 172Q1001 313 1001 539Q1001 764 888 905Q775 1046 594 1046Z"  horiz-adv-x="1116" vert-adv-y="2048"  />

      
      <glyph glyph-name="uni63" unicode="&#x63;" d="M907 760Q881 886 780 965Q676 1046 533 1046Q340 1046 227 908Q114 771 114 538Q114 305 226 168Q339 31 533 31Q678 31 780 108Q880 183 905 307L955 307Q929 162 815 74Q699-16 533-16Q318-16 191 134Q64 283 64 538Q64 792 191 942Q318 1092 533 1092Q696 1092 814 998Q930 905 957 760L907 760Z"  horiz-adv-x="1019" vert-adv-y="2048"  />

      
      <glyph glyph-name="uni64" unicode="&#x64;" d="M523-16Q321-16 193 138Q64 293 64 538Q64 784 193 938Q321 1092 523 1092Q679 1092 797 995Q911 902 943 761L945 761L945 1506L995 1506L995 0L949 0L949 322L947 322Q912 176 798 82Q679-16 523-16M525 1046Q344 1046 229 905Q114 764 114 539Q114 313 229 172Q344 31 525 31Q709 31 827 172Q945 314 945 538Q945 762 827 904Q709 1046 525 1046Z"  horiz-adv-x="1126" vert-adv-y="2048"  />

      
      <glyph glyph-name="uni65" unicode="&#x65;" d="M532 1046Q352 1046 238 918Q124 791 115 581L940 581Q940 788 828 917Q715 1046 532 1046M976 299Q948 159 835 74Q716-16 540-16Q321-16 194 130Q64 278 64 538Q64 788 192 940Q320 1092 532 1092Q737 1092 864 949Q990 806 990 574L990 536L114 536L114 534Q114 297 231 162Q346 30 541 30Q697 30 802 108Q900 180 925 299L976 299Z"  horiz-adv-x="1056" vert-adv-y="2048"  />

      
      <glyph glyph-name="uni66" unicode="&#x66;" d="M169 1031L19 1031L19 1076L169 1076L169 1245Q169 1485 392 1485Q439 1485 466 1475L466 1429Q436 1439 393 1439Q219 1439 219 1238L219 1076L456 1076L456 1031L219 1031L219 0L169 0L169 1031Z"  horiz-adv-x="509" vert-adv-y="2048"  />

      
      <glyph glyph-name="uni67" unicode="&#x67;" d="M520 31Q704 31 820 172Q936 314 936 538Q936 762 820 904Q704 1046 520 1046Q339 1046 227 905Q114 764 114 537Q114 312 227 172Q339 31 520 31M541-354Q374-354 263-289Q154-226 130-121L183-121Q204-204 300-255Q399-308 544-308Q719-308 826-227Q936-144 936-2L936 316L934 316Q901 174 790 82Q673-15 518-15Q316-15 190 139Q64 292 64 538Q64 784 191 938Q317 1092 518 1092Q674 1092 791 994Q902 901 937 755L939 755L939 1076L985 1076L985 0Q985-165 860-261Q739-354 541-354Z"  horiz-adv-x="1106" vert-adv-y="2048"  />

      
      <glyph glyph-name="uni68" unicode="&#x68;" d="M129 1506L178 1506L178 822L180 822Q215 942 319 1017Q424 1092 563 1092Q741 1092 851 984Q961 875 961 695L961 0L911 0L911 693Q911 856 813 952Q716 1046 557 1046Q391 1046 285 934Q178 822 178 645L178 0L129 0L129 1506Z"  horiz-adv-x="1075" vert-adv-y="2048"  />

      
      <glyph glyph-name="uni69" unicode="&#x69;" d="M129 1076L178 1076L178 0L129 0L129 1076M154 1366Q134 1366 119 1380Q105 1394 105 1414Q105 1434 119 1448Q134 1462 154 1462Q174 1462 188 1448Q202 1434 202 1414Q202 1395 188 1380Q174 1366 154 1366Z"  horiz-adv-x="309" vert-adv-y="2048"  />

      
      <glyph glyph-name="uni6a" unicode="&#x6a;" d="M179-80Q179-219 112-282Q49-342-84-342L-113-342L-113-297L-86-297Q27-297 78-247Q130-197 130-84L130 1076L179 1076L179-80M155 1366Q135 1366 120 1380Q106 1394 106 1414Q106 1434 120 1448Q135 1462 155 1462Q175 1462 189 1448Q203 1434 203 1414Q203 1395 189 1380Q175 1366 155 1366Z"  horiz-adv-x="309" vert-adv-y="2048"  />

      
      <glyph glyph-name="uni6b" unicode="&#x6b;" d="M825 1076L895 1076L378 613L897 0L832 0L339 583L178 441L178 0L129 0L129 1506L178 1506L178 503L180 503L825 1076Z"  horiz-adv-x="913" vert-adv-y="2048"  />

      
      <glyph glyph-name="uni6c" unicode="&#x6c;" d="M129 1506L178 1506L178 0L129 0L129 1506Z"  horiz-adv-x="309" vert-adv-y="2048"  />

      
      <glyph glyph-name="uni6d" unicode="&#x6d;" d="M119 1076L165 1076L165 822L167 822Q196 941 280 1014Q369 1092 497 1092Q626 1092 718 1012Q805 936 827 821L829 821Q854 934 943 1010Q1040 1092 1172 1092Q1326 1092 1420 991Q1514 890 1514 721L1514 0L1465 0L1465 710Q1465 866 1384 956Q1304 1046 1165 1046Q1020 1046 930 940Q841 834 841 664L841 0L792 0L792 708Q792 859 707 953Q624 1046 493 1046Q348 1046 259 934Q168 821 168 633L168 0L119 0L119 1076Z"  horiz-adv-x="1628" vert-adv-y="2048"  />

      
      <glyph glyph-name="uni6e" unicode="&#x6e;" d="M119 1076L165 1076L165 822L167 822Q202 943 305 1017Q410 1092 549 1092Q728 1092 838 985Q949 876 949 696L949 0L900 0L900 694Q900 855 800 952Q702 1046 542 1046Q377 1046 273 934Q168 822 168 646L168 0L119 0L119 1076Z"  horiz-adv-x="1063" vert-adv-y="2048"  />

      
      <glyph glyph-name="uni6f" unicode="&#x6f;" d="M538-16Q324-16 195 134Q64 285 64 538Q64 791 195 943Q325 1092 538 1092Q751 1092 881 943Q1012 791 1012 538Q1012 285 881 134Q751-16 538-16M538 31Q730 31 846 168Q963 306 963 538Q963 771 846 909Q730 1046 538 1046Q346 1046 231 909Q114 771 114 538Q114 305 231 168Q346 31 538 31Z"  horiz-adv-x="1078" vert-adv-y="2048"  />

      
      <glyph glyph-name="uni70" unicode="&#x70;" d="M586 1092Q787 1092 914 938Q1040 784 1040 538Q1040 291 914 138Q788-16 586-16Q431-16 314 81Q203 173 170 315L168 315L168-340L119-340L119 1076L165 1076L165 755L167 755Q201 900 313 994Q430 1092 586 1092M583 31Q764 31 878 172Q991 312 991 537Q991 763 878 904Q764 1046 583 1046Q400 1046 284 904Q168 762 168 538Q168 314 284 172Q400 31 583 31Z"  horiz-adv-x="1106" vert-adv-y="2048"  />

      
      <glyph glyph-name="uni71" unicode="&#x71;" d="M523 1092Q679 1092 798 994Q912 900 947 755L949 755L949 1076L995 1076L995-340L945-340L945 315L943 315Q911 174 797 81Q678-16 523-16Q321-16 193 138Q64 292 64 538Q64 783 193 938Q321 1092 523 1092M525 31Q709 31 827 172Q945 314 945 538Q945 762 827 904Q709 1046 525 1046Q344 1046 229 904Q114 762 114 537Q114 313 229 172Q344 31 525 31Z"  horiz-adv-x="1116" vert-adv-y="2048"  />

      
      <glyph glyph-name="uni72" unicode="&#x72;" d="M119 1076L165 1076L165 853L167 853Q239 1092 464 1092Q523 1092 572 1071L572 1020Q522 1045 456 1045Q324 1045 245 939Q168 836 168 670L168 0L119 0L119 1076Z"  horiz-adv-x="603" vert-adv-y="2048"  />

      
      <glyph glyph-name="uni73" unicode="&#x73;" d="M91 808Q91 932 197 1013Q301 1092 453 1092Q614 1092 716 1003Q817 915 831 764L783 764Q769 890 684 967Q594 1046 453 1046Q324 1046 234 980Q140 912 140 809Q140 724 198 674Q254 627 379 598L546 558Q706 519 777 454Q848 388 848 279Q848 148 738 66Q628-16 457-16Q288-16 174 78Q63 169 55 304L105 304Q115 189 213 110Q313 30 456 30Q601 30 698 98Q798 167 798 276Q798 369 736 424Q674 479 531 513L362 552Q224 585 159 644Q91 707 91 808Z"  horiz-adv-x="905" vert-adv-y="2048"  />

      
      <glyph glyph-name="uni74" unicode="&#x74;" d="M228 1364L228 1076L456 1076L456 1031L228 1031L228 235Q228 133 267 89Q305 45 391 45L474 46L474 0L388-1Q278-1 229 54Q179 109 179 234L179 1031L19 1031L19 1076L179 1076L179 1364L228 1364Z"  horiz-adv-x="527" vert-adv-y="2048"  />

      
      <glyph glyph-name="uni75" unicode="&#x75;" d="M943 0L897 0L897 251L895 251Q862 137 753 61Q641-16 505-16Q330-16 222 90Q112 197 112 375L112 1076L161 1076L161 382Q161 218 259 123Q354 31 511 31Q674 31 782 138Q893 249 893 427L893 1076L943 1076L943 0Z"  horiz-adv-x="1063" vert-adv-y="2048"  />

      
      <glyph glyph-name="uni76" unicode="&#x76;" d="M478 0L410 0L2 1076L55 1076L443 48L445 48L833 1076L886 1076L478 0Z"  horiz-adv-x="888" vert-adv-y="2048"  />

      
      <glyph glyph-name="uni77" unicode="&#x77;" d="M1087 0L1021 0L704 1016L702 1016L385 0L319 0L2 1076L57 1076L351 55L353 55L670 1076L736 1076L1053 55L1055 55L1349 1076L1404 1076L1087 0Z"  horiz-adv-x="1406" vert-adv-y="2048"  />

      
      <glyph glyph-name="uni78" unicode="&#x78;" d="M433 506L63 0L2 0L405 548L3 1076L65 1076L434 587L436 587L805 1076L867 1076L465 549L866 0L806 0L436 506L433 506Z"  horiz-adv-x="869" vert-adv-y="2048"  />

      
      <glyph glyph-name="uni79" unicode="&#x79;" d="M178-343Q152-343 131-334L131-287Q154-296 184-296Q254-296 300-249Q345-204 389-91L417-19L2 1076L56 1076L443 47L445 47L833 1076L887 1076L470-25Q396-220 340-281Q284-343 178-343Z"  horiz-adv-x="888" vert-adv-y="2048"  />

      
      <glyph glyph-name="uni7a" unicode="&#x7a;" d="M57 47L791 1029L791 1031L57 1031L57 1076L851 1076L851 1029L115 47L115 45L851 45L851 0L57 0L57 47Z"  horiz-adv-x="910" vert-adv-y="2048"  />

      
      <glyph glyph-name="uni7b" unicode="&#x7b;" d="M145 620Q232 612 272 557Q311 503 311 392L311-20Q311-262 566-262L637-262L637-307L589-307Q413-307 337-235Q262-162 262 8L262 357Q262 483 223 533Q184 583 88 583L88 674Q184 674 223 725Q262 776 262 903L262 1195Q262 1362 336 1431Q411 1501 589 1501L637 1501L637 1455L566 1455Q434 1455 373 1396Q311 1338 311 1214L311 867Q311 757 272 703Q232 648 145 640L145 620Z"  horiz-adv-x="682" vert-adv-y="2048"  />

      
      <glyph glyph-name="uni7c" unicode="&#x7c;" d="M140-332L140 1443L187 1443L187-332L140-332Z"  horiz-adv-x="329" vert-adv-y="2048"  />

      
      <glyph glyph-name="uni7d" unicode="&#x7d;" d="M535 640Q448 648 409 703Q369 757 369 867L369 1214Q369 1338 307 1396Q245 1455 114 1455L43 1455L43 1501L91 1501Q269 1501 344 1431Q418 1362 418 1195L418 903Q418 776 457 725Q496 674 592 674L592 583Q496 583 457 533Q418 483 418 357L418 8Q418-162 343-235Q267-307 91-307L43-307L43-262L114-262Q369-262 369-20L369 392Q369 503 409 557Q448 612 535 620L535 640Z"  horiz-adv-x="683" vert-adv-y="2048"  />

      
      <glyph glyph-name="uni7e" unicode="&#x7e;" d="M559 678Q436 791 361 791Q286 791 239 727Q191 663 189 560L141 560Q141 685 202 761Q262 838 361 838Q452 838 590 714Q714 601 802 601Q877 601 930 671Q983 741 987 845L1036 845Q1036 723 968 639Q899 554 801 554Q737 554 689 579Q641 603 559 678Z"  horiz-adv-x="1179" vert-adv-y="2048"  />

      
      <glyph glyph-name="unia1" unicode="&#xa1;" d="M223 695L275 695L276-336L222-336L223 695M249 1000Q225 1000 208 1018Q191 1035 191 1059Q191 1083 208 1100Q225 1117 249 1117Q273 1117 290 1100Q307 1083 307 1059Q307 1035 290 1018Q273 1000 249 1000Z"  horiz-adv-x="500" vert-adv-y="2048"  />

      
      <glyph glyph-name="unia2" unicode="&#xa2;" d="M1070 461Q1047 319 922 230Q802 144 636 137L636-87L587-87L587 138Q376 146 244 292Q105 443 105 692Q105 939 244 1091Q377 1237 587 1245L587 1452L636 1452L636 1245Q801 1238 922 1150Q1047 1057 1072 913L1022 913Q996 1042 878 1123Q763 1200 610 1200Q413 1200 286 1065Q154 925 154 692Q154 458 286 317Q412 182 610 182Q763 182 877 256Q997 333 1020 461L1070 461Z"  horiz-adv-x="1179" vert-adv-y="2048"  />

      
      <glyph glyph-name="unia3" unicode="&#xa3;" d="M1122 46L1122 0L56 0L56 48Q425 143 425 406Q425 511 357 690L100 690L100 736L340 736Q254 958 254 1094Q254 1265 370 1368Q489 1473 699 1473Q910 1473 1025 1413L1025 1364Q911 1427 701 1427Q511 1427 405 1333Q304 1243 304 1093Q304 969 392 736L860 736L860 690L409 690Q473 522 473 406Q473 259 371 161Q293 85 172 50L172 46L1122 46Z"  horiz-adv-x="1179" vert-adv-y="2048"  />

      
      <glyph glyph-name="unia4" unicode="&#xa4;" d="M259 655Q259 519 356 422Q452 325 588 325Q725 325 822 423Q918 519 918 655Q918 792 822 889Q725 986 588 986Q452 986 356 889Q259 792 259 655M871 903Q964 797 964 655Q964 513 869 407L1038 240L1003 206L836 374Q730 279 588 279Q448 279 341 373L173 206L139 240L306 408Q213 514 213 655Q213 798 307 903L139 1070L173 1104L340 937Q447 1031 588 1031Q730 1031 836 938L1003 1104L1038 1070L871 903Z"  horiz-adv-x="1179" vert-adv-y="2048"  />

      
      <glyph glyph-name="unia5" unicode="&#xa5;" d="M614 391L614 0L564 0L564 391L205 391L205 436L564 436L564 656L205 656L205 700L536 700L36 1443L96 1443L587 713L591 713L1082 1443L1141 1443L642 700L972 700L972 656L614 656L614 436L972 436L972 391L614 391Z"  horiz-adv-x="1179" vert-adv-y="2048"  />

      
      <glyph glyph-name="unia6" unicode="&#xa6;" d="M140 746L140 1443L187 1443L187 746L140 746M140-332L140 371L187 371L187-332L140-332Z"  horiz-adv-x="329" vert-adv-y="2048"  />

      
      <glyph glyph-name="unia7" unicode="&#xa7;" d="M499 323Q638 325 725 395Q813 464 813 571Q813 665 743 724Q674 781 520 816L443 833Q304 832 217 762Q129 693 129 586Q129 492 199 434Q269 375 422 340L499 323M477-235Q318-235 213-163Q108-91 95 26L144 26Q159-71 251-130Q342-189 477-189Q611-189 699-124Q787-60 787 40Q787 211 517 270L411 294Q239 333 159 402Q78 472 78 581Q78 687 152 760Q226 833 356 855L356 858Q106 925 106 1116Q106 1236 208 1314Q309 1391 465 1391Q623 1391 728 1320Q833 1249 847 1131L797 1131Q783 1228 691 1287Q600 1346 465 1346Q331 1346 244 1281Q156 1216 156 1117Q156 946 426 887L532 862Q703 824 783 755Q863 686 863 576Q863 470 788 396Q714 323 583 301L583 298Q836 233 836 41Q836-79 735-157Q633-235 477-235Z"  horiz-adv-x="943" vert-adv-y="2048"  />

      
      <glyph glyph-name="unia8" unicode="&#xa8;" d="M203 1254Q181 1254 164 1270Q148 1286 148 1308Q148 1330 164 1345Q180 1361 203 1361Q225 1361 241 1345Q257 1330 257 1308Q257 1286 241 1270Q225 1254 203 1254M481 1254Q459 1254 443 1270Q427 1286 427 1308Q427 1330 443 1345Q459 1361 481 1361Q504 1361 520 1345Q536 1330 536 1308Q536 1286 520 1270Q503 1254 481 1254Z"  horiz-adv-x="686" vert-adv-y="2048"  />

      
      <glyph glyph-name="unia9" unicode="&#xa9;" d="M869-138Q546-138 327 81Q106 301 106 626Q106 952 327 1172Q546 1390 869 1390Q1193 1390 1412 1172Q1632 953 1632 626Q1632 301 1412 81Q1192-138 869-138M869-92Q1172-92 1378 113Q1585 319 1585 626Q1585 934 1378 1140Q1173 1344 869 1344Q566 1344 360 1140Q153 934 153 626Q153 319 360 113Q566-92 869-92M1166 803Q1140 898 1063 956Q980 1018 862 1018Q710 1018 615 916Q516 811 516 633Q516 454 614 346Q710 242 862 242Q986 242 1068 301Q1143 356 1164 446L1212 446Q1188 334 1098 267Q1004 198 862 198Q690 198 581 314Q469 434 469 633Q469 831 581 948Q689 1062 862 1062Q1001 1062 1100 984Q1192 912 1213 803L1166 803Z"  horiz-adv-x="1739" vert-adv-y="2048"  />

      
      <glyph glyph-name="uniaa" unicode="&#xaa;" d="M158 817Q158 727 226 671Q293 615 401 615Q531 615 624 697Q717 778 717 893L717 1044L423 1019Q158 997 158 817M396 573Q268 573 190 640Q111 707 111 816Q111 1034 413 1059L716 1083L716 1171Q716 1282 646 1348Q576 1413 456 1413Q343 1413 273 1360Q208 1312 191 1231L145 1231Q161 1330 238 1389Q322 1454 457 1454Q599 1454 681 1378Q764 1302 764 1172L764 578L719 578L719 771L714 771Q683 684 594 629Q505 573 396 573Z"  horiz-adv-x="877" vert-adv-y="2048"  />

      
      <glyph glyph-name="uniab" unicode="&#xab;" d="M622 565L991 158L929 158L552 566L552 570L929 978L991 978L622 571L622 565M226 565L596 158L533 158L157 566L157 570L533 978L596 978L226 571L226 565Z"  horiz-adv-x="1150" vert-adv-y="2048"  />

      
      <glyph glyph-name="uniac" unicode="&#xac;" d="M1071 183L1023 183L1023 677L106 677L106 723L1071 723L1071 183Z"  horiz-adv-x="1179" vert-adv-y="2048"  />

      
      <glyph glyph-name="uniae" unicode="&#xae;" d="M622 463Q415 463 271 608Q126 752 126 959Q126 1167 271 1311Q415 1455 622 1455Q830 1455 975 1311Q1119 1167 1119 959Q1119 752 975 608Q830 463 622 463M622 507Q812 507 944 638Q1075 769 1075 959Q1075 1149 944 1280Q813 1411 622 1411Q432 1411 301 1280Q170 1149 170 959Q170 769 301 638Q432 507 622 507M436 706L436 1247L633 1247Q710 1247 758 1204Q808 1160 808 1083Q808 1018 768 974Q731 933 678 927L835 706L782 706L629 921L480 921L480 706L436 706M480 961L620 961Q690 961 729 996Q765 1029 765 1084Q765 1139 727 1172Q688 1206 620 1206L480 1206L480 961Z"  horiz-adv-x="1247" vert-adv-y="2048"  />

      
      <glyph glyph-name="uniaf" unicode="&#xaf;" d="M698 1305L114 1305L114 1348L698 1348L698 1305Z"  horiz-adv-x="814" vert-adv-y="2048"  />

      
      <glyph glyph-name="unib0" unicode="&#xb0;" d="M273 1038Q189 1038 130 1098Q70 1157 70 1242Q70 1326 130 1386Q189 1446 273 1446Q358 1446 418 1386Q478 1326 478 1242Q478 1158 418 1098Q357 1038 273 1038M273 1078Q341 1078 389 1126Q437 1174 437 1242Q437 1310 389 1357Q341 1405 273 1405Q206 1405 158 1357Q110 1309 110 1242Q110 1174 158 1126Q206 1078 273 1078Z"  horiz-adv-x="550" vert-adv-y="2048"  />

      
      <glyph glyph-name="unib1" unicode="&#xb1;" d="M103 113L103 159L1073 159L1073 113L103 113M612 321L565 321L565 688L103 688L103 733L565 733L565 1077L612 1077L612 733L1073 733L1073 688L612 688L612 321Z"  horiz-adv-x="1179" vert-adv-y="2048"  />

      
      <glyph glyph-name="unib2" unicode="&#xb2;" d="M67 1588Q68 1671 127 1725Q185 1779 273 1779Q362 1779 419 1728Q477 1677 477 1598Q477 1509 339 1366L137 1151L137 1149L499 1149L499 1107L69 1107L69 1142L308 1395Q429 1524 429 1595Q429 1657 385 1697Q340 1737 272 1737Q205 1737 160 1695Q116 1653 114 1588L114 1587L67 1587L67 1588Z"  horiz-adv-x="550" vert-adv-y="2048"  />

      
      <glyph glyph-name="unib3" unicode="&#xb3;" d="M188 1470L264 1470Q335 1470 379 1508Q424 1546 424 1606Q424 1661 380 1699Q335 1737 268 1737Q202 1737 158 1700Q114 1663 110 1606L64 1606Q68 1682 125 1730Q183 1779 270 1779Q356 1779 414 1731Q472 1682 472 1610Q472 1549 435 1507Q398 1465 333 1453L333 1451Q410 1447 456 1402Q501 1357 501 1288Q501 1206 436 1151Q370 1097 271 1097Q175 1097 112 1149Q51 1199 49 1276L96 1276Q98 1218 147 1179Q196 1139 271 1139Q349 1139 400 1182Q451 1224 451 1288Q451 1354 402 1392Q352 1430 265 1430L188 1430L188 1470Z"  horiz-adv-x="552" vert-adv-y="2048"  />

      
      <glyph glyph-name="unib4" unicode="&#xb4;" d="M176 1254L412 1557L475 1557L229 1254L176 1254Z"  horiz-adv-x="686" vert-adv-y="2048"  />

      
      <glyph glyph-name="unib6" unicode="&#xb6;" d="M682-146L682 575L662 575Q452 575 319 698Q188 820 188 1007Q188 1204 316 1323Q445 1443 663 1443L732 1443L732-146L682-146M914 1443L964 1443L964-146L914-146L914 1443Z"  horiz-adv-x="1155" vert-adv-y="2048"  />

      
      <glyph glyph-name="unib7" unicode="&#xb7;" d="M243 538Q220 538 203 555Q186 572 186 595Q186 619 203 636Q220 653 243 653Q267 653 284 636Q300 619 300 595Q300 572 284 555Q267 538 243 538Z"  horiz-adv-x="488" vert-adv-y="2048"  />

      
      <glyph glyph-name="unib8" unicode="&#xb8;" d="M238-149L307 6L351 0L292-140Q386-140 442-182Q498-224 498-294Q498-368 438-415Q378-461 282-462Q206-462 160-445L160-402Q205-419 281-419Q353-419 403-383Q452-347 452-295Q452-182 288-182L238-182L238-149Z"  horiz-adv-x="686" vert-adv-y="2048"  />

      
      <glyph glyph-name="unib9" unicode="&#xb9;" d="M231 1721L229 1721L50 1603L50 1652L230 1771L278 1771L278 1107L231 1107L231 1721Z"  horiz-adv-x="416" vert-adv-y="2048"  />

      
      <glyph glyph-name="uniba" unicode="&#xba;" d="M158 1012Q158 831 248 724Q337 618 486 618Q635 618 725 724Q816 831 816 1012Q816 1195 725 1303Q635 1410 486 1410Q337 1410 248 1303Q158 1195 158 1012M486 572Q314 572 212 691Q110 810 110 1012Q110 1215 213 1335Q315 1454 486 1454Q658 1454 761 1335Q864 1215 864 1012Q864 811 761 691Q658 572 486 572Z"  horiz-adv-x="976" vert-adv-y="2048"  />

      
      <glyph glyph-name="unibb" unicode="&#xbb;" d="M157 978L220 978L596 570L596 566L220 158L157 158L527 565L527 571L157 978M552 978L615 978L991 570L991 566L615 158L552 158L922 565L922 571L552 978Z"  horiz-adv-x="1150" vert-adv-y="2048"  />

      
      <glyph glyph-name="unibc" unicode="&#xbc;" d="M1183 160L844 160L844 204Q966 396 1162 664L1231 664L1231 202L1333 202L1333 160L1231 160L1231 0L1183 0L1183 160M894 202L1184 202L1184 620L1182 620Q1009 384 894 203L894 202M232 1393L230 1393L51 1275L51 1324L231 1443L279 1443L279 779L232 779L232 1393M88 1L1169 1444L1228 1444L147 1L88 1Z"  horiz-adv-x="1374" vert-adv-y="2048"  />

      
      <glyph glyph-name="unibd" unicode="&#xbd;" d="M911 481Q912 564 971 618Q1029 672 1117 672Q1206 672 1263 621Q1321 570 1321 491Q1321 402 1183 259L981 44L981 42L1343 42L1343 0L913 0L913 35L1152 288Q1273 417 1273 488Q1273 550 1229 590Q1184 630 1116 630Q1049 630 1004 588Q960 546 958 481L958 480L911 480L911 481M232 1393L230 1393L51 1275L51 1324L231 1443L279 1443L279 779L232 779L232 1393M88 1L1169 1444L1228 1444L147 1L88 1Z"  horiz-adv-x="1393" vert-adv-y="2048"  />

      
      <glyph glyph-name="unibe" unicode="&#xbe;" d="M179 1142L255 1142Q326 1142 370 1180Q415 1218 415 1278Q415 1333 371 1371Q326 1409 259 1409Q193 1409 149 1372Q105 1335 101 1278L55 1278Q59 1354 116 1402Q174 1451 261 1451Q347 1451 405 1403Q463 1354 463 1282Q463 1221 426 1179Q389 1137 324 1125L324 1123Q401 1119 447 1074Q492 1029 492 960Q492 878 427 823Q361 769 262 769Q166 769 103 821Q42 871 40 948L87 948Q89 890 138 851Q187 811 262 811Q340 811 391 854Q442 896 442 960Q442 1026 393 1064Q343 1102 256 1102L179 1102L179 1142M1237 160L898 160L898 204Q1020 396 1216 664L1285 664L1285 202L1387 202L1387 160L1285 160L1285 0L1237 0L1237 160M948 202L1238 202L1238 620L1236 620Q1063 384 948 203L948 202M179 1L1260 1444L1319 1444L238 1L179 1Z"  horiz-adv-x="1428" vert-adv-y="2048"  />

      
      <glyph glyph-name="unibf" unicode="&#xbf;" d="M848-7Q838-161 730-262Q621-364 463-364Q299-364 190-263Q81-163 81-13Q81 85 130 162Q179 239 295 322Q400 397 437 455Q473 512 473 603L473 700L522 700L522 601Q522 502 482 436Q442 370 331 288Q132 142 132-11Q132-145 228-232Q323-318 463-318Q599-318 693-233Q787-147 800-7L848-7M491 1000Q468 1000 451 1018Q434 1035 434 1059Q434 1083 451 1100Q468 1117 491 1117Q515 1117 532 1100Q549 1083 549 1059Q549 1035 532 1018Q515 1000 491 1000Z"  horiz-adv-x="911" vert-adv-y="2048"  />

      
      <glyph glyph-name="unic0" unicode="&#xc0;" d="M935 501L264 501L74 0L19 0L574 1443L625 1443L1180 0L1124 0L935 501M282 547L917 547L602 1374L597 1374L282 547M278 1841L344 1841L638 1554L581 1554L278 1841Z"  horiz-adv-x="1201" vert-adv-y="2048"  />

      
      <glyph glyph-name="unic1" unicode="&#xc1;" d="M935 501L264 501L74 0L19 0L574 1443L625 1443L1180 0L1124 0L935 501M282 547L917 547L602 1374L597 1374L282 547M561 1554L854 1841L920 1841L617 1554L561 1554Z"  horiz-adv-x="1201" vert-adv-y="2048"  />

      
      <glyph glyph-name="unic2" unicode="&#xc2;" d="M935 501L264 501L74 0L19 0L574 1443L625 1443L1180 0L1124 0L935 501M282 547L917 547L602 1374L597 1374L282 547M622 1841L888 1554L829 1554L600 1803L598 1803L369 1554L310 1554L576 1841L622 1841Z"  horiz-adv-x="1201" vert-adv-y="2048"  />

      
      <glyph glyph-name="unic3" unicode="&#xc3;" d="M935 501L264 501L74 0L19 0L574 1443L625 1443L1180 0L1124 0L935 501M282 547L917 547L602 1374L597 1374L282 547M736 1552Q667 1552 589 1636Q511 1720 462 1720Q365 1720 365 1562L320 1562Q320 1654 355 1707Q392 1763 462 1763Q531 1763 609 1680Q687 1596 736 1596Q833 1596 833 1754L878 1754Q878 1661 843 1608Q806 1552 736 1552Z"  horiz-adv-x="1201" vert-adv-y="2048"  />

      
      <glyph glyph-name="unic4" unicode="&#xc4;" d="M935 501L264 501L74 0L19 0L574 1443L625 1443L1180 0L1124 0L935 501M282 547L917 547L602 1374L597 1374L282 547M460 1556Q438 1556 421 1572Q405 1588 405 1610Q405 1632 421 1647Q437 1663 460 1663Q482 1663 498 1647Q514 1632 514 1610Q514 1588 498 1572Q482 1556 460 1556M738 1556Q716 1556 700 1572Q684 1588 684 1610Q684 1632 700 1647Q716 1663 738 1663Q761 1663 777 1647Q793 1632 793 1610Q793 1588 777 1572Q760 1556 738 1556Z"  horiz-adv-x="1201" vert-adv-y="2048"  />

      
      <glyph glyph-name="unic5" unicode="&#xc5;" d="M935 501L264 501L74 0L19 0L574 1443L625 1443L1180 0L1124 0L935 501M282 547L917 547L602 1374L597 1374L282 547M599 1506Q531 1506 482 1555Q434 1604 434 1672Q434 1740 482 1788Q531 1837 599 1837Q666 1837 715 1788Q763 1740 763 1672Q763 1604 715 1555Q666 1506 599 1506M599 1545Q652 1545 689 1582Q725 1619 725 1672Q725 1725 689 1762Q652 1799 599 1799Q545 1799 509 1762Q472 1725 472 1672Q472 1619 509 1582Q545 1545 599 1545Z"  horiz-adv-x="1201" vert-adv-y="2048"  />

      
      <glyph glyph-name="unic6" unicode="&#xc6;" d="M342 458L1009 458L1009 1397L818 1397L342 458M1009 411L320 411L112 0L57 0L790 1443L1775 1443L1775 1396L1057 1396L1057 763L1738 763L1738 717L1057 717L1057 47L1775 47L1775 0L1009 0L1009 411Z"  horiz-adv-x="1878" vert-adv-y="2048"  />

      
      <glyph glyph-name="unic7" unicode="&#xc7;" d="M1200 979Q1180 1163 1034 1289Q886 1416 691 1416Q425 1416 268 1232Q112 1047 112 732Q112 408 270 217Q427 27 691 27Q894 27 1037 141Q1182 257 1200 440L1249 440Q1232 241 1079 113Q928-15 707-20L656-140Q750-140 806-182Q862-224 862-294Q862-368 802-415Q742-461 646-462Q570-462 524-445L524-402Q569-419 645-419Q717-419 767-383Q816-347 816-295Q816-182 652-182L602-182L602-149L660-19Q386-8 224 195Q62 398 62 732Q62 1069 232 1266Q401 1463 691 1463Q906 1463 1068 1323Q1230 1182 1249 979L1200 979Z"  horiz-adv-x="1303" vert-adv-y="2048"  />

      
      <glyph glyph-name="unic8" unicode="&#xc8;" d="M215 1841L281 1841L575 1554L518 1554L215 1841M949 0L123 0L123 1443L949 1443L949 1396L173 1396L173 764L913 764L913 718L173 718L173 47L949 47L949 0Z"  horiz-adv-x="1050" vert-adv-y="2048"  />

      
      <glyph glyph-name="unic9" unicode="&#xc9;" d="M498 1554L791 1841L857 1841L554 1554L498 1554M949 0L123 0L123 1443L949 1443L949 1396L173 1396L173 764L913 764L913 718L173 718L173 47L949 47L949 0Z"  horiz-adv-x="1050" vert-adv-y="2048"  />

      
      <glyph glyph-name="unica" unicode="&#xca;" d="M559 1841L825 1554L766 1554L537 1803L535 1803L306 1554L247 1554L513 1841L559 1841M949 0L123 0L123 1443L949 1443L949 1396L173 1396L173 764L913 764L913 718L173 718L173 47L949 47L949 0Z"  horiz-adv-x="1050" vert-adv-y="2048"  />

      
      <glyph glyph-name="unicb" unicode="&#xcb;" d="M397 1556Q375 1556 358 1572Q342 1588 342 1610Q342 1632 358 1647Q374 1663 397 1663Q419 1663 435 1647Q451 1632 451 1610Q451 1588 435 1572Q419 1556 397 1556M675 1556Q653 1556 637 1572Q621 1588 621 1610Q621 1632 637 1647Q653 1663 675 1663Q698 1663 714 1647Q730 1632 730 1610Q730 1588 714 1572Q697 1556 675 1556M949 0L123 0L123 1443L949 1443L949 1396L173 1396L173 764L913 764L913 718L173 718L173 47L949 47L949 0Z"  horiz-adv-x="1050" vert-adv-y="2048"  />

      
      <glyph glyph-name="unicc" unicode="&#xcc;" d="M124 0L124 1443L174 1443L174 0L124 0M-172 1841L-106 1841L188 1554L131 1554L-172 1841Z"  horiz-adv-x="298" vert-adv-y="2048"  />

      
      <glyph glyph-name="unicd" unicode="&#xcd;" d="M123 0L123 1443L173 1443L173 0L123 0M110 1554L403 1841L469 1841L166 1554L110 1554Z"  horiz-adv-x="298" vert-adv-y="2048"  />

      
      <glyph glyph-name="unice" unicode="&#xce;" d="M124 0L124 1443L174 1443L174 0L124 0M172 1841L438 1554L379 1554L150 1803L148 1803L-81 1554L-140 1554L126 1841L172 1841Z"  horiz-adv-x="298" vert-adv-y="2048"  />

      
      <glyph glyph-name="unicf" unicode="&#xcf;" d="M124 0L124 1443L174 1443L174 0L124 0M10 1556Q-12 1556-29 1572Q-45 1588-45 1610Q-45 1632-29 1647Q-13 1663 10 1663Q32 1663 48 1647Q64 1632 64 1610Q64 1588 48 1572Q32 1556 10 1556M288 1556Q266 1556 250 1572Q234 1588 234 1610Q234 1632 250 1647Q266 1663 288 1663Q311 1663 327 1647Q343 1632 343 1610Q343 1588 327 1572Q310 1556 288 1556Z"  horiz-adv-x="298" vert-adv-y="2048"  />

      
      <glyph glyph-name="unid0" unicode="&#xd0;" d="M559 47Q867 47 1034 222Q1200 397 1200 722Q1200 1046 1034 1221Q867 1396 559 1396L175 1396L175 764L557 764L557 717L175 717L175 47L559 47M560 1443Q890 1443 1070 1255Q1250 1067 1250 722Q1250 376 1070 188Q890 0 560 0L124 0L124 717L14 717L14 764L124 764L124 1443L560 1443Z"  horiz-adv-x="1383" vert-adv-y="2048"  />

      
      <glyph glyph-name="unid1" unicode="&#xd1;" d="M793 1552Q724 1552 646 1636Q568 1720 519 1720Q422 1720 422 1562L377 1562Q377 1654 412 1707Q449 1763 519 1763Q588 1763 666 1680Q744 1596 793 1596Q890 1596 890 1754L935 1754Q935 1661 900 1608Q863 1552 793 1552M123 0L123 1443L178 1443L1136 95L1140 95L1140 1443L1190 1443L1190 0L1144 0L177 1359L173 1359L173 0L123 0Z"  horiz-adv-x="1315" vert-adv-y="2048"  />

      
      <glyph glyph-name="unid2" unicode="&#xd2;" d="M377 1841L443 1841L737 1554L680 1554L377 1841M698 1463Q989 1463 1162 1262Q1334 1062 1334 722Q1334 381 1162 180Q990-20 698-20Q406-20 234 180Q62 381 62 722Q62 1062 234 1262Q406 1463 698 1463M698 1416Q429 1416 271 1228Q112 1041 112 722Q112 404 271 215Q430 27 698 27Q965 27 1125 215Q1284 404 1284 722Q1284 1040 1125 1228Q966 1416 698 1416Z"  horiz-adv-x="1398" vert-adv-y="2048"  />

      
      <glyph glyph-name="unid3" unicode="&#xd3;" d="M660 1554L953 1841L1019 1841L716 1554L660 1554M698 1463Q989 1463 1162 1262Q1334 1062 1334 722Q1334 381 1162 180Q990-20 698-20Q406-20 234 180Q62 381 62 722Q62 1062 234 1262Q406 1463 698 1463M698 1416Q429 1416 271 1228Q112 1041 112 722Q112 404 271 215Q430 27 698 27Q965 27 1125 215Q1284 404 1284 722Q1284 1040 1125 1228Q966 1416 698 1416Z"  horiz-adv-x="1398" vert-adv-y="2048"  />

      
      <glyph glyph-name="unid4" unicode="&#xd4;" d="M721 1841L987 1554L928 1554L699 1803L697 1803L468 1554L409 1554L675 1841L721 1841M698 1463Q989 1463 1162 1262Q1334 1062 1334 722Q1334 381 1162 180Q990-20 698-20Q406-20 234 180Q62 381 62 722Q62 1062 234 1262Q406 1463 698 1463M698 1416Q429 1416 271 1228Q112 1041 112 722Q112 404 271 215Q430 27 698 27Q965 27 1125 215Q1284 404 1284 722Q1284 1040 1125 1228Q966 1416 698 1416Z"  horiz-adv-x="1398" vert-adv-y="2048"  />

      
      <glyph glyph-name="unid5" unicode="&#xd5;" d="M698 1463Q989 1463 1162 1262Q1334 1062 1334 722Q1334 381 1162 180Q990-20 698-20Q406-20 234 180Q62 381 62 722Q62 1062 234 1262Q406 1463 698 1463M698 1416Q429 1416 271 1228Q112 1041 112 722Q112 404 271 215Q430 27 698 27Q965 27 1125 215Q1284 404 1284 722Q1284 1040 1125 1228Q966 1416 698 1416M835 1552Q766 1552 688 1636Q610 1720 561 1720Q464 1720 464 1562L419 1562Q419 1654 454 1707Q491 1763 561 1763Q630 1763 708 1680Q786 1596 835 1596Q932 1596 932 1754L977 1754Q977 1661 942 1608Q905 1552 835 1552Z"  horiz-adv-x="1398" vert-adv-y="2048"  />

      
      <glyph glyph-name="unid6" unicode="&#xd6;" d="M559 1556Q537 1556 520 1572Q504 1588 504 1610Q504 1632 520 1647Q536 1663 559 1663Q581 1663 597 1647Q613 1632 613 1610Q613 1588 597 1572Q581 1556 559 1556M837 1556Q815 1556 799 1572Q783 1588 783 1610Q783 1632 799 1647Q815 1663 837 1663Q860 1663 876 1647Q892 1632 892 1610Q892 1588 876 1572Q859 1556 837 1556M698 1463Q989 1463 1162 1262Q1334 1062 1334 722Q1334 381 1162 180Q990-20 698-20Q406-20 234 180Q62 381 62 722Q62 1062 234 1262Q406 1463 698 1463M698 1416Q429 1416 271 1228Q112 1041 112 722Q112 404 271 215Q430 27 698 27Q965 27 1125 215Q1284 404 1284 722Q1284 1040 1125 1228Q966 1416 698 1416Z"  horiz-adv-x="1398" vert-adv-y="2048"  />

      
      <glyph glyph-name="unid7" unicode="&#xd7;" d="M263 220L229 252L555 579L228 906L263 940L588 612L915 938L948 906L623 579L948 254L914 220L589 546L263 220Z"  horiz-adv-x="1179" vert-adv-y="2048"  />

      
      <glyph glyph-name="unid8" unicode="&#xd8;" d="M317 167Q469 27 698 27Q965 27 1125 215Q1284 404 1284 722Q1284 1028 1135 1216L317 167M1106 1249Q950 1416 698 1416Q429 1416 271 1228Q112 1041 112 722Q112 389 286 199L1106 1249M1167 1256Q1334 1056 1334 722Q1334 381 1162 180Q990-20 698-20Q450-20 286 127L113-95L76-70L254 158Q62 359 62 722Q62 1062 234 1262Q406 1463 698 1463Q968 1463 1137 1289L1288 1483L1324 1458L1167 1256Z"  horiz-adv-x="1398" vert-adv-y="2048"  />

      
      <glyph glyph-name="unid9" unicode="&#xd9;" d="M331 1841L397 1841L691 1554L634 1554L331 1841M173 500Q173 282 303 154Q432 27 652 27Q873 27 1002 154Q1132 282 1132 500L1132 1443L1182 1443L1182 499Q1182 262 1039 121Q895-20 652-20Q409-20 266 121Q123 262 123 499L123 1443L173 1443L173 500Z"  horiz-adv-x="1305" vert-adv-y="2048"  />

      
      <glyph glyph-name="unida" unicode="&#xda;" d="M614 1554L907 1841L973 1841L670 1554L614 1554M173 500Q173 282 303 154Q432 27 652 27Q873 27 1002 154Q1132 282 1132 500L1132 1443L1182 1443L1182 499Q1182 262 1039 121Q895-20 652-20Q409-20 266 121Q123 262 123 499L123 1443L173 1443L173 500Z"  horiz-adv-x="1305" vert-adv-y="2048"  />

      
      <glyph glyph-name="unidb" unicode="&#xdb;" d="M675 1841L941 1554L882 1554L653 1803L651 1803L422 1554L363 1554L629 1841L675 1841M173 500Q173 282 303 154Q432 27 652 27Q873 27 1002 154Q1132 282 1132 500L1132 1443L1182 1443L1182 499Q1182 262 1039 121Q895-20 652-20Q409-20 266 121Q123 262 123 499L123 1443L173 1443L173 500Z"  horiz-adv-x="1305" vert-adv-y="2048"  />

      
      <glyph glyph-name="unidc" unicode="&#xdc;" d="M513 1556Q491 1556 474 1572Q458 1588 458 1610Q458 1632 474 1647Q490 1663 513 1663Q535 1663 551 1647Q567 1632 567 1610Q567 1588 551 1572Q535 1556 513 1556M791 1556Q769 1556 753 1572Q737 1588 737 1610Q737 1632 753 1647Q769 1663 791 1663Q814 1663 830 1647Q846 1632 846 1610Q846 1588 830 1572Q813 1556 791 1556M173 500Q173 282 303 154Q432 27 652 27Q873 27 1002 154Q1132 282 1132 500L1132 1443L1182 1443L1182 499Q1182 262 1039 121Q895-20 652-20Q409-20 266 121Q123 262 123 499L123 1443L173 1443L173 500Z"  horiz-adv-x="1305" vert-adv-y="2048"  />

      
      <glyph glyph-name="unidd" unicode="&#xdd;" d="M549 0L549 631L20 1443L80 1443L572 685L576 685L1067 1443L1126 1443L599 631L599 0L549 0M535 1554L828 1841L894 1841L591 1554L535 1554Z"  horiz-adv-x="1148" vert-adv-y="2048"  />

      
      <glyph glyph-name="unide" unicode="&#xde;" d="M213 1443L213 1152L626 1152Q831 1152 951 1046Q1073 938 1073 752Q1073 566 953 460Q833 354 626 354L213 354L213 0L163 0L163 1443L213 1443M213 401L624 401Q812 401 918 496Q1023 590 1023 752Q1023 914 918 1009Q811 1105 624 1105L213 1105L213 401Z"  horiz-adv-x="1202" vert-adv-y="2048"  />

      
      <glyph glyph-name="unidf" unicode="&#xdf;" d="M119 0L119 1064Q119 1241 216 1339Q312 1436 487 1436Q655 1436 759 1344Q862 1253 862 1104Q862 979 782 881Q705 787 593 762L593 759Q763 745 872 645Q983 542 983 389Q983 215 856 98Q729-20 540-20Q453-20 361-3L361 46Q438 26 539 26Q704 26 818 130Q934 235 934 389Q934 539 811 635Q687 730 492 730L383 730L383 777L491 777Q622 777 717 874Q812 971 812 1103Q812 1230 722 1310Q632 1390 489 1390Q338 1390 253 1303Q168 1216 168 1063L168 0L119 0Z"  horiz-adv-x="1047" vert-adv-y="2048"  />

      
      <glyph glyph-name="unie0" unicode="&#xe0;" d="M448 30Q617 30 738 138Q858 245 858 396L858 578L477 549Q139 523 139 286Q139 175 227 103Q314 30 448 30M445-16Q288-16 189 69Q89 153 89 286Q89 562 469 592L858 622L858 719Q858 872 772 959Q685 1046 533 1046Q382 1046 289 972Q196 898 175 763L128 763Q145 916 254 1004Q363 1092 533 1092Q706 1092 807 993Q907 893 907 722L907 0L858 0L858 245L857 245Q818 129 704 57Q589-16 445-16M527 1254L281 1557L344 1557L580 1254L527 1254Z"  horiz-adv-x="1021" vert-adv-y="2048"  />

      
      <glyph glyph-name="unie1" unicode="&#xe1;" d="M448 30Q617 30 738 138Q858 245 858 396L858 578L477 549Q139 523 139 286Q139 175 227 103Q314 30 448 30M445-16Q288-16 189 69Q89 153 89 286Q89 562 469 592L858 622L858 719Q858 872 772 959Q685 1046 533 1046Q382 1046 289 972Q196 898 175 763L128 763Q145 916 254 1004Q363 1092 533 1092Q706 1092 807 993Q907 893 907 722L907 0L858 0L858 245L857 245Q818 129 704 57Q589-16 445-16M484 1254L720 1557L783 1557L537 1254L484 1254Z"  horiz-adv-x="1021" vert-adv-y="2048"  />

      
      <glyph glyph-name="unie2" unicode="&#xe2;" d="M448 30Q617 30 738 138Q858 245 858 396L858 578L477 549Q139 523 139 286Q139 175 227 103Q314 30 448 30M445-16Q288-16 189 69Q89 153 89 286Q89 562 469 592L858 622L858 719Q858 872 772 959Q685 1046 533 1046Q382 1046 289 972Q196 898 175 763L128 763Q145 916 254 1004Q363 1092 533 1092Q706 1092 807 993Q907 893 907 722L907 0L858 0L858 245L857 245Q818 129 704 57Q589-16 445-16M819 1254L763 1254L533 1518L531 1518L301 1254L245 1254L510 1557L554 1557L819 1254Z"  horiz-adv-x="1021" vert-adv-y="2048"  />

      
      <glyph glyph-name="unie3" unicode="&#xe3;" d="M448 30Q617 30 738 138Q858 245 858 396L858 578L477 549Q139 523 139 286Q139 175 227 103Q314 30 448 30M445-16Q288-16 189 69Q89 153 89 286Q89 562 469 592L858 622L858 719Q858 872 772 959Q685 1046 533 1046Q382 1046 289 972Q196 898 175 763L128 763Q145 916 254 1004Q363 1092 533 1092Q706 1092 807 993Q907 893 907 722L907 0L858 0L858 245L857 245Q818 129 704 57Q589-16 445-16M669 1254Q600 1254 522 1338Q444 1422 395 1422Q298 1422 298 1264L253 1264Q253 1356 288 1409Q325 1465 395 1465Q464 1465 542 1382Q620 1298 669 1298Q766 1298 766 1456L811 1456Q811 1363 776 1310Q739 1254 669 1254Z"  horiz-adv-x="1021" vert-adv-y="2048"  />

      
      <glyph glyph-name="unie4" unicode="&#xe4;" d="M448 30Q617 30 738 138Q858 245 858 396L858 578L477 549Q139 523 139 286Q139 175 227 103Q314 30 448 30M445-16Q288-16 189 69Q89 153 89 286Q89 562 469 592L858 622L858 719Q858 872 772 959Q685 1046 533 1046Q382 1046 289 972Q196 898 175 763L128 763Q145 916 254 1004Q363 1092 533 1092Q706 1092 807 993Q907 893 907 722L907 0L858 0L858 245L857 245Q818 129 704 57Q589-16 445-16M393 1254Q371 1254 354 1270Q338 1286 338 1308Q338 1330 354 1345Q370 1361 393 1361Q415 1361 431 1345Q447 1330 447 1308Q447 1286 431 1270Q415 1254 393 1254M671 1254Q649 1254 633 1270Q617 1286 617 1308Q617 1330 633 1345Q649 1361 671 1361Q694 1361 710 1345Q726 1330 726 1308Q726 1286 710 1270Q693 1254 671 1254Z"  horiz-adv-x="1021" vert-adv-y="2048"  />

      
      <glyph glyph-name="unie5" unicode="&#xe5;" d="M448 30Q617 30 738 138Q858 245 858 396L858 578L477 549Q139 523 139 286Q139 175 227 103Q314 30 448 30M445-16Q288-16 189 69Q89 153 89 286Q89 562 469 592L858 622L858 719Q858 872 772 959Q685 1046 533 1046Q382 1046 289 972Q196 898 175 763L128 763Q145 916 254 1004Q363 1092 533 1092Q706 1092 807 993Q907 893 907 722L907 0L858 0L858 245L857 245Q818 129 704 57Q589-16 445-16M532 1249Q464 1249 415 1298Q367 1347 367 1415Q367 1483 415 1531Q464 1580 532 1580Q599 1580 648 1531Q696 1483 696 1415Q696 1347 648 1298Q599 1249 532 1249M532 1288Q585 1288 622 1325Q658 1362 658 1415Q658 1468 622 1505Q585 1542 532 1542Q478 1542 442 1505Q405 1468 405 1415Q405 1362 442 1325Q478 1288 532 1288Z"  horiz-adv-x="1021" vert-adv-y="2048"  />

      
      <glyph glyph-name="unie6" unicode="&#xe6;" d="M1334-16Q1173-16 1060 67Q945 152 896 311L892 311Q854 161 733 72Q613-16 450-16Q289-16 189 67Q89 150 89 282Q89 545 464 569L858 596L858 737Q858 883 770 965Q682 1046 528 1046Q380 1046 285 971Q190 896 171 763L123 763Q139 913 250 1003Q360 1092 528 1092Q687 1092 788 1011Q891 927 898 784L903 784Q947 921 1055 1004Q1171 1092 1331 1092Q1537 1092 1660 953Q1782 815 1782 583L1782 543L907 543L907 536Q907 306 1024 168Q1141 30 1335 30Q1488 30 1591 107Q1688 180 1713 299L1764 299Q1736 159 1624 74Q1506-16 1334-16M1330 1046Q1147 1046 1032 919Q917 794 908 588L1732 588Q1732 794 1623 920Q1512 1046 1330 1046M451 30Q620 30 739 138Q858 246 858 401L858 551L474 525Q139 504 139 282Q139 172 226 101Q313 30 451 30Z"  horiz-adv-x="1848" vert-adv-y="2048"  />

      
      <glyph glyph-name="unie7" unicode="&#xe7;" d="M907 760Q881 886 780 965Q676 1046 533 1046Q340 1046 227 908Q114 771 114 538Q114 305 226 168Q339 31 533 31Q678 31 780 108Q880 183 905 307L955 307Q930 166 821 78Q710-11 549-16L497-140Q591-140 647-182Q703-224 703-294Q703-368 643-415Q583-461 487-462Q411-462 365-445L365-402Q410-419 486-419Q558-419 608-383Q657-347 657-295Q657-182 493-182L443-182L443-149L503-15Q300-4 182 144Q64 292 64 538Q64 792 191 942Q318 1092 533 1092Q696 1092 814 998Q930 905 957 760L907 760Z"  horiz-adv-x="1019" vert-adv-y="2048"  />

      
      <glyph glyph-name="unie8" unicode="&#xe8;" d="M527 1254L281 1557L344 1557L580 1254L527 1254M532 1046Q352 1046 238 918Q124 791 115 581L940 581Q940 788 828 917Q715 1046 532 1046M976 299Q948 159 835 74Q716-16 540-16Q321-16 194 130Q64 278 64 538Q64 788 192 940Q320 1092 532 1092Q737 1092 864 949Q990 806 990 574L990 536L114 536L114 534Q114 297 231 162Q346 30 541 30Q697 30 802 108Q900 180 925 299L976 299Z"  horiz-adv-x="1056" vert-adv-y="2048"  />

      
      <glyph glyph-name="unie9" unicode="&#xe9;" d="M484 1254L720 1557L783 1557L537 1254L484 1254M532 1046Q352 1046 238 918Q124 791 115 581L940 581Q940 788 828 917Q715 1046 532 1046M976 299Q948 159 835 74Q716-16 540-16Q321-16 194 130Q64 278 64 538Q64 788 192 940Q320 1092 532 1092Q737 1092 864 949Q990 806 990 574L990 536L114 536L114 534Q114 297 231 162Q346 30 541 30Q697 30 802 108Q900 180 925 299L976 299Z"  horiz-adv-x="1056" vert-adv-y="2048"  />

      
      <glyph glyph-name="uniea" unicode="&#xea;" d="M819 1254L763 1254L533 1518L531 1518L301 1254L245 1254L510 1557L554 1557L819 1254M532 1046Q352 1046 238 918Q124 791 115 581L940 581Q940 788 828 917Q715 1046 532 1046M976 299Q948 159 835 74Q716-16 540-16Q321-16 194 130Q64 278 64 538Q64 788 192 940Q320 1092 532 1092Q737 1092 864 949Q990 806 990 574L990 536L114 536L114 534Q114 297 231 162Q346 30 541 30Q697 30 802 108Q900 180 925 299L976 299Z"  horiz-adv-x="1056" vert-adv-y="2048"  />

      
      <glyph glyph-name="unieb" unicode="&#xeb;" d="M532 1046Q352 1046 238 918Q124 791 115 581L940 581Q940 788 828 917Q715 1046 532 1046M976 299Q948 159 835 74Q716-16 540-16Q321-16 194 130Q64 278 64 538Q64 788 192 940Q320 1092 532 1092Q737 1092 864 949Q990 806 990 574L990 536L114 536L114 534Q114 297 231 162Q346 30 541 30Q697 30 802 108Q900 180 925 299L976 299M393 1254Q371 1254 354 1270Q338 1286 338 1308Q338 1330 354 1345Q370 1361 393 1361Q415 1361 431 1345Q447 1330 447 1308Q447 1286 431 1270Q415 1254 393 1254M671 1254Q649 1254 633 1270Q617 1286 617 1308Q617 1330 633 1345Q649 1361 671 1361Q694 1361 710 1345Q726 1330 726 1308Q726 1286 710 1270Q693 1254 671 1254Z"  horiz-adv-x="1056" vert-adv-y="2048"  />

      
      <glyph glyph-name="uniec" unicode="&#xec;" d="M150 1254L-96 1557L-33 1557L203 1254L150 1254M130 1076L179 1076L179 0L130 0L130 1076Z"  horiz-adv-x="309" vert-adv-y="2048"  />

      
      <glyph glyph-name="unied" unicode="&#xed;" d="M106 1254L342 1557L405 1557L159 1254L106 1254M129 1076L178 1076L178 0L129 0L129 1076Z"  horiz-adv-x="309" vert-adv-y="2048"  />

      
      <glyph glyph-name="uniee" unicode="&#xee;" d="M442 1254L386 1254L156 1518L154 1518L-76 1254L-132 1254L133 1557L177 1557L442 1254M130 1076L179 1076L179 0L130 0L130 1076Z"  horiz-adv-x="309" vert-adv-y="2048"  />

      
      <glyph glyph-name="unief" unicode="&#xef;" d="M130 1076L179 1076L179 0L130 0L130 1076M16 1254Q-6 1254-23 1270Q-39 1286-39 1308Q-39 1330-23 1345Q-7 1361 16 1361Q38 1361 54 1345Q70 1330 70 1308Q70 1286 54 1270Q38 1254 16 1254M294 1254Q272 1254 256 1270Q240 1286 240 1308Q240 1330 256 1345Q272 1361 294 1361Q317 1361 333 1345Q349 1330 349 1308Q349 1286 333 1270Q316 1254 294 1254Z"  horiz-adv-x="309" vert-adv-y="2048"  />

      
      <glyph glyph-name="unif0" unicode="&#xf0;" d="M538-16Q329-16 197 137Q65 291 65 536Q65 760 197 906Q328 1052 530 1052Q807 1052 926 809L930 809Q871 1106 694 1286L402 1160L386 1200L663 1318Q581 1393 420 1478L499 1478Q635 1405 707 1336L979 1451L995 1412L739 1304Q996 1029 996 555Q996 294 872 139Q747-16 538-16M531 1006Q350 1006 233 874Q115 741 115 537Q115 313 233 171Q351 30 538 30Q719 30 833 168Q947 306 947 526Q947 746 834 876Q721 1006 531 1006Z"  horiz-adv-x="1114" vert-adv-y="2048"  />

      
      <glyph glyph-name="unif1" unicode="&#xf1;" d="M673 1254Q604 1254 526 1338Q448 1422 399 1422Q302 1422 302 1264L257 1264Q257 1356 292 1409Q329 1465 399 1465Q468 1465 546 1382Q624 1298 673 1298Q770 1298 770 1456L815 1456Q815 1363 780 1310Q743 1254 673 1254M119 1076L165 1076L165 822L167 822Q202 943 305 1017Q410 1092 549 1092Q728 1092 838 985Q949 876 949 696L949 0L900 0L900 694Q900 855 800 952Q702 1046 542 1046Q377 1046 273 934Q168 822 168 646L168 0L119 0L119 1076Z"  horiz-adv-x="1063" vert-adv-y="2048"  />

      
      <glyph glyph-name="unif2" unicode="&#xf2;" d="M533 1253L287 1556L350 1556L586 1253L533 1253M538-16Q324-16 195 134Q64 285 64 538Q64 791 195 943Q325 1092 538 1092Q751 1092 881 943Q1012 791 1012 538Q1012 285 881 134Q751-16 538-16M538 31Q730 31 846 168Q963 306 963 538Q963 771 846 909Q730 1046 538 1046Q346 1046 231 909Q114 771 114 538Q114 305 231 168Q346 31 538 31Z"  horiz-adv-x="1078" vert-adv-y="2048"  />

      
      <glyph glyph-name="unif3" unicode="&#xf3;" d="M490 1253L726 1556L789 1556L543 1253L490 1253M538-16Q324-16 195 134Q64 285 64 538Q64 791 195 943Q325 1092 538 1092Q751 1092 881 943Q1012 791 1012 538Q1012 285 881 134Q751-16 538-16M538 31Q730 31 846 168Q963 306 963 538Q963 771 846 909Q730 1046 538 1046Q346 1046 231 909Q114 771 114 538Q114 305 231 168Q346 31 538 31Z"  horiz-adv-x="1078" vert-adv-y="2048"  />

      
      <glyph glyph-name="unif4" unicode="&#xf4;" d="M825 1253L769 1253L539 1517L537 1517L307 1253L251 1253L516 1556L560 1556L825 1253M538-16Q324-16 195 134Q64 285 64 538Q64 791 195 943Q325 1092 538 1092Q751 1092 881 943Q1012 791 1012 538Q1012 285 881 134Q751-16 538-16M538 31Q730 31 846 168Q963 306 963 538Q963 771 846 909Q730 1046 538 1046Q346 1046 231 909Q114 771 114 538Q114 305 231 168Q346 31 538 31Z"  horiz-adv-x="1078" vert-adv-y="2048"  />

      
      <glyph glyph-name="unif5" unicode="&#xf5;" d="M674 1253Q605 1253 527 1337Q449 1421 400 1421Q303 1421 303 1263L258 1263Q258 1355 293 1408Q330 1464 400 1464Q469 1464 547 1381Q625 1297 674 1297Q771 1297 771 1455L816 1455Q816 1362 781 1309Q744 1253 674 1253M538-16Q324-16 195 134Q64 285 64 538Q64 791 195 943Q325 1092 538 1092Q751 1092 881 943Q1012 791 1012 538Q1012 285 881 134Q751-16 538-16M538 31Q730 31 846 168Q963 306 963 538Q963 771 846 909Q730 1046 538 1046Q346 1046 231 909Q114 771 114 538Q114 305 231 168Q346 31 538 31Z"  horiz-adv-x="1078" vert-adv-y="2048"  />

      
      <glyph glyph-name="unif6" unicode="&#xf6;" d="M399 1253Q377 1253 360 1269Q344 1285 344 1307Q344 1329 360 1344Q376 1360 399 1360Q421 1360 437 1344Q453 1329 453 1307Q453 1285 437 1269Q421 1253 399 1253M677 1253Q655 1253 639 1269Q623 1285 623 1307Q623 1329 639 1344Q655 1360 677 1360Q700 1360 716 1344Q732 1329 732 1307Q732 1285 716 1269Q699 1253 677 1253M538-16Q324-16 195 134Q64 285 64 538Q64 791 195 943Q325 1092 538 1092Q751 1092 881 943Q1012 791 1012 538Q1012 285 881 134Q751-16 538-16M538 31Q730 31 846 168Q963 306 963 538Q963 771 846 909Q730 1046 538 1046Q346 1046 231 909Q114 771 114 538Q114 305 231 168Q346 31 538 31Z"  horiz-adv-x="1078" vert-adv-y="2048"  />

      
      <glyph glyph-name="unif7" unicode="&#xf7;" d="M589 841Q561 841 540 862Q519 883 519 911Q519 941 540 961Q560 981 589 981Q618 981 639 961Q659 941 659 911Q659 882 639 862Q618 841 589 841M589 152Q561 152 540 173Q519 194 519 222Q519 252 540 272Q560 292 589 292Q618 292 639 272Q659 252 659 222Q659 193 639 173Q618 152 589 152M103 555L103 600L1073 600L1073 555L103 555Z"  horiz-adv-x="1179" vert-adv-y="2048"  />

      
      <glyph glyph-name="unif8" unicode="&#xf8;" d="M283 117Q387 31 538 31Q730 31 846 168Q963 306 963 538Q963 768 849 905L283 117M818 938Q707 1046 538 1046Q346 1046 231 909Q114 771 114 538Q114 287 249 147L818 938M878 945Q1012 794 1012 538Q1012 285 881 134Q751-16 538-16Q373-16 254 77L129-97L92-71L220 107Q64 258 64 538Q64 791 195 943Q325 1092 538 1092Q723 1092 846 978L961 1137L998 1112L878 945Z"  horiz-adv-x="1078" vert-adv-y="2048"  />

      
      <glyph glyph-name="unif9" unicode="&#xf9;" d="M522 1253L276 1556L339 1556L575 1253L522 1253M943 0L897 0L897 251L895 251Q862 137 753 61Q641-16 505-16Q330-16 222 90Q112 197 112 375L112 1076L161 1076L161 382Q161 218 259 123Q354 31 511 31Q674 31 782 138Q893 249 893 427L893 1076L943 1076L943 0Z"  horiz-adv-x="1063" vert-adv-y="2048"  />

      
      <glyph glyph-name="unifa" unicode="&#xfa;" d="M479 1253L715 1556L778 1556L532 1253L479 1253M943 0L897 0L897 251L895 251Q862 137 753 61Q641-16 505-16Q330-16 222 90Q112 197 112 375L112 1076L161 1076L161 382Q161 218 259 123Q354 31 511 31Q674 31 782 138Q893 249 893 427L893 1076L943 1076L943 0Z"  horiz-adv-x="1063" vert-adv-y="2048"  />

      
      <glyph glyph-name="unifb" unicode="&#xfb;" d="M814 1253L758 1253L528 1517L526 1517L296 1253L240 1253L505 1556L549 1556L814 1253M943 0L897 0L897 251L895 251Q862 137 753 61Q641-16 505-16Q330-16 222 90Q112 197 112 375L112 1076L161 1076L161 382Q161 218 259 123Q354 31 511 31Q674 31 782 138Q893 249 893 427L893 1076L943 1076L943 0Z"  horiz-adv-x="1063" vert-adv-y="2048"  />

      
      <glyph glyph-name="unifc" unicode="&#xfc;" d="M943 0L897 0L897 251L895 251Q862 137 753 61Q641-16 505-16Q330-16 222 90Q112 197 112 375L112 1076L161 1076L161 382Q161 218 259 123Q354 31 511 31Q674 31 782 138Q893 249 893 427L893 1076L943 1076L943 0M388 1253Q366 1253 349 1269Q333 1285 333 1307Q333 1329 349 1344Q365 1360 388 1360Q410 1360 426 1344Q442 1329 442 1307Q442 1285 426 1269Q410 1253 388 1253M666 1253Q644 1253 628 1269Q612 1285 612 1307Q612 1329 628 1344Q644 1360 666 1360Q689 1360 705 1344Q721 1329 721 1307Q721 1285 705 1269Q688 1253 666 1253Z"  horiz-adv-x="1063" vert-adv-y="2048"  />

      
      <glyph glyph-name="unifd" unicode="&#xfd;" d="M178-343Q152-343 131-334L131-287Q154-296 184-296Q254-296 300-249Q345-204 389-91L417-19L2 1076L56 1076L443 47L445 47L833 1076L887 1076L470-25Q396-220 340-281Q284-343 178-343M396 1253L632 1556L695 1556L449 1253L396 1253Z"  horiz-adv-x="888" vert-adv-y="2048"  />

      
      <glyph glyph-name="unife" unicode="&#xfe;" d="M596 1092Q798 1092 924 938Q1050 785 1050 538Q1050 291 924 138Q798-16 596-16Q452-16 340 67Q229 149 183 290L178 290L178-393L129-393L129 1476L176 1476L176 775L181 775Q225 920 337 1006Q449 1092 596 1092M593 30Q775 30 887 170Q1000 311 1000 537Q1000 763 887 904Q774 1046 593 1046Q410 1046 294 904Q178 762 178 538Q178 315 294 172Q411 30 593 30Z"  horiz-adv-x="1116" vert-adv-y="2048"  />

      
      <glyph glyph-name="uniff" unicode="&#xff;" d="M178-343Q152-343 131-334L131-287Q154-296 184-296Q254-296 300-249Q345-204 389-91L417-19L2 1076L56 1076L443 47L445 47L833 1076L887 1076L470-25Q396-220 340-281Q284-343 178-343M305 1253Q283 1253 266 1269Q250 1285 250 1307Q250 1329 266 1344Q282 1360 305 1360Q327 1360 343 1344Q359 1329 359 1307Q359 1285 343 1269Q327 1253 305 1253M583 1253Q561 1253 545 1269Q529 1285 529 1307Q529 1329 545 1344Q561 1360 583 1360Q606 1360 622 1344Q638 1329 638 1307Q638 1285 622 1269Q605 1253 583 1253Z"  horiz-adv-x="888" vert-adv-y="2048"  />

      
      <glyph glyph-name="uni0100" unicode="&#x0100;" d="M935 501L264 501L74 0L19 0L574 1443L625 1443L1180 0L1124 0L935 501M282 547L917 547L602 1374L597 1374L282 547M881 1616L317 1616L317 1659L881 1659L881 1616Z"  horiz-adv-x="1201" vert-adv-y="2048"  />

      
      <glyph glyph-name="uni0101" unicode="&#x0101;" d="M448 30Q617 30 738 138Q858 245 858 396L858 578L477 549Q139 523 139 286Q139 175 227 103Q314 30 448 30M445-16Q288-16 189 69Q89 153 89 286Q89 562 469 592L858 622L858 719Q858 872 772 959Q685 1046 533 1046Q382 1046 289 972Q196 898 175 763L128 763Q145 916 254 1004Q363 1092 533 1092Q706 1092 807 993Q907 893 907 722L907 0L858 0L858 245L857 245Q818 129 704 57Q589-16 445-16M817 1305L233 1305L233 1348L817 1348L817 1305Z"  horiz-adv-x="1021" vert-adv-y="2048"  />

      
      <glyph glyph-name="uni0102" unicode="&#x0102;" d="M935 501L264 501L74 0L19 0L574 1443L625 1443L1180 0L1124 0L935 501M282 547L917 547L602 1374L597 1374L282 547M387 1771Q387 1696 445 1646Q504 1596 599 1596Q694 1596 753 1646Q811 1696 811 1771L856 1771Q856 1672 783 1612Q713 1554 599 1554Q485 1554 415 1612Q342 1672 342 1771L387 1771Z"  horiz-adv-x="1201" vert-adv-y="2048"  />

      
      <glyph glyph-name="uni0103" unicode="&#x0103;" d="M448 30Q617 30 738 138Q858 245 858 396L858 578L477 549Q139 523 139 286Q139 175 227 103Q314 30 448 30M445-16Q288-16 189 69Q89 153 89 286Q89 562 469 592L858 622L858 719Q858 872 772 959Q685 1046 533 1046Q382 1046 289 972Q196 898 175 763L128 763Q145 916 254 1004Q363 1092 533 1092Q706 1092 807 993Q907 893 907 722L907 0L858 0L858 245L857 245Q818 129 704 57Q589-16 445-16M319 1490Q319 1402 377 1349Q435 1296 532 1296Q629 1296 687 1349Q745 1402 745 1490L790 1490Q790 1378 717 1314Q646 1253 532 1253Q418 1253 348 1314Q274 1378 274 1490L319 1490Z"  horiz-adv-x="1021" vert-adv-y="2048"  />

      
      <glyph glyph-name="uni0104" unicode="&#x0104;" d="M1155-406Q1072-406 1019-356Q967-305 967-225Q967-91 1121 12L935 500L264 500L74 0L19 0L574 1443L625 1443L1179-2Q1016-93 1016-221Q1016-283 1058-321Q1099-360 1165-360L1180-360L1180-405Q1178-406 1155-406M282 547L917 547L602 1373L597 1373L282 547Z"  horiz-adv-x="1201" vert-adv-y="2048"  />

      
      <glyph glyph-name="uni0105" unicode="&#x0105;" d="M882-406Q799-406 746-356Q694-305 694-225Q694-91 858 15L858 245L857 245Q818 129 704 57Q589-16 445-16Q288-16 189 69Q89 153 89 286Q89 562 469 592L858 622L858 719Q858 872 772 959Q685 1046 533 1046Q382 1046 289 972Q196 898 175 763L128 763Q145 916 254 1004Q363 1092 533 1092Q706 1092 807 993Q907 893 907 722L907-3Q743-105 743-221Q743-283 785-321Q826-360 892-360L907-360L907-405Q905-406 882-406M448 30Q617 30 738 138Q858 245 858 396L858 578L477 549Q139 523 139 286Q139 175 227 103Q314 30 448 30Z"  horiz-adv-x="1021" vert-adv-y="2048"  />

      
      <glyph glyph-name="uni0106" unicode="&#x0106;" d="M654 1554L947 1841L1013 1841L710 1554L654 1554M691-20Q404-20 233 184Q62 388 62 732Q62 1069 232 1266Q401 1463 691 1463Q906 1463 1068 1323Q1230 1182 1249 979L1200 979Q1180 1163 1034 1289Q886 1416 691 1416Q425 1416 268 1232Q112 1047 112 732Q112 408 270 217Q427 27 691 27Q894 27 1037 141Q1182 257 1200 440L1249 440Q1232 237 1074 108Q918-20 691-20Z"  horiz-adv-x="1303" vert-adv-y="2048"  />

      
      <glyph glyph-name="uni0107" unicode="&#x0107;" d="M907 760Q881 886 780 965Q676 1046 533 1046Q340 1046 227 908Q114 771 114 538Q114 305 226 168Q339 31 533 31Q678 31 780 108Q880 183 905 307L955 307Q929 162 815 74Q699-16 533-16Q318-16 191 134Q64 283 64 538Q64 792 191 942Q318 1092 533 1092Q696 1092 814 998Q930 905 957 760L907 760M485 1254L721 1557L784 1557L538 1254L485 1254Z"  horiz-adv-x="1019" vert-adv-y="2048"  />

      
      <glyph glyph-name="uni0108" unicode="&#x0108;" d="M691-20Q404-20 233 184Q62 388 62 732Q62 1069 232 1266Q401 1463 691 1463Q906 1463 1068 1323Q1230 1182 1249 979L1200 979Q1180 1163 1034 1289Q886 1416 691 1416Q425 1416 268 1232Q112 1047 112 732Q112 408 270 217Q427 27 691 27Q894 27 1037 141Q1182 257 1200 440L1249 440Q1232 237 1074 108Q918-20 691-20M715 1841L981 1554L922 1554L693 1803L691 1803L462 1554L403 1554L669 1841L715 1841Z"  horiz-adv-x="1303" vert-adv-y="2048"  />

      
      <glyph glyph-name="uni0109" unicode="&#x0109;" d="M820 1254L764 1254L534 1518L532 1518L302 1254L246 1254L511 1557L555 1557L820 1254M907 760Q881 886 780 965Q676 1046 533 1046Q340 1046 227 908Q114 771 114 538Q114 305 226 168Q339 31 533 31Q678 31 780 108Q880 183 905 307L955 307Q929 162 815 74Q699-16 533-16Q318-16 191 134Q64 283 64 538Q64 792 191 942Q318 1092 533 1092Q696 1092 814 998Q930 905 957 760L907 760Z"  horiz-adv-x="1019" vert-adv-y="2048"  />

      
      <glyph glyph-name="uni010A" unicode="&#x010A;" d="M692 1556Q666 1556 647 1575Q628 1594 628 1620Q628 1645 647 1664Q666 1683 692 1683Q718 1683 737 1664Q756 1645 756 1620Q756 1594 737 1575Q718 1556 692 1556M691-20Q404-20 233 184Q62 388 62 732Q62 1069 232 1266Q401 1463 691 1463Q906 1463 1068 1323Q1230 1182 1249 979L1200 979Q1180 1163 1034 1289Q886 1416 691 1416Q425 1416 268 1232Q112 1047 112 732Q112 408 270 217Q427 27 691 27Q894 27 1037 141Q1182 257 1200 440L1249 440Q1232 237 1074 108Q918-20 691-20Z"  horiz-adv-x="1303" vert-adv-y="2048"  />

      
      <glyph glyph-name="uni010B" unicode="&#x010B;" d="M907 760Q881 886 780 965Q676 1046 533 1046Q340 1046 227 908Q114 771 114 538Q114 305 226 168Q339 31 533 31Q678 31 780 108Q880 183 905 307L955 307Q929 162 815 74Q699-16 533-16Q318-16 191 134Q64 283 64 538Q64 792 191 942Q318 1092 533 1092Q696 1092 814 998Q930 905 957 760L907 760M533 1254Q508 1254 488 1273Q469 1293 469 1318Q469 1344 488 1363Q507 1382 533 1382Q559 1382 579 1363Q598 1344 598 1318Q598 1292 579 1273Q559 1254 533 1254Z"  horiz-adv-x="1019" vert-adv-y="2048"  />

      
      <glyph glyph-name="uni010C" unicode="&#x010C;" d="M691-20Q404-20 233 184Q62 388 62 732Q62 1069 232 1266Q401 1463 691 1463Q906 1463 1068 1323Q1230 1182 1249 979L1200 979Q1180 1163 1034 1289Q886 1416 691 1416Q425 1416 268 1232Q112 1047 112 732Q112 408 270 217Q427 27 691 27Q894 27 1037 141Q1182 257 1200 440L1249 440Q1232 237 1074 108Q918-20 691-20M403 1841L462 1841L691 1591L693 1591L922 1841L981 1841L715 1554L669 1554L403 1841Z"  horiz-adv-x="1303" vert-adv-y="2048"  />

      
      <glyph glyph-name="uni010D" unicode="&#x010D;" d="M511 1254L246 1557L302 1557L532 1293L534 1293L764 1557L820 1557L555 1254L511 1254M907 760Q881 886 780 965Q676 1046 533 1046Q340 1046 227 908Q114 771 114 538Q114 305 226 168Q339 31 533 31Q678 31 780 108Q880 183 905 307L955 307Q929 162 815 74Q699-16 533-16Q318-16 191 134Q64 283 64 538Q64 792 191 942Q318 1092 533 1092Q696 1092 814 998Q930 905 957 760L907 760Z"  horiz-adv-x="1019" vert-adv-y="2048"  />

      
      <glyph glyph-name="uni010E" unicode="&#x010E;" d="M263 1841L322 1841L551 1591L553 1591L782 1841L841 1841L575 1554L529 1554L263 1841M559 1443Q889 1443 1069 1255Q1249 1067 1249 722Q1249 376 1069 188Q889 0 559 0L123 0L123 1443L559 1443M174 47L558 47Q866 47 1033 222Q1199 397 1199 722Q1199 1046 1033 1221Q866 1396 558 1396L174 1396L174 47Z"  horiz-adv-x="1313" vert-adv-y="2048"  />

      
      <glyph glyph-name="uni010F" unicode="&#x010F;" d="M1238 1476L1228 1121L1191 1121L1191 1476L1238 1476M523-16Q321-16 193 138Q64 293 64 538Q64 784 193 938Q321 1092 523 1092Q679 1092 797 995Q911 902 943 761L945 761L945 1506L995 1506L995 0L949 0L949 322L947 322Q912 176 798 82Q679-16 523-16M525 1046Q344 1046 229 905Q114 764 114 539Q114 313 229 172Q344 31 525 31Q709 31 827 172Q945 314 945 538Q945 762 827 904Q709 1046 525 1046Z"  horiz-adv-x="1209" vert-adv-y="2048"  />

      
      <glyph glyph-name="uni0110" unicode="&#x0110;" d="M601 47Q909 47 1076 222Q1242 397 1242 722Q1242 1046 1076 1221Q909 1396 601 1396L217 1396L217 764L599 764L599 717L217 717L217 47L601 47M602 1443Q932 1443 1112 1255Q1292 1067 1292 722Q1292 376 1112 188Q932 0 602 0L166 0L166 717L56 717L56 764L166 764L166 1443L602 1443Z"  horiz-adv-x="1367" vert-adv-y="2048"  />

      
      <glyph glyph-name="uni0111" unicode="&#x0111;" d="M531 30Q715 30 831 172Q947 314 947 538Q947 761 831 904Q714 1046 531 1046Q348 1046 232 904Q115 762 115 538Q115 315 232 172Q348 30 531 30M1103 1282L996 1282L996 0L949 0L949 300L944 300Q900 155 788 70Q676-16 529-16Q324-16 195 139Q65 293 65 537Q65 781 195 937Q325 1092 529 1092Q673 1092 785 1009Q896 926 942 785L947 785L947 1282L649 1282L649 1326L947 1326L947 1510L996 1510L996 1326L1103 1326L1103 1282Z"  horiz-adv-x="1128" vert-adv-y="2048"  />

      
      <glyph glyph-name="uni0112" unicode="&#x0112;" d="M949 0L123 0L123 1443L949 1443L949 1396L173 1396L173 764L913 764L913 718L173 718L173 47L949 47L949 0M818 1616L254 1616L254 1659L818 1659L818 1616Z"  horiz-adv-x="1050" vert-adv-y="2048"  />

      
      <glyph glyph-name="uni0113" unicode="&#x0113;" d="M532 1046Q352 1046 238 918Q124 791 115 581L940 581Q940 788 828 917Q715 1046 532 1046M976 299Q948 159 835 74Q716-16 540-16Q321-16 194 130Q64 278 64 538Q64 788 192 940Q320 1092 532 1092Q737 1092 864 949Q990 806 990 574L990 536L114 536L114 534Q114 297 231 162Q346 30 541 30Q697 30 802 108Q900 180 925 299L976 299M817 1305L233 1305L233 1348L817 1348L817 1305Z"  horiz-adv-x="1056" vert-adv-y="2048"  />

      
      <glyph glyph-name="uni0114" unicode="&#x0114;" d="M949 0L123 0L123 1443L949 1443L949 1396L173 1396L173 764L913 764L913 718L173 718L173 47L949 47L949 0M324 1771Q324 1696 382 1646Q441 1596 536 1596Q631 1596 690 1646Q748 1696 748 1771L793 1771Q793 1672 720 1612Q650 1554 536 1554Q422 1554 352 1612Q279 1672 279 1771L324 1771Z"  horiz-adv-x="1050" vert-adv-y="2048"  />

      
      <glyph glyph-name="uni0115" unicode="&#x0115;" d="M532 1046Q352 1046 238 918Q124 791 115 581L940 581Q940 788 828 917Q715 1046 532 1046M976 299Q948 159 835 74Q716-16 540-16Q321-16 194 130Q64 278 64 538Q64 788 192 940Q320 1092 532 1092Q737 1092 864 949Q990 806 990 574L990 536L114 536L114 534Q114 297 231 162Q346 30 541 30Q697 30 802 108Q900 180 925 299L976 299M319 1490Q319 1402 377 1349Q435 1296 532 1296Q629 1296 687 1349Q745 1402 745 1490L790 1490Q790 1378 717 1314Q646 1253 532 1253Q418 1253 348 1314Q274 1378 274 1490L319 1490Z"  horiz-adv-x="1056" vert-adv-y="2048"  />

      
      <glyph glyph-name="uni0116" unicode="&#x0116;" d="M536 1556Q510 1556 491 1575Q472 1594 472 1620Q472 1645 491 1664Q510 1683 536 1683Q562 1683 581 1664Q600 1645 600 1620Q600 1594 581 1575Q562 1556 536 1556M949 0L123 0L123 1443L949 1443L949 1396L173 1396L173 764L913 764L913 718L173 718L173 47L949 47L949 0Z"  horiz-adv-x="1050" vert-adv-y="2048"  />

      
      <glyph glyph-name="uni0117" unicode="&#x0117;" d="M532 1254Q507 1254 487 1273Q468 1293 468 1318Q468 1344 487 1363Q506 1382 532 1382Q558 1382 578 1363Q597 1344 597 1318Q597 1292 578 1273Q558 1254 532 1254M532 1046Q352 1046 238 918Q124 791 115 581L940 581Q940 788 828 917Q715 1046 532 1046M976 299Q948 159 835 74Q716-16 540-16Q321-16 194 130Q64 278 64 538Q64 788 192 940Q320 1092 532 1092Q737 1092 864 949Q990 806 990 574L990 536L114 536L114 534Q114 297 231 162Q346 30 541 30Q697 30 802 108Q900 180 925 299L976 299Z"  horiz-adv-x="1056" vert-adv-y="2048"  />

      
      <glyph glyph-name="uni0118" unicode="&#x0118;" d="M123 0L123 1443L949 1443L949 1396L173 1396L173 764L913 764L913 718L173 718L173 47L949 47L949 3Q783-90 783-219Q783-281 825-320Q866-360 932-360L949-360L949-405L922-406Q839-406 786-355Q733-304 733-224Q733-99 869 0L123 0Z"  horiz-adv-x="1050" vert-adv-y="2048"  />

      
      <glyph glyph-name="uni0119" unicode="&#x0119;" d="M718-406Q638-406 584-352Q530-298 530-217Q530-95 653-7L653-5Q612-16 540-16Q319-16 192 132Q64 281 64 538Q64 788 192 940Q320 1092 532 1092Q737 1092 864 949Q990 806 990 574L990 536L114 536L114 534Q114 300 228 165Q342 30 541 30Q692 30 795 103Q899 175 925 299L976 299Q942 130 786 36Q579-88 579-214Q579-278 621-319Q663-360 728-360Q744-360 745-359L745-405L718-406M532 1046Q352 1046 238 919Q124 791 115 581L940 581Q940 789 827 917Q714 1046 532 1046Z"  horiz-adv-x="1056" vert-adv-y="2048"  />

      
      <glyph glyph-name="uni011A" unicode="&#x011A;" d="M247 1841L306 1841L535 1591L537 1591L766 1841L825 1841L559 1554L513 1554L247 1841M949 0L123 0L123 1443L949 1443L949 1396L173 1396L173 764L913 764L913 718L173 718L173 47L949 47L949 0Z"  horiz-adv-x="1050" vert-adv-y="2048"  />

      
      <glyph glyph-name="uni011B" unicode="&#x011B;" d="M510 1254L245 1557L301 1557L531 1293L533 1293L763 1557L819 1557L554 1254L510 1254M532 1046Q352 1046 238 918Q124 791 115 581L940 581Q940 788 828 917Q715 1046 532 1046M976 299Q948 159 835 74Q716-16 540-16Q321-16 194 130Q64 278 64 538Q64 788 192 940Q320 1092 532 1092Q737 1092 864 949Q990 806 990 574L990 536L114 536L114 534Q114 297 231 162Q346 30 541 30Q697 30 802 108Q900 180 925 299L976 299Z"  horiz-adv-x="1056" vert-adv-y="2048"  />

      
      <glyph glyph-name="uni011C" unicode="&#x011C;" d="M707 1841L973 1554L914 1554L685 1803L683 1803L454 1554L395 1554L661 1841L707 1841M1258 564Q1258 292 1105 136Q951-20 684-20Q408-20 235 189Q62 397 62 731Q62 1060 233 1262Q404 1463 684 1463Q897 1463 1053 1345Q1208 1227 1248 1036L1199 1036Q1157 1208 1016 1312Q875 1416 684 1416Q426 1416 269 1228Q112 1040 112 731Q112 418 271 222Q430 27 684 27Q928 27 1069 170Q1209 313 1209 562L1209 662L678 662L678 708L1258 708L1258 564Z"  horiz-adv-x="1332" vert-adv-y="2048"  />

      
      <glyph glyph-name="uni011D" unicode="&#x011D;" d="M845 1254L789 1254L559 1518L557 1518L327 1254L271 1254L536 1557L580 1557L845 1254M520 31Q704 31 820 172Q936 314 936 538Q936 762 820 904Q704 1046 520 1046Q339 1046 227 905Q114 764 114 537Q114 312 227 172Q339 31 520 31M541-354Q374-354 263-289Q154-226 130-121L183-121Q204-204 300-255Q399-308 544-308Q719-308 826-227Q936-144 936-2L936 316L934 316Q901 174 790 82Q673-15 518-15Q316-15 190 139Q64 292 64 538Q64 784 191 938Q317 1092 518 1092Q674 1092 791 994Q902 901 937 755L939 755L939 1076L985 1076L985 0Q985-165 860-261Q739-354 541-354Z"  horiz-adv-x="1106" vert-adv-y="2048"  />

      
      <glyph glyph-name="uni011E" unicode="&#x011E;" d="M1258 564Q1258 292 1105 136Q951-20 684-20Q408-20 235 189Q62 397 62 731Q62 1060 233 1262Q404 1463 684 1463Q897 1463 1053 1345Q1208 1227 1248 1036L1199 1036Q1157 1208 1016 1312Q875 1416 684 1416Q426 1416 269 1228Q112 1040 112 731Q112 418 271 222Q430 27 684 27Q928 27 1069 170Q1209 313 1209 562L1209 662L678 662L678 708L1258 708L1258 564M472 1771Q472 1696 530 1646Q589 1596 684 1596Q779 1596 838 1646Q896 1696 896 1771L941 1771Q941 1672 868 1612Q798 1554 684 1554Q570 1554 500 1612Q427 1672 427 1771L472 1771Z"  horiz-adv-x="1332" vert-adv-y="2048"  />

      
      <glyph glyph-name="uni011F" unicode="&#x011F;" d="M345 1490Q345 1402 403 1349Q461 1296 558 1296Q655 1296 713 1349Q771 1402 771 1490L816 1490Q816 1378 743 1314Q672 1253 558 1253Q444 1253 374 1314Q300 1378 300 1490L345 1490M520 31Q704 31 820 172Q936 314 936 538Q936 762 820 904Q704 1046 520 1046Q339 1046 227 905Q114 764 114 537Q114 312 227 172Q339 31 520 31M541-354Q374-354 263-289Q154-226 130-121L183-121Q204-204 300-255Q399-308 544-308Q719-308 826-227Q936-144 936-2L936 316L934 316Q901 174 790 82Q673-15 518-15Q316-15 190 139Q64 292 64 538Q64 784 191 938Q317 1092 518 1092Q674 1092 791 994Q902 901 937 755L939 755L939 1076L985 1076L985 0Q985-165 860-261Q739-354 541-354Z"  horiz-adv-x="1106" vert-adv-y="2048"  />

      
      <glyph glyph-name="uni0120" unicode="&#x0120;" d="M684 1556Q658 1556 639 1575Q620 1594 620 1620Q620 1645 639 1664Q658 1683 684 1683Q710 1683 729 1664Q748 1645 748 1620Q748 1594 729 1575Q710 1556 684 1556M1258 564Q1258 292 1105 136Q951-20 684-20Q408-20 235 189Q62 397 62 731Q62 1060 233 1262Q404 1463 684 1463Q897 1463 1053 1345Q1208 1227 1248 1036L1199 1036Q1157 1208 1016 1312Q875 1416 684 1416Q426 1416 269 1228Q112 1040 112 731Q112 418 271 222Q430 27 684 27Q928 27 1069 170Q1209 313 1209 562L1209 662L678 662L678 708L1258 708L1258 564Z"  horiz-adv-x="1332" vert-adv-y="2048"  />

      
      <glyph glyph-name="uni0121" unicode="&#x0121;" d="M558 1254Q533 1254 513 1273Q494 1293 494 1318Q494 1344 513 1363Q532 1382 558 1382Q584 1382 604 1363Q623 1344 623 1318Q623 1292 604 1273Q584 1254 558 1254M520 31Q704 31 820 172Q936 314 936 538Q936 762 820 904Q704 1046 520 1046Q339 1046 227 905Q114 764 114 537Q114 312 227 172Q339 31 520 31M541-354Q374-354 263-289Q154-226 130-121L183-121Q204-204 300-255Q399-308 544-308Q719-308 826-227Q936-144 936-2L936 316L934 316Q901 174 790 82Q673-15 518-15Q316-15 190 139Q64 292 64 538Q64 784 191 938Q317 1092 518 1092Q674 1092 791 994Q902 901 937 755L939 755L939 1076L985 1076L985 0Q985-165 860-261Q739-354 541-354Z"  horiz-adv-x="1106" vert-adv-y="2048"  />

      
      <glyph glyph-name="uni0122" unicode="&#x0122;" d="M569-480L671-142L728-142L615-480L569-480M1258 564Q1258 292 1105 136Q951-20 684-20Q408-20 235 189Q62 397 62 731Q62 1060 233 1262Q404 1463 684 1463Q897 1463 1053 1345Q1208 1227 1248 1036L1199 1036Q1157 1208 1016 1312Q875 1416 684 1416Q426 1416 269 1228Q112 1040 112 731Q112 418 271 222Q430 27 684 27Q928 27 1069 170Q1209 313 1209 562L1209 662L678 662L678 708L1258 708L1258 564Z"  horiz-adv-x="1332" vert-adv-y="2048"  />

      
      <glyph glyph-name="uni0123" unicode="&#x0123;" d="M426-833L528-495L585-495L472-833L426-833M520 31Q704 31 820 172Q936 314 936 538Q936 762 820 904Q704 1046 520 1046Q339 1046 227 905Q114 764 114 537Q114 312 227 172Q339 31 520 31M541-354Q374-354 263-289Q154-226 130-121L183-121Q204-204 300-255Q399-308 544-308Q719-308 826-227Q936-144 936-2L936 316L934 316Q901 174 790 82Q673-15 518-15Q316-15 190 139Q64 292 64 538Q64 784 191 938Q317 1092 518 1092Q674 1092 791 994Q902 901 937 755L939 755L939 1076L985 1076L985 0Q985-165 860-261Q739-354 541-354Z"  horiz-adv-x="1106" vert-adv-y="2048"  />

      
      <glyph glyph-name="uni0124" unicode="&#x0124;" d="M1121 0L1121 718L173 718L173 0L123 0L123 1443L173 1443L173 765L1121 765L1121 1443L1171 1443L1171 0L1121 0M670 1841L936 1554L877 1554L648 1803L646 1803L417 1554L358 1554L624 1841L670 1841Z"  horiz-adv-x="1296" vert-adv-y="2048"  />

      
      <glyph glyph-name="uni0125" unicode="&#x0125;" d="M130 1506L179 1506L179 822L181 822Q216 942 320 1017Q425 1092 564 1092Q742 1092 852 984Q962 875 962 695L962 0L912 0L912 693Q912 856 814 952Q717 1046 558 1046Q392 1046 286 934Q179 822 179 645L179 0L130 0L130 1506M178 1904L444 1617L385 1617L156 1866L154 1866L-75 1617L-134 1617L132 1904L178 1904Z"  horiz-adv-x="1075" vert-adv-y="2048"  />

      
      <glyph glyph-name="uni0126" unicode="&#x0126;" d="M1159 1135L211 1135L211 765L1159 765L1159 1135M1353 1135L1209 1135L1209 0L1159 0L1159 718L211 718L211 0L161 0L161 1135L18 1135L18 1181L161 1181L161 1443L211 1443L211 1181L1159 1181L1159 1443L1209 1443L1209 1181L1353 1181L1353 1135Z"  horiz-adv-x="1373" vert-adv-y="2048"  />

      
      <glyph glyph-name="uni0127" unicode="&#x0127;" d="M221 831Q260 951 363 1022Q465 1092 600 1092Q777 1092 887 987Q999 881 999 704L999 0L950 0L950 694Q950 852 848 951Q748 1046 596 1046Q434 1046 327 935Q217 821 217 642L217 0L167 0L167 1280L19 1280L19 1324L167 1324L167 1510L217 1510L217 1324L514 1324L514 1280L217 1280L217 831L221 831Z"  horiz-adv-x="1152" vert-adv-y="2048"  />

      
      <glyph glyph-name="uni0128" unicode="&#x0128;" d="M124 0L124 1443L174 1443L174 0L124 0M286 1552Q217 1552 139 1636Q61 1720 12 1720Q-85 1720-85 1562L-130 1562Q-130 1654-95 1707Q-58 1763 12 1763Q81 1763 159 1680Q237 1596 286 1596Q383 1596 383 1754L428 1754Q428 1661 393 1608Q356 1552 286 1552Z"  horiz-adv-x="298" vert-adv-y="2048"  />

      
      <glyph glyph-name="uni0129" unicode="&#x0129;" d="M130 1076L179 1076L179 0L130 0L130 1076M291 1254Q222 1254 144 1338Q66 1422 17 1422Q-80 1422-80 1264L-125 1264Q-125 1356-90 1409Q-53 1465 17 1465Q86 1465 164 1382Q242 1298 291 1298Q388 1298 388 1456L433 1456Q433 1363 398 1310Q361 1254 291 1254Z"  horiz-adv-x="309" vert-adv-y="2048"  />

      
      <glyph glyph-name="uni012A" unicode="&#x012A;" d="M124 0L124 1443L174 1443L174 0L124 0M431 1616L-133 1616L-133 1659L431 1659L431 1616Z"  horiz-adv-x="298" vert-adv-y="2048"  />

      
      <glyph glyph-name="uni012B" unicode="&#x012B;" d="M130 1076L179 1076L179 0L130 0L130 1076M440 1305L-144 1305L-144 1348L440 1348L440 1305Z"  horiz-adv-x="309" vert-adv-y="2048"  />

      
      <glyph glyph-name="uni012C" unicode="&#x012C;" d="M124 0L124 1443L174 1443L174 0L124 0M-63 1771Q-63 1696-5 1646Q54 1596 149 1596Q244 1596 303 1646Q361 1696 361 1771L406 1771Q406 1672 333 1612Q263 1554 149 1554Q35 1554-35 1612Q-108 1672-108 1771L-63 1771Z"  horiz-adv-x="298" vert-adv-y="2048"  />

      
      <glyph glyph-name="uni012D" unicode="&#x012D;" d="M130 1076L179 1076L179 0L130 0L130 1076M-58 1490Q-58 1402 0 1349Q58 1296 155 1296Q252 1296 310 1349Q368 1402 368 1490L413 1490Q413 1378 340 1314Q269 1253 155 1253Q41 1253-29 1314Q-103 1378-103 1490L-58 1490Z"  horiz-adv-x="309" vert-adv-y="2048"  />

      
      <glyph glyph-name="uni012E" unicode="&#x012E;" d="M149-406Q66-406 13-356Q-39-305-39-225Q-39-90 124 15L124 1443L174 1443L174-4Q10-106 10-221Q10-283 52-321Q93-360 159-360L174-360L174-405Q172-406 149-406Z"  horiz-adv-x="298" vert-adv-y="2048"  />

      
      <glyph glyph-name="uni012F" unicode="&#x012F;" d="M155 1366Q135 1366 120 1380Q106 1394 106 1414Q106 1434 120 1448Q135 1462 155 1462Q175 1462 189 1448Q203 1434 203 1414Q203 1395 189 1380Q175 1366 155 1366M154-406Q71-406 18-356Q-34-305-34-225Q-34-90 130 15L130 1076L179 1076L179-3Q15-106 15-221Q15-283 57-321Q98-360 164-360L179-360L179-405Q177-406 154-406Z"  horiz-adv-x="309" vert-adv-y="2048"  />

      
      <glyph glyph-name="uni0130" unicode="&#x0130;" d="M123 0L123 1443L173 1443L173 0L123 0M148 1556Q122 1556 103 1575Q84 1594 84 1620Q84 1645 103 1664Q122 1683 148 1683Q174 1683 193 1664Q212 1645 212 1620Q212 1594 193 1575Q174 1556 148 1556Z"  horiz-adv-x="298" vert-adv-y="2048"  />

      
      <glyph glyph-name="uni0131" unicode="&#x0131;" d="M129 1076L178 1076L178 0L129 0L129 1076Z"  horiz-adv-x="309" vert-adv-y="2048"  />

      
      <glyph glyph-name="uni0132" unicode="&#x0132;" d="M123 0L123 1443L173 1443L173 0L123 0M387 315Q394 187 485 106Q577 26 715 26Q874 26 965 121Q1056 216 1056 384L1056 1443L1106 1443L1106 381Q1106 196 1002 88Q897-21 715-21Q555-21 449 73Q343 167 338 315L387 315Z"  horiz-adv-x="1231" vert-adv-y="2048"  />

      
      <glyph glyph-name="uni0133" unicode="&#x0133;" d="M129 1076L178 1076L178 0L129 0L129 1076M154 1366Q134 1366 119 1380Q105 1394 105 1414Q105 1434 119 1448Q134 1462 154 1462Q174 1462 188 1448Q202 1434 202 1414Q202 1395 188 1380Q174 1366 154 1366M487-80Q487-219 420-282Q357-342 224-342L195-342L195-297L222-297Q335-297 386-247Q438-197 438-84L438 1076L487 1076L487-80M463 1366Q443 1366 428 1380Q414 1394 414 1414Q414 1434 428 1448Q443 1462 463 1462Q483 1462 497 1448Q511 1434 511 1414Q511 1395 497 1380Q483 1366 463 1366Z"  horiz-adv-x="618" vert-adv-y="2048"  />

      
      <glyph glyph-name="uni0134" unicode="&#x0134;" d="M89 315Q96 187 187 106Q279 26 417 26Q576 26 667 121Q758 216 758 384L758 1443L808 1443L808 381Q808 196 704 88Q599-21 417-21Q257-21 151 73Q45 167 40 315L89 315M806 1841L1072 1554L1013 1554L784 1803L782 1803L553 1554L494 1554L760 1841L806 1841Z"  horiz-adv-x="933" vert-adv-y="2048"  />

      
      <glyph glyph-name="uni0135" unicode="&#x0135;" d="M179-80Q179-219 112-282Q49-342-84-342L-113-342L-113-297L-86-297Q27-297 78-247Q130-197 130-84L130 1076L179 1076L179-80M441 1254L385 1254L155 1518L153 1518L-77 1254L-133 1254L132 1557L176 1557L441 1254Z"  horiz-adv-x="309" vert-adv-y="2048"  />

      
      <glyph glyph-name="uni0136" unicode="&#x0136;" d="M123 0L123 1443L173 1443L173 607L177 607L961 1443L1025 1443L431 808L1095 0L1031 0L395 773L173 536L173 0L123 0M409-480L511-142L568-142L455-480L409-480Z"  horiz-adv-x="1107" vert-adv-y="2048"  />

      
      <glyph glyph-name="uni0137" unicode="&#x0137;" d="M825 1076L895 1076L378 613L897 0L832 0L339 583L178 441L178 0L129 0L129 1506L178 1506L178 503L180 503L825 1076M351-480L453-142L510-142L397-480L351-480Z"  horiz-adv-x="913" vert-adv-y="2048"  />

      
      <glyph glyph-name="uni0139" unicode="&#x0139;" d="M110 1554L403 1841L469 1841L166 1554L110 1554M948 0L123 0L123 1443L173 1443L173 47L948 47L948 0Z"  horiz-adv-x="1009" vert-adv-y="2048"  />

      
      <glyph glyph-name="uni013A" unicode="&#x013A;" d="M116 1617L409 1904L475 1904L172 1617L116 1617M129 1506L178 1506L178 0L129 0L129 1506Z"  horiz-adv-x="309" vert-adv-y="2048"  />

      
      <glyph glyph-name="uni013B" unicode="&#x013B;" d="M421-480L523-142L580-142L467-480L421-480M948 0L123 0L123 1443L173 1443L173 47L948 47L948 0Z"  horiz-adv-x="1009" vert-adv-y="2048"  />

      
      <glyph glyph-name="uni013C" unicode="&#x013C;" d="M39-480L141-142L198-142L85-480L39-480M129 1506L178 1506L178 0L129 0L129 1506Z"  horiz-adv-x="309" vert-adv-y="2048"  />

      
      <glyph glyph-name="uni013D" unicode="&#x013D;" d="M456 1443L444 1088L407 1088L407 1443L456 1443M948 0L123 0L123 1443L173 1443L173 47L948 47L948 0Z"  horiz-adv-x="1009" vert-adv-y="2048"  />

      
      <glyph glyph-name="uni013E" unicode="&#x013E;" d="M422 1476L411 1121L375 1121L375 1476L422 1476M129 1506L178 1506L178 0L129 0L129 1506Z"  horiz-adv-x="393" vert-adv-y="2048"  />

      
      <glyph glyph-name="uni0141" unicode="&#x0141;" d="M985 47L985 0L160 0L160 721L32 650L32 697L160 768L160 1443L210 1443L210 795L616 1019L616 972L210 748L210 47L985 47Z"  horiz-adv-x="1046" vert-adv-y="2048"  />

      
      <glyph glyph-name="uni0142" unicode="&#x0142;" d="M297 848L179 775L179 0L130 0L130 745L14 674L14 725L130 796L130 1506L179 1506L179 826L297 899L297 848Z"  horiz-adv-x="312" vert-adv-y="2048"  />

      
      <glyph glyph-name="uni0143" unicode="&#x0143;" d="M618 1554L911 1841L977 1841L674 1554L618 1554M123 0L123 1443L178 1443L1136 95L1140 95L1140 1443L1190 1443L1190 0L1144 0L177 1359L173 1359L173 0L123 0Z"  horiz-adv-x="1315" vert-adv-y="2048"  />

      
      <glyph glyph-name="uni0144" unicode="&#x0144;" d="M489 1254L725 1557L788 1557L542 1254L489 1254M119 1076L165 1076L165 822L167 822Q202 943 305 1017Q410 1092 549 1092Q728 1092 838 985Q949 876 949 696L949 0L900 0L900 694Q900 855 800 952Q702 1046 542 1046Q377 1046 273 934Q168 822 168 646L168 0L119 0L119 1076Z"  horiz-adv-x="1063" vert-adv-y="2048"  />

      
      <glyph glyph-name="uni0145" unicode="&#x0145;" d="M541-480L643-142L700-142L587-480L541-480M123 0L123 1443L178 1443L1136 95L1140 95L1140 1443L1190 1443L1190 0L1144 0L177 1359L173 1359L173 0L123 0Z"  horiz-adv-x="1315" vert-adv-y="2048"  />

      
      <glyph glyph-name="uni0146" unicode="&#x0146;" d="M404-480L506-142L563-142L450-480L404-480M119 1076L165 1076L165 822L167 822Q202 943 305 1017Q410 1092 549 1092Q728 1092 838 985Q949 876 949 696L949 0L900 0L900 694Q900 855 800 952Q702 1046 542 1046Q377 1046 273 934Q168 822 168 646L168 0L119 0L119 1076Z"  horiz-adv-x="1063" vert-adv-y="2048"  />

      
      <glyph glyph-name="uni0147" unicode="&#x0147;" d="M367 1841L426 1841L655 1591L657 1591L886 1841L945 1841L679 1554L633 1554L367 1841M123 0L123 1443L178 1443L1136 95L1140 95L1140 1443L1190 1443L1190 0L1144 0L177 1359L173 1359L173 0L123 0Z"  horiz-adv-x="1315" vert-adv-y="2048"  />

      
      <glyph glyph-name="uni0148" unicode="&#x0148;" d="M515 1254L250 1557L306 1557L536 1293L538 1293L768 1557L824 1557L559 1254L515 1254M119 1076L165 1076L165 822L167 822Q202 943 305 1017Q410 1092 549 1092Q728 1092 838 985Q949 876 949 696L949 0L900 0L900 694Q900 855 800 952Q702 1046 542 1046Q377 1046 273 934Q168 822 168 646L168 0L119 0L119 1076Z"  horiz-adv-x="1063" vert-adv-y="2048"  />

      
      <glyph glyph-name="uni014C" unicode="&#x014C;" d="M698 1463Q989 1463 1162 1262Q1334 1062 1334 722Q1334 381 1162 180Q990-20 698-20Q406-20 234 180Q62 381 62 722Q62 1062 234 1262Q406 1463 698 1463M698 1416Q429 1416 271 1228Q112 1041 112 722Q112 404 271 215Q430 27 698 27Q965 27 1125 215Q1284 404 1284 722Q1284 1040 1125 1228Q966 1416 698 1416M980 1616L416 1616L416 1659L980 1659L980 1616Z"  horiz-adv-x="1398" vert-adv-y="2048"  />

      
      <glyph glyph-name="uni014D" unicode="&#x014D;" d="M823 1304L239 1304L239 1347L823 1347L823 1304M538-16Q324-16 195 134Q64 285 64 538Q64 791 195 943Q325 1092 538 1092Q751 1092 881 943Q1012 791 1012 538Q1012 285 881 134Q751-16 538-16M538 31Q730 31 846 168Q963 306 963 538Q963 771 846 909Q730 1046 538 1046Q346 1046 231 909Q114 771 114 538Q114 305 231 168Q346 31 538 31Z"  horiz-adv-x="1078" vert-adv-y="2048"  />

      
      <glyph glyph-name="uni014E" unicode="&#x014E;" d="M698 1463Q989 1463 1162 1262Q1334 1062 1334 722Q1334 381 1162 180Q990-20 698-20Q406-20 234 180Q62 381 62 722Q62 1062 234 1262Q406 1463 698 1463M698 1416Q429 1416 271 1228Q112 1041 112 722Q112 404 271 215Q430 27 698 27Q965 27 1125 215Q1284 404 1284 722Q1284 1040 1125 1228Q966 1416 698 1416M486 1771Q486 1696 544 1646Q603 1596 698 1596Q793 1596 852 1646Q910 1696 910 1771L955 1771Q955 1672 882 1612Q812 1554 698 1554Q584 1554 514 1612Q441 1672 441 1771L486 1771Z"  horiz-adv-x="1398" vert-adv-y="2048"  />

      
      <glyph glyph-name="uni014F" unicode="&#x014F;" d="M325 1489Q325 1401 383 1348Q441 1295 538 1295Q635 1295 693 1348Q751 1401 751 1489L796 1489Q796 1377 723 1313Q652 1252 538 1252Q424 1252 354 1313Q280 1377 280 1489L325 1489M538-16Q324-16 195 134Q64 285 64 538Q64 791 195 943Q325 1092 538 1092Q751 1092 881 943Q1012 791 1012 538Q1012 285 881 134Q751-16 538-16M538 31Q730 31 846 168Q963 306 963 538Q963 771 846 909Q730 1046 538 1046Q346 1046 231 909Q114 771 114 538Q114 305 231 168Q346 31 538 31Z"  horiz-adv-x="1078" vert-adv-y="2048"  />

      
      <glyph glyph-name="uni0150" unicode="&#x0150;" d="M806 1554L1100 1841L1165 1841L862 1554L806 1554M552 1554L845 1841L911 1841L608 1554L552 1554M698 1463Q989 1463 1162 1262Q1334 1062 1334 722Q1334 381 1162 180Q990-20 698-20Q406-20 234 180Q62 381 62 722Q62 1062 234 1262Q406 1463 698 1463M698 1416Q429 1416 271 1228Q112 1041 112 722Q112 404 271 215Q430 27 698 27Q965 27 1125 215Q1284 404 1284 722Q1284 1040 1125 1228Q966 1416 698 1416Z"  horiz-adv-x="1398" vert-adv-y="2048"  />

      
      <glyph glyph-name="uni0151" unicode="&#x0151;" d="M857 1556L919 1556L674 1253L622 1253L857 1556M634 1556L696 1556L451 1253L399 1253L634 1556M538-16Q324-16 195 134Q64 285 64 538Q64 791 195 943Q325 1092 538 1092Q751 1092 881 943Q1012 791 1012 538Q1012 285 881 134Q751-16 538-16M538 31Q730 31 846 168Q963 306 963 538Q963 771 846 909Q730 1046 538 1046Q346 1046 231 909Q114 771 114 538Q114 305 231 168Q346 31 538 31Z"  horiz-adv-x="1078" vert-adv-y="2048"  />

      
      </font>
</defs>
</svg>
