<?xml version="1.0" standalone="no"?>
  <!DOCTYPE svg PUBLIC "-//W3C//DTD SVG 1.1//EN" "http://www.w3.org/Graphics/SVG/1.1/DTD/svg11.dtd" >
  <svg>
  <metadata>
  Created by font-carrier
  </metadata>
  <defs>
  <font id="SFUIText-Medium" horiz-adv-x="2871" vert-adv-y="2871" >
    <font-face
      
      font-family="SF UI Text"
      
      font-weight="400"
      
      font-stretch="normal"
      
      units-per-em="2048"
      
      ascent="1950"
      
      descent="-494"
      
    />
      <missing-glyph />

      

      
      <glyph glyph-name="uni21" unicode="&#x21;" d="M455 1444L435 478L233 478L212 1444L455 1444M180 129Q180 199 223 241Q265 283 335 283Q404 283 446 241Q488 199 488 129Q488 61 446 19Q404-23 335-23Q265-23 223 19Q180 61 180 129Z"  horiz-adv-x="670" vert-adv-y="2048"  />

      
      <glyph glyph-name="uni22" unicode="&#x22;" d="M168 872L168 1443L361 1443L361 872L168 872M576 872L576 1443L768 1443L768 872L576 872Z"  horiz-adv-x="938" vert-adv-y="2048"  />

      
      <glyph glyph-name="uni23" unicode="&#x23;" d="M1001 882L937 578L1150 578L1117 400L903 400L821 0L649 0L732 400L451 400L369 0L198 0L280 400L67 400L102 578L315 578L378 882L166 882L200 1059L412 1059L491 1443L662 1443L584 1059L864 1059L943 1443L1115 1443L1035 1059L1249 1059L1215 882L1001 882M478 567L770 567L837 891L544 891L478 567Z"  horiz-adv-x="1319" vert-adv-y="2048"  />

      
      <glyph glyph-name="uni24" unicode="&#x24;" d="M613-136L613-6Q398 8 273 118Q147 228 146 402L358 402Q366 313 433 254Q501 196 613 183L613 639L524 662Q179 750 179 1048Q179 1221 295 1330Q410 1438 613 1457L613 1595L750 1595L750 1457Q944 1440 1062 1330Q1180 1220 1185 1053L976 1053Q973 1136 911 1194Q849 1253 750 1265L750 834L843 813Q1212 723 1212 418Q1212 235 1091 124Q970 14 750-5L750-136L613-136M999 395Q999 563 750 613L750 181Q869 188 934 244Q999 300 999 395M393 1066Q393 907 613 863L613 1266Q517 1261 455 1204Q393 1148 393 1066Z"  horiz-adv-x="1359" vert-adv-y="2048"  />

      
      <glyph glyph-name="uni25" unicode="&#x25;" d="M1249 127Q1310 127 1347 182Q1384 236 1384 328Q1384 421 1348 474Q1311 527 1249 527Q1187 527 1150 473Q1113 419 1113 328Q1113 237 1150 182Q1187 127 1249 127M1249-29Q1108-29 1019 70Q930 170 930 328Q930 485 1019 584Q1108 683 1249 683Q1390 683 1479 584Q1567 485 1567 328Q1567 170 1479 70Q1390-29 1249-29M392 760Q252 760 163 859Q74 959 74 1116Q74 1274 163 1373Q251 1472 392 1472Q533 1472 622 1373Q710 1274 710 1116Q710 958 622 859Q533 760 392 760M200 0L749 754L1229 1443L1447 1443L889 679L419 0L200 0M392 916Q454 916 491 971Q528 1026 528 1117Q528 1210 492 1263Q455 1316 392 1316Q330 1316 293 1262Q256 1208 256 1117Q256 1026 293 971Q330 916 392 916Z"  horiz-adv-x="1643" vert-adv-y="2048"  />

      
      <glyph glyph-name="uni26" unicode="&#x26;" d="M1066 132Q878-27 605-27Q384-27 248 86Q111 199 111 382Q111 627 391 776L419 792Q443 805 450 808Q269 996 269 1142Q269 1284 379 1378Q488 1472 653 1472Q819 1472 926 1380Q1034 1288 1034 1144Q1034 1032 962 944Q889 854 728 769L1059 425Q1121 541 1121 758L1121 804L1316 804L1316 750Q1316 448 1196 275L1453 0L1191 0L1066 132M515 654Q325 555 325 399Q325 289 408 222Q491 154 626 154Q827 154 943 272L562 676Q538 666 515 654M617 888Q737 948 788 1004Q838 1059 838 1131Q838 1208 787 1256Q736 1304 654 1304Q574 1304 522 1255Q470 1206 470 1130Q470 1031 617 888Z"  horiz-adv-x="1481" vert-adv-y="2048"  />

      
      <glyph glyph-name="uni27" unicode="&#x27;" d="M168 872L168 1443L361 1443L361 872L168 872Z"  horiz-adv-x="531" vert-adv-y="2048"  />

      
      <glyph glyph-name="uni28" unicode="&#x28;" d="M441-277Q171 61 171 600Q171 1084 451 1442L640 1442Q531 1315 462 1079Q392 843 392 600Q392 152 637-277L441-277Z"  horiz-adv-x="755" vert-adv-y="2048"  />

      
      <glyph glyph-name="uni29" unicode="&#x29;" d="M115-277Q360 152 360 600Q360 844 290 1080Q221 1316 112 1442L303 1442Q582 1085 582 600Q582 64 312-277L115-277Z"  horiz-adv-x="755" vert-adv-y="2048"  />

      
      <glyph glyph-name="uni2a" unicode="&#x2a;" d="M887 946L811 808L577 967L599 688L444 688L466 968L232 808L155 946L413 1063L155 1184L232 1324L466 1156L444 1443L599 1443L576 1156L811 1324L887 1184L630 1063L887 946Z"  horiz-adv-x="1044" vert-adv-y="2048"  />

      
      <glyph glyph-name="uni2b" unicode="&#x2b;" d="M772 60L585 60L585 484L159 484L159 680L585 680L585 1103L772 1103L772 680L1199 680L1199 484L772 484L772 60Z"  horiz-adv-x="1359" vert-adv-y="2048"  />

      
      <glyph glyph-name="uni2c" unicode="&#x2c;" d="M119-376L209 222L442 222L299-376L119-376Z"  horiz-adv-x="662" vert-adv-y="2048"  />

      
      <glyph glyph-name="uni2d" unicode="&#x2d;" d="M159 476L159 687L815 687L815 476L159 476Z"  horiz-adv-x="975" vert-adv-y="2048"  />

      
      <glyph glyph-name="uni2e" unicode="&#x2e;" d="M322-17Q259-17 217 26Q175 69 175 132Q175 195 217 238Q259 281 322 281Q385 281 427 238Q469 195 469 132Q469 69 427 26Q385-17 322-17Z"  horiz-adv-x="645" vert-adv-y="2048"  />

      
      <glyph glyph-name="uni2f" unicode="&#x2f;" d="M53-309L483 1443L679 1443L245-309L53-309Z"  horiz-adv-x="733" vert-adv-y="2048"  />

      
      <glyph glyph-name="uni30" unicode="&#x30;" d="M665-35Q412-35 272 164Q131 363 131 723Q131 1080 272 1279Q413 1478 665 1478Q915 1478 1056 1279Q1197 1079 1197 721Q1197 362 1057 163Q917-35 665-35M665 161Q813 161 892 305Q971 450 971 723Q971 993 891 1138Q811 1282 665 1282Q519 1282 438 1138Q357 992 357 723Q357 451 438 305Q517 161 665 161Z"  horiz-adv-x="1330" vert-adv-y="2048"  />

      
      <glyph glyph-name="uni31" unicode="&#x31;" d="M501 1202L484 1202L122 946L122 1175L502 1443L725 1443L725 0L501 0L501 1202Z"  horiz-adv-x="989" vert-adv-y="2048"  />

      
      <glyph glyph-name="uni32" unicode="&#x32;" d="M143 1026Q143 1225 279 1352Q415 1478 628 1478Q834 1478 969 1361Q1104 1244 1104 1066Q1104 951 1037 839Q969 726 788 543L467 218L467 201L1127 201L1127 0L155 0L155 162L643 670Q787 820 835 897Q883 973 883 1053Q883 1152 808 1218Q733 1284 621 1284Q502 1284 428 1213Q355 1142 355 1026L355 1023L143 1023L143 1026Z"  horiz-adv-x="1266" vert-adv-y="2048"  />

      
      <glyph glyph-name="uni33" unicode="&#x33;" d="M470 833L645 833Q761 833 834 897Q907 961 907 1063Q907 1164 836 1224Q765 1285 647 1285Q529 1285 457 1224Q384 1163 375 1056L162 1056Q173 1252 305 1365Q437 1478 654 1478Q855 1478 992 1368Q1128 1259 1128 1096Q1128 969 1059 879Q989 789 870 762L870 745Q1017 728 1102 633Q1187 539 1187 394Q1187 210 1035 88Q884-35 658-35Q431-35 287 82Q144 199 134 392L349 392Q360 287 443 225Q527 163 658 163Q790 163 874 231Q958 299 958 406Q958 518 876 583Q794 648 652 648L470 648L470 833Z"  horiz-adv-x="1315" vert-adv-y="2048"  />

      
      <glyph glyph-name="uni34" unicode="&#x34;" d="M819 279L115 279L115 487Q283 794 716 1443L1035 1443L1035 479L1234 479L1234 279L1035 279L1035 0L819 0L819 279M330 474L822 474L822 1246L809 1246Q555 878 330 488L330 474Z"  horiz-adv-x="1351" vert-adv-y="2048"  />

      
      <glyph glyph-name="uni35" unicode="&#x35;" d="M655-35Q440-35 301 85Q162 205 152 395L365 395Q378 290 458 226Q538 162 657 162Q792 162 875 244Q958 326 958 461Q958 596 875 681Q792 765 660 765Q469 765 380 617L175 617L251 1443L1093 1443L1093 1243L426 1243L388 820L405 820Q507 951 710 951Q916 951 1046 816Q1177 680 1177 467Q1177 243 1033 104Q888-35 655-35Z"  horiz-adv-x="1300" vert-adv-y="2048"  />

      
      <glyph glyph-name="uni36" unicode="&#x36;" d="M688-35Q360-35 214 264Q126 437 126 703Q126 1070 277 1274Q427 1478 698 1478Q889 1478 1023 1373Q1157 1267 1190 1090L965 1090Q938 1178 866 1229Q794 1280 696 1280Q530 1280 437 1136Q345 993 341 732L358 732Q468 950 737 950Q943 950 1077 814Q1211 678 1211 469Q1211 248 1064 107Q917-35 688-35M686 162Q815 162 902 248Q989 334 989 462Q989 593 904 677Q820 761 687 761Q555 761 469 678Q383 594 383 466Q383 337 470 250Q557 162 686 162Z"  horiz-adv-x="1339" vert-adv-y="2048"  />

      
      <glyph glyph-name="uni37" unicode="&#x37;" d="M850 1227L850 1244L116 1244L116 1443L1074 1443L1074 1240L446 0L211 0L850 1227Z"  horiz-adv-x="1193" vert-adv-y="2048"  />

      
      <glyph glyph-name="uni38" unicode="&#x38;" d="M673-35Q432-35 282 82Q131 199 131 386Q131 524 215 625Q298 726 437 754L437 771Q324 800 257 886Q189 973 189 1089Q189 1260 325 1369Q461 1478 673 1478Q885 1478 1021 1369Q1157 1260 1157 1089Q1157 972 1090 886Q1023 800 909 771L909 754Q1048 728 1132 627Q1216 527 1216 387Q1216 200 1065 82Q914-35 673-35M673 151Q812 151 899 222Q986 292 986 405Q986 518 899 589Q812 660 673 660Q534 660 447 589Q360 518 360 405Q360 292 447 222Q534 151 673 151M673 843Q791 843 864 905Q937 967 937 1067Q937 1168 864 1231Q791 1294 673 1294Q555 1294 482 1231Q410 1168 410 1067Q410 967 483 905Q555 843 673 843Z"  horiz-adv-x="1349" vert-adv-y="2048"  />

      
      <glyph glyph-name="uni39" unicode="&#x39;" d="M640-35Q448-35 314 71Q180 177 147 354L373 354Q399 266 471 215Q543 164 642 164Q808 164 900 308Q993 451 996 712L979 712Q870 493 601 493Q395 493 260 629Q126 765 126 974Q126 1195 273 1337Q419 1478 649 1478Q980 1478 1123 1180Q1212 1005 1212 741Q1212 374 1061 170Q911-35 640-35M650 683Q782 683 868 766Q954 849 954 977Q954 1107 867 1194Q780 1281 652 1281Q523 1281 436 1195Q349 1109 349 982Q349 851 433 767Q517 683 650 683Z"  horiz-adv-x="1339" vert-adv-y="2048"  />

      
      <glyph glyph-name="uni3a" unicode="&#x3a;" d="M322-17Q259-17 217 26Q175 69 175 132Q175 195 217 238Q259 281 322 281Q385 281 427 238Q469 195 469 132Q469 69 427 26Q385-17 322-17M322 738Q259 738 217 781Q175 824 175 887Q175 951 217 993Q259 1036 322 1036Q386 1036 427 993Q469 951 469 887Q469 824 427 781Q385 738 322 738Z"  horiz-adv-x="645" vert-adv-y="2048"  />

      
      <glyph glyph-name="uni3b" unicode="&#x3b;" d="M119-376L209 222L442 222L299-376L119-376M322 738Q259 738 217 781Q175 824 175 887Q175 951 217 993Q259 1036 322 1036Q386 1036 427 993Q469 951 469 887Q469 824 427 781Q385 738 322 738Z"  horiz-adv-x="645" vert-adv-y="2048"  />

      
      <glyph glyph-name="uni3c" unicode="&#x3c;" d="M1132 0L226 503L226 686L1132 1189L1132 953L442 603L442 586L1132 236L1132 0Z"  horiz-adv-x="1359" vert-adv-y="2048"  />

      
      <glyph glyph-name="uni3d" unicode="&#x3d;" d="M163 270L163 467L1194 467L1194 270L163 270M163 698L163 895L1194 895L1194 698L163 698Z"  horiz-adv-x="1359" vert-adv-y="2048"  />

      
      <glyph glyph-name="uni3e" unicode="&#x3e;" d="M915 586L915 603L226 953L226 1189L1132 686L1132 503L226 0L226 236L915 586Z"  horiz-adv-x="1359" vert-adv-y="2048"  />

      
      <glyph glyph-name="uni3f" unicode="&#x3f;" d="M78 1053Q85 1232 200 1340Q321 1455 532 1455Q729 1455 852 1349Q974 1245 974 1081Q974 865 764 739Q668 682 633 633Q598 585 598 509L598 449L391 449L390 525Q386 631 433 706Q478 778 583 841Q675 896 710 946Q747 997 747 1072Q747 1155 685 1208Q623 1262 521 1262Q418 1262 355 1206Q292 1149 285 1053L78 1053M507-23Q438-23 395 19Q352 61 352 129Q352 198 395 241Q438 283 507 283Q576 283 619 241Q661 199 661 129Q661 61 619 19Q576-23 507-23Z"  horiz-adv-x="1083" vert-adv-y="2048"  />

      
      <glyph glyph-name="uni40" unicode="&#x40;" d="M935 858Q842 858 790 790Q738 723 738 602Q738 481 790 413Q842 344 933 344Q1028 344 1084 414Q1140 483 1140 602Q1140 720 1084 789Q1029 858 935 858M969 1442Q1325 1442 1549 1236Q1773 1030 1773 702Q1773 461 1670 319Q1567 177 1391 177Q1301 177 1239 222Q1176 266 1164 339L1147 339Q1082 183 901 183Q745 183 650 300Q554 416 554 606Q554 788 650 903Q745 1018 898 1018Q1068 1018 1131 876L1148 876L1148 997L1318 997L1318 435Q1318 323 1424 323Q1512 323 1565 424Q1617 526 1617 696Q1617 967 1435 1134Q1253 1300 958 1300Q666 1300 479 1104Q292 909 292 602Q292 289 482 103Q673-83 993-83Q1204-83 1305-41L1305-183Q1170-227 986-227Q598-227 367 0Q136 227 136 607Q136 978 367 1210Q599 1442 969 1442Z"  horiz-adv-x="1887" vert-adv-y="2048"  />

      
      <glyph glyph-name="uni41" unicode="&#x41;" d="M982 383L432 383L299 0L69 0L590 1443L831 1443L1352 0L1114 0L982 383M489 571L925 571L716 1181L699 1181L489 571Z"  horiz-adv-x="1423" vert-adv-y="2048"  />

      
      <glyph glyph-name="uni42" unicode="&#x42;" d="M180 0L180 1443L760 1443Q963 1443 1079 1346Q1194 1250 1194 1083Q1194 970 1121 880Q1048 791 941 773L941 756Q1087 741 1177 646Q1266 550 1266 409Q1266 218 1135 109Q1004 0 773 0L180 0M404 832L670 832Q971 832 971 1042Q971 1142 902 1197Q832 1253 708 1253L404 1253L404 832M728 190Q1037 190 1037 425Q1037 655 715 655L404 655L404 190L728 190Z"  horiz-adv-x="1373" vert-adv-y="2048"  />

      
      <glyph glyph-name="uni43" unicode="&#x43;" d="M772-35Q471-35 296 168Q121 371 121 721Q121 1072 296 1275Q470 1478 771 1478Q1009 1478 1177 1338Q1344 1199 1371 978L1148 978Q1116 1111 1015 1190Q913 1269 771 1269Q577 1269 463 1121Q350 974 350 721Q350 469 464 322Q577 174 772 174Q915 174 1017 246Q1118 318 1148 440L1371 440Q1341 226 1177 96Q1013-35 772-35Z"  horiz-adv-x="1485" vert-adv-y="2048"  />

      
      <glyph glyph-name="uni44" unicode="&#x44;" d="M701 1443Q1022 1443 1201 1255Q1380 1066 1380 726Q1380 380 1202 190Q1024 0 701 0L180 0L180 1443L701 1443M404 204L676 204Q903 204 1027 339Q1152 475 1152 723Q1152 967 1026 1103Q901 1239 676 1239L404 1239L404 204Z"  horiz-adv-x="1502" vert-adv-y="2048"  />

      
      <glyph glyph-name="uni45" unicode="&#x45;" d="M1096 0L180 0L180 1443L1096 1443L1096 1239L404 1239L404 831L1059 831L1059 637L404 637L404 204L1096 204L1096 0Z"  horiz-adv-x="1239" vert-adv-y="2048"  />

      
      <glyph glyph-name="uni46" unicode="&#x46;" d="M180 0L180 1443L1081 1443L1081 1239L404 1239L404 796L1024 796L1024 598L404 598L404 0L180 0Z"  horiz-adv-x="1191" vert-adv-y="2048"  />

      
      <glyph glyph-name="uni47" unicode="&#x47;" d="M1411 571Q1411 294 1241 130Q1072-35 788-35Q481-35 301 169Q121 373 121 722Q121 1067 302 1273Q483 1478 786 1478Q1032 1478 1198 1349Q1364 1219 1401 1000L1176 1000Q1089 1269 786 1269Q586 1269 468 1122Q350 974 350 724Q350 469 469 322Q587 174 791 174Q968 174 1079 273Q1190 372 1191 532L1191 563L819 563L819 751L1411 751L1411 571Z"  horiz-adv-x="1539" vert-adv-y="2048"  />

      
      <glyph glyph-name="uni48" unicode="&#x48;" d="M1145 0L1145 633L404 633L404 0L180 0L180 1443L404 1443L404 837L1145 837L1145 1443L1368 1443L1368 0L1145 0Z"  horiz-adv-x="1550" vert-adv-y="2048"  />

      
      <glyph glyph-name="uni49" unicode="&#x49;" d="M180 0L180 1443L404 1443L404 0L180 0Z"  horiz-adv-x="585" vert-adv-y="2048"  />

      
      <glyph glyph-name="uni4a" unicode="&#x4a;" d="M301 375Q303 286 363 231Q423 176 519 176Q627 176 685 239Q743 303 743 423L743 1443L967 1443L967 422Q967 205 848 85Q730-35 521-35Q324-35 203 77Q81 190 81 375L301 375Z"  horiz-adv-x="1148" vert-adv-y="2048"  />

      
      <glyph glyph-name="uni4b" unicode="&#x4b;" d="M180 0L180 1443L404 1443L404 767L420 767L1017 1443L1282 1443L724 816L1330 0L1050 0L566 655L404 474L404 0L180 0Z"  horiz-adv-x="1386" vert-adv-y="2048"  />

      
      <glyph glyph-name="uni4c" unicode="&#x4c;" d="M1080 0L180 0L180 1443L404 1443L404 206L1080 206L1080 0Z"  horiz-adv-x="1183" vert-adv-y="2048"  />

      
      <glyph glyph-name="uni4d" unicode="&#x4d;" d="M180 0L180 1443L442 1443L901 347L918 347L1378 1443L1640 1443L1640 0L1432 0L1432 1042L1418 1042L995 42L825 42L402 1042L388 1042L388 0L180 0Z"  horiz-adv-x="1822" vert-adv-y="2048"  />

      
      <glyph glyph-name="uni4e" unicode="&#x4e;" d="M180 0L180 1443L382 1443L1123 418L1139 418L1139 1443L1357 1443L1357 0L1155 0L414 1025L398 1025L398 0L180 0Z"  horiz-adv-x="1539" vert-adv-y="2048"  />

      
      <glyph glyph-name="uni4f" unicode="&#x4f;" d="M795 1478Q1107 1478 1287 1274Q1467 1071 1467 722Q1467 373 1288 170Q1107-35 795-35Q482-35 301 169Q121 372 121 722Q121 1071 303 1275Q484 1478 795 1478M795 1269Q591 1269 471 1121Q350 973 350 722Q350 471 469 323Q588 174 795 174Q1000 174 1119 323Q1238 471 1238 722Q1238 974 1119 1121Q1000 1269 795 1269Z"  horiz-adv-x="1590" vert-adv-y="2048"  />

      
      <glyph glyph-name="uni50" unicode="&#x50;" d="M745 1443Q957 1443 1089 1310Q1221 1176 1221 962Q1221 751 1086 618Q951 486 738 486L404 486L404 0L180 0L180 1443L745 1443M404 683L686 683Q831 683 911 755Q992 828 992 962Q992 1099 913 1172Q834 1245 686 1245L404 1245L404 683Z"  horiz-adv-x="1329" vert-adv-y="2048"  />

      
      <glyph glyph-name="uni51" unicode="&#x51;" d="M1169-153L1051 6Q936-35 795-35Q483-35 302 167Q121 370 121 721Q121 1071 303 1275Q484 1478 795 1478Q1105 1478 1286 1275Q1467 1071 1467 721Q1467 298 1222 109L1403-153L1169-153M796 174Q866 174 932 192L751 443L980 443L1088 309Q1238 437 1238 721Q1238 973 1118 1121Q998 1269 795 1269Q591 1269 471 1121Q351 974 351 721Q351 468 471 321Q590 174 796 174Z"  horiz-adv-x="1590" vert-adv-y="2048"  />

      
      <glyph glyph-name="uni52" unicode="&#x52;" d="M404 741L726 741Q856 741 927 807Q999 873 999 994Q999 1112 924 1179Q850 1246 720 1246L404 1246L404 741M404 0L180 0L180 1443L751 1443Q969 1443 1099 1323Q1229 1202 1229 999Q1229 853 1155 743Q1080 632 949 587L1273 0L1014 0L720 550L404 550L404 0Z"  horiz-adv-x="1368" vert-adv-y="2048"  />

      
      <glyph glyph-name="uni53" unicode="&#x53;" d="M334 388Q348 285 442 225Q535 164 680 164Q815 164 904 227Q992 289 992 385Q992 467 926 520Q861 572 717 606L531 651Q335 697 243 794Q151 891 151 1050Q151 1243 295 1360Q440 1478 676 1478Q896 1478 1041 1362Q1186 1246 1196 1064L978 1064Q962 1164 881 1222Q799 1280 673 1280Q540 1280 459 1221Q378 1162 378 1065Q378 988 440 940Q501 892 642 859L801 820Q1023 768 1121 673Q1219 577 1219 414Q1219 207 1069 86Q919-35 663-35Q423-35 274 80Q124 195 112 388L334 388Z"  horiz-adv-x="1333" vert-adv-y="2048"  />

      
      <glyph glyph-name="uni54" unicode="&#x54;" d="M546 0L546 1239L92 1239L92 1443L1223 1443L1223 1239L770 1239L770 0L546 0Z"  horiz-adv-x="1317" vert-adv-y="2048"  />

      
      <glyph glyph-name="uni55" unicode="&#x55;" d="M408 517Q408 363 502 270Q599 175 768 175Q938 175 1035 270Q1129 363 1129 517L1129 1443L1353 1443L1353 497Q1353 259 1196 114Q1036-35 768-35Q500-35 340 114Q184 259 184 497L184 1443L408 1443L408 517Z"  horiz-adv-x="1538" vert-adv-y="2048"  />

      
      <glyph glyph-name="uni56" unicode="&#x56;" d="M585 0L69 1443L313 1443L702 280L719 280L1106 1443L1344 1443L831 0L585 0Z"  horiz-adv-x="1415" vert-adv-y="2048"  />

      
      <glyph glyph-name="uni57" unicode="&#x57;" d="M689 0L477 0L88 1443L321 1443L586 338L600 338L901 1443L1109 1443L1412 338L1426 338L1690 1443L1923 1443L1533 0L1322 0L1012 1059L998 1059L689 0Z"  horiz-adv-x="2013" vert-adv-y="2048"  />

      
      <glyph glyph-name="uni58" unicode="&#x58;" d="M570 726L93 1443L360 1443L711 899L728 899L1085 1443L1337 1443L847 720L1328 0L1066 0L712 534L695 534L336 0L88 0L570 726Z"  horiz-adv-x="1427" vert-adv-y="2048"  />

      
      <glyph glyph-name="uni59" unicode="&#x59;" d="M578 0L578 582L70 1443L319 1443L682 818L699 818L1062 1443L1311 1443L802 582L802 0L578 0Z"  horiz-adv-x="1383" vert-adv-y="2048"  />

      
      <glyph glyph-name="uni5a" unicode="&#x5a;" d="M140 161L924 1222L924 1239L164 1239L164 1443L1205 1443L1205 1282L425 221L425 204L1224 204L1224 0L140 0L140 161Z"  horiz-adv-x="1365" vert-adv-y="2048"  />

      
      <glyph glyph-name="uni5b" unicode="&#x5b;" d="M667 1444L667 1270L379 1270L379-67L679-67L679-240L171-240L171 1444L667 1444Z"  horiz-adv-x="790" vert-adv-y="2048"  />

      
      <glyph glyph-name="uni5c" unicode="&#x5c;" d="M53 1443L248 1443L679-309L486-309L53 1443Z"  horiz-adv-x="733" vert-adv-y="2048"  />

      
      <glyph glyph-name="uni5d" unicode="&#x5d;" d="M617-240L109-240L109-67L409-67L409 1270L122 1270L122 1444L617 1444L617-240Z"  horiz-adv-x="790" vert-adv-y="2048"  />

      
      <glyph glyph-name="uni5e" unicode="&#x5e;" d="M291 784L94 784L398 1439L613 1439L917 784L721 784L514 1262L497 1262L291 784Z"  horiz-adv-x="1014" vert-adv-y="2048"  />

      
      <glyph glyph-name="uni5f" unicode="&#x5f;" d="M-7-278L-7-107L934-107L934-278L-7-278Z"  horiz-adv-x="926" vert-adv-y="2048"  />

      
      <glyph glyph-name="uni60" unicode="&#x60;" d="M576 1271L294 1615L546 1615L797 1271L576 1271Z"  horiz-adv-x="1095" vert-adv-y="2048"  />

      
      <glyph glyph-name="uni61" unicode="&#x61;" d="M511 163Q632 163 713 231Q793 299 793 401L793 492L527 475Q309 460 309 318Q309 246 366 204Q421 163 511 163M456-18Q296-18 196 70Q93 161 93 308Q93 454 198 538Q303 621 498 633L793 650L793 744Q793 924 570 924Q381 924 343 803L135 803Q151 943 273 1027Q394 1110 580 1110Q784 1110 896 1013Q1007 917 1007 744L1007 0L800 0L800 153L783 153Q681-18 456-18Z"  horiz-adv-x="1158" vert-adv-y="2048"  />

      
      <glyph glyph-name="uni62" unicode="&#x62;" d="M732-18Q491-18 388 172L372 172L372 0L165 0L165 1514L380 1514L380 916L397 916Q440 1005 530 1056Q620 1107 732 1107Q939 1107 1061 956Q1182 804 1182 545Q1182 286 1060 134Q938-18 732-18M670 914Q535 914 456 815Q377 715 376 544Q377 373 456 274Q534 175 670 175Q806 175 884 273Q961 372 961 545Q961 717 884 815Q806 914 670 914Z"  horiz-adv-x="1285" vert-adv-y="2048"  />

      
      <glyph glyph-name="uni63" unicode="&#x63;" d="M868 733Q848 816 784 865Q715 918 611 918Q476 918 399 820Q321 722 321 548Q321 372 399 271Q476 171 611 171Q825 171 868 350L1077 350Q1056 182 935 82Q810-21 612-21Q374-21 238 130Q101 282 101 548Q101 810 237 960Q373 1110 611 1110Q810 1110 936 1003Q1055 902 1077 733L868 733Z"  horiz-adv-x="1167" vert-adv-y="2048"  />

      
      <glyph glyph-name="uni64" unicode="&#x64;" d="M553-18Q345-18 223 134Q101 286 101 545Q101 803 224 955Q346 1107 553 1107Q665 1107 754 1057Q843 1006 887 916L903 916L903 1514L1118 1514L1118 0L912 0L912 172L895 172Q791-18 553-18M614 914Q478 914 401 815Q323 717 323 545Q323 372 400 273Q478 175 614 175Q750 175 828 274Q907 373 907 544Q907 714 828 814Q749 914 614 914Z"  horiz-adv-x="1285" vert-adv-y="2048"  />

      
      <glyph glyph-name="uni65" unicode="&#x65;" d="M602 927Q483 927 406 850Q329 773 320 645L870 645Q866 774 794 850Q721 927 602 927M1076 294Q1039 147 915 63Q790-21 604-21Q370-21 236 130Q101 280 101 541Q101 802 237 956Q373 1110 603 1110Q830 1110 960 964Q1089 818 1089 561L1089 486L320 486L320 474Q325 330 403 246Q481 162 610 162Q807 162 869 294L1076 294Z"  horiz-adv-x="1192" vert-adv-y="2048"  />

      
      <glyph glyph-name="uni66" unicode="&#x66;" d="M231 903L52 903L52 1084L231 1084L231 1192Q231 1356 317 1431Q399 1504 572 1504Q632 1504 693 1494L693 1322Q647 1330 597 1330Q444 1330 444 1180L444 1084L685 1084L685 903L446 903L446 0L231 0L231 903Z"  horiz-adv-x="775" vert-adv-y="2048"  />

      
      <glyph glyph-name="uni67" unicode="&#x67;" d="M906 558Q906 721 827 817Q748 914 611 914Q474 914 397 817Q322 723 322 558Q322 393 397 299Q474 202 611 202Q748 202 828 298Q906 394 906 558M614-416Q412-416 285-332Q160-249 143-109L363-109Q377-169 442-204Q510-239 617-239Q751-239 827-178Q902-118 902-10L902 199L886 199Q784 16 550 16Q343 16 221 164Q100 311 100 557Q100 807 222 957Q344 1107 552 1107Q664 1107 756 1055Q848 1004 894 915L911 915L911 1089L1117 1089L1117-9Q1117-196 981-306Q845-416 614-416Z"  horiz-adv-x="1274" vert-adv-y="2048"  />

      
      <glyph glyph-name="uni68" unicode="&#x68;" d="M165 1514L378 1514L378 914L395 914Q435 1006 525 1057Q615 1109 738 1109Q922 1109 1022 1003Q1123 897 1123 703L1123 0L908 0L908 650Q908 912 665 912Q534 912 457 836Q380 761 380 636L380 0L165 0L165 1514Z"  horiz-adv-x="1271" vert-adv-y="2048"  />

      
      <glyph glyph-name="uni69" unicode="&#x69;" d="M159 1089L373 1089L373 0L159 0L159 1089M266 1280Q206 1280 167 1318Q127 1355 127 1411Q127 1467 167 1505Q206 1543 266 1543Q326 1543 366 1505Q405 1467 405 1411Q405 1355 366 1318Q326 1280 266 1280Z"  horiz-adv-x="534" vert-adv-y="2048"  />

      
      <glyph glyph-name="uni6a" unicode="&#x6a;" d="M374-60Q374-387 23-387Q-20-387-25-386L-25-206L5-206Q90-206 126-171Q160-138 160-58L160 1089L374 1089L374-60M267 1280Q207 1280 168 1318Q128 1355 128 1411Q128 1467 168 1505Q207 1543 267 1543Q327 1543 367 1505Q406 1467 406 1411Q406 1355 367 1318Q327 1280 267 1280Z"  horiz-adv-x="534" vert-adv-y="2048"  />

      
      <glyph glyph-name="uni6b" unicode="&#x6b;" d="M829 1089L1083 1089L635 622L1113 0L849 0L475 480L380 390L380 0L165 0L165 1514L380 1514L380 635L397 635L829 1089Z"  horiz-adv-x="1155" vert-adv-y="2048"  />

      
      <glyph glyph-name="uni6c" unicode="&#x6c;" d="M165 1514L380 1514L380 0L165 0L165 1514Z"  horiz-adv-x="547" vert-adv-y="2048"  />

      
      <glyph glyph-name="uni6d" unicode="&#x6d;" d="M155 1089L362 1089L362 914L378 914Q454 1110 681 1110Q902 1110 981 914L998 914Q1040 1004 1128 1057Q1217 1110 1329 1110Q1494 1110 1586 1015Q1677 920 1677 750L1677 0L1462 0L1462 694Q1462 913 1251 913Q1148 913 1084 847Q1021 783 1021 685L1021 0L810 0L810 715Q810 807 753 860Q696 913 600 913Q502 913 436 842Q370 771 370 666L370 0L155 0L155 1089Z"  horiz-adv-x="1824" vert-adv-y="2048"  />

      
      <glyph glyph-name="uni6e" unicode="&#x6e;" d="M155 1089L362 1089L362 916L378 916Q418 1007 508 1058Q599 1110 722 1110Q904 1110 1003 1005Q1102 899 1102 705L1102 0L887 0L887 651Q887 913 649 913Q519 913 445 839Q370 765 370 637L370 0L155 0L155 1089Z"  horiz-adv-x="1249" vert-adv-y="2048"  />

      
      <glyph glyph-name="uni6f" unicode="&#x6f;" d="M615 170Q754 170 831 269Q907 367 907 545Q907 722 831 821Q754 919 615 919Q475 919 399 821Q323 723 323 545Q323 366 399 268Q475 170 615 170M615-21Q375-21 238 130Q101 281 101 545Q101 808 239 959Q376 1110 615 1110Q853 1110 990 959Q1128 808 1128 545Q1128 281 991 130Q854-21 615-21Z"  horiz-adv-x="1231" vert-adv-y="2048"  />

      
      <glyph glyph-name="uni70" unicode="&#x70;" d="M720 1107Q928 1107 1050 956Q1172 804 1172 545Q1172 286 1050 134Q929-18 722-18Q478-18 387 165L370 165L370-353L155-353L155 1089L362 1089L362 909L378 909Q427 1002 518 1055Q609 1107 720 1107M659 175Q796 175 874 273Q951 372 951 545Q951 718 874 816Q796 914 660 914Q524 914 445 815Q366 715 366 544Q366 374 445 274Q524 175 659 175Z"  horiz-adv-x="1275" vert-adv-y="2048"  />

      
      <glyph glyph-name="uni71" unicode="&#x71;" d="M552 1107Q663 1107 755 1053Q846 1000 893 909L910 909L910 1089L1118 1089L1118-353L902-353L902 165L885 165Q783-18 550-18Q343-18 222 134Q101 285 101 545Q101 802 223 955Q346 1107 552 1107M611 175Q748 175 827 274Q906 373 906 544Q906 714 827 814Q748 914 612 914Q476 914 400 816Q323 718 323 545Q323 371 399 273Q475 175 611 175Z"  horiz-adv-x="1275" vert-adv-y="2048"  />

      
      <glyph glyph-name="uni72" unicode="&#x72;" d="M155 1089L362 1089L362 922L378 922Q401 1003 483 1055Q565 1107 671 1107Q732 1107 766 1098L766 886Q729 899 647 899Q525 899 448 828Q370 757 370 643L370 0L155 0L155 1089Z"  horiz-adv-x="808" vert-adv-y="2048"  />

      
      <glyph glyph-name="uni73" unicode="&#x73;" d="M130 781Q130 925 249 1018Q368 1110 553 1110Q737 1110 850 1029Q963 948 979 804L773 804Q740 935 553 935Q462 935 403 896Q342 856 342 793Q342 700 515 660L696 618Q853 582 926 512Q1000 440 1000 321Q1000 169 872 73Q746-21 549-21Q355-21 236 62Q116 144 102 289L317 289Q361 153 554 153Q655 153 719 194Q783 235 783 300Q783 395 623 433L433 477Q277 514 204 587Q130 660 130 781Z"  horiz-adv-x="1104" vert-adv-y="2048"  />

      
      <glyph glyph-name="uni74" unicode="&#x74;" d="M446 1353L446 1084L690 1084L690 903L446 903L446 343Q446 258 483 218Q520 179 600 179Q630 179 680 184L680 5Q618-6 565-6Q386-6 308 62Q231 130 231 288L231 903L52 903L52 1084L231 1084L231 1353L446 1353Z"  horiz-adv-x="780" vert-adv-y="2048"  />

      
      <glyph glyph-name="uni75" unicode="&#x75;" d="M1094 0L888 0L888 173L871 173Q788-21 530-21Q348-21 247 85Q145 191 145 384L145 1089L360 1089L360 438Q360 178 600 178Q730 178 805 251Q880 324 880 452L880 1089L1094 1089L1094 0Z"  horiz-adv-x="1252" vert-adv-y="2048"  />

      
      <glyph glyph-name="uni76" unicode="&#x76;" d="M291 1089L562 230L579 230L849 1089L1077 1089L685 0L454 0L61 1089L291 1089Z"  horiz-adv-x="1140" vert-adv-y="2048"  />

      
      <glyph glyph-name="uni77" unicode="&#x77;" d="M1274 0L1051 0L826 802L809 802L585 0L364 0L64 1089L282 1089L477 258L493 258L717 1089L923 1089L1147 258L1164 258L1358 1089L1573 1089L1274 0Z"  horiz-adv-x="1640" vert-adv-y="2048"  />

      
      <glyph glyph-name="uni78" unicode="&#x78;" d="M546 386L308 0L72 0L433 542L69 1089L320 1089L554 705L571 705L803 1089L1042 1089L683 551L1046 0L799 0L562 386L546 386Z"  horiz-adv-x="1117" vert-adv-y="2048"  />

      
      <glyph glyph-name="uni79" unicode="&#x79;" d="M263-396Q199-396 174-391L174-206Q197-210 244-210Q321-210 367-175Q413-139 441-57L457-4L63 1089L297 1089L570 224L587 224L859 1089L1087 1089L681-45Q611-244 520-320Q430-396 263-396Z"  horiz-adv-x="1152" vert-adv-y="2048"  />

      
      <glyph glyph-name="uni7a" unicode="&#x7a;" d="M130 146L729 890L729 907L134 907L134 1089L986 1089L986 932L400 199L400 182L992 182L992 0L130 0L130 146Z"  horiz-adv-x="1124" vert-adv-y="2048"  />

      
      <glyph glyph-name="uni7b" unicode="&#x7b;" d="M316 604Q506 586 506 356L506 55Q506-63 558-112Q609-161 732-161L777-161L777-336L701-336Q494-336 397-247Q300-158 300 31L300 289Q300 407 262 452Q224 498 126 498L126 727Q224 727 262 773Q300 820 300 938L300 1162Q300 1348 397 1434Q494 1520 701 1520L777 1520L777 1345L732 1345Q608 1345 557 1297Q506 1248 506 1128L506 858Q506 639 316 621L316 604Z"  horiz-adv-x="861" vert-adv-y="2048"  />

      
      <glyph glyph-name="uni7c" unicode="&#x7c;" d="M255-310L255 1443L446 1443L446-310L255-310Z"  horiz-adv-x="702" vert-adv-y="2048"  />

      
      <glyph glyph-name="uni7d" unicode="&#x7d;" d="M543 621Q353 639 353 858L353 1128Q353 1248 302 1297Q251 1345 127 1345L82 1345L82 1520L158 1520Q365 1520 462 1434Q559 1348 559 1162L559 938Q559 820 597 773Q635 727 733 727L733 498Q635 498 597 452Q559 407 559 289L559 31Q559-158 462-247Q365-336 158-336L82-336L82-161L127-161Q250-161 302-112Q353-63 353 55L353 356Q353 586 543 604L543 621Z"  horiz-adv-x="861" vert-adv-y="2048"  />

      
      <glyph glyph-name="uni7e" unicode="&#x7e;" d="M560 630Q468 722 408 722Q284 722 275 544L91 544Q90 549 90 560Q89 730 173 828Q256 926 402 926Q525 926 652 798Q743 707 802 707Q927 707 936 886L1119 886Q1120 880 1120 870Q1121 700 1038 602Q954 504 810 504Q686 504 560 630Z"  horiz-adv-x="1210" vert-adv-y="2048"  />

      
      <glyph glyph-name="unia1" unicode="&#xa1;" d="M233 633L435 633L455-333L212-333L233 633M180 981Q180 1050 223 1092Q265 1134 335 1134Q404 1134 446 1092Q488 1050 488 981Q488 912 446 870Q404 828 335 828Q265 828 223 870Q180 912 180 981Z"  horiz-adv-x="670" vert-adv-y="2048"  />

      
      <glyph glyph-name="unia2" unicode="&#xa2;" d="M1197 517Q1177 368 1067 271Q959 175 793 153L793-23L596-23L596 156Q399 190 281 336Q159 487 159 714Q159 937 281 1088Q400 1233 596 1267L596 1445L793 1445L793 1270Q956 1245 1065 1147Q1177 1047 1197 900L988 900Q960 986 884 1035Q808 1085 701 1085Q562 1085 472 985Q379 882 379 714Q379 543 473 439Q562 338 701 338Q940 338 988 517L1197 517Z"  horiz-adv-x="1359" vert-adv-y="2048"  />

      
      <glyph glyph-name="unia3" unicode="&#xa3;" d="M1216 0L131 0L131 190Q264 215 350 311Q436 406 437 528Q437 585 419 644L133 644L133 818L364 818Q303 973 303 1072Q303 1263 444 1371Q584 1478 835 1478Q1008 1478 1145 1440L1145 1244Q1007 1283 856 1283Q704 1283 617 1221Q530 1159 530 1051Q530 954 582 818L1035 818L1035 644L636 644Q653 586 653 534Q655 437 605 352Q556 266 469 216L469 199L1216 199L1216 0Z"  horiz-adv-x="1359" vert-adv-y="2048"  />

      
      <glyph glyph-name="unia4" unicode="&#xa4;" d="M426 653Q426 550 501 476Q575 402 679 402Q783 402 858 476Q933 550 933 653Q933 755 858 829Q783 903 679 903Q576 903 501 829Q426 755 426 653M1030 873Q1092 771 1092 653Q1092 534 1030 432L1189 271L1061 136L900 299Q799 233 679 233Q559 233 458 299L296 136L169 271L329 433Q267 535 267 653Q267 771 329 873L169 1033L296 1168L458 1006Q559 1072 679 1072Q799 1072 901 1006L1061 1168L1189 1033L1030 873Z"  horiz-adv-x="1359" vert-adv-y="2048"  />

      
      <glyph glyph-name="unia5" unicode="&#xa5;" d="M791 242L791 0L567 0L567 242L292 242L292 392L567 392L567 544L292 544L292 694L505 694L58 1443L307 1443L670 818L687 818L1050 1443L1299 1443L853 694L1065 694L1065 544L791 544L791 392L1065 392L1065 242L791 242Z"  horiz-adv-x="1359" vert-adv-y="2048"  />

      
      <glyph glyph-name="unia6" unicode="&#xa6;" d="M255 774L255 1443L446 1443L446 774L255 774M255-310L255 359L446 359L446-310L255-310Z"  horiz-adv-x="702" vert-adv-y="2048"  />

      
      <glyph glyph-name="unia7" unicode="&#xa7;" d="M547 397Q627 401 682 449Q737 498 737 565Q737 682 577 719L485 746Q406 742 350 693Q294 644 294 578Q294 462 455 424L547 397M518-270Q341-270 225-183Q108-95 99 45L303 45Q312-18 374-57Q435-96 525-96Q618-96 676-56Q734-16 734 49Q734 143 554 193L400 240Q238 288 164 358Q89 428 89 534Q89 629 147 699Q206 769 310 799L310 816Q95 906 95 1089Q95 1234 210 1324Q324 1413 510 1413Q682 1413 793 1330Q904 1246 919 1106L718 1106Q709 1166 652 1203Q594 1239 507 1239Q415 1239 358 1199Q302 1160 302 1095Q302 1001 479 950L631 903Q793 854 867 786Q941 717 941 615Q941 515 873 437Q805 360 695 334L695 317Q938 247 938 56Q938-89 821-179Q704-270 518-270Z"  horiz-adv-x="1032" vert-adv-y="2048"  />

      
      <glyph glyph-name="unia8" unicode="&#xa8;" d="M347 1265Q290 1265 252 1304Q213 1342 213 1399Q213 1456 252 1495Q290 1534 347 1534Q403 1534 442 1495Q480 1456 480 1399Q480 1342 442 1304Q403 1265 347 1265M774 1265Q718 1265 679 1304Q640 1342 640 1399Q640 1456 679 1495Q718 1534 774 1534Q830 1534 869 1495Q907 1456 907 1399Q907 1342 869 1304Q830 1265 774 1265Z"  horiz-adv-x="1122" vert-adv-y="2048"  />

      
      <glyph glyph-name="unia9" unicode="&#xa9;" d="M870-154Q536-154 308 75Q79 304 79 638Q79 972 307 1200Q536 1429 870 1429Q1205 1429 1433 1201Q1661 973 1661 638Q1661 303 1433 75Q1204-154 870-154M870-3Q1142-3 1327 182Q1512 367 1512 638Q1512 909 1327 1093Q1142 1278 870 1278Q598 1278 413 1093Q228 908 228 638Q228 367 413 182Q599-3 870-3M1087 764Q1071 829 1017 868Q963 907 887 907Q782 907 721 835Q660 763 660 639Q660 513 721 441Q782 368 887 368Q1054 368 1087 505L1244 505Q1227 377 1130 302Q1034 227 887 227Q707 227 602 338Q496 449 496 639Q496 826 602 937Q707 1048 886 1048Q1030 1048 1128 971Q1226 893 1244 764L1087 764Z"  horiz-adv-x="1742" vert-adv-y="2048"  />

      
      <glyph glyph-name="uniaa" unicode="&#xaa;" d="M456 670Q549 670 611 724Q672 778 672 860L672 945L466 930Q293 918 293 800Q293 740 337 705Q381 670 456 670M390 507Q254 507 172 584Q90 661 90 789Q90 914 179 985Q269 1057 438 1067L669 1081L669 1158Q670 1222 622 1258Q575 1294 490 1294Q342 1294 321 1196L125 1196Q135 1320 236 1392Q336 1464 497 1464Q671 1464 770 1381Q868 1299 868 1153L868 529L676 529L676 646L659 646Q580 507 390 507Z"  horiz-adv-x="974" vert-adv-y="2048"  />

      
      <glyph glyph-name="uniab" unicode="&#xab;" d="M889 559L1239 148L1008 148L660 561L660 569L1011 983L1239 983L889 573L889 559M398 559L748 148L518 148L170 561L170 569L520 983L748 983L398 573L398 559Z"  horiz-adv-x="1411" vert-adv-y="2048"  />

      
      <glyph glyph-name="uniac" unicode="&#xac;" d="M1170 97L984 97L984 484L187 484L187 680L1170 680L1170 97Z"  horiz-adv-x="1359" vert-adv-y="2048"  />

      
      <glyph glyph-name="uniae" unicode="&#xae;" d="M629 416Q410 416 257 570Q104 723 104 942Q104 1162 257 1315Q410 1468 629 1468Q849 1468 1001 1315Q1154 1162 1154 942Q1154 723 1001 570Q848 416 629 416M629 534Q801 534 920 653Q1039 772 1039 942Q1039 1113 920 1232Q801 1350 629 1350Q458 1350 339 1232Q219 1113 219 942Q219 772 339 653Q458 534 629 534M425 705L425 1199L676 1199Q753 1199 803 1155Q853 1112 853 1044Q853 925 741 895L875 705L745 705L622 880L533 880L533 705L425 705M533 970L648 970Q735 970 735 1038Q735 1103 650 1103L533 1103L533 970Z"  horiz-adv-x="1260" vert-adv-y="2048"  />

      
      <glyph glyph-name="uniaf" unicode="&#xaf;" d="M175 1299L175 1454L871 1454L871 1299L175 1299Z"  horiz-adv-x="1048" vert-adv-y="2048"  />

      
      <glyph glyph-name="unib0" unicode="&#xb0;" d="M446 789Q305 789 210 887Q116 983 116 1122Q116 1261 210 1358Q305 1456 446 1456Q587 1456 683 1358Q778 1261 778 1122Q778 983 683 887Q587 789 446 789M446 939Q529 939 583 993Q635 1046 635 1122Q635 1200 583 1252Q529 1306 446 1306Q363 1306 311 1252Q259 1200 259 1122Q259 1046 310 993Q363 939 446 939Z"  horiz-adv-x="896" vert-adv-y="2048"  />

      
      <glyph glyph-name="unib1" unicode="&#xb1;" d="M173 94L173 276L1184 276L1184 94L173 94M771 390L586 390L586 657L173 657L173 831L586 831L586 1097L771 1097L771 831L1184 831L1184 657L771 657L771 390Z"  horiz-adv-x="1359" vert-adv-y="2048"  />

      
      <glyph glyph-name="unib2" unicode="&#xb2;" d="M89 1535Q89 1669 182 1752Q274 1835 424 1835Q569 1835 659 1761Q750 1686 750 1566Q750 1487 704 1415Q657 1340 534 1231L374 1084L374 1067L764 1067L764 898L101 898L101 1042L393 1321Q554 1473 554 1550Q554 1603 515 1637Q477 1671 416 1671Q353 1671 314 1633Q274 1596 274 1535L274 1531L89 1531L89 1535Z"  horiz-adv-x="857" vert-adv-y="2048"  />

      
      <glyph glyph-name="unib3" unicode="&#xb3;" d="M325 1436L436 1436Q499 1436 538 1469Q577 1502 577 1555Q577 1607 538 1638Q499 1670 435 1670Q371 1670 331 1637Q291 1603 286 1546L102 1546Q106 1677 197 1755Q289 1833 440 1833Q583 1833 675 1763Q767 1694 767 1585Q767 1507 720 1451Q674 1394 597 1380L597 1363Q691 1355 746 1296Q802 1238 802 1148Q802 1027 701 950Q599 872 441 872Q284 872 188 952Q91 1032 87 1165L275 1165Q280 1109 324 1075Q369 1041 441 1041Q512 1041 556 1076Q600 1111 600 1166Q600 1224 557 1257Q514 1290 438 1290L325 1290L325 1436Z"  horiz-adv-x="888" vert-adv-y="2048"  />

      
      <glyph glyph-name="unib4" unicode="&#xb4;" d="M526 1615L778 1615L497 1271L275 1271L526 1615Z"  horiz-adv-x="1095" vert-adv-y="2048"  />

      
      <glyph glyph-name="unib6" unicode="&#xb6;" d="M665-237L665 517L645 517Q435 517 294 648Q153 779 153 975Q153 1178 293 1311Q433 1443 646 1443L881 1443L881-237L665-237M1035 1443L1251 1443L1251-237L1035-237L1035 1443Z"  horiz-adv-x="1414" vert-adv-y="2048"  />

      
      <glyph glyph-name="unib7" unicode="&#xb7;" d="M332 579Q262 579 218 623Q175 667 175 737Q175 806 218 851Q262 895 332 895Q401 895 444 851Q487 807 487 737Q487 667 444 623Q401 579 332 579Z"  horiz-adv-x="663" vert-adv-y="2048"  />

      
      <glyph glyph-name="unib8" unicode="&#xb8;" d="M397-145L457 2L605 2L553-129Q652-131 707-175Q761-219 761-298Q761-388 695-440Q627-494 509-494Q422-494 362-476L362-357Q408-371 482-371Q598-371 598-304Q598-243 456-243L397-243L397-145Z"  horiz-adv-x="1095" vert-adv-y="2048"  />

      
      <glyph glyph-name="unib9" unicode="&#xb9;" d="M320 898L320 1613L303 1613Q124 1501 85 1462L85 1650Q174 1717 319 1812L516 1812L516 898L320 898Z"  horiz-adv-x="699" vert-adv-y="2048"  />

      
      <glyph glyph-name="uniba" unicode="&#xba;" d="M526 681Q634 681 694 760Q753 840 753 985Q753 1130 694 1209Q634 1289 526 1289Q418 1289 359 1209Q299 1129 299 985Q299 840 358 761Q417 681 526 681M526 507Q322 507 206 634Q89 762 89 985Q89 1206 206 1335Q324 1463 526 1463Q729 1463 846 1335Q962 1208 962 985Q962 761 846 634Q730 507 526 507Z"  horiz-adv-x="1054" vert-adv-y="2048"  />

      
      <glyph glyph-name="unibb" unicode="&#xbb;" d="M170 983L398 983L749 569L749 561L401 148L170 148L520 559L520 573L170 983M661 983L889 983L1239 569L1239 561L891 148L661 148L1011 559L1011 573L661 983Z"  horiz-adv-x="1411" vert-adv-y="2048"  />

      
      <glyph glyph-name="unibc" unicode="&#xbc;" d="M1850 914L1850 319L1967 319L1967 158L1847 158L1847 0L1662 0L1662 154L1199 154L1199 327Q1285 492 1570 914L1850 914M1378 314L1663 314L1663 755L1655 755Q1445 441 1378 320L1378 314M320 529L320 1244L303 1244Q124 1132 85 1093L85 1281Q174 1348 319 1443L516 1443L516 529L320 529M883 754L1186 1443L1391 1443L1044 713L732 0L527 0L883 754Z"  horiz-adv-x="2051" vert-adv-y="2048"  />

      
      <glyph glyph-name="unibd" unicode="&#xbd;" d="M1287 637Q1287 771 1380 854Q1472 937 1622 937Q1767 937 1857 863Q1948 788 1948 668Q1948 589 1902 517Q1855 442 1732 333L1572 186L1572 169L1962 169L1962 0L1299 0L1299 144L1591 423Q1752 575 1752 652Q1752 705 1713 739Q1675 773 1614 773Q1551 773 1512 735Q1472 698 1472 637L1472 633L1287 633L1287 637M320 529L320 1244L303 1244Q124 1132 85 1093L85 1281Q174 1348 319 1443L516 1443L516 529L320 529M883 754L1186 1443L1391 1443L1044 713L732 0L527 0L883 754Z"  horiz-adv-x="2055" vert-adv-y="2048"  />

      
      <glyph glyph-name="unibe" unicode="&#xbe;" d="M325 1067L436 1067Q499 1067 538 1100Q577 1133 577 1186Q577 1238 538 1269Q499 1301 435 1301Q371 1301 331 1268Q291 1234 286 1177L102 1177Q106 1308 197 1386Q289 1464 440 1464Q583 1464 675 1394Q767 1325 767 1216Q767 1138 720 1082Q674 1025 597 1011L597 994Q691 986 746 927Q802 869 802 779Q802 658 701 581Q599 503 441 503Q284 503 188 583Q91 663 87 796L275 796Q280 740 324 706Q369 672 441 672Q512 672 556 707Q600 742 600 797Q600 855 557 888Q514 921 438 921L325 921L325 1067M2030 914L2030 319L2147 319L2147 158L2027 158L2027 0L1842 0L1842 154L1379 154L1379 327Q1465 492 1750 914L2030 914M1558 314L1843 314L1843 755L1835 755Q1625 441 1558 320L1558 314M1062 754L1365 1443L1570 1443L1223 713L911 0L706 0L1062 754Z"  horiz-adv-x="2230" vert-adv-y="2048"  />

      
      <glyph glyph-name="unibf" unicode="&#xbf;" d="M1003 58Q996-122 881-231Q760-346 550-346Q352-346 228-240Q106-135 106 30Q106 244 317 370Q413 428 448 476Q482 524 482 601L482 660L689 660L690 585Q694 478 648 403Q603 332 498 269Q407 213 371 163Q334 112 334 39Q334-46 396-99Q458-153 560-153Q663-153 726-96Q788-40 795 58L1003 58M575 827Q506 827 463 869Q420 911 420 980Q420 1048 463 1091Q506 1133 575 1133Q644 1133 686 1091Q728 1048 728 980Q728 911 686 869Q644 827 575 827Z"  horiz-adv-x="1083" vert-adv-y="2048"  />

      
      <glyph glyph-name="unic0" unicode="&#xc0;" d="M982 383L432 383L299 0L69 0L590 1443L831 1443L1352 0L1114 0L982 383M489 571L925 571L716 1181L699 1181L489 571M828 1582L598 1582L272 1888L530 1888L828 1582Z"  horiz-adv-x="1423" vert-adv-y="2048"  />

      
      <glyph glyph-name="unic1" unicode="&#xc1;" d="M982 383L432 383L299 0L69 0L590 1443L831 1443L1352 0L1114 0L982 383M489 571L925 571L716 1181L699 1181L489 571M890 1888L1148 1888L823 1582L593 1582L890 1888Z"  horiz-adv-x="1423" vert-adv-y="2048"  />

      
      <glyph glyph-name="unic2" unicode="&#xc2;" d="M982 383L432 383L299 0L69 0L590 1443L831 1443L1352 0L1114 0L982 383M489 571L925 571L716 1181L699 1181L489 571M1107 1582L882 1582L719 1763L703 1763L540 1582L315 1582L610 1896L812 1896L1107 1582Z"  horiz-adv-x="1423" vert-adv-y="2048"  />

      
      <glyph glyph-name="unic3" unicode="&#xc3;" d="M982 383L432 383L299 0L69 0L590 1443L831 1443L1352 0L1114 0L982 383M489 571L925 571L716 1181L699 1181L489 571M864 1576Q775 1576 693 1654Q611 1731 569 1731Q482 1731 477 1590L324 1590Q324 1728 389 1807Q451 1883 558 1883Q654 1883 738 1806Q821 1728 853 1728Q939 1728 945 1868L1098 1868Q1098 1733 1034 1654Q970 1576 864 1576Z"  horiz-adv-x="1423" vert-adv-y="2048"  />

      
      <glyph glyph-name="unic4" unicode="&#xc4;" d="M982 383L432 383L299 0L69 0L590 1443L831 1443L1352 0L1114 0L982 383M489 571L925 571L716 1181L699 1181L489 571M498 1577Q441 1577 403 1616Q364 1654 364 1711Q364 1768 403 1807Q441 1846 498 1846Q554 1846 593 1807Q631 1768 631 1711Q631 1654 593 1616Q554 1577 498 1577M925 1577Q869 1577 830 1616Q791 1654 791 1711Q791 1768 830 1807Q869 1846 925 1846Q981 1846 1020 1807Q1058 1768 1058 1711Q1058 1654 1020 1616Q981 1577 925 1577Z"  horiz-adv-x="1423" vert-adv-y="2048"  />

      
      <glyph glyph-name="unic5" unicode="&#xc5;" d="M982 383L432 383L299 0L69 0L590 1443L831 1443L1352 0L1114 0L982 383M489 571L925 571L716 1181L699 1181L489 571M711 1574Q612 1574 543 1641Q474 1709 474 1808Q474 1907 543 1974Q611 2041 711 2041Q811 2041 879 1974Q948 1907 948 1808Q948 1709 879 1641Q810 1574 711 1574M711 1693Q761 1693 794 1726Q827 1758 827 1808Q827 1857 794 1889Q761 1922 711 1922Q661 1922 628 1889Q595 1857 595 1808Q595 1758 628 1726Q661 1693 711 1693Z"  horiz-adv-x="1423" vert-adv-y="2048"  />

      
      <glyph glyph-name="unic6" unicode="&#xc6;" d="M846 1253L558 606L986 606L986 1253L846 1253M986 417L482 417L293 0L69 0L700 1443L1856 1443L1856 1239L1201 1239L1201 824L1819 824L1819 629L1201 629L1201 204L1856 204L1856 0L986 0L986 417Z"  horiz-adv-x="1999" vert-adv-y="2048"  />

      
      <glyph glyph-name="unic7" unicode="&#xc7;" d="M1148 978Q1116 1111 1015 1190Q913 1269 771 1269Q577 1269 463 1121Q350 974 350 721Q350 469 464 322Q577 174 772 174Q915 174 1017 246Q1118 318 1148 440L1371 440Q1343 244 1202 116Q1060-11 848-31L809-129Q908-131 963-175Q1017-219 1017-298Q1017-388 951-440Q883-494 765-494Q678-494 618-476L618-357Q664-371 738-371Q854-371 854-304Q854-243 712-243L653-243L653-145L699-32Q430-7 276 193Q121 393 121 721Q121 1072 296 1275Q470 1478 771 1478Q1009 1478 1177 1338Q1344 1199 1371 978L1148 978Z"  horiz-adv-x="1485" vert-adv-y="2048"  />

      
      <glyph glyph-name="unic8" unicode="&#xc8;" d="M755 1582L525 1582L199 1888L457 1888L755 1582M1096 0L180 0L180 1443L1096 1443L1096 1239L404 1239L404 831L1059 831L1059 637L404 637L404 204L1096 204L1096 0Z"  horiz-adv-x="1239" vert-adv-y="2048"  />

      
      <glyph glyph-name="unic9" unicode="&#xc9;" d="M817 1888L1075 1888L750 1582L520 1582L817 1888M1096 0L180 0L180 1443L1096 1443L1096 1239L404 1239L404 831L1059 831L1059 637L404 637L404 204L1096 204L1096 0Z"  horiz-adv-x="1239" vert-adv-y="2048"  />

      
      <glyph glyph-name="unica" unicode="&#xca;" d="M1034 1582L809 1582L646 1763L630 1763L467 1582L242 1582L537 1896L739 1896L1034 1582M1096 0L180 0L180 1443L1096 1443L1096 1239L404 1239L404 831L1059 831L1059 637L404 637L404 204L1096 204L1096 0Z"  horiz-adv-x="1239" vert-adv-y="2048"  />

      
      <glyph glyph-name="unicb" unicode="&#xcb;" d="M425 1577Q368 1577 330 1616Q291 1654 291 1711Q291 1768 330 1807Q368 1846 425 1846Q481 1846 520 1807Q558 1768 558 1711Q558 1654 520 1616Q481 1577 425 1577M852 1577Q796 1577 757 1616Q718 1654 718 1711Q718 1768 757 1807Q796 1846 852 1846Q908 1846 947 1807Q985 1768 985 1711Q985 1654 947 1616Q908 1577 852 1577M1096 0L180 0L180 1443L1096 1443L1096 1239L404 1239L404 831L1059 831L1059 637L404 637L404 204L1096 204L1096 0Z"  horiz-adv-x="1239" vert-adv-y="2048"  />

      
      <glyph glyph-name="unicc" unicode="&#xcc;" d="M181 0L181 1443L405 1443L405 0L181 0M410 1582L180 1582L-146 1888L112 1888L410 1582Z"  horiz-adv-x="585" vert-adv-y="2048"  />

      
      <glyph glyph-name="unicd" unicode="&#xcd;" d="M180 0L180 1443L404 1443L404 0L180 0M471 1888L729 1888L404 1582L174 1582L471 1888Z"  horiz-adv-x="585" vert-adv-y="2048"  />

      
      <glyph glyph-name="unice" unicode="&#xce;" d="M181 0L181 1443L405 1443L405 0L181 0M689 1582L464 1582L301 1763L285 1763L122 1582L-103 1582L192 1896L394 1896L689 1582Z"  horiz-adv-x="585" vert-adv-y="2048"  />

      
      <glyph glyph-name="unicf" unicode="&#xcf;" d="M181 0L181 1443L405 1443L405 0L181 0M80 1577Q23 1577-15 1616Q-54 1654-54 1711Q-54 1768-15 1807Q23 1846 80 1846Q136 1846 175 1807Q213 1768 213 1711Q213 1654 175 1616Q136 1577 80 1577M507 1577Q451 1577 412 1616Q373 1654 373 1711Q373 1768 412 1807Q451 1846 507 1846Q563 1846 602 1807Q640 1768 640 1711Q640 1654 602 1616Q563 1577 507 1577Z"  horiz-adv-x="585" vert-adv-y="2048"  />

      
      <glyph glyph-name="unid0" unicode="&#xd0;" d="M676 204Q903 204 1027 339Q1152 475 1152 723Q1152 967 1026 1103Q901 1239 676 1239L404 1239L404 834L628 834L628 643L404 643L404 204L676 204M701 1443Q1022 1443 1201 1255Q1380 1066 1380 726Q1380 380 1202 190Q1024 0 701 0L180 0L180 643L18 643L18 834L180 834L180 1443L701 1443Z"  horiz-adv-x="1469" vert-adv-y="2048"  />

      
      <glyph glyph-name="unid1" unicode="&#xd1;" d="M920 1576Q831 1576 749 1654Q667 1731 625 1731Q538 1731 533 1590L380 1590Q380 1728 445 1807Q507 1883 614 1883Q710 1883 794 1806Q877 1728 909 1728Q995 1728 1001 1868L1154 1868Q1154 1733 1090 1654Q1026 1576 920 1576M180 0L180 1443L382 1443L1123 418L1139 418L1139 1443L1357 1443L1357 0L1155 0L414 1025L398 1025L398 0L180 0Z"  horiz-adv-x="1539" vert-adv-y="2048"  />

      
      <glyph glyph-name="unid2" unicode="&#xd2;" d="M912 1582L682 1582L356 1888L614 1888L912 1582M795 1478Q1107 1478 1287 1274Q1467 1071 1467 722Q1467 373 1288 170Q1107-35 795-35Q482-35 301 169Q121 372 121 722Q121 1071 303 1275Q484 1478 795 1478M795 1269Q591 1269 471 1121Q350 973 350 722Q350 471 469 323Q588 174 795 174Q1000 174 1119 323Q1238 471 1238 722Q1238 974 1119 1121Q1000 1269 795 1269Z"  horiz-adv-x="1590" vert-adv-y="2048"  />

      
      <glyph glyph-name="unid3" unicode="&#xd3;" d="M974 1888L1232 1888L907 1582L677 1582L974 1888M795 1478Q1107 1478 1287 1274Q1467 1071 1467 722Q1467 373 1288 170Q1107-35 795-35Q482-35 301 169Q121 372 121 722Q121 1071 303 1275Q484 1478 795 1478M795 1269Q591 1269 471 1121Q350 973 350 722Q350 471 469 323Q588 174 795 174Q1000 174 1119 323Q1238 471 1238 722Q1238 974 1119 1121Q1000 1269 795 1269Z"  horiz-adv-x="1590" vert-adv-y="2048"  />

      
      <glyph glyph-name="unid4" unicode="&#xd4;" d="M1191 1582L966 1582L803 1763L787 1763L624 1582L399 1582L694 1896L896 1896L1191 1582M795 1478Q1107 1478 1287 1274Q1467 1071 1467 722Q1467 373 1288 170Q1107-35 795-35Q482-35 301 169Q121 372 121 722Q121 1071 303 1275Q484 1478 795 1478M795 1269Q591 1269 471 1121Q350 973 350 722Q350 471 469 323Q588 174 795 174Q1000 174 1119 323Q1238 471 1238 722Q1238 974 1119 1121Q1000 1269 795 1269Z"  horiz-adv-x="1590" vert-adv-y="2048"  />

      
      <glyph glyph-name="unid5" unicode="&#xd5;" d="M795 1478Q1107 1478 1287 1274Q1467 1071 1467 722Q1467 373 1288 170Q1107-35 795-35Q482-35 301 169Q121 372 121 722Q121 1071 303 1275Q484 1478 795 1478M795 1269Q591 1269 471 1121Q350 973 350 722Q350 471 469 323Q588 174 795 174Q1000 174 1119 323Q1238 471 1238 722Q1238 974 1119 1121Q1000 1269 795 1269M948 1576Q859 1576 777 1654Q695 1731 653 1731Q566 1731 561 1590L408 1590Q408 1728 473 1807Q535 1883 642 1883Q738 1883 822 1806Q905 1728 937 1728Q1023 1728 1029 1868L1182 1868Q1182 1733 1118 1654Q1054 1576 948 1576Z"  horiz-adv-x="1590" vert-adv-y="2048"  />

      
      <glyph glyph-name="unid6" unicode="&#xd6;" d="M582 1577Q525 1577 487 1616Q448 1654 448 1711Q448 1768 487 1807Q525 1846 582 1846Q638 1846 677 1807Q715 1768 715 1711Q715 1654 677 1616Q638 1577 582 1577M1009 1577Q953 1577 914 1616Q875 1654 875 1711Q875 1768 914 1807Q953 1846 1009 1846Q1065 1846 1104 1807Q1142 1768 1142 1711Q1142 1654 1104 1616Q1065 1577 1009 1577M795 1478Q1107 1478 1287 1274Q1467 1071 1467 722Q1467 373 1288 170Q1107-35 795-35Q482-35 301 169Q121 372 121 722Q121 1071 303 1275Q484 1478 795 1478M795 1269Q591 1269 471 1121Q350 973 350 722Q350 471 469 323Q588 174 795 174Q1000 174 1119 323Q1238 471 1238 722Q1238 974 1119 1121Q1000 1269 795 1269Z"  horiz-adv-x="1590" vert-adv-y="2048"  />

      
      <glyph glyph-name="unid7" unicode="&#xd7;" d="M372 138L242 276L548 582L242 888L372 1026L679 721L985 1026L1115 888L809 582L1115 276L985 138L679 443L372 138Z"  horiz-adv-x="1359" vert-adv-y="2048"  />

      
      <glyph glyph-name="unid8" unicode="&#xd8;" d="M523 267Q633 174 795 174Q1000 174 1119 323Q1238 471 1238 722Q1238 958 1132 1105L523 267M1046 1192Q941 1269 795 1269Q591 1269 471 1121Q350 973 350 722Q350 505 441 362L1046 1192M1269 1294Q1467 1090 1467 722Q1467 373 1288 170Q1107-35 795-35Q559-35 391 86L288-56L187 15L300 170Q121 372 121 722Q121 1071 303 1275Q484 1478 795 1478Q1018 1478 1177 1371L1268 1496L1369 1432L1269 1294Z"  horiz-adv-x="1566" vert-adv-y="2048"  />

      
      <glyph glyph-name="unid9" unicode="&#xd9;" d="M885 1582L655 1582L329 1888L587 1888L885 1582M408 517Q408 363 502 270Q599 175 768 175Q938 175 1035 270Q1129 363 1129 517L1129 1443L1353 1443L1353 497Q1353 259 1196 114Q1036-35 768-35Q500-35 340 114Q184 259 184 497L184 1443L408 1443L408 517Z"  horiz-adv-x="1539" vert-adv-y="2048"  />

      
      <glyph glyph-name="unida" unicode="&#xda;" d="M947 1888L1205 1888L880 1582L650 1582L947 1888M408 517Q408 363 502 270Q599 175 768 175Q938 175 1035 270Q1129 363 1129 517L1129 1443L1353 1443L1353 497Q1353 259 1196 114Q1036-35 768-35Q500-35 340 114Q184 259 184 497L184 1443L408 1443L408 517Z"  horiz-adv-x="1539" vert-adv-y="2048"  />

      
      <glyph glyph-name="unidb" unicode="&#xdb;" d="M1164 1582L939 1582L776 1763L760 1763L597 1582L372 1582L667 1896L869 1896L1164 1582M408 517Q408 363 502 270Q599 175 768 175Q938 175 1035 270Q1129 363 1129 517L1129 1443L1353 1443L1353 497Q1353 259 1196 114Q1036-35 768-35Q500-35 340 114Q184 259 184 497L184 1443L408 1443L408 517Z"  horiz-adv-x="1539" vert-adv-y="2048"  />

      
      <glyph glyph-name="unidc" unicode="&#xdc;" d="M555 1577Q498 1577 460 1616Q421 1654 421 1711Q421 1768 460 1807Q498 1846 555 1846Q611 1846 650 1807Q688 1768 688 1711Q688 1654 650 1616Q611 1577 555 1577M982 1577Q926 1577 887 1616Q848 1654 848 1711Q848 1768 887 1807Q926 1846 982 1846Q1038 1846 1077 1807Q1115 1768 1115 1711Q1115 1654 1077 1616Q1038 1577 982 1577M408 517Q408 363 502 270Q599 175 768 175Q938 175 1035 270Q1129 363 1129 517L1129 1443L1353 1443L1353 497Q1353 259 1196 114Q1036-35 768-35Q500-35 340 114Q184 259 184 497L184 1443L408 1443L408 517Z"  horiz-adv-x="1539" vert-adv-y="2048"  />

      
      <glyph glyph-name="unidd" unicode="&#xdd;" d="M578 0L578 582L70 1443L319 1443L682 818L699 818L1062 1443L1311 1443L802 582L802 0L578 0M869 1888L1127 1888L802 1582L572 1582L869 1888Z"  horiz-adv-x="1383" vert-adv-y="2048"  />

      
      <glyph glyph-name="unide" unicode="&#xde;" d="M404 1443L404 1192L754 1192Q940 1192 1064 1077Q1195 955 1195 756Q1195 558 1062 436Q936 320 747 320L404 320L404 0L180 0L180 1443L404 1443M404 517L691 517Q816 517 889 577Q966 640 966 756Q966 872 889 934Q816 993 691 993L404 993L404 517Z"  horiz-adv-x="1315" vert-adv-y="2048"  />

      
      <glyph glyph-name="unidf" unicode="&#xdf;" d="M212 0L212 1091Q212 1275 336 1383Q457 1490 660 1490Q856 1490 980 1385Q1104 1280 1104 1114Q1104 994 1040 903Q977 814 879 785L879 766Q1033 753 1122 660Q1214 563 1214 404Q1214 220 1087 104Q958-14 749-14Q650-14 591 0L591 191Q651 176 722 176Q853 176 927 242Q998 306 998 414Q998 524 915 587Q831 651 682 651L617 651L617 853L667 853Q771 853 832 913Q894 975 894 1086Q894 1178 833 1237Q770 1297 664 1297Q551 1297 489 1234Q426 1171 426 1055L426 0L212 0Z"  horiz-adv-x="1320" vert-adv-y="2048"  />

      
      <glyph glyph-name="unie0" unicode="&#xe0;" d="M511 163Q632 163 713 231Q793 299 793 401L793 492L527 475Q309 460 309 318Q309 246 366 204Q421 163 511 163M456-18Q296-18 196 70Q93 161 93 308Q93 454 198 538Q303 621 498 633L793 650L793 744Q793 924 570 924Q381 924 343 803L135 803Q151 943 273 1027Q394 1110 580 1110Q784 1110 896 1013Q1007 917 1007 744L1007 0L800 0L800 153L783 153Q681-18 456-18M494 1271L212 1615L464 1615L715 1271L494 1271Z"  horiz-adv-x="1158" vert-adv-y="2048"  />

      
      <glyph glyph-name="unie1" unicode="&#xe1;" d="M511 163Q632 163 713 231Q793 299 793 401L793 492L527 475Q309 460 309 318Q309 246 366 204Q421 163 511 163M456-18Q296-18 196 70Q93 161 93 308Q93 454 198 538Q303 621 498 633L793 650L793 744Q793 924 570 924Q381 924 343 803L135 803Q151 943 273 1027Q394 1110 580 1110Q784 1110 896 1013Q1007 917 1007 744L1007 0L800 0L800 153L783 153Q681-18 456-18M702 1615L954 1615L673 1271L451 1271L702 1615Z"  horiz-adv-x="1158" vert-adv-y="2048"  />

      
      <glyph glyph-name="unie2" unicode="&#xe2;" d="M511 163Q632 163 713 231Q793 299 793 401L793 492L527 475Q309 460 309 318Q309 246 366 204Q421 163 511 163M456-18Q296-18 196 70Q93 161 93 308Q93 454 198 538Q303 621 498 633L793 650L793 744Q793 924 570 924Q381 924 343 803L135 803Q151 943 273 1027Q394 1110 580 1110Q784 1110 896 1013Q1007 917 1007 744L1007 0L800 0L800 153L783 153Q681-18 456-18M976 1238L755 1238L588 1457L572 1457L405 1238L183 1238L463 1584L697 1584L976 1238Z"  horiz-adv-x="1158" vert-adv-y="2048"  />

      
      <glyph glyph-name="unie3" unicode="&#xe3;" d="M511 163Q632 163 713 231Q793 299 793 401L793 492L527 475Q309 460 309 318Q309 246 366 204Q421 163 511 163M456-18Q296-18 196 70Q93 161 93 308Q93 454 198 538Q303 621 498 633L793 650L793 744Q793 924 570 924Q381 924 343 803L135 803Q151 943 273 1027Q394 1110 580 1110Q784 1110 896 1013Q1007 917 1007 744L1007 0L800 0L800 153L783 153Q681-18 456-18M446 1392Q352 1392 352 1242L194 1242Q194 1382 259 1464Q324 1546 436 1546Q524 1546 606 1471Q688 1395 718 1395Q812 1395 812 1543L970 1543Q970 1403 905 1322Q840 1241 728 1241Q640 1241 558 1317Q476 1392 446 1392Z"  horiz-adv-x="1158" vert-adv-y="2048"  />

      
      <glyph glyph-name="unie4" unicode="&#xe4;" d="M511 163Q632 163 713 231Q793 299 793 401L793 492L527 475Q309 460 309 318Q309 246 366 204Q421 163 511 163M456-18Q296-18 196 70Q93 161 93 308Q93 454 198 538Q303 621 498 633L793 650L793 744Q793 924 570 924Q381 924 343 803L135 803Q151 943 273 1027Q394 1110 580 1110Q784 1110 896 1013Q1007 917 1007 744L1007 0L800 0L800 153L783 153Q681-18 456-18M367 1238Q310 1238 272 1277Q233 1315 233 1372Q233 1429 272 1468Q310 1507 367 1507Q423 1507 462 1468Q500 1429 500 1372Q500 1315 462 1277Q423 1238 367 1238M794 1238Q738 1238 699 1277Q660 1315 660 1372Q660 1429 699 1468Q738 1507 794 1507Q850 1507 889 1468Q927 1429 927 1372Q927 1315 889 1277Q850 1238 794 1238Z"  horiz-adv-x="1158" vert-adv-y="2048"  />

      
      <glyph glyph-name="unie5" unicode="&#xe5;" d="M511 163Q632 163 713 231Q793 299 793 401L793 492L527 475Q309 460 309 318Q309 246 366 204Q421 163 511 163M456-18Q296-18 196 70Q93 161 93 308Q93 454 198 538Q303 621 498 633L793 650L793 744Q793 924 570 924Q381 924 343 803L135 803Q151 943 273 1027Q394 1110 580 1110Q784 1110 896 1013Q1007 917 1007 744L1007 0L800 0L800 153L783 153Q681-18 456-18M580 1238Q481 1238 412 1305Q343 1373 343 1472Q343 1571 412 1638Q480 1705 580 1705Q680 1705 748 1638Q817 1571 817 1472Q817 1373 748 1305Q679 1238 580 1238M580 1357Q630 1357 663 1390Q696 1422 696 1472Q696 1521 663 1553Q630 1586 580 1586Q530 1586 497 1553Q464 1521 464 1472Q464 1422 497 1390Q530 1357 580 1357Z"  horiz-adv-x="1158" vert-adv-y="2048"  />

      
      <glyph glyph-name="unie6" unicode="&#xe6;" d="M1296-21Q1167-21 1060 39Q954 98 908 195L891 195Q771-21 485-21Q308-21 201 69Q93 159 93 308Q93 454 198 538Q303 621 498 633L793 650L793 744Q793 924 570 924Q381 924 343 803L135 803Q151 940 271 1025Q391 1110 569 1110Q821 1110 920 937L937 937Q989 1014 1082 1061Q1180 1110 1293 1110Q1512 1110 1637 966Q1762 823 1762 572L1762 493L1002 493L1002 472Q1007 331 1088 247Q1168 163 1298 163Q1478 163 1543 294L1750 294Q1712 145 1592 62Q1473-21 1296-21M1281 928Q1161 928 1086 853Q1010 778 1002 652L1544 652Q1540 774 1467 851Q1394 928 1281 928M519 161Q636 161 715 233Q793 305 793 407L793 492L527 475Q309 460 309 317Q309 244 367 202Q424 161 519 161Z"  horiz-adv-x="1865" vert-adv-y="2048"  />

      
      <glyph glyph-name="unie7" unicode="&#xe7;" d="M868 733Q848 816 784 865Q715 918 611 918Q476 918 399 820Q321 722 321 548Q321 372 399 271Q476 171 611 171Q825 171 868 350L1077 350Q1058 201 959 104Q858 5 695-16L650-129Q749-131 804-175Q858-219 858-298Q858-388 792-440Q724-494 606-494Q519-494 459-476L459-357Q505-371 579-371Q695-371 695-304Q695-243 553-243L494-243L494-145L546-18Q337 3 219 152Q101 301 101 548Q101 810 237 960Q373 1110 611 1110Q810 1110 936 1003Q1055 902 1077 733L868 733Z"  horiz-adv-x="1167" vert-adv-y="2048"  />

      
      <glyph glyph-name="unie8" unicode="&#xe8;" d="M517 1271L235 1615L487 1615L738 1271L517 1271M602 927Q483 927 406 850Q329 773 320 645L870 645Q866 774 794 850Q721 927 602 927M1076 294Q1039 147 915 63Q790-21 604-21Q370-21 236 130Q101 280 101 541Q101 802 237 956Q373 1110 603 1110Q830 1110 960 964Q1089 818 1089 561L1089 486L320 486L320 474Q325 330 403 246Q481 162 610 162Q807 162 869 294L1076 294Z"  horiz-adv-x="1192" vert-adv-y="2048"  />

      
      <glyph glyph-name="unie9" unicode="&#xe9;" d="M725 1615L977 1615L696 1271L474 1271L725 1615M602 927Q483 927 406 850Q329 773 320 645L870 645Q866 774 794 850Q721 927 602 927M1076 294Q1039 147 915 63Q790-21 604-21Q370-21 236 130Q101 280 101 541Q101 802 237 956Q373 1110 603 1110Q830 1110 960 964Q1089 818 1089 561L1089 486L320 486L320 474Q325 330 403 246Q481 162 610 162Q807 162 869 294L1076 294Z"  horiz-adv-x="1192" vert-adv-y="2048"  />

      
      <glyph glyph-name="uniea" unicode="&#xea;" d="M999 1238L778 1238L611 1457L595 1457L428 1238L206 1238L486 1584L720 1584L999 1238M602 927Q483 927 406 850Q329 773 320 645L870 645Q866 774 794 850Q721 927 602 927M1076 294Q1039 147 915 63Q790-21 604-21Q370-21 236 130Q101 280 101 541Q101 802 237 956Q373 1110 603 1110Q830 1110 960 964Q1089 818 1089 561L1089 486L320 486L320 474Q325 330 403 246Q481 162 610 162Q807 162 869 294L1076 294Z"  horiz-adv-x="1192" vert-adv-y="2048"  />

      
      <glyph glyph-name="unieb" unicode="&#xeb;" d="M602 927Q483 927 406 850Q329 773 320 645L870 645Q866 774 794 850Q721 927 602 927M1076 294Q1039 147 915 63Q790-21 604-21Q370-21 236 130Q101 280 101 541Q101 802 237 956Q373 1110 603 1110Q830 1110 960 964Q1089 818 1089 561L1089 486L320 486L320 474Q325 330 403 246Q481 162 610 162Q807 162 869 294L1076 294M390 1238Q333 1238 295 1277Q256 1315 256 1372Q256 1429 295 1468Q333 1507 390 1507Q446 1507 485 1468Q523 1429 523 1372Q523 1315 485 1277Q446 1238 390 1238M817 1238Q761 1238 722 1277Q683 1315 683 1372Q683 1429 722 1468Q761 1507 817 1507Q873 1507 912 1468Q950 1429 950 1372Q950 1315 912 1277Q873 1238 817 1238Z"  horiz-adv-x="1192" vert-adv-y="2048"  />

      
      <glyph glyph-name="uniec" unicode="&#xec;" d="M186 1271L-96 1615L156 1615L407 1271L186 1271M164 1089L379 1089L379 0L164 0L164 1089Z"  horiz-adv-x="544" vert-adv-y="2048"  />

      
      <glyph glyph-name="unied" unicode="&#xed;" d="M393 1615L645 1615L364 1271L142 1271L393 1615M163 1089L378 1089L378 0L163 0L163 1089Z"  horiz-adv-x="544" vert-adv-y="2048"  />

      
      <glyph glyph-name="uniee" unicode="&#xee;" d="M668 1238L447 1238L280 1457L264 1457L97 1238L-125 1238L155 1584L389 1584L668 1238M164 1089L379 1089L379 0L164 0L164 1089Z"  horiz-adv-x="544" vert-adv-y="2048"  />

      
      <glyph glyph-name="unief" unicode="&#xef;" d="M164 1089L379 1089L379 0L164 0L164 1089M59 1238Q2 1238-36 1277Q-75 1315-75 1372Q-75 1429-36 1468Q2 1507 59 1507Q115 1507 154 1468Q192 1429 192 1372Q192 1315 154 1277Q115 1238 59 1238M486 1238Q430 1238 391 1277Q352 1315 352 1372Q352 1429 391 1468Q430 1507 486 1507Q542 1507 581 1468Q619 1429 619 1372Q619 1315 581 1277Q542 1238 486 1238Z"  horiz-adv-x="544" vert-adv-y="2048"  />

      
      <glyph glyph-name="unif0" unicode="&#xf0;" d="M613-18Q378-18 241 129Q103 276 103 526Q103 763 229 909Q354 1055 558 1055Q655 1055 741 1013Q826 971 863 905L879 905Q835 1070 701 1226L420 1134L378 1259L608 1335Q544 1402 393 1522L656 1522Q726 1466 791 1398L1046 1483L1089 1357L882 1289Q1118 985 1118 585Q1118 308 982 145Q845-18 613-18M616 876Q483 876 403 781Q324 686 324 526Q324 366 403 270Q482 175 616 175Q750 175 830 270Q909 365 909 525Q909 685 829 780Q749 876 616 876Z"  horiz-adv-x="1220" vert-adv-y="2048"  />

      
      <glyph glyph-name="unif1" unicode="&#xf1;" d="M506 1392Q412 1392 412 1242L254 1242Q254 1382 319 1464Q384 1546 496 1546Q584 1546 666 1471Q748 1395 778 1395Q872 1395 872 1543L1030 1543Q1030 1403 965 1322Q900 1241 788 1241Q700 1241 618 1317Q536 1392 506 1392M155 1089L362 1089L362 916L378 916Q418 1007 508 1058Q599 1110 722 1110Q904 1110 1003 1005Q1102 899 1102 705L1102 0L887 0L887 651Q887 913 649 913Q519 913 445 839Q370 765 370 637L370 0L155 0L155 1089Z"  horiz-adv-x="1249" vert-adv-y="2048"  />

      
      <glyph glyph-name="unif2" unicode="&#xf2;" d="M529 1271L247 1615L499 1615L750 1271L529 1271M615 170Q754 170 831 269Q907 367 907 545Q907 722 831 821Q754 919 615 919Q475 919 399 821Q323 723 323 545Q323 366 399 268Q475 170 615 170M615-21Q375-21 238 130Q101 281 101 545Q101 808 239 959Q376 1110 615 1110Q853 1110 990 959Q1128 808 1128 545Q1128 281 991 130Q854-21 615-21Z"  horiz-adv-x="1231" vert-adv-y="2048"  />

      
      <glyph glyph-name="unif3" unicode="&#xf3;" d="M737 1615L989 1615L708 1271L486 1271L737 1615M615 170Q754 170 831 269Q907 367 907 545Q907 722 831 821Q754 919 615 919Q475 919 399 821Q323 723 323 545Q323 366 399 268Q475 170 615 170M615-21Q375-21 238 130Q101 281 101 545Q101 808 239 959Q376 1110 615 1110Q853 1110 990 959Q1128 808 1128 545Q1128 281 991 130Q854-21 615-21Z"  horiz-adv-x="1231" vert-adv-y="2048"  />

      
      <glyph glyph-name="unif4" unicode="&#xf4;" d="M1011 1238L790 1238L623 1457L607 1457L440 1238L218 1238L498 1584L732 1584L1011 1238M615 170Q754 170 831 269Q907 367 907 545Q907 722 831 821Q754 919 615 919Q475 919 399 821Q323 723 323 545Q323 366 399 268Q475 170 615 170M615-21Q375-21 238 130Q101 281 101 545Q101 808 239 959Q376 1110 615 1110Q853 1110 990 959Q1128 808 1128 545Q1128 281 991 130Q854-21 615-21Z"  horiz-adv-x="1231" vert-adv-y="2048"  />

      
      <glyph glyph-name="unif5" unicode="&#xf5;" d="M481 1392Q387 1392 387 1242L229 1242Q229 1382 294 1464Q359 1546 471 1546Q559 1546 641 1471Q723 1395 753 1395Q847 1395 847 1543L1005 1543Q1005 1403 940 1322Q875 1241 763 1241Q675 1241 593 1317Q511 1392 481 1392M615 170Q754 170 831 269Q907 367 907 545Q907 722 831 821Q754 919 615 919Q475 919 399 821Q323 723 323 545Q323 366 399 268Q475 170 615 170M615-21Q375-21 238 130Q101 281 101 545Q101 808 239 959Q376 1110 615 1110Q853 1110 990 959Q1128 808 1128 545Q1128 281 991 130Q854-21 615-21Z"  horiz-adv-x="1231" vert-adv-y="2048"  />

      
      <glyph glyph-name="unif6" unicode="&#xf6;" d="M402 1238Q345 1238 307 1277Q268 1315 268 1372Q268 1429 307 1468Q345 1507 402 1507Q458 1507 497 1468Q535 1429 535 1372Q535 1315 497 1277Q458 1238 402 1238M829 1238Q773 1238 734 1277Q695 1315 695 1372Q695 1429 734 1468Q773 1507 829 1507Q885 1507 924 1468Q962 1429 962 1372Q962 1315 924 1277Q885 1238 829 1238M615 170Q754 170 831 269Q907 367 907 545Q907 722 831 821Q754 919 615 919Q475 919 399 821Q323 723 323 545Q323 366 399 268Q475 170 615 170M615-21Q375-21 238 130Q101 281 101 545Q101 808 239 959Q376 1110 615 1110Q853 1110 990 959Q1128 808 1128 545Q1128 281 991 130Q854-21 615-21Z"  horiz-adv-x="1231" vert-adv-y="2048"  />

      
      <glyph glyph-name="unif7" unicode="&#xf7;" d="M159 491L159 673L1199 673L1199 491L159 491M679 813Q618 813 579 852Q539 892 539 954Q539 1016 579 1056Q618 1095 679 1095Q741 1095 780 1056Q819 1016 819 954Q819 892 780 852Q741 813 679 813M679 68Q618 68 579 108Q539 147 539 210Q539 271 579 311Q618 351 679 351Q740 351 780 311Q819 272 819 210Q819 147 780 108Q741 68 679 68Z"  horiz-adv-x="1359" vert-adv-y="2048"  />

      
      <glyph glyph-name="unif8" unicode="&#xf8;" d="M465 209Q528 170 615 170Q754 170 831 269Q907 367 907 545Q907 701 848 795L465 209M761 882Q698 919 615 919Q475 919 399 821Q323 723 323 545Q323 393 378 300L761 882M969 981Q1128 828 1128 545Q1128 281 991 130Q854-21 615-21Q468-21 354 39L294-53L190 14L255 113Q101 264 101 545Q101 808 239 959Q376 1110 615 1110Q762 1110 872 1051L932 1142L1034 1080L969 981Z"  horiz-adv-x="1231" vert-adv-y="2048"  />

      
      <glyph glyph-name="unif9" unicode="&#xf9;" d="M539 1271L257 1615L509 1615L760 1271L539 1271M1094 0L888 0L888 173L871 173Q788-21 530-21Q348-21 247 85Q145 191 145 384L145 1089L360 1089L360 438Q360 178 600 178Q730 178 805 251Q880 324 880 452L880 1089L1094 1089L1094 0Z"  horiz-adv-x="1257" vert-adv-y="2048"  />

      
      <glyph glyph-name="unifa" unicode="&#xfa;" d="M747 1615L999 1615L718 1271L496 1271L747 1615M1094 0L888 0L888 173L871 173Q788-21 530-21Q348-21 247 85Q145 191 145 384L145 1089L360 1089L360 438Q360 178 600 178Q730 178 805 251Q880 324 880 452L880 1089L1094 1089L1094 0Z"  horiz-adv-x="1257" vert-adv-y="2048"  />

      
      <glyph glyph-name="unifb" unicode="&#xfb;" d="M1021 1238L800 1238L633 1457L617 1457L450 1238L228 1238L508 1584L742 1584L1021 1238M1094 0L888 0L888 173L871 173Q788-21 530-21Q348-21 247 85Q145 191 145 384L145 1089L360 1089L360 438Q360 178 600 178Q730 178 805 251Q880 324 880 452L880 1089L1094 1089L1094 0Z"  horiz-adv-x="1257" vert-adv-y="2048"  />

      
      <glyph glyph-name="unifc" unicode="&#xfc;" d="M1094 0L888 0L888 173L871 173Q788-21 530-21Q348-21 247 85Q145 191 145 384L145 1089L360 1089L360 438Q360 178 600 178Q730 178 805 251Q880 324 880 452L880 1089L1094 1089L1094 0M412 1238Q355 1238 317 1277Q278 1315 278 1372Q278 1429 317 1468Q355 1507 412 1507Q468 1507 507 1468Q545 1429 545 1372Q545 1315 507 1277Q468 1238 412 1238M839 1238Q783 1238 744 1277Q705 1315 705 1372Q705 1429 744 1468Q783 1507 839 1507Q895 1507 934 1468Q972 1429 972 1372Q972 1315 934 1277Q895 1238 839 1238Z"  horiz-adv-x="1257" vert-adv-y="2048"  />

      
      <glyph glyph-name="unifd" unicode="&#xfd;" d="M263-396Q199-396 174-391L174-206Q197-210 244-210Q321-210 367-175Q413-139 441-57L457-4L63 1089L297 1089L570 224L587 224L859 1089L1087 1089L681-45Q611-244 520-320Q430-396 263-396M695 1615L947 1615L666 1271L444 1271L695 1615Z"  horiz-adv-x="1152" vert-adv-y="2048"  />

      
      <glyph glyph-name="unife" unicode="&#xfe;" d="M729 1107Q937 1107 1059 956Q1181 804 1181 545Q1181 286 1059 134Q937-18 730-18Q486-18 395 165L378 165L378-353L163-353L163 1506L372 1506L372 909L388 909Q438 1002 528 1055Q618 1107 729 1107M667 175Q804 175 882 273Q959 372 959 545Q959 718 882 816Q804 914 668 914Q532 914 453 815Q374 715 374 544Q374 374 453 274Q532 175 667 175Z"  horiz-adv-x="1287" vert-adv-y="2048"  />

      
      <glyph glyph-name="uniff" unicode="&#xff;" d="M263-396Q199-396 174-391L174-206Q197-210 244-210Q321-210 367-175Q413-139 441-57L457-4L63 1089L297 1089L570 224L587 224L859 1089L1087 1089L681-45Q611-244 520-320Q430-396 263-396M360 1238Q303 1238 265 1277Q226 1315 226 1372Q226 1429 265 1468Q303 1507 360 1507Q416 1507 455 1468Q493 1429 493 1372Q493 1315 455 1277Q416 1238 360 1238M787 1238Q731 1238 692 1277Q653 1315 653 1372Q653 1429 692 1468Q731 1507 787 1507Q843 1507 882 1468Q920 1429 920 1372Q920 1315 882 1277Q843 1238 787 1238Z"  horiz-adv-x="1152" vert-adv-y="2048"  />

      
      <glyph glyph-name="uni0100" unicode="&#x0100;" d="M982 383L432 383L299 0L69 0L590 1443L831 1443L1352 0L1114 0L982 383M489 571L925 571L716 1181L699 1181L489 571M361 1625L361 1781L1061 1781L1061 1625L361 1625Z"  horiz-adv-x="1423" vert-adv-y="2048"  />

      
      <glyph glyph-name="uni0101" unicode="&#x0101;" d="M511 163Q632 163 713 231Q793 299 793 401L793 492L527 475Q309 460 309 318Q309 246 366 204Q421 163 511 163M456-18Q296-18 196 70Q93 161 93 308Q93 454 198 538Q303 621 498 633L793 650L793 744Q793 924 570 924Q381 924 343 803L135 803Q151 943 273 1027Q394 1110 580 1110Q784 1110 896 1013Q1007 917 1007 744L1007 0L800 0L800 153L783 153Q681-18 456-18M232 1299L232 1454L928 1454L928 1299L232 1299Z"  horiz-adv-x="1158" vert-adv-y="2048"  />

      
      <glyph glyph-name="uni0102" unicode="&#x0102;" d="M982 383L432 383L299 0L69 0L590 1443L831 1443L1352 0L1114 0L982 383M489 571L925 571L716 1181L699 1181L489 571M507 1891Q508 1813 563 1768Q618 1722 711 1722Q804 1722 860 1768Q914 1813 915 1891L1088 1891Q1088 1749 987 1664Q885 1577 711 1577Q537 1577 435 1664Q334 1749 334 1891L507 1891Z"  horiz-adv-x="1423" vert-adv-y="2048"  />

      
      <glyph glyph-name="uni0103" unicode="&#x0103;" d="M511 163Q632 163 713 231Q793 299 793 401L793 492L527 475Q309 460 309 318Q309 246 366 204Q421 163 511 163M456-18Q296-18 196 70Q93 161 93 308Q93 454 198 538Q303 621 498 633L793 650L793 744Q793 924 570 924Q381 924 343 803L135 803Q151 943 273 1027Q394 1110 580 1110Q784 1110 896 1013Q1007 917 1007 744L1007 0L800 0L800 153L783 153Q681-18 456-18M374 1576Q375 1491 428 1439Q483 1386 578 1386Q673 1386 728 1439Q781 1491 782 1576L955 1576Q955 1426 855 1334Q751 1238 578 1238Q405 1238 301 1334Q201 1426 201 1576L374 1576Z"  horiz-adv-x="1158" vert-adv-y="2048"  />

      
      <glyph glyph-name="uni0104" unicode="&#x0104;" d="M489 571L925 571L716 1181L699 1181L489 571M1364-426Q1322-448 1233-448Q1120-448 1054-388Q987-328 987-227Q987-85 1131 21L1106 21L982 383L432 383L299 0L69 0L590 1443L831 1443L1348 10L1327 10Q1167-68 1167-190Q1167-238 1200-266Q1233-295 1289-295Q1330-295 1364-286L1364-426Z"  horiz-adv-x="1423" vert-adv-y="2048"  />

      
      <glyph glyph-name="uni0105" unicode="&#x0105;" d="M515 163Q633 163 713 231Q793 300 793 401L793 501L531 487Q309 473 309 325Q309 251 365 207Q421 163 515 163M1035-426Q988-448 905-448Q798-448 732-389Q667-329 667-232Q667-81 819 17L800 17L800 153L783 153Q681-18 453-18Q292-18 193 74Q93 165 93 315Q93 461 199 546Q305 631 504 642L793 659L793 744Q791 924 570 924Q381 924 343 803L135 803Q151 943 273 1027Q394 1110 580 1110Q784 1110 896 1013Q1007 917 1007 744L1007 14L992 14Q841-72 841-183Q841-234 873-264Q906-295 959-295Q1008-295 1035-286L1035-426Z"  horiz-adv-x="1158" vert-adv-y="2048"  />

      
      <glyph glyph-name="uni0106" unicode="&#x0106;" d="M950 1890L1208 1890L883 1584L653 1584L950 1890M772-35Q471-35 296 168Q121 371 121 721Q121 1072 296 1275Q470 1478 771 1478Q1009 1478 1177 1338Q1344 1199 1371 978L1148 978Q1116 1111 1015 1190Q913 1269 771 1269Q577 1269 463 1121Q350 974 350 721Q350 469 464 322Q577 174 772 174Q915 174 1017 246Q1118 318 1148 440L1371 440Q1341 226 1177 96Q1013-35 772-35Z"  horiz-adv-x="1485" vert-adv-y="2048"  />

      
      <glyph glyph-name="uni0107" unicode="&#x0107;" d="M868 733Q848 816 784 865Q715 918 611 918Q476 918 399 820Q321 722 321 548Q321 372 399 271Q476 171 611 171Q825 171 868 350L1077 350Q1056 182 935 82Q810-21 612-21Q374-21 238 130Q101 282 101 548Q101 810 237 960Q373 1110 611 1110Q810 1110 936 1003Q1055 902 1077 733L868 733M732 1615L984 1615L703 1271L481 1271L732 1615Z"  horiz-adv-x="1167" vert-adv-y="2048"  />

      
      <glyph glyph-name="uni0108" unicode="&#x0108;" d="M772-35Q471-35 296 168Q121 371 121 721Q121 1072 296 1275Q470 1478 771 1478Q1009 1478 1177 1338Q1344 1199 1371 978L1148 978Q1116 1111 1015 1190Q913 1269 771 1269Q577 1269 463 1121Q350 974 350 721Q350 469 464 322Q577 174 772 174Q915 174 1017 246Q1118 318 1148 440L1371 440Q1341 226 1177 96Q1013-35 772-35M1167 1584L942 1584L779 1765L763 1765L600 1584L375 1584L670 1898L872 1898L1167 1584Z"  horiz-adv-x="1485" vert-adv-y="2048"  />

      
      <glyph glyph-name="uni0109" unicode="&#x0109;" d="M1006 1238L785 1238L618 1457L602 1457L435 1238L213 1238L493 1584L727 1584L1006 1238M868 733Q848 816 784 865Q715 918 611 918Q476 918 399 820Q321 722 321 548Q321 372 399 271Q476 171 611 171Q825 171 868 350L1077 350Q1056 182 935 82Q810-21 612-21Q374-21 238 130Q101 282 101 548Q101 810 237 960Q373 1110 611 1110Q810 1110 936 1003Q1055 902 1077 733L868 733Z"  horiz-adv-x="1167" vert-adv-y="2048"  />

      
      <glyph glyph-name="uni010A" unicode="&#x010A;" d="M771 1579Q714 1579 676 1619Q637 1658 637 1716Q637 1774 676 1813Q714 1853 771 1853Q828 1853 867 1813Q905 1774 905 1716Q905 1658 867 1619Q828 1579 771 1579M772-35Q471-35 296 168Q121 371 121 721Q121 1072 296 1275Q470 1478 771 1478Q1009 1478 1177 1338Q1344 1199 1371 978L1148 978Q1116 1111 1015 1190Q913 1269 771 1269Q577 1269 463 1121Q350 974 350 721Q350 469 464 322Q577 174 772 174Q915 174 1017 246Q1118 318 1148 440L1371 440Q1341 226 1177 96Q1013-35 772-35Z"  horiz-adv-x="1485" vert-adv-y="2048"  />

      
      <glyph glyph-name="uni010B" unicode="&#x010B;" d="M868 733Q848 816 784 865Q715 918 611 918Q476 918 399 820Q321 722 321 548Q321 372 399 271Q476 171 611 171Q825 171 868 350L1077 350Q1056 182 935 82Q810-21 612-21Q374-21 238 130Q101 282 101 548Q101 810 237 960Q373 1110 611 1110Q810 1110 936 1003Q1055 902 1077 733L868 733M610 1283Q551 1283 510 1324Q470 1366 470 1425Q470 1484 510 1526Q551 1567 610 1567Q668 1567 709 1526Q750 1484 750 1425Q750 1366 709 1324Q668 1283 610 1283Z"  horiz-adv-x="1167" vert-adv-y="2048"  />

      
      <glyph glyph-name="uni010C" unicode="&#x010C;" d="M772-35Q471-35 296 168Q121 371 121 721Q121 1072 296 1275Q470 1478 771 1478Q1009 1478 1177 1338Q1344 1199 1371 978L1148 978Q1116 1111 1015 1190Q913 1269 771 1269Q577 1269 463 1121Q350 974 350 721Q350 469 464 322Q577 174 772 174Q915 174 1017 246Q1118 318 1148 440L1371 440Q1341 226 1177 96Q1013-35 772-35M673 1584L380 1890L600 1890L762 1715L780 1715L942 1890L1162 1890L869 1584L673 1584Z"  horiz-adv-x="1485" vert-adv-y="2048"  />

      
      <glyph glyph-name="uni010D" unicode="&#x010D;" d="M493 1238L213 1584L435 1584L602 1365L618 1365L785 1584L1006 1584L727 1238L493 1238M868 733Q848 816 784 865Q715 918 611 918Q476 918 399 820Q321 722 321 548Q321 372 399 271Q476 171 611 171Q825 171 868 350L1077 350Q1056 182 935 82Q810-21 612-21Q374-21 238 130Q101 282 101 548Q101 810 237 960Q373 1110 611 1110Q810 1110 936 1003Q1055 902 1077 733L868 733Z"  horiz-adv-x="1167" vert-adv-y="2048"  />

      
      <glyph glyph-name="uni010E" unicode="&#x010E;" d="M511 1582L218 1888L438 1888L600 1713L618 1713L780 1888L1000 1888L707 1582L511 1582M701 1443Q1022 1443 1201 1255Q1380 1066 1380 726Q1380 380 1202 190Q1024 0 701 0L180 0L180 1443L701 1443M404 204L676 204Q903 204 1027 339Q1152 475 1152 723Q1152 967 1026 1103Q901 1239 676 1239L404 1239L404 204Z"  horiz-adv-x="1502" vert-adv-y="2048"  />

      
      <glyph glyph-name="uni010F" unicode="&#x010F;" d="M1438 1514L1388 1018L1239 1018L1239 1514L1438 1514M553-18Q345-18 223 134Q101 286 101 545Q101 803 224 955Q346 1107 553 1107Q665 1107 754 1057Q843 1006 887 916L903 916L903 1514L1118 1514L1118 0L912 0L912 172L895 172Q791-18 553-18M614 914Q478 914 401 815Q323 717 323 545Q323 372 400 273Q478 175 614 175Q750 175 828 274Q907 373 907 544Q907 714 828 814Q749 914 614 914Z"  horiz-adv-x="1416" vert-adv-y="2048"  />

      
      <glyph glyph-name="uni0110" unicode="&#x0110;" d="M676 204Q903 204 1027 339Q1152 475 1152 723Q1152 967 1026 1103Q901 1239 676 1239L404 1239L404 834L632 834L632 643L404 643L404 204L676 204M701 1443Q1022 1443 1201 1255Q1380 1066 1380 726Q1380 380 1202 190Q1024 0 701 0L180 0L180 643L25 643L25 834L180 834L180 1443L701 1443Z"  horiz-adv-x="1474" vert-adv-y="2048"  />

      
      <glyph glyph-name="uni0111" unicode="&#x0111;" d="M618 175Q754 175 833 274Q911 373 911 544Q911 715 832 814Q754 914 618 914Q482 914 405 816Q327 717 327 545Q327 371 405 273Q482 175 618 175M1246 1275L1122 1275L1122 0L914 0L914 172L897 172Q794-18 556-18Q349-18 227 134Q105 286 105 545Q105 803 228 955Q350 1107 557 1107Q670 1107 759 1056Q847 1005 892 916L908 916L908 1275L661 1275L661 1411L908 1411L908 1560L1122 1560L1122 1411L1246 1411L1246 1275Z"  horiz-adv-x="1289" vert-adv-y="2048"  />

      
      <glyph glyph-name="uni0112" unicode="&#x0112;" d="M1096 0L180 0L180 1443L1096 1443L1096 1239L404 1239L404 831L1059 831L1059 637L404 637L404 204L1096 204L1096 0M288 1625L288 1781L988 1781L988 1625L288 1625Z"  horiz-adv-x="1239" vert-adv-y="2048"  />

      
      <glyph glyph-name="uni0113" unicode="&#x0113;" d="M602 927Q483 927 406 850Q329 773 320 645L870 645Q866 774 794 850Q721 927 602 927M1076 294Q1039 147 915 63Q790-21 604-21Q370-21 236 130Q101 280 101 541Q101 802 237 956Q373 1110 603 1110Q830 1110 960 964Q1089 818 1089 561L1089 486L320 486L320 474Q325 330 403 246Q481 162 610 162Q807 162 869 294L1076 294M255 1299L255 1454L951 1454L951 1299L255 1299Z"  horiz-adv-x="1192" vert-adv-y="2048"  />

      
      <glyph glyph-name="uni0114" unicode="&#x0114;" d="M1096 0L180 0L180 1443L1096 1443L1096 1239L404 1239L404 831L1059 831L1059 637L404 637L404 204L1096 204L1096 0M434 1891Q435 1813 490 1768Q545 1722 638 1722Q731 1722 787 1768Q841 1813 842 1891L1015 1891Q1015 1749 914 1664Q812 1577 638 1577Q464 1577 362 1664Q261 1749 261 1891L434 1891Z"  horiz-adv-x="1239" vert-adv-y="2048"  />

      
      <glyph glyph-name="uni0115" unicode="&#x0115;" d="M602 927Q483 927 406 850Q329 773 320 645L870 645Q866 774 794 850Q721 927 602 927M1076 294Q1039 147 915 63Q790-21 604-21Q370-21 236 130Q101 280 101 541Q101 802 237 956Q373 1110 603 1110Q830 1110 960 964Q1089 818 1089 561L1089 486L320 486L320 474Q325 330 403 246Q481 162 610 162Q807 162 869 294L1076 294M397 1576Q398 1491 451 1439Q506 1386 601 1386Q696 1386 751 1439Q804 1491 805 1576L978 1576Q978 1426 878 1334Q774 1238 601 1238Q428 1238 324 1334Q224 1426 224 1576L397 1576Z"  horiz-adv-x="1192" vert-adv-y="2048"  />

      
      <glyph glyph-name="uni0116" unicode="&#x0116;" d="M638 1577Q581 1577 543 1617Q504 1656 504 1714Q504 1772 543 1811Q581 1851 638 1851Q695 1851 734 1811Q772 1772 772 1714Q772 1656 734 1617Q695 1577 638 1577M1096 0L180 0L180 1443L1096 1443L1096 1239L404 1239L404 831L1059 831L1059 637L404 637L404 204L1096 204L1096 0Z"  horiz-adv-x="1239" vert-adv-y="2048"  />

      
      <glyph glyph-name="uni0117" unicode="&#x0117;" d="M603 1283Q544 1283 503 1324Q463 1366 463 1425Q463 1484 503 1526Q544 1567 603 1567Q661 1567 702 1526Q743 1484 743 1425Q743 1366 702 1324Q661 1283 603 1283M602 927Q483 927 406 850Q329 773 320 645L870 645Q866 774 794 850Q721 927 602 927M1076 294Q1039 147 915 63Q790-21 604-21Q370-21 236 130Q101 280 101 541Q101 802 237 956Q373 1110 603 1110Q830 1110 960 964Q1089 818 1089 561L1089 486L320 486L320 474Q325 330 403 246Q481 162 610 162Q807 162 869 294L1076 294Z"  horiz-adv-x="1192" vert-adv-y="2048"  />

      
      <glyph glyph-name="uni0118" unicode="&#x0118;" d="M180 0L180 1443L1096 1443L1096 1239L404 1239L404 831L1059 831L1059 637L404 637L404 204L1096 204L1096 36Q899-55 899-183Q899-234 932-264Q965-295 1021-295Q1069-295 1096-286L1096-426Q1054-448 965-448Q853-448 786-389Q719-330 719-232Q719-90 854 0L180 0Z"  horiz-adv-x="1239" vert-adv-y="2048"  />

      
      <glyph glyph-name="uni0119" unicode="&#x0119;" d="M791-448Q686-448 621-391Q556-335 556-243Q556-134 659-33L659-16Q637-21 598-21Q367-19 234 131Q101 282 101 541Q101 803 237 956Q373 1110 603 1110Q830 1110 960 964Q1089 818 1089 561L1089 486L320 486L320 474Q325 330 404 246Q482 162 610 162Q806 162 869 294L1076 294Q1047 172 880 30Q731-100 731-195Q731-240 761-267Q790-295 839-295Q885-295 922-286L922-426Q881-448 791-448M602 927Q483 927 406 850Q329 773 320 645L870 645Q866 774 794 850Q721 927 602 927Z"  horiz-adv-x="1192" vert-adv-y="2048"  />

      
      <glyph glyph-name="uni011A" unicode="&#x011A;" d="M540 1582L247 1888L467 1888L629 1713L647 1713L809 1888L1029 1888L736 1582L540 1582M1096 0L180 0L180 1443L1096 1443L1096 1239L404 1239L404 831L1059 831L1059 637L404 637L404 204L1096 204L1096 0Z"  horiz-adv-x="1239" vert-adv-y="2048"  />

      
      <glyph glyph-name="uni011B" unicode="&#x011B;" d="M486 1238L206 1584L428 1584L595 1365L611 1365L778 1584L999 1584L720 1238L486 1238M602 927Q483 927 406 850Q329 773 320 645L870 645Q866 774 794 850Q721 927 602 927M1076 294Q1039 147 915 63Q790-21 604-21Q370-21 236 130Q101 280 101 541Q101 802 237 956Q373 1110 603 1110Q830 1110 960 964Q1089 818 1089 561L1089 486L320 486L320 474Q325 330 403 246Q481 162 610 162Q807 162 869 294L1076 294Z"  horiz-adv-x="1192" vert-adv-y="2048"  />

      
      <glyph glyph-name="uni011C" unicode="&#x011C;" d="M1182 1582L957 1582L794 1763L778 1763L615 1582L390 1582L685 1896L887 1896L1182 1582M1411 571Q1411 294 1241 130Q1072-35 788-35Q481-35 301 169Q121 373 121 722Q121 1067 302 1273Q483 1478 786 1478Q1032 1478 1198 1349Q1364 1219 1401 1000L1176 1000Q1089 1269 786 1269Q586 1269 468 1122Q350 974 350 724Q350 469 469 322Q587 174 791 174Q968 174 1079 273Q1190 372 1191 532L1191 563L819 563L819 751L1411 751L1411 571Z"  horiz-adv-x="1539" vert-adv-y="2048"  />

      
      <glyph glyph-name="uni011D" unicode="&#x011D;" d="M1007 1238L786 1238L619 1457L603 1457L436 1238L214 1238L494 1584L728 1584L1007 1238M906 558Q906 721 827 817Q748 914 611 914Q474 914 397 817Q322 723 322 558Q322 393 397 299Q474 202 611 202Q748 202 828 298Q906 394 906 558M614-416Q412-416 285-332Q160-249 143-109L363-109Q377-169 442-204Q510-239 617-239Q751-239 827-178Q902-118 902-10L902 199L886 199Q784 16 550 16Q343 16 221 164Q100 311 100 557Q100 807 222 957Q344 1107 552 1107Q664 1107 756 1055Q848 1004 894 915L911 915L911 1089L1117 1089L1117-9Q1117-196 981-306Q845-416 614-416Z"  horiz-adv-x="1274" vert-adv-y="2048"  />

      
      <glyph glyph-name="uni011E" unicode="&#x011E;" d="M1411 571Q1411 294 1241 130Q1072-35 788-35Q481-35 301 169Q121 373 121 722Q121 1067 302 1273Q483 1478 786 1478Q1032 1478 1198 1349Q1364 1219 1401 1000L1176 1000Q1089 1269 786 1269Q586 1269 468 1122Q350 974 350 724Q350 469 469 322Q587 174 791 174Q968 174 1079 273Q1190 372 1191 532L1191 563L819 563L819 751L1411 751L1411 571M582 1891Q583 1813 638 1768Q693 1722 786 1722Q879 1722 935 1768Q989 1813 990 1891L1163 1891Q1163 1749 1062 1664Q960 1577 786 1577Q612 1577 510 1664Q409 1749 409 1891L582 1891Z"  horiz-adv-x="1539" vert-adv-y="2048"  />

      
      <glyph glyph-name="uni011F" unicode="&#x011F;" d="M405 1576Q406 1491 459 1439Q514 1386 609 1386Q704 1386 759 1439Q812 1491 813 1576L986 1576Q986 1426 886 1334Q782 1238 609 1238Q436 1238 332 1334Q232 1426 232 1576L405 1576M906 558Q906 721 827 817Q748 914 611 914Q474 914 397 817Q322 723 322 558Q322 393 397 299Q474 202 611 202Q748 202 828 298Q906 394 906 558M614-416Q412-416 285-332Q160-249 143-109L363-109Q377-169 442-204Q510-239 617-239Q751-239 827-178Q902-118 902-10L902 199L886 199Q784 16 550 16Q343 16 221 164Q100 311 100 557Q100 807 222 957Q344 1107 552 1107Q664 1107 756 1055Q848 1004 894 915L911 915L911 1089L1117 1089L1117-9Q1117-196 981-306Q845-416 614-416Z"  horiz-adv-x="1274" vert-adv-y="2048"  />

      
      <glyph glyph-name="uni0120" unicode="&#x0120;" d="M786 1577Q729 1577 691 1617Q652 1656 652 1714Q652 1772 691 1811Q729 1851 786 1851Q843 1851 882 1811Q920 1772 920 1714Q920 1656 882 1617Q843 1577 786 1577M1411 571Q1411 294 1241 130Q1072-35 788-35Q481-35 301 169Q121 373 121 722Q121 1067 302 1273Q483 1478 786 1478Q1032 1478 1198 1349Q1364 1219 1401 1000L1176 1000Q1089 1269 786 1269Q586 1269 468 1122Q350 974 350 724Q350 469 469 322Q587 174 791 174Q968 174 1079 273Q1190 372 1191 532L1191 563L819 563L819 751L1411 751L1411 571Z"  horiz-adv-x="1539" vert-adv-y="2048"  />

      
      <glyph glyph-name="uni0121" unicode="&#x0121;" d="M611 1283Q552 1283 511 1324Q471 1366 471 1425Q471 1484 511 1526Q552 1567 611 1567Q669 1567 710 1526Q751 1484 751 1425Q751 1366 710 1324Q669 1283 611 1283M906 558Q906 721 827 817Q748 914 611 914Q474 914 397 817Q322 723 322 558Q322 393 397 299Q474 202 611 202Q748 202 828 298Q906 394 906 558M614-416Q412-416 285-332Q160-249 143-109L363-109Q377-169 442-204Q510-239 617-239Q751-239 827-178Q902-118 902-10L902 199L886 199Q784 16 550 16Q343 16 221 164Q100 311 100 557Q100 807 222 957Q344 1107 552 1107Q664 1107 756 1055Q848 1004 894 915L911 915L911 1089L1117 1089L1117-9Q1117-196 981-306Q845-416 614-416Z"  horiz-adv-x="1274" vert-adv-y="2048"  />

      
      <glyph glyph-name="uni0122" unicode="&#x0122;" d="M592-514L705-146L927-146L792-514L592-514M1411 571Q1411 294 1241 130Q1072-35 788-35Q481-35 301 169Q121 373 121 722Q121 1067 302 1273Q483 1478 786 1478Q1032 1478 1198 1349Q1364 1219 1401 1000L1176 1000Q1089 1269 786 1269Q586 1269 468 1122Q350 974 350 724Q350 469 469 322Q587 174 791 174Q968 174 1079 273Q1190 372 1191 532L1191 563L819 563L819 751L1411 751L1411 571Z"  horiz-adv-x="1539" vert-adv-y="2048"  />

      
      <glyph glyph-name="uni0123" unicode="&#x0123;" d="M826 1657L713 1289L491 1289L626 1657L826 1657M906 558Q906 721 827 817Q748 914 611 914Q474 914 397 817Q322 723 322 558Q322 393 397 299Q474 202 611 202Q748 202 828 298Q906 394 906 558M614-416Q412-416 285-332Q160-249 143-109L363-109Q377-169 442-204Q510-239 617-239Q751-239 827-178Q902-118 902-10L902 199L886 199Q784 16 550 16Q343 16 221 164Q100 311 100 557Q100 807 222 957Q344 1107 552 1107Q664 1107 756 1055Q848 1004 894 915L911 915L911 1089L1117 1089L1117-9Q1117-196 981-306Q845-416 614-416Z"  horiz-adv-x="1274" vert-adv-y="2048"  />

      
      <glyph glyph-name="uni0124" unicode="&#x0124;" d="M1145 0L1145 633L404 633L404 0L180 0L180 1443L404 1443L404 837L1145 837L1145 1443L1368 1443L1368 0L1145 0M1170 1582L945 1582L782 1763L766 1763L603 1582L378 1582L673 1896L875 1896L1170 1582Z"  horiz-adv-x="1550" vert-adv-y="2048"  />

      
      <glyph glyph-name="uni0125" unicode="&#x0125;" d="M166 1514L379 1514L379 914L396 914Q436 1006 526 1057Q616 1109 739 1109Q923 1109 1023 1003Q1124 897 1124 703L1124 0L909 0L909 650Q909 912 666 912Q535 912 458 836Q381 761 381 636L381 0L166 0L166 1514M669 1653L444 1653L281 1834L265 1834L102 1653L-123 1653L172 1967L374 1967L669 1653Z"  horiz-adv-x="1271" vert-adv-y="2048"  />

      
      <glyph glyph-name="uni0126" unicode="&#x0126;" d="M1121 1066L380 1066L380 837L1121 837L1121 1066M1478 1066L1344 1066L1344 0L1121 0L1121 633L380 633L380 0L156 0L156 1066L23 1066L23 1237L156 1237L156 1443L380 1443L380 1237L1121 1237L1121 1443L1344 1443L1344 1237L1478 1237L1478 1066Z"  horiz-adv-x="1502" vert-adv-y="2048"  />

      
      <glyph glyph-name="uni0127" unicode="&#x0127;" d="M394 914Q434 1005 526 1057Q618 1109 741 1109Q925 1109 1027 1003Q1130 897 1130 703L1130 0L916 0L916 650Q916 912 668 912Q537 912 458 836Q379 760 379 636L379 0L164 0L164 1275L30 1275L30 1411L164 1411L164 1563L377 1563L377 1411L633 1411L633 1275L377 1275L377 914L394 914Z"  horiz-adv-x="1278" vert-adv-y="2048"  />

      
      <glyph glyph-name="uni0128" unicode="&#x0128;" d="M181 0L181 1443L405 1443L405 0L181 0M446 1576Q357 1576 275 1654Q193 1731 151 1731Q64 1731 59 1590L-94 1590Q-94 1728-29 1807Q33 1883 140 1883Q236 1883 320 1806Q403 1728 435 1728Q521 1728 527 1868L680 1868Q680 1733 616 1654Q552 1576 446 1576Z"  horiz-adv-x="585" vert-adv-y="2048"  />

      
      <glyph glyph-name="uni0129" unicode="&#x0129;" d="M164 1089L379 1089L379 0L164 0L164 1089M138 1392Q44 1392 44 1242L-114 1242Q-114 1382-49 1464Q16 1546 128 1546Q216 1546 298 1471Q380 1395 410 1395Q504 1395 504 1543L662 1543Q662 1403 597 1322Q532 1241 420 1241Q332 1241 250 1317Q168 1392 138 1392Z"  horiz-adv-x="544" vert-adv-y="2048"  />

      
      <glyph glyph-name="uni012A" unicode="&#x012A;" d="M181 0L181 1443L405 1443L405 0L181 0M-57 1625L-57 1781L643 1781L643 1625L-57 1625Z"  horiz-adv-x="585" vert-adv-y="2048"  />

      
      <glyph glyph-name="uni012B" unicode="&#x012B;" d="M164 1089L379 1089L379 0L164 0L164 1089M-76 1299L-76 1454L620 1454L620 1299L-76 1299Z"  horiz-adv-x="544" vert-adv-y="2048"  />

      
      <glyph glyph-name="uni012C" unicode="&#x012C;" d="M181 0L181 1443L405 1443L405 0L181 0M89 1891Q90 1813 145 1768Q200 1722 293 1722Q386 1722 442 1768Q496 1813 497 1891L670 1891Q670 1749 569 1664Q467 1577 293 1577Q119 1577 17 1664Q-84 1749-84 1891L89 1891Z"  horiz-adv-x="585" vert-adv-y="2048"  />

      
      <glyph glyph-name="uni012D" unicode="&#x012D;" d="M164 1089L379 1089L379 0L164 0L164 1089M66 1576Q67 1491 120 1439Q175 1386 270 1386Q365 1386 420 1439Q473 1491 474 1576L647 1576Q647 1426 547 1334Q443 1238 270 1238Q97 1238-7 1334Q-107 1426-107 1576L66 1576Z"  horiz-adv-x="544" vert-adv-y="2048"  />

      
      <glyph glyph-name="uni012E" unicode="&#x012E;" d="M429-425Q380-447 299-447Q192-447 126-388Q61-328 61-230Q61-84 202 17L180 17L180 1443L404 1443L404 7L388 7Q235-82 235-185Q235-234 268-264Q301-294 355-294Q395-294 429-285L429-425Z"  horiz-adv-x="585" vert-adv-y="2048"  />

      
      <glyph glyph-name="uni012F" unicode="&#x012F;" d="M266 1280Q206 1280 167 1318Q127 1355 127 1411Q127 1467 167 1505Q206 1543 266 1543Q326 1543 366 1505Q405 1467 405 1411Q405 1355 366 1318Q326 1280 266 1280M401-426Q350-448 271-448Q164-448 98-389Q33-329 33-232Q33-86 179 17L159 17L159 1089L373 1089L373 14L358 14Q207-73 207-187Q207-236 240-265Q273-295 327-295Q365-295 401-286L401-426Z"  horiz-adv-x="544" vert-adv-y="2048"  />

      
      <glyph glyph-name="uni0130" unicode="&#x0130;" d="M180 0L180 1443L404 1443L404 0L180 0M292 1577Q235 1577 197 1617Q158 1656 158 1714Q158 1772 197 1811Q235 1851 292 1851Q349 1851 388 1811Q426 1772 426 1714Q426 1656 388 1617Q349 1577 292 1577Z"  horiz-adv-x="585" vert-adv-y="2048"  />

      
      <glyph glyph-name="uni0131" unicode="&#x0131;" d="M163 1089L378 1089L378 0L163 0L163 1089Z"  horiz-adv-x="544" vert-adv-y="2048"  />

      
      <glyph glyph-name="uni0132" unicode="&#x0132;" d="M180 0L180 1443L404 1443L404 0L180 0M886 375Q888 286 948 231Q1008 176 1104 176Q1212 176 1270 239Q1328 303 1328 423L1328 1443L1552 1443L1552 422Q1552 205 1433 85Q1315-35 1106-35Q909-35 788 77Q666 190 666 375L886 375Z"  horiz-adv-x="1734" vert-adv-y="2048"  />

      
      <glyph glyph-name="uni0133" unicode="&#x0133;" d="M159 1089L373 1089L373 0L159 0L159 1089M266 1280Q206 1280 167 1318Q127 1355 127 1411Q127 1467 167 1505Q206 1543 266 1543Q326 1543 366 1505Q405 1467 405 1411Q405 1355 366 1318Q326 1280 266 1280M918-60Q918-387 567-387Q524-387 519-386L519-206L549-206Q634-206 670-171Q704-138 704-58L704 1089L918 1089L918-60M811 1280Q751 1280 712 1318Q672 1355 672 1411Q672 1467 712 1505Q751 1543 811 1543Q871 1543 911 1505Q950 1467 950 1411Q950 1355 911 1318Q871 1280 811 1280Z"  horiz-adv-x="1090" vert-adv-y="2048"  />

      
      <glyph glyph-name="uni0134" unicode="&#x0134;" d="M301 375Q303 286 363 231Q423 176 519 176Q627 176 685 239Q743 303 743 423L743 1443L967 1443L967 422Q967 205 848 85Q730-35 521-35Q324-35 203 77Q81 190 81 375L301 375M1251 1582L1026 1582L863 1763L847 1763L684 1582L459 1582L754 1896L956 1896L1251 1582Z"  horiz-adv-x="1148" vert-adv-y="2048"  />

      
      <glyph glyph-name="uni0135" unicode="&#x0135;" d="M369-60Q369-387 18-387Q-24-387-30-386L-30-206L0-206Q85-206 121-171Q155-138 155-58L155 1089L369 1089L369-60M665 1238L444 1238L277 1457L261 1457L94 1238L-128 1238L152 1584L386 1584L665 1238Z"  horiz-adv-x="534" vert-adv-y="2048"  />

      
      <glyph glyph-name="uni0136" unicode="&#x0136;" d="M180 0L180 1443L404 1443L404 767L420 767L1017 1443L1282 1443L724 816L1330 0L1050 0L566 655L404 474L404 0L180 0M469-514L582-146L804-146L669-514L469-514Z"  horiz-adv-x="1386" vert-adv-y="2048"  />

      
      <glyph glyph-name="uni0137" unicode="&#x0137;" d="M829 1089L1083 1089L635 622L1113 0L849 0L475 480L380 390L380 0L165 0L165 1514L380 1514L380 635L397 635L829 1089M419-514L532-146L754-146L619-514L419-514Z"  horiz-adv-x="1155" vert-adv-y="2048"  />

      
      <glyph glyph-name="uni0139" unicode="&#x0139;" d="M471 1888L729 1888L404 1582L174 1582L471 1888M1080 0L180 0L180 1443L404 1443L404 206L1080 206L1080 0Z"  horiz-adv-x="1183" vert-adv-y="2048"  />

      
      <glyph glyph-name="uni013A" unicode="&#x013A;" d="M452 1959L710 1959L385 1653L155 1653L452 1959M165 1514L380 1514L380 0L165 0L165 1514Z"  horiz-adv-x="547" vert-adv-y="2048"  />

      
      <glyph glyph-name="uni013B" unicode="&#x013B;" d="M428-514L541-146L763-146L628-514L428-514M1080 0L180 0L180 1443L404 1443L404 206L1080 206L1080 0Z"  horiz-adv-x="1183" vert-adv-y="2048"  />

      
      <glyph glyph-name="uni013C" unicode="&#x013C;" d="M73-514L186-146L408-146L273-514L73-514M165 1514L380 1514L380 0L165 0L165 1514Z"  horiz-adv-x="547" vert-adv-y="2048"  />

      
      <glyph glyph-name="uni013D" unicode="&#x013D;" d="M816 1443L766 948L619 948L619 1443L816 1443M1080 0L180 0L180 1443L404 1443L404 206L1080 206L1080 0Z"  horiz-adv-x="1183" vert-adv-y="2048"  />

      
      <glyph glyph-name="uni013E" unicode="&#x013E;" d="M695 1514L645 1018L496 1018L496 1514L695 1514M165 1514L380 1514L380 0L165 0L165 1514Z"  horiz-adv-x="672" vert-adv-y="2048"  />

      
      <glyph glyph-name="uni0141" unicode="&#x0141;" d="M1080 206L1080 0L180 0L180 695L19 617L19 787L180 865L180 1443L404 1443L404 974L676 1106L676 935L404 803L404 206L1080 206Z"  horiz-adv-x="1143" vert-adv-y="2048"  />

      
      <glyph glyph-name="uni0142" unicode="&#x0142;" d="M507 868L380 803L380 0L165 0L165 692L39 627L39 797L165 862L165 1514L380 1514L380 973L507 1038L507 868Z"  horiz-adv-x="547" vert-adv-y="2048"  />

      
      <glyph glyph-name="uni0143" unicode="&#x0143;" d="M946 1888L1204 1888L879 1582L649 1582L946 1888M180 0L180 1443L382 1443L1123 418L1139 418L1139 1443L1357 1443L1357 0L1155 0L414 1025L398 1025L398 0L180 0Z"  horiz-adv-x="1539" vert-adv-y="2048"  />

      
      <glyph glyph-name="uni0144" unicode="&#x0144;" d="M762 1615L1014 1615L733 1271L511 1271L762 1615M155 1089L362 1089L362 916L378 916Q418 1007 508 1058Q599 1110 722 1110Q904 1110 1003 1005Q1102 899 1102 705L1102 0L887 0L887 651Q887 913 649 913Q519 913 445 839Q370 765 370 637L370 0L155 0L155 1089Z"  horiz-adv-x="1249" vert-adv-y="2048"  />

      
      <glyph glyph-name="uni0145" unicode="&#x0145;" d="M567-514L680-146L902-146L767-514L567-514M180 0L180 1443L382 1443L1123 418L1139 418L1139 1443L1357 1443L1357 0L1155 0L414 1025L398 1025L398 0L180 0Z"  horiz-adv-x="1539" vert-adv-y="2048"  />

      
      <glyph glyph-name="uni0146" unicode="&#x0146;" d="M429-514L542-146L764-146L629-514L429-514M155 1089L362 1089L362 916L378 916Q418 1007 508 1058Q599 1110 722 1110Q904 1110 1003 1005Q1102 899 1102 705L1102 0L887 0L887 651Q887 913 649 913Q519 913 445 839Q370 765 370 637L370 0L155 0L155 1089Z"  horiz-adv-x="1249" vert-adv-y="2048"  />

      
      <glyph glyph-name="uni0147" unicode="&#x0147;" d="M669 1582L376 1888L596 1888L758 1713L776 1713L938 1888L1158 1888L865 1582L669 1582M180 0L180 1443L382 1443L1123 418L1139 418L1139 1443L1357 1443L1357 0L1155 0L414 1025L398 1025L398 0L180 0Z"  horiz-adv-x="1539" vert-adv-y="2048"  />

      
      <glyph glyph-name="uni0148" unicode="&#x0148;" d="M523 1238L243 1584L465 1584L632 1365L648 1365L815 1584L1036 1584L757 1238L523 1238M155 1089L362 1089L362 916L378 916Q418 1007 508 1058Q599 1110 722 1110Q904 1110 1003 1005Q1102 899 1102 705L1102 0L887 0L887 651Q887 913 649 913Q519 913 445 839Q370 765 370 637L370 0L155 0L155 1089Z"  horiz-adv-x="1249" vert-adv-y="2048"  />

      
      <glyph glyph-name="uni014C" unicode="&#x014C;" d="M795 1478Q1107 1478 1287 1274Q1467 1071 1467 722Q1467 373 1288 170Q1107-35 795-35Q482-35 301 169Q121 372 121 722Q121 1071 303 1275Q484 1478 795 1478M795 1269Q591 1269 471 1121Q350 973 350 722Q350 471 469 323Q588 174 795 174Q1000 174 1119 323Q1238 471 1238 722Q1238 974 1119 1121Q1000 1269 795 1269M445 1625L445 1781L1145 1781L1145 1625L445 1625Z"  horiz-adv-x="1590" vert-adv-y="2048"  />

      
      <glyph glyph-name="uni014D" unicode="&#x014D;" d="M267 1299L267 1454L963 1454L963 1299L267 1299M615 170Q754 170 831 269Q907 367 907 545Q907 722 831 821Q754 919 615 919Q475 919 399 821Q323 723 323 545Q323 366 399 268Q475 170 615 170M615-21Q375-21 238 130Q101 281 101 545Q101 808 239 959Q376 1110 615 1110Q853 1110 990 959Q1128 808 1128 545Q1128 281 991 130Q854-21 615-21Z"  horiz-adv-x="1231" vert-adv-y="2048"  />

      
      <glyph glyph-name="uni014E" unicode="&#x014E;" d="M795 1478Q1107 1478 1287 1274Q1467 1071 1467 722Q1467 373 1288 170Q1107-35 795-35Q482-35 301 169Q121 372 121 722Q121 1071 303 1275Q484 1478 795 1478M795 1269Q591 1269 471 1121Q350 973 350 722Q350 471 469 323Q588 174 795 174Q1000 174 1119 323Q1238 471 1238 722Q1238 974 1119 1121Q1000 1269 795 1269M591 1891Q592 1813 647 1768Q702 1722 795 1722Q888 1722 944 1768Q998 1813 999 1891L1172 1891Q1172 1749 1071 1664Q969 1577 795 1577Q621 1577 519 1664Q418 1749 418 1891L591 1891Z"  horiz-adv-x="1590" vert-adv-y="2048"  />

      
      <glyph glyph-name="uni014F" unicode="&#x014F;" d="M409 1576Q410 1491 463 1439Q518 1386 613 1386Q708 1386 763 1439Q816 1491 817 1576L990 1576Q990 1426 890 1334Q786 1238 613 1238Q440 1238 336 1334Q236 1426 236 1576L409 1576M615 170Q754 170 831 269Q907 367 907 545Q907 722 831 821Q754 919 615 919Q475 919 399 821Q323 723 323 545Q323 366 399 268Q475 170 615 170M615-21Q375-21 238 130Q101 281 101 545Q101 808 239 959Q376 1110 615 1110Q853 1110 990 959Q1128 808 1128 545Q1128 281 991 130Q854-21 615-21Z"  horiz-adv-x="1231" vert-adv-y="2048"  />

      
      <glyph glyph-name="uni0150" unicode="&#x0150;" d="M1141 1888L1383 1888L1070 1582L852 1582L1141 1888M718 1888L960 1888L648 1582L430 1582L718 1888M795 1478Q1107 1478 1287 1274Q1467 1071 1467 722Q1467 373 1288 170Q1107-35 795-35Q482-35 301 169Q121 372 121 722Q121 1071 303 1275Q484 1478 795 1478M795 1269Q591 1269 471 1121Q350 973 350 722Q350 471 469 323Q588 174 795 174Q1000 174 1119 323Q1238 471 1238 722Q1238 974 1119 1121Q1000 1269 795 1269Z"  horiz-adv-x="1590" vert-adv-y="2048"  />

      
      <glyph glyph-name="uni0151" unicode="&#x0151;" d="M922 1615L1150 1615L883 1271L684 1271L922 1615M509 1615L737 1615L470 1271L271 1271L509 1615M615 170Q754 170 831 269Q907 367 907 545Q907 722 831 821Q754 919 615 919Q475 919 399 821Q323 723 323 545Q323 366 399 268Q475 170 615 170M615-21Q375-21 238 130Q101 281 101 545Q101 808 239 959Q376 1110 615 1110Q853 1110 990 959Q1128 808 1128 545Q1128 281 991 130Q854-21 615-21Z"  horiz-adv-x="1231" vert-adv-y="2048"  />

      
      </font>
</defs>
</svg>
