<?xml version="1.0" standalone="no"?>
  <!DOCTYPE svg PUBLIC "-//W3C//DTD SVG 1.1//EN" "http://www.w3.org/Graphics/SVG/1.1/DTD/svg11.dtd" >
  <svg>
  <metadata>
  Created by font-carrier
  </metadata>
  <defs>
  <font id="SFUIText-HeavyItalic" horiz-adv-x="2976" vert-adv-y="2976" >
    <font-face
      
      font-family="SF UI Text"
      
      font-weight="400"
      
      font-stretch="normal"
      
      units-per-em="2048"
      
      ascent="1950"
      
      descent="-494"
      
    />
      <missing-glyph />

      

      
      <glyph glyph-name="uni21" unicode="&#x21;" d="M809 1443L571 473L251 473L426 1443L809 1443M335-35Q242-35 185 17Q131 67 131 140Q131 224 185 276Q241 330 335 330Q428 330 485 278Q539 228 539 155Q539 71 485 19Q429-35 335-35Z"  horiz-adv-x="778" vert-adv-y="2048"  />

      
      <glyph glyph-name="uni22" unicode="&#x22;" d="M224 802L360 1443L658 1443L521 802L224 802M731 802L868 1443L1165 1443L1029 802L731 802Z"  horiz-adv-x="1079" vert-adv-y="2048"  />

      
      <glyph glyph-name="uni23" unicode="&#x23;" d="M1174 840L1084 623L1284 623L1183 370L981 370L828 0L560 0L713 370L519 370L366 0L99 0L251 370L54 370L157 623L354 623L444 840L249 840L350 1091L547 1091L692 1444L959 1444L814 1091L1008 1091L1153 1444L1421 1444L1277 1091L1478 1091L1378 840L1174 840M590 597L825 597L937 866L701 866L590 597Z"  horiz-adv-x="1394" vert-adv-y="2048"  />

      
      <glyph glyph-name="uni24" unicode="&#x24;" d="M772 261Q862 266 915 309Q968 350 968 416Q968 499 834 549L772 261M825 1183Q743 1179 693 1138Q644 1097 644 1035Q644 950 764 900L825 1183M964 837Q1319 731 1319 457Q1319 244 1159 120Q1000-3 732-3L716-3L688-136L544-136L575 10Q383 43 272 153Q161 263 157 427L495 427Q504 317 632 277L699 592L633 612Q469 662 378 766Q290 868 290 1002Q290 1201 444 1323Q598 1446 848 1446Q870 1446 881 1445L910 1584L1054 1584L1021 1427Q1192 1388 1293 1278Q1395 1168 1398 1016L1070 1016Q1062 1113 964 1160L899 856L964 837Z"  horiz-adv-x="1461" vert-adv-y="2048"  />

      
      <glyph glyph-name="uni25" unicode="&#x25;" d="M620 1263Q568 1263 531 1206Q494 1148 494 1067Q494 949 573 949Q625 949 662 1007Q699 1066 699 1148Q699 1263 620 1263M199 0L940 765L1480 1443L1861 1443L1105 672L579 0L199 0M563 731Q414 731 326 821Q239 911 239 1064Q239 1240 350 1360Q461 1479 626 1479Q776 1479 865 1390Q953 1300 953 1148Q953 971 841 851Q729 731 563 731M1481 495Q1429 495 1392 437Q1355 379 1355 298Q1355 181 1434 181Q1486 181 1522 239Q1559 298 1559 380Q1559 495 1481 495M1424-37Q1275-37 1187 53Q1100 142 1100 295Q1100 472 1211 592Q1322 711 1487 711Q1637 711 1726 622Q1814 532 1814 380Q1814 203 1702 83Q1589-37 1424-37Z"  horiz-adv-x="1909" vert-adv-y="2048"  />

      
      <glyph glyph-name="uni26" unicode="&#x26;" d="M692 1078Q692 1009 776 902Q978 978 978 1117Q978 1171 942 1204Q906 1236 849 1236Q784 1236 738 1190Q692 1144 692 1078M645 215Q763 215 863 270L634 618Q627 616 611 610L592 603Q411 534 411 394Q411 315 476 266Q541 215 645 215M995 68Q815-28 613-28Q386-28 238 83Q89 194 89 364Q89 644 437 781L514 812Q398 978 398 1109Q398 1259 525 1360Q653 1461 843 1461Q1025 1461 1147 1372Q1269 1282 1269 1148Q1269 879 899 730L1078 464Q1170 597 1179 738L1181 762L1466 762L1463 733Q1437 458 1229 242L1392 0L1041 0L995 68Z"  horiz-adv-x="1560" vert-adv-y="2048"  />

      
      <glyph glyph-name="uni27" unicode="&#x27;" d="M224 802L360 1443L658 1443L521 802L224 802Z"  horiz-adv-x="572" vert-adv-y="2048"  />

      
      <glyph glyph-name="uni28" unicode="&#x28;" d="M294-277Q173-46 173 287Q173 613 299 915Q427 1220 659 1442L1027 1442Q810 1230 680 928Q539 601 539 254Q539-16 625-277L294-277Z"  horiz-adv-x="842" vert-adv-y="2048"  />

      
      <glyph glyph-name="uni29" unicode="&#x29;" d="M598 1442Q719 1211 719 878Q719 552 593 250Q466-56 234-277L-135-277Q82-64 213 238Q353 564 353 912Q353 1181 267 1442L598 1442Z"  horiz-adv-x="842" vert-adv-y="2048"  />

      
      <glyph glyph-name="uni2a" unicode="&#x2a;" d="M692 908L680 621L447 624L560 922L293 753L221 971L521 1045L264 1176L424 1370L610 1151L622 1445L855 1442L739 1137L1009 1310L1082 1092L781 1018L1037 886L878 692L692 908Z"  horiz-adv-x="1032" vert-adv-y="2048"  />

      
      <glyph glyph-name="uni2b" unicode="&#x2b;" d="M808 36L489 36L574 436L183 436L247 737L638 737L722 1134L1041 1134L956 737L1359 737L1295 436L892 436L808 36Z"  horiz-adv-x="1461" vert-adv-y="2048"  />

      
      <glyph glyph-name="uni2c" unicode="&#x2c;" d="M21-397L232 265L566 265L299-397L21-397Z"  horiz-adv-x="772" vert-adv-y="2048"  />

      
      <glyph glyph-name="uni2d" unicode="&#x2d;" d="M180 425L248 741L906 741L838 425L180 425Z"  horiz-adv-x="1006" vert-adv-y="2048"  />

      
      <glyph glyph-name="uni2e" unicode="&#x2e;" d="M327-33Q236-33 179 22Q125 74 125 150Q125 236 179 291Q235 348 327 348Q418 348 475 293Q529 241 529 165Q529 79 475 24Q419-33 327-33Z"  horiz-adv-x="767" vert-adv-y="2048"  />

      
      <glyph glyph-name="uni2f" unicode="&#x2f;" d="M-109-274L657 1443L995 1443L222-274L-109-274Z"  horiz-adv-x="803" vert-adv-y="2048"  />

      
      <glyph glyph-name="uni30" unicode="&#x30;" d="M710-39Q460-39 316 116Q171 270 171 538Q171 949 375 1216Q579 1482 890 1482Q1141 1482 1287 1328Q1432 1174 1432 907Q1432 496 1226 228Q1021-39 710-39M540 514Q540 387 587 316Q633 245 716 245Q852 245 957 452Q1063 660 1063 931Q1063 1057 1016 1127Q969 1197 885 1197Q748 1197 644 991Q540 785 540 514Z"  horiz-adv-x="1460" vert-adv-y="2048"  />

      
      <glyph glyph-name="uni31" unicode="&#x31;" d="M639 1100L620 1100L222 866L292 1193L713 1443L1079 1443L772 0L405 0L639 1100Z"  horiz-adv-x="1101" vert-adv-y="2048"  />

      
      <glyph glyph-name="uni32" unicode="&#x32;" d="M248 1004Q264 1212 431 1347Q598 1482 839 1482Q1062 1482 1206 1367Q1351 1253 1351 1077Q1351 938 1251 818Q1162 711 890 504L631 302L627 283L1219 283L1159 0L69 0L125 257L651 667Q861 830 924 898Q992 973 992 1047Q992 1116 940 1160Q888 1203 806 1203Q723 1203 662 1150Q601 1097 583 1010L582 1003L248 1004Z"  horiz-adv-x="1360" vert-adv-y="2048"  />

      
      <glyph glyph-name="uni33" unicode="&#x33;" d="M614 869L797 869Q907 869 970 918Q1032 966 1032 1050Q1032 1121 977 1164Q922 1207 832 1207Q754 1207 696 1166Q638 1126 615 1056L282 1056Q323 1252 479 1367Q636 1482 863 1482Q1089 1482 1235 1373Q1380 1263 1380 1093Q1380 956 1281 852Q1181 748 1035 734L1032 714Q1286 657 1286 412Q1286 217 1118 89Q951-39 695-39Q440-39 284 80Q127 199 127 392Q127 420 133 463L475 463L475 462Q461 373 525 312Q589 251 696 251Q797 251 861 307Q925 364 925 453Q925 526 868 570Q812 615 721 615L561 615L614 869Z"  horiz-adv-x="1410" vert-adv-y="2048"  />

      
      <glyph glyph-name="uni34" unicode="&#x34;" d="M792 234L80 234L141 555Q382 883 869 1443L1396 1443L1200 520L1379 520L1319 234L1139 234L1089 0L742 0L792 234M456 507L860 507L1003 1181L985 1181Q721 875 459 525L456 507Z"  horiz-adv-x="1463" vert-adv-y="2048"  />

      
      <glyph glyph-name="uni35" unicode="&#x35;" d="M713-39Q476-39 321 86Q166 211 166 402Q166 411 168 443L500 443L500 442Q505 354 569 300Q633 245 733 245Q841 245 914 321Q986 396 986 507Q986 605 927 663Q868 721 772 721Q643 721 563 622L233 622L475 1443L1427 1443L1365 1157L703 1157L604 845L622 845Q735 964 919 964Q1094 964 1211 845Q1328 725 1328 545Q1328 290 1157 126Q984-39 713-39Z"  horiz-adv-x="1411" vert-adv-y="2048"  />

      
      <glyph glyph-name="uni36" unicode="&#x36;" d="M1355 517Q1355 282 1183 122Q1011-39 760-39Q490-39 338 120Q185 279 185 562Q185 947 387 1211Q592 1482 917 1482Q1146 1482 1295 1358Q1445 1233 1447 1042L1095 1042Q1084 1114 1031 1156Q979 1198 900 1198Q775 1198 680 1081Q586 964 556 773L575 772Q700 948 925 948Q1113 948 1234 827Q1355 706 1355 517M790 695Q684 695 612 624Q540 553 540 449Q540 359 602 300Q664 241 759 241Q863 241 934 312Q1004 383 1004 488Q1004 578 944 637Q883 695 790 695Z"  horiz-adv-x="1459" vert-adv-y="2048"  />

      
      <glyph glyph-name="uni37" unicode="&#x37;" d="M945 1141L950 1161L265 1161L325 1443L1391 1443L1331 1160L502 0L104 0L945 1141Z"  horiz-adv-x="1277" vert-adv-y="2048"  />

      
      <glyph glyph-name="uni38" unicode="&#x38;" d="M1345 405Q1345 211 1167 86Q989-39 714-39Q455-39 290 76Q125 191 125 373Q125 529 236 641Q348 754 532 783L536 802Q443 836 388 910Q332 983 332 1070Q332 1248 493 1365Q654 1482 899 1482Q1125 1482 1279 1371Q1434 1261 1434 1098Q1434 962 1341 864Q1249 767 1098 744L1094 725Q1211 685 1278 600Q1345 514 1345 405M753 622Q649 622 580 560Q510 498 510 405Q510 323 571 272Q631 221 729 221Q834 221 904 282Q973 343 973 435Q973 517 911 570Q850 622 753 622M679 1031Q679 960 730 914Q782 868 862 868Q949 868 1011 926Q1072 984 1072 1064Q1072 1135 1020 1181Q967 1228 888 1228Q801 1228 740 1171Q679 1113 679 1031Z"  horiz-adv-x="1473" vert-adv-y="2048"  />

      
      <glyph glyph-name="uni39" unicode="&#x39;" d="M808 743Q913 743 985 814Q1056 884 1056 989Q1056 1080 996 1138Q936 1196 841 1196Q737 1196 666 1126Q596 1055 596 950Q596 859 656 801Q716 743 808 743M243 923Q243 1164 414 1323Q584 1482 842 1482Q1111 1482 1261 1322Q1411 1161 1411 875Q1411 500 1208 233Q1001-39 685-39Q461-39 309 82Q156 202 148 385L501 385Q508 321 563 283Q618 244 703 244Q835 244 932 361Q1029 479 1051 666L1033 666Q905 490 685 490Q494 490 368 613Q243 736 243 923Z"  horiz-adv-x="1456" vert-adv-y="2048"  />

      
      <glyph glyph-name="uni3a" unicode="&#x3a;" d="M327-33Q236-33 179 22Q125 74 125 150Q125 236 179 291Q235 348 327 348Q418 348 475 293Q529 241 529 165Q529 79 475 24Q419-33 327-33M480 693Q389 693 332 748Q279 799 279 875Q279 962 332 1016Q387 1073 480 1073Q572 1073 629 1018Q682 967 682 891Q682 804 629 750Q573 693 480 693Z"  horiz-adv-x="767" vert-adv-y="2048"  />

      
      <glyph glyph-name="uni3b" unicode="&#x3b;" d="M-9-397L202 265L536 265L269-397L-9-397M482 693Q391 693 334 748Q280 799 280 875Q280 962 334 1016Q389 1073 482 1073Q573 1073 630 1018Q684 967 684 891Q684 804 630 750Q575 693 482 693Z"  horiz-adv-x="767" vert-adv-y="2048"  />

      
      <glyph glyph-name="uni3c" unicode="&#x3c;" d="M1135-45L247 463L304 734L1401 1206L1326 854L639 594L635 575L1206 288L1135-45Z"  horiz-adv-x="1461" vert-adv-y="2048"  />

      
      <glyph glyph-name="uni3d" unicode="&#x3d;" d="M131 178L195 480L1302 480L1238 178L131 178M240 692L304 994L1412 994L1348 692L240 692Z"  horiz-adv-x="1461" vert-adv-y="2048"  />

      
      <glyph glyph-name="uni3e" unicode="&#x3e;" d="M405 1206L1294 698L1236 427L139-45L214 307L902 567L905 586L335 873L405 1206Z"  horiz-adv-x="1461" vert-adv-y="2048"  />

      
      <glyph glyph-name="uni3f" unicode="&#x3f;" d="M222 1039Q243 1224 383 1338Q526 1456 742 1456Q966 1456 1103 1352Q1238 1249 1238 1085Q1238 957 1168 855Q1095 748 958 688Q843 638 798 598Q751 556 737 488L729 453L411 453L419 508Q440 644 493 716Q546 787 662 838Q786 893 835 944Q882 992 882 1058Q882 1114 840 1148Q797 1184 726 1184Q662 1184 613 1145Q564 1105 548 1039L222 1039M512-33Q419-33 361 14Q303 62 303 139Q303 223 361 278Q420 334 512 334Q601 334 660 287Q721 238 721 162Q721 80 663 24Q604-33 512-33Z"  horiz-adv-x="1189" vert-adv-y="2048"  />

      
      <glyph glyph-name="uni40" unicode="&#x40;" d="M1115 1446Q1448 1446 1658 1255Q1867 1064 1867 762Q1867 498 1731 322Q1595 145 1391 145Q1278 145 1208 189Q1137 232 1137 304L1138 333L1119 329Q1037 185 887 185Q754 185 674 280Q594 375 594 533Q594 735 709 876Q823 1017 987 1017Q1075 1017 1137 974Q1200 931 1217 858L1236 856L1261 982L1494 982L1378 442Q1373 417 1373 402Q1373 324 1448 324Q1531 324 1596 455Q1661 586 1661 755Q1661 983 1506 1126Q1351 1268 1103 1268Q800 1268 592 1056Q383 844 383 534Q383 262 565 103Q748-57 1059-56Q1141-56 1179-45L1141-223Q1078-234 997-234Q630-234 405-25Q180 183 180 522Q180 916 448 1181Q716 1446 1115 1446M1159 644Q1159 718 1126 760Q1093 802 1036 802Q961 802 908 726Q855 649 855 542Q855 470 889 428Q923 386 982 386Q1056 386 1108 461Q1159 535 1159 644Z"  horiz-adv-x="1908" vert-adv-y="2048"  />

      
      <glyph glyph-name="uni41" unicode="&#x41;" d="M1003 317L530 317L368 0L-10 0L796 1443L1242 1443L1408 0L1026 0L1003 317M659 581L992 581L953 1117L933 1117L659 581Z"  horiz-adv-x="1564" vert-adv-y="2048"  />

      
      <glyph glyph-name="uni42" unicode="&#x42;" d="M86 0L393 1443L1029 1443Q1216 1443 1331 1358Q1446 1272 1446 1134Q1446 990 1351 885Q1255 780 1112 765L1111 746Q1232 724 1303 645Q1374 567 1374 456Q1374 256 1221 128Q1068 0 830 0L86 0M637 863L846 863Q948 863 1014 918Q1079 972 1079 1056Q1079 1121 1033 1157Q986 1193 901 1193L708 1193L637 863M755 267Q867 267 938 327Q1009 387 1009 483Q1009 557 956 599Q903 640 807 640L589 640L510 267L755 267Z"  horiz-adv-x="1459" vert-adv-y="2048"  />

      
      <glyph glyph-name="uni43" unicode="&#x43;" d="M1223 908Q1224 911 1224 927Q1221 1037 1147 1106Q1073 1174 956 1174Q779 1174 660 1009Q541 843 541 595Q541 444 615 356Q688 268 814 268Q926 268 1015 331Q1103 393 1137 496L1493 496Q1449 254 1256 108Q1062-39 786-39Q504-39 336 128Q168 295 168 574Q168 973 396 1228Q623 1482 978 1482Q1233 1482 1406 1333Q1579 1184 1579 966Q1579 929 1576 908L1223 908Z"  horiz-adv-x="1569" vert-adv-y="2048"  />

      
      <glyph glyph-name="uni44" unicode="&#x44;" d="M962 1443Q1226 1443 1379 1293Q1533 1141 1533 873Q1533 492 1322 247Q1110 0 775 0L87 0L393 1443L962 1443M520 294L730 294Q918 294 1036 439Q1156 587 1156 830Q1156 977 1080 1062Q1002 1149 866 1149L700 1149L520 294Z"  horiz-adv-x="1561" vert-adv-y="2048"  />

      
      <glyph glyph-name="uni45" unicode="&#x45;" d="M1075 0L86 0L393 1443L1382 1443L1318 1148L697 1148L636 860L1220 860L1163 590L579 590L516 295L1138 295L1075 0Z"  horiz-adv-x="1302" vert-adv-y="2048"  />

      
      <glyph glyph-name="uni46" unicode="&#x46;" d="M86 0L393 1443L1374 1443L1311 1148L697 1148L627 819L1185 819L1125 538L567 538L453 0L86 0Z"  horiz-adv-x="1269" vert-adv-y="2048"  />

      
      <glyph glyph-name="uni47" unicode="&#x47;" d="M1521 590Q1463 284 1276 122Q1090-39 796-39Q513-39 341 130Q170 299 170 579Q170 978 395 1230Q620 1482 975 1482Q1223 1482 1400 1342Q1576 1203 1579 1004Q1580 990 1578 971L1225 971Q1222 1058 1145 1115Q1068 1172 953 1172Q776 1172 660 1011Q543 849 543 600Q543 449 619 360Q695 271 825 271Q950 271 1037 334Q1125 398 1146 504L1148 517L890 517L943 770L1556 770L1521 590Z"  horiz-adv-x="1588" vert-adv-y="2048"  />

      
      <glyph glyph-name="uni48" unicode="&#x48;" d="M1027 0L1150 582L576 582L452 0L86 0L393 1443L760 1443L640 877L1214 877L1335 1443L1702 1443L1395 0L1027 0Z"  horiz-adv-x="1649" vert-adv-y="2048"  />

      
      <glyph glyph-name="uni49" unicode="&#x49;" d="M86 0L393 1443L760 1443L453 0L86 0Z"  horiz-adv-x="707" vert-adv-y="2048"  />

      
      <glyph glyph-name="uni4a" unicode="&#x4a;" d="M433 443L433 430Q434 360 476 318Q519 276 590 276Q736 276 775 462L984 1443L1350 1443L1132 416Q1086 195 946 78Q805-39 583-39Q354-39 215 82Q77 203 79 400Q79 422 82 443L433 443Z"  horiz-adv-x="1295" vert-adv-y="2048"  />

      
      <glyph glyph-name="uni4b" unicode="&#x4b;" d="M86 0L393 1443L759 1443L629 834L648 834L1249 1443L1671 1443L1018 783L1365 0L956 0L710 570L537 398L453 0L86 0Z"  horiz-adv-x="1509" vert-adv-y="2048"  />

      
      <glyph glyph-name="uni4c" unicode="&#x4c;" d="M1066 0L86 0L393 1443L760 1443L517 303L1130 303L1066 0Z"  horiz-adv-x="1247" vert-adv-y="2048"  />

      
      <glyph glyph-name="uni4d" unicode="&#x4d;" d="M86 0L393 1443L818 1443L977 561L996 561L1532 1443L1977 1443L1670 0L1331 0L1524 911L1506 911L1015 111L789 111L638 911L620 911L426 0L86 0Z"  horiz-adv-x="1924" vert-adv-y="2048"  />

      
      <glyph glyph-name="uni4e" unicode="&#x4e;" d="M86 0L393 1443L653 1443L1103 601L1122 601L1301 1443L1653 1443L1346 0L1090 0L634 834L615 834L438 0L86 0Z"  horiz-adv-x="1600" vert-adv-y="2048"  />

      
      <glyph glyph-name="uni4f" unicode="&#x4f;" d="M814-39Q520-39 342 139Q169 311 169 581Q169 977 398 1231Q623 1482 964 1482Q1262 1482 1438 1304Q1607 1133 1607 862Q1607 465 1379 211Q1154-39 814-39M1234 836Q1234 988 1157 1079Q1080 1169 953 1169Q783 1169 663 1006Q543 841 543 606Q543 454 620 362Q696 271 824 271Q994 271 1114 434Q1234 598 1234 836Z"  horiz-adv-x="1638" vert-adv-y="2048"  />

      
      <glyph glyph-name="uni50" unicode="&#x50;" d="M931 1443Q1165 1443 1301 1324Q1435 1206 1435 1008Q1435 739 1258 580Q1082 423 786 423L544 423L454 0L88 0L393 1443L931 1443M602 700L785 700Q912 700 989 777Q1066 853 1066 975Q1066 1161 855 1161L700 1161L602 700Z"  horiz-adv-x="1402" vert-adv-y="2048"  />

      
      <glyph glyph-name="uni51" unicode="&#x51;" d="M1056-132L1004-15Q913-39 814-39Q520-39 342 139Q169 311 169 581Q169 977 398 1231Q623 1482 964 1482Q1262 1482 1438 1304Q1607 1134 1607 862Q1607 377 1283 123L1395-132L1056-132M823 265Q857 265 886 272L784 507L1101 507L1123 463Q1239 612 1239 837Q1239 992 1161 1084Q1083 1176 954 1176Q782 1176 660 1010Q538 843 538 604Q538 450 616 357Q694 265 823 265Z"  horiz-adv-x="1638" vert-adv-y="2048"  />

      
      <glyph glyph-name="uni52" unicode="&#x52;" d="M393 1443L1002 1443Q1205 1443 1335 1325Q1465 1207 1465 1024Q1465 866 1374 734Q1281 600 1124 542L1318 0L924 0L761 505L561 505L453 0L86 0L393 1443M615 764L834 764Q952 764 1025 828Q1096 892 1096 993Q1096 1077 1044 1122Q993 1166 899 1166L702 1166L615 764Z"  horiz-adv-x="1459" vert-adv-y="2048"  />

      
      <glyph glyph-name="uni53" unicode="&#x53;" d="M450 416Q460 338 535 288Q608 239 710 239Q818 239 885 284Q953 329 953 401Q953 455 910 490Q867 525 762 557L605 604Q438 654 349 758Q258 862 258 1008Q258 1213 428 1348Q598 1482 857 1482Q1111 1482 1269 1354Q1426 1227 1428 1023L1089 1023Q1082 1102 1014 1153Q945 1205 844 1205Q752 1205 690 1161Q627 1117 627 1051Q627 942 800 890L958 844Q1145 789 1231 696Q1317 601 1317 451Q1317 229 1144 95Q970-39 685-39Q425-39 266 82Q105 206 100 416L450 416Z"  horiz-adv-x="1407" vert-adv-y="2048"  />

      
      <glyph glyph-name="uni54" unicode="&#x54;" d="M423 0L666 1148L251 1148L314 1443L1512 1443L1449 1148L1034 1148L790 0L423 0Z"  horiz-adv-x="1379" vert-adv-y="2048"  />

      
      <glyph glyph-name="uni55" unicode="&#x55;" d="M795-39Q522-39 358 96Q197 227 197 440Q197 503 210 565L396 1443L764 1443L579 571Q569 524 569 480Q570 384 636 328Q701 273 807 273Q1031 273 1084 522L1279 1443L1647 1443L1436 441Q1388 215 1218 88Q1048-39 795-39Z"  horiz-adv-x="1585" vert-adv-y="2048"  />

      
      <glyph glyph-name="uni56" unicode="&#x56;" d="M455 0L296 1443L697 1443L754 383L773 383L1264 1443L1678 1443L919 0L455 0Z"  horiz-adv-x="1528" vert-adv-y="2048"  />

      
      <glyph glyph-name="uni57" unicode="&#x57;" d="M721 0L380 0L309 1443L684 1443L678 486L696 486L1131 1443L1420 1443L1460 486L1478 486L1872 1443L2249 1443L1567 0L1216 0L1161 884L1143 884L721 0Z"  horiz-adv-x="2112" vert-adv-y="2048"  />

      
      <glyph glyph-name="uni58" unicode="&#x58;" d="M619 741L316 1443L727 1443L918 981L937 981L1279 1443L1687 1443L1059 708L1377 0L970 0L774 446L755 446L403 0L5 0L619 741Z"  horiz-adv-x="1549" vert-adv-y="2048"  />

      
      <glyph glyph-name="uni59" unicode="&#x59;" d="M487 0L592 496L296 1443L679 1443L838 852L857 852L1262 1443L1658 1443L958 490L855 0L487 0Z"  horiz-adv-x="1508" vert-adv-y="2048"  />

      
      <glyph glyph-name="uni5a" unicode="&#x5a;" d="M97 233L942 1129L943 1148L301 1148L364 1443L1470 1443L1420 1210L576 314L575 295L1247 295L1185 0L47 0L97 233Z"  horiz-adv-x="1399" vert-adv-y="2048"  />

      
      <glyph glyph-name="uni5b" unicode="&#x5b;" d="M1053 1444L998 1187L699 1187L450 16L762 16L708-240L56-240L414 1444L1053 1444Z"  horiz-adv-x="896" vert-adv-y="2048"  />

      
      <glyph glyph-name="uni5c" unicode="&#x5c;" d="M268 1443L601 1443L616-274L284-274L268 1443Z"  horiz-adv-x="803" vert-adv-y="2048"  />

      
      <glyph glyph-name="uni5d" unicode="&#x5d;" d="M571-240L-78-240L-24 17L285 17L534 1188L232 1188L287 1444L929 1444L571-240Z"  horiz-adv-x="896" vert-adv-y="2048"  />

      
      <glyph glyph-name="uni5e" unicode="&#x5e;" d="M466 826L149 826L608 1425L902 1425L1107 826L810 826L719 1163L700 1163L466 826Z"  horiz-adv-x="1072" vert-adv-y="2048"  />

      
      <glyph glyph-name="uni5f" unicode="&#x5f;" d="M-160-373L-104-107L852-107L796-373L-160-373Z"  horiz-adv-x="960" vert-adv-y="2048"  />

      
      <glyph glyph-name="uni60" unicode="&#x60;" d="M712 1288L438 1647L789 1647L1017 1288L712 1288Z"  horiz-adv-x="1058" vert-adv-y="2048"  />

      
      <glyph glyph-name="uni61" unicode="&#x61;" d="M556 229Q634 229 695 274Q756 320 771 388L789 471L592 465Q509 462 461 428Q413 393 413 337Q413 289 453 259Q493 229 556 229M397-17Q257-17 163 70Q70 156 70 286Q70 457 204 558Q339 658 575 665L832 672L846 739Q851 769 851 774Q851 822 808 851Q765 879 694 879Q568 879 527 796L203 796Q237 953 378 1046Q518 1139 719 1139Q933 1139 1065 1047Q1197 955 1197 805Q1197 758 1188 715L1035 0L692 0L720 134L701 134Q658 65 575 24Q492-17 397-17Z"  horiz-adv-x="1241" vert-adv-y="2048"  />

      
      <glyph glyph-name="uni62" unicode="&#x62;" d="M788-17Q669-17 579 42Q487 103 462 200L443 200L400 0L56 0L381 1530L735 1530L612 955L633 958Q744 1130 962 1130Q1130 1130 1232 1017Q1336 902 1336 707Q1336 395 1177 188Q1020-17 788-17M698 266Q811 266 890 376Q970 486 970 647Q970 747 918 804Q870 856 792 856Q679 856 598 743Q518 630 518 477Q518 376 570 319Q619 266 698 266Z"  horiz-adv-x="1383" vert-adv-y="2048"  />

      
      <glyph glyph-name="uni63" unicode="&#x63;" d="M897 713Q896 786 847 827Q802 866 728 866Q612 866 539 750Q469 637 469 464Q469 356 523 298Q570 247 644 247Q797 247 843 399L1174 399Q1148 217 1006 100Q855-26 625-26Q392-26 256 101Q120 228 120 443Q120 745 292 940Q467 1139 750 1139Q961 1139 1097 1018Q1220 907 1226 755L1226 713L897 713Z"  horiz-adv-x="1247" vert-adv-y="2048"  />

      
      <glyph glyph-name="uni64" unicode="&#x64;" d="M492-17Q323-17 220 96Q115 212 115 411Q115 722 277 927Q437 1130 675 1130Q796 1130 879 1072Q956 1018 983 929L1003 929L1130 1530L1485 1530L1160 0L815 0L848 155L829 155Q704-17 492-17M662 257Q774 257 855 370Q935 483 935 636Q935 736 883 794Q833 847 755 847Q641 847 562 740Q482 631 482 471Q482 370 535 312Q584 257 662 257Z"  horiz-adv-x="1383" vert-adv-y="2048"  />

      
      <glyph glyph-name="uni65" unicode="&#x65;" d="M638-26Q404-26 265 103Q123 233 123 456Q123 761 294 950Q465 1139 739 1139Q955 1139 1094 1009Q1234 877 1234 666Q1234 581 1214 479L449 479Q448 475 448 458Q448 348 508 287Q565 229 660 229Q807 229 849 334L1181 334Q1140 169 995 72Q849-26 638-26M908 681Q911 699 911 717Q911 791 862 838Q811 887 730 887Q642 887 575 830Q508 774 485 681L908 681Z"  horiz-adv-x="1290" vert-adv-y="2048"  />

      
      <glyph glyph-name="uni66" unicode="&#x66;" d="M319 835L148 835L203 1098L371 1098L399 1231Q430 1383 533 1453Q634 1522 816 1522Q935 1522 1031 1495L981 1266Q944 1279 868 1279Q759 1279 739 1183L721 1098L943 1098L887 835L674 835L496 0L141 0L319 835Z"  horiz-adv-x="886" vert-adv-y="2048"  />

      
      <glyph glyph-name="uni67" unicode="&#x67;" d="M550-419Q309-419 161-322Q15-225 22-74L367-74Q370-123 424-153Q479-183 571-183Q766-183 802-17L843 176L824 176Q719 24 500 24Q333 24 229 137Q125 250 125 434Q125 725 286 928Q446 1130 676 1130Q790 1130 876 1074Q962 1017 991 923L1010 923L1052 1113L1397 1113L1150-41Q1112-219 954-319Q795-419 550-419M666 264Q776 264 856 373Q936 483 936 636Q936 732 886 790Q837 847 754 847Q641 847 564 742Q486 635 486 478Q486 380 535 322Q584 264 666 264Z"  horiz-adv-x="1369" vert-adv-y="2048"  />

      
      <glyph glyph-name="uni68" unicode="&#x68;" d="M379 1519L732 1519L608 945L627 945Q744 1134 975 1134Q1130 1134 1225 1045Q1318 958 1318 820Q1318 758 1303 686L1159 0L807 0L939 631Q948 676 948 707Q948 776 898 819Q850 859 777 859Q694 859 631 803Q568 748 549 659L409 0L56 0L379 1519Z"  horiz-adv-x="1366" vert-adv-y="2048"  />

      
      <glyph glyph-name="uni69" unicode="&#x69;" d="M297 1113L652 1113L415 0L60 0L297 1113M535 1242Q444 1242 389 1285Q336 1326 336 1393Q336 1464 389 1510Q444 1557 535 1557Q627 1557 682 1514Q735 1473 735 1406Q735 1335 682 1289Q627 1242 535 1242Z"  horiz-adv-x="643" vert-adv-y="2048"  />

      
      <glyph glyph-name="uni6a" unicode="&#x6a;" d="M408-34Q374-190 257-277Q140-364-34-364Q-113-364-191-350L-136-95Q-108-102-67-102Q40-102 62 2L298 1113L652 1113L408-34M536 1242Q445 1242 390 1285Q337 1326 337 1393Q337 1464 390 1510Q445 1557 536 1557Q628 1557 683 1514Q736 1473 736 1406Q736 1335 683 1289Q628 1242 536 1242Z"  horiz-adv-x="643" vert-adv-y="2048"  />

      
      <glyph glyph-name="uni6b" unicode="&#x6b;" d="M977 1113L1376 1113L867 624L1176 0L791 0L581 434L481 340L410 0L56 0L381 1530L734 1530L562 712L581 712L977 1113Z"  horiz-adv-x="1275" vert-adv-y="2048"  />

      
      <glyph glyph-name="uni6c" unicode="&#x6c;" d="M381 1530L736 1530L410 0L56 0L381 1530Z"  horiz-adv-x="634" vert-adv-y="2048"  />

      
      <glyph glyph-name="uni6d" unicode="&#x6d;" d="M288 1125L631 1125L590 937L609 937Q725 1139 933 1139Q1042 1139 1120 1080Q1190 1027 1216 940L1235 940Q1363 1139 1594 1139Q1730 1139 1818 1050Q1904 962 1904 827Q1904 765 1889 694L1744 0L1391 0L1526 643Q1534 689 1534 719Q1534 783 1497 821Q1460 859 1399 859Q1330 859 1278 809Q1224 757 1206 668L1066 0L728 0L863 643Q871 689 871 719Q871 783 834 821Q797 859 736 859Q667 859 615 809Q563 758 544 670L402 0L49 0L288 1125Z"  horiz-adv-x="1951" vert-adv-y="2048"  />

      
      <glyph glyph-name="uni6e" unicode="&#x6e;" d="M288 1125L631 1125L592 945L611 945Q729 1139 965 1139Q1116 1139 1210 1050Q1303 961 1303 820Q1303 758 1288 686L1144 0L792 0L924 631Q933 675 933 707Q933 775 887 817Q840 859 766 859Q684 859 622 803Q561 748 542 659L402 0L49 0L288 1125Z"  horiz-adv-x="1351" vert-adv-y="2048"  />

      
      <glyph glyph-name="uni6f" unicode="&#x6f;" d="M490 474Q490 368 534 307Q578 246 657 246Q764 246 842 359Q921 474 921 634Q921 745 878 807Q834 869 757 869Q645 869 567 753Q490 637 490 474M643-26Q407-26 265 110Q123 246 123 471Q123 754 307 945Q493 1139 773 1139Q1008 1139 1149 1003Q1290 867 1290 641Q1290 359 1108 168Q923-26 643-26Z"  horiz-adv-x="1344" vert-adv-y="2048"  />

      
      <glyph glyph-name="uni70" unicode="&#x70;" d="M692 266Q805 266 884 376Q964 486 964 647Q964 747 913 804Q864 856 786 856Q674 856 593 743Q512 630 512 477Q512 377 565 319Q614 266 692 266M-22-339L287 1113L632 1113L599 958L618 958Q743 1130 956 1130Q1125 1130 1227 1017Q1331 902 1331 707Q1331 394 1171 188Q1012-17 775-17Q656-17 573 44Q494 102 467 200L448 200L332-339L-22-339Z"  horiz-adv-x="1376" vert-adv-y="2048"  />

      
      <glyph glyph-name="uni71" unicode="&#x71;" d="M660 257Q772 257 853 370Q934 483 934 636Q934 737 881 794Q832 847 753 847Q640 847 562 739Q482 629 482 470Q482 368 534 311Q582 257 660 257M738-339L843 155L826 155Q702-17 489-17Q321-17 219 97Q115 213 115 410Q115 721 276 926Q436 1130 674 1130Q798 1130 888 1071Q971 1016 998 929L1017 929L1056 1113L1401 1113L1092-339L738-339Z"  horiz-adv-x="1381" vert-adv-y="2048"  />

      
      <glyph glyph-name="uni72" unicode="&#x72;" d="M284 1113L630 1113L598 956L616 956Q702 1130 883 1130Q971 1130 1031 1103L963 795Q880 831 779 831Q579 831 529 597L401 0L46 0L284 1113Z"  horiz-adv-x="969" vert-adv-y="2048"  />

      
      <glyph glyph-name="uni73" unicode="&#x73;" d="M408 329Q416 278 465 246Q515 213 587 213Q660 213 702 239Q744 265 744 310Q744 366 643 401L466 463Q202 556 202 768Q202 937 335 1038Q467 1139 687 1139Q902 1139 1033 1045Q1164 952 1169 797L851 797Q843 843 799 871Q754 899 687 899Q622 899 580 872Q539 846 539 803Q539 746 646 708L842 639Q975 593 1036 523Q1097 454 1097 350Q1097 180 958 77Q819-26 590-26Q361-26 218 72Q75 170 73 329L408 329Z"  horiz-adv-x="1201" vert-adv-y="2048"  />

      
      <glyph glyph-name="uni74" unicode="&#x74;" d="M611-16Q201-16 201 225Q201 270 212 323L317 823L145 823L202 1086L373 1086L429 1353L784 1353L727 1086L954 1086L897 823L672 823L578 382Q572 357 572 331Q572 241 732 241Q755 241 775 243L722-9Q673-16 611-16Z"  horiz-adv-x="900" vert-adv-y="2048"  />

      
      <glyph glyph-name="uni75" unicode="&#x75;" d="M1136 0L792 0L829 175L810 175Q698-26 467-26Q312-26 217 61Q120 150 120 300Q120 354 135 441L276 1113L631 1113L500 498Q493 463 493 425Q493 264 658 264Q742 264 801 320Q860 375 880 470L1017 1113L1371 1113L1136 0Z"  horiz-adv-x="1352" vert-adv-y="2048"  />

      
      <glyph glyph-name="uni76" unicode="&#x76;" d="M553 1113L583 324L602 324L957 1113L1333 1113L728 0L318 0L195 1113L553 1113Z"  horiz-adv-x="1222" vert-adv-y="2048"  />

      
      <glyph glyph-name="uni77" unicode="&#x77;" d="M1385 0L1000 0L984 732L965 732L639 0L264 0L210 1113L560 1113L542 352L561 352L887 1113L1227 1113L1235 350L1255 350L1555 1113L1909 1113L1385 0Z"  horiz-adv-x="1814" vert-adv-y="2048"  />

      
      <glyph glyph-name="uni78" unicode="&#x78;" d="M602 334L357 0L-22 0L430 554L213 1113L600 1113L702 771L721 771L956 1113L1345 1113L887 554L1110 0L736 0L621 334L602 334Z"  horiz-adv-x="1251" vert-adv-y="2048"  />

      
      <glyph glyph-name="uni79" unicode="&#x79;" d="M117-407Q-2-407-23-404L33-136Q41-139 103-139Q279-139 318-40L330-7L203 1113L566 1113L596 304L615 304L985 1113L1362 1113L762-10Q649-225 498-317Q350-407 117-407Z"  horiz-adv-x="1258" vert-adv-y="2048"  />

      
      <glyph glyph-name="uni7a" unicode="&#x7a;" d="M68 189L717 828L718 847L219 847L277 1113L1213 1113L1166 896L570 285L569 266L1050 266L993 0L28 0L68 189Z"  horiz-adv-x="1190" vert-adv-y="2048"  />

      
      <glyph glyph-name="uni7b" unicode="&#x7b;" d="M460 598Q637 578 637 417Q637 384 627 337L578 107Q567 52 567 19Q567-43 607-68Q645-92 740-92L785-92L732-340L607-340Q424-340 318-268Q213-196 213-76Q213-14 229 57L270 248Q282 305 282 344Q282 404 251 429Q221 453 150 453L215 763Q307 763 353 808Q398 854 423 970L458 1132Q502 1343 632 1432Q756 1516 1001 1516L1127 1516L1073 1266L1028 1266Q918 1266 863 1223Q807 1178 783 1068L738 855Q691 637 464 617L460 598Z"  horiz-adv-x="980" vert-adv-y="2048"  />

      
      <glyph glyph-name="uni7c" unicode="&#x7c;" d="M87-275L452 1443L782 1443L416-275L87-275Z"  horiz-adv-x="788" vert-adv-y="2048"  />

      
      <glyph glyph-name="uni7d" unicode="&#x7d;" d="M603 577Q426 597 426 759Q426 796 435 839L484 1069Q496 1122 496 1157Q496 1219 456 1244Q417 1268 323 1268L278 1268L331 1516L456 1516Q638 1516 745 1444Q850 1372 850 1252Q850 1197 834 1119L793 927Q781 872 781 832Q781 772 812 747Q842 722 913 722L847 412Q755 412 710 367Q665 322 640 206L605 43Q560-168 430-256Q306-340 61-340L-64-340L-11-90L34-90Q145-90 200-46Q256-2 280 108L325 321Q372 539 599 558L603 577Z"  horiz-adv-x="980" vert-adv-y="2048"  />

      
      <glyph glyph-name="uni7e" unicode="&#x7e;" d="M796 466Q679 466 568 585Q500 656 489 666Q445 703 405 703Q316 703 284 548L24 548Q62 770 160 885Q256 998 400 998Q517 998 628 879Q698 804 706 797Q747 760 785 760Q875 760 906 917L1166 917Q1090 466 796 466Z"  horiz-adv-x="1236" vert-adv-y="2048"  />

      
      <glyph glyph-name="unia1" unicode="&#xa1;" d="M40-314L278 656L599 656L424-314L40-314M515 1164Q608 1164 665 1112Q719 1063 719 989Q719 906 665 854Q609 800 515 800Q421 800 365 852Q311 901 311 975Q311 1059 365 1110Q420 1164 515 1164Z"  horiz-adv-x="778" vert-adv-y="2048"  />

      
      <glyph glyph-name="unia2" unicode="&#xa2;" d="M1302 534Q1277 367 1155 253Q1024 132 825 112L787-72L507-72L552 141Q410 189 330 302Q248 418 248 578Q248 856 396 1048Q546 1243 793 1273L831 1451L1111 1451L1066 1249Q1197 1203 1275 1102Q1348 1007 1353 894Q1354 881 1354 852L1025 852Q1023 925 975 966Q930 1005 856 1005Q740 1005 667 887Q597 773 597 600Q597 492 651 433Q698 382 772 382Q925 382 971 534L1302 534Z"  horiz-adv-x="1461" vert-adv-y="2048"  />

      
      <glyph glyph-name="unia3" unicode="&#xa3;" d="M1231 8L75 8L138 305Q280 310 383 391Q489 476 510 612L509 632L200 632L251 872L498 872Q476 1013 476 1054Q476 1252 623 1367Q770 1482 1024 1482Q1300 1482 1486 1400L1428 1129Q1308 1196 1102 1196Q975 1196 905 1145Q828 1089 828 979Q828 939 835 872L1198 872L1148 632L855 632L855 618Q841 386 632 324L629 305L1295 305L1231 8Z"  horiz-adv-x="1461" vert-adv-y="2048"  />

      
      <glyph glyph-name="unia4" unicode="&#xa4;" d="M548 645Q548 556 613 490Q678 425 767 425Q856 425 921 490Q986 556 986 645Q986 734 921 800Q856 866 767 866Q678 866 613 800Q548 734 548 645M1206 844Q1249 750 1249 645Q1249 504 1171 383L1268 262L1030 66L930 191Q851 163 767 163Q614 163 488 252L280 80L123 278L328 448Q285 540 285 645Q285 787 363 908L266 1029L504 1225L605 1099Q683 1127 767 1127Q921 1127 1045 1038L1254 1211L1410 1012L1206 844Z"  horiz-adv-x="1461" vert-adv-y="2048"  />

      
      <glyph glyph-name="unia5" unicode="&#xa5;" d="M870 182L831 0L464 0L503 182L234 182L273 364L541 364L567 484L298 484L337 666L518 666L273 1443L656 1443L815 852L834 852L1239 1443L1634 1443L1063 666L1239 666L1201 484L933 484L908 364L1175 364L1137 182L870 182Z"  horiz-adv-x="1461" vert-adv-y="2048"  />

      
      <glyph glyph-name="unia6" unicode="&#xa6;" d="M309 773L452 1443L782 1443L639 773L309 773M87-275L229 395L558 395L416-275L87-275Z"  horiz-adv-x="788" vert-adv-y="2048"  />

      
      <glyph glyph-name="unia7" unicode="&#xa7;" d="M608 419Q658 436 690 471Q722 507 722 547Q722 622 626 670L513 731Q461 716 429 681Q395 645 395 603Q395 530 495 480L608 419M437-301Q245-301 121-204Q-6-105-8 56L284 56Q289 5 331-29Q374-63 436-63Q499-63 541-32Q582 0 582 47Q582 116 492 159L314 249Q90 360 90 545Q90 654 162 732Q234 809 360 836L361 856Q220 957 220 1093Q220 1250 348 1350Q475 1449 674 1449Q865 1449 984 1353Q1105 1255 1112 1090L822 1090Q819 1145 777 1178Q735 1211 672 1211Q611 1211 572 1181Q532 1150 532 1104Q532 1038 625 992L791 904Q1025 784 1025 604Q1025 498 951 417Q876 336 756 313L756 295Q894 193 894 59Q894-98 765-199Q636-301 437-301Z"  horiz-adv-x="1032" vert-adv-y="2048"  />

      
      <glyph glyph-name="unia8" unicode="&#xa8;" d="M499 1268Q423 1268 374 1314Q326 1360 326 1432Q326 1504 374 1550Q423 1596 499 1596Q575 1596 624 1550Q672 1504 672 1432Q672 1360 624 1314Q575 1268 499 1268M1000 1268Q924 1268 876 1314Q827 1360 827 1432Q827 1504 876 1550Q924 1596 1000 1596Q1076 1596 1125 1550Q1174 1504 1174 1432Q1174 1360 1125 1314Q1076 1268 1000 1268Z"  horiz-adv-x="1059" vert-adv-y="2048"  />

      
      <glyph glyph-name="unia9" unicode="&#xa9;" d="M910-121Q584-121 365 95Q146 311 146 632Q146 969 386 1207Q626 1446 964 1446Q1291 1446 1510 1231Q1728 1016 1728 694Q1728 357 1488 118Q1248-121 910-121M914 48Q1174 48 1363 238Q1551 428 1551 690Q1551 944 1383 1111Q1215 1278 960 1278Q700 1278 511 1088Q323 898 323 636Q323 383 491 216Q660 48 914 48M1087 745Q1088 805 1058 839Q1028 873 975 873Q901 873 849 795Q798 718 798 606Q798 455 919 455Q1002 455 1042 538L1265 538Q1232 413 1140 345Q1047 276 912 276Q763 276 671 369Q578 462 578 612Q578 802 692 927Q807 1052 980 1052Q1129 1052 1222 963Q1315 875 1303 745L1087 745Z"  horiz-adv-x="1743" vert-adv-y="2048"  />

      
      <glyph glyph-name="uniaa" unicode="&#xaa;" d="M627 897Q563 896 527 869Q491 843 491 799Q491 759 521 735Q550 711 599 711Q654 711 695 745Q736 780 748 836L762 900L627 897M458 493Q332 493 255 566Q177 639 177 757Q177 901 283 983Q388 1065 574 1067L798 1070Q801 1078 811 1120Q816 1144 816 1154Q816 1191 786 1213Q755 1235 704 1235Q615 1235 587 1176L291 1176Q366 1466 712 1466Q900 1466 1015 1384Q1130 1302 1130 1168Q1130 1135 1122 1095L997 506L688 506L707 605L689 607Q609 493 458 493Z"  horiz-adv-x="1077" vert-adv-y="2048"  />

      
      <glyph glyph-name="uniab" unicode="&#xab;" d="M1016 549L1015 541L1269 153L966 153L705 563L707 571L1127 979L1452 979L1016 549M496 557L494 548L741 153L437 153L176 563L178 571L584 979L923 979L496 557Z"  horiz-adv-x="1477" vert-adv-y="2048"  />

      
      <glyph glyph-name="uniac" unicode="&#xac;" d="M1202 34L890 34L976 436L191 436L255 737L1351 737L1202 34Z"  horiz-adv-x="1461" vert-adv-y="2048"  />

      
      <glyph glyph-name="uniae" unicode="&#xae;" d="M481 667L584 1149L835 1149Q902 1149 948 1105Q994 1062 994 998Q994 941 958 897Q923 854 865 837L942 667L786 667L718 825L654 825L621 667L481 667M676 927L768 927Q846 927 846 989Q846 1040 785 1040L700 1040L676 927M203 901Q203 1121 359 1274Q514 1427 737 1427Q972 1427 1122 1280Q1272 1132 1272 901Q1272 681 1116 528Q960 374 737 374Q503 374 353 522Q203 670 203 901M1123 901Q1123 1073 1016 1180Q909 1287 737 1287Q577 1287 464 1174Q351 1062 351 901Q351 729 458 622Q565 515 737 515Q898 515 1010 628Q1123 741 1123 901Z"  horiz-adv-x="1260" vert-adv-y="2048"  />

      
      <glyph glyph-name="uniaf" unicode="&#xaf;" d="M344 1327L386 1525L1153 1525L1111 1327L344 1327Z"  horiz-adv-x="1059" vert-adv-y="2048"  />

      
      <glyph glyph-name="unib0" unicode="&#xb0;" d="M564 860Q436 860 344 951Q253 1043 253 1171Q253 1299 344 1391Q436 1482 564 1482Q692 1482 784 1391Q875 1299 875 1171Q875 1043 784 951Q692 860 564 860M564 1049Q615 1049 651 1085Q687 1121 687 1171Q687 1222 651 1258Q615 1294 564 1294Q514 1294 477 1258Q441 1222 441 1171Q441 1121 477 1085Q514 1049 564 1049Z"  horiz-adv-x="799" vert-adv-y="2048"  />

      
      <glyph glyph-name="unib1" unicode="&#xb1;" d="M164 55L218 310L1204 310L1150 55L164 55M890 433L586 433L631 645L289 645L344 903L686 903L732 1116L1036 1116L990 903L1333 903L1278 645L935 645L890 433Z"  horiz-adv-x="1461" vert-adv-y="2048"  />

      
      <glyph glyph-name="unib2" unicode="&#xb2;" d="M311 1519Q318 1667 439 1763Q560 1858 739 1858Q900 1858 1000 1780Q1100 1702 1100 1577Q1100 1492 1046 1418Q991 1344 861 1256Q672 1139 679 1142L677 1129L1015 1129L965 894L206 894L253 1112L557 1320Q693 1411 742 1459Q792 1507 792 1550Q792 1585 770 1605Q747 1626 709 1626Q665 1626 633 1597Q602 1569 593 1520L593 1519L311 1519Z"  horiz-adv-x="949" vert-adv-y="2048"  />

      
      <glyph glyph-name="unib3" unicode="&#xb3;" d="M605 1476L712 1476Q763 1476 794 1500Q826 1524 826 1561Q826 1593 801 1614Q776 1634 736 1634Q656 1634 631 1562L347 1562Q374 1698 486 1778Q599 1858 763 1858Q923 1858 1025 1785Q1127 1712 1127 1598Q1127 1507 1061 1443Q995 1380 897 1375L896 1361Q1063 1324 1063 1164Q1063 1033 949 950Q836 867 655 867Q470 867 357 967Q244 1067 262 1215L555 1215Q550 1169 577 1141Q604 1112 652 1112Q698 1112 726 1137Q754 1162 754 1203Q754 1237 728 1258Q701 1279 660 1279L561 1279L605 1476Z"  horiz-adv-x="985" vert-adv-y="2048"  />

      
      <glyph glyph-name="unib4" unicode="&#xb4;" d="M739 1647L1097 1647L730 1288L417 1288L739 1647Z"  horiz-adv-x="1059" vert-adv-y="2048"  />

      
      <glyph glyph-name="unib6" unicode="&#xb6;" d="M507-273L654 415Q467 440 359 561Q254 679 254 853Q254 1108 421 1269Q589 1431 868 1442L1206 1443L840-273L507-273M1386 1443L1718 1443L1353-273L1020-273L1386 1443Z"  horiz-adv-x="1653" vert-adv-y="2048"  />

      
      <glyph glyph-name="unib7" unicode="&#xb7;" d="M458 538Q364 538 307 594Q253 646 253 724Q253 812 307 868Q363 925 458 925Q551 925 608 870Q662 817 662 739Q662 651 608 595Q552 538 458 538Z"  horiz-adv-x="772" vert-adv-y="2048"  />

      
      <glyph glyph-name="unib8" unicode="&#xb8;" d="M243-106L329 26L536 26L448-108Q596-137 596-275Q596-375 523-434Q449-493 325-493Q211-493 133-458L164-316Q228-341 303-341Q388-341 388-289Q388-232 282-232L223-232L243-106Z"  horiz-adv-x="1059" vert-adv-y="2048"  />

      
      <glyph glyph-name="unib9" unicode="&#xb9;" d="M560 1556L546 1556L298 1416L354 1680L618 1831L935 1831L736 894L419 894L560 1556Z"  horiz-adv-x="801" vert-adv-y="2048"  />

      
      <glyph glyph-name="uniba" unicode="&#xba;" d="M737 1224Q655 1224 595 1129Q536 1034 536 904Q536 819 568 771Q600 724 658 724Q740 724 800 818Q859 913 859 1044Q859 1128 827 1176Q794 1224 737 1224M650 475Q445 475 326 592Q208 708 208 910Q208 1155 360 1314Q512 1472 747 1472Q952 1472 1069 1355Q1186 1237 1186 1031Q1186 786 1036 631Q886 475 650 475Z"  horiz-adv-x="1150" vert-adv-y="2048"  />

      
      <glyph glyph-name="unibb" unicode="&#xbb;" d="M282 979L585 979L846 570L844 562L423 153L99 153L534 583L536 591L282 979M811 979L1114 979L1375 570L1373 562L968 153L628 153L1056 575L1057 584L811 979Z"  horiz-adv-x="1478" vert-adv-y="2048"  />

      
      <glyph glyph-name="unibc" unicode="&#xbc;" d="M1861 125L1394 125L1448 396Q1604 615 1883 937L2333 937L2210 363L2316 363L2265 125L2159 125L2133 0L1835 0L1861 125M1705 350L1919 350L2000 728L1985 728Q1859 575 1709 364L1705 350M582 1168L568 1168L320 1028L376 1292L640 1443L957 1443L758 506L441 506L582 1168M1120 756L1578 1443L1909 1443L1308 683L870 0L539 0L1120 756Z"  horiz-adv-x="2423" vert-adv-y="2048"  />

      
      <glyph glyph-name="unibd" unicode="&#xbd;" d="M1580 625Q1587 773 1708 869Q1829 964 2008 964Q2169 964 2269 886Q2369 808 2369 683Q2369 598 2315 524Q2260 450 2130 362Q1941 245 1948 248L1946 235L2284 235L2234 0L1475 0L1522 218L1826 426Q1962 517 2011 565Q2061 613 2061 656Q2061 691 2039 711Q2016 732 1978 732Q1934 732 1902 703Q1871 675 1862 626L1862 625L1580 625M582 1168L568 1168L320 1028L376 1292L640 1443L957 1443L758 506L441 506L582 1168M1120 756L1578 1443L1909 1443L1308 683L870 0L539 0L1120 756Z"  horiz-adv-x="2419" vert-adv-y="2048"  />

      
      <glyph glyph-name="unibe" unicode="&#xbe;" d="M606 1088L713 1088Q764 1088 795 1112Q827 1136 827 1173Q827 1205 802 1226Q777 1246 737 1246Q657 1246 632 1174L348 1174Q375 1310 487 1390Q600 1470 764 1470Q924 1470 1026 1397Q1128 1324 1128 1210Q1128 1119 1062 1055Q996 992 898 987L897 973Q1064 936 1064 776Q1064 645 950 562Q837 479 656 479Q471 479 358 579Q245 679 263 827L556 827Q551 781 578 753Q605 724 653 724Q699 724 727 749Q755 774 755 815Q755 849 729 870Q702 891 661 891L562 891L606 1088M2008 125L1541 125L1595 396Q1751 615 2030 937L2480 937L2357 363L2463 363L2412 125L2306 125L2280 0L1982 0L2008 125M1852 350L2066 350L2147 728L2132 728Q2006 575 1856 364L1852 350M1268 756L1726 1443L2057 1443L1456 683L1018 0L687 0L1268 756Z"  horiz-adv-x="2554" vert-adv-y="2048"  />

      
      <glyph glyph-name="unibf" unicode="&#xbf;" d="M749 1164Q842 1164 900 1117Q958 1069 958 992Q958 908 900 853Q841 797 749 797Q660 797 601 844Q541 893 541 969Q541 1051 598 1107Q657 1164 749 1164M1039 91Q1018-94 878-208Q735-326 519-326Q295-326 158-222Q23-120 23 45Q23 172 93 275Q167 381 304 441Q419 492 464 532Q511 574 525 641L532 677L851 677L842 621Q822 486 768 413Q715 342 599 291Q476 237 427 186Q380 137 380 71Q380 16 422-18Q464-54 535-54Q599-54 648-15Q698 25 714 91L1039 91Z"  horiz-adv-x="1189" vert-adv-y="2048"  />

      
      <glyph glyph-name="unic0" unicode="&#xc0;" d="M1003 317L530 317L368 0L-10 0L796 1443L1242 1443L1408 0L1026 0L1003 317M659 581L992 581L953 1117L933 1117L659 581M1217 1596L907 1596L685 1922L1043 1922L1217 1596Z"  horiz-adv-x="1564" vert-adv-y="2048"  />

      
      <glyph glyph-name="unic1" unicode="&#xc1;" d="M1003 317L530 317L368 0L-10 0L796 1443L1242 1443L1408 0L1026 0L1003 317M659 581L992 581L953 1117L933 1117L659 581M1200 1922L1562 1922L1188 1596L873 1596L1200 1922Z"  horiz-adv-x="1564" vert-adv-y="2048"  />

      
      <glyph glyph-name="unic2" unicode="&#xc2;" d="M1003 317L530 317L368 0L-10 0L796 1443L1242 1443L1408 0L1026 0L1003 317M659 581L992 581L953 1117L933 1117L659 581M1470 1596L1187 1596L1102 1789L1083 1789L917 1596L606 1596L944 1945L1282 1945L1470 1596Z"  horiz-adv-x="1564" vert-adv-y="2048"  />

      
      <glyph glyph-name="unic3" unicode="&#xc3;" d="M1003 317L530 317L368 0L-10 0L796 1443L1242 1443L1408 0L1026 0L1003 317M659 581L992 581L953 1117L933 1117L659 581M1244 1579Q1155 1579 1063 1647Q971 1715 938 1715Q861 1715 849 1617L648 1617Q664 1750 740 1828Q814 1904 922 1904Q1011 1904 1102 1836Q1194 1767 1227 1767Q1304 1767 1317 1865L1517 1865Q1501 1732 1426 1655Q1352 1579 1244 1579Z"  horiz-adv-x="1564" vert-adv-y="2048"  />

      
      <glyph glyph-name="unic4" unicode="&#xc4;" d="M1003 317L530 317L368 0L-10 0L796 1443L1242 1443L1408 0L1026 0L1003 317M659 581L992 581L953 1117L933 1117L659 581M833 1581Q757 1581 708 1627Q660 1673 660 1745Q660 1817 708 1863Q757 1909 833 1909Q909 1909 958 1863Q1006 1817 1006 1745Q1006 1673 958 1627Q909 1581 833 1581M1334 1581Q1258 1581 1210 1627Q1161 1673 1161 1745Q1161 1817 1210 1863Q1258 1909 1334 1909Q1410 1909 1459 1863Q1508 1817 1508 1745Q1508 1673 1459 1627Q1410 1581 1334 1581Z"  horiz-adv-x="1564" vert-adv-y="2048"  />

      
      <glyph glyph-name="unic5" unicode="&#xc5;" d="M1003 317L530 317L368 0L-10 0L796 1443L1242 1443L1408 0L1026 0L1003 317M659 581L992 581L953 1117L933 1117L659 581M1101 1580Q991 1580 920 1649Q848 1718 848 1825Q848 1931 919 1999Q991 2067 1101 2067Q1211 2067 1282 1999Q1353 1931 1353 1825Q1353 1718 1282 1649Q1211 1580 1101 1580M1100 1727Q1143 1727 1170 1755Q1197 1782 1197 1824Q1197 1865 1170 1893Q1142 1920 1100 1920Q1058 1919 1031 1892Q1004 1865 1004 1824Q1004 1781 1031 1754Q1058 1727 1100 1727Z"  horiz-adv-x="1564" vert-adv-y="2048"  />

      
      <glyph glyph-name="unic6" unicode="&#xc6;" d="M1045 1167L706 592L1043 592L1165 1167L1045 1167M986 327L554 327L359 0L-10 0L863 1443L2200 1443L2137 1148L1490 1148L1429 858L2039 858L1981 588L1371 588L1309 295L1955 295L1893 0L917 0L986 327Z"  horiz-adv-x="2108" vert-adv-y="2048"  />

      
      <glyph glyph-name="unic7" unicode="&#xc7;" d="M1223 908Q1224 911 1224 927Q1221 1037 1147 1106Q1073 1174 956 1174Q779 1174 660 1009Q541 843 541 595Q541 444 615 356Q688 268 814 268Q926 268 1015 331Q1103 393 1137 496L1493 496Q1453 277 1288 134Q1124-8 883-34L832-112Q980-141 980-279Q980-379 907-438Q833-497 709-497Q595-497 517-462L548-320Q612-345 687-345Q772-345 772-293Q772-236 666-236L607-236L627-110L678-32Q442 0 305 161Q168 323 168 574Q168 973 396 1228Q623 1482 978 1482Q1233 1482 1406 1333Q1579 1184 1579 966Q1579 929 1576 908L1223 908Z"  horiz-adv-x="1570" vert-adv-y="2048"  />

      
      <glyph glyph-name="unic8" unicode="&#xc8;" d="M1087 1596L777 1596L555 1922L913 1922L1087 1596M1075 0L86 0L393 1443L1382 1443L1318 1148L697 1148L636 860L1220 860L1163 590L579 590L516 295L1138 295L1075 0Z"  horiz-adv-x="1302" vert-adv-y="2048"  />

      
      <glyph glyph-name="unic9" unicode="&#xc9;" d="M1070 1922L1432 1922L1058 1596L743 1596L1070 1922M1075 0L86 0L393 1443L1382 1443L1318 1148L697 1148L636 860L1220 860L1163 590L579 590L516 295L1138 295L1075 0Z"  horiz-adv-x="1302" vert-adv-y="2048"  />

      
      <glyph glyph-name="unica" unicode="&#xca;" d="M1340 1596L1057 1596L972 1789L953 1789L787 1596L476 1596L814 1945L1152 1945L1340 1596M1075 0L86 0L393 1443L1382 1443L1318 1148L697 1148L636 860L1220 860L1163 590L579 590L516 295L1138 295L1075 0Z"  horiz-adv-x="1302" vert-adv-y="2048"  />

      
      <glyph glyph-name="unicb" unicode="&#xcb;" d="M703 1581Q627 1581 578 1627Q530 1673 530 1745Q530 1817 578 1863Q627 1909 703 1909Q779 1909 828 1863Q876 1817 876 1745Q876 1673 828 1627Q779 1581 703 1581M1204 1581Q1128 1581 1080 1627Q1031 1673 1031 1745Q1031 1817 1080 1863Q1128 1909 1204 1909Q1280 1909 1329 1863Q1378 1817 1378 1745Q1378 1673 1329 1627Q1280 1581 1204 1581M1075 0L86 0L393 1443L1382 1443L1318 1148L697 1148L636 860L1220 860L1163 590L579 590L516 295L1138 295L1075 0Z"  horiz-adv-x="1302" vert-adv-y="2048"  />

      
      <glyph glyph-name="unicc" unicode="&#xcc;" d="M86 0L393 1443L760 1443L453 0L86 0M776 1596L466 1596L244 1922L602 1922L776 1596Z"  horiz-adv-x="707" vert-adv-y="2048"  />

      
      <glyph glyph-name="unicd" unicode="&#xcd;" d="M86 0L393 1443L760 1443L453 0L86 0M759 1922L1121 1922L747 1596L432 1596L759 1922Z"  horiz-adv-x="707" vert-adv-y="2048"  />

      
      <glyph glyph-name="unice" unicode="&#xce;" d="M86 0L393 1443L760 1443L453 0L86 0M1029 1596L746 1596L661 1789L642 1789L476 1596L165 1596L503 1945L841 1945L1029 1596Z"  horiz-adv-x="707" vert-adv-y="2048"  />

      
      <glyph glyph-name="unicf" unicode="&#xcf;" d="M86 0L393 1443L760 1443L453 0L86 0M392 1581Q316 1581 267 1627Q219 1673 219 1745Q219 1817 267 1863Q316 1909 392 1909Q468 1909 517 1863Q565 1817 565 1745Q565 1673 517 1627Q468 1581 392 1581M893 1581Q817 1581 769 1627Q720 1673 720 1745Q720 1817 769 1863Q817 1909 893 1909Q969 1909 1018 1863Q1067 1817 1067 1745Q1067 1673 1018 1627Q969 1581 893 1581Z"  horiz-adv-x="707" vert-adv-y="2048"  />

      
      <glyph glyph-name="unid0" unicode="&#xd0;" d="M730 294Q918 294 1036 439Q1156 587 1156 830Q1156 977 1080 1062Q1002 1149 866 1149L700 1149L637 852L798 852L745 600L584 600L520 294L730 294M962 1443Q1226 1443 1379 1293Q1533 1141 1533 873Q1533 492 1322 247Q1110 0 775 0L87 0L214 600L54 600L107 852L268 852L393 1443L962 1443Z"  horiz-adv-x="1532" vert-adv-y="2048"  />

      
      <glyph glyph-name="unid1" unicode="&#xd1;" d="M1216 1579Q1127 1579 1035 1647Q943 1715 910 1715Q833 1715 821 1617L620 1617Q636 1750 712 1828Q786 1904 894 1904Q983 1904 1074 1836Q1166 1767 1199 1767Q1276 1767 1289 1865L1489 1865Q1473 1732 1398 1655Q1324 1579 1216 1579M86 0L393 1443L653 1443L1103 601L1122 601L1301 1443L1653 1443L1346 0L1090 0L634 834L615 834L438 0L86 0Z"  horiz-adv-x="1600" vert-adv-y="2048"  />

      
      <glyph glyph-name="unid2" unicode="&#xd2;" d="M1167 1596L857 1596L635 1922L993 1922L1167 1596M814-39Q520-39 342 139Q169 311 169 581Q169 977 398 1231Q623 1482 964 1482Q1262 1482 1438 1304Q1607 1133 1607 862Q1607 465 1379 211Q1154-39 814-39M1234 836Q1234 988 1157 1079Q1080 1169 953 1169Q783 1169 663 1006Q543 841 543 606Q543 454 620 362Q696 271 824 271Q994 271 1114 434Q1234 598 1234 836Z"  horiz-adv-x="1638" vert-adv-y="2048"  />

      
      <glyph glyph-name="unid3" unicode="&#xd3;" d="M1150 1922L1512 1922L1138 1596L823 1596L1150 1922M814-39Q520-39 342 139Q169 311 169 581Q169 977 398 1231Q623 1482 964 1482Q1262 1482 1438 1304Q1607 1133 1607 862Q1607 465 1379 211Q1154-39 814-39M1234 836Q1234 988 1157 1079Q1080 1169 953 1169Q783 1169 663 1006Q543 841 543 606Q543 454 620 362Q696 271 824 271Q994 271 1114 434Q1234 598 1234 836Z"  horiz-adv-x="1638" vert-adv-y="2048"  />

      
      <glyph glyph-name="unid4" unicode="&#xd4;" d="M1420 1596L1137 1596L1052 1789L1033 1789L867 1596L556 1596L894 1945L1232 1945L1420 1596M814-39Q520-39 342 139Q169 311 169 581Q169 977 398 1231Q623 1482 964 1482Q1262 1482 1438 1304Q1607 1133 1607 862Q1607 465 1379 211Q1154-39 814-39M1234 836Q1234 988 1157 1079Q1080 1169 953 1169Q783 1169 663 1006Q543 841 543 606Q543 454 620 362Q696 271 824 271Q994 271 1114 434Q1234 598 1234 836Z"  horiz-adv-x="1638" vert-adv-y="2048"  />

      
      <glyph glyph-name="unid5" unicode="&#xd5;" d="M814-39Q520-39 342 139Q169 311 169 581Q169 977 398 1231Q623 1482 964 1482Q1262 1482 1438 1304Q1607 1133 1607 862Q1607 465 1379 211Q1154-39 814-39M1234 836Q1234 988 1157 1079Q1080 1169 953 1169Q783 1169 663 1006Q543 841 543 606Q543 454 620 362Q696 271 824 271Q994 271 1114 434Q1234 598 1234 836M1194 1579Q1105 1579 1013 1647Q921 1715 888 1715Q811 1715 799 1617L598 1617Q614 1750 690 1828Q764 1904 872 1904Q961 1904 1052 1836Q1144 1767 1177 1767Q1254 1767 1267 1865L1467 1865Q1451 1732 1376 1655Q1302 1579 1194 1579Z"  horiz-adv-x="1638" vert-adv-y="2048"  />

      
      <glyph glyph-name="unid6" unicode="&#xd6;" d="M783 1581Q707 1581 658 1627Q610 1673 610 1745Q610 1817 658 1863Q707 1909 783 1909Q859 1909 908 1863Q956 1817 956 1745Q956 1673 908 1627Q859 1581 783 1581M1284 1581Q1208 1581 1160 1627Q1111 1673 1111 1745Q1111 1817 1160 1863Q1208 1909 1284 1909Q1360 1909 1409 1863Q1458 1817 1458 1745Q1458 1673 1409 1627Q1360 1581 1284 1581M814-39Q520-39 342 139Q169 311 169 581Q169 977 398 1231Q623 1482 964 1482Q1262 1482 1438 1304Q1607 1133 1607 862Q1607 465 1379 211Q1154-39 814-39M1234 836Q1234 988 1157 1079Q1080 1169 953 1169Q783 1169 663 1006Q543 841 543 606Q543 454 620 362Q696 271 824 271Q994 271 1114 434Q1234 598 1234 836Z"  horiz-adv-x="1638" vert-adv-y="2048"  />

      
      <glyph glyph-name="unid7" unicode="&#xd7;" d="M729 370L377 101L207 342L559 611L329 935L584 1112L807 800L1162 1068L1332 827L978 558L1214 225L959 48L729 370Z"  horiz-adv-x="1461" vert-adv-y="2048"  />

      
      <glyph glyph-name="unid8" unicode="&#xd8;" d="M714 292Q764 271 824 271Q994 271 1114 434Q1234 598 1234 836Q1234 963 1179 1049L714 292M1086 1136Q1029 1169 953 1169Q783 1169 663 1006Q543 841 543 606Q543 457 617 366L1086 1136M1371 1362Q1607 1189 1607 862Q1607 465 1379 211Q1154-39 814-39Q664-39 540 10L487-77L385-15L433 65Q169 235 169 581Q169 977 398 1231Q623 1482 964 1482Q1127 1482 1262 1424L1317 1515L1431 1459L1371 1362Z"  horiz-adv-x="1614" vert-adv-y="2048"  />

      
      <glyph glyph-name="unid9" unicode="&#xd9;" d="M1214 1596L904 1596L682 1922L1040 1922L1214 1596M795-39Q522-39 358 96Q197 227 197 440Q197 503 210 565L396 1443L764 1443L579 571Q569 524 569 480Q570 384 636 328Q701 273 807 273Q1031 273 1084 522L1279 1443L1647 1443L1436 441Q1388 215 1218 88Q1048-39 795-39Z"  horiz-adv-x="1585" vert-adv-y="2048"  />

      
      <glyph glyph-name="unida" unicode="&#xda;" d="M1197 1922L1559 1922L1185 1596L870 1596L1197 1922M795-39Q522-39 358 96Q197 227 197 440Q197 503 210 565L396 1443L764 1443L579 571Q569 524 569 480Q570 384 636 328Q701 273 807 273Q1031 273 1084 522L1279 1443L1647 1443L1436 441Q1388 215 1218 88Q1048-39 795-39Z"  horiz-adv-x="1585" vert-adv-y="2048"  />

      
      <glyph glyph-name="unidb" unicode="&#xdb;" d="M1467 1596L1184 1596L1099 1789L1080 1789L914 1596L603 1596L941 1945L1279 1945L1467 1596M795-39Q522-39 358 96Q197 227 197 440Q197 503 210 565L396 1443L764 1443L579 571Q569 524 569 480Q570 384 636 328Q701 273 807 273Q1031 273 1084 522L1279 1443L1647 1443L1436 441Q1388 215 1218 88Q1048-39 795-39Z"  horiz-adv-x="1585" vert-adv-y="2048"  />

      
      <glyph glyph-name="unidc" unicode="&#xdc;" d="M830 1581Q754 1581 705 1627Q657 1673 657 1745Q657 1817 705 1863Q754 1909 830 1909Q906 1909 955 1863Q1003 1817 1003 1745Q1003 1673 955 1627Q906 1581 830 1581M1331 1581Q1255 1581 1207 1627Q1158 1673 1158 1745Q1158 1817 1207 1863Q1255 1909 1331 1909Q1407 1909 1456 1863Q1505 1817 1505 1745Q1505 1673 1456 1627Q1407 1581 1331 1581M795-39Q522-39 358 96Q197 227 197 440Q197 503 210 565L396 1443L764 1443L579 571Q569 524 569 480Q570 384 636 328Q701 273 807 273Q1031 273 1084 522L1279 1443L1647 1443L1436 441Q1388 215 1218 88Q1048-39 795-39Z"  horiz-adv-x="1585" vert-adv-y="2048"  />

      
      <glyph glyph-name="unidd" unicode="&#xdd;" d="M487 0L592 496L296 1443L679 1443L838 852L857 852L1262 1443L1658 1443L958 490L855 0L487 0M1155 1922L1517 1922L1143 1596L828 1596L1155 1922Z"  horiz-adv-x="1508" vert-adv-y="2048"  />

      
      <glyph glyph-name="unide" unicode="&#xde;" d="M394 1443L762 1443L715 1224L953 1224Q1149 1224 1277 1107Q1405 990 1405 811Q1405 581 1239 425Q1069 266 810 266L509 266L453 0L87 0L394 1443M568 546L774 546Q895 546 968 608Q1041 670 1041 773Q1041 941 840 941L651 941L568 546Z"  horiz-adv-x="1436" vert-adv-y="2048"  />

      
      <glyph glyph-name="unidf" unicode="&#xdf;" d="M69 0L306 1094Q342 1261 490 1360Q638 1459 852 1459Q1084 1459 1231 1350Q1377 1242 1377 1069Q1377 942 1295 847Q1215 753 1090 730L1086 710Q1357 651 1357 410Q1357 215 1217 99Q1078-16 848-16Q687-16 572 26L631 292Q701 257 790 257Q885 257 944 306Q1003 354 1003 433Q1003 504 943 542Q884 579 779 579L702 579L760 854L832 854Q913 854 968 900Q1024 946 1024 1018Q1024 1089 974 1133Q924 1177 844 1177Q672 1177 629 973L422 0L69 0Z"  horiz-adv-x="1441" vert-adv-y="2048"  />

      
      <glyph glyph-name="unie0" unicode="&#xe0;" d="M556 229Q634 229 695 274Q756 320 771 388L789 471L592 465Q509 462 461 428Q413 393 413 337Q413 289 453 259Q493 229 556 229M397-17Q257-17 163 70Q70 156 70 286Q70 457 204 558Q339 658 575 665L832 672L846 739Q851 769 851 774Q851 822 808 851Q765 879 694 879Q568 879 527 796L203 796Q237 953 378 1046Q518 1139 719 1139Q933 1139 1065 1047Q1197 955 1197 805Q1197 758 1188 715L1035 0L692 0L720 134L701 134Q658 65 575 24Q492-17 397-17M656 1288L382 1647L733 1647L961 1288L656 1288Z"  horiz-adv-x="1241" vert-adv-y="2048"  />

      
      <glyph glyph-name="unie1" unicode="&#xe1;" d="M556 229Q634 229 695 274Q756 320 771 388L789 471L592 465Q509 462 461 428Q413 393 413 337Q413 289 453 259Q493 229 556 229M397-17Q257-17 163 70Q70 156 70 286Q70 457 204 558Q339 658 575 665L832 672L846 739Q851 769 851 774Q851 822 808 851Q765 879 694 879Q568 879 527 796L203 796Q237 953 378 1046Q518 1139 719 1139Q933 1139 1065 1047Q1197 955 1197 805Q1197 758 1188 715L1035 0L692 0L720 134L701 134Q658 65 575 24Q492-17 397-17M944 1647L1302 1647L935 1288L622 1288L944 1647Z"  horiz-adv-x="1241" vert-adv-y="2048"  />

      
      <glyph glyph-name="unie2" unicode="&#xe2;" d="M556 229Q634 229 695 274Q756 320 771 388L789 471L592 465Q509 462 461 428Q413 393 413 337Q413 289 453 259Q493 229 556 229M397-17Q257-17 163 70Q70 156 70 286Q70 457 204 558Q339 658 575 665L832 672L846 739Q851 769 851 774Q851 822 808 851Q765 879 694 879Q568 879 527 796L203 796Q237 953 378 1046Q518 1139 719 1139Q933 1139 1065 1047Q1197 955 1197 805Q1197 758 1188 715L1035 0L692 0L720 134L701 134Q658 65 575 24Q492-17 397-17M1185 1260L901 1260L811 1462L792 1462L615 1260L304 1260L652 1619L990 1619L1185 1260Z"  horiz-adv-x="1241" vert-adv-y="2048"  />

      
      <glyph glyph-name="unie3" unicode="&#xe3;" d="M556 229Q634 229 695 274Q756 320 771 388L789 471L592 465Q509 462 461 428Q413 393 413 337Q413 289 453 259Q493 229 556 229M397-17Q257-17 163 70Q70 156 70 286Q70 457 204 558Q339 658 575 665L832 672L846 739Q851 769 851 774Q851 822 808 851Q765 879 694 879Q568 879 527 796L203 796Q237 953 378 1046Q518 1139 719 1139Q933 1139 1065 1047Q1197 955 1197 805Q1197 758 1188 715L1035 0L692 0L720 134L701 134Q658 65 575 24Q492-17 397-17M961 1257Q871 1257 781 1336Q690 1414 656 1414Q586 1414 572 1295L367 1295Q382 1433 457 1518Q532 1602 641 1602Q731 1602 821 1524Q912 1446 946 1446Q1017 1446 1030 1564L1236 1564Q1221 1427 1145 1342Q1070 1257 961 1257Z"  horiz-adv-x="1241" vert-adv-y="2048"  />

      
      <glyph glyph-name="unie4" unicode="&#xe4;" d="M556 229Q634 229 695 274Q756 320 771 388L789 471L592 465Q509 462 461 428Q413 393 413 337Q413 289 453 259Q493 229 556 229M397-17Q257-17 163 70Q70 156 70 286Q70 457 204 558Q339 658 575 665L832 672L846 739Q851 769 851 774Q851 822 808 851Q765 879 694 879Q568 879 527 796L203 796Q237 953 378 1046Q518 1139 719 1139Q933 1139 1065 1047Q1197 955 1197 805Q1197 758 1188 715L1035 0L692 0L720 134L701 134Q658 65 575 24Q492-17 397-17M543 1260Q467 1260 418 1306Q370 1352 370 1424Q370 1496 418 1542Q467 1588 543 1588Q619 1588 668 1542Q716 1496 716 1424Q716 1352 668 1306Q619 1260 543 1260M1044 1260Q968 1260 920 1306Q871 1352 871 1424Q871 1496 920 1542Q968 1588 1044 1588Q1120 1588 1169 1542Q1218 1496 1218 1424Q1218 1352 1169 1306Q1120 1260 1044 1260Z"  horiz-adv-x="1241" vert-adv-y="2048"  />

      
      <glyph glyph-name="unie5" unicode="&#xe5;" d="M556 229Q634 229 695 274Q756 320 771 388L789 471L592 465Q509 462 461 428Q413 393 413 337Q413 289 453 259Q493 229 556 229M397-17Q257-17 163 70Q70 156 70 286Q70 457 204 558Q339 658 575 665L832 672L846 739Q851 769 851 774Q851 822 808 851Q765 879 694 879Q568 879 527 796L203 796Q237 953 378 1046Q518 1139 719 1139Q933 1139 1065 1047Q1197 955 1197 805Q1197 758 1188 715L1035 0L692 0L720 134L701 134Q658 65 575 24Q492-17 397-17M865 1260Q755 1260 684 1329Q612 1398 612 1505Q612 1611 683 1679Q755 1747 865 1747Q975 1747 1046 1679Q1117 1611 1117 1505Q1117 1398 1046 1329Q975 1260 865 1260M864 1407Q907 1407 934 1435Q961 1462 961 1504Q961 1545 934 1573Q906 1600 864 1600Q822 1599 795 1572Q768 1545 768 1504Q768 1461 795 1434Q822 1407 864 1407Z"  horiz-adv-x="1241" vert-adv-y="2048"  />

      
      <glyph glyph-name="unie6" unicode="&#xe6;" d="M1308-26Q1186-26 1076 27Q965 80 920 161L901 161Q844 80 736 29Q620-26 486-26Q307-26 189 66Q72 157 72 292Q72 470 204 569Q335 668 578 675L835 682L848 739Q853 757 853 774Q853 822 810 851Q767 879 696 879Q569 879 530 796L206 796Q241 958 378 1049Q513 1139 712 1139Q824 1139 916 1097Q1004 1055 1045 988L1064 988Q1204 1139 1422 1139Q1626 1139 1762 1008Q1900 873 1900 666Q1900 581 1880 479L1116 479L1116 458Q1116 348 1176 287Q1233 229 1328 229Q1472 229 1516 334L1848 334Q1807 170 1662 72Q1516-26 1308-26M1575 681Q1579 693 1579 717Q1579 791 1530 838Q1479 887 1398 887Q1310 887 1243 830Q1176 774 1152 681L1575 681M559 220Q635 220 698 270Q759 318 773 388L791 471L594 465Q511 462 463 428Q415 393 415 335Q415 286 455 253Q496 220 559 220Z"  horiz-adv-x="1956" vert-adv-y="2048"  />

      
      <glyph glyph-name="unie7" unicode="&#xe7;" d="M897 713Q896 786 847 827Q802 866 728 866Q612 866 539 750Q469 637 469 464Q469 356 523 298Q570 247 644 247Q797 247 843 399L1174 399Q1151 234 1030 120Q901-1 704-22L645-112Q793-141 793-279Q793-379 720-438Q646-497 522-497Q408-497 330-462L361-320Q425-345 500-345Q585-345 585-293Q585-236 479-236L420-236L440-110L502-15Q323 17 222 138Q120 259 120 443Q120 745 292 940Q467 1139 750 1139Q961 1139 1097 1018Q1220 907 1226 755L1226 713L897 713Z"  horiz-adv-x="1249" vert-adv-y="2048"  />

      
      <glyph glyph-name="unie8" unicode="&#xe8;" d="M610 1288L336 1647L687 1647L915 1288L610 1288M638-26Q404-26 265 103Q123 233 123 456Q123 761 294 950Q465 1139 739 1139Q955 1139 1094 1009Q1234 877 1234 666Q1234 581 1214 479L449 479Q448 475 448 458Q448 348 508 287Q565 229 660 229Q807 229 849 334L1181 334Q1140 169 995 72Q849-26 638-26M908 681Q911 699 911 717Q911 791 862 838Q811 887 730 887Q642 887 575 830Q508 774 485 681L908 681Z"  horiz-adv-x="1289" vert-adv-y="2048"  />

      
      <glyph glyph-name="unie9" unicode="&#xe9;" d="M898 1647L1256 1647L889 1288L576 1288L898 1647M638-26Q404-26 265 103Q123 233 123 456Q123 761 294 950Q465 1139 739 1139Q955 1139 1094 1009Q1234 877 1234 666Q1234 581 1214 479L449 479Q448 475 448 458Q448 348 508 287Q565 229 660 229Q807 229 849 334L1181 334Q1140 169 995 72Q849-26 638-26M908 681Q911 699 911 717Q911 791 862 838Q811 887 730 887Q642 887 575 830Q508 774 485 681L908 681Z"  horiz-adv-x="1289" vert-adv-y="2048"  />

      
      <glyph glyph-name="uniea" unicode="&#xea;" d="M1193 1260L909 1260L819 1462L800 1462L623 1260L312 1260L660 1619L998 1619L1193 1260M638-26Q404-26 265 103Q123 233 123 456Q123 761 294 950Q465 1139 739 1139Q955 1139 1094 1009Q1234 877 1234 666Q1234 581 1214 479L449 479Q448 475 448 458Q448 348 508 287Q565 229 660 229Q807 229 849 334L1181 334Q1140 169 995 72Q849-26 638-26M908 681Q911 699 911 717Q911 791 862 838Q811 887 730 887Q642 887 575 830Q508 774 485 681L908 681Z"  horiz-adv-x="1289" vert-adv-y="2048"  />

      
      <glyph glyph-name="unieb" unicode="&#xeb;" d="M638-26Q404-26 265 103Q123 233 123 456Q123 761 294 950Q465 1139 739 1139Q955 1139 1094 1009Q1234 877 1234 666Q1234 581 1214 479L449 479Q448 475 448 458Q448 348 508 287Q565 229 660 229Q807 229 849 334L1181 334Q1140 169 995 72Q849-26 638-26M908 681Q911 699 911 717Q911 791 862 838Q811 887 730 887Q642 887 575 830Q508 774 485 681L908 681M551 1260Q475 1260 426 1306Q378 1352 378 1424Q378 1496 426 1542Q475 1588 551 1588Q627 1588 676 1542Q724 1496 724 1424Q724 1352 676 1306Q627 1260 551 1260M1052 1260Q976 1260 928 1306Q879 1352 879 1424Q879 1496 928 1542Q976 1588 1052 1588Q1128 1588 1177 1542Q1226 1496 1226 1424Q1226 1352 1177 1306Q1128 1260 1052 1260Z"  horiz-adv-x="1289" vert-adv-y="2048"  />

      
      <glyph glyph-name="uniec" unicode="&#xec;" d="M348 1288L74 1647L425 1647L653 1288L348 1288M297 1113L651 1113L414 0L61 0L297 1113Z"  horiz-adv-x="643" vert-adv-y="2048"  />

      
      <glyph glyph-name="unied" unicode="&#xed;" d="M636 1647L994 1647L627 1288L314 1288L636 1647M297 1113L651 1113L414 0L61 0L297 1113Z"  horiz-adv-x="643" vert-adv-y="2048"  />

      
      <glyph glyph-name="uniee" unicode="&#xee;" d="M931 1260L647 1260L557 1462L538 1462L361 1260L50 1260L398 1619L736 1619L931 1260M297 1113L651 1113L414 0L61 0L297 1113Z"  horiz-adv-x="643" vert-adv-y="2048"  />

      
      <glyph glyph-name="unief" unicode="&#xef;" d="M297 1113L651 1113L414 0L61 0L297 1113M289 1260Q213 1260 164 1306Q116 1352 116 1424Q116 1496 164 1542Q213 1588 289 1588Q365 1588 414 1542Q462 1496 462 1424Q462 1352 414 1306Q365 1260 289 1260M790 1260Q714 1260 666 1306Q617 1352 617 1424Q617 1496 666 1542Q714 1588 790 1588Q866 1588 915 1542Q964 1496 964 1424Q964 1352 915 1306Q866 1260 790 1260Z"  horiz-adv-x="643" vert-adv-y="2048"  />

      
      <glyph glyph-name="unif0" unicode="&#xf0;" d="M655-26Q422-26 271 113Q120 252 120 465Q120 724 270 898Q420 1073 644 1073Q744 1073 829 1034Q913 995 949 933L968 931Q960 1069 871 1217L580 1128L547 1289L765 1356Q692 1438 586 1517L989 1517Q1031 1478 1057 1447L1319 1531L1354 1370L1162 1310Q1320 1062 1320 776Q1320 615 1277 474Q1206 242 1040 108Q874-26 655-26M941 609Q941 705 887 764Q834 822 746 822Q642 822 564 716Q486 610 486 470Q486 373 538 316Q590 258 677 258Q781 258 861 364Q941 470 941 609Z"  horiz-adv-x="1361" vert-adv-y="2048"  />

      
      <glyph glyph-name="unif1" unicode="&#xf1;" d="M959 1265Q869 1265 779 1344Q688 1422 654 1422Q584 1422 570 1303L365 1303Q380 1441 455 1526Q530 1610 639 1610Q729 1610 819 1532Q910 1454 944 1454Q1015 1454 1028 1572L1234 1572Q1219 1435 1143 1350Q1068 1265 959 1265M288 1125L631 1125L592 945L611 945Q729 1139 965 1139Q1116 1139 1210 1050Q1303 961 1303 820Q1303 758 1288 686L1144 0L792 0L924 631Q933 675 933 707Q933 775 887 817Q840 859 766 859Q684 859 622 803Q561 748 542 659L402 0L49 0L288 1125Z"  horiz-adv-x="1350" vert-adv-y="2048"  />

      
      <glyph glyph-name="unif2" unicode="&#xf2;" d="M634 1288L360 1647L711 1647L939 1288L634 1288M490 474Q490 368 534 307Q578 246 657 246Q764 246 842 359Q921 474 921 634Q921 745 878 807Q834 869 757 869Q645 869 567 753Q490 637 490 474M643-26Q407-26 265 110Q123 246 123 471Q123 754 307 945Q493 1139 773 1139Q1008 1139 1149 1003Q1290 867 1290 641Q1290 359 1108 168Q923-26 643-26Z"  horiz-adv-x="1331" vert-adv-y="2048"  />

      
      <glyph glyph-name="unif3" unicode="&#xf3;" d="M922 1647L1280 1647L913 1288L600 1288L922 1647M490 474Q490 368 534 307Q578 246 657 246Q764 246 842 359Q921 474 921 634Q921 745 878 807Q834 869 757 869Q645 869 567 753Q490 637 490 474M643-26Q407-26 265 110Q123 246 123 471Q123 754 307 945Q493 1139 773 1139Q1008 1139 1149 1003Q1290 867 1290 641Q1290 359 1108 168Q923-26 643-26Z"  horiz-adv-x="1331" vert-adv-y="2048"  />

      
      <glyph glyph-name="unif4" unicode="&#xf4;" d="M1217 1260L933 1260L843 1462L824 1462L647 1260L336 1260L684 1619L1022 1619L1217 1260M490 474Q490 368 534 307Q578 246 657 246Q764 246 842 359Q921 474 921 634Q921 745 878 807Q834 869 757 869Q645 869 567 753Q490 637 490 474M643-26Q407-26 265 110Q123 246 123 471Q123 754 307 945Q493 1139 773 1139Q1008 1139 1149 1003Q1290 867 1290 641Q1290 359 1108 168Q923-26 643-26Z"  horiz-adv-x="1331" vert-adv-y="2048"  />

      
      <glyph glyph-name="unif5" unicode="&#xf5;" d="M993 1257Q903 1257 813 1336Q722 1414 688 1414Q618 1414 604 1295L399 1295Q414 1433 489 1518Q564 1602 673 1602Q763 1602 853 1524Q944 1446 978 1446Q1049 1446 1062 1564L1268 1564Q1253 1427 1177 1342Q1102 1257 993 1257M490 474Q490 368 534 307Q578 246 657 246Q764 246 842 359Q921 474 921 634Q921 745 878 807Q834 869 757 869Q645 869 567 753Q490 637 490 474M643-26Q407-26 265 110Q123 246 123 471Q123 754 307 945Q493 1139 773 1139Q1008 1139 1149 1003Q1290 867 1290 641Q1290 359 1108 168Q923-26 643-26Z"  horiz-adv-x="1331" vert-adv-y="2048"  />

      
      <glyph glyph-name="unif6" unicode="&#xf6;" d="M575 1260Q499 1260 450 1306Q402 1352 402 1424Q402 1496 450 1542Q499 1588 575 1588Q651 1588 700 1542Q748 1496 748 1424Q748 1352 700 1306Q651 1260 575 1260M1076 1260Q1000 1260 952 1306Q903 1352 903 1424Q903 1496 952 1542Q1000 1588 1076 1588Q1152 1588 1201 1542Q1250 1496 1250 1424Q1250 1352 1201 1306Q1152 1260 1076 1260M490 474Q490 368 534 307Q578 246 657 246Q764 246 842 359Q921 474 921 634Q921 745 878 807Q834 869 757 869Q645 869 567 753Q490 637 490 474M643-26Q407-26 265 110Q123 246 123 471Q123 754 307 945Q493 1139 773 1139Q1008 1139 1149 1003Q1290 867 1290 641Q1290 359 1108 168Q923-26 643-26Z"  horiz-adv-x="1331" vert-adv-y="2048"  />

      
      <glyph glyph-name="unif7" unicode="&#xf7;" d="M188 459L243 714L1356 714L1301 459L188 459M848 815Q762 815 710 865Q661 913 661 984Q661 1065 710 1115Q761 1168 848 1168Q933 1168 985 1117Q1034 1069 1034 998Q1034 917 985 867Q934 815 848 815M675 4Q589 4 537 54Q488 102 488 173Q488 254 537 304Q588 357 675 357Q760 357 813 306Q862 258 862 187Q862 106 813 56Q762 4 675 4Z"  horiz-adv-x="1462" vert-adv-y="2048"  />

      
      <glyph glyph-name="unif8" unicode="&#xf8;" d="M549 289Q590 246 657 246Q764 246 842 359Q921 474 921 634Q921 687 910 731L549 289M853 835Q813 869 757 869Q645 869 567 753Q490 637 490 474Q490 430 497 398L853 835M1140 1012Q1290 876 1290 641Q1290 359 1108 168Q923-26 643-26Q474-26 351 46L242-87L152-26L264 111Q123 247 123 471Q123 754 307 945Q493 1139 773 1139Q931 1139 1049 1076L1145 1194L1242 1137L1140 1012Z"  horiz-adv-x="1344" vert-adv-y="2048"  />

      
      <glyph glyph-name="unif9" unicode="&#xf9;" d="M697 1288L423 1647L774 1647L1002 1288L697 1288M1136 0L792 0L829 175L810 175Q698-26 467-26Q312-26 217 61Q120 150 120 300Q120 354 135 441L276 1113L631 1113L500 498Q493 463 493 425Q493 264 658 264Q742 264 801 320Q860 375 880 470L1017 1113L1371 1113L1136 0Z"  horiz-adv-x="1352" vert-adv-y="2048"  />

      
      <glyph glyph-name="unifa" unicode="&#xfa;" d="M985 1647L1343 1647L976 1288L663 1288L985 1647M1136 0L792 0L829 175L810 175Q698-26 467-26Q312-26 217 61Q120 150 120 300Q120 354 135 441L276 1113L631 1113L500 498Q493 463 493 425Q493 264 658 264Q742 264 801 320Q860 375 880 470L1017 1113L1371 1113L1136 0Z"  horiz-adv-x="1352" vert-adv-y="2048"  />

      
      <glyph glyph-name="unifb" unicode="&#xfb;" d="M1280 1260L996 1260L906 1462L887 1462L710 1260L399 1260L747 1619L1085 1619L1280 1260M1136 0L792 0L829 175L810 175Q698-26 467-26Q312-26 217 61Q120 150 120 300Q120 354 135 441L276 1113L631 1113L500 498Q493 463 493 425Q493 264 658 264Q742 264 801 320Q860 375 880 470L1017 1113L1371 1113L1136 0Z"  horiz-adv-x="1352" vert-adv-y="2048"  />

      
      <glyph glyph-name="unifc" unicode="&#xfc;" d="M1136 0L792 0L829 175L810 175Q698-26 467-26Q312-26 217 61Q120 150 120 300Q120 354 135 441L276 1113L631 1113L500 498Q493 463 493 425Q493 264 658 264Q742 264 801 320Q860 375 880 470L1017 1113L1371 1113L1136 0M638 1260Q562 1260 513 1306Q465 1352 465 1424Q465 1496 513 1542Q562 1588 638 1588Q714 1588 763 1542Q811 1496 811 1424Q811 1352 763 1306Q714 1260 638 1260M1139 1260Q1063 1260 1015 1306Q966 1352 966 1424Q966 1496 1015 1542Q1063 1588 1139 1588Q1215 1588 1264 1542Q1313 1496 1313 1424Q1313 1352 1264 1306Q1215 1260 1139 1260Z"  horiz-adv-x="1352" vert-adv-y="2048"  />

      
      <glyph glyph-name="unifd" unicode="&#xfd;" d="M117-407Q-2-407-23-404L33-136Q41-139 103-139Q279-139 318-40L330-7L203 1113L566 1113L596 304L615 304L985 1113L1362 1113L762-10Q649-225 498-317Q350-407 117-407M940 1647L1298 1647L931 1288L618 1288L940 1647Z"  horiz-adv-x="1258" vert-adv-y="2048"  />

      
      <glyph glyph-name="unife" unicode="&#xfe;" d="M693 266Q806 266 885 376Q965 486 965 647Q965 747 914 804Q865 856 787 856Q675 856 594 743Q513 630 513 477Q513 377 566 319Q615 266 693 266M334-339L-20-339L373 1508L727 1508L610 958L629 958Q746 1131 957 1131Q1124 1131 1227 1018Q1332 902 1332 707Q1332 394 1172 188Q1013-17 776-17Q658-17 575 44Q495 102 468 200L449 200L334-339Z"  horiz-adv-x="1378" vert-adv-y="2048"  />

      
      <glyph glyph-name="uniff" unicode="&#xff;" d="M117-407Q-2-407-23-404L33-136Q41-139 103-139Q279-139 318-40L330-7L203 1113L566 1113L596 304L615 304L985 1113L1362 1113L762-10Q649-225 498-317Q350-407 117-407M593 1260Q517 1260 468 1306Q420 1352 420 1424Q420 1496 468 1542Q517 1588 593 1588Q669 1588 718 1542Q766 1496 766 1424Q766 1352 718 1306Q669 1260 593 1260M1094 1260Q1018 1260 970 1306Q921 1352 921 1424Q921 1496 970 1542Q1018 1588 1094 1588Q1170 1588 1219 1542Q1268 1496 1268 1424Q1268 1352 1219 1306Q1170 1260 1094 1260Z"  horiz-adv-x="1258" vert-adv-y="2048"  />

      
      <glyph glyph-name="uni0100" unicode="&#x0100;" d="M1003 317L530 317L368 0L-10 0L796 1443L1242 1443L1408 0L1026 0L1003 317M659 581L992 581L953 1117L933 1117L659 581M669 1637L711 1835L1493 1835L1451 1637L669 1637Z"  horiz-adv-x="1564" vert-adv-y="2048"  />

      
      <glyph glyph-name="uni0101" unicode="&#x0101;" d="M556 229Q634 229 695 274Q756 320 771 388L789 471L592 465Q509 462 461 428Q413 393 413 337Q413 289 453 259Q493 229 556 229M397-17Q257-17 163 70Q70 156 70 286Q70 457 204 558Q339 658 575 665L832 672L846 739Q851 769 851 774Q851 822 808 851Q765 879 694 879Q568 879 527 796L203 796Q237 953 378 1046Q518 1139 719 1139Q933 1139 1065 1047Q1197 955 1197 805Q1197 758 1188 715L1035 0L692 0L720 134L701 134Q658 65 575 24Q492-17 397-17M390 1327L432 1525L1199 1525L1157 1327L390 1327Z"  horiz-adv-x="1241" vert-adv-y="2048"  />

      
      <glyph glyph-name="uni0102" unicode="&#x0102;" d="M1003 317L530 317L368 0L-10 0L796 1443L1242 1443L1408 0L1026 0L1003 317M659 581L992 581L953 1117L933 1117L659 581M667 1892Q667 1913 670 1932L903 1932Q902 1923 902 1907Q902 1846 951 1806Q1000 1767 1076 1767Q1239 1767 1273 1932L1505 1932Q1485 1772 1371 1678Q1253 1581 1068 1581Q893 1581 779 1671Q667 1759 667 1892Z"  horiz-adv-x="1564" vert-adv-y="2048"  />

      
      <glyph glyph-name="uni0103" unicode="&#x0103;" d="M556 229Q634 229 695 274Q756 320 771 388L789 471L592 465Q509 462 461 428Q413 393 413 337Q413 289 453 259Q493 229 556 229M397-17Q257-17 163 70Q70 156 70 286Q70 457 204 558Q339 658 575 665L832 672L846 739Q851 769 851 774Q851 822 808 851Q765 879 694 879Q568 879 527 796L203 796Q237 953 378 1046Q518 1139 719 1139Q933 1139 1065 1047Q1197 955 1197 805Q1197 758 1188 715L1035 0L692 0L720 134L701 134Q658 65 575 24Q492-17 397-17M635 1620Q634 1611 634 1591Q634 1527 682 1487Q730 1446 807 1446Q977 1446 1008 1620L1241 1620Q1224 1454 1109 1358Q990 1260 799 1260Q622 1260 509 1350Q398 1438 398 1573Q398 1598 401 1620L635 1620Z"  horiz-adv-x="1241" vert-adv-y="2048"  />

      
      <glyph glyph-name="uni0104" unicode="&#x0104;" d="M659 581L992 581L953 1117L933 1117L659 581M1310-454Q1251-468 1196-468Q1073-468 998-411Q922-355 922-262Q922-116 1103-8L1106 7L1025 7L1003 317L530 317L368 0L-10 0L796 1443L1242 1443L1404 35Q1170-61 1170-187Q1170-280 1299-280Q1336-280 1348-277L1310-454Z"  horiz-adv-x="1564" vert-adv-y="2048"  />

      
      <glyph glyph-name="uni0105" unicode="&#x0105;" d="M833-468Q708-468 633-408Q558-348 563-251Q569-111 745-12L748 3L693 3L720 134L701 134Q658 65 575 24Q492-17 397-17Q257-17 164 69Q70 156 70 286Q70 457 204 558Q339 658 575 665L832 672L846 739Q851 763 851 774Q851 822 808 851Q765 879 694 879Q568 879 527 796L203 796Q237 953 378 1046Q518 1139 719 1139Q933 1139 1065 1047Q1197 955 1197 805Q1197 758 1188 715L1043 35Q815-57 810-181Q807-227 841-253Q875-280 936-280Q974-280 987-277L949-454Q890-468 833-468M556 229Q634 229 695 274Q756 319 771 388L789 471L592 465Q509 462 461 428Q413 393 413 337Q413 289 453 259Q493 229 556 229Z"  horiz-adv-x="1241" vert-adv-y="2048"  />

      
      <glyph glyph-name="uni0106" unicode="&#x0106;" d="M1148 1923L1510 1923L1136 1597L821 1597L1148 1923M1223 908Q1224 911 1224 927Q1221 1037 1147 1106Q1073 1174 956 1174Q779 1174 660 1009Q541 843 541 595Q541 444 615 356Q688 268 814 268Q926 268 1015 331Q1103 393 1137 496L1493 496Q1449 254 1256 108Q1062-39 786-39Q504-39 336 128Q168 295 168 574Q168 973 396 1228Q623 1482 978 1482Q1233 1482 1406 1333Q1579 1184 1579 966Q1579 929 1576 908L1223 908Z"  horiz-adv-x="1570" vert-adv-y="2048"  />

      
      <glyph glyph-name="uni0107" unicode="&#x0107;" d="M897 713Q896 786 847 827Q802 866 728 866Q612 866 539 750Q469 637 469 464Q469 356 523 298Q570 247 644 247Q797 247 843 399L1174 399Q1148 217 1006 100Q855-26 625-26Q392-26 256 101Q120 228 120 443Q120 745 292 940Q467 1139 750 1139Q961 1139 1097 1018Q1220 907 1226 755L1226 713L897 713M916 1647L1274 1647L907 1288L594 1288L916 1647Z"  horiz-adv-x="1256" vert-adv-y="2048"  />

      
      <glyph glyph-name="uni0108" unicode="&#x0108;" d="M1223 908Q1224 911 1224 927Q1221 1037 1147 1106Q1073 1174 956 1174Q779 1174 660 1009Q541 843 541 595Q541 444 615 356Q688 268 814 268Q926 268 1015 331Q1103 393 1137 496L1493 496Q1449 254 1256 108Q1062-39 786-39Q504-39 336 128Q168 295 168 574Q168 973 396 1228Q623 1482 978 1482Q1233 1482 1406 1333Q1579 1184 1579 966Q1579 929 1576 908L1223 908M1418 1597L1135 1597L1050 1790L1031 1790L865 1597L554 1597L892 1946L1230 1946L1418 1597Z"  horiz-adv-x="1570" vert-adv-y="2048"  />

      
      <glyph glyph-name="uni0109" unicode="&#x0109;" d="M1211 1260L927 1260L837 1462L818 1462L641 1260L330 1260L678 1619L1016 1619L1211 1260M897 713Q896 786 847 827Q802 866 728 866Q612 866 539 750Q469 637 469 464Q469 356 523 298Q570 247 644 247Q797 247 843 399L1174 399Q1148 217 1006 100Q855-26 625-26Q392-26 256 101Q120 228 120 443Q120 745 292 940Q467 1139 750 1139Q961 1139 1097 1018Q1220 907 1226 755L1226 713L897 713Z"  horiz-adv-x="1256" vert-adv-y="2048"  />

      
      <glyph glyph-name="uni010A" unicode="&#x010A;" d="M1036 1582Q957 1582 907 1631Q859 1679 859 1754Q859 1829 907 1877Q957 1926 1036 1926Q1114 1926 1163 1877Q1212 1829 1212 1754Q1212 1679 1163 1631Q1114 1582 1036 1582M1223 908Q1224 911 1224 927Q1221 1037 1147 1106Q1073 1174 956 1174Q779 1174 660 1009Q541 843 541 595Q541 444 615 356Q688 268 814 268Q926 268 1015 331Q1103 393 1137 496L1493 496Q1449 254 1256 108Q1062-39 786-39Q504-39 336 128Q168 295 168 574Q168 973 396 1228Q623 1482 978 1482Q1233 1482 1406 1333Q1579 1184 1579 966Q1579 929 1576 908L1223 908Z"  horiz-adv-x="1570" vert-adv-y="2048"  />

      
      <glyph glyph-name="uni010B" unicode="&#x010B;" d="M897 713Q896 786 847 827Q802 866 728 866Q612 866 539 750Q469 637 469 464Q469 356 523 298Q570 247 644 247Q797 247 843 399L1174 399Q1148 217 1006 100Q855-26 625-26Q392-26 256 101Q120 228 120 443Q120 745 292 940Q467 1139 750 1139Q961 1139 1097 1018Q1220 907 1226 755L1226 713L897 713M825 1269Q749 1269 698 1320Q647 1371 647 1447Q647 1524 698 1574Q749 1625 825 1625Q902 1625 953 1574Q1004 1523 1004 1447Q1004 1371 953 1320Q902 1269 825 1269Z"  horiz-adv-x="1256" vert-adv-y="2048"  />

      
      <glyph glyph-name="uni010C" unicode="&#x010C;" d="M1223 908Q1224 911 1224 927Q1221 1037 1147 1106Q1073 1174 956 1174Q779 1174 660 1009Q541 843 541 595Q541 444 615 356Q688 268 814 268Q926 268 1015 331Q1103 393 1137 496L1493 496Q1449 254 1256 108Q1062-39 786-39Q504-39 336 128Q168 295 168 574Q168 973 396 1228Q623 1482 978 1482Q1233 1482 1406 1333Q1579 1184 1579 966Q1579 929 1576 908L1223 908M655 1946L938 1946L1023 1754L1042 1754L1208 1946L1519 1946L1182 1597L844 1597L655 1946Z"  horiz-adv-x="1570" vert-adv-y="2048"  />

      
      <glyph glyph-name="uni010D" unicode="&#x010D;" d="M631 1260L437 1619L719 1619L809 1417L829 1417L1005 1619L1317 1619L969 1260L631 1260M897 713Q896 786 847 827Q802 866 728 866Q612 866 539 750Q469 637 469 464Q469 356 523 298Q570 247 644 247Q797 247 843 399L1174 399Q1148 217 1006 100Q855-26 625-26Q392-26 256 101Q120 228 120 443Q120 745 292 940Q467 1139 750 1139Q961 1139 1097 1018Q1220 907 1226 755L1226 713L897 713Z"  horiz-adv-x="1256" vert-adv-y="2048"  />

      
      <glyph glyph-name="uni010E" unicode="&#x010E;" d="M555 1945L838 1945L923 1753L942 1753L1108 1945L1419 1945L1082 1596L744 1596L555 1945M962 1443Q1226 1443 1379 1293Q1533 1141 1533 873Q1533 492 1322 247Q1110 0 775 0L87 0L393 1443L962 1443M520 294L730 294Q918 294 1036 439Q1156 587 1156 830Q1156 977 1080 1062Q1002 1149 866 1149L700 1149L520 294Z"  horiz-adv-x="1561" vert-adv-y="2048"  />

      
      <glyph glyph-name="uni010F" unicode="&#x010F;" d="M1914 1530L1756 1020L1512 1020L1620 1530L1914 1530M492-17Q323-17 220 96Q115 212 115 411Q115 722 277 927Q437 1130 675 1130Q796 1130 879 1072Q956 1018 983 929L1003 929L1130 1530L1485 1530L1160 0L815 0L848 155L829 155Q704-17 492-17M662 257Q774 257 855 370Q935 483 935 636Q935 736 883 794Q833 847 755 847Q641 847 562 740Q482 631 482 471Q482 370 535 312Q584 257 662 257Z"  horiz-adv-x="1666" vert-adv-y="2048"  />

      
      <glyph glyph-name="uni0110" unicode="&#x0110;" d="M730 294Q918 294 1036 439Q1156 587 1156 830Q1156 977 1080 1062Q1002 1149 866 1149L700 1149L637 852L845 852L791 600L584 600L520 294L730 294M962 1443Q1226 1443 1379 1293Q1533 1141 1533 873Q1533 492 1322 247Q1110 0 775 0L87 0L214 600L100 600L154 852L268 852L393 1443L962 1443Z"  horiz-adv-x="1553" vert-adv-y="2048"  />

      
      <glyph glyph-name="uni0111" unicode="&#x0111;" d="M662 257Q774 257 855 370Q935 483 935 636Q935 736 883 794Q833 847 755 847Q641 847 562 740Q482 631 482 471Q482 370 535 312Q584 257 662 257M1549 1249L1425 1249L1160 0L815 0L848 155L829 155Q704-17 492-17Q323-17 220 96Q115 212 115 411Q115 722 277 927Q437 1130 675 1130Q796 1130 879 1072Q956 1018 983 929L1003 929L1071 1249L914 1249L948 1413L1105 1413L1130 1530L1485 1530L1460 1413L1584 1413L1549 1249Z"  horiz-adv-x="1388" vert-adv-y="2048"  />

      
      <glyph glyph-name="uni0112" unicode="&#x0112;" d="M1075 0L86 0L393 1443L1382 1443L1318 1148L697 1148L636 860L1220 860L1163 590L579 590L516 295L1138 295L1075 0M539 1637L581 1835L1363 1835L1321 1637L539 1637Z"  horiz-adv-x="1302" vert-adv-y="2048"  />

      
      <glyph glyph-name="uni0113" unicode="&#x0113;" d="M638-26Q404-26 265 103Q123 233 123 456Q123 761 294 950Q465 1139 739 1139Q955 1139 1094 1009Q1234 877 1234 666Q1234 581 1214 479L449 479Q448 475 448 458Q448 348 508 287Q565 229 660 229Q807 229 849 334L1181 334Q1140 169 995 72Q849-26 638-26M908 681Q911 699 911 717Q911 791 862 838Q811 887 730 887Q642 887 575 830Q508 774 485 681L908 681M398 1327L440 1525L1207 1525L1165 1327L398 1327Z"  horiz-adv-x="1289" vert-adv-y="2048"  />

      
      <glyph glyph-name="uni0114" unicode="&#x0114;" d="M1075 0L86 0L393 1443L1382 1443L1318 1148L697 1148L636 860L1220 860L1163 590L579 590L516 295L1138 295L1075 0M537 1892Q537 1913 540 1932L773 1932Q772 1923 772 1907Q772 1846 821 1806Q870 1767 946 1767Q1109 1767 1143 1932L1375 1932Q1355 1772 1241 1678Q1123 1581 938 1581Q763 1581 649 1671Q537 1759 537 1892Z"  horiz-adv-x="1302" vert-adv-y="2048"  />

      
      <glyph glyph-name="uni0115" unicode="&#x0115;" d="M638-26Q404-26 265 103Q123 233 123 456Q123 761 294 950Q465 1139 739 1139Q955 1139 1094 1009Q1234 877 1234 666Q1234 581 1214 479L449 479Q448 475 448 458Q448 348 508 287Q565 229 660 229Q807 229 849 334L1181 334Q1140 169 995 72Q849-26 638-26M908 681Q911 699 911 717Q911 791 862 838Q811 887 730 887Q642 887 575 830Q508 774 485 681L908 681M643 1620Q642 1611 642 1591Q642 1527 690 1487Q738 1446 815 1446Q985 1446 1016 1620L1249 1620Q1232 1454 1117 1358Q998 1260 807 1260Q630 1260 517 1350Q406 1438 406 1573Q406 1598 409 1620L643 1620Z"  horiz-adv-x="1289" vert-adv-y="2048"  />

      
      <glyph glyph-name="uni0116" unicode="&#x0116;" d="M958 1581Q879 1581 829 1630Q781 1678 781 1753Q781 1828 829 1876Q879 1925 958 1925Q1036 1925 1085 1876Q1134 1828 1134 1753Q1134 1678 1085 1630Q1036 1581 958 1581M1075 0L86 0L393 1443L1382 1443L1318 1148L697 1148L636 860L1220 860L1163 590L579 590L516 295L1138 295L1075 0Z"  horiz-adv-x="1302" vert-adv-y="2048"  />

      
      <glyph glyph-name="uni0117" unicode="&#x0117;" d="M807 1269Q731 1269 680 1320Q629 1371 629 1447Q629 1524 680 1574Q731 1625 807 1625Q884 1625 935 1574Q986 1523 986 1447Q986 1371 935 1320Q884 1269 807 1269M638-26Q404-26 265 103Q123 233 123 456Q123 761 294 950Q465 1139 739 1139Q955 1139 1094 1009Q1234 877 1234 666Q1234 581 1214 479L449 479Q448 475 448 458Q448 348 508 287Q565 229 660 229Q807 229 849 334L1181 334Q1140 169 995 72Q849-26 638-26M908 681Q911 699 911 717Q911 791 862 838Q811 887 730 887Q642 887 575 830Q508 774 485 681L908 681Z"  horiz-adv-x="1289" vert-adv-y="2048"  />

      
      <glyph glyph-name="uni0118" unicode="&#x0118;" d="M864-468Q741-468 666-411Q590-355 590-262Q590-120 761-15L764 0L86 0L393 1443L1382 1443L1318 1148L697 1148L636 860L1220 860L1163 590L579 590L516 295L1138 295L1083 40Q838-52 838-187Q838-230 873-255Q908-280 967-280Q1005-280 1015-277L978-454Q919-468 864-468Z"  horiz-adv-x="1302" vert-adv-y="2048"  />

      
      <glyph glyph-name="uni0119" unicode="&#x0119;" d="M736-468Q614-468 537-412Q461-357 461-270Q461-121 621-42L618-24L606-24Q383-16 253 114Q123 243 123 456Q123 760 294 950Q465 1139 739 1139Q957 1139 1095 1007Q1234 874 1234 666Q1234 583 1214 479L449 479Q448 473 448 458Q448 352 505 291Q562 229 660 229Q807 229 849 334L1181 334Q1138 158 937 35Q808-41 757-91Q708-140 708-191Q708-281 841-281Q870-281 884-279L847-456Q790-468 736-468M908 681Q911 699 911 717Q911 792 861 840Q810 887 730 887Q643 887 576 831Q509 775 485 681L908 681Z"  horiz-adv-x="1290" vert-adv-y="2048"  />

      
      <glyph glyph-name="uni011A" unicode="&#x011A;" d="M577 1945L860 1945L945 1753L964 1753L1130 1945L1441 1945L1104 1596L766 1596L577 1945M1075 0L86 0L393 1443L1382 1443L1318 1148L697 1148L636 860L1220 860L1163 590L579 590L516 295L1138 295L1075 0Z"  horiz-adv-x="1302" vert-adv-y="2048"  />

      
      <glyph glyph-name="uni011B" unicode="&#x011B;" d="M613 1260L419 1619L701 1619L791 1417L811 1417L987 1619L1299 1619L951 1260L613 1260M638-26Q404-26 265 103Q123 233 123 456Q123 761 294 950Q465 1139 739 1139Q955 1139 1094 1009Q1234 877 1234 666Q1234 581 1214 479L449 479Q448 475 448 458Q448 348 508 287Q565 229 660 229Q807 229 849 334L1181 334Q1140 169 995 72Q849-26 638-26M908 681Q911 699 911 717Q911 791 862 838Q811 887 730 887Q642 887 575 830Q508 774 485 681L908 681Z"  horiz-adv-x="1289" vert-adv-y="2048"  />

      
      <glyph glyph-name="uni011C" unicode="&#x011C;" d="M1415 1598L1132 1598L1047 1791L1028 1791L862 1598L551 1598L889 1947L1227 1947L1415 1598M1521 590Q1463 284 1276 122Q1090-39 796-39Q513-39 341 130Q170 299 170 579Q170 978 395 1230Q620 1482 975 1482Q1223 1482 1400 1342Q1576 1203 1579 1004Q1580 990 1578 971L1225 971Q1222 1058 1145 1115Q1068 1172 953 1172Q776 1172 660 1011Q543 849 543 600Q543 449 619 360Q695 271 825 271Q950 271 1037 334Q1125 398 1146 504L1148 517L890 517L943 770L1556 770L1521 590Z"  horiz-adv-x="1588" vert-adv-y="2048"  />

      
      <glyph glyph-name="uni011D" unicode="&#x011D;" d="M1203 1261L919 1261L829 1463L810 1463L633 1261L322 1261L670 1620L1008 1620L1203 1261M550-419Q309-419 161-322Q15-225 22-74L367-74Q370-123 424-153Q479-183 571-183Q766-183 802-17L843 176L824 176Q719 24 500 24Q333 24 229 137Q125 250 125 434Q125 725 286 928Q446 1130 676 1130Q790 1130 876 1074Q962 1017 991 923L1010 923L1052 1113L1397 1113L1150-41Q1112-219 954-319Q795-419 550-419M666 264Q776 264 856 373Q936 483 936 636Q936 732 886 790Q837 847 754 847Q641 847 564 742Q486 635 486 478Q486 380 535 322Q584 264 666 264Z"  horiz-adv-x="1369" vert-adv-y="2048"  />

      
      <glyph glyph-name="uni011E" unicode="&#x011E;" d="M1521 590Q1463 284 1276 122Q1090-39 796-39Q513-39 341 130Q170 299 170 579Q170 978 395 1230Q620 1482 975 1482Q1223 1482 1400 1342Q1576 1203 1579 1004Q1580 990 1578 971L1225 971Q1222 1058 1145 1115Q1068 1172 953 1172Q776 1172 660 1011Q543 849 543 600Q543 449 619 360Q695 271 825 271Q950 271 1037 334Q1125 398 1146 504L1148 517L890 517L943 770L1556 770L1521 590M612 1894Q612 1915 615 1934L848 1934Q847 1925 847 1909Q847 1848 896 1808Q945 1769 1021 1769Q1184 1769 1218 1934L1450 1934Q1430 1774 1316 1680Q1198 1583 1013 1583Q838 1583 724 1673Q612 1761 612 1894Z"  horiz-adv-x="1588" vert-adv-y="2048"  />

      
      <glyph glyph-name="uni011F" unicode="&#x011F;" d="M653 1621Q652 1612 652 1592Q652 1528 700 1488Q748 1447 825 1447Q995 1447 1026 1621L1259 1621Q1242 1455 1126 1359Q1008 1261 817 1261Q639 1261 527 1351Q416 1439 416 1574Q416 1599 419 1621L653 1621M550-419Q309-419 161-322Q15-225 22-74L367-74Q370-123 424-153Q479-183 571-183Q766-183 802-17L843 176L824 176Q719 24 500 24Q333 24 229 137Q125 250 125 434Q125 725 286 928Q446 1130 676 1130Q790 1130 876 1074Q962 1017 991 923L1010 923L1052 1113L1397 1113L1150-41Q1112-219 954-319Q795-419 550-419M666 264Q776 264 856 373Q936 483 936 636Q936 732 886 790Q837 847 754 847Q641 847 564 742Q486 635 486 478Q486 380 535 322Q584 264 666 264Z"  horiz-adv-x="1369" vert-adv-y="2048"  />

      
      <glyph glyph-name="uni0120" unicode="&#x0120;" d="M1033 1583Q954 1583 904 1632Q856 1680 856 1755Q856 1830 904 1878Q954 1927 1033 1927Q1111 1927 1160 1878Q1209 1830 1209 1755Q1209 1680 1160 1632Q1111 1583 1033 1583M1521 590Q1463 284 1276 122Q1090-39 796-39Q513-39 341 130Q170 299 170 579Q170 978 395 1230Q620 1482 975 1482Q1223 1482 1400 1342Q1576 1203 1579 1004Q1580 990 1578 971L1225 971Q1222 1058 1145 1115Q1068 1172 953 1172Q776 1172 660 1011Q543 849 543 600Q543 449 619 360Q695 271 825 271Q950 271 1037 334Q1125 398 1146 504L1148 517L890 517L943 770L1556 770L1521 590Z"  horiz-adv-x="1588" vert-adv-y="2048"  />

      
      <glyph glyph-name="uni0121" unicode="&#x0121;" d="M817 1270Q740 1270 690 1321Q639 1372 639 1448Q639 1525 690 1575Q740 1626 817 1626Q893 1626 945 1575Q996 1524 996 1448Q996 1372 945 1321Q893 1270 817 1270M550-419Q309-419 161-322Q15-225 22-74L367-74Q370-123 424-153Q479-183 571-183Q766-183 802-17L843 176L824 176Q719 24 500 24Q333 24 229 137Q125 250 125 434Q125 725 286 928Q446 1130 676 1130Q790 1130 876 1074Q962 1017 991 923L1010 923L1052 1113L1397 1113L1150-41Q1112-219 954-319Q795-419 550-419M666 264Q776 264 856 373Q936 483 936 636Q936 732 886 790Q837 847 754 847Q641 847 564 742Q486 635 486 478Q486 380 535 322Q584 264 666 264Z"  horiz-adv-x="1369" vert-adv-y="2048"  />

      
      <glyph glyph-name="uni0122" unicode="&#x0122;" d="M455-505L622-155L972-155L761-505L455-505M1521 590Q1463 284 1276 122Q1090-39 796-39Q513-39 341 130Q170 299 170 579Q170 978 395 1230Q620 1482 975 1482Q1223 1482 1400 1342Q1576 1203 1579 1004Q1580 990 1578 971L1225 971Q1222 1058 1145 1115Q1068 1172 953 1172Q776 1172 660 1011Q543 849 543 600Q543 449 619 360Q695 271 825 271Q950 271 1037 334Q1125 398 1146 504L1148 517L890 517L943 770L1556 770L1521 590Z"  horiz-adv-x="1588" vert-adv-y="2048"  />

      
      <glyph glyph-name="uni0123" unicode="&#x0123;" d="M1410 1643L1243 1293L893 1293L1104 1643L1410 1643M550-419Q309-419 161-322Q15-225 22-74L367-74Q370-123 424-153Q479-183 571-183Q766-183 802-17L843 176L824 176Q719 24 500 24Q333 24 229 137Q125 250 125 434Q125 725 286 928Q446 1130 676 1130Q790 1130 876 1074Q962 1017 991 923L1010 923L1052 1113L1397 1113L1150-41Q1112-219 954-319Q795-419 550-419M666 264Q776 264 856 373Q936 483 936 636Q936 732 886 790Q837 847 754 847Q641 847 564 742Q486 635 486 478Q486 380 535 322Q584 264 666 264Z"  horiz-adv-x="1369" vert-adv-y="2048"  />

      
      <glyph glyph-name="uni0124" unicode="&#x0124;" d="M1027 0L1150 582L576 582L452 0L86 0L393 1443L760 1443L640 877L1214 877L1335 1443L1702 1443L1395 0L1027 0M1500 1596L1217 1596L1132 1789L1113 1789L947 1596L636 1596L974 1945L1312 1945L1500 1596Z"  horiz-adv-x="1650" vert-adv-y="2048"  />

      
      <glyph glyph-name="uni0125" unicode="&#x0125;" d="M379 1519L732 1519L608 945L627 945Q744 1134 975 1134Q1130 1134 1225 1045Q1318 958 1318 820Q1318 758 1303 686L1159 0L807 0L939 631Q948 676 948 707Q948 776 898 819Q850 859 777 859Q694 859 631 803Q568 748 549 659L409 0L56 0L379 1519M1004 1672L721 1672L636 1865L617 1865L451 1672L140 1672L478 2021L816 2021L1004 1672Z"  horiz-adv-x="1366" vert-adv-y="2048"  />

      
      <glyph glyph-name="uni0126" unicode="&#x0126;" d="M1226 1047L652 1047L616 877L1190 877L1226 1047M1718 1047L1594 1047L1371 0L1003 0L1126 582L552 582L428 0L62 0L285 1047L161 1047L211 1278L334 1278L369 1443L736 1443L701 1278L1276 1278L1311 1443L1678 1443L1643 1278L1767 1278L1718 1047Z"  horiz-adv-x="1601" vert-adv-y="2048"  />

      
      <glyph glyph-name="uni0127" unicode="&#x0127;" d="M627 945Q744 1134 975 1134Q1130 1134 1225 1045Q1318 958 1318 820Q1318 758 1303 686L1159 0L807 0L939 631Q948 676 948 707Q948 776 898 819Q850 859 777 859Q694 859 631 803Q568 748 549 659L409 0L56 0L322 1249L135 1249L172 1421L358 1421L379 1519L732 1519L711 1421L920 1421L883 1249L674 1249L608 945L627 945Z"  horiz-adv-x="1385" vert-adv-y="2048"  />

      
      <glyph glyph-name="uni0128" unicode="&#x0128;" d="M86 0L393 1443L760 1443L453 0L86 0M803 1579Q714 1579 622 1647Q530 1715 497 1715Q420 1715 408 1617L207 1617Q223 1750 299 1828Q373 1904 481 1904Q570 1904 661 1836Q753 1767 786 1767Q863 1767 876 1865L1076 1865Q1060 1732 985 1655Q911 1579 803 1579Z"  horiz-adv-x="707" vert-adv-y="2048"  />

      
      <glyph glyph-name="uni0129" unicode="&#x0129;" d="M297 1113L651 1113L414 0L61 0L297 1113M707 1257Q617 1257 527 1336Q436 1414 402 1414Q332 1414 318 1295L113 1295Q128 1433 203 1518Q278 1602 387 1602Q477 1602 567 1524Q658 1446 692 1446Q763 1446 776 1564L982 1564Q967 1427 891 1342Q816 1257 707 1257Z"  horiz-adv-x="643" vert-adv-y="2048"  />

      
      <glyph glyph-name="uni012A" unicode="&#x012A;" d="M86 0L393 1443L760 1443L453 0L86 0M228 1637L270 1835L1052 1835L1010 1637L228 1637Z"  horiz-adv-x="707" vert-adv-y="2048"  />

      
      <glyph glyph-name="uni012B" unicode="&#x012B;" d="M297 1113L651 1113L414 0L61 0L297 1113M136 1327L178 1525L945 1525L903 1327L136 1327Z"  horiz-adv-x="643" vert-adv-y="2048"  />

      
      <glyph glyph-name="uni012C" unicode="&#x012C;" d="M86 0L393 1443L760 1443L453 0L86 0M226 1892Q226 1913 229 1932L462 1932Q461 1923 461 1907Q461 1846 510 1806Q559 1767 635 1767Q798 1767 832 1932L1064 1932Q1044 1772 930 1678Q812 1581 627 1581Q452 1581 338 1671Q226 1759 226 1892Z"  horiz-adv-x="707" vert-adv-y="2048"  />

      
      <glyph glyph-name="uni012D" unicode="&#x012D;" d="M297 1113L651 1113L414 0L61 0L297 1113M381 1620Q380 1611 380 1591Q380 1527 428 1487Q476 1446 553 1446Q723 1446 754 1620L987 1620Q970 1454 855 1358Q736 1260 545 1260Q368 1260 255 1350Q144 1438 144 1573Q144 1598 147 1620L381 1620Z"  horiz-adv-x="643" vert-adv-y="2048"  />

      
      <glyph glyph-name="uni012E" unicode="&#x012E;" d="M761 1443L463 40Q225-56 225-185Q225-229 260-255Q295-280 354-280Q391-280 403-277L366-454Q305-468 251-468Q129-468 53-410Q-22-353-22-259Q-22-112 162-2L165 13L90 13L394 1443L761 1443Z"  horiz-adv-x="707" vert-adv-y="2048"  />

      
      <glyph glyph-name="uni012F" unicode="&#x012F;" d="M536 1242Q446 1242 392 1284Q337 1325 337 1393Q337 1466 392 1512Q447 1557 536 1557Q626 1557 681 1515Q736 1474 736 1406Q736 1333 681 1287Q625 1242 536 1242M224-468Q102-468 26-410Q-50-353-50-259Q-50-113 136-2L139 13L64 13L298 1113L653 1113L425 40Q198-51 198-185Q198-229 233-255Q267-280 327-280Q365-280 375-277L338-454Q273-468 224-468Z"  horiz-adv-x="643" vert-adv-y="2048"  />

      
      <glyph glyph-name="uni0130" unicode="&#x0130;" d="M86 0L393 1443L760 1443L453 0L86 0M647 1581Q568 1581 518 1630Q470 1678 470 1753Q470 1828 518 1876Q568 1925 647 1925Q725 1925 774 1876Q823 1828 823 1753Q823 1678 774 1630Q725 1581 647 1581Z"  horiz-adv-x="708" vert-adv-y="2048"  />

      
      <glyph glyph-name="uni0131" unicode="&#x0131;" d="M297 1113L651 1113L414 0L61 0L297 1113Z"  horiz-adv-x="643" vert-adv-y="2048"  />

      
      <glyph glyph-name="uni0132" unicode="&#x0132;" d="M86 0L393 1443L760 1443L453 0L86 0M1139 443L1139 430Q1140 360 1182 318Q1224 276 1296 276Q1442 276 1481 462L1690 1443L2056 1443L1838 416Q1791 195 1652 78Q1511-39 1289-39Q1060-39 921 82Q783 203 785 400Q785 422 788 443L1139 443Z"  horiz-adv-x="2003" vert-adv-y="2048"  />

      
      <glyph glyph-name="uni0133" unicode="&#x0133;" d="M297 1113L652 1113L415 0L60 0L297 1113M535 1242Q444 1242 389 1285Q336 1326 336 1393Q336 1464 389 1510Q444 1557 535 1557Q627 1557 682 1514Q735 1473 735 1406Q735 1335 682 1289Q627 1242 535 1242M1051-34Q1017-190 900-277Q783-364 609-364Q530-364 452-350L507-95Q535-102 576-102Q683-102 705 2L941 1113L1295 1113L1051-34M1179 1242Q1088 1242 1033 1285Q980 1326 980 1393Q980 1464 1033 1510Q1088 1557 1179 1557Q1271 1557 1326 1514Q1379 1473 1379 1406Q1379 1335 1326 1289Q1271 1242 1179 1242Z"  horiz-adv-x="1286" vert-adv-y="2048"  />

      
      <glyph glyph-name="uni0134" unicode="&#x0134;" d="M433 443L433 430Q434 360 476 318Q519 276 590 276Q736 276 775 462L984 1443L1350 1443L1132 416Q1086 195 946 78Q805-39 583-39Q354-39 215 82Q77 203 79 400Q79 422 82 443L433 443M1619 1596L1336 1596L1251 1789L1232 1789L1066 1596L755 1596L1093 1945L1431 1945L1619 1596Z"  horiz-adv-x="1295" vert-adv-y="2048"  />

      
      <glyph glyph-name="uni0135" unicode="&#x0135;" d="M408-34Q374-190 257-277Q140-364-34-364Q-113-364-191-350L-136-95Q-108-102-67-102Q40-102 62 2L298 1113L652 1113L408-34M932 1260L648 1260L558 1462L539 1462L362 1260L51 1260L399 1619L737 1619L932 1260Z"  horiz-adv-x="643" vert-adv-y="2048"  />

      
      <glyph glyph-name="uni0136" unicode="&#x0136;" d="M86 0L393 1443L759 1443L629 834L648 834L1249 1443L1671 1443L1018 783L1365 0L956 0L710 570L537 398L453 0L86 0M341-505L508-155L858-155L647-505L341-505Z"  horiz-adv-x="1509" vert-adv-y="2048"  />

      
      <glyph glyph-name="uni0137" unicode="&#x0137;" d="M977 1113L1376 1113L867 624L1176 0L791 0L581 434L481 340L410 0L56 0L381 1530L734 1530L562 712L581 712L977 1113M236-505L403-155L753-155L542-505L236-505Z"  horiz-adv-x="1282" vert-adv-y="2048"  />

      
      <glyph glyph-name="uni0139" unicode="&#x0139;" d="M759 1922L1121 1922L747 1596L432 1596L759 1922M1066 0L86 0L393 1443L760 1443L517 303L1130 303L1066 0Z"  horiz-adv-x="1248" vert-adv-y="2048"  />

      
      <glyph glyph-name="uni013A" unicode="&#x013A;" d="M740 2009L1102 2009L728 1683L413 1683L740 2009M381 1530L736 1530L410 0L56 0L381 1530Z"  horiz-adv-x="634" vert-adv-y="2048"  />

      
      <glyph glyph-name="uni013B" unicode="&#x013B;" d="M221-505L388-155L738-155L527-505L221-505M1066 0L86 0L393 1443L760 1443L517 303L1130 303L1066 0Z"  horiz-adv-x="1248" vert-adv-y="2048"  />

      
      <glyph glyph-name="uni013C" unicode="&#x013C;" d="M-122-505L45-155L395-155L184-505L-122-505M382 1530L737 1530L411 0L57 0L382 1530Z"  horiz-adv-x="634" vert-adv-y="2048"  />

      
      <glyph glyph-name="uni013D" unicode="&#x013D;" d="M1285 1443L1126 932L890 932L998 1443L1285 1443M1066 0L86 0L393 1443L760 1443L517 303L1130 303L1066 0Z"  horiz-adv-x="1248" vert-adv-y="2048"  />

      
      <glyph glyph-name="uni013E" unicode="&#x013E;" d="M1165 1530L1007 1020L763 1020L872 1530L1165 1530M381 1530L736 1530L410 0L56 0L381 1530Z"  horiz-adv-x="918" vert-adv-y="2048"  />

      
      <glyph glyph-name="uni0141" unicode="&#x0141;" d="M1174 303L1110 0L130 0L267 646L86 560L134 789L316 875L437 1443L804 1443L724 1068L936 1168L886 939L675 839L561 303L1174 303Z"  horiz-adv-x="1279" vert-adv-y="2048"  />

      
      <glyph glyph-name="uni0142" unicode="&#x0142;" d="M716 898L588 836L410 0L56 0L193 646L66 585L115 814L242 875L381 1530L736 1530L637 1066L764 1127L716 898Z"  horiz-adv-x="634" vert-adv-y="2048"  />

      
      <glyph glyph-name="uni0143" unicode="&#x0143;" d="M1172 1922L1534 1922L1160 1596L845 1596L1172 1922M86 0L393 1443L653 1443L1103 601L1122 601L1301 1443L1653 1443L1346 0L1090 0L634 834L615 834L438 0L86 0Z"  horiz-adv-x="1600" vert-adv-y="2048"  />

      
      <glyph glyph-name="uni0144" unicode="&#x0144;" d="M888 1655L1246 1655L879 1296L566 1296L888 1655M288 1125L631 1125L592 945L611 945Q729 1139 965 1139Q1116 1139 1210 1050Q1303 961 1303 820Q1303 758 1288 686L1144 0L792 0L924 631Q933 675 933 707Q933 775 887 817Q840 859 766 859Q684 859 622 803Q561 748 542 659L402 0L49 0L288 1125Z"  horiz-adv-x="1350" vert-adv-y="2048"  />

      
      <glyph glyph-name="uni0145" unicode="&#x0145;" d="M396-505L563-155L913-155L702-505L396-505M86 0L393 1443L653 1443L1103 601L1122 601L1301 1443L1653 1443L1346 0L1090 0L634 834L615 834L438 0L86 0Z"  horiz-adv-x="1600" vert-adv-y="2048"  />

      
      <glyph glyph-name="uni0146" unicode="&#x0146;" d="M239-505L406-155L756-155L545-505L239-505M288 1125L631 1125L592 945L611 945Q729 1139 965 1139Q1116 1139 1210 1050Q1303 961 1303 820Q1303 758 1288 686L1144 0L792 0L924 631Q933 675 933 707Q933 775 887 817Q840 859 766 859Q684 859 622 803Q561 748 542 659L402 0L49 0L288 1125Z"  horiz-adv-x="1350" vert-adv-y="2048"  />

      
      <glyph glyph-name="uni0147" unicode="&#x0147;" d="M679 1945L962 1945L1047 1753L1066 1753L1232 1945L1543 1945L1206 1596L868 1596L679 1945M86 0L393 1443L653 1443L1103 601L1122 601L1301 1443L1653 1443L1346 0L1090 0L634 834L615 834L438 0L86 0Z"  horiz-adv-x="1600" vert-adv-y="2048"  />

      
      <glyph glyph-name="uni0148" unicode="&#x0148;" d="M603 1268L409 1627L691 1627L781 1425L801 1425L977 1627L1289 1627L941 1268L603 1268M288 1125L631 1125L592 945L611 945Q729 1139 965 1139Q1116 1139 1210 1050Q1303 961 1303 820Q1303 758 1288 686L1144 0L792 0L924 631Q933 675 933 707Q933 775 887 817Q840 859 766 859Q684 859 622 803Q561 748 542 659L402 0L49 0L288 1125Z"  horiz-adv-x="1350" vert-adv-y="2048"  />

      
      </font>
</defs>
</svg>
