<?xml version="1.0" standalone="no"?>
  <!DOCTYPE svg PUBLIC "-//W3C//DTD SVG 1.1//EN" "http://www.w3.org/Graphics/SVG/1.1/DTD/svg11.dtd" >
  <svg>
  <metadata>
  Created by font-carrier
  </metadata>
  <defs>
  <font id="SFUIDisplay-Regular" horiz-adv-x="2662" vert-adv-y="2662" >
    <font-face
      
      font-family="SF UI Display"
      
      font-weight="400"
      
      font-stretch="normal"
      
      units-per-em="2048"
      
      ascent="1950"
      
      descent="-494"
      
    />
      <missing-glyph />

      

      
      <glyph glyph-name="uni21" unicode="&#x21;" d="M362 1443L350 479L194 479L182 1443L362 1443M272-10Q224-10 191 23Q158 56 158 104Q158 153 191 185Q224 218 272 218Q321 218 353 185Q386 153 386 104Q386 56 353 23Q321-10 272-10Z"  horiz-adv-x="546" vert-adv-y="2048"  />

      
      <glyph glyph-name="uni22" unicode="&#x22;" d="M134 934L134 1443L294 1443L294 934L134 934M511 934L511 1443L671 1443L671 934L511 934Z"  horiz-adv-x="807" vert-adv-y="2048"  />

      
      <glyph glyph-name="uni23" unicode="&#x23;" d="M945 901L874 557L1093 557L1065 413L845 413L761 0L618 0L702 413L394 413L310 0L168 0L251 413L35 413L63 557L282 557L351 901L146 901L175 1044L380 1044L463 1443L605 1443L525 1044L831 1044L914 1443L1057 1443L975 1044L1206 1044L1178 901L945 901M422 554L732 554L803 903L493 903L422 554Z"  horiz-adv-x="1206" vert-adv-y="2048"  />

      
      <glyph glyph-name="uni24" unicode="&#x24;" d="M553-137L553-3Q350 12 228 120Q105 228 104 395L275 395Q283 295 356 231Q429 167 553 152L553 672L473 694Q312 736 226 832Q139 928 139 1067Q139 1231 250 1336Q361 1441 553 1460L553 1600L687 1600L687 1461Q874 1445 989 1338Q1103 1231 1108 1069L938 1069Q935 1162 867 1227Q798 1293 687 1306L687 817L772 796Q1133 700 1133 408Q1133 231 1015 123Q898 15 687-2L687-137L553-137M960 394Q960 587 687 645L687 149Q817 156 889 220Q960 284 960 394M311 1077Q311 897 553 846L553 1306Q448 1300 380 1236Q311 1171 311 1077Z"  horiz-adv-x="1239" vert-adv-y="2048"  />

      
      <glyph glyph-name="uni25" unicode="&#x25;" d="M136 0L1192 1443L1364 1443L310 0L136 0M1457 344Q1457 180 1375 82Q1292-16 1155-16Q1018-16 935 82Q852 181 852 344Q852 507 935 605Q1018 703 1155 703Q1292 703 1375 605Q1457 507 1457 344M1155 106Q1221 106 1259 170Q1297 234 1297 344Q1297 455 1260 518Q1222 580 1155 580Q1089 580 1051 516Q1012 453 1012 344Q1012 234 1051 170Q1089 106 1155 106M654 1102Q654 938 572 840Q489 742 352 742Q215 742 132 840Q49 939 49 1102Q49 1265 132 1363Q215 1461 352 1461Q489 1461 572 1363Q654 1265 654 1102M352 864Q418 864 456 928Q494 992 494 1102Q494 1213 457 1276Q419 1338 352 1338Q286 1338 248 1274Q209 1211 209 1102Q209 992 248 928Q286 864 352 864Z"  horiz-adv-x="1508" vert-adv-y="2048"  />

      
      <glyph glyph-name="uni26" unicode="&#x26;" d="M1026 145Q835-24 565-24Q351-24 216 90Q81 204 81 384Q81 634 364 784Q416 811 419 812Q240 1002 240 1147Q240 1284 344 1376Q448 1467 604 1467Q763 1467 866 1376Q969 1285 969 1145Q969 1035 897 948Q825 862 660 775L1017 390Q1086 519 1086 774L1086 817L1252 817L1252 773Q1252 456 1133 269L1386 0L1160 0L1026 145M467 679Q259 552 259 396Q259 275 348 201Q437 126 581 126Q795 126 921 260L515 705Q486 692 467 679M564 876Q693 942 747 1002Q801 1062 801 1139Q801 1222 747 1274Q692 1326 605 1326Q520 1326 465 1273Q410 1220 410 1137Q410 1030 564 876Z"  horiz-adv-x="1370" vert-adv-y="2048"  />

      
      <glyph glyph-name="uni27" unicode="&#x27;" d="M134 934L134 1443L294 1443L294 934L134 934Z"  horiz-adv-x="430" vert-adv-y="2048"  />

      
      <glyph glyph-name="uni28" unicode="&#x28;" d="M444-277Q174 61 174 599Q174 907 266 1133Q325 1278 454 1442L600 1442Q510 1337 444 1156Q351 904 351 601Q351 148 597-277L444-277Z"  horiz-adv-x="636" vert-adv-y="2048"  />

      
      <glyph glyph-name="uni29" unicode="&#x29;" d="M36-277Q145-89 194 50Q282 302 282 601Q282 904 190 1156Q124 1339 34 1442L180 1442Q309 1278 368 1133Q460 907 460 599Q460 62 189-277L36-277Z"  horiz-adv-x="636" vert-adv-y="2048"  />

      
      <glyph glyph-name="uni2a" unicode="&#x2a;" d="M544 1045L560 754L426 754L442 1046L197 885L132 1001L391 1133L132 1264L197 1382L442 1219L426 1513L560 1513L544 1219L789 1382L854 1264L596 1133L854 1001L789 885L544 1045Z"  horiz-adv-x="988" vert-adv-y="2048"  />

      
      <glyph glyph-name="uni2b" unicode="&#x2b;" d="M699 30L537 30L537 488L110 488L110 650L537 650L537 1097L699 1097L699 650L1126 650L1126 488L699 488L699 30Z"  horiz-adv-x="1238" vert-adv-y="2048"  />

      
      <glyph glyph-name="uni2c" unicode="&#x2c;" d="M98-257L198 202L383 202L233-257L98-257Z"  horiz-adv-x="538" vert-adv-y="2048"  />

      
      <glyph glyph-name="uni2d" unicode="&#x2d;" d="M110 488L110 650L766 650L766 488L110 488Z"  horiz-adv-x="878" vert-adv-y="2048"  />

      
      <glyph glyph-name="uni2e" unicode="&#x2e;" d="M259-10Q211-10 178 23Q145 56 145 104Q145 153 178 185Q211 218 259 218Q308 218 340 185Q373 153 373 104Q373 56 340 23Q308-10 259-10Z"  horiz-adv-x="520" vert-adv-y="2048"  />

      
      <glyph glyph-name="uni2f" unicode="&#x2f;" d="M0-329L441 1444L590 1444L146-329L0-329Z"  horiz-adv-x="590" vert-adv-y="2048"  />

      
      <glyph glyph-name="uni30" unicode="&#x30;" d="M621-24Q370-24 229 178Q89 377 89 722Q89 1064 229 1264Q372 1467 621 1467Q870 1467 1012 1265Q1151 1066 1151 723Q1151 378 1012 179Q871-24 621-24M621 133Q788 133 880 293Q970 448 970 722Q970 992 879 1149Q786 1309 621 1309Q456 1309 362 1148Q270 991 270 723Q270 449 361 293Q454 133 621 133Z"  horiz-adv-x="1242" vert-adv-y="2048"  />

      
      <glyph glyph-name="uni31" unicode="&#x31;" d="M484 1252L480 1252L98 977L98 1167L482 1443L658 1443L658 0L484 0L484 1252Z"  horiz-adv-x="908" vert-adv-y="2048"  />

      
      <glyph glyph-name="uni32" unicode="&#x32;" d="M107 1027Q107 1216 243 1342Q379 1467 583 1467Q776 1467 910 1352Q1044 1237 1044 1071Q1044 951 977 839Q912 729 730 541L365 164L365 160L1068 160L1068 0L116 0L116 124L624 659Q769 812 817 891Q864 970 864 1060Q864 1164 781 1237Q697 1310 578 1310Q451 1310 366 1229Q281 1148 281 1027L281 1026L107 1026L107 1027Z"  horiz-adv-x="1159" vert-adv-y="2048"  />

      
      <glyph glyph-name="uni33" unicode="&#x33;" d="M410 818L583 818Q707 818 786 890Q865 961 865 1071Q865 1181 794 1245Q719 1311 585 1311Q461 1311 383 1245Q305 1179 293 1065L120 1065Q135 1249 262 1358Q390 1467 593 1467Q788 1467 916 1362Q1046 1257 1046 1095Q1046 960 966 868Q886 776 750 752L750 748Q914 738 1011 644Q1108 549 1108 397Q1108 213 960 94Q814-24 599-24Q375-24 237 89Q101 200 91 382L264 382Q276 269 364 202Q454 132 597 132Q740 132 833 205Q925 278 925 391Q925 518 835 592Q746 666 591 666L410 666L410 818Z"  horiz-adv-x="1212" vert-adv-y="2048"  />

      
      <glyph glyph-name="uni34" unicode="&#x34;" d="M802 300L77 300L77 463Q249 782 710 1443L976 1443L976 458L1180 458L1180 300L976 300L976 0L802 0L802 300M255 458L802 458L802 1293L799 1293Q420 752 255 462L255 458Z"  horiz-adv-x="1239" vert-adv-y="2048"  />

      
      <glyph glyph-name="uni35" unicode="&#x35;" d="M612-24Q405-24 267 93Q128 210 117 394L294 394Q306 279 395 206Q484 134 614 134Q761 134 854 226Q946 318 946 464Q946 610 854 703Q761 797 617 797Q403 797 308 635L139 635L218 1443L1044 1443L1044 1283L366 1283L322 813L326 813Q430 952 649 952Q857 952 991 816Q1126 679 1126 469Q1126 252 982 114Q838-24 612-24Z"  horiz-adv-x="1198" vert-adv-y="2048"  />

      
      <glyph glyph-name="uni36" unicode="&#x36;" d="M638-25Q476-25 352 60Q228 144 161 300Q90 464 90 697Q90 1062 238 1265Q385 1468 650 1468Q834 1468 964 1366Q1094 1264 1129 1094L946 1094Q917 1192 836 1251Q755 1309 648 1309Q467 1309 368 1154Q269 999 264 711L267 711Q316 817 426 881Q536 945 670 945Q876 945 1013 809Q1149 673 1149 468Q1149 254 1005 115Q860-25 638-25M636 135Q774 135 870 230Q966 325 966 462Q966 604 874 695Q782 787 639 787Q496 787 401 696Q307 605 307 467Q307 328 402 232Q498 135 636 135Z"  horiz-adv-x="1226" vert-adv-y="2048"  />

      
      <glyph glyph-name="uni37" unicode="&#x37;" d="M852 1279L852 1283L75 1283L75 1443L1030 1443L1030 1276L388 0L199 0L852 1279Z"  horiz-adv-x="1120" vert-adv-y="2048"  />

      
      <glyph glyph-name="uni38" unicode="&#x38;" d="M612-24Q383-24 236 93Q89 209 89 390Q89 525 174 627Q259 729 399 761L399 765Q282 801 214 888Q146 974 146 1088Q146 1251 279 1359Q411 1467 612 1467Q814 1467 946 1360Q1077 1252 1077 1087Q1077 974 1010 889Q943 802 825 765L825 761Q965 728 1051 626Q1136 524 1136 390Q1136 209 989 92Q842-24 612-24M612 133Q761 133 857 209Q952 285 952 403Q952 522 857 598Q761 674 612 674Q463 674 368 598Q272 521 272 403Q272 285 368 209Q464 133 612 133M612 832Q738 832 819 899Q899 966 899 1071Q899 1177 819 1245Q739 1312 612 1312Q485 1312 405 1244Q325 1177 325 1071Q325 966 405 899Q485 832 612 832Z"  horiz-adv-x="1227" vert-adv-y="2048"  />

      
      <glyph glyph-name="uni39" unicode="&#x39;" d="M575-24Q391-24 260 78Q129 180 96 350L279 350Q308 252 389 192Q470 133 577 133Q757 133 857 290Q956 446 960 734L957 734Q911 627 802 562Q692 498 554 498Q348 498 211 634Q75 770 75 975Q75 1189 220 1328Q364 1468 586 1468Q749 1468 873 1384Q997 1299 1063 1144Q1134 980 1134 746Q1134 381 987 179Q840-24 575-24M585 656Q728 656 823 747Q918 838 918 976Q918 1115 823 1210Q727 1306 588 1306Q449 1306 353 1211Q257 1117 257 981Q257 840 350 748Q443 656 585 656Z"  horiz-adv-x="1226" vert-adv-y="2048"  />

      
      <glyph glyph-name="uni3a" unicode="&#x3a;" d="M259-10Q211-10 178 23Q145 56 145 104Q145 153 178 185Q211 218 259 218Q308 218 340 185Q373 153 373 104Q373 56 340 23Q308-10 259-10M259 726Q211 726 178 759Q145 792 145 840Q145 889 178 921Q211 954 259 954Q308 954 340 921Q373 889 373 840Q373 792 340 759Q308 726 259 726Z"  horiz-adv-x="520" vert-adv-y="2048"  />

      
      <glyph glyph-name="uni3b" unicode="&#x3b;" d="M259 726Q211 726 178 759Q145 792 145 840Q145 889 178 921Q211 954 259 954Q308 954 340 921Q373 889 373 840Q373 792 340 759Q308 726 259 726M61-257L159 202L346 202L196-257L61-257Z"  horiz-adv-x="520" vert-adv-y="2048"  />

      
      <glyph glyph-name="uni3c" unicode="&#x3c;" d="M351 580L351 571L1058 193L1058 7L179 498L179 640L1058 1166L1058 980L351 580Z"  horiz-adv-x="1239" vert-adv-y="2048"  />

      
      <glyph glyph-name="uni3d" unicode="&#x3d;" d="M130 301L130 455L1107 455L1107 301L130 301M130 684L130 838L1107 838L1107 684L130 684Z"  horiz-adv-x="1239" vert-adv-y="2048"  />

      
      <glyph glyph-name="uni3e" unicode="&#x3e;" d="M179 1167L1058 641L1058 499L179 8L179 194L886 572L886 581L179 981L179 1167Z"  horiz-adv-x="1239" vert-adv-y="2048"  />

      
      <glyph glyph-name="uni3f" unicode="&#x3f;" d="M55 1066Q64 1237 172 1341Q289 1454 491 1454Q678 1454 798 1350Q915 1248 915 1092Q915 873 706 747Q612 691 577 640Q543 591 543 511L543 446L368 446L368 538Q367 721 568 842Q656 896 692 949Q729 1004 729 1083Q729 1177 662 1237Q594 1298 484 1298Q371 1298 303 1236Q234 1174 226 1066L55 1066M456-10Q408-10 375 23Q342 56 342 104Q342 153 375 185Q408 218 456 218Q505 218 537 185Q570 153 570 104Q570 56 537 23Q505-10 456-10Z"  horiz-adv-x="1002" vert-adv-y="2048"  />

      
      <glyph glyph-name="uni40" unicode="&#x40;" d="M888 875Q788 875 731 801Q675 727 675 596Q675 466 731 391Q788 316 886 316Q989 316 1050 392Q1111 468 1111 596Q1111 724 1051 800Q990 875 888 875M923 1435Q1275 1435 1498 1232Q1725 1027 1725 699Q1725 457 1625 313Q1523 166 1349 166Q1262 166 1199 213Q1134 260 1125 334L1117 334Q1049 175 863 175Q707 175 611 292Q515 409 515 600Q515 782 612 898Q709 1013 863 1013Q943 1013 1010 974Q1077 936 1105 872L1113 872L1113 994L1264 994L1264 407Q1264 296 1377 296Q1469 296 1525 401Q1584 511 1584 701Q1584 973 1396 1141Q1209 1309 910 1309Q617 1309 428 1109Q238 908 238 595Q238 264 439 74Q631-107 942-107Q1169-107 1277-59L1277-185Q1138-234 940-234Q564-234 336-18Q97 207 97 601Q97 974 328 1205Q557 1435 923 1435Z"  horiz-adv-x="1791" vert-adv-y="2048"  />

      
      <glyph glyph-name="uni41" unicode="&#x41;" d="M932 413L358 413L213 0L24 0L556 1443L734 1443L1266 0L1077 0L932 413M411 566L879 566L648 1224L642 1224L411 566Z"  horiz-adv-x="1292" vert-adv-y="2048"  />

      
      <glyph glyph-name="uni42" unicode="&#x42;" d="M139 0L139 1443L704 1443Q890 1443 1004 1344Q1118 1245 1118 1083Q1118 970 1046 879Q973 787 869 768L869 760Q1016 741 1104 645Q1191 549 1191 405Q1191 214 1062 107Q932 0 702 0L139 0M319 821L607 821Q767 821 851 883Q936 945 936 1062Q936 1169 865 1227Q794 1284 663 1284L319 1284L319 821M675 159Q1006 159 1006 414Q1006 666 658 666L319 666L319 159L675 159Z"  horiz-adv-x="1256" vert-adv-y="2048"  />

      
      <glyph glyph-name="uni43" unicode="&#x43;" d="M733-24Q434-24 259 178Q83 379 83 722Q83 1062 260 1264Q437 1467 733 1467Q969 1467 1133 1336Q1298 1204 1332 988L1150 988Q1115 1130 1002 1215Q887 1301 733 1301Q522 1301 395 1143Q268 985 268 722Q268 456 394 299Q520 142 734 142Q893 142 1002 215Q1111 288 1150 420L1332 420Q1282 206 1127 91Q972-24 733-24Z"  horiz-adv-x="1405" vert-adv-y="2048"  />

      
      <glyph glyph-name="uni44" unicode="&#x44;" d="M634 1443Q955 1443 1135 1253Q1315 1062 1315 722Q1315 381 1135 190Q956 0 634 0L139 0L139 1443L634 1443M319 162L622 162Q867 162 999 307Q1131 451 1131 720Q1131 991 1000 1136Q868 1281 622 1281L319 1281L319 162Z"  horiz-adv-x="1399" vert-adv-y="2048"  />

      
      <glyph glyph-name="uni45" unicode="&#x45;" d="M1033 0L139 0L139 1443L1033 1443L1033 1281L319 1281L319 818L996 818L996 658L319 658L319 162L1033 162L1033 0Z"  horiz-adv-x="1131" vert-adv-y="2048"  />

      
      <glyph glyph-name="uni46" unicode="&#x46;" d="M139 0L139 1443L1015 1443L1015 1281L319 1281L319 785L958 785L958 625L319 625L319 0L139 0Z"  horiz-adv-x="1081" vert-adv-y="2048"  />

      
      <glyph glyph-name="uni47" unicode="&#x47;" d="M1356 597Q1356 304 1194 140Q1033-24 744-24Q442-24 262 180Q83 385 83 729Q83 1067 262 1267Q441 1467 744 1467Q978 1467 1142 1339Q1307 1210 1347 995L1158 995Q1113 1141 1005 1221Q896 1301 744 1301Q521 1301 395 1149Q268 998 268 730Q268 458 396 300Q524 142 744 142Q936 142 1056 255Q1176 369 1176 550L1176 576L769 576L769 734L1356 734L1356 597Z"  horiz-adv-x="1447" vert-adv-y="2048"  />

      
      <glyph glyph-name="uni48" unicode="&#x48;" d="M1111 0L1111 657L319 657L319 0L139 0L139 1443L319 1443L319 819L1111 819L1111 1443L1291 1443L1291 0L1111 0Z"  horiz-adv-x="1432" vert-adv-y="2048"  />

      
      <glyph glyph-name="uni49" unicode="&#x49;" d="M139 0L139 1443L319 1443L319 0L139 0Z"  horiz-adv-x="460" vert-adv-y="2048"  />

      
      <glyph glyph-name="uni4a" unicode="&#x4a;" d="M220 339Q223 247 286 190Q350 132 448 132Q567 132 630 202Q693 271 693 403L693 1443L873 1443L873 402Q873 197 761 81Q649-34 449-34Q269-34 155 70Q41 175 41 339L220 339Z"  horiz-adv-x="1014" vert-adv-y="2048"  />

      
      <glyph glyph-name="uni4b" unicode="&#x4b;" d="M139 0L139 1443L319 1443L319 739L329 739L966 1443L1193 1443L600 804L1246 0L1016 0L475 676L319 504L319 0L139 0Z"  horiz-adv-x="1260" vert-adv-y="2048"  />

      
      <glyph glyph-name="uni4c" unicode="&#x4c;" d="M1015 0L139 0L139 1443L319 1443L319 162L1015 162L1015 0Z"  horiz-adv-x="1074" vert-adv-y="2048"  />

      
      <glyph glyph-name="uni4d" unicode="&#x4d;" d="M1561 0L1393 0L1393 1112L1386 1112L926 10L774 10L314 1112L307 1112L307 0L139 0L139 1443L348 1443L846 239L854 239L1352 1443L1561 1443L1561 0Z"  horiz-adv-x="1702" vert-adv-y="2048"  />

      
      <glyph glyph-name="uni4e" unicode="&#x4e;" d="M139 0L139 1443L314 1443L1104 310L1113 310L1113 1443L1291 1443L1291 0L1116 0L326 1129L317 1129L317 0L139 0Z"  horiz-adv-x="1432" vert-adv-y="2048"  />

      
      <glyph glyph-name="uni4f" unicode="&#x4f;" d="M748 1467Q1055 1467 1234 1266Q1413 1065 1413 721Q1413 377 1234 177Q1055-24 748-24Q441-24 262 177Q83 377 83 721Q83 1065 262 1266Q441 1467 748 1467M748 1301Q527 1301 397 1145Q268 988 268 721Q268 455 397 298Q527 142 748 142Q969 142 1099 298Q1228 455 1228 721Q1228 988 1099 1145Q969 1301 748 1301Z"  horiz-adv-x="1498" vert-adv-y="2048"  />

      
      <glyph glyph-name="uni50" unicode="&#x50;" d="M684 1443Q888 1443 1017 1314Q1146 1185 1146 980Q1146 775 1016 645Q886 515 682 515L319 515L319 0L139 0L139 1443L684 1443M319 675L637 675Q791 675 876 756Q961 836 961 980Q961 1124 877 1203Q792 1283 637 1283L319 1283L319 675Z"  horiz-adv-x="1213" vert-adv-y="2048"  />

      
      <glyph glyph-name="uni51" unicode="&#x51;" d="M1140-163L1006 21Q891-24 748-24Q441-24 262 177Q83 377 83 721Q83 1065 262 1266Q441 1467 748 1467Q1055 1467 1234 1266Q1413 1065 1413 721Q1413 298 1151 100L1342-163L1140-163M748 142Q829 142 901 165L721 413L923 413L1046 245Q1228 399 1228 721Q1228 988 1099 1145Q969 1301 748 1301Q527 1301 397 1145Q268 988 268 721Q268 455 397 298Q527 142 748 142Z"  horiz-adv-x="1498" vert-adv-y="2048"  />

      
      <glyph glyph-name="uni52" unicode="&#x52;" d="M319 730L674 730Q813 730 888 802Q964 874 964 1007Q964 1137 885 1210Q806 1283 666 1283L319 1283L319 730M319 0L139 0L139 1443L690 1443Q899 1443 1024 1326Q1150 1208 1150 1013Q1150 862 1073 752Q996 642 860 599L1194 0L983 0L674 571L319 571L319 0Z"  horiz-adv-x="1237" vert-adv-y="2048"  />

      
      <glyph glyph-name="uni53" unicode="&#x53;" d="M251 397Q264 280 366 209Q467 138 622 138Q768 138 864 207Q959 277 959 383Q959 474 892 534Q826 592 680 630L495 678Q295 729 203 821Q111 912 111 1059Q111 1239 254 1353Q396 1467 621 1467Q836 1467 977 1352Q1118 1236 1124 1055L944 1055Q932 1171 844 1238Q756 1305 615 1305Q475 1305 386 1239Q298 1173 298 1067Q298 985 363 933Q427 880 574 842L725 802Q949 746 1047 653Q1145 560 1145 405Q1145 207 1000 92Q854-24 605-24Q375-24 229 91Q83 206 70 397L251 397Z"  horiz-adv-x="1216" vert-adv-y="2048"  />

      
      <glyph glyph-name="uni54" unicode="&#x54;" d="M514 0L514 1281L49 1281L49 1443L1159 1443L1159 1281L694 1281L694 0L514 0Z"  horiz-adv-x="1210" vert-adv-y="2048"  />

      
      <glyph glyph-name="uni55" unicode="&#x55;" d="M319 518Q319 351 422 248Q528 142 712 142Q896 142 1002 248Q1105 351 1105 518L1105 1443L1285 1443L1285 506Q1285 271 1133 126Q976-24 712-24Q448-24 291 126Q139 271 139 506L139 1443L319 1443L319 518Z"  horiz-adv-x="1426" vert-adv-y="2048"  />

      
      <glyph glyph-name="uni56" unicode="&#x56;" d="M556 0L24 1443L213 1443L642 219L648 219L1077 1443L1266 1443L734 0L556 0Z"  horiz-adv-x="1292" vert-adv-y="2048"  />

      
      <glyph glyph-name="uni57" unicode="&#x57;" d="M607 0L437 0L44 1443L232 1443L521 265L529 265L854 1443L1036 1443L1361 265L1369 265L1658 1443L1846 1443L1453 0L1283 0L950 1145L940 1145L607 0Z"  horiz-adv-x="1892" vert-adv-y="2048"  />

      
      <glyph glyph-name="uni58" unicode="&#x58;" d="M535 723L535 730L50 1443L267 1443L652 863L659 863L1049 1443L1254 1443L756 721L756 715L1243 0L1027 0L644 575L637 575L248 0L44 0L535 723Z"  horiz-adv-x="1300" vert-adv-y="2048"  />

      
      <glyph glyph-name="uni59" unicode="&#x59;" d="M536 0L536 621L24 1443L229 1443L623 795L629 795L1023 1443L1228 1443L716 621L716 0L536 0Z"  horiz-adv-x="1254" vert-adv-y="2048"  />

      
      <glyph glyph-name="uni5a" unicode="&#x5a;" d="M97 128L920 1274L920 1281L125 1281L125 1443L1147 1443L1147 1315L328 169L328 162L1164 162L1164 0L97 0L97 128Z"  horiz-adv-x="1263" vert-adv-y="2048"  />

      
      <glyph glyph-name="uni5b" unicode="&#x5b;" d="M656 1444L656 1308L372 1308L372-105L668-105L668-240L204-240L204 1444L656 1444Z"  horiz-adv-x="664" vert-adv-y="2048"  />

      
      <glyph glyph-name="uni5c" unicode="&#x5c;" d="M0 1444L149 1444L590-329L444-329L0 1444Z"  horiz-adv-x="590" vert-adv-y="2048"  />

      
      <glyph glyph-name="uni5d" unicode="&#x5d;" d="M459-240L-5-240L-5-105L292-105L292 1308L8 1308L8 1444L459 1444L459-240Z"  horiz-adv-x="664" vert-adv-y="2048"  />

      
      <glyph glyph-name="uni5e" unicode="&#x5e;" d="M221 816L54 816L352 1443L542 1443L840 816L673 816L455 1291L439 1291L221 816Z"  horiz-adv-x="896" vert-adv-y="2048"  />

      
      <glyph glyph-name="uni5f" unicode="&#x5f;" d="M-54-235L-54-107L882-107L882-235L-54-235Z"  horiz-adv-x="828" vert-adv-y="2048"  />

      
      <glyph glyph-name="uni60" unicode="&#x60;" d="M556 1250L295 1550L493 1550L704 1250L556 1250Z"  horiz-adv-x="1005" vert-adv-y="2048"  />

      
      <glyph glyph-name="uni61" unicode="&#x61;" d="M469 141Q601 141 688 217Q774 294 774 410L774 497L492 479Q246 464 246 306Q246 231 307 186Q367 141 469 141M432-10Q268-10 168 77Q68 164 68 307Q68 446 172 525Q276 605 472 617L774 635L774 725Q774 825 710 879Q646 933 527 933Q433 933 369 888Q304 843 288 767L121 767Q125 903 242 996Q359 1088 529 1088Q720 1088 834 994Q948 899 948 740L948 0L783 0L783 187L779 187Q733 97 639 44Q545-10 432-10Z"  horiz-adv-x="1062" vert-adv-y="2048"  />

      
      <glyph glyph-name="uni62" unicode="&#x62;" d="M647-10Q404-10 296 182L292 182L292 0L127 0L127 1506L301 1506L301 903L305 903Q412 1088 651 1088Q855 1088 981 937Q1107 785 1107 539Q1107 292 980 141Q854-10 647-10M616 933Q475 933 388 823Q300 714 300 539Q300 363 388 254Q475 145 616 145Q758 145 843 252Q929 359 929 539Q929 718 843 826Q758 933 616 933Z"  horiz-adv-x="1173" vert-adv-y="2048"  />

      
      <glyph glyph-name="uni63" unicode="&#x63;" d="M837 727Q820 818 750 873Q674 933 557 933Q415 933 329 825Q241 717 241 539Q241 357 330 250Q416 145 559 145Q793 145 839 345L1010 345Q988 186 865 89Q741-10 558-10Q334-10 200 137Q64 287 64 539Q64 787 199 938Q334 1088 556 1088Q747 1088 874 978Q991 877 1008 727L837 727Z"  horiz-adv-x="1060" vert-adv-y="2048"  />

      
      <glyph glyph-name="uni64" unicode="&#x64;" d="M526-10Q322-10 193 141Q64 293 64 539Q64 784 193 937Q320 1088 522 1088Q763 1088 866 903L870 903L870 1506L1044 1506L1044 0L878 0L878 182L875 182Q767-10 526-10M557 933Q415 933 329 825Q242 717 242 539Q242 360 329 252Q415 145 557 145Q697 145 784 254Q871 363 871 539Q871 715 784 824Q697 933 557 933Z"  horiz-adv-x="1173" vert-adv-y="2048"  />

      
      <glyph glyph-name="uni65" unicode="&#x65;" d="M547 935Q420 935 337 851Q253 767 244 630L837 630Q834 767 754 851Q675 935 547 935M1005 308Q983 169 857 80Q731-10 558-10Q331-10 197 137Q64 284 64 535Q64 786 197 937Q330 1088 550 1088Q766 1088 892 946Q1018 803 1018 559L1018 491L244 491L244 481Q244 327 331 235Q418 143 562 143Q663 143 737 188Q810 232 833 308L1005 308Z"  horiz-adv-x="1084" vert-adv-y="2048"  />

      
      <glyph glyph-name="uni66" unicode="&#x66;" d="M174 934L24 934L24 1078L174 1078L174 1178Q174 1328 243 1397Q311 1466 461 1466Q509 1466 558 1457L558 1313Q521 1321 477 1321Q409 1321 379 1287Q349 1254 348 1178L348 1078L558 1078L558 934L348 934L348 0L174 0L174 934Z"  horiz-adv-x="629" vert-adv-y="2048"  />

      
      <glyph glyph-name="uni67" unicode="&#x67;" d="M553 155Q695 155 782 262Q870 370 870 543Q870 717 782 825Q695 933 553 933Q412 933 327 827Q242 720 242 543Q242 367 327 261Q412 155 553 155M556-385Q373-385 251-304Q129-222 110-88L291-88Q310-155 385-195Q459-234 566-234Q706-234 788-166Q870-99 870 16L870 185L866 185Q758 0 520 0Q315 0 190 149Q64 299 64 543Q64 790 190 939Q316 1088 524 1088Q762 1088 875 903L878 903L878 1078L1044 1078L1044 30Q1044-163 914-274Q783-385 556-385Z"  horiz-adv-x="1163" vert-adv-y="2048"  />

      
      <glyph glyph-name="uni68" unicode="&#x68;" d="M127 1506L301 1506L301 903L305 903Q407 1088 657 1088Q834 1088 943 978Q1052 868 1052 688L1052 0L878 0L878 657Q878 786 806 860Q733 933 605 933Q468 933 385 847Q301 761 301 620L301 0L127 0L127 1506Z"  horiz-adv-x="1166" vert-adv-y="2048"  />

      
      <glyph glyph-name="uni69" unicode="&#x69;" d="M127 1078L301 1078L301 0L127 0L127 1078M214 1252Q169 1252 137 1285Q104 1317 104 1362Q104 1408 137 1440Q169 1472 214 1472Q260 1472 292 1440Q324 1408 324 1362Q324 1317 292 1285Q260 1252 214 1252Z"  horiz-adv-x="430" vert-adv-y="2048"  />

      
      <glyph glyph-name="uni6a" unicode="&#x6a;" d="M302-81Q302-245 222-322Q143-398-29-398L-60-398L-60-251L-33-251Q55-251 92-213Q128-176 128-84L128 1078L302 1078L302-81M215 1252Q170 1252 138 1285Q105 1317 105 1362Q105 1408 138 1440Q170 1472 215 1472Q261 1472 293 1440Q325 1408 325 1362Q325 1317 293 1285Q261 1252 215 1252Z"  horiz-adv-x="430" vert-adv-y="2048"  />

      
      <glyph glyph-name="uni6b" unicode="&#x6b;" d="M784 1078L996 1078L525 612L1010 0L808 0L403 505L301 409L301 0L127 0L127 1506L301 1506L301 596L784 1078Z"  horiz-adv-x="1026" vert-adv-y="2048"  />

      
      <glyph glyph-name="uni6c" unicode="&#x6c;" d="M127 1506L301 1506L301 0L127 0L127 1506Z"  horiz-adv-x="430" vert-adv-y="2048"  />

      
      <glyph glyph-name="uni6d" unicode="&#x6d;" d="M117 1078L281 1078L281 903L285 903Q323 989 405 1039Q486 1088 591 1088Q819 1088 893 884L897 884Q943 980 1033 1034Q1123 1088 1236 1088Q1396 1088 1491 992Q1587 896 1587 736L1587 0L1413 0L1413 696Q1413 808 1354 870Q1294 933 1186 933Q1078 933 1009 861Q939 789 939 678L939 0L765 0L765 717Q765 815 704 874Q642 933 541 933Q433 933 362 858Q291 782 291 669L291 0L117 0L117 1078Z"  horiz-adv-x="1701" vert-adv-y="2048"  />

      
      <glyph glyph-name="uni6e" unicode="&#x6e;" d="M117 1078L281 1078L281 903L285 903Q388 1088 637 1088Q815 1088 918 981Q1021 875 1021 691L1021 0L847 0L847 661Q847 793 780 863Q712 933 585 933Q452 933 372 849Q291 765 291 626L291 0L117 0L117 1078Z"  horiz-adv-x="1135" vert-adv-y="2048"  />

      
      <glyph glyph-name="uni6f" unicode="&#x6f;" d="M561-10Q334-10 199 139Q64 288 64 539Q64 790 199 939Q334 1088 561 1088Q788 1088 923 939Q1058 790 1058 539Q1058 288 923 139Q788-10 561-10M561 145Q712 145 796 249Q881 354 881 539Q881 725 796 829Q712 933 561 933Q410 933 326 829Q241 724 241 539Q241 354 326 249Q411 145 561 145Z"  horiz-adv-x="1124" vert-adv-y="2048"  />

      
      <glyph glyph-name="uni70" unicode="&#x70;" d="M635 1088Q842 1088 969 937Q1097 785 1097 539Q1097 293 970 141Q843-10 639-10Q402-10 295 175L291 175L291-360L117-360L117 1078L282 1078L282 903L286 903Q333 987 428 1038Q523 1088 635 1088M603 145Q746 145 832 252Q919 360 919 539Q919 717 832 825Q746 933 603 933Q464 933 377 824Q290 715 290 539Q290 363 377 254Q463 145 603 145Z"  horiz-adv-x="1163" vert-adv-y="2048"  />

      
      <glyph glyph-name="uni71" unicode="&#x71;" d="M524 1088Q768 1088 875 903L878 903L878 1078L1044 1078L1044-360L870-360L870 175L866 175Q759-10 520-10Q316-10 190 141Q64 293 64 539Q64 786 191 937Q317 1088 524 1088M553 145Q694 145 782 254Q870 364 870 539Q870 714 782 823Q694 933 553 933Q412 933 327 826Q242 718 242 539Q242 359 327 252Q412 145 553 145Z"  horiz-adv-x="1163" vert-adv-y="2048"  />

      
      <glyph glyph-name="uni72" unicode="&#x72;" d="M117 1078L281 1078L281 903L285 903Q309 988 380 1038Q451 1088 546 1088Q587 1088 613 1081L613 909Q585 921 523 921Q418 921 355 851Q291 781 291 667L291 0L117 0L117 1078Z"  horiz-adv-x="649" vert-adv-y="2048"  />

      
      <glyph glyph-name="uni73" unicode="&#x73;" d="M99 777Q99 913 211 1000Q322 1087 498 1087Q662 1087 774 999Q885 912 890 779L723 779Q715 855 653 899Q591 943 492 943Q392 943 331 900Q270 857 270 786Q270 679 452 633L616 592Q779 551 846 486Q912 422 912 304Q912 166 792 78Q673-10 486-10Q312-10 197 76Q82 163 69 303L244 303Q272 134 498 134Q608 134 673 177Q737 219 737 292Q737 349 699 383Q661 416 569 440L380 489Q99 562 99 777Z"  horiz-adv-x="984" vert-adv-y="2048"  />

      
      <glyph glyph-name="uni74" unicode="&#x74;" d="M348 1321L348 1078L558 1078L558 934L348 934L348 287Q348 143 482 143Q527 143 557 148L557 1Q519-8 445-8Q299-8 236 58Q174 125 174 280L174 934L24 934L24 1078L174 1078L174 1321L348 1321Z"  horiz-adv-x="634" vert-adv-y="2048"  />

      
      <glyph glyph-name="uni75" unicode="&#x75;" d="M1016 0L852 0L852 178L848 178Q746-10 495-10Q318-10 215 97Q112 203 112 387L112 1078L286 1078L286 417Q286 285 354 215Q421 145 548 145Q681 145 761 229Q842 313 842 452L842 1078L1016 1078L1016 0Z"  horiz-adv-x="1135" vert-adv-y="2048"  />

      
      <glyph glyph-name="uni76" unicode="&#x76;" d="M598 0L422 0L24 1078L206 1078L508 188L512 188L815 1078L996 1078L598 0Z"  horiz-adv-x="1022" vert-adv-y="2048"  />

      
      <glyph glyph-name="uni77" unicode="&#x77;" d="M1179 0L1003 0L757 838L753 838L507 0L331 0L29 1078L201 1078L420 197L424 197L671 1078L839 1078L1086 197L1090 197L1309 1078L1481 1078L1179 0Z"  horiz-adv-x="1512" vert-adv-y="2048"  />

      
      <glyph glyph-name="uni78" unicode="&#x78;" d="M491 413L228 0L34 0L403 539L40 1078L234 1078L497 671L501 671L761 1078L955 1078L590 546L950 0L756 0L495 413L491 413Z"  horiz-adv-x="991" vert-adv-y="2048"  />

      
      <glyph glyph-name="uni79" unicode="&#x79;" d="M209-391Q170-391 133-384L133-237Q163-243 204-243Q279-243 324-203Q369-162 402-65L423-1L24 1078L209 1078L511 177L515 177L817 1078L1000 1078L578-66Q509-253 431-322Q352-391 209-391Z"  horiz-adv-x="1026" vert-adv-y="2048"  />

      
      <glyph glyph-name="uni7a" unicode="&#x7a;" d="M94 126L695 931L695 934L95 934L95 1078L891 1078L891 949L294 147L294 144L894 144L894 0L94 0L94 126Z"  horiz-adv-x="990" vert-adv-y="2048"  />

      
      <glyph glyph-name="uni7b" unicode="&#x7b;" d="M310 601Q489 584 489 365L489 31Q489-87 544-140Q599-193 723-193L768-193L768-334L708-334Q325-334 325 19L325 308Q325 427 286 473Q247 519 147 519L147 710Q247 710 286 757Q325 803 325 923L325 1178Q325 1522 708 1522L768 1522L768 1381L723 1381Q598 1381 543 1329Q489 1276 489 1156L489 860Q489 644 310 626L310 601Z"  horiz-adv-x="734" vert-adv-y="2048"  />

      
      <glyph glyph-name="uni7c" unicode="&#x7c;" d="M149-326L149 1443L295 1443L295-326L149-326Z"  horiz-adv-x="446" vert-adv-y="2048"  />

      
      <glyph glyph-name="uni7d" unicode="&#x7d;" d="M423 626Q244 644 244 860L244 1156Q244 1276 190 1329Q135 1381 10 1381L-35 1381L-35 1522L25 1522Q408 1522 408 1178L408 923Q408 803 447 757Q486 710 586 710L586 519Q486 519 447 473Q408 427 408 308L408 19Q408-334 25-334L-35-334L-35-193L10-193Q134-193 189-140Q244-87 244 31L244 365Q244 584 423 601L423 626Z"  horiz-adv-x="734" vert-adv-y="2048"  />

      
      <glyph glyph-name="uni7e" unicode="&#x7e;" d="M575 636Q476 737 415 737Q284 737 274 558L114 558Q113 718 195 810Q276 902 419 902Q541 902 666 777Q762 677 824 677Q955 677 966 856L1125 856Q1126 696 1044 604Q963 512 821 512Q699 512 575 636Z"  horiz-adv-x="1239" vert-adv-y="2048"  />

      
      <glyph glyph-name="unia1" unicode="&#xa1;" d="M194 622L350 622L362-342L182-342L194 622M272 885Q224 885 191 918Q158 951 158 999Q158 1048 191 1080Q224 1113 272 1113Q321 1113 353 1080Q386 1048 386 999Q386 951 353 918Q321 885 272 885Z"  horiz-adv-x="546" vert-adv-y="2048"  />

      
      <glyph glyph-name="unia2" unicode="&#xa2;" d="M1124 538Q1107 390 996 289Q884 186 718 169L718 0L546 0L546 171Q347 202 230 352Q113 502 113 725Q113 945 231 1094Q348 1243 546 1272L546 1443L718 1443L718 1274Q884 1256 999 1149Q1113 1043 1124 900L950 900Q929 1004 844 1064Q760 1124 635 1124Q483 1124 387 1012Q291 901 291 725Q291 547 387 433Q484 319 635 319Q909 319 950 538L1124 538Z"  horiz-adv-x="1239" vert-adv-y="2048"  />

      
      <glyph glyph-name="unia3" unicode="&#xa3;" d="M1159 154L1159 0L97 0L97 152Q230 182 317 282Q405 381 405 501Q405 567 381 653L97 653L97 797L331 797Q270 968 270 1060Q270 1256 407 1366Q545 1477 787 1477Q974 1477 1087 1424L1087 1264Q994 1318 796 1318Q635 1318 545 1251Q454 1183 454 1064Q454 967 514 797L985 797L985 653L561 653Q582 569 582 508Q582 283 373 158L373 154L1159 154Z"  horiz-adv-x="1239" vert-adv-y="2048"  />

      
      <glyph glyph-name="unia4" unicode="&#xa4;" d="M356 656Q356 547 434 470Q511 392 620 392Q729 392 806 470Q883 547 883 656Q883 765 806 842Q729 920 620 920Q511 920 434 842Q356 765 356 656M943 874Q1010 775 1010 656Q1010 535 942 437L1111 268L1005 162L836 331Q739 265 620 265Q502 265 401 332L232 162L126 268L296 438Q229 539 229 656Q229 774 296 873L126 1043L232 1149L401 980Q502 1047 620 1047Q738 1047 837 980L1005 1149L1111 1043L943 874Z"  horiz-adv-x="1239" vert-adv-y="2048"  />

      
      <glyph glyph-name="unia5" unicode="&#xa5;" d="M709 269L709 0L529 0L529 269L252 269L252 405L529 405L529 571L252 571L252 707L475 707L17 1443L222 1443L616 796L622 796L1015 1443L1220 1443L763 707L986 707L986 571L709 571L709 405L986 405L986 269L709 269Z"  horiz-adv-x="1239" vert-adv-y="2048"  />

      
      <glyph glyph-name="unia6" unicode="&#xa6;" d="M150 774L150 1443L296 1443L296 774L150 774M150-326L150 343L296 343L296-326L150-326Z"  horiz-adv-x="448" vert-adv-y="2048"  />

      
      <glyph glyph-name="unia7" unicode="&#xa7;" d="M511 382Q603 382 666 437Q729 492 729 573Q729 703 559 740L476 758Q385 758 321 702Q257 646 257 567Q257 438 428 400L511 382M498-257Q326-257 213-174Q99-91 89 42L265 42Q275-27 342-69Q409-111 507-111Q609-111 673-67Q736-23 736 47Q736 154 538 207L397 245Q233 289 156 359Q80 428 80 533Q80 628 139 697Q197 766 303 795L303 811Q84 897 84 1084Q84 1224 195 1310Q306 1397 485 1397Q652 1397 759 1319Q866 1241 883 1108L710 1108Q699 1173 638 1212Q575 1251 481 1251Q380 1251 319 1208Q257 1164 257 1094Q257 986 452 933L593 895Q906 811 906 615Q906 512 835 433Q764 354 652 332L652 316Q906 259 906 59Q906-80 792-168Q677-257 498-257Z"  horiz-adv-x="988" vert-adv-y="2048"  />

      
      <glyph glyph-name="unia8" unicode="&#xa8;" d="M304 1261Q258 1261 225 1294Q192 1327 192 1373Q192 1419 225 1452Q258 1485 304 1485Q351 1485 383 1452Q416 1420 416 1373Q416 1327 383 1294Q350 1261 304 1261M698 1261Q652 1261 619 1294Q586 1327 586 1373Q586 1419 619 1452Q652 1485 698 1485Q745 1485 777 1452Q810 1420 810 1373Q810 1327 777 1294Q744 1261 698 1261Z"  horiz-adv-x="1004" vert-adv-y="2048"  />

      
      <glyph glyph-name="unia9" unicode="&#xa9;" d="M852-168Q517-168 289 60Q59 288 59 626Q59 965 289 1193Q517 1420 852 1420Q1188 1420 1416 1193Q1645 965 1645 626Q1645 288 1416 60Q1188-168 852-168M852-28Q1128-28 1316 159Q1504 347 1504 626Q1504 907 1316 1094Q1129 1280 852 1280Q577 1280 389 1094Q200 906 200 626Q200 347 389 159Q577-28 852-28M1091 768Q1074 836 1018 878Q957 924 869 924Q753 924 685 845Q616 765 616 628Q616 489 686 408Q754 328 869 328Q1052 328 1091 479L1230 479Q1211 356 1118 282Q1020 204 870 204Q689 204 582 318Q474 432 474 628Q474 820 582 934Q689 1048 869 1048Q1019 1048 1118 966Q1211 889 1230 768L1091 768Z"  horiz-adv-x="1706" vert-adv-y="2048"  />

      
      <glyph glyph-name="uniaa" unicode="&#xaa;" d="M261 866Q261 806 304 771Q346 735 418 735Q509 735 571 790Q632 845 632 927L632 1011L430 996Q261 984 261 866M371 609Q253 609 180 679Q106 749 106 860Q106 970 185 1034Q263 1098 411 1108L629 1122L629 1191Q629 1256 583 1293Q538 1329 456 1329Q311 1329 289 1231L137 1231Q147 1336 235 1399Q323 1461 460 1461Q608 1461 693 1388Q778 1314 778 1186L778 630L635 630L635 737L624 737Q536 609 371 609Z"  horiz-adv-x="886" vert-adv-y="2048"  />

      
      <glyph glyph-name="uniab" unicode="&#xab;" d="M815 558L1166 145L962 145L612 561L612 569L962 985L1166 985L815 572L815 558M337 558L688 145L484 145L134 561L134 569L484 985L688 985L337 572L337 558Z"  horiz-adv-x="1303" vert-adv-y="2048"  />

      
      <glyph glyph-name="uniac" unicode="&#xac;" d="M1092 126L944 126L944 506L145 506L145 654L1092 654L1092 126Z"  horiz-adv-x="1239" vert-adv-y="2048"  />

      
      <glyph glyph-name="uniae" unicode="&#xae;" d="M534 690Q352 690 226 814Q99 939 99 1117Q99 1296 225 1420Q352 1544 534 1544Q716 1544 843 1420Q969 1296 969 1117Q969 938 843 814Q716 690 534 690M534 782Q675 782 772 879Q869 977 869 1117Q869 1258 772 1355Q675 1452 534 1452Q394 1452 296 1355Q199 1258 199 1117Q199 977 296 879Q394 782 534 782M363 927L363 1335L563 1335Q626 1335 667 1300Q707 1265 707 1211Q707 1106 611 1091L727 927L619 927L520 1078L449 1078L449 927L363 927M449 1145L546 1145Q614 1145 614 1207Q614 1263 549 1263L449 1263L449 1145Z"  horiz-adv-x="1070" vert-adv-y="2048"  />

      
      <glyph glyph-name="uniaf" unicode="&#xaf;" d="M816 1320L182 1320L182 1426L816 1426L816 1320Z"  horiz-adv-x="1000" vert-adv-y="2048"  />

      
      <glyph glyph-name="unib0" unicode="&#xb0;" d="M365 862Q246 862 163 945Q81 1028 81 1147Q81 1266 163 1349Q246 1432 365 1432Q484 1432 567 1349Q650 1266 650 1147Q650 1029 567 945Q484 862 365 862M365 991Q431 991 477 1037Q523 1083 523 1147Q523 1212 477 1258Q431 1304 365 1304Q302 1304 255 1258Q208 1212 208 1147Q208 1084 255 1037Q302 991 365 991Z"  horiz-adv-x="733" vert-adv-y="2048"  />

      
      <glyph glyph-name="unib1" unicode="&#xb1;" d="M110 112L110 260L1127 260L1127 112L110 112M692 371L545 371L545 662L110 662L110 798L545 798L545 1089L692 1089L692 798L1127 798L1127 662L692 662L692 371Z"  horiz-adv-x="1239" vert-adv-y="2048"  />

      
      <glyph glyph-name="unib2" unicode="&#xb2;" d="M44 1601Q44 1701 116 1764Q189 1826 305 1826Q417 1826 487 1770Q557 1714 557 1625Q557 1529 430 1409L265 1254L265 1251L566 1251L566 1125L53 1125L53 1233L317 1480Q400 1562 400 1615Q400 1654 372 1679Q343 1703 298 1703Q253 1703 223 1674Q193 1645 193 1601L193 1598L44 1598L44 1601Z"  horiz-adv-x="617" vert-adv-y="2048"  />

      
      <glyph glyph-name="unib3" unicode="&#xb3;" d="M229 1532L313 1532Q359 1532 386 1556Q414 1580 414 1620Q414 1704 311 1704Q265 1704 235 1679Q206 1653 204 1611L57 1611Q59 1709 131 1767Q202 1826 318 1826Q430 1826 498 1776Q566 1725 566 1642Q566 1581 527 1537Q489 1494 424 1483L424 1479Q502 1472 547 1428Q592 1384 592 1315Q592 1222 516 1166Q439 1109 313 1109Q195 1109 122 1168Q49 1227 44 1326L198 1326Q201 1285 233 1261Q264 1237 315 1237Q364 1237 396 1262Q427 1287 427 1327Q427 1370 397 1394Q366 1419 313 1419L229 1419L229 1532Z"  horiz-adv-x="643" vert-adv-y="2048"  />

      
      <glyph glyph-name="unib4" unicode="&#xb4;" d="M298 1250L509 1550L707 1550L446 1250L298 1250Z"  horiz-adv-x="1005" vert-adv-y="2048"  />

      
      <glyph glyph-name="unib6" unicode="&#xb6;" d="M593-220L593 575L573 575Q371 575 236 696Q99 818 99 1002Q99 1193 236 1319Q372 1443 574 1443L773 1443L773-220L593-220M920 1443L1100 1443L1100-220L920-220L920 1443Z"  horiz-adv-x="1201" vert-adv-y="2048"  />

      
      <glyph glyph-name="unib7" unicode="&#xb7;" d="M259 491Q211 491 178 524Q145 557 145 605Q145 654 178 686Q211 719 259 719Q308 719 340 686Q373 654 373 605Q373 557 340 524Q308 491 259 491Z"  horiz-adv-x="520" vert-adv-y="2048"  />

      
      <glyph glyph-name="unib8" unicode="&#xb8;" d="M358-156L421 8L530 0L478-142Q687-142 687-292Q687-368 625-418Q563-468 468-469Q385-470 321-452L321-354Q359-369 443-369Q563-369 563-296Q563-230 413-230L358-230L358-156Z"  horiz-adv-x="1005" vert-adv-y="2048"  />

      
      <glyph glyph-name="unib9" unicode="&#xb9;" d="M250 1670L247 1670L69 1548L69 1690L245 1810L403 1810L403 1125L250 1125L250 1670Z"  horiz-adv-x="497" vert-adv-y="2048"  />

      
      <glyph glyph-name="uniba" unicode="&#xba;" d="M252 1029Q252 889 310 812Q368 736 474 736Q580 736 638 813Q696 889 696 1030Q696 1170 638 1246Q581 1322 474 1322Q368 1322 310 1246Q252 1169 252 1029M474 604Q296 604 194 718Q92 832 92 1029Q92 1227 195 1342Q297 1456 474 1456Q651 1456 753 1342Q855 1228 855 1030Q855 832 753 718Q651 604 474 604Z"  horiz-adv-x="949" vert-adv-y="2048"  />

      
      <glyph glyph-name="unibb" unicode="&#xbb;" d="M134 985L338 985L688 569L688 561L338 145L134 145L485 558L485 572L134 985M612 985L816 985L1166 569L1166 561L816 145L612 145L963 558L963 572L612 985Z"  horiz-adv-x="1302" vert-adv-y="2048"  />

      
      <glyph glyph-name="unibc" unicode="&#xbc;" d="M90 0L1146 1443L1318 1443L264 0L90 0M1188 115L849 115L849 252Q927 403 1116 685L1342 685L1342 243L1429 243L1429 115L1342 115L1342 0L1188 0L1188 115M988 238L1192 238L1192 573L1189 573Q1050 359 988 241L988 238M260 1303L257 1303L79 1181L79 1323L255 1443L413 1443L413 758L260 758L260 1303Z"  horiz-adv-x="1462" vert-adv-y="2048"  />

      
      <glyph glyph-name="unibd" unicode="&#xbd;" d="M90 0L1146 1443L1318 1443L264 0L90 0M260 1303L257 1303L79 1181L79 1323L255 1443L413 1443L413 758L260 758L260 1303M907 476Q907 576 979 639Q1052 701 1168 701Q1280 701 1350 645Q1420 589 1420 500Q1420 404 1293 284L1128 129L1128 126L1429 126L1429 0L916 0L916 108L1180 355Q1263 437 1263 490Q1263 529 1235 554Q1206 578 1161 578Q1116 578 1086 549Q1056 520 1056 476L1056 473L907 473L907 476Z"  horiz-adv-x="1462" vert-adv-y="2048"  />

      
      <glyph glyph-name="unibe" unicode="&#xbe;" d="M200 0L1256 1443L1428 1443L374 0L200 0M1298 115L959 115L959 252Q1037 403 1226 685L1452 685L1452 243L1539 243L1539 115L1452 115L1452 0L1298 0L1298 115M1098 238L1302 238L1302 573L1299 573Q1160 359 1098 241L1098 238M229 1165L313 1165Q359 1165 386 1189Q414 1213 414 1253Q414 1337 311 1337Q265 1337 235 1312Q206 1286 204 1244L57 1244Q59 1342 131 1400Q202 1459 318 1459Q430 1459 498 1409Q566 1358 566 1275Q566 1214 527 1170Q489 1127 424 1116L424 1112Q502 1105 547 1061Q592 1017 592 948Q592 855 516 799Q439 742 313 742Q195 742 122 801Q49 860 44 959L198 959Q201 918 233 894Q264 870 315 870Q364 870 396 895Q427 920 427 960Q427 1003 397 1027Q366 1052 313 1052L229 1052L229 1165Z"  horiz-adv-x="1572" vert-adv-y="2048"  />

      
      <glyph glyph-name="unibf" unicode="&#xbf;" d="M945 32Q937-139 828-244Q711-357 510-357Q322-357 203-253Q85-151 85 7Q85 223 294 350Q388 406 423 457Q456 506 456 586L456 651L631 651L631 559Q634 376 432 255Q345 201 308 148Q271 94 271 16Q271-80 338-140Q406-201 517-201Q629-201 698-138Q766-76 774 32L945 32M531 885Q483 885 450 918Q417 951 417 999Q417 1048 450 1080Q483 1113 531 1113Q580 1113 612 1080Q645 1048 645 999Q645 951 612 918Q580 885 531 885Z"  horiz-adv-x="1002" vert-adv-y="2048"  />

      
      <glyph glyph-name="unic0" unicode="&#xc0;" d="M932 413L358 413L213 0L24 0L556 1443L734 1443L1266 0L1077 0L932 413M411 566L879 566L648 1224L642 1224L411 566M290 1849L488 1849L719 1550L571 1550L290 1849Z"  horiz-adv-x="1292" vert-adv-y="2048"  />

      
      <glyph glyph-name="unic1" unicode="&#xc1;" d="M932 413L358 413L213 0L24 0L556 1443L734 1443L1266 0L1077 0L932 413M411 566L879 566L648 1224L642 1224L411 566M574 1550L805 1849L1003 1849L722 1550L574 1550Z"  horiz-adv-x="1292" vert-adv-y="2048"  />

      
      <glyph glyph-name="unic2" unicode="&#xc2;" d="M932 413L358 413L213 0L24 0L556 1443L734 1443L1266 0L1077 0L932 413M411 566L879 566L648 1224L642 1224L411 566M716 1849L1008 1550L840 1550L646 1751L644 1751L450 1550L282 1550L574 1849L716 1849Z"  horiz-adv-x="1292" vert-adv-y="2048"  />

      
      <glyph glyph-name="unic3" unicode="&#xc3;" d="M932 413L358 413L213 0L24 0L556 1443L734 1443L1266 0L1077 0L932 413M411 566L879 566L648 1224L642 1224L411 566M773 1535Q702 1535 630 1611Q557 1687 524 1687Q455 1687 455 1550L341 1550Q341 1668 388 1734Q435 1800 519 1800Q596 1800 670 1724Q744 1648 773 1648Q835 1648 835 1786L949 1786Q949 1671 901 1603Q853 1535 773 1535Z"  horiz-adv-x="1292" vert-adv-y="2048"  />

      
      <glyph glyph-name="unic4" unicode="&#xc4;" d="M932 413L358 413L213 0L24 0L556 1443L734 1443L1266 0L1077 0L932 413M411 566L879 566L648 1224L642 1224L411 566M448 1585Q402 1585 369 1618Q336 1651 336 1697Q336 1743 369 1776Q402 1809 448 1809Q495 1809 527 1776Q560 1744 560 1697Q560 1651 527 1618Q494 1585 448 1585M842 1585Q796 1585 763 1618Q730 1651 730 1697Q730 1743 763 1776Q796 1809 842 1809Q889 1809 921 1776Q954 1744 954 1697Q954 1651 921 1618Q888 1585 842 1585Z"  horiz-adv-x="1292" vert-adv-y="2048"  />

      
      <glyph glyph-name="unic5" unicode="&#xc5;" d="M932 413L358 413L213 0L24 0L556 1443L734 1443L1266 0L1077 0L932 413M411 566L879 566L648 1224L642 1224L411 566M645 1507Q563 1507 505 1566Q446 1624 446 1706Q446 1788 505 1846Q563 1905 645 1905Q727 1905 785 1846Q844 1788 844 1706Q844 1624 785 1566Q727 1507 645 1507M645 1590Q693 1590 727 1624Q761 1658 761 1706Q761 1754 727 1788Q693 1822 645 1822Q597 1822 563 1788Q529 1754 529 1706Q529 1658 563 1624Q597 1590 645 1590Z"  horiz-adv-x="1292" vert-adv-y="2048"  />

      
      <glyph glyph-name="unic6" unicode="&#xc6;" d="M480 612L962 612L962 1292L802 1292L480 612M962 459L407 459L190 0L5 0L692 1443L1836 1443L1836 1281L1142 1281L1142 808L1799 808L1799 648L1142 648L1142 162L1836 162L1836 0L962 0L962 459Z"  horiz-adv-x="1973" vert-adv-y="2048"  />

      
      <glyph glyph-name="unic7" unicode="&#xc7;" d="M1150 988Q1115 1130 1002 1215Q887 1301 733 1301Q522 1301 395 1143Q268 985 268 722Q268 456 394 299Q520 142 734 142Q893 142 1002 215Q1111 288 1150 420L1332 420Q1286 220 1147 106Q1008-8 793-22L749-142Q958-142 958-292Q958-368 896-418Q834-468 739-469Q656-470 592-452L592-354Q630-369 714-369Q834-369 834-296Q834-230 684-230L629-230L629-156L680-22Q404-4 244 195Q83 395 83 722Q83 1062 260 1264Q437 1467 733 1467Q969 1467 1133 1336Q1298 1204 1332 988L1150 988Z"  horiz-adv-x="1405" vert-adv-y="2048"  />

      
      <glyph glyph-name="unic8" unicode="&#xc8;" d="M1033 0L139 0L139 1443L1033 1443L1033 1281L319 1281L319 818L996 818L996 658L319 658L319 162L1033 162L1033 0M231 1849L429 1849L660 1550L512 1550L231 1849Z"  horiz-adv-x="1131" vert-adv-y="2048"  />

      
      <glyph glyph-name="unic9" unicode="&#xc9;" d="M1033 0L139 0L139 1443L1033 1443L1033 1281L319 1281L319 818L996 818L996 658L319 658L319 162L1033 162L1033 0M515 1550L746 1849L944 1849L663 1550L515 1550Z"  horiz-adv-x="1131" vert-adv-y="2048"  />

      
      <glyph glyph-name="unica" unicode="&#xca;" d="M1033 0L139 0L139 1443L1033 1443L1033 1281L319 1281L319 818L996 818L996 658L319 658L319 162L1033 162L1033 0M657 1849L949 1550L781 1550L587 1751L585 1751L391 1550L223 1550L515 1849L657 1849Z"  horiz-adv-x="1131" vert-adv-y="2048"  />

      
      <glyph glyph-name="unicb" unicode="&#xcb;" d="M1033 0L139 0L139 1443L1033 1443L1033 1281L319 1281L319 818L996 818L996 658L319 658L319 162L1033 162L1033 0M389 1585Q343 1585 310 1618Q277 1651 277 1697Q277 1743 310 1776Q343 1809 389 1809Q436 1809 468 1776Q501 1744 501 1697Q501 1651 468 1618Q435 1585 389 1585M783 1585Q737 1585 704 1618Q671 1651 671 1697Q671 1743 704 1776Q737 1809 783 1809Q830 1809 862 1776Q895 1744 895 1697Q895 1651 862 1618Q829 1585 783 1585Z"  horiz-adv-x="1131" vert-adv-y="2048"  />

      
      <glyph glyph-name="unicc" unicode="&#xcc;" d="M140 0L140 1443L320 1443L320 0L140 0M-125 1849L73 1849L304 1550L156 1550L-125 1849Z"  horiz-adv-x="460" vert-adv-y="2048"  />

      
      <glyph glyph-name="unicd" unicode="&#xcd;" d="M139 0L139 1443L319 1443L319 0L139 0M158 1550L389 1849L587 1849L306 1550L158 1550Z"  horiz-adv-x="460" vert-adv-y="2048"  />

      
      <glyph glyph-name="unice" unicode="&#xce;" d="M140 0L140 1443L320 1443L320 0L140 0M301 1849L593 1550L425 1550L231 1751L229 1751L35 1550L-133 1550L159 1849L301 1849Z"  horiz-adv-x="460" vert-adv-y="2048"  />

      
      <glyph glyph-name="unicf" unicode="&#xcf;" d="M140 0L140 1443L320 1443L320 0L140 0M33 1585Q-13 1585-46 1618Q-79 1651-79 1697Q-79 1743-46 1776Q-13 1809 33 1809Q80 1809 112 1776Q145 1744 145 1697Q145 1651 112 1618Q79 1585 33 1585M427 1585Q381 1585 348 1618Q315 1651 315 1697Q315 1743 348 1776Q381 1809 427 1809Q474 1809 506 1776Q539 1744 539 1697Q539 1651 506 1618Q473 1585 427 1585Z"  horiz-adv-x="460" vert-adv-y="2048"  />

      
      <glyph glyph-name="unid0" unicode="&#xd0;" d="M623 162Q868 162 1000 307Q1132 451 1132 720Q1132 991 1001 1136Q869 1281 623 1281L320 1281L320 826L597 826L597 663L320 663L320 162L623 162M635 1443Q956 1443 1136 1253Q1316 1062 1316 722Q1316 381 1136 190Q957 0 635 0L140 0L140 663L11 663L11 826L140 826L140 1443L635 1443Z"  horiz-adv-x="1452" vert-adv-y="2048"  />

      
      <glyph glyph-name="unid1" unicode="&#xd1;" d="M139 0L139 1443L314 1443L1104 310L1113 310L1113 1443L1291 1443L1291 0L1116 0L326 1129L317 1129L317 0L139 0M843 1535Q772 1535 700 1611Q627 1687 594 1687Q525 1687 525 1550L411 1550Q411 1668 458 1734Q505 1800 589 1800Q666 1800 740 1724Q814 1648 843 1648Q905 1648 905 1786L1019 1786Q1019 1671 971 1603Q923 1535 843 1535Z"  horiz-adv-x="1432" vert-adv-y="2048"  />

      
      <glyph glyph-name="unid2" unicode="&#xd2;" d="M748 1467Q1055 1467 1234 1266Q1413 1065 1413 721Q1413 377 1234 177Q1055-24 748-24Q441-24 262 177Q83 377 83 721Q83 1065 262 1266Q441 1467 748 1467M748 1301Q527 1301 397 1145Q268 988 268 721Q268 455 397 298Q527 142 748 142Q969 142 1099 298Q1228 455 1228 721Q1228 988 1099 1145Q969 1301 748 1301M393 1849L591 1849L822 1550L674 1550L393 1849Z"  horiz-adv-x="1498" vert-adv-y="2048"  />

      
      <glyph glyph-name="unid3" unicode="&#xd3;" d="M748 1467Q1055 1467 1234 1266Q1413 1065 1413 721Q1413 377 1234 177Q1055-24 748-24Q441-24 262 177Q83 377 83 721Q83 1065 262 1266Q441 1467 748 1467M748 1301Q527 1301 397 1145Q268 988 268 721Q268 455 397 298Q527 142 748 142Q969 142 1099 298Q1228 455 1228 721Q1228 988 1099 1145Q969 1301 748 1301M677 1550L908 1849L1106 1849L825 1550L677 1550Z"  horiz-adv-x="1498" vert-adv-y="2048"  />

      
      <glyph glyph-name="unid4" unicode="&#xd4;" d="M748 1467Q1055 1467 1234 1266Q1413 1065 1413 721Q1413 377 1234 177Q1055-24 748-24Q441-24 262 177Q83 377 83 721Q83 1065 262 1266Q441 1467 748 1467M748 1301Q527 1301 397 1145Q268 988 268 721Q268 455 397 298Q527 142 748 142Q969 142 1099 298Q1228 455 1228 721Q1228 988 1099 1145Q969 1301 748 1301M819 1849L1111 1550L943 1550L749 1751L747 1751L553 1550L385 1550L677 1849L819 1849Z"  horiz-adv-x="1498" vert-adv-y="2048"  />

      
      <glyph glyph-name="unid5" unicode="&#xd5;" d="M748 1467Q1055 1467 1234 1266Q1413 1065 1413 721Q1413 377 1234 177Q1055-24 748-24Q441-24 262 177Q83 377 83 721Q83 1065 262 1266Q441 1467 748 1467M748 1301Q527 1301 397 1145Q268 988 268 721Q268 455 397 298Q527 142 748 142Q969 142 1099 298Q1228 455 1228 721Q1228 988 1099 1145Q969 1301 748 1301M876 1535Q805 1535 733 1611Q660 1687 627 1687Q558 1687 558 1550L444 1550Q444 1668 491 1734Q538 1800 622 1800Q699 1800 773 1724Q847 1648 876 1648Q938 1648 938 1786L1052 1786Q1052 1671 1004 1603Q956 1535 876 1535Z"  horiz-adv-x="1498" vert-adv-y="2048"  />

      
      <glyph glyph-name="unid6" unicode="&#xd6;" d="M748 1467Q1055 1467 1234 1266Q1413 1065 1413 721Q1413 377 1234 177Q1055-24 748-24Q441-24 262 177Q83 377 83 721Q83 1065 262 1266Q441 1467 748 1467M748 1301Q527 1301 397 1145Q268 988 268 721Q268 455 397 298Q527 142 748 142Q969 142 1099 298Q1228 455 1228 721Q1228 988 1099 1145Q969 1301 748 1301M551 1585Q505 1585 472 1618Q439 1651 439 1697Q439 1743 472 1776Q505 1809 551 1809Q598 1809 630 1776Q663 1744 663 1697Q663 1651 630 1618Q597 1585 551 1585M945 1585Q899 1585 866 1618Q833 1651 833 1697Q833 1743 866 1776Q899 1809 945 1809Q992 1809 1024 1776Q1057 1744 1057 1697Q1057 1651 1024 1618Q991 1585 945 1585Z"  horiz-adv-x="1498" vert-adv-y="2048"  />

      
      <glyph glyph-name="unid7" unicode="&#xd7;" d="M311 168L207 272L514 580L207 888L311 992L619 685L926 992L1030 888L724 580L1030 272L926 168L619 475L311 168Z"  horiz-adv-x="1239" vert-adv-y="2048"  />

      
      <glyph glyph-name="unid8" unicode="&#xd8;" d="M469 230Q585 142 748 142Q969 142 1099 298Q1228 455 1228 721Q1228 948 1134 1096L469 230M1054 1191Q932 1301 748 1301Q527 1301 397 1145Q268 988 268 721Q268 472 381 319L1054 1191M1249 1247Q1413 1049 1413 721Q1413 377 1234 177Q1055-24 748-24Q522-24 361 89L257-47L157 29L267 171Q83 374 83 721Q83 1065 262 1266Q441 1467 748 1467Q997 1467 1163 1333L1283 1488L1381 1419L1249 1247Z"  horiz-adv-x="1498" vert-adv-y="2048"  />

      
      <glyph glyph-name="unid9" unicode="&#xd9;" d="M319 518Q319 351 422 248Q528 142 712 142Q896 142 1002 248Q1105 351 1105 518L1105 1443L1285 1443L1285 506Q1285 271 1133 126Q976-24 712-24Q448-24 291 126Q139 271 139 506L139 1443L319 1443L319 518M357 1849L555 1849L786 1550L638 1550L357 1849Z"  horiz-adv-x="1426" vert-adv-y="2048"  />

      
      <glyph glyph-name="unida" unicode="&#xda;" d="M319 518Q319 351 422 248Q528 142 712 142Q896 142 1002 248Q1105 351 1105 518L1105 1443L1285 1443L1285 506Q1285 271 1133 126Q976-24 712-24Q448-24 291 126Q139 271 139 506L139 1443L319 1443L319 518M641 1550L872 1849L1070 1849L789 1550L641 1550Z"  horiz-adv-x="1426" vert-adv-y="2048"  />

      
      <glyph glyph-name="unidb" unicode="&#xdb;" d="M319 518Q319 351 422 248Q528 142 712 142Q896 142 1002 248Q1105 351 1105 518L1105 1443L1285 1443L1285 506Q1285 271 1133 126Q976-24 712-24Q448-24 291 126Q139 271 139 506L139 1443L319 1443L319 518M783 1849L1075 1550L907 1550L713 1751L711 1751L517 1550L349 1550L641 1849L783 1849Z"  horiz-adv-x="1426" vert-adv-y="2048"  />

      
      <glyph glyph-name="unidc" unicode="&#xdc;" d="M319 518Q319 351 422 248Q528 142 712 142Q896 142 1002 248Q1105 351 1105 518L1105 1443L1285 1443L1285 506Q1285 271 1133 126Q976-24 712-24Q448-24 291 126Q139 271 139 506L139 1443L319 1443L319 518M515 1585Q469 1585 436 1618Q403 1651 403 1697Q403 1743 436 1776Q469 1809 515 1809Q562 1809 594 1776Q627 1744 627 1697Q627 1651 594 1618Q561 1585 515 1585M909 1585Q863 1585 830 1618Q797 1651 797 1697Q797 1743 830 1776Q863 1809 909 1809Q956 1809 988 1776Q1021 1744 1021 1697Q1021 1651 988 1618Q955 1585 909 1585Z"  horiz-adv-x="1426" vert-adv-y="2048"  />

      
      <glyph glyph-name="unidd" unicode="&#xdd;" d="M536 0L536 621L24 1443L229 1443L623 795L629 795L1023 1443L1228 1443L716 621L716 0L536 0M555 1550L786 1849L984 1849L703 1550L555 1550Z"  horiz-adv-x="1254" vert-adv-y="2048"  />

      
      <glyph glyph-name="unide" unicode="&#xde;" d="M339 1443L339 1177L712 1177Q886 1177 1006 1069Q1134 952 1134 762Q1134 572 1005 455Q884 345 710 345L339 345L339 0L159 0L159 1443L339 1443M339 505L661 505Q791 505 867 569Q949 637 949 762Q949 887 867 954Q791 1017 661 1017L339 1017L339 505Z"  horiz-adv-x="1232" vert-adv-y="2048"  />

      
      <glyph glyph-name="unidf" unicode="&#xdf;" d="M181 0L181 1101Q181 1280 295 1388Q410 1496 600 1496Q783 1496 899 1391Q1015 1286 1015 1121Q1015 994 953 901Q892 808 786 775L786 771Q946 749 1034 651Q1122 554 1122 401Q1122 213 998 100Q873-14 667-14Q584-14 523-1L523 152Q577 138 655 138Q790 138 871 210Q951 282 951 403Q951 533 861 605Q771 678 611 678L550 678L550 848L601 848Q717 848 781 918Q846 988 846 1112Q846 1215 779 1279Q711 1344 603 1344Q485 1344 419 1275Q352 1206 352 1084L352 0L181 0Z"  horiz-adv-x="1238" vert-adv-y="2048"  />

      
      <glyph glyph-name="unie0" unicode="&#xe0;" d="M469 141Q601 141 688 217Q774 294 774 410L774 497L492 479Q246 464 246 306Q246 231 307 186Q367 141 469 141M432-10Q268-10 168 77Q68 164 68 307Q68 446 172 525Q276 605 472 617L774 635L774 725Q774 825 710 879Q646 933 527 933Q433 933 369 888Q304 843 288 767L121 767Q125 903 242 996Q359 1088 529 1088Q720 1088 834 994Q948 899 948 740L948 0L783 0L783 187L779 187Q733 97 639 44Q545-10 432-10M442 1250L181 1550L379 1550L590 1250L442 1250Z"  horiz-adv-x="1062" vert-adv-y="2048"  />

      
      <glyph glyph-name="unie1" unicode="&#xe1;" d="M469 141Q601 141 688 217Q774 294 774 410L774 497L492 479Q246 464 246 306Q246 231 307 186Q367 141 469 141M432-10Q268-10 168 77Q68 164 68 307Q68 446 172 525Q276 605 472 617L774 635L774 725Q774 825 710 879Q646 933 527 933Q433 933 369 888Q304 843 288 767L121 767Q125 903 242 996Q359 1088 529 1088Q720 1088 834 994Q948 899 948 740L948 0L783 0L783 187L779 187Q733 97 639 44Q545-10 432-10M451 1250L662 1550L860 1550L599 1250L451 1250Z"  horiz-adv-x="1062" vert-adv-y="2048"  />

      
      <glyph glyph-name="unie2" unicode="&#xe2;" d="M469 141Q601 141 688 217Q774 294 774 410L774 497L492 479Q246 464 246 306Q246 231 307 186Q367 141 469 141M432-10Q268-10 168 77Q68 164 68 307Q68 446 172 525Q276 605 472 617L774 635L774 725Q774 825 710 879Q646 933 527 933Q433 933 369 888Q304 843 288 767L121 767Q125 903 242 996Q359 1088 529 1088Q720 1088 834 994Q948 899 948 740L948 0L783 0L783 187L779 187Q733 97 639 44Q545-10 432-10M864 1250L701 1250L528 1447L522 1447L349 1250L186 1250L463 1550L587 1550L864 1250Z"  horiz-adv-x="1062" vert-adv-y="2048"  />

      
      <glyph glyph-name="unie3" unicode="&#xe3;" d="M469 141Q601 141 688 217Q774 294 774 410L774 497L492 479Q246 464 246 306Q246 231 307 186Q367 141 469 141M432-10Q268-10 168 77Q68 164 68 307Q68 446 172 525Q276 605 472 617L774 635L774 725Q774 825 710 879Q646 933 527 933Q433 933 369 888Q304 843 288 767L121 767Q125 903 242 996Q359 1088 529 1088Q720 1088 834 994Q948 899 948 740L948 0L783 0L783 187L779 187Q733 97 639 44Q545-10 432-10M657 1258Q586 1258 514 1334Q441 1410 408 1410Q339 1410 339 1273L225 1273Q225 1391 272 1457Q319 1523 403 1523Q480 1523 554 1447Q628 1371 657 1371Q719 1371 719 1509L833 1509Q833 1394 785 1326Q737 1258 657 1258Z"  horiz-adv-x="1062" vert-adv-y="2048"  />

      
      <glyph glyph-name="unie4" unicode="&#xe4;" d="M469 141Q601 141 688 217Q774 294 774 410L774 497L492 479Q246 464 246 306Q246 231 307 186Q367 141 469 141M432-10Q268-10 168 77Q68 164 68 307Q68 446 172 525Q276 605 472 617L774 635L774 725Q774 825 710 879Q646 933 527 933Q433 933 369 888Q304 843 288 767L121 767Q125 903 242 996Q359 1088 529 1088Q720 1088 834 994Q948 899 948 740L948 0L783 0L783 187L779 187Q733 97 639 44Q545-10 432-10M328 1261Q282 1261 249 1294Q216 1327 216 1373Q216 1419 249 1452Q282 1485 328 1485Q375 1485 407 1452Q440 1420 440 1373Q440 1327 407 1294Q374 1261 328 1261M722 1261Q676 1261 643 1294Q610 1327 610 1373Q610 1419 643 1452Q676 1485 722 1485Q769 1485 801 1452Q834 1420 834 1373Q834 1327 801 1294Q768 1261 722 1261Z"  horiz-adv-x="1062" vert-adv-y="2048"  />

      
      <glyph glyph-name="unie5" unicode="&#xe5;" d="M469 141Q601 141 688 217Q774 294 774 410L774 497L492 479Q246 464 246 306Q246 231 307 186Q367 141 469 141M432-10Q268-10 168 77Q68 164 68 307Q68 446 172 525Q276 605 472 617L774 635L774 725Q774 825 710 879Q646 933 527 933Q433 933 369 888Q304 843 288 767L121 767Q125 903 242 996Q359 1088 529 1088Q720 1088 834 994Q948 899 948 740L948 0L783 0L783 187L779 187Q733 97 639 44Q545-10 432-10M525 1184Q443 1184 385 1243Q326 1301 326 1383Q326 1465 385 1523Q443 1582 525 1582Q607 1582 665 1523Q724 1465 724 1383Q724 1301 665 1243Q607 1184 525 1184M525 1267Q573 1267 607 1301Q641 1335 641 1383Q641 1431 607 1465Q573 1499 525 1499Q477 1499 443 1465Q409 1431 409 1383Q409 1335 443 1301Q477 1267 525 1267Z"  horiz-adv-x="1062" vert-adv-y="2048"  />

      
      <glyph glyph-name="unie6" unicode="&#xe6;" d="M1259-10Q983-10 872 213L862 213Q728-10 456-10Q278-10 173 75Q68 160 68 303Q68 443 172 523Q277 604 470 614L773 629L773 706Q773 806 702 870Q632 933 520 933Q415 933 351 888Q288 844 281 767L110 767Q119 908 229 997Q341 1088 514 1088Q649 1088 748 1032Q847 976 886 875L895 875Q1007 1088 1261 1088Q1465 1088 1584 945Q1703 803 1703 559L1703 492L947 492L947 481Q947 326 1033 235Q1118 143 1262 143Q1359 143 1427 187Q1494 230 1518 308L1690 308Q1667 167 1547 79Q1427-10 1259-10M1247 935Q1120 935 1038 852Q956 768 947 630L1522 630Q1519 771 1445 853Q1371 935 1247 935M460 141Q592 141 683 219Q773 296 773 410L773 491L488 476Q246 464 246 306Q246 230 304 186Q362 141 460 141Z"  horiz-adv-x="1769" vert-adv-y="2048"  />

      
      <glyph glyph-name="unie7" unicode="&#xe7;" d="M1010 345Q990 201 886 107Q782 11 624-6L574-142Q783-142 783-292Q783-368 721-418Q659-468 564-469Q481-470 417-452L417-354Q455-369 539-369Q659-369 659-296Q659-230 509-230L454-230L454-156L511-8Q307 8 186 153Q64 300 64 539Q64 787 199 938Q334 1088 556 1088Q747 1088 874 978Q991 877 1008 727L837 727Q820 818 750 873Q674 933 557 933Q415 933 329 825Q241 717 241 539Q241 357 330 250Q416 145 559 145Q793 145 839 345L1010 345Z"  horiz-adv-x="1060" vert-adv-y="2048"  />

      
      <glyph glyph-name="unie8" unicode="&#xe8;" d="M547 935Q420 935 337 851Q253 767 244 630L837 630Q834 767 754 851Q675 935 547 935M1005 308Q983 169 857 80Q731-10 558-10Q331-10 197 137Q64 284 64 535Q64 786 197 937Q330 1088 550 1088Q766 1088 892 946Q1018 803 1018 559L1018 491L244 491L244 481Q244 327 331 235Q418 143 562 143Q663 143 737 188Q810 232 833 308L1005 308M467 1250L206 1550L404 1550L615 1250L467 1250Z"  horiz-adv-x="1084" vert-adv-y="2048"  />

      
      <glyph glyph-name="unie9" unicode="&#xe9;" d="M547 935Q420 935 337 851Q253 767 244 630L837 630Q834 767 754 851Q675 935 547 935M1005 308Q983 169 857 80Q731-10 558-10Q331-10 197 137Q64 284 64 535Q64 786 197 937Q330 1088 550 1088Q766 1088 892 946Q1018 803 1018 559L1018 491L244 491L244 481Q244 327 331 235Q418 143 562 143Q663 143 737 188Q810 232 833 308L1005 308M476 1250L687 1550L885 1550L624 1250L476 1250Z"  horiz-adv-x="1084" vert-adv-y="2048"  />

      
      <glyph glyph-name="uniea" unicode="&#xea;" d="M547 935Q420 935 337 851Q253 767 244 630L837 630Q834 767 754 851Q675 935 547 935M1005 308Q983 169 857 80Q731-10 558-10Q331-10 197 137Q64 284 64 535Q64 786 197 937Q330 1088 550 1088Q766 1088 892 946Q1018 803 1018 559L1018 491L244 491L244 481Q244 327 331 235Q418 143 562 143Q663 143 737 188Q810 232 833 308L1005 308M889 1250L726 1250L553 1447L547 1447L374 1250L211 1250L488 1550L612 1550L889 1250Z"  horiz-adv-x="1084" vert-adv-y="2048"  />

      
      <glyph glyph-name="unieb" unicode="&#xeb;" d="M547 935Q420 935 337 851Q253 767 244 630L837 630Q834 767 754 851Q675 935 547 935M1005 308Q983 169 857 80Q731-10 558-10Q331-10 197 137Q64 284 64 535Q64 786 197 937Q330 1088 550 1088Q766 1088 892 946Q1018 803 1018 559L1018 491L244 491L244 481Q244 327 331 235Q418 143 562 143Q663 143 737 188Q810 232 833 308L1005 308M353 1261Q307 1261 274 1294Q241 1327 241 1373Q241 1419 274 1452Q307 1485 353 1485Q400 1485 432 1452Q465 1420 465 1373Q465 1327 432 1294Q399 1261 353 1261M747 1261Q701 1261 668 1294Q635 1327 635 1373Q635 1419 668 1452Q701 1485 747 1485Q794 1485 826 1452Q859 1420 859 1373Q859 1327 826 1294Q793 1261 747 1261Z"  horiz-adv-x="1084" vert-adv-y="2048"  />

      
      <glyph glyph-name="uniec" unicode="&#xec;" d="M128 1078L302 1078L302 0L128 0L128 1078M132 1250L-129 1550L69 1550L280 1250L132 1250Z"  horiz-adv-x="430" vert-adv-y="2048"  />

      
      <glyph glyph-name="unied" unicode="&#xed;" d="M127 1078L301 1078L301 0L127 0L127 1078M140 1250L351 1550L549 1550L288 1250L140 1250Z"  horiz-adv-x="430" vert-adv-y="2048"  />

      
      <glyph glyph-name="uniee" unicode="&#xee;" d="M128 1078L302 1078L302 0L128 0L128 1078M554 1250L391 1250L218 1447L212 1447L39 1250L-124 1250L153 1550L277 1550L554 1250Z"  horiz-adv-x="430" vert-adv-y="2048"  />

      
      <glyph glyph-name="unief" unicode="&#xef;" d="M128 1078L302 1078L302 0L128 0L128 1078M18 1261Q-28 1261-61 1294Q-94 1327-94 1373Q-94 1419-61 1452Q-28 1485 18 1485Q65 1485 97 1452Q130 1420 130 1373Q130 1327 97 1294Q64 1261 18 1261M412 1261Q366 1261 333 1294Q300 1327 300 1373Q300 1419 333 1452Q366 1485 412 1485Q459 1485 491 1452Q524 1420 524 1373Q524 1327 491 1294Q458 1261 412 1261Z"  horiz-adv-x="430" vert-adv-y="2048"  />

      
      <glyph glyph-name="unif0" unicode="&#xf0;" d="M576-19Q347-19 215 125Q83 269 83 519Q83 764 211 911Q339 1057 554 1057Q646 1057 733 1008Q820 959 854 888L869 888Q820 1076 687 1239L409 1149L374 1261L605 1336Q543 1409 405 1526L611 1526Q688 1461 756 1385L1006 1466L1041 1354L838 1290Q1059 984 1059 571Q1059 298 929 140Q799-19 576-19M576 902Q432 902 347 798Q261 694 261 519Q261 344 347 240Q432 136 576 136Q721 136 807 240Q893 344 893 519Q893 692 806 797Q719 902 576 902Z"  horiz-adv-x="1140" vert-adv-y="2048"  />

      
      <glyph glyph-name="unif1" unicode="&#xf1;" d="M117 1078L281 1078L281 903L285 903Q388 1088 637 1088Q815 1088 918 981Q1021 875 1021 691L1021 0L847 0L847 661Q847 793 780 863Q712 933 585 933Q452 933 372 849Q291 765 291 626L291 0L117 0L117 1078M701 1258Q630 1258 558 1334Q485 1410 452 1410Q383 1410 383 1273L269 1273Q269 1391 316 1457Q363 1523 447 1523Q524 1523 598 1447Q672 1371 701 1371Q763 1371 763 1509L877 1509Q877 1394 829 1326Q781 1258 701 1258Z"  horiz-adv-x="1135" vert-adv-y="2048"  />

      
      <glyph glyph-name="unif2" unicode="&#xf2;" d="M561-10Q334-10 199 139Q64 288 64 539Q64 790 199 939Q334 1088 561 1088Q788 1088 923 939Q1058 790 1058 539Q1058 288 923 139Q788-10 561-10M561 145Q712 145 796 249Q881 354 881 539Q881 725 796 829Q712 933 561 933Q410 933 326 829Q241 724 241 539Q241 354 326 249Q411 145 561 145M478 1250L217 1550L415 1550L626 1250L478 1250Z"  horiz-adv-x="1124" vert-adv-y="2048"  />

      
      <glyph glyph-name="unif3" unicode="&#xf3;" d="M561-10Q334-10 199 139Q64 288 64 539Q64 790 199 939Q334 1088 561 1088Q788 1088 923 939Q1058 790 1058 539Q1058 288 923 139Q788-10 561-10M561 145Q712 145 796 249Q881 354 881 539Q881 725 796 829Q712 933 561 933Q410 933 326 829Q241 724 241 539Q241 354 326 249Q411 145 561 145M487 1250L698 1550L896 1550L635 1250L487 1250Z"  horiz-adv-x="1124" vert-adv-y="2048"  />

      
      <glyph glyph-name="unif4" unicode="&#xf4;" d="M561-10Q334-10 199 139Q64 288 64 539Q64 790 199 939Q334 1088 561 1088Q788 1088 923 939Q1058 790 1058 539Q1058 288 923 139Q788-10 561-10M561 145Q712 145 796 249Q881 354 881 539Q881 725 796 829Q712 933 561 933Q410 933 326 829Q241 724 241 539Q241 354 326 249Q411 145 561 145M900 1250L737 1250L564 1447L558 1447L385 1250L222 1250L499 1550L623 1550L900 1250Z"  horiz-adv-x="1124" vert-adv-y="2048"  />

      
      <glyph glyph-name="unif5" unicode="&#xf5;" d="M561-10Q334-10 199 139Q64 288 64 539Q64 790 199 939Q334 1088 561 1088Q788 1088 923 939Q1058 790 1058 539Q1058 288 923 139Q788-10 561-10M561 145Q712 145 796 249Q881 354 881 539Q881 725 796 829Q712 933 561 933Q410 933 326 829Q241 724 241 539Q241 354 326 249Q411 145 561 145M693 1258Q622 1258 550 1334Q477 1410 444 1410Q375 1410 375 1273L261 1273Q261 1391 308 1457Q355 1523 439 1523Q516 1523 590 1447Q664 1371 693 1371Q755 1371 755 1509L869 1509Q869 1394 821 1326Q773 1258 693 1258Z"  horiz-adv-x="1124" vert-adv-y="2048"  />

      
      <glyph glyph-name="unif6" unicode="&#xf6;" d="M561-10Q334-10 199 139Q64 288 64 539Q64 790 199 939Q334 1088 561 1088Q788 1088 923 939Q1058 790 1058 539Q1058 288 923 139Q788-10 561-10M561 145Q712 145 796 249Q881 354 881 539Q881 725 796 829Q712 933 561 933Q410 933 326 829Q241 724 241 539Q241 354 326 249Q411 145 561 145M364 1261Q318 1261 285 1294Q252 1327 252 1373Q252 1419 285 1452Q318 1485 364 1485Q411 1485 443 1452Q476 1420 476 1373Q476 1327 443 1294Q410 1261 364 1261M758 1261Q712 1261 679 1294Q646 1327 646 1373Q646 1419 679 1452Q712 1485 758 1485Q805 1485 837 1452Q870 1420 870 1373Q870 1327 837 1294Q804 1261 758 1261Z"  horiz-adv-x="1124" vert-adv-y="2048"  />

      
      <glyph glyph-name="unif7" unicode="&#xf7;" d="M619 802Q565 802 530 837Q494 872 494 927Q494 981 530 1017Q565 1052 619 1052Q672 1052 708 1017Q744 981 744 927Q744 873 708 837Q673 802 619 802M619 88Q565 88 530 123Q494 158 494 213Q494 267 530 303Q565 338 619 338Q672 338 708 303Q744 267 744 213Q744 159 708 123Q673 88 619 88M110 496L110 644L1127 644L1127 496L110 496Z"  horiz-adv-x="1239" vert-adv-y="2048"  />

      
      <glyph glyph-name="unif8" unicode="&#xf8;" d="M399 186Q467 145 561 145Q712 145 796 249Q881 354 881 539Q881 700 816 802L399 186M730 888Q660 933 561 933Q410 933 326 829Q241 724 241 539Q241 377 308 273L730 888M915 948Q1058 797 1058 539Q1058 288 923 139Q788-10 561-10Q418-10 308 52L247-37L143 32L209 128Q64 278 64 539Q64 790 199 939Q334 1088 561 1088Q709 1088 821 1022L887 1118L987 1054L915 948Z"  horiz-adv-x="1124" vert-adv-y="2048"  />

      
      <glyph glyph-name="unif9" unicode="&#xf9;" d="M1016 0L852 0L852 178L848 178Q746-10 495-10Q318-10 215 97Q112 203 112 387L112 1078L286 1078L286 417Q286 285 354 215Q421 145 548 145Q681 145 761 229Q842 313 842 452L842 1078L1016 1078L1016 0M481 1250L220 1550L418 1550L629 1250L481 1250Z"  horiz-adv-x="1135" vert-adv-y="2048"  />

      
      <glyph glyph-name="unifa" unicode="&#xfa;" d="M1016 0L852 0L852 178L848 178Q746-10 495-10Q318-10 215 97Q112 203 112 387L112 1078L286 1078L286 417Q286 285 354 215Q421 145 548 145Q681 145 761 229Q842 313 842 452L842 1078L1016 1078L1016 0M490 1250L701 1550L899 1550L638 1250L490 1250Z"  horiz-adv-x="1135" vert-adv-y="2048"  />

      
      <glyph glyph-name="unifb" unicode="&#xfb;" d="M1016 0L852 0L852 178L848 178Q746-10 495-10Q318-10 215 97Q112 203 112 387L112 1078L286 1078L286 417Q286 285 354 215Q421 145 548 145Q681 145 761 229Q842 313 842 452L842 1078L1016 1078L1016 0M903 1250L740 1250L567 1447L561 1447L388 1250L225 1250L502 1550L626 1550L903 1250Z"  horiz-adv-x="1135" vert-adv-y="2048"  />

      
      <glyph glyph-name="unifc" unicode="&#xfc;" d="M1016 0L852 0L852 178L848 178Q746-10 495-10Q318-10 215 97Q112 203 112 387L112 1078L286 1078L286 417Q286 285 354 215Q421 145 548 145Q681 145 761 229Q842 313 842 452L842 1078L1016 1078L1016 0M367 1261Q321 1261 288 1294Q255 1327 255 1373Q255 1419 288 1452Q321 1485 367 1485Q414 1485 446 1452Q479 1420 479 1373Q479 1327 446 1294Q413 1261 367 1261M761 1261Q715 1261 682 1294Q649 1327 649 1373Q649 1419 682 1452Q715 1485 761 1485Q808 1485 840 1452Q873 1420 873 1373Q873 1327 840 1294Q807 1261 761 1261Z"  horiz-adv-x="1135" vert-adv-y="2048"  />

      
      <glyph glyph-name="unifd" unicode="&#xfd;" d="M209-391Q170-391 133-384L133-237Q163-243 204-243Q279-243 324-203Q369-162 402-65L423-1L24 1078L209 1078L511 177L515 177L817 1078L1000 1078L578-66Q509-253 431-322Q352-391 209-391M439 1250L650 1550L848 1550L587 1250L439 1250Z"  horiz-adv-x="1026" vert-adv-y="2048"  />

      
      <glyph glyph-name="unife" unicode="&#xfe;" d="M652 1097Q858 1097 982 945Q1105 793 1105 539Q1105 286 981 134Q857-19 652-19Q406-19 314 162L299 162L299-360L127-360L127 1506L291 1506L291 898L307 898Q359 991 450 1044Q542 1097 652 1097M611 136Q759 136 843 243Q927 350 927 539Q927 728 843 835Q760 942 612 942Q466 942 380 834Q294 725 294 539Q294 354 380 245Q465 136 611 136Z"  horiz-adv-x="1171" vert-adv-y="2048"  />

      
      <glyph glyph-name="uniff" unicode="&#xff;" d="M209-391Q170-391 133-384L133-237Q163-243 204-243Q279-243 324-203Q369-162 402-65L423-1L24 1078L209 1078L511 177L515 177L817 1078L1000 1078L578-66Q509-253 431-322Q352-391 209-391M316 1261Q270 1261 237 1294Q204 1327 204 1373Q204 1419 237 1452Q270 1485 316 1485Q363 1485 395 1452Q428 1420 428 1373Q428 1327 395 1294Q362 1261 316 1261M710 1261Q664 1261 631 1294Q598 1327 598 1373Q598 1419 631 1452Q664 1485 710 1485Q757 1485 789 1452Q822 1420 822 1373Q822 1327 789 1294Q756 1261 710 1261Z"  horiz-adv-x="1026" vert-adv-y="2048"  />

      
      <glyph glyph-name="uni0100" unicode="&#x0100;" d="M932 413L358 413L213 0L24 0L556 1443L734 1443L1266 0L1077 0L932 413M411 566L879 566L648 1224L642 1224L411 566M962 1642L328 1642L328 1748L962 1748L962 1642Z"  horiz-adv-x="1292" vert-adv-y="2048"  />

      
      <glyph glyph-name="uni0101" unicode="&#x0101;" d="M469 141Q601 141 688 217Q774 294 774 410L774 497L492 479Q246 464 246 306Q246 231 307 186Q367 141 469 141M432-10Q268-10 168 77Q68 164 68 307Q68 446 172 525Q276 605 472 617L774 635L774 725Q774 825 710 879Q646 933 527 933Q433 933 369 888Q304 843 288 767L121 767Q125 903 242 996Q359 1088 529 1088Q720 1088 834 994Q948 899 948 740L948 0L783 0L783 187L779 187Q733 97 639 44Q545-10 432-10M842 1320L208 1320L208 1426L842 1426L842 1320Z"  horiz-adv-x="1062" vert-adv-y="2048"  />

      
      <glyph glyph-name="uni0102" unicode="&#x0102;" d="M932 413L358 413L213 0L24 0L556 1443L734 1443L1266 0L1077 0L932 413M411 566L879 566L648 1224L642 1224L411 566M454 1849Q454 1766 509 1710Q564 1653 645 1653Q726 1653 781 1710Q836 1766 836 1849L955 1849Q955 1717 869 1634Q782 1550 645 1550Q508 1550 421 1634Q335 1717 335 1849L454 1849Z"  horiz-adv-x="1292" vert-adv-y="2048"  />

      
      <glyph glyph-name="uni0103" unicode="&#x0103;" d="M469 141Q601 141 688 217Q774 294 774 410L774 497L492 479Q246 464 246 306Q246 231 307 186Q367 141 469 141M432-10Q268-10 168 77Q68 164 68 307Q68 446 172 525Q276 605 472 617L774 635L774 725Q774 825 710 879Q646 933 527 933Q433 933 369 888Q304 843 288 767L121 767Q125 903 242 996Q359 1088 529 1088Q720 1088 834 994Q948 899 948 740L948 0L783 0L783 187L779 187Q733 97 639 44Q545-10 432-10M325 1550Q325 1464 383 1406Q440 1347 524 1347Q608 1347 666 1406Q723 1464 723 1550L846 1550Q846 1412 757 1326Q667 1240 524 1240Q381 1240 291 1326Q202 1412 202 1550L325 1550Z"  horiz-adv-x="1062" vert-adv-y="2048"  />

      
      <glyph glyph-name="uni0104" unicode="&#x0104;" d="M1171-432Q1067-432 1001-369Q935-306 935-207Q935-72 1070 22L932 413L358 413L213 0L24 0L556 1443L734 1443L1261 14Q1097-59 1097-180Q1097-232 1130-265Q1164-298 1217-298Q1247-298 1266-295L1266-421Q1228-432 1171-432M411 566L879 566L653 1210L637 1210L411 566Z"  horiz-adv-x="1292" vert-adv-y="2048"  />

      
      <glyph glyph-name="uni0105" unicode="&#x0105;" d="M860-432Q756-432 693-373Q629-314 629-217Q629-71 783 23L783 187L779 187Q733 97 639 44Q545-10 432-10Q268-10 168 77Q68 164 68 307Q68 446 172 525Q276 605 472 617L774 635L774 725Q774 825 710 879Q646 933 527 933Q433 933 369 888Q304 843 288 767L121 767Q125 903 242 996Q359 1088 529 1088Q720 1088 834 994Q948 899 948 740L948 19Q786-53 786-180Q786-234 818-266Q851-298 904-298Q930-298 948-295L948-421Q909-432 860-432M469 141Q601 141 688 217Q774 294 774 410L774 497L492 479Q246 464 246 306Q246 231 307 186Q367 141 469 141Z"  horiz-adv-x="1062" vert-adv-y="2048"  />

      
      <glyph glyph-name="uni0106" unicode="&#x0106;" d="M733-24Q434-24 259 178Q83 379 83 722Q83 1062 260 1264Q437 1467 733 1467Q969 1467 1133 1336Q1298 1204 1332 988L1150 988Q1115 1130 1002 1215Q887 1301 733 1301Q522 1301 395 1143Q268 985 268 722Q268 456 394 299Q520 142 734 142Q893 142 1002 215Q1111 288 1150 420L1332 420Q1282 206 1127 91Q972-24 733-24M662 1552L893 1851L1091 1851L810 1552L662 1552Z"  horiz-adv-x="1405" vert-adv-y="2048"  />

      
      <glyph glyph-name="uni0107" unicode="&#x0107;" d="M837 727Q820 818 750 873Q674 933 557 933Q415 933 329 825Q241 717 241 539Q241 357 330 250Q416 145 559 145Q793 145 839 345L1010 345Q988 186 865 89Q741-10 558-10Q334-10 200 137Q64 287 64 539Q64 787 199 938Q334 1088 556 1088Q747 1088 874 978Q991 877 1008 727L837 727M482 1250L693 1550L891 1550L630 1250L482 1250Z"  horiz-adv-x="1060" vert-adv-y="2048"  />

      
      <glyph glyph-name="uni0108" unicode="&#x0108;" d="M733-24Q434-24 259 178Q83 379 83 722Q83 1062 260 1264Q437 1467 733 1467Q969 1467 1133 1336Q1298 1204 1332 988L1150 988Q1115 1130 1002 1215Q887 1301 733 1301Q522 1301 395 1143Q268 985 268 722Q268 456 394 299Q520 142 734 142Q893 142 1002 215Q1111 288 1150 420L1332 420Q1282 206 1127 91Q972-24 733-24M804 1851L1096 1552L928 1552L734 1753L732 1753L538 1552L370 1552L662 1851L804 1851Z"  horiz-adv-x="1405" vert-adv-y="2048"  />

      
      <glyph glyph-name="uni0109" unicode="&#x0109;" d="M837 727Q820 818 750 873Q674 933 557 933Q415 933 329 825Q241 717 241 539Q241 357 330 250Q416 145 559 145Q793 145 839 345L1010 345Q988 186 865 89Q741-10 558-10Q334-10 200 137Q64 287 64 539Q64 787 199 938Q334 1088 556 1088Q747 1088 874 978Q991 877 1008 727L837 727M895 1250L732 1250L559 1447L553 1447L380 1250L217 1250L494 1550L618 1550L895 1250Z"  horiz-adv-x="1060" vert-adv-y="2048"  />

      
      <glyph glyph-name="uni010A" unicode="&#x010A;" d="M733-24Q434-24 259 178Q83 379 83 722Q83 1062 260 1264Q437 1467 733 1467Q969 1467 1133 1336Q1298 1204 1332 988L1150 988Q1115 1130 1002 1215Q887 1301 733 1301Q522 1301 395 1143Q268 985 268 722Q268 456 394 299Q520 142 734 142Q893 142 1002 215Q1111 288 1150 420L1332 420Q1282 206 1127 91Q972-24 733-24M733 1587Q683 1587 647 1622Q612 1658 612 1708Q612 1758 647 1794Q683 1829 733 1829Q783 1829 819 1794Q854 1758 854 1708Q854 1658 819 1622Q783 1587 733 1587Z"  horiz-adv-x="1405" vert-adv-y="2048"  />

      
      <glyph glyph-name="uni010B" unicode="&#x010B;" d="M837 727Q820 818 750 873Q674 933 557 933Q415 933 329 825Q241 717 241 539Q241 357 330 250Q416 145 559 145Q793 145 839 345L1010 345Q988 186 865 89Q741-10 558-10Q334-10 200 137Q64 287 64 539Q64 787 199 938Q334 1088 556 1088Q747 1088 874 978Q991 877 1008 727L837 727M556 1261Q505 1261 469 1298Q432 1334 432 1385Q432 1436 469 1473Q505 1509 556 1509Q607 1509 644 1473Q680 1436 680 1385Q680 1334 644 1298Q607 1261 556 1261Z"  horiz-adv-x="1060" vert-adv-y="2048"  />

      
      <glyph glyph-name="uni010C" unicode="&#x010C;" d="M733-24Q434-24 259 178Q83 379 83 722Q83 1062 260 1264Q437 1467 733 1467Q969 1467 1133 1336Q1298 1204 1332 988L1150 988Q1115 1130 1002 1215Q887 1301 733 1301Q522 1301 395 1143Q268 985 268 722Q268 456 394 299Q520 142 734 142Q893 142 1002 215Q1111 288 1150 420L1332 420Q1282 206 1127 91Q972-24 733-24M370 1851L538 1851L732 1650L734 1650L928 1851L1096 1851L804 1552L662 1552L370 1851Z"  horiz-adv-x="1405" vert-adv-y="2048"  />

      
      <glyph glyph-name="uni010D" unicode="&#x010D;" d="M837 727Q820 818 750 873Q674 933 557 933Q415 933 329 825Q241 717 241 539Q241 357 330 250Q416 145 559 145Q793 145 839 345L1010 345Q988 186 865 89Q741-10 558-10Q334-10 200 137Q64 287 64 539Q64 787 199 938Q334 1088 556 1088Q747 1088 874 978Q991 877 1008 727L837 727M494 1250L217 1550L380 1550L553 1353L559 1353L732 1550L895 1550L618 1250L494 1250Z"  horiz-adv-x="1060" vert-adv-y="2048"  />

      
      <glyph glyph-name="uni010E" unicode="&#x010E;" d="M634 1443Q955 1443 1135 1253Q1315 1062 1315 722Q1315 381 1135 190Q956 0 634 0L139 0L139 1443L634 1443M319 162L622 162Q867 162 999 307Q1131 451 1131 720Q1131 991 1000 1136Q868 1281 622 1281L319 1281L319 162M186 1849L354 1849L548 1648L550 1648L744 1849L912 1849L620 1550L478 1550L186 1849Z"  horiz-adv-x="1399" vert-adv-y="2048"  />

      
      <glyph glyph-name="uni010F" unicode="&#x010F;" d="M1335 1506L1305 1018L1195 1018L1195 1506L1335 1506M526-10Q322-10 193 141Q64 293 64 539Q64 784 193 937Q320 1088 522 1088Q763 1088 866 903L870 903L870 1506L1044 1506L1044 0L878 0L878 182L875 182Q767-10 526-10M557 933Q415 933 329 825Q242 717 242 539Q242 360 329 252Q415 145 557 145Q697 145 784 254Q871 363 871 539Q871 715 784 824Q697 933 557 933Z"  horiz-adv-x="1307" vert-adv-y="2048"  />

      
      <glyph glyph-name="uni0110" unicode="&#x0110;" d="M701 162Q946 162 1078 307Q1210 451 1210 720Q1210 991 1079 1136Q947 1281 701 1281L398 1281L398 826L675 826L675 663L398 663L398 162L701 162M713 1443Q1034 1443 1214 1253Q1394 1062 1394 722Q1394 381 1214 190Q1035 0 713 0L218 0L218 663L89 663L89 826L218 826L218 1443L713 1443Z"  horiz-adv-x="1531" vert-adv-y="2048"  />

      
      <glyph glyph-name="uni0111" unicode="&#x0111;" d="M576 136Q723 136 808 244Q893 352 893 539Q893 724 808 833Q722 942 576 942Q429 942 345 835Q261 728 261 539Q261 350 345 243Q429 136 576 136M1185 1287L1061 1287L1061 0L897 0L897 172L881 172Q773-19 536-19Q329-19 206 133Q83 285 83 539Q83 792 207 945Q330 1097 536 1097Q649 1097 740 1046Q829 996 874 908L889 908L889 1287L629 1287L629 1411L889 1411L889 1564L1061 1564L1061 1411L1185 1411L1185 1287Z"  horiz-adv-x="1210" vert-adv-y="2048"  />

      
      <glyph glyph-name="uni0112" unicode="&#x0112;" d="M1033 0L139 0L139 1443L1033 1443L1033 1281L319 1281L319 818L996 818L996 658L319 658L319 162L1033 162L1033 0M903 1642L269 1642L269 1748L903 1748L903 1642Z"  horiz-adv-x="1131" vert-adv-y="2048"  />

      
      <glyph glyph-name="uni0113" unicode="&#x0113;" d="M547 935Q420 935 337 851Q253 767 244 630L837 630Q834 767 754 851Q675 935 547 935M1005 308Q983 169 857 80Q731-10 558-10Q331-10 197 137Q64 284 64 535Q64 786 197 937Q330 1088 550 1088Q766 1088 892 946Q1018 803 1018 559L1018 491L244 491L244 481Q244 327 331 235Q418 143 562 143Q663 143 737 188Q810 232 833 308L1005 308M867 1320L233 1320L233 1426L867 1426L867 1320Z"  horiz-adv-x="1084" vert-adv-y="2048"  />

      
      <glyph glyph-name="uni0114" unicode="&#x0114;" d="M1033 0L139 0L139 1443L1033 1443L1033 1281L319 1281L319 818L996 818L996 658L319 658L319 162L1033 162L1033 0M395 1849Q395 1766 450 1710Q505 1653 586 1653Q667 1653 722 1710Q777 1766 777 1849L896 1849Q896 1717 810 1634Q723 1550 586 1550Q449 1550 362 1634Q276 1717 276 1849L395 1849Z"  horiz-adv-x="1131" vert-adv-y="2048"  />

      
      <glyph glyph-name="uni0115" unicode="&#x0115;" d="M547 935Q420 935 337 851Q253 767 244 630L837 630Q834 767 754 851Q675 935 547 935M1005 308Q983 169 857 80Q731-10 558-10Q331-10 197 137Q64 284 64 535Q64 786 197 937Q330 1088 550 1088Q766 1088 892 946Q1018 803 1018 559L1018 491L244 491L244 481Q244 327 331 235Q418 143 562 143Q663 143 737 188Q810 232 833 308L1005 308M350 1550Q350 1464 408 1406Q465 1347 549 1347Q633 1347 691 1406Q748 1464 748 1550L871 1550Q871 1412 782 1326Q692 1240 549 1240Q406 1240 316 1326Q227 1412 227 1550L350 1550Z"  horiz-adv-x="1084" vert-adv-y="2048"  />

      
      <glyph glyph-name="uni0116" unicode="&#x0116;" d="M1033 0L139 0L139 1443L1033 1443L1033 1281L319 1281L319 818L996 818L996 658L319 658L319 162L1033 162L1033 0M586 1585Q536 1585 500 1620Q465 1656 465 1706Q465 1756 500 1792Q536 1827 586 1827Q636 1827 672 1792Q707 1756 707 1706Q707 1656 672 1620Q636 1585 586 1585Z"  horiz-adv-x="1131" vert-adv-y="2048"  />

      
      <glyph glyph-name="uni0117" unicode="&#x0117;" d="M547 935Q420 935 337 851Q253 767 244 630L837 630Q834 767 754 851Q675 935 547 935M1005 308Q983 169 857 80Q731-10 558-10Q331-10 197 137Q64 284 64 535Q64 786 197 937Q330 1088 550 1088Q766 1088 892 946Q1018 803 1018 559L1018 491L244 491L244 481Q244 327 331 235Q418 143 562 143Q663 143 737 188Q810 232 833 308L1005 308M550 1261Q499 1261 463 1298Q426 1334 426 1385Q426 1436 463 1473Q499 1509 550 1509Q601 1509 638 1473Q674 1436 674 1385Q674 1334 638 1298Q601 1261 550 1261Z"  horiz-adv-x="1084" vert-adv-y="2048"  />

      
      <glyph glyph-name="uni0118" unicode="&#x0118;" d="M139 0L139 1443L1033 1443L1033 1281L319 1281L319 818L996 818L996 658L319 658L319 162L1033 162L1033 38Q836-51 836-186Q836-236 870-267Q903-298 958-298Q1009-298 1033-289L1033-412Q1000-432 912-432Q803-432 737-373Q671-315 671-218Q671-95 793 0L139 0Z"  horiz-adv-x="1131" vert-adv-y="2048"  />

      
      <glyph glyph-name="uni0119" unicode="&#x0119;" d="M755-432Q658-432 593-370Q529-308 529-215Q529-108 629-9L629-6Q604-10 558-10Q331-10 197 137Q64 284 64 535Q64 786 197 937Q330 1088 550 1088Q766 1088 892 946Q1018 803 1018 559L1018 491L244 491L244 481Q244 327 331 235Q418 143 562 143Q663 143 737 188Q810 232 833 308L1005 308Q986 182 825 41Q686-81 686-182Q686-229 718-260Q751-290 801-290Q849-290 876-281L876-412Q844-432 755-432M547 935Q420 935 337 851Q253 767 244 630L837 630Q834 767 754 851Q675 935 547 935Z"  horiz-adv-x="1084" vert-adv-y="2048"  />

      
      <glyph glyph-name="uni011A" unicode="&#x011A;" d="M1033 0L139 0L139 1443L1033 1443L1033 1281L319 1281L319 818L996 818L996 658L319 658L319 162L1033 162L1033 0M223 1849L391 1849L585 1648L587 1648L781 1849L949 1849L657 1550L515 1550L223 1849Z"  horiz-adv-x="1131" vert-adv-y="2048"  />

      
      <glyph glyph-name="uni011B" unicode="&#x011B;" d="M547 935Q420 935 337 851Q253 767 244 630L837 630Q834 767 754 851Q675 935 547 935M1005 308Q983 169 857 80Q731-10 558-10Q331-10 197 137Q64 284 64 535Q64 786 197 937Q330 1088 550 1088Q766 1088 892 946Q1018 803 1018 559L1018 491L244 491L244 481Q244 327 331 235Q418 143 562 143Q663 143 737 188Q810 232 833 308L1005 308M488 1250L211 1550L374 1550L547 1353L553 1353L726 1550L889 1550L612 1250L488 1250Z"  horiz-adv-x="1084" vert-adv-y="2048"  />

      
      <glyph glyph-name="uni011C" unicode="&#x011C;" d="M1356 597Q1356 304 1194 140Q1033-24 744-24Q442-24 262 180Q83 385 83 729Q83 1067 262 1267Q441 1467 744 1467Q978 1467 1142 1339Q1307 1210 1347 995L1158 995Q1113 1141 1005 1221Q896 1301 744 1301Q521 1301 395 1149Q268 998 268 730Q268 458 396 300Q524 142 744 142Q936 142 1056 255Q1176 369 1176 550L1176 576L769 576L769 734L1356 734L1356 597M815 1849L1107 1550L939 1550L745 1751L743 1751L549 1550L381 1550L673 1849L815 1849Z"  horiz-adv-x="1447" vert-adv-y="2048"  />

      
      <glyph glyph-name="uni011D" unicode="&#x011D;" d="M553 155Q695 155 782 262Q870 370 870 543Q870 717 782 825Q695 933 553 933Q412 933 327 827Q242 720 242 543Q242 367 327 261Q412 155 553 155M556-385Q373-385 251-304Q129-222 110-88L291-88Q310-155 385-195Q459-234 566-234Q706-234 788-166Q870-99 870 16L870 185L866 185Q758 0 520 0Q315 0 190 149Q64 299 64 543Q64 790 190 939Q316 1088 524 1088Q762 1088 875 903L878 903L878 1078L1044 1078L1044 30Q1044-163 914-274Q783-385 556-385M893 1250L730 1250L557 1447L551 1447L378 1250L215 1250L492 1550L616 1550L893 1250Z"  horiz-adv-x="1163" vert-adv-y="2048"  />

      
      <glyph glyph-name="uni011E" unicode="&#x011E;" d="M1356 597Q1356 304 1194 140Q1033-24 744-24Q442-24 262 180Q83 385 83 729Q83 1067 262 1267Q441 1467 744 1467Q978 1467 1142 1339Q1307 1210 1347 995L1158 995Q1113 1141 1005 1221Q896 1301 744 1301Q521 1301 395 1149Q268 998 268 730Q268 458 396 300Q524 142 744 142Q936 142 1056 255Q1176 369 1176 550L1176 576L769 576L769 734L1356 734L1356 597M553 1849Q553 1766 608 1710Q663 1653 744 1653Q825 1653 880 1710Q935 1766 935 1849L1054 1849Q1054 1717 968 1634Q881 1550 744 1550Q607 1550 520 1634Q434 1717 434 1849L553 1849Z"  horiz-adv-x="1447" vert-adv-y="2048"  />

      
      <glyph glyph-name="uni011F" unicode="&#x011F;" d="M553 155Q695 155 782 262Q870 370 870 543Q870 717 782 825Q695 933 553 933Q412 933 327 827Q242 720 242 543Q242 367 327 261Q412 155 553 155M556-385Q373-385 251-304Q129-222 110-88L291-88Q310-155 385-195Q459-234 566-234Q706-234 788-166Q870-99 870 16L870 185L866 185Q758 0 520 0Q315 0 190 149Q64 299 64 543Q64 790 190 939Q316 1088 524 1088Q762 1088 875 903L878 903L878 1078L1044 1078L1044 30Q1044-163 914-274Q783-385 556-385M354 1550Q354 1464 412 1406Q469 1347 553 1347Q637 1347 695 1406Q752 1464 752 1550L875 1550Q875 1412 786 1326Q696 1240 553 1240Q410 1240 320 1326Q231 1412 231 1550L354 1550Z"  horiz-adv-x="1163" vert-adv-y="2048"  />

      
      <glyph glyph-name="uni0120" unicode="&#x0120;" d="M1356 597Q1356 304 1194 140Q1033-24 744-24Q442-24 262 180Q83 385 83 729Q83 1067 262 1267Q441 1467 744 1467Q978 1467 1142 1339Q1307 1210 1347 995L1158 995Q1113 1141 1005 1221Q896 1301 744 1301Q521 1301 395 1149Q268 998 268 730Q268 458 396 300Q524 142 744 142Q936 142 1056 255Q1176 369 1176 550L1176 576L769 576L769 734L1356 734L1356 597M744 1585Q694 1585 658 1620Q623 1656 623 1706Q623 1756 658 1792Q694 1827 744 1827Q794 1827 830 1792Q865 1756 865 1706Q865 1656 830 1620Q794 1585 744 1585Z"  horiz-adv-x="1447" vert-adv-y="2048"  />

      
      <glyph glyph-name="uni0121" unicode="&#x0121;" d="M553 155Q695 155 782 262Q870 370 870 543Q870 717 782 825Q695 933 553 933Q412 933 327 827Q242 720 242 543Q242 367 327 261Q412 155 553 155M556-385Q373-385 251-304Q129-222 110-88L291-88Q310-155 385-195Q459-234 566-234Q706-234 788-166Q870-99 870 16L870 185L866 185Q758 0 520 0Q315 0 190 149Q64 299 64 543Q64 790 190 939Q316 1088 524 1088Q762 1088 875 903L878 903L878 1078L1044 1078L1044 30Q1044-163 914-274Q783-385 556-385M554 1261Q503 1261 467 1298Q430 1334 430 1385Q430 1436 467 1473Q503 1509 554 1509Q605 1509 642 1473Q678 1436 678 1385Q678 1334 642 1298Q605 1261 554 1261Z"  horiz-adv-x="1163" vert-adv-y="2048"  />

      
      <glyph glyph-name="uni0122" unicode="&#x0122;" d="M1356 597Q1356 304 1194 140Q1033-24 744-24Q442-24 262 180Q83 385 83 729Q83 1067 262 1267Q441 1467 744 1467Q978 1467 1142 1339Q1307 1210 1347 995L1158 995Q1113 1141 1005 1221Q896 1301 744 1301Q521 1301 395 1149Q268 998 268 730Q268 458 396 300Q524 142 744 142Q936 142 1056 255Q1176 369 1176 550L1176 576L769 576L769 734L1356 734L1356 597M603-541L694-172L847-172L729-541L603-541Z"  horiz-adv-x="1447" vert-adv-y="2048"  />

      
      <glyph glyph-name="uni0123" unicode="&#x0123;" d="M553 155Q695 155 782 262Q870 370 870 543Q870 717 782 825Q695 933 553 933Q412 933 327 827Q242 720 242 543Q242 367 327 261Q412 155 553 155M556-385Q373-385 251-304Q129-222 110-88L291-88Q310-155 385-195Q459-234 566-234Q706-234 788-166Q870-99 870 16L870 185L866 185Q758 0 520 0Q315 0 190 149Q64 299 64 543Q64 790 190 939Q316 1088 524 1088Q762 1088 875 903L878 903L878 1078L1044 1078L1044 30Q1044-163 914-274Q783-385 556-385M415-908L506-539L659-539L541-908L415-908Z"  horiz-adv-x="1163" vert-adv-y="2048"  />

      
      <glyph glyph-name="uni0124" unicode="&#x0124;" d="M1111 0L1111 657L319 657L319 0L139 0L139 1443L319 1443L319 819L1111 819L1111 1443L1291 1443L1291 0L1111 0M786 1849L1078 1550L910 1550L716 1751L714 1751L520 1550L352 1550L644 1849L786 1849Z"  horiz-adv-x="1432" vert-adv-y="2048"  />

      
      <glyph glyph-name="uni0125" unicode="&#x0125;" d="M128 1506L302 1506L302 903L306 903Q408 1088 658 1088Q835 1088 944 978Q1053 868 1053 688L1053 0L879 0L879 657Q879 786 807 860Q734 933 606 933Q469 933 386 847Q302 761 302 620L302 0L128 0L128 1506M287 1912L579 1613L411 1613L217 1814L215 1814L21 1613L-147 1613L145 1912L287 1912Z"  horiz-adv-x="1166" vert-adv-y="2048"  />

      
      <glyph glyph-name="uni0126" unicode="&#x0126;" d="M1112 1075L320 1075L320 819L1112 819L1112 1075M1428 1075L1292 1075L1292 0L1112 0L1112 657L320 657L320 0L140 0L140 1075L5 1075L5 1218L140 1218L140 1443L320 1443L320 1218L1112 1218L1112 1443L1292 1443L1292 1218L1428 1218L1428 1075Z"  horiz-adv-x="1433" vert-adv-y="2048"  />

      
      <glyph glyph-name="uni0127" unicode="&#x0127;" d="M323 903Q425 1088 675 1088Q852 1088 961 978Q1070 868 1070 688L1070 0L896 0L896 657Q896 786 824 860Q751 933 623 933Q486 933 403 847Q319 761 319 620L319 0L145 0L145 1247L23 1247L23 1371L145 1371L145 1556L319 1556L319 1371L579 1371L579 1247L319 1247L319 903L323 903Z"  horiz-adv-x="1204" vert-adv-y="2048"  />

      
      <glyph glyph-name="uni0128" unicode="&#x0128;" d="M140 0L140 1443L320 1443L320 0L140 0M358 1535Q287 1535 215 1611Q142 1687 109 1687Q40 1687 40 1550L-74 1550Q-74 1668-27 1734Q20 1800 104 1800Q181 1800 255 1724Q329 1648 358 1648Q420 1648 420 1786L534 1786Q534 1671 486 1603Q438 1535 358 1535Z"  horiz-adv-x="460" vert-adv-y="2048"  />

      
      <glyph glyph-name="uni0129" unicode="&#x0129;" d="M128 1078L302 1078L302 0L128 0L128 1078M347 1258Q276 1258 204 1334Q131 1410 98 1410Q29 1410 29 1273L-85 1273Q-85 1391-38 1457Q9 1523 93 1523Q170 1523 244 1447Q318 1371 347 1371Q409 1371 409 1509L523 1509Q523 1394 475 1326Q427 1258 347 1258Z"  horiz-adv-x="430" vert-adv-y="2048"  />

      
      <glyph glyph-name="uni012A" unicode="&#x012A;" d="M140 0L140 1443L320 1443L320 0L140 0M547 1642L-87 1642L-87 1748L547 1748L547 1642Z"  horiz-adv-x="460" vert-adv-y="2048"  />

      
      <glyph glyph-name="uni012B" unicode="&#x012B;" d="M128 1078L302 1078L302 0L128 0L128 1078M532 1320L-102 1320L-102 1426L532 1426L532 1320Z"  horiz-adv-x="430" vert-adv-y="2048"  />

      
      <glyph glyph-name="uni012C" unicode="&#x012C;" d="M140 0L140 1443L320 1443L320 0L140 0M39 1849Q39 1766 94 1710Q149 1653 230 1653Q311 1653 366 1710Q421 1766 421 1849L540 1849Q540 1717 454 1634Q367 1550 230 1550Q93 1550 6 1634Q-80 1717-80 1849L39 1849Z"  horiz-adv-x="460" vert-adv-y="2048"  />

      
      <glyph glyph-name="uni012D" unicode="&#x012D;" d="M128 1078L302 1078L302 0L128 0L128 1078M15 1550Q15 1464 73 1406Q130 1347 214 1347Q298 1347 356 1406Q413 1464 413 1550L536 1550Q536 1412 447 1326Q357 1240 214 1240Q71 1240-19 1326Q-108 1412-108 1550L15 1550Z"  horiz-adv-x="430" vert-adv-y="2048"  />

      
      <glyph glyph-name="uni012E" unicode="&#x012E;" d="M228-432Q124-432 61-373Q-3-314-3-217Q-3-75 140 23L140 1443L320 1443L320 13Q154-61 154-180Q154-234 186-266Q219-298 272-298Q298-298 316-295L316-421Q274-432 228-432Z"  horiz-adv-x="460" vert-adv-y="2048"  />

      
      <glyph glyph-name="uni012F" unicode="&#x012F;" d="M215 1252Q170 1252 138 1285Q105 1317 105 1362Q105 1408 138 1440Q170 1472 215 1472Q261 1472 293 1440Q325 1408 325 1362Q325 1317 293 1285Q261 1252 215 1252M213-432Q109-432 46-373Q-18-314-18-217Q-18-65 128 23L128 1078L302 1078L302 19Q139-54 139-180Q139-234 171-266Q204-298 257-298Q283-298 301-295L301-421Q260-432 213-432Z"  horiz-adv-x="430" vert-adv-y="2048"  />

      
      <glyph glyph-name="uni0130" unicode="&#x0130;" d="M139 0L139 1443L319 1443L319 0L139 0M229 1585Q179 1585 143 1620Q108 1656 108 1706Q108 1756 143 1792Q179 1827 229 1827Q279 1827 315 1792Q350 1756 350 1706Q350 1656 315 1620Q279 1585 229 1585Z"  horiz-adv-x="460" vert-adv-y="2048"  />

      
      <glyph glyph-name="uni0131" unicode="&#x0131;" d="M127 1078L301 1078L301 0L127 0L127 1078Z"  horiz-adv-x="430" vert-adv-y="2048"  />

      
      <glyph glyph-name="uni0132" unicode="&#x0132;" d="M139 0L139 1443L319 1443L319 0L139 0M680 339Q683 247 746 190Q810 132 908 132Q1027 132 1090 202Q1153 271 1153 403L1153 1443L1333 1443L1333 402Q1333 197 1221 81Q1109-34 909-34Q729-34 615 70Q501 175 501 339L680 339Z"  horiz-adv-x="1474" vert-adv-y="2048"  />

      
      <glyph glyph-name="uni0133" unicode="&#x0133;" d="M127 1078L301 1078L301 0L127 0L127 1078M214 1252Q169 1252 137 1285Q104 1317 104 1362Q104 1408 137 1440Q169 1472 214 1472Q260 1472 292 1440Q324 1408 324 1362Q324 1317 292 1285Q260 1252 214 1252M731-81Q731-245 651-322Q572-398 400-398L369-398L369-251L396-251Q484-251 521-213Q557-176 557-84L557 1078L731 1078L731-81M644 1252Q599 1252 567 1285Q534 1317 534 1362Q534 1408 567 1440Q599 1472 644 1472Q690 1472 722 1440Q754 1408 754 1362Q754 1317 722 1285Q690 1252 644 1252Z"  horiz-adv-x="860" vert-adv-y="2048"  />

      
      <glyph glyph-name="uni0134" unicode="&#x0134;" d="M220 339Q223 247 286 190Q350 132 448 132Q567 132 630 202Q693 271 693 403L693 1443L873 1443L873 402Q873 197 761 81Q649-34 449-34Q269-34 155 70Q41 175 41 339L220 339M854 1849L1146 1550L978 1550L784 1751L782 1751L588 1550L420 1550L712 1849L854 1849Z"  horiz-adv-x="1014" vert-adv-y="2048"  />

      
      <glyph glyph-name="uni0135" unicode="&#x0135;" d="M300-81Q300-246 221-322Q142-398-30-398L-60-398L-60-251L-34-251Q55-251 92-213Q128-176 128-84L128 1078L300 1078L300-81M553 1250L390 1250L217 1447L211 1447L38 1250L-125 1250L152 1550L276 1550L553 1250Z"  horiz-adv-x="428" vert-adv-y="2048"  />

      
      <glyph glyph-name="uni0136" unicode="&#x0136;" d="M139 0L139 1443L319 1443L319 739L329 739L966 1443L1193 1443L600 804L1246 0L1016 0L475 676L319 504L319 0L139 0M467-541L558-172L711-172L593-541L467-541Z"  horiz-adv-x="1260" vert-adv-y="2048"  />

      
      <glyph glyph-name="uni0137" unicode="&#x0137;" d="M784 1078L996 1078L525 612L1010 0L808 0L403 505L301 409L301 0L127 0L127 1506L301 1506L301 596L784 1078M414-541L505-172L658-172L540-541L414-541Z"  horiz-adv-x="1026" vert-adv-y="2048"  />

      
      <glyph glyph-name="uni0139" unicode="&#x0139;" d="M1015 0L139 0L139 1443L319 1443L319 162L1015 162L1015 0M158 1550L389 1849L587 1849L306 1550L158 1550Z"  horiz-adv-x="1074" vert-adv-y="2048"  />

      
      <glyph glyph-name="uni013A" unicode="&#x013A;" d="M127 1506L301 1506L301 0L127 0L127 1506M143 1613L374 1912L572 1912L291 1613L143 1613Z"  horiz-adv-x="430" vert-adv-y="2048"  />

      
      <glyph glyph-name="uni013B" unicode="&#x013B;" d="M1015 0L139 0L139 1443L319 1443L319 162L1015 162L1015 0M436-541L527-172L680-172L562-541L436-541Z"  horiz-adv-x="1074" vert-adv-y="2048"  />

      
      <glyph glyph-name="uni013C" unicode="&#x013C;" d="M127 1506L301 1506L301 0L127 0L127 1506M73-541L164-172L317-172L199-541L73-541Z"  horiz-adv-x="430" vert-adv-y="2048"  />

      
      <glyph glyph-name="uni013D" unicode="&#x013D;" d="M758 1443L708 955L588 955L588 1443L758 1443M1015 0L139 0L139 1443L319 1443L319 162L1015 162L1015 0Z"  horiz-adv-x="1074" vert-adv-y="2048"  />

      
      <glyph glyph-name="uni013E" unicode="&#x013E;" d="M592 1506L562 1018L452 1018L452 1506L592 1506M127 1506L301 1506L301 0L127 0L127 1506Z"  horiz-adv-x="565" vert-adv-y="2048"  />

      
      <glyph glyph-name="uni0141" unicode="&#x0141;" d="M1015 162L1015 0L139 0L139 699L17 643L17 786L139 842L139 1443L319 1443L319 924L655 1077L655 934L319 781L319 162L1015 162Z"  horiz-adv-x="1074" vert-adv-y="2048"  />

      
      <glyph glyph-name="uni0142" unicode="&#x0142;" d="M443 851L301 783L301 0L127 0L127 700L15 646L15 789L127 843L127 1506L301 1506L301 926L443 994L443 851Z"  horiz-adv-x="468" vert-adv-y="2048"  />

      
      <glyph glyph-name="uni0143" unicode="&#x0143;" d="M139 0L139 1443L314 1443L1104 310L1113 310L1113 1443L1291 1443L1291 0L1116 0L326 1129L317 1129L317 0L139 0M644 1550L875 1849L1073 1849L792 1550L644 1550Z"  horiz-adv-x="1432" vert-adv-y="2048"  />

      
      <glyph glyph-name="uni0144" unicode="&#x0144;" d="M117 1078L281 1078L281 903L285 903Q388 1088 637 1088Q815 1088 918 981Q1021 875 1021 691L1021 0L847 0L847 661Q847 793 780 863Q712 933 585 933Q452 933 372 849Q291 765 291 626L291 0L117 0L117 1078M495 1250L706 1550L904 1550L643 1250L495 1250Z"  horiz-adv-x="1135" vert-adv-y="2048"  />

      
      <glyph glyph-name="uni0145" unicode="&#x0145;" d="M139 0L139 1443L314 1443L1104 310L1113 310L1113 1443L1291 1443L1291 0L1116 0L326 1129L317 1129L317 0L139 0M574-541L665-172L818-172L700-541L574-541Z"  horiz-adv-x="1432" vert-adv-y="2048"  />

      
      <glyph glyph-name="uni0146" unicode="&#x0146;" d="M117 1078L281 1078L281 903L285 903Q388 1088 637 1088Q815 1088 918 981Q1021 875 1021 691L1021 0L847 0L847 661Q847 793 780 863Q712 933 585 933Q452 933 372 849Q291 765 291 626L291 0L117 0L117 1078M428-541L519-172L672-172L554-541L428-541Z"  horiz-adv-x="1135" vert-adv-y="2048"  />

      
      <glyph glyph-name="uni0147" unicode="&#x0147;" d="M139 0L139 1443L314 1443L1104 310L1113 310L1113 1443L1291 1443L1291 0L1116 0L326 1129L317 1129L317 0L139 0M352 1849L520 1849L714 1648L716 1648L910 1849L1078 1849L786 1550L644 1550L352 1849Z"  horiz-adv-x="1432" vert-adv-y="2048"  />

      
      <glyph glyph-name="uni0148" unicode="&#x0148;" d="M117 1078L281 1078L281 903L285 903Q388 1088 637 1088Q815 1088 918 981Q1021 875 1021 691L1021 0L847 0L847 661Q847 793 780 863Q712 933 585 933Q452 933 372 849Q291 765 291 626L291 0L117 0L117 1078M507 1250L230 1550L393 1550L566 1353L572 1353L745 1550L908 1550L631 1250L507 1250Z"  horiz-adv-x="1135" vert-adv-y="2048"  />

      
      <glyph glyph-name="uni014C" unicode="&#x014C;" d="M748 1467Q1055 1467 1234 1266Q1413 1065 1413 721Q1413 377 1234 177Q1055-24 748-24Q441-24 262 177Q83 377 83 721Q83 1065 262 1266Q441 1467 748 1467M748 1301Q527 1301 397 1145Q268 988 268 721Q268 455 397 298Q527 142 748 142Q969 142 1099 298Q1228 455 1228 721Q1228 988 1099 1145Q969 1301 748 1301M1065 1642L431 1642L431 1748L1065 1748L1065 1642Z"  horiz-adv-x="1498" vert-adv-y="2048"  />

      
      <glyph glyph-name="uni014D" unicode="&#x014D;" d="M561-10Q334-10 199 139Q64 288 64 539Q64 790 199 939Q334 1088 561 1088Q788 1088 923 939Q1058 790 1058 539Q1058 288 923 139Q788-10 561-10M561 145Q712 145 796 249Q881 354 881 539Q881 725 796 829Q712 933 561 933Q410 933 326 829Q241 724 241 539Q241 354 326 249Q411 145 561 145M878 1320L244 1320L244 1426L878 1426L878 1320Z"  horiz-adv-x="1124" vert-adv-y="2048"  />

      
      <glyph glyph-name="uni014E" unicode="&#x014E;" d="M748 1467Q1055 1467 1234 1266Q1413 1065 1413 721Q1413 377 1234 177Q1055-24 748-24Q441-24 262 177Q83 377 83 721Q83 1065 262 1266Q441 1467 748 1467M748 1301Q527 1301 397 1145Q268 988 268 721Q268 455 397 298Q527 142 748 142Q969 142 1099 298Q1228 455 1228 721Q1228 988 1099 1145Q969 1301 748 1301M557 1849Q557 1766 612 1710Q667 1653 748 1653Q829 1653 884 1710Q939 1766 939 1849L1058 1849Q1058 1717 972 1634Q885 1550 748 1550Q611 1550 524 1634Q438 1717 438 1849L557 1849Z"  horiz-adv-x="1498" vert-adv-y="2048"  />

      
      <glyph glyph-name="uni014F" unicode="&#x014F;" d="M561-10Q334-10 199 139Q64 288 64 539Q64 790 199 939Q334 1088 561 1088Q788 1088 923 939Q1058 790 1058 539Q1058 288 923 139Q788-10 561-10M561 145Q712 145 796 249Q881 354 881 539Q881 725 796 829Q712 933 561 933Q410 933 326 829Q241 724 241 539Q241 354 326 249Q411 145 561 145M361 1550Q361 1464 419 1406Q476 1347 560 1347Q644 1347 702 1406Q759 1464 759 1550L882 1550Q882 1412 793 1326Q703 1240 560 1240Q417 1240 327 1326Q238 1412 238 1550L361 1550Z"  horiz-adv-x="1124" vert-adv-y="2048"  />

      
      <glyph glyph-name="uni0150" unicode="&#x0150;" d="M748 1467Q1055 1467 1234 1266Q1413 1065 1413 721Q1413 377 1234 177Q1055-24 748-24Q441-24 262 177Q83 377 83 721Q83 1065 262 1266Q441 1467 748 1467M748 1301Q527 1301 397 1145Q268 988 268 721Q268 455 397 298Q527 142 748 142Q969 142 1099 298Q1228 455 1228 721Q1228 988 1099 1145Q969 1301 748 1301M834 1550L1065 1849L1253 1849L972 1550L834 1550M524 1550L755 1849L943 1849L662 1550L524 1550Z"  horiz-adv-x="1498" vert-adv-y="2048"  />

      
      <glyph glyph-name="uni0151" unicode="&#x0151;" d="M561-10Q334-10 199 139Q64 288 64 539Q64 790 199 939Q334 1088 561 1088Q788 1088 923 939Q1058 790 1058 539Q1058 288 923 139Q788-10 561-10M561 145Q712 145 796 249Q881 354 881 539Q881 725 796 829Q712 933 561 933Q410 933 326 829Q241 724 241 539Q241 354 326 249Q411 145 561 145M847 1550L1042 1550L787 1250L651 1250L847 1550M531 1550L726 1550L471 1250L335 1250L531 1550Z"  horiz-adv-x="1124" vert-adv-y="2048"  />

      
      <glyph glyph-name="uni0152" unicode="&#x0152;" d="M755 1301Q531 1301 399 1145Q268 988 268 721Q268 455 399 298Q531 142 755 142Q978 142 1110 298Q1241 455 1241 721Q1241 987 1109 1144Q978 1301 755 1301M1244 228Q1087-24 755-24Q445-24 264 177Q83 378 83 721Q83 1065 264 1266Q445 1467 755 1467Q1088 1467 1244 1219L1244 1443L2118 1443L2118 1281L1424 1281L1424 818L2080 818L2080 658L1424 658L1424 162L2118 162L2118 0L1244 0L1244 228Z"  horiz-adv-x="2216" vert-adv-y="2048"  />

      
      </font>
</defs>
</svg>
