<?xml version="1.0" standalone="no"?>
  <!DOCTYPE svg PUBLIC "-//W3C//DTD SVG 1.1//EN" "http://www.w3.org/Graphics/SVG/1.1/DTD/svg11.dtd" >
  <svg>
  <metadata>
  Created by font-carrier
  </metadata>
  <defs>
  <font id="SFUIText-Bold" horiz-adv-x="2924" vert-adv-y="2924" >
    <font-face
      
      font-family="SF UI Text"
      
      font-weight="400"
      
      font-stretch="normal"
      
      units-per-em="2048"
      
      ascent="1950"
      
      descent="-494"
      
    />
      <missing-glyph />

      

      
      <glyph glyph-name="uni21" unicode="&#x21;" d="M524 1443L497 475L230 475L204 1443L524 1443M182 140Q182 219 231 265Q280 311 364 311Q449 311 497 265Q546 220 546 140Q546 61 497 16Q449-30 364-30Q280-30 231 16Q182 61 182 140Z"  horiz-adv-x="730" vert-adv-y="2048"  />

      
      <glyph glyph-name="uni22" unicode="&#x22;" d="M151 831L151 1443L401 1443L401 831L151 831M613 831L613 1443L863 1443L863 831L613 831Z"  horiz-adv-x="1016" vert-adv-y="2048"  />

      
      <glyph glyph-name="uni23" unicode="&#x23;" d="M1041 857L988 605L1197 605L1156 382L946 382L869 0L647 0L724 382L490 382L413 0L192 0L269 382L63 382L105 605L312 605L364 857L159 857L201 1078L407 1078L481 1444L702 1444L628 1078L862 1078L936 1444L1158 1444L1084 1078L1293 1078L1252 857L1041 857M515 585L776 585L837 876L574 876L515 585Z"  horiz-adv-x="1360" vert-adv-y="2048"  />

      
      <glyph glyph-name="uni24" unicode="&#x24;" d="M643-135L643-10Q408 3 275 115Q141 227 140 410L426 410Q431 336 490 285Q550 234 643 224L643 596L538 621Q169 707 169 1024Q169 1208 294 1321Q419 1434 643 1452L643 1588L783 1588L783 1452Q992 1432 1117 1319Q1242 1205 1245 1032L966 1032Q964 1100 913 1151Q862 1202 783 1213L783 857L890 835Q1273 753 1273 431Q1273 240 1145 126Q1018 12 783-8L783-135L643-135M989 397Q989 533 783 571L783 223Q880 229 935 275Q989 321 989 397M459 1052Q459 922 643 886L643 1214Q562 1210 511 1164Q459 1119 459 1052Z"  horiz-adv-x="1415" vert-adv-y="2048"  />

      
      <glyph glyph-name="uni25" unicode="&#x25;" d="M1297 159Q1350 159 1381 206Q1412 253 1412 334Q1412 416 1382 462Q1351 508 1297 508Q1244 508 1213 462Q1182 415 1182 334Q1182 253 1213 206Q1244 159 1297 159M1297-33Q1146-33 1053 68Q960 169 960 333Q960 497 1053 598Q1146 699 1297 699Q1449 699 1542 599Q1635 498 1635 333Q1635 169 1542 68Q1449-33 1297-33M402 744Q251 744 158 845Q64 946 64 1111Q64 1275 157 1375Q251 1476 402 1476Q554 1476 647 1376Q740 1275 740 1111Q740 946 647 845Q554 744 402 744M223 0L768 756L1202 1443L1483 1443L929 681L505 0L223 0M402 936Q455 936 486 983Q517 1030 517 1111Q517 1193 487 1240Q456 1286 402 1286Q349 1286 318 1239Q287 1192 287 1111Q287 1030 318 983Q349 936 402 936Z"  horiz-adv-x="1701" vert-adv-y="2048"  />

      
      <glyph glyph-name="uni26" unicode="&#x26;" d="M1060 117Q890-28 611-28Q381-28 243 82Q106 192 106 377Q106 614 375 762Q378 763 406 779L439 797Q260 980 260 1128Q260 1274 377 1370Q493 1465 671 1465Q848 1465 961 1373Q1074 1280 1074 1134Q1074 915 780 756L1057 469Q1108 559 1108 732L1108 803L1353 803L1353 713Q1353 448 1230 282L1498 0L1171 0L1060 117M534 618Q379 534 379 402Q379 308 452 249Q524 191 641 191Q814 191 907 289L576 638Q560 632 534 618M645 897Q831 990 831 1112Q831 1180 787 1223Q743 1265 672 1265Q601 1265 556 1222Q511 1179 511 1112Q511 1024 645 897Z"  horiz-adv-x="1525" vert-adv-y="2048"  />

      
      <glyph glyph-name="uni27" unicode="&#x27;" d="M151 831L151 1443L401 1443L401 831L151 831Z"  horiz-adv-x="553" vert-adv-y="2048"  />

      
      <glyph glyph-name="uni28" unicode="&#x28;" d="M429-277Q158 63 158 600Q158 1085 438 1443L707 1443Q598 1317 529 1081Q459 844 459 601Q459 151 704-277L429-277Z"  horiz-adv-x="803" vert-adv-y="2048"  />

      
      <glyph glyph-name="uni29" unicode="&#x29;" d="M96-277Q341 151 341 601Q341 845 272 1081Q203 1317 94 1443L363 1443Q643 1085 643 600Q643 65 372-277L96-277Z"  horiz-adv-x="803" vert-adv-y="2048"  />

      
      <glyph glyph-name="uni2a" unicode="&#x2a;" d="M885 965L791 798L575 960L607 694L419 694L451 960L235 798L141 965L396 1065L141 1171L235 1340L452 1166L419 1443L607 1443L574 1166L791 1340L885 1171L630 1065L885 965Z"  horiz-adv-x="1027" vert-adv-y="2048"  />

      
      <glyph glyph-name="uni2b" unicode="&#x2b;" d="M834 46L579 46L579 455L167 455L167 713L579 713L579 1121L834 1121L834 713L1247 713L1247 455L834 455L834 46Z"  horiz-adv-x="1415" vert-adv-y="2048"  />

      
      <glyph glyph-name="uni2c" unicode="&#x2c;" d="M137-388L216 247L504 247L371-388L137-388Z"  horiz-adv-x="722" vert-adv-y="2048"  />

      
      <glyph glyph-name="uni2d" unicode="&#x2d;" d="M167 446L167 719L824 719L824 446L167 446Z"  horiz-adv-x="992" vert-adv-y="2048"  />

      
      <glyph glyph-name="uni2e" unicode="&#x2e;" d="M355-27Q276-27 226 22Q178 71 178 147Q178 223 226 271Q275 320 355 320Q435 320 484 271Q532 224 532 147Q532 70 484 22Q435-27 355-27Z"  horiz-adv-x="712" vert-adv-y="2048"  />

      
      <glyph glyph-name="uni2f" unicode="&#x2f;" d="M41-288L455 1443L729 1443L309-288L41-288Z"  horiz-adv-x="772" vert-adv-y="2048"  />

      
      <glyph glyph-name="uni30" unicode="&#x30;" d="M700-37Q432-37 280 164Q127 366 127 724Q127 1081 280 1281Q432 1480 700 1480Q967 1480 1119 1281Q1273 1080 1273 723Q1273 366 1120 164Q968-37 700-37M700 209Q826 209 896 340Q967 474 967 724Q967 972 895 1105Q826 1233 700 1233Q575 1233 505 1104Q433 971 433 724Q433 475 505 340Q574 209 700 209Z"  horiz-adv-x="1402" vert-adv-y="2048"  />

      
      <glyph glyph-name="uni31" unicode="&#x31;" d="M494 1149L476 1149L122 905L122 1186L495 1443L796 1443L796 0L494 0L494 1149Z"  horiz-adv-x="1051" vert-adv-y="2048"  />

      
      <glyph glyph-name="uni32" unicode="&#x32;" d="M128 1011Q128 1220 274 1350Q420 1480 654 1480Q880 1480 1022 1363Q1165 1245 1165 1059Q1165 941 1091 825Q1017 708 830 532L554 269L554 251L1186 251L1186 0L145 0L145 211L616 672Q768 820 819 895Q870 968 870 1039Q870 1126 807 1182Q743 1237 644 1237Q539 1237 474 1174Q408 1112 408 1012L408 1006L128 1006L128 1011Z"  horiz-adv-x="1318" vert-adv-y="2048"  />

      
      <glyph glyph-name="uni33" unicode="&#x33;" d="M497 851L673 851Q776 851 839 906Q903 961 903 1049Q903 1136 840 1188Q778 1239 672 1239Q567 1239 502 1184Q437 1129 431 1035L152 1035Q160 1240 302 1360Q444 1480 680 1480Q902 1480 1046 1371Q1189 1261 1189 1091Q1189 966 1116 876Q1044 786 923 761L923 743Q1072 726 1158 634Q1245 541 1245 399Q1245 209 1085 86Q925-37 678-37Q437-37 286 86Q135 209 125 413L414 413Q421 321 493 268Q565 214 681 214Q794 214 866 272Q937 330 937 422Q937 517 867 571Q797 626 676 626L497 626L497 851Z"  horiz-adv-x="1370" vert-adv-y="2048"  />

      
      <glyph glyph-name="uni34" unicode="&#x34;" d="M819 252L113 252L113 519Q282 838 684 1443L1107 1443L1107 503L1296 503L1296 252L1107 252L1107 0L819 0L819 252M384 494L826 494L826 1208L810 1208Q579 863 384 510L384 494Z"  horiz-adv-x="1410" vert-adv-y="2048"  />

      
      <glyph glyph-name="uni35" unicode="&#x35;" d="M690-37Q457-37 307 90Q160 214 153 410L432 410Q445 320 517 265Q589 210 692 210Q809 210 881 282Q954 354 954 471Q954 590 881 663Q808 736 693 736Q526 736 446 606L176 606L248 1443L1155 1443L1155 1192L482 1192L450 821L468 821Q566 962 774 962Q979 962 1111 826Q1242 690 1242 478Q1242 248 1090 106Q938-37 690-37Z"  horiz-adv-x="1359" vert-adv-y="2048"  />

      
      <glyph glyph-name="uni36" unicode="&#x36;" d="M721-37Q398-37 245 224Q124 410 124 711Q124 1070 284 1275Q444 1480 726 1480Q932 1480 1077 1369Q1223 1258 1254 1077L955 1077Q934 1148 871 1190Q809 1232 724 1232Q576 1232 492 1099Q407 967 412 742L430 742Q533 955 798 955Q1003 955 1138 819Q1273 683 1273 476Q1273 251 1118 107Q963-37 721-37M718 211Q829 211 905 285Q980 358 980 467Q980 577 906 650Q832 722 719 722Q606 722 531 650Q457 578 457 470Q457 360 532 285Q607 211 718 211Z"  horiz-adv-x="1401" vert-adv-y="2048"  />

      
      <glyph glyph-name="uni37" unicode="&#x37;" d="M823 1176L823 1195L108 1195L108 1444L1125 1444L1125 1192L522 0L206 0L823 1176Z"  horiz-adv-x="1239" vert-adv-y="2048"  />

      
      <glyph glyph-name="uni38" unicode="&#x38;" d="M709-37Q449-37 288 80Q127 197 127 385Q127 521 214 621Q300 722 445 754L445 772Q327 799 256 885Q185 971 185 1086Q185 1259 332 1369Q480 1480 710 1480Q939 1480 1087 1369Q1234 1259 1234 1086Q1234 971 1163 885Q1093 800 974 772L974 754Q1118 727 1206 627Q1293 526 1293 388Q1293 198 1131 81Q969-37 709-37M709 191Q828 191 903 253Q978 315 978 413Q978 512 903 574Q828 636 709 636Q590 636 516 574Q441 512 441 413Q441 315 516 253Q590 191 709 191M709 859Q809 859 873 915Q936 970 936 1057Q936 1145 873 1200Q809 1256 709 1256Q609 1256 546 1200Q483 1145 483 1057Q483 970 546 915Q609 859 709 859Z"  horiz-adv-x="1421" vert-adv-y="2048"  />

      
      <glyph glyph-name="uni39" unicode="&#x39;" d="M673-37Q468-37 322 75Q176 186 145 366L444 366Q465 295 528 253Q590 211 675 211Q823 211 908 344Q992 477 987 702L969 702Q866 489 601 489Q395 489 261 625Q126 760 126 967Q126 1192 281 1336Q436 1480 678 1480Q1000 1480 1154 1220Q1275 1032 1275 733Q1275 373 1115 168Q955-37 673-37M680 722Q793 722 868 794Q942 865 942 974Q942 1084 867 1158Q792 1233 681 1233Q570 1233 495 1159Q419 1085 419 977Q419 866 493 794Q567 722 680 722Z"  horiz-adv-x="1401" vert-adv-y="2048"  />

      
      <glyph glyph-name="uni3a" unicode="&#x3a;" d="M355-27Q276-27 226 22Q178 71 178 147Q178 223 226 271Q275 320 355 320Q435 320 484 271Q532 224 532 147Q532 70 484 22Q435-27 355-27M355 711Q276 711 226 760Q178 809 178 885Q178 961 226 1009Q275 1058 355 1058Q435 1058 484 1009Q532 962 532 885Q532 808 484 760Q435 711 355 711Z"  horiz-adv-x="712" vert-adv-y="2048"  />

      
      <glyph glyph-name="uni3b" unicode="&#x3b;" d="M137-388L216 247L504 247L371-388L137-388M355 711Q276 711 226 760Q178 809 178 885Q178 961 226 1009Q275 1058 355 1058Q435 1058 484 1009Q532 962 532 885Q532 808 484 760Q435 711 355 711Z"  horiz-adv-x="712" vert-adv-y="2048"  />

      
      <glyph glyph-name="uni3c" unicode="&#x3c;" d="M1183-22L230 474L230 709L1183 1205L1183 904L526 601L526 582L1183 279L1183-22Z"  horiz-adv-x="1415" vert-adv-y="2048"  />

      
      <glyph glyph-name="uni3d" unicode="&#x3d;" d="M170 216L170 475L1243 475L1243 216L170 216M170 695L170 954L1243 954L1243 695L170 695Z"  horiz-adv-x="1415" vert-adv-y="2048"  />

      
      <glyph glyph-name="uni3e" unicode="&#x3e;" d="M887 582L887 601L230 904L230 1205L1183 709L1183 474L230-22L230 279L887 582Z"  horiz-adv-x="1415" vert-adv-y="2048"  />

      
      <glyph glyph-name="uni3f" unicode="&#x3f;" d="M77 1035Q81 1226 207 1339Q337 1456 563 1456Q777 1456 908 1348Q1038 1240 1038 1066Q1038 854 824 728Q724 670 689 624Q654 578 654 506L654 453L389 453L387 508Q377 626 420 703Q462 777 567 839Q665 897 699 942Q735 988 735 1057Q735 1127 683 1171Q630 1216 545 1216Q459 1216 406 1167Q353 1118 348 1035L77 1035M532-30Q448-30 399 16Q350 61 350 140Q350 219 399 265Q448 311 532 311Q616 311 665 265Q713 219 713 140Q713 61 665 16Q616-30 532-30Z"  horiz-adv-x="1141" vert-adv-y="2048"  />

      
      <glyph glyph-name="uni40" unicode="&#x40;" d="M939 837Q860 837 815 777Q770 716 770 609Q770 502 815 442Q859 381 938 381Q1018 381 1065 442Q1112 503 1112 609Q1112 715 1065 776Q1019 837 939 837M971 1450Q1330 1450 1554 1244Q1778 1038 1778 707Q1778 468 1672 329Q1566 190 1385 190Q1291 190 1227 232Q1164 274 1147 346L1129 346Q1065 193 889 193Q733 193 638 309Q543 425 543 615Q543 797 636 910Q729 1023 879 1023Q1050 1023 1113 882L1131 882L1131 1001L1333 1001L1333 471Q1333 359 1429 359Q1505 359 1550 448Q1595 538 1595 690Q1595 961 1423 1125Q1250 1288 965 1288Q675 1288 492 1099Q309 910 309 611Q309 307 497 128Q684-51 1003-51Q1183-51 1275-18L1275-181Q1153-217 988-217Q598-217 362 11Q126 239 126 616Q126 986 361 1218Q596 1450 971 1450Z"  horiz-adv-x="1899" vert-adv-y="2048"  />

      
      <glyph glyph-name="uni41" unicode="&#x41;" d="M992 344L485 344L374 0L71 0L572 1443L927 1443L1428 0L1101 0L992 344M550 577L928 577L749 1143L731 1143L550 577Z"  horiz-adv-x="1500" vert-adv-y="2048"  />

      
      <glyph glyph-name="uni42" unicode="&#x42;" d="M174 0L174 1443L805 1443Q1014 1443 1134 1347Q1252 1251 1252 1083Q1252 968 1177 880Q1102 792 991 775L991 757Q1134 746 1228 650Q1321 552 1321 413Q1321 223 1187 112Q1053 0 822 0L174 0M476 845L703 845Q825 845 890 893Q955 941 955 1028Q955 1115 896 1163Q836 1212 728 1212L476 1212L476 845M745 231Q1013 231 1013 439Q1013 641 738 641L476 641L476 231L745 231Z"  horiz-adv-x="1420" vert-adv-y="2048"  />

      
      <glyph glyph-name="uni43" unicode="&#x43;" d="M787-37Q473-37 292 166Q110 370 110 722Q110 1074 291 1277Q473 1480 787 1480Q1043 1480 1220 1327Q1396 1175 1413 939L1119 939Q1097 1064 1007 1139Q916 1214 787 1214Q617 1214 518 1082Q419 950 419 722Q419 494 518 362Q617 229 788 229Q918 229 1008 300Q1098 371 1120 490L1414 490Q1395 256 1222 110Q1048-37 787-37Z"  horiz-adv-x="1518" vert-adv-y="2048"  />

      
      <glyph glyph-name="uni44" unicode="&#x44;" d="M742 1444Q1064 1444 1241 1258Q1419 1071 1419 732Q1419 381 1243 190Q1066 0 742 0L174 0L174 1444L742 1444M476 258L694 258Q895 258 1003 378Q1111 499 1111 727Q1111 945 1001 1066Q891 1186 694 1186L476 1186L476 258Z"  horiz-adv-x="1530" vert-adv-y="2048"  />

      
      <glyph glyph-name="uni45" unicode="&#x45;" d="M1130 0L174 0L174 1443L1130 1443L1130 1185L476 1185L476 848L1093 848L1093 609L476 609L476 258L1130 258L1130 0Z"  horiz-adv-x="1274" vert-adv-y="2048"  />

      
      <glyph glyph-name="uni46" unicode="&#x46;" d="M174 0L174 1443L1119 1443L1119 1185L476 1185L476 809L1063 809L1063 562L476 562L476 0L174 0Z"  horiz-adv-x="1224" vert-adv-y="2048"  />

      
      <glyph glyph-name="uni47" unicode="&#x47;" d="M1442 589Q1442 300 1270 131Q1098-37 802-37Q480-37 295 166Q110 369 110 723Q110 1072 295 1276Q480 1480 795 1480Q1051 1480 1224 1344Q1397 1208 1429 983L1129 983Q1095 1093 1008 1153Q921 1214 795 1214Q620 1214 520 1084Q419 953 419 726Q419 495 524 362Q628 229 807 229Q955 229 1050 309Q1143 389 1148 520L1149 546L836 546L836 773L1442 773L1442 589Z"  horiz-adv-x="1557" vert-adv-y="2048"  />

      
      <glyph glyph-name="uni48" unicode="&#x48;" d="M1126 0L1126 603L476 603L476 0L174 0L174 1443L476 1443L476 861L1126 861L1126 1443L1428 1443L1428 0L1126 0Z"  horiz-adv-x="1604" vert-adv-y="2048"  />

      
      <glyph glyph-name="uni49" unicode="&#x49;" d="M174 0L174 1443L476 1443L476 0L174 0Z"  horiz-adv-x="652" vert-adv-y="2048"  />

      
      <glyph glyph-name="uni4a" unicode="&#x4a;" d="M367 424Q369 337 421 285Q474 233 561 233Q753 233 753 450L753 1443L1055 1443L1055 448Q1055 216 925 89Q796-37 565-37Q342-37 209 87Q75 213 75 424L367 424Z"  horiz-adv-x="1231" vert-adv-y="2048"  />

      
      <glyph glyph-name="uni4b" unicode="&#x4b;" d="M174 0L174 1443L476 1443L476 800L494 800L1027 1443L1363 1443L837 810L1400 0L1038 0L619 604L476 435L476 0L174 0Z"  horiz-adv-x="1453" vert-adv-y="2048"  />

      
      <glyph glyph-name="uni4c" unicode="&#x4c;" d="M1118 0L174 0L174 1443L476 1443L476 263L1118 263L1118 0Z"  horiz-adv-x="1218" vert-adv-y="2048"  />

      
      <glyph glyph-name="uni4d" unicode="&#x4d;" d="M174 0L174 1443L530 1443L929 473L947 473L1347 1443L1702 1443L1702 0L1422 0L1422 965L1406 965L1039 83L838 83L470 965L454 965L454 0L174 0Z"  horiz-adv-x="1878" vert-adv-y="2048"  />

      
      <glyph glyph-name="uni4e" unicode="&#x4e;" d="M174 0L174 1443L426 1443L1090 544L1108 544L1108 1443L1397 1443L1397 0L1147 0L481 903L463 903L463 0L174 0Z"  horiz-adv-x="1573" vert-adv-y="2048"  />

      
      <glyph glyph-name="uni4f" unicode="&#x4f;" d="M805 1480Q1125 1480 1311 1276Q1498 1072 1498 722Q1498 371 1312 167Q1125-37 805-37Q484-37 297 167Q110 371 110 722Q110 1072 299 1277Q486 1480 805 1480M805 1215Q629 1215 524 1082Q419 948 419 722Q419 496 523 362Q628 228 805 228Q981 228 1086 362Q1190 496 1190 722Q1190 948 1086 1082Q981 1215 805 1215Z"  horiz-adv-x="1610" vert-adv-y="2048"  />

      
      <glyph glyph-name="uni50" unicode="&#x50;" d="M776 1443Q999 1443 1137 1306Q1276 1168 1276 944Q1276 722 1133 585Q990 448 761 448L476 448L476 0L174 0L174 1443L776 1443M476 693L695 693Q826 693 897 757Q969 822 969 943Q969 1065 898 1131Q827 1195 696 1195L476 1195L476 693Z"  horiz-adv-x="1380" vert-adv-y="2048"  />

      
      <glyph glyph-name="uni51" unicode="&#x51;" d="M1158-141L1058 1Q942-37 805-37Q484-37 297 166Q110 370 110 722Q110 1072 299 1277Q486 1480 805 1480Q1124 1480 1311 1277Q1498 1072 1498 722Q1498 325 1271 131L1450-141L1158-141M806 228Q855 228 910 241L746 481L1020 481L1087 400Q1190 511 1190 722Q1190 948 1085 1082Q980 1215 805 1215Q629 1215 524 1082Q419 948 419 722Q419 494 524 361Q629 228 806 228Z"  horiz-adv-x="1610" vert-adv-y="2048"  />

      
      <glyph glyph-name="uni52" unicode="&#x52;" d="M476 755L741 755Q855 755 919 813Q982 872 982 976Q982 1079 916 1139Q850 1199 738 1199L476 1199L476 755M476 0L174 0L174 1443L780 1443Q1018 1443 1155 1319Q1292 1195 1292 980Q1292 840 1223 731Q1153 619 1030 570L1334 0L992 0L723 523L476 523L476 0Z"  horiz-adv-x="1422" vert-adv-y="2048"  />

      
      <glyph glyph-name="uni53" unicode="&#x53;" d="M401 401Q411 313 494 261Q575 209 703 209Q821 209 896 261Q971 312 971 394Q971 463 913 506Q855 549 722 577L534 617Q142 699 142 1029Q142 1233 293 1357Q444 1480 694 1480Q932 1480 1086 1359Q1239 1238 1246 1045L962 1045Q951 1131 879 1183Q805 1235 696 1235Q582 1235 514 1186Q445 1137 445 1055Q445 988 501 947Q556 906 683 879L857 842Q1074 796 1173 698Q1272 600 1272 432Q1272 214 1115 88Q959-37 687-37Q429-37 273 81Q117 199 109 401L401 401Z"  horiz-adv-x="1383" vert-adv-y="2048"  />

      
      <glyph glyph-name="uni54" unicode="&#x54;" d="M524 0L524 1185L91 1185L91 1443L1259 1443L1259 1185L826 1185L826 0L524 0Z"  horiz-adv-x="1352" vert-adv-y="2048"  />

      
      <glyph glyph-name="uni55" unicode="&#x55;" d="M479 529Q479 391 558 312Q638 231 781 231Q925 231 1005 312Q1084 391 1084 529L1084 1443L1386 1443L1386 498Q1386 257 1222 111Q1057-37 781-37Q506-37 341 111Q177 257 177 498L177 1443L479 1443L479 529Z"  horiz-adv-x="1564" vert-adv-y="2048"  />

      
      <glyph glyph-name="uni56" unicode="&#x56;" d="M559 0L71 1443L412 1443L740 340L758 340L1080 1443L1405 1443L924 0L559 0Z"  horiz-adv-x="1477" vert-adv-y="2048"  />

      
      <glyph glyph-name="uni57" unicode="&#x57;" d="M754 0L469 0L87 1443L401 1443L626 426L642 426L905 1443L1160 1443L1428 426L1444 426L1667 1443L1979 1443L1596 0L1313 0L1040 955L1024 955L754 0Z"  horiz-adv-x="2067" vert-adv-y="2048"  />

      
      <glyph glyph-name="uni58" unicode="&#x58;" d="M548 727L90 1443L445 1443L746 938L764 938L1068 1443L1406 1443L931 722L1399 0L1055 0L745 489L727 489L413 0L87 0L548 727Z"  horiz-adv-x="1494" vert-adv-y="2048"  />

      
      <glyph glyph-name="uni59" unicode="&#x59;" d="M574 0L574 531L71 1443L398 1443L716 839L734 839L1051 1443L1378 1443L876 531L876 0L574 0Z"  horiz-adv-x="1451" vert-adv-y="2048"  />

      
      <glyph glyph-name="uni5a" unicode="&#x5a;" d="M134 204L860 1167L860 1185L151 1185L151 1443L1228 1443L1228 1240L504 276L504 258L1248 258L1248 0L134 0L134 204Z"  horiz-adv-x="1384" vert-adv-y="2048"  />

      
      <glyph glyph-name="uni5b" unicode="&#x5b;" d="M733 1444L733 1221L439 1221L439-18L745-18L745-240L158-240L158 1444L733 1444Z"  horiz-adv-x="848" vert-adv-y="2048"  />

      
      <glyph glyph-name="uni5c" unicode="&#x5c;" d="M41 1443L315 1443L729-288L461-288L41 1443Z"  horiz-adv-x="772" vert-adv-y="2048"  />

      
      <glyph glyph-name="uni5d" unicode="&#x5d;" d="M688-240L101-240L101-18L408-18L408 1221L114 1221L114 1444L688 1444L688-240Z"  horiz-adv-x="848" vert-adv-y="2048"  />

      
      <glyph glyph-name="uni5e" unicode="&#x5e;" d="M341 802L84 802L403 1433L662 1433L981 802L724 802L541 1207L523 1207L341 802Z"  horiz-adv-x="1066" vert-adv-y="2048"  />

      
      <glyph glyph-name="uni5f" unicode="&#x5f;" d="M-2-334L-2-107L947-107L947-334L-2-334Z"  horiz-adv-x="945" vert-adv-y="2048"  />

      
      <glyph glyph-name="uni60" unicode="&#x60;" d="M556 1281L269 1634L578 1634L825 1281L556 1281Z"  horiz-adv-x="1098" vert-adv-y="2048"  />

      
      <glyph glyph-name="uni61" unicode="&#x61;" d="M543 202Q644 202 712 259Q780 316 780 400L780 481L557 467Q371 454 371 334Q371 273 419 237Q466 202 543 202M447-17Q287-17 187 73Q86 165 86 315Q86 464 197 550Q307 635 513 647L780 663L780 753Q780 897 594 897Q432 897 395 795L127 795Q141 948 272 1038Q402 1127 610 1127Q828 1127 948 1029Q1067 931 1067 753L1067 0L785 0L785 144L767 144Q676-17 447-17Z"  horiz-adv-x="1208" vert-adv-y="2048"  />

      
      <glyph glyph-name="uni62" unicode="&#x62;" d="M795-17Q548-17 455 173L437 173L437 0L155 0L155 1524L446 1524L446 927L464 927Q506 1018 594 1069Q682 1121 795 1121Q1004 1121 1123 970Q1242 819 1242 552Q1242 287 1122 135Q1003-17 795-17M694 877Q579 877 512 789Q444 702 443 551Q444 401 511 314Q579 226 694 226Q810 226 877 313Q943 400 943 552Q943 703 876 790Q809 877 694 877Z"  horiz-adv-x="1334" vert-adv-y="2048"  />

      
      <glyph glyph-name="uni63" unicode="&#x63;" d="M849 714Q834 795 779 840Q721 888 630 888Q512 888 449 802Q385 716 385 554Q385 390 449 302Q512 215 630 215Q815 215 849 382L1121 382Q1103 195 974 86Q843-24 630-24Q372-24 232 126Q91 277 91 554Q91 829 231 978Q371 1127 630 1127Q846 1127 976 1015Q1103 905 1121 714L849 714Z"  horiz-adv-x="1203" vert-adv-y="2048"  />

      
      <glyph glyph-name="uni64" unicode="&#x64;" d="M540-17Q332-17 211 136Q91 289 91 553Q91 816 212 969Q332 1121 540 1121Q652 1121 739 1070Q826 1018 869 927L886 927L886 1524L1177 1524L1177 0L895 0L895 173L877 173Q833 84 744 33Q655-17 540-17M639 877Q523 877 456 790Q390 704 390 552Q390 399 456 313Q522 226 639 226Q756 226 823 313Q889 399 889 551Q889 702 822 789Q755 877 639 877Z"  horiz-adv-x="1334" vert-adv-y="2048"  />

      
      <glyph glyph-name="uni65" unicode="&#x65;" d="M622 904Q521 904 455 839Q390 774 382 667L852 667Q847 777 786 840Q724 904 622 904M1129 314Q1096 157 962 67Q827-24 625-24Q373-24 232 127Q91 277 91 546Q91 815 233 971Q375 1127 621 1127Q865 1127 1001 980Q1138 833 1138 570L1138 481L381 481L381 466Q384 343 452 272Q519 200 633 200Q810 200 858 314L1129 314Z"  horiz-adv-x="1231" vert-adv-y="2048"  />

      
      <glyph glyph-name="uni66" unicode="&#x66;" d="M228 863L53 863L53 1092L228 1092L228 1203Q228 1369 318 1443Q406 1515 602 1515Q677 1515 748 1504L748 1295Q704 1303 653 1303Q513 1303 513 1182L513 1092L744 1092L744 863L519 863L519 0L228 0L228 863Z"  horiz-adv-x="836" vert-adv-y="2048"  />

      
      <glyph glyph-name="uni67" unicode="&#x67;" d="M887 561Q887 707 820 792Q752 877 635 877Q518 877 452 792Q387 708 387 562Q387 415 452 331Q517 246 635 246Q753 246 820 331Q887 415 887 561M631-418Q413-418 275-329Q140-241 126-95L414-95Q425-146 484-176Q543-206 637-206Q754-206 819-154Q884-103 884-10L884 194L866 194Q772 16 534 16Q328 16 208 164Q88 311 88 561Q88 818 209 969Q331 1121 540 1121Q652 1121 741 1069Q831 1017 875 926L893 926L893 1103L1175 1103L1175 4Q1175-190 1028-304Q881-418 631-418Z"  horiz-adv-x="1322" vert-adv-y="2048"  />

      
      <glyph glyph-name="uni68" unicode="&#x68;" d="M155 1524L441 1524L441 922L459 922Q497 1016 590 1070Q683 1124 805 1124Q990 1124 1092 1016Q1195 908 1195 710L1195 0L904 0L904 641Q904 873 688 873Q579 873 512 807Q446 741 446 633L446 0L155 0L155 1524Z"  horiz-adv-x="1332" vert-adv-y="2048"  />

      
      <glyph glyph-name="uni69" unicode="&#x69;" d="M147 1103L438 1103L438 0L147 0L147 1103M293 1257Q215 1257 168 1298Q121 1339 121 1404Q121 1470 168 1510Q215 1551 293 1551Q371 1551 418 1510Q465 1470 465 1404Q465 1339 418 1298Q370 1257 293 1257Z"  horiz-adv-x="587" vert-adv-y="2048"  />

      
      <glyph glyph-name="uni6a" unicode="&#x6a;" d="M439-33Q439-374 49-374Q7-374-29-371L-29-147Q-17-149 8-149Q84-149 116-119Q148-91 148-24L148 1103L439 1103L439-33M294 1257Q216 1257 169 1298Q122 1339 122 1404Q122 1470 169 1510Q216 1551 294 1551Q372 1551 419 1510Q466 1470 466 1404Q466 1339 419 1298Q371 1257 294 1257Z"  horiz-adv-x="587" vert-adv-y="2048"  />

      
      <glyph glyph-name="uni6b" unicode="&#x6b;" d="M833 1103L1164 1103L744 630L1193 0L848 0L526 448L446 366L446 0L155 0L155 1524L446 1524L446 672L464 672L833 1103Z"  horiz-adv-x="1232" vert-adv-y="2048"  />

      
      <glyph glyph-name="uni6c" unicode="&#x6c;" d="M155 1524L446 1524L446 0L155 0L155 1524Z"  horiz-adv-x="603" vert-adv-y="2048"  />

      
      <glyph glyph-name="uni6d" unicode="&#x6d;" d="M145 1103L427 1103L427 923L445 923Q479 1018 560 1072Q642 1127 750 1127Q985 1127 1055 923L1073 923Q1112 1016 1200 1071Q1290 1127 1405 1127Q1570 1127 1666 1027Q1762 927 1762 757L1762 0L1471 0L1471 680Q1471 876 1287 876Q1199 876 1146 819Q1093 764 1093 675L1093 0L813 0L813 692Q813 779 765 828Q717 876 631 876Q546 876 491 816Q436 756 436 664L436 0L145 0L145 1103Z"  horiz-adv-x="1899" vert-adv-y="2048"  />

      
      <glyph glyph-name="uni6e" unicode="&#x6e;" d="M145 1103L427 1103L427 926L445 926Q483 1019 575 1073Q667 1127 788 1127Q972 1127 1073 1019Q1173 911 1173 713L1173 0L882 0L882 644Q882 876 672 876Q564 876 500 810Q436 745 436 636L436 0L145 0L145 1103Z"  horiz-adv-x="1310" vert-adv-y="2048"  />

      
      <glyph glyph-name="uni6f" unicode="&#x6f;" d="M634 214Q750 214 814 303Q878 391 878 552Q878 711 814 800Q749 889 634 889Q518 889 454 800Q390 711 390 552Q390 391 454 302Q517 214 634 214M634-24Q380-24 235 129Q91 282 91 552Q91 820 237 973Q382 1127 634 1127Q886 1127 1032 974Q1177 820 1177 552Q1177 282 1033 129Q888-24 634-24Z"  horiz-adv-x="1269" vert-adv-y="2048"  />

      
      <glyph glyph-name="uni70" unicode="&#x70;" d="M782 1121Q992 1121 1112 970Q1232 819 1232 552Q1232 286 1113 134Q994-17 787-17Q540-17 454 169L436 169L436-345L145-345L145 1103L427 1103L427 922L445 922Q490 1015 579 1068Q668 1121 782 1121M683 226Q801 226 867 313Q933 399 933 552Q933 704 867 790Q800 877 684 877Q568 877 500 790Q433 702 433 551Q433 400 500 313Q567 226 683 226Z"  horiz-adv-x="1324" vert-adv-y="2048"  />

      
      <glyph glyph-name="uni71" unicode="&#x71;" d="M542 1121Q653 1121 743 1067Q832 1014 876 922L894 922L894 1103L1177 1103L1177-345L885-345L885 169L867 169Q774-17 536-17Q329-17 210 136Q91 288 91 553Q91 816 212 968Q334 1121 542 1121M637 226Q754 226 822 313Q889 400 889 551Q889 702 821 789Q754 877 638 877Q522 877 456 790Q390 704 390 552Q390 399 455 313Q521 226 637 226Z"  horiz-adv-x="1324" vert-adv-y="2048"  />

      
      <glyph glyph-name="uni72" unicode="&#x72;" d="M145 1103L427 1103L427 927L445 927Q467 1011 544 1065Q623 1121 725 1121Q798 1121 837 1107L837 842Q791 860 701 860Q582 860 510 794Q436 726 436 611L436 0L145 0L145 1103Z"  horiz-adv-x="884" vert-adv-y="2048"  />

      
      <glyph glyph-name="uni73" unicode="&#x73;" d="M120 779Q120 936 246 1031Q373 1127 579 1127Q789 1127 909 1042Q1028 957 1040 799L771 799Q747 914 581 914Q502 914 452 882Q400 849 400 797Q400 721 549 687L756 642Q917 607 991 535Q1066 463 1066 340Q1066 176 931 76Q798-24 580-24Q362-24 235 62Q108 148 93 307L377 307Q412 189 586 189Q671 189 724 221Q777 254 777 307Q777 385 638 415L438 460Q120 530 120 779Z"  horiz-adv-x="1160" vert-adv-y="2048"  />

      
      <glyph glyph-name="uni74" unicode="&#x74;" d="M519 1360L519 1092L753 1092L753 863L519 863L519 367Q519 227 662 227Q710 227 747 231L747 9Q680-4 602-4Q401-4 315 66Q228 136 228 298L228 863L53 863L53 1092L228 1092L228 1360L519 1360Z"  horiz-adv-x="845" vert-adv-y="2048"  />

      
      <glyph glyph-name="uni75" unicode="&#x75;" d="M1168 0L886 0L886 177L868 177Q829 81 741 29Q653-24 533-24Q350-24 243 85Q135 195 135 389L135 1103L426 1103L426 459Q426 229 641 229Q749 229 813 293Q877 357 877 467L877 1103L1168 1103L1168 0Z"  horiz-adv-x="1315" vert-adv-y="2048"  />

      
      <glyph glyph-name="uni76" unicode="&#x76;" d="M363 1103L591 281L609 281L835 1103L1142 1103L761 0L433 0L50 1103L363 1103Z"  horiz-adv-x="1194" vert-adv-y="2048"  />

      
      <glyph glyph-name="uni77" unicode="&#x77;" d="M1380 0L1070 0L873 761L855 761L660 0L354 0L60 1103L355 1103L519 312L537 312L730 1103L1008 1103L1202 312L1220 312L1384 1103L1673 1103L1380 0Z"  horiz-adv-x="1735" vert-adv-y="2048"  />

      
      <glyph glyph-name="uni78" unicode="&#x78;" d="M579 360L374 0L65 0L411 545L63 1103L397 1103L592 741L610 741L805 1103L1123 1103L777 558L1126 0L802 0L597 360L579 360Z"  horiz-adv-x="1190" vert-adv-y="2048"  />

      
      <glyph glyph-name="uni79" unicode="&#x79;" d="M282-403Q189-403 171-400L171-165Q186-168 237-168Q397-168 432-47L442-7L55 1103L376 1103L608 267L626 267L858 1103L1166 1103L786-17Q716-230 602-316Q489-403 282-403Z"  horiz-adv-x="1223" vert-adv-y="2048"  />

      
      <glyph glyph-name="uni7a" unicode="&#x7a;" d="M120 172L678 853L678 871L128 871L128 1103L1026 1103L1026 911L500 250L500 232L1039 232L1039 0L120 0L120 172Z"  horiz-adv-x="1160" vert-adv-y="2048"  />

      
      <glyph glyph-name="uni7b" unicode="&#x7b;" d="M370 601Q578 581 578 345L578 85Q578-32 624-75Q670-119 792-119L837-119L837-338L732-338Q504-338 402-247Q299-157 299 47L299 265Q299 381 262 427Q225 472 131 472L131 749Q226 749 262 795Q299 840 299 957L299 1142Q299 1341 401 1430Q503 1518 732 1518L837 1518L837 1298L792 1298Q670 1298 624 1254Q578 1211 578 1093L578 856Q578 638 370 619L370 601Z"  horiz-adv-x="927" vert-adv-y="2048"  />

      
      <glyph glyph-name="uni7c" unicode="&#x7c;" d="M240-289L240 1443L507 1443L507-289L240-289Z"  horiz-adv-x="749" vert-adv-y="2048"  />

      
      <glyph glyph-name="uni7d" unicode="&#x7d;" d="M555 619Q347 638 347 856L347 1093Q347 1211 301 1254Q255 1298 133 1298L88 1298L88 1518L193 1518Q422 1518 524 1430Q626 1341 626 1142L626 957Q626 840 663 795Q700 749 794 749L794 472Q700 472 663 427Q626 381 626 265L626 47Q626-157 524-247Q421-338 193-338L88-338L88-119L133-119Q255-119 301-75Q347-32 347 85L347 345Q347 581 555 601L555 619Z"  horiz-adv-x="927" vert-adv-y="2048"  />

      
      <glyph glyph-name="uni7e" unicode="&#x7e;" d="M565 622Q483 703 428 703Q313 703 309 525L81 525Q79 551 79 563Q79 745 166 851Q252 957 402 957Q527 957 661 826Q741 747 796 747Q909 747 915 925L1142 925Q1144 899 1144 887Q1144 705 1058 599Q972 493 823 493Q697 493 565 622Z"  horiz-adv-x="1225" vert-adv-y="2048"  />

      
      <glyph glyph-name="unia1" unicode="&#xa1;" d="M230 647L497 647L524-322L204-322L230 647M182 982Q182 1061 231 1106Q280 1152 364 1152Q449 1152 497 1106Q546 1061 546 982Q546 902 497 857Q449 811 364 811Q280 811 231 857Q182 903 182 982Z"  horiz-adv-x="730" vert-adv-y="2048"  />

      
      <glyph glyph-name="unia2" unicode="&#xa2;" d="M1252 528Q1236 368 1123 262Q1013 159 839 132L839-52L597-52L597 136Q397 175 279 322Q157 474 157 700Q157 924 279 1075Q398 1222 597 1260L597 1449L839 1449L839 1264Q1010 1235 1121 1129Q1236 1019 1252 860L980 860Q958 940 891 987Q824 1034 732 1034Q610 1034 532 946Q451 854 451 700Q451 544 532 451Q610 362 731 362Q831 362 896 406Q961 450 980 528L1252 528Z"  horiz-adv-x="1415" vert-adv-y="2048"  />

      
      <glyph glyph-name="unia3" unicode="&#xa3;" d="M1263 0L139 0L139 240Q272 259 356 348Q440 438 442 564Q442 594 431 632L143 632L143 845L367 845Q308 988 308 1088Q308 1274 455 1377Q601 1480 866 1480Q1061 1480 1196 1447L1196 1204Q1058 1237 909 1237Q771 1237 691 1182Q611 1127 611 1033Q611 950 653 845L1070 845L1070 632L716 632Q726 599 726 567Q731 476 686 397Q641 318 561 276L561 257L1263 257L1263 0Z"  horiz-adv-x="1415" vert-adv-y="2048"  />

      
      <glyph glyph-name="unia4" unicode="&#xa4;" d="M473 648Q473 553 542 485Q611 416 707 416Q803 416 873 485Q942 553 942 648Q942 743 873 812Q803 881 707 881Q611 881 542 812Q473 743 473 648M1100 872Q1158 769 1158 648Q1158 526 1099 424L1247 275L1081 103L932 253Q829 192 707 192Q585 192 482 253L333 103L167 275L315 424Q257 529 257 648Q257 769 315 872L167 1021L333 1193L481 1043Q585 1105 707 1105Q829 1105 932 1044L1081 1193L1247 1021L1100 872Z"  horiz-adv-x="1415" vert-adv-y="2048"  />

      
      <glyph glyph-name="unia5" unicode="&#xa5;" d="M858 206L858 0L556 0L556 206L285 206L285 375L556 375L556 508L285 508L285 677L480 677L53 1443L380 1443L698 839L716 839L1033 1443L1360 1443L934 677L1129 677L1129 508L858 508L858 375L1129 375L1129 206L858 206Z"  horiz-adv-x="1415" vert-adv-y="2048"  />

      
      <glyph glyph-name="unia6" unicode="&#xa6;" d="M240 773L240 1443L507 1443L507 773L240 773M240-289L240 380L507 380L507-289L240-289Z"  horiz-adv-x="749" vert-adv-y="2048"  />

      
      <glyph glyph-name="unia7" unicode="&#xa7;" d="M572 416Q631 425 671 465Q711 504 711 554Q711 654 570 693L461 731Q402 722 362 682Q321 642 321 593Q321 495 463 454L572 416M514-286Q327-286 206-194Q85-101 78 48L331 48Q338-7 391-41Q443-76 518-76Q595-76 644-41Q692-5 692 51Q692 131 543 175L368 235Q210 286 138 357Q67 429 67 536Q67 630 124 701Q182 773 282 804L282 822Q77 917 77 1096Q77 1248 197 1341Q317 1433 515 1433Q699 1433 816 1343Q934 1253 945 1104L694 1104Q686 1157 637 1190Q586 1223 513 1223Q437 1223 389 1188Q342 1153 342 1097Q342 1019 489 973L660 913Q820 858 892 788Q964 717 964 614Q964 517 901 442Q837 366 733 338L733 319Q956 234 956 52Q956-99 834-193Q712-286 514-286Z"  horiz-adv-x="1032" vert-adv-y="2048"  />

      
      <glyph glyph-name="unia8" unicode="&#xa8;" d="M353 1267Q286 1267 242 1310Q198 1353 198 1419Q198 1485 242 1528Q285 1570 353 1570Q421 1570 464 1528Q508 1485 508 1419Q508 1353 464 1310Q420 1267 353 1267M821 1267Q754 1267 710 1310Q666 1353 666 1419Q666 1485 710 1528Q754 1570 821 1570Q889 1570 933 1528Q977 1485 977 1419Q977 1353 933 1310Q889 1267 821 1267Z"  horiz-adv-x="1176" vert-adv-y="2048"  />

      
      <glyph glyph-name="unia9" unicode="&#xa9;" d="M870-136Q541-136 311 93Q82 323 82 652Q82 982 311 1212Q540 1441 870 1441Q1201 1441 1430 1212Q1659 982 1659 652Q1659 323 1430 93Q1200-136 870-136M870 30Q1132 30 1314 211Q1495 392 1495 652Q1495 914 1314 1094Q1133 1275 870 1275Q608 1275 427 1094Q246 913 246 652Q246 392 427 211Q608 30 870 30M1049 759Q1038 817 994 851Q950 885 887 885Q802 885 754 824Q705 762 705 654Q705 544 754 482Q802 420 887 420Q1025 420 1049 540L1237 540Q1223 408 1129 332Q1035 256 886 256Q709 256 607 363Q504 470 504 654Q504 836 607 942Q710 1049 885 1049Q1031 1049 1127 970Q1223 891 1237 759L1049 759Z"  horiz-adv-x="1742" vert-adv-y="2048"  />

      
      <glyph glyph-name="uniaa" unicode="&#xaa;" d="M490 693Q565 693 614 737Q663 781 663 848L663 918L496 906Q353 897 353 799Q353 750 390 722Q426 693 490 693M391 497Q254 497 172 575Q90 653 90 783Q90 1042 454 1065L661 1076L661 1151Q662 1201 624 1230Q585 1258 517 1258Q393 1258 376 1176L124 1176Q134 1311 242 1388Q349 1465 527 1465Q712 1465 818 1380Q924 1295 924 1146L924 515L668 515L668 628L650 628Q580 497 391 497Z"  horiz-adv-x="1031" vert-adv-y="2048"  />

      
      <glyph glyph-name="uniab" unicode="&#xab;" d="M941 561L1288 151L1012 151L668 562L668 570L1017 981L1288 981L941 572L941 561M430 561L777 151L501 151L157 562L157 570L506 981L777 981L430 572L430 561Z"  horiz-adv-x="1447" vert-adv-y="2048"  />

      
      <glyph glyph-name="uniac" unicode="&#xac;" d="M1229 59L974 59L974 455L184 455L184 713L1229 713L1229 59Z"  horiz-adv-x="1415" vert-adv-y="2048"  />

      
      <glyph glyph-name="uniae" unicode="&#xae;" d="M629 412Q409 412 254 567Q99 723 99 943Q99 1163 254 1319Q409 1474 629 1474Q849 1474 1004 1319Q1159 1164 1159 943Q1159 722 1004 567Q849 412 629 412M629 548Q795 548 910 663Q1026 779 1026 943Q1026 1108 910 1223Q795 1338 629 1338Q464 1338 348 1223Q232 1108 232 943Q232 779 348 663Q464 548 629 548M420 707L420 1194L676 1194Q756 1194 806 1151Q856 1108 856 1038Q856 922 753 890L880 707L731 707L620 872L545 872L545 707L420 707M545 969L644 969Q722 969 722 1030Q722 1090 646 1090L545 1090L545 969Z"  horiz-adv-x="1260" vert-adv-y="2048"  />

      
      <glyph glyph-name="uniaf" unicode="&#xaf;" d="M156 1316L156 1496L891 1496L891 1316L156 1316Z"  horiz-adv-x="1048" vert-adv-y="2048"  />

      
      <glyph glyph-name="unib0" unicode="&#xb0;" d="M442 759Q299 759 200 860Q101 960 101 1102Q101 1245 200 1345Q299 1446 442 1446Q586 1446 685 1345Q784 1245 784 1102Q784 959 685 860Q586 759 442 759M442 936Q516 936 565 985Q613 1033 613 1102Q613 1172 565 1220Q515 1269 442 1269Q369 1269 320 1220Q273 1172 273 1102Q273 1033 320 985Q369 936 442 936Z"  horiz-adv-x="887" vert-adv-y="2048"  />

      
      <glyph glyph-name="unib1" unicode="&#xb1;" d="M207 71L207 296L1204 296L1204 71L207 71M831 416L582 416L582 650L207 650L207 874L582 874L582 1108L831 1108L831 874L1206 874L1206 650L831 650L831 416Z"  horiz-adv-x="1415" vert-adv-y="2048"  />

      
      <glyph glyph-name="unib2" unicode="&#xb2;" d="M79 1530Q79 1675 181 1762Q283 1850 452 1850Q615 1850 713 1773Q810 1696 810 1567Q810 1400 571 1224L457 1127L457 1109L825 1109L825 896L98 896L98 1085L375 1324Q482 1413 516 1456Q551 1499 551 1542Q551 1585 520 1613Q489 1640 440 1640Q388 1640 356 1610Q324 1580 324 1531L324 1525L79 1525L79 1530Z"  horiz-adv-x="914" vert-adv-y="2048"  />

      
      <glyph glyph-name="unib3" unicode="&#xb3;" d="M353 1455L466 1455Q519 1455 551 1481Q582 1506 582 1549Q582 1589 549 1615Q517 1640 464 1640Q408 1640 373 1612Q339 1584 336 1536L93 1536Q94 1678 196 1762Q298 1847 469 1847Q631 1847 731 1776Q830 1705 830 1590Q830 1511 781 1455Q733 1398 654 1385L654 1366Q751 1358 807 1300Q864 1242 864 1153Q864 1026 755 948Q645 869 469 869Q294 869 190 956Q85 1043 84 1189L330 1189Q332 1140 370 1112Q407 1083 467 1083Q526 1083 562 1110Q598 1138 598 1182Q598 1278 468 1278L353 1278L353 1455Z"  horiz-adv-x="950" vert-adv-y="2048"  />

      
      <glyph glyph-name="unib4" unicode="&#xb4;" d="M506 1634L815 1634L528 1281L259 1281L506 1634Z"  horiz-adv-x="1098" vert-adv-y="2048"  />

      
      <glyph glyph-name="unib6" unicode="&#xb6;" d="M685-259L685 443L665 443Q441 443 290 587Q141 729 141 939Q141 1158 288 1300Q435 1443 666 1443L965 1443L965-259L685-259M1134 1443L1414 1443L1414-259L1134-259L1134 1443Z"  horiz-adv-x="1580" vert-adv-y="2048"  />

      
      <glyph glyph-name="unib7" unicode="&#xb7;" d="M361 555Q277 555 227 604Q178 653 178 734Q178 814 227 862Q277 912 361 912Q445 912 494 862Q543 814 543 734Q543 653 494 604Q445 555 361 555Z"  horiz-adv-x="723" vert-adv-y="2048"  />

      
      <glyph glyph-name="unib8" unicode="&#xb8;" d="M404-126L459 6L633 6L584-113Q780-122 780-290Q780-386 711-440Q640-494 513-494Q429-494 366-477L366-342Q403-356 482-356Q594-356 594-297Q594-241 464-241L404-241L404-126Z"  horiz-adv-x="1098" vert-adv-y="2048"  />

      
      <glyph glyph-name="unib9" unicode="&#xb9;" d="M321 896L321 1575L303 1575Q113 1461 86 1434L86 1669Q177 1737 318 1824L588 1824L588 896L321 896Z"  horiz-adv-x="761" vert-adv-y="2048"  />

      
      <glyph glyph-name="uniba" unicode="&#xba;" d="M552 710Q641 710 689 781Q738 851 738 980Q738 1108 689 1178Q640 1249 552 1249Q464 1249 415 1178Q366 1107 366 980Q366 851 414 781Q463 710 552 710M552 497Q337 497 215 625Q94 753 94 980Q94 1203 217 1333Q340 1462 552 1462Q766 1462 888 1334Q1010 1205 1010 980Q1010 752 889 625Q768 497 552 497Z"  horiz-adv-x="1107" vert-adv-y="2048"  />

      
      <glyph glyph-name="unibb" unicode="&#xbb;" d="M157 981L428 981L777 570L777 562L433 151L157 151L504 561L504 572L157 981M668 981L939 981L1288 570L1288 562L944 151L668 151L1015 561L1015 572L668 981Z"  horiz-adv-x="1447" vert-adv-y="2048"  />

      
      <glyph glyph-name="unibc" unicode="&#xbc;" d="M2043 928L2043 340L2153 340L2153 144L2034 144L2034 0L1798 0L1798 134L1317 134L1317 348Q1405 530 1676 928L2043 928M1545 334L1799 334L1799 727L1785 727Q1594 432 1545 337L1545 334M321 515L321 1194L303 1194Q113 1080 86 1053L86 1288Q177 1356 318 1443L588 1443L588 515L321 515M962 749L1267 1443L1541 1443L1142 701L842 0L568 0L962 749Z"  horiz-adv-x="2242" vert-adv-y="2048"  />

      
      <glyph glyph-name="unibd" unicode="&#xbd;" d="M1409 634Q1409 779 1511 866Q1613 954 1782 954Q1945 954 2043 877Q2140 800 2140 671Q2140 504 1901 328L1787 231L1787 213L2155 213L2155 0L1428 0L1428 189L1705 428Q1812 517 1846 560Q1881 603 1881 646Q1881 689 1850 717Q1819 744 1770 744Q1718 744 1686 714Q1654 684 1654 635L1654 629L1409 629L1409 634M321 515L321 1194L303 1194Q113 1080 86 1053L86 1288Q177 1356 318 1443L588 1443L588 515L321 515M962 749L1267 1443L1541 1443L1142 701L842 0L568 0L962 749Z"  horiz-adv-x="2243" vert-adv-y="2048"  />

      
      <glyph glyph-name="unibe" unicode="&#xbe;" d="M353 1074L466 1074Q519 1074 551 1100Q582 1125 582 1168Q582 1208 549 1234Q517 1259 464 1259Q408 1259 373 1231Q339 1203 336 1155L93 1155Q94 1297 196 1381Q298 1466 469 1466Q631 1466 731 1395Q830 1324 830 1209Q830 1130 781 1074Q733 1017 654 1004L654 985Q751 977 807 919Q864 861 864 772Q864 645 755 567Q645 488 469 488Q294 488 190 575Q85 662 84 808L330 808Q332 759 370 731Q407 702 467 702Q526 702 562 729Q598 757 598 801Q598 897 468 897L353 897L353 1074M2203 928L2203 340L2313 340L2313 144L2194 144L2194 0L1958 0L1958 134L1477 134L1477 348Q1565 530 1836 928L2203 928M1705 334L1959 334L1959 727L1945 727Q1754 432 1705 337L1705 334M1122 749L1427 1443L1701 1443L1302 701L1002 0L728 0L1122 749Z"  horiz-adv-x="2402" vert-adv-y="2048"  />

      
      <glyph glyph-name="unibf" unicode="&#xbf;" d="M1063 87Q1059-104 933-218Q803-335 578-335Q364-335 232-226Q102-119 102 56Q102 266 316 393Q416 452 451 497Q486 543 486 615L486 668L750 668L752 614Q762 495 719 418Q678 344 572 282Q475 224 440 179Q404 133 404 65Q404-6 457-50Q510-95 595-95Q680-95 734-46Q786 4 791 87L1063 87M608 811Q524 811 475 856Q426 902 426 981Q426 1060 475 1105Q524 1151 608 1151Q693 1151 741 1105Q790 1060 790 981Q790 902 741 856Q693 811 608 811Z"  horiz-adv-x="1141" vert-adv-y="2048"  />

      
      <glyph glyph-name="unic0" unicode="&#xc0;" d="M992 344L485 344L374 0L71 0L572 1443L927 1443L1428 0L1101 0L992 344M550 577L928 577L749 1143L731 1143L550 577M899 1590L622 1590L308 1908L623 1908L899 1590Z"  horiz-adv-x="1500" vert-adv-y="2048"  />

      
      <glyph glyph-name="unic1" unicode="&#xc1;" d="M992 344L485 344L374 0L71 0L572 1443L927 1443L1428 0L1101 0L992 344M550 577L928 577L749 1143L731 1143L550 577M885 1908L1200 1908L886 1590L608 1590L885 1908Z"  horiz-adv-x="1500" vert-adv-y="2048"  />

      
      <glyph glyph-name="unic2" unicode="&#xc2;" d="M992 344L485 344L374 0L71 0L572 1443L927 1443L1428 0L1101 0L992 344M550 577L928 577L749 1143L731 1143L550 577M1169 1590L904 1590L758 1777L740 1777L594 1590L329 1590L613 1925L885 1925L1169 1590Z"  horiz-adv-x="1500" vert-adv-y="2048"  />

      
      <glyph glyph-name="unic3" unicode="&#xc3;" d="M992 344L485 344L374 0L71 0L572 1443L927 1443L1428 0L1101 0L992 344M550 577L928 577L749 1143L731 1143L550 577M908 1577Q819 1577 735 1646Q652 1715 613 1715Q531 1715 527 1587L343 1587Q343 1732 413 1816Q479 1896 590 1896Q684 1896 769 1827Q853 1758 885 1758Q965 1758 972 1882L1155 1882Q1155 1741 1086 1658Q1018 1577 908 1577Z"  horiz-adv-x="1500" vert-adv-y="2048"  />

      
      <glyph glyph-name="unic4" unicode="&#xc4;" d="M992 344L485 344L374 0L71 0L572 1443L927 1443L1428 0L1101 0L992 344M550 577L928 577L749 1143L731 1143L550 577M515 1579Q448 1579 404 1622Q360 1665 360 1731Q360 1797 404 1840Q447 1882 515 1882Q583 1882 626 1840Q670 1797 670 1731Q670 1665 626 1622Q582 1579 515 1579M983 1579Q916 1579 872 1622Q828 1665 828 1731Q828 1797 872 1840Q916 1882 983 1882Q1051 1882 1095 1840Q1139 1797 1139 1731Q1139 1665 1095 1622Q1051 1579 983 1579Z"  horiz-adv-x="1500" vert-adv-y="2048"  />

      
      <glyph glyph-name="unic5" unicode="&#xc5;" d="M992 344L485 344L374 0L71 0L572 1443L927 1443L1428 0L1101 0L992 344M550 577L928 577L749 1143L731 1143L550 577M749 1578Q644 1578 574 1646Q503 1715 503 1819Q503 1921 574 1989Q644 2057 749 2057Q854 2057 924 1989Q994 1922 994 1819Q994 1715 924 1646Q854 1578 749 1578M749 1714Q795 1714 824 1744Q854 1773 854 1818Q854 1862 824 1892Q794 1921 749 1921Q703 1921 673 1892Q643 1862 643 1818Q643 1772 673 1743Q703 1714 749 1714Z"  horiz-adv-x="1500" vert-adv-y="2048"  />

      
      <glyph glyph-name="unic6" unicode="&#xc6;" d="M860 1202L611 598L989 598L989 1202L860 1202M989 364L524 364L370 0L71 0L666 1443L1916 1443L1916 1185L1265 1185L1265 844L1879 844L1879 605L1265 605L1265 258L1916 258L1916 0L989 0L989 364Z"  horiz-adv-x="2059" vert-adv-y="2048"  />

      
      <glyph glyph-name="unic7" unicode="&#xc7;" d="M1414 490Q1397 276 1248 133Q1101-9 872-33L839-112Q1035-121 1035-289Q1035-385 966-439Q895-493 768-493Q684-493 621-476L621-341Q658-355 737-355Q849-355 849-296Q849-240 719-240L659-240L659-125L698-32Q423-3 267 196Q110 396 110 722Q110 1074 291 1277Q473 1480 787 1480Q1043 1480 1220 1327Q1396 1175 1413 939L1119 939Q1097 1064 1007 1139Q916 1214 787 1214Q617 1214 518 1082Q419 950 419 722Q419 494 518 362Q617 229 788 229Q918 229 1008 300Q1098 371 1120 490L1414 490Z"  horiz-adv-x="1518" vert-adv-y="2048"  />

      
      <glyph glyph-name="unic8" unicode="&#xc8;" d="M802 1590L525 1590L211 1908L526 1908L802 1590M1130 0L174 0L174 1443L1130 1443L1130 1185L476 1185L476 848L1093 848L1093 609L476 609L476 258L1130 258L1130 0Z"  horiz-adv-x="1274" vert-adv-y="2048"  />

      
      <glyph glyph-name="unic9" unicode="&#xc9;" d="M788 1908L1103 1908L789 1590L511 1590L788 1908M1130 0L174 0L174 1443L1130 1443L1130 1185L476 1185L476 848L1093 848L1093 609L476 609L476 258L1130 258L1130 0Z"  horiz-adv-x="1274" vert-adv-y="2048"  />

      
      <glyph glyph-name="unica" unicode="&#xca;" d="M1072 1590L807 1590L661 1777L643 1777L497 1590L232 1590L516 1925L788 1925L1072 1590M1130 0L174 0L174 1443L1130 1443L1130 1185L476 1185L476 848L1093 848L1093 609L476 609L476 258L1130 258L1130 0Z"  horiz-adv-x="1274" vert-adv-y="2048"  />

      
      <glyph glyph-name="unicb" unicode="&#xcb;" d="M418 1579Q351 1579 307 1622Q263 1665 263 1731Q263 1797 307 1840Q350 1882 418 1882Q486 1882 529 1840Q573 1797 573 1731Q573 1665 529 1622Q485 1579 418 1579M886 1579Q819 1579 775 1622Q731 1665 731 1731Q731 1797 775 1840Q819 1882 886 1882Q954 1882 998 1840Q1042 1797 1042 1731Q1042 1665 998 1622Q954 1579 886 1579M1130 0L174 0L174 1443L1130 1443L1130 1185L476 1185L476 848L1093 848L1093 609L476 609L476 258L1130 258L1130 0Z"  horiz-adv-x="1274" vert-adv-y="2048"  />

      
      <glyph glyph-name="unicc" unicode="&#xcc;" d="M175 0L175 1443L477 1443L477 0L175 0M476 1590L199 1590L-115 1908L200 1908L476 1590Z"  horiz-adv-x="652" vert-adv-y="2048"  />

      
      <glyph glyph-name="unicd" unicode="&#xcd;" d="M174 0L174 1443L476 1443L476 0L174 0M461 1908L776 1908L462 1590L184 1590L461 1908Z"  horiz-adv-x="652" vert-adv-y="2048"  />

      
      <glyph glyph-name="unice" unicode="&#xce;" d="M175 0L175 1443L477 1443L477 0L175 0M746 1590L481 1590L335 1777L317 1777L171 1590L-94 1590L190 1925L462 1925L746 1590Z"  horiz-adv-x="652" vert-adv-y="2048"  />

      
      <glyph glyph-name="unicf" unicode="&#xcf;" d="M175 0L175 1443L477 1443L477 0L175 0M92 1579Q25 1579-19 1622Q-63 1665-63 1731Q-63 1797-19 1840Q24 1882 92 1882Q160 1882 203 1840Q247 1797 247 1731Q247 1665 203 1622Q159 1579 92 1579M560 1579Q493 1579 449 1622Q405 1665 405 1731Q405 1797 449 1840Q493 1882 560 1882Q628 1882 672 1840Q716 1797 716 1731Q716 1665 672 1622Q628 1579 560 1579Z"  horiz-adv-x="652" vert-adv-y="2048"  />

      
      <glyph glyph-name="unid0" unicode="&#xd0;" d="M694 258Q895 258 1003 378Q1111 499 1111 727Q1111 945 1001 1066Q891 1186 694 1186L476 1186L476 845L686 845L686 618L476 618L476 258L694 258M742 1444Q1064 1444 1241 1258Q1419 1071 1419 732Q1419 381 1243 190Q1066 0 742 0L174 0L174 618L32 618L32 845L174 845L174 1444L742 1444Z"  horiz-adv-x="1499" vert-adv-y="2048"  />

      
      <glyph glyph-name="unid1" unicode="&#xd1;" d="M941 1577Q852 1577 768 1646Q685 1715 646 1715Q564 1715 560 1587L376 1587Q376 1732 446 1816Q512 1896 623 1896Q717 1896 802 1827Q886 1758 918 1758Q998 1758 1005 1882L1188 1882Q1188 1741 1119 1658Q1051 1577 941 1577M174 0L174 1443L426 1443L1090 544L1108 544L1108 1443L1397 1443L1397 0L1147 0L481 903L463 903L463 0L174 0Z"  horiz-adv-x="1573" vert-adv-y="2048"  />

      
      <glyph glyph-name="unid2" unicode="&#xd2;" d="M955 1590L678 1590L364 1908L679 1908L955 1590M805 1480Q1125 1480 1311 1276Q1498 1072 1498 722Q1498 371 1312 167Q1125-37 805-37Q484-37 297 167Q110 371 110 722Q110 1072 299 1277Q486 1480 805 1480M805 1215Q629 1215 524 1082Q419 948 419 722Q419 496 523 362Q628 228 805 228Q981 228 1086 362Q1190 496 1190 722Q1190 948 1086 1082Q981 1215 805 1215Z"  horiz-adv-x="1610" vert-adv-y="2048"  />

      
      <glyph glyph-name="unid3" unicode="&#xd3;" d="M941 1908L1256 1908L942 1590L664 1590L941 1908M805 1480Q1125 1480 1311 1276Q1498 1072 1498 722Q1498 371 1312 167Q1125-37 805-37Q484-37 297 167Q110 371 110 722Q110 1072 299 1277Q486 1480 805 1480M805 1215Q629 1215 524 1082Q419 948 419 722Q419 496 523 362Q628 228 805 228Q981 228 1086 362Q1190 496 1190 722Q1190 948 1086 1082Q981 1215 805 1215Z"  horiz-adv-x="1610" vert-adv-y="2048"  />

      
      <glyph glyph-name="unid4" unicode="&#xd4;" d="M1225 1590L960 1590L814 1777L796 1777L650 1590L385 1590L669 1925L941 1925L1225 1590M805 1480Q1125 1480 1311 1276Q1498 1072 1498 722Q1498 371 1312 167Q1125-37 805-37Q484-37 297 167Q110 371 110 722Q110 1072 299 1277Q486 1480 805 1480M805 1215Q629 1215 524 1082Q419 948 419 722Q419 496 523 362Q628 228 805 228Q981 228 1086 362Q1190 496 1190 722Q1190 948 1086 1082Q981 1215 805 1215Z"  horiz-adv-x="1610" vert-adv-y="2048"  />

      
      <glyph glyph-name="unid5" unicode="&#xd5;" d="M805 1480Q1125 1480 1311 1276Q1498 1072 1498 722Q1498 371 1312 167Q1125-37 805-37Q484-37 297 167Q110 371 110 722Q110 1072 299 1277Q486 1480 805 1480M805 1215Q629 1215 524 1082Q419 948 419 722Q419 496 523 362Q628 228 805 228Q981 228 1086 362Q1190 496 1190 722Q1190 948 1086 1082Q981 1215 805 1215M964 1577Q875 1577 791 1646Q708 1715 669 1715Q587 1715 583 1587L399 1587Q399 1732 469 1816Q535 1896 646 1896Q740 1896 825 1827Q909 1758 941 1758Q1021 1758 1028 1882L1211 1882Q1211 1741 1142 1658Q1074 1577 964 1577Z"  horiz-adv-x="1610" vert-adv-y="2048"  />

      
      <glyph glyph-name="unid6" unicode="&#xd6;" d="M571 1579Q504 1579 460 1622Q416 1665 416 1731Q416 1797 460 1840Q503 1882 571 1882Q639 1882 682 1840Q726 1797 726 1731Q726 1665 682 1622Q638 1579 571 1579M1039 1579Q972 1579 928 1622Q884 1665 884 1731Q884 1797 928 1840Q972 1882 1039 1882Q1107 1882 1151 1840Q1195 1797 1195 1731Q1195 1665 1151 1622Q1107 1579 1039 1579M805 1480Q1125 1480 1311 1276Q1498 1072 1498 722Q1498 371 1312 167Q1125-37 805-37Q484-37 297 167Q110 371 110 722Q110 1072 299 1277Q486 1480 805 1480M805 1215Q629 1215 524 1082Q419 948 419 722Q419 496 523 362Q628 228 805 228Q981 228 1086 362Q1190 496 1190 722Q1190 948 1086 1082Q981 1215 805 1215Z"  horiz-adv-x="1610" vert-adv-y="2048"  />

      
      <glyph glyph-name="unid7" unicode="&#xd7;" d="M402 98L227 280L531 584L227 889L402 1071L707 767L1011 1071L1186 889L882 584L1186 280L1011 98L707 402L402 98Z"  horiz-adv-x="1415" vert-adv-y="2048"  />

      
      <glyph glyph-name="unid8" unicode="&#xd8;" d="M586 299Q679 228 805 228Q981 228 1086 362Q1190 496 1190 722Q1190 938 1096 1067L586 299M1008 1155Q920 1215 805 1215Q629 1215 524 1082Q419 948 419 722Q419 521 502 392L1008 1155M1265 1321Q1498 1118 1498 722Q1498 371 1312 167Q1125-37 805-37Q588-37 428 60L343-68L241-2L331 133Q110 338 110 722Q110 1072 299 1277Q486 1480 805 1480Q1012 1480 1165 1392L1241 1507L1349 1448L1265 1321Z"  horiz-adv-x="1592" vert-adv-y="2048"  />

      
      <glyph glyph-name="unid9" unicode="&#xd9;" d="M931 1590L654 1590L340 1908L655 1908L931 1590M479 529Q479 391 558 312Q638 231 781 231Q925 231 1005 312Q1084 391 1084 529L1084 1443L1386 1443L1386 498Q1386 257 1222 111Q1057-37 781-37Q506-37 341 111Q177 257 177 498L177 1443L479 1443L479 529Z"  horiz-adv-x="1565" vert-adv-y="2048"  />

      
      <glyph glyph-name="unida" unicode="&#xda;" d="M917 1908L1232 1908L918 1590L640 1590L917 1908M479 529Q479 391 558 312Q638 231 781 231Q925 231 1005 312Q1084 391 1084 529L1084 1443L1386 1443L1386 498Q1386 257 1222 111Q1057-37 781-37Q506-37 341 111Q177 257 177 498L177 1443L479 1443L479 529Z"  horiz-adv-x="1565" vert-adv-y="2048"  />

      
      <glyph glyph-name="unidb" unicode="&#xdb;" d="M1201 1590L936 1590L790 1777L772 1777L626 1590L361 1590L645 1925L917 1925L1201 1590M479 529Q479 391 558 312Q638 231 781 231Q925 231 1005 312Q1084 391 1084 529L1084 1443L1386 1443L1386 498Q1386 257 1222 111Q1057-37 781-37Q506-37 341 111Q177 257 177 498L177 1443L479 1443L479 529Z"  horiz-adv-x="1565" vert-adv-y="2048"  />

      
      <glyph glyph-name="unidc" unicode="&#xdc;" d="M547 1579Q480 1579 436 1622Q392 1665 392 1731Q392 1797 436 1840Q479 1882 547 1882Q615 1882 658 1840Q702 1797 702 1731Q702 1665 658 1622Q614 1579 547 1579M1015 1579Q948 1579 904 1622Q860 1665 860 1731Q860 1797 904 1840Q948 1882 1015 1882Q1083 1882 1127 1840Q1171 1797 1171 1731Q1171 1665 1127 1622Q1083 1579 1015 1579M479 529Q479 391 558 312Q638 231 781 231Q925 231 1005 312Q1084 391 1084 529L1084 1443L1386 1443L1386 498Q1386 257 1222 111Q1057-37 781-37Q506-37 341 111Q177 257 177 498L177 1443L479 1443L479 529Z"  horiz-adv-x="1565" vert-adv-y="2048"  />

      
      <glyph glyph-name="unidd" unicode="&#xdd;" d="M574 0L574 531L71 1443L398 1443L716 839L734 839L1051 1443L1378 1443L876 531L876 0L574 0M861 1908L1176 1908L862 1590L584 1590L861 1908Z"  horiz-adv-x="1452" vert-adv-y="2048"  />

      
      <glyph glyph-name="unide" unicode="&#xde;" d="M478 1443L478 1211L785 1211Q994 1211 1125 1088Q1260 961 1260 749Q1260 538 1120 411Q984 288 770 288L476 288L476 0L174 0L174 1443L478 1443M476 533L702 533Q819 533 885 587Q953 644 953 749Q953 853 885 909Q820 963 703 963L476 963L476 533Z"  horiz-adv-x="1378" vert-adv-y="2048"  />

      
      <glyph glyph-name="unidf" unicode="&#xdf;" d="M191 0L191 1079Q191 1265 327 1373Q462 1481 691 1481Q910 1481 1048 1376Q1185 1271 1185 1104Q1185 985 1124 897Q1064 809 967 782L967 763Q1118 753 1209 657Q1302 558 1302 401Q1302 214 1171 100Q1038-15 817-15Q703-15 636 1L636 242Q690 224 765 224Q880 224 944 277Q1006 329 1006 419Q1006 510 934 562Q861 615 732 615L660 615L660 860L709 860Q797 860 849 911Q902 962 902 1052Q902 1135 847 1185Q791 1237 696 1237Q592 1237 537 1181Q481 1124 481 1017L481 0L191 0Z"  horiz-adv-x="1402" vert-adv-y="2048"  />

      
      <glyph glyph-name="unie0" unicode="&#xe0;" d="M543 202Q644 202 712 259Q780 316 780 400L780 481L557 467Q371 454 371 334Q371 273 419 237Q466 202 543 202M447-17Q287-17 187 73Q86 165 86 315Q86 464 197 550Q307 635 513 647L780 663L780 753Q780 897 594 897Q432 897 395 795L127 795Q141 948 272 1038Q402 1127 610 1127Q828 1127 948 1029Q1067 931 1067 753L1067 0L785 0L785 144L767 144Q676-17 447-17M500 1281L213 1634L522 1634L769 1281L500 1281Z"  horiz-adv-x="1208" vert-adv-y="2048"  />

      
      <glyph glyph-name="unie1" unicode="&#xe1;" d="M543 202Q644 202 712 259Q780 316 780 400L780 481L557 467Q371 454 371 334Q371 273 419 237Q466 202 543 202M447-17Q287-17 187 73Q86 165 86 315Q86 464 197 550Q307 635 513 647L780 663L780 753Q780 897 594 897Q432 897 395 795L127 795Q141 948 272 1038Q402 1127 610 1127Q828 1127 948 1029Q1067 931 1067 753L1067 0L785 0L785 144L767 144Q676-17 447-17M702 1634L1011 1634L724 1281L455 1281L702 1634Z"  horiz-adv-x="1208" vert-adv-y="2048"  />

      
      <glyph glyph-name="unie2" unicode="&#xe2;" d="M543 202Q644 202 712 259Q780 316 780 400L780 481L557 467Q371 454 371 334Q371 273 419 237Q466 202 543 202M447-17Q287-17 187 73Q86 165 86 315Q86 464 197 550Q307 635 513 647L780 663L780 753Q780 897 594 897Q432 897 395 795L127 795Q141 948 272 1038Q402 1127 610 1127Q828 1127 948 1029Q1067 931 1067 753L1067 0L785 0L785 144L767 144Q676-17 447-17M1030 1251L767 1251L619 1460L601 1460L452 1251L189 1251L464 1605L755 1605L1030 1251Z"  horiz-adv-x="1208" vert-adv-y="2048"  />

      
      <glyph glyph-name="unie3" unicode="&#xe3;" d="M543 202Q644 202 712 259Q780 316 780 400L780 481L557 467Q371 454 371 334Q371 273 419 237Q466 202 543 202M447-17Q287-17 187 73Q86 165 86 315Q86 464 197 550Q307 635 513 647L780 663L780 753Q780 897 594 897Q432 897 395 795L127 795Q141 948 272 1038Q402 1127 610 1127Q828 1127 948 1029Q1067 931 1067 753L1067 0L785 0L785 144L767 144Q676-17 447-17M483 1397Q397 1397 395 1256L208 1256Q208 1401 280 1489Q351 1577 469 1577Q554 1577 635 1505Q717 1433 747 1433Q834 1433 835 1571L1022 1571Q1022 1427 951 1340Q879 1253 761 1253Q676 1253 595 1325Q513 1397 483 1397Z"  horiz-adv-x="1208" vert-adv-y="2048"  />

      
      <glyph glyph-name="unie4" unicode="&#xe4;" d="M543 202Q644 202 712 259Q780 316 780 400L780 481L557 467Q371 454 371 334Q371 273 419 237Q466 202 543 202M447-17Q287-17 187 73Q86 165 86 315Q86 464 197 550Q307 635 513 647L780 663L780 753Q780 897 594 897Q432 897 395 795L127 795Q141 948 272 1038Q402 1127 610 1127Q828 1127 948 1029Q1067 931 1067 753L1067 0L785 0L785 144L767 144Q676-17 447-17M376 1251Q309 1251 265 1294Q221 1337 221 1403Q221 1469 265 1512Q308 1554 376 1554Q444 1554 487 1512Q531 1469 531 1403Q531 1337 487 1294Q443 1251 376 1251M844 1251Q777 1251 733 1294Q689 1337 689 1403Q689 1469 733 1512Q777 1554 844 1554Q912 1554 956 1512Q1000 1469 1000 1403Q1000 1337 956 1294Q912 1251 844 1251Z"  horiz-adv-x="1208" vert-adv-y="2048"  />

      
      <glyph glyph-name="unie5" unicode="&#xe5;" d="M543 202Q644 202 712 259Q780 316 780 400L780 481L557 467Q371 454 371 334Q371 273 419 237Q466 202 543 202M447-17Q287-17 187 73Q86 165 86 315Q86 464 197 550Q307 635 513 647L780 663L780 753Q780 897 594 897Q432 897 395 795L127 795Q141 948 272 1038Q402 1127 610 1127Q828 1127 948 1029Q1067 931 1067 753L1067 0L785 0L785 144L767 144Q676-17 447-17M610 1251Q505 1251 435 1319Q364 1388 364 1492Q364 1594 435 1662Q505 1730 610 1730Q715 1730 785 1662Q855 1595 855 1492Q855 1388 785 1319Q715 1251 610 1251M610 1387Q656 1387 685 1417Q715 1446 715 1491Q715 1535 685 1565Q655 1594 610 1594Q564 1594 534 1565Q504 1535 504 1491Q504 1445 534 1416Q564 1387 610 1387Z"  horiz-adv-x="1208" vert-adv-y="2048"  />

      
      <glyph glyph-name="unie6" unicode="&#xe6;" d="M1314-24Q1184-24 1079 30Q974 83 923 174L905 174Q769-24 498-24Q311-24 198 71Q86 164 86 315Q86 464 197 550Q307 635 513 647L780 663L780 753Q780 897 594 897Q432 897 395 795L127 795Q140 941 266 1034Q392 1127 579 1127Q830 1127 936 969L954 969Q1081 1127 1310 1127Q1538 1127 1670 979Q1802 831 1802 578L1802 484L1055 484L1055 458Q1059 341 1129 271Q1199 200 1311 200Q1466 200 1523 314L1792 314Q1759 158 1631 67Q1503-24 1314-24M1292 904Q1190 904 1126 839Q1061 775 1055 669L1517 669Q1513 774 1450 839Q1388 904 1292 904M548 199Q646 199 714 260Q780 319 780 404L780 481L557 467Q371 454 371 332Q371 270 420 234Q468 199 548 199Z"  horiz-adv-x="1894" vert-adv-y="2048"  />

      
      <glyph glyph-name="unie7" unicode="&#xe7;" d="M849 714Q834 795 779 840Q721 888 630 888Q512 888 449 802Q385 716 385 554Q385 390 449 302Q512 215 630 215Q815 215 849 382L1121 382Q1105 216 1001 111Q895 4 721-18L682-112Q878-121 878-289Q878-385 809-439Q738-493 611-493Q527-493 464-476L464-341Q501-355 580-355Q692-355 692-296Q692-240 562-240L502-240L502-125L546-20Q327 4 209 152Q91 300 91 554Q91 829 231 978Q371 1127 630 1127Q846 1127 976 1015Q1103 905 1121 714L849 714Z"  horiz-adv-x="1203" vert-adv-y="2048"  />

      
      <glyph glyph-name="unie8" unicode="&#xe8;" d="M511 1281L224 1634L533 1634L780 1281L511 1281M622 904Q521 904 455 839Q390 774 382 667L852 667Q847 777 786 840Q724 904 622 904M1129 314Q1096 157 962 67Q827-24 625-24Q373-24 232 127Q91 277 91 546Q91 815 233 971Q375 1127 621 1127Q865 1127 1001 980Q1138 833 1138 570L1138 481L381 481L381 466Q384 343 452 272Q519 200 633 200Q810 200 858 314L1129 314Z"  horiz-adv-x="1231" vert-adv-y="2048"  />

      
      <glyph glyph-name="unie9" unicode="&#xe9;" d="M713 1634L1022 1634L735 1281L466 1281L713 1634M622 904Q521 904 455 839Q390 774 382 667L852 667Q847 777 786 840Q724 904 622 904M1129 314Q1096 157 962 67Q827-24 625-24Q373-24 232 127Q91 277 91 546Q91 815 233 971Q375 1127 621 1127Q865 1127 1001 980Q1138 833 1138 570L1138 481L381 481L381 466Q384 343 452 272Q519 200 633 200Q810 200 858 314L1129 314Z"  horiz-adv-x="1231" vert-adv-y="2048"  />

      
      <glyph glyph-name="uniea" unicode="&#xea;" d="M1041 1251L778 1251L630 1460L612 1460L463 1251L200 1251L475 1605L766 1605L1041 1251M622 904Q521 904 455 839Q390 774 382 667L852 667Q847 777 786 840Q724 904 622 904M1129 314Q1096 157 962 67Q827-24 625-24Q373-24 232 127Q91 277 91 546Q91 815 233 971Q375 1127 621 1127Q865 1127 1001 980Q1138 833 1138 570L1138 481L381 481L381 466Q384 343 452 272Q519 200 633 200Q810 200 858 314L1129 314Z"  horiz-adv-x="1231" vert-adv-y="2048"  />

      
      <glyph glyph-name="unieb" unicode="&#xeb;" d="M622 904Q521 904 455 839Q390 774 382 667L852 667Q847 777 786 840Q724 904 622 904M1129 314Q1096 157 962 67Q827-24 625-24Q373-24 232 127Q91 277 91 546Q91 815 233 971Q375 1127 621 1127Q865 1127 1001 980Q1138 833 1138 570L1138 481L381 481L381 466Q384 343 452 272Q519 200 633 200Q810 200 858 314L1129 314M387 1251Q320 1251 276 1294Q232 1337 232 1403Q232 1469 276 1512Q319 1554 387 1554Q455 1554 498 1512Q542 1469 542 1403Q542 1337 498 1294Q454 1251 387 1251M855 1251Q788 1251 744 1294Q700 1337 700 1403Q700 1469 744 1512Q788 1554 855 1554Q923 1554 967 1512Q1011 1469 1011 1403Q1011 1337 967 1294Q923 1251 855 1251Z"  horiz-adv-x="1231" vert-adv-y="2048"  />

      
      <glyph glyph-name="uniec" unicode="&#xec;" d="M187 1281L-100 1634L209 1634L456 1281L187 1281M151 1103L442 1103L442 0L151 0L151 1103Z"  horiz-adv-x="593" vert-adv-y="2048"  />

      
      <glyph glyph-name="unied" unicode="&#xed;" d="M388 1634L697 1634L410 1281L141 1281L388 1634M150 1103L441 1103L441 0L150 0L150 1103Z"  horiz-adv-x="593" vert-adv-y="2048"  />

      
      <glyph glyph-name="uniee" unicode="&#xee;" d="M717 1251L454 1251L306 1460L288 1460L139 1251L-124 1251L151 1605L442 1605L717 1251M151 1103L442 1103L442 0L151 0L151 1103Z"  horiz-adv-x="593" vert-adv-y="2048"  />

      
      <glyph glyph-name="unief" unicode="&#xef;" d="M151 1103L442 1103L442 0L151 0L151 1103M63 1251Q-4 1251-48 1294Q-92 1337-92 1403Q-92 1469-48 1512Q-5 1554 63 1554Q131 1554 174 1512Q218 1469 218 1403Q218 1337 174 1294Q130 1251 63 1251M531 1251Q464 1251 420 1294Q376 1337 376 1403Q376 1469 420 1512Q464 1554 531 1554Q599 1554 643 1512Q687 1469 687 1403Q687 1337 643 1294Q599 1251 531 1251Z"  horiz-adv-x="593" vert-adv-y="2048"  />

      
      <glyph glyph-name="unif0" unicode="&#xf0;" d="M637-17Q392-17 244 134Q96 285 96 536Q96 766 223 910Q350 1053 554 1053Q750 1053 837 928L854 928Q812 1069 683 1209L398 1114L343 1257L571 1333Q493 1402 329 1516L692 1516Q753 1471 811 1416L1076 1505L1133 1362L928 1294Q1181 995 1181 604Q1181 321 1033 152Q885-17 637-17M644 843Q529 843 462 759Q395 676 395 534Q395 392 462 309Q529 226 644 226Q760 226 827 309Q894 392 894 534Q894 675 826 759Q758 843 644 843Z"  horiz-adv-x="1277" vert-adv-y="2048"  />

      
      <glyph glyph-name="unif1" unicode="&#xf1;" d="M539 1397Q453 1397 451 1256L264 1256Q264 1401 336 1489Q407 1577 525 1577Q610 1577 691 1505Q773 1433 803 1433Q890 1433 891 1571L1078 1571Q1078 1427 1007 1340Q935 1253 817 1253Q732 1253 651 1325Q569 1397 539 1397M145 1103L427 1103L427 926L445 926Q483 1019 575 1073Q667 1127 788 1127Q972 1127 1073 1019Q1173 911 1173 713L1173 0L882 0L882 644Q882 876 672 876Q564 876 500 810Q436 745 436 636L436 0L145 0L145 1103Z"  horiz-adv-x="1310" vert-adv-y="2048"  />

      
      <glyph glyph-name="unif2" unicode="&#xf2;" d="M524 1281L237 1634L546 1634L793 1281L524 1281M634 214Q750 214 814 303Q878 391 878 552Q878 711 814 800Q749 889 634 889Q518 889 454 800Q390 711 390 552Q390 391 454 302Q517 214 634 214M634-24Q380-24 235 129Q91 282 91 552Q91 820 237 973Q382 1127 634 1127Q886 1127 1032 974Q1177 820 1177 552Q1177 282 1033 129Q888-24 634-24Z"  horiz-adv-x="1269" vert-adv-y="2048"  />

      
      <glyph glyph-name="unif3" unicode="&#xf3;" d="M726 1634L1035 1634L748 1281L479 1281L726 1634M634 214Q750 214 814 303Q878 391 878 552Q878 711 814 800Q749 889 634 889Q518 889 454 800Q390 711 390 552Q390 391 454 302Q517 214 634 214M634-24Q380-24 235 129Q91 282 91 552Q91 820 237 973Q382 1127 634 1127Q886 1127 1032 974Q1177 820 1177 552Q1177 282 1033 129Q888-24 634-24Z"  horiz-adv-x="1269" vert-adv-y="2048"  />

      
      <glyph glyph-name="unif4" unicode="&#xf4;" d="M1054 1251L791 1251L643 1460L625 1460L476 1251L213 1251L488 1605L779 1605L1054 1251M634 214Q750 214 814 303Q878 391 878 552Q878 711 814 800Q749 889 634 889Q518 889 454 800Q390 711 390 552Q390 391 454 302Q517 214 634 214M634-24Q380-24 235 129Q91 282 91 552Q91 820 237 973Q382 1127 634 1127Q886 1127 1032 974Q1177 820 1177 552Q1177 282 1033 129Q888-24 634-24Z"  horiz-adv-x="1269" vert-adv-y="2048"  />

      
      <glyph glyph-name="unif5" unicode="&#xf5;" d="M507 1397Q421 1397 419 1256L232 1256Q232 1401 304 1489Q375 1577 493 1577Q578 1577 659 1505Q741 1433 771 1433Q858 1433 859 1571L1046 1571Q1046 1427 975 1340Q903 1253 785 1253Q700 1253 619 1325Q537 1397 507 1397M634 214Q750 214 814 303Q878 391 878 552Q878 711 814 800Q749 889 634 889Q518 889 454 800Q390 711 390 552Q390 391 454 302Q517 214 634 214M634-24Q380-24 235 129Q91 282 91 552Q91 820 237 973Q382 1127 634 1127Q886 1127 1032 974Q1177 820 1177 552Q1177 282 1033 129Q888-24 634-24Z"  horiz-adv-x="1269" vert-adv-y="2048"  />

      
      <glyph glyph-name="unif6" unicode="&#xf6;" d="M400 1251Q333 1251 289 1294Q245 1337 245 1403Q245 1469 289 1512Q332 1554 400 1554Q468 1554 511 1512Q555 1469 555 1403Q555 1337 511 1294Q467 1251 400 1251M868 1251Q801 1251 757 1294Q713 1337 713 1403Q713 1469 757 1512Q801 1554 868 1554Q936 1554 980 1512Q1024 1469 1024 1403Q1024 1337 980 1294Q936 1251 868 1251M634 214Q750 214 814 303Q878 391 878 552Q878 711 814 800Q749 889 634 889Q518 889 454 800Q390 711 390 552Q390 391 454 302Q517 214 634 214M634-24Q380-24 235 129Q91 282 91 552Q91 820 237 973Q382 1127 634 1127Q886 1127 1032 974Q1177 820 1177 552Q1177 282 1033 129Q888-24 634-24Z"  horiz-adv-x="1269" vert-adv-y="2048"  />

      
      <glyph glyph-name="unif7" unicode="&#xf7;" d="M167 472L167 697L1247 697L1247 472L167 472M707 815Q633 815 586 860Q540 905 540 977Q540 1049 586 1094Q633 1138 707 1138Q781 1138 828 1094Q874 1049 874 977Q874 905 828 860Q781 815 707 815M707 30Q633 30 586 75Q540 120 540 192Q540 264 586 309Q633 354 707 354Q781 354 828 309Q874 264 874 192Q874 120 828 75Q781 30 707 30Z"  horiz-adv-x="1415" vert-adv-y="2048"  />

      
      <glyph glyph-name="unif8" unicode="&#xf8;" d="M520 242Q569 214 634 214Q750 214 814 303Q878 391 878 552Q878 673 840 755L520 242M759 853Q707 889 634 889Q518 889 454 800Q390 711 390 552Q390 416 435 333L759 853M997 1007Q1177 852 1177 552Q1177 282 1033 129Q888-24 634-24Q495-24 385 24L324-73L221-10L281 86Q91 239 91 552Q91 820 237 973Q382 1127 634 1127Q781 1127 896 1072L958 1172L1064 1114L997 1007Z"  horiz-adv-x="1269" vert-adv-y="2048"  />

      
      <glyph glyph-name="unif9" unicode="&#xf9;" d="M545 1281L258 1634L567 1634L814 1281L545 1281M1168 0L886 0L886 177L868 177Q829 81 741 29Q653-24 533-24Q350-24 243 85Q135 195 135 389L135 1103L426 1103L426 459Q426 229 641 229Q749 229 813 293Q877 357 877 467L877 1103L1168 1103L1168 0Z"  horiz-adv-x="1318" vert-adv-y="2048"  />

      
      <glyph glyph-name="unifa" unicode="&#xfa;" d="M747 1634L1056 1634L769 1281L500 1281L747 1634M1168 0L886 0L886 177L868 177Q829 81 741 29Q653-24 533-24Q350-24 243 85Q135 195 135 389L135 1103L426 1103L426 459Q426 229 641 229Q749 229 813 293Q877 357 877 467L877 1103L1168 1103L1168 0Z"  horiz-adv-x="1318" vert-adv-y="2048"  />

      
      <glyph glyph-name="unifb" unicode="&#xfb;" d="M1075 1251L812 1251L664 1460L646 1460L497 1251L234 1251L509 1605L800 1605L1075 1251M1168 0L886 0L886 177L868 177Q829 81 741 29Q653-24 533-24Q350-24 243 85Q135 195 135 389L135 1103L426 1103L426 459Q426 229 641 229Q749 229 813 293Q877 357 877 467L877 1103L1168 1103L1168 0Z"  horiz-adv-x="1318" vert-adv-y="2048"  />

      
      <glyph glyph-name="unifc" unicode="&#xfc;" d="M1168 0L886 0L886 177L868 177Q829 81 741 29Q653-24 533-24Q350-24 243 85Q135 195 135 389L135 1103L426 1103L426 459Q426 229 641 229Q749 229 813 293Q877 357 877 467L877 1103L1168 1103L1168 0M421 1251Q354 1251 310 1294Q266 1337 266 1403Q266 1469 310 1512Q353 1554 421 1554Q489 1554 532 1512Q576 1469 576 1403Q576 1337 532 1294Q488 1251 421 1251M889 1251Q822 1251 778 1294Q734 1337 734 1403Q734 1469 778 1512Q822 1554 889 1554Q957 1554 1001 1512Q1045 1469 1045 1403Q1045 1337 1001 1294Q957 1251 889 1251Z"  horiz-adv-x="1318" vert-adv-y="2048"  />

      
      <glyph glyph-name="unifd" unicode="&#xfd;" d="M282-403Q189-403 171-400L171-165Q186-168 237-168Q397-168 432-47L442-7L55 1103L376 1103L608 267L626 267L858 1103L1166 1103L786-17Q716-230 602-316Q489-403 282-403M707 1634L1016 1634L729 1281L460 1281L707 1634Z"  horiz-adv-x="1223" vert-adv-y="2048"  />

      
      <glyph glyph-name="unife" unicode="&#xfe;" d="M789 1121Q999 1121 1118 970Q1237 819 1237 552Q1237 286 1118 134Q999-17 792-17Q545-17 459 169L441 169L441-345L150-345L150 1507L437 1507L437 922L455 922Q500 1015 588 1068Q676 1121 789 1121M688 226Q806 226 872 313Q938 399 938 552Q938 704 872 790Q805 877 689 877Q573 877 505 790Q438 702 438 551Q438 400 505 313Q572 226 688 226Z"  horiz-adv-x="1339" vert-adv-y="2048"  />

      
      <glyph glyph-name="uniff" unicode="&#xff;" d="M282-403Q189-403 171-400L171-165Q186-168 237-168Q397-168 432-47L442-7L55 1103L376 1103L608 267L626 267L858 1103L1166 1103L786-17Q716-230 602-316Q489-403 282-403M381 1251Q314 1251 270 1294Q226 1337 226 1403Q226 1469 270 1512Q313 1554 381 1554Q449 1554 492 1512Q536 1469 536 1403Q536 1337 492 1294Q448 1251 381 1251M849 1251Q782 1251 738 1294Q694 1337 694 1403Q694 1469 738 1512Q782 1554 849 1554Q917 1554 961 1512Q1005 1469 1005 1403Q1005 1337 961 1294Q917 1251 849 1251Z"  horiz-adv-x="1223" vert-adv-y="2048"  />

      
      <glyph glyph-name="uni0100" unicode="&#x0100;" d="M992 344L485 344L374 0L71 0L572 1443L927 1443L1428 0L1101 0L992 344M550 577L928 577L749 1143L731 1143L550 577M376 1632L376 1813L1122 1813L1122 1632L376 1632Z"  horiz-adv-x="1500" vert-adv-y="2048"  />

      
      <glyph glyph-name="uni0101" unicode="&#x0101;" d="M543 202Q644 202 712 259Q780 316 780 400L780 481L557 467Q371 454 371 334Q371 273 419 237Q466 202 543 202M447-17Q287-17 187 73Q86 165 86 315Q86 464 197 550Q307 635 513 647L780 663L780 753Q780 897 594 897Q432 897 395 795L127 795Q141 948 272 1038Q402 1127 610 1127Q828 1127 948 1029Q1067 931 1067 753L1067 0L785 0L785 144L767 144Q676-17 447-17M243 1316L243 1496L978 1496L978 1316L243 1316Z"  horiz-adv-x="1208" vert-adv-y="2048"  />

      
      <glyph glyph-name="uni0102" unicode="&#x0102;" d="M992 344L485 344L374 0L71 0L572 1443L927 1443L1428 0L1101 0L992 344M550 577L928 577L749 1143L731 1143L550 577M557 1915Q559 1840 610 1796Q662 1751 749 1751Q836 1751 888 1796Q939 1840 941 1915L1149 1915Q1149 1765 1042 1673Q932 1579 749 1579Q566 1579 456 1673Q349 1765 349 1915L557 1915Z"  horiz-adv-x="1500" vert-adv-y="2048"  />

      
      <glyph glyph-name="uni0103" unicode="&#x0103;" d="M543 202Q644 202 712 259Q780 316 780 400L780 481L557 467Q371 454 371 334Q371 273 419 237Q466 202 543 202M447-17Q287-17 187 73Q86 165 86 315Q86 464 197 550Q307 635 513 647L780 663L780 753Q780 897 594 897Q432 897 395 795L127 795Q141 948 272 1038Q402 1127 610 1127Q828 1127 948 1029Q1067 931 1067 753L1067 0L785 0L785 144L767 144Q676-17 447-17M417 1602Q419 1521 469 1473Q521 1424 609 1424Q697 1424 749 1473Q799 1521 801 1602L1009 1602Q1009 1446 902 1350Q792 1251 609 1251Q426 1251 317 1350Q210 1446 210 1602L417 1602Z"  horiz-adv-x="1208" vert-adv-y="2048"  />

      
      <glyph glyph-name="uni0104" unicode="&#x0104;" d="M550 577L928 577L749 1143L731 1143L550 577M1408-444Q1351-469 1259-469Q1142-469 1073-409Q1003-349 1003-248Q1003-95 1164 12L1097 12L992 344L485 344L374 0L71 0L572 1443L927 1443L1425 6L1366 6Q1211-80 1211-191Q1211-237 1244-264Q1277-291 1332-291Q1371-291 1408-282L1408-444Z"  horiz-adv-x="1500" vert-adv-y="2048"  />

      
      <glyph glyph-name="uni0105" unicode="&#x0105;" d="M546 202Q645 202 713 259Q780 316 780 400L780 487L559 473Q371 462 371 338Q371 276 418 239Q466 202 546 202M1071-444Q1013-469 923-469Q809-469 741-409Q672-350 672-251Q672-93 838 10L785 10L785 144L767 144Q676-17 445-17Q284-17 185 75Q86 168 86 319Q86 469 197 555Q308 641 517 653L780 669L780 753Q778 897 594 897Q432 897 395 795L127 795Q141 948 272 1038Q402 1127 610 1127Q828 1127 948 1029Q1067 931 1067 753L1067 9L1026 9Q876-82 876-187Q876-234 909-263Q942-291 995-291Q1040-291 1071-282L1071-444Z"  horiz-adv-x="1208" vert-adv-y="2048"  />

      
      <glyph glyph-name="uni0106" unicode="&#x0106;" d="M923 1909L1238 1909L924 1591L646 1591L923 1909M787-37Q473-37 292 166Q110 370 110 722Q110 1074 291 1277Q473 1480 787 1480Q1043 1480 1220 1327Q1396 1175 1413 939L1119 939Q1097 1064 1007 1139Q916 1214 787 1214Q617 1214 518 1082Q419 950 419 722Q419 494 518 362Q617 229 788 229Q918 229 1008 300Q1098 371 1120 490L1414 490Q1395 256 1222 110Q1048-37 787-37Z"  horiz-adv-x="1518" vert-adv-y="2048"  />

      
      <glyph glyph-name="uni0107" unicode="&#x0107;" d="M849 714Q834 795 779 840Q721 888 630 888Q512 888 449 802Q385 716 385 554Q385 390 449 302Q512 215 630 215Q815 215 849 382L1121 382Q1103 195 974 86Q843-24 630-24Q372-24 232 126Q91 277 91 554Q91 829 231 978Q371 1127 630 1127Q846 1127 976 1015Q1103 905 1121 714L849 714M721 1634L1030 1634L743 1281L474 1281L721 1634Z"  horiz-adv-x="1203" vert-adv-y="2048"  />

      
      <glyph glyph-name="uni0108" unicode="&#x0108;" d="M787-37Q473-37 292 166Q110 370 110 722Q110 1074 291 1277Q473 1480 787 1480Q1043 1480 1220 1327Q1396 1175 1413 939L1119 939Q1097 1064 1007 1139Q916 1214 787 1214Q617 1214 518 1082Q419 950 419 722Q419 494 518 362Q617 229 788 229Q918 229 1008 300Q1098 371 1120 490L1414 490Q1395 256 1222 110Q1048-37 787-37M1207 1591L942 1591L796 1778L778 1778L632 1591L367 1591L651 1926L923 1926L1207 1591Z"  horiz-adv-x="1518" vert-adv-y="2048"  />

      
      <glyph glyph-name="uni0109" unicode="&#x0109;" d="M1049 1251L786 1251L638 1460L620 1460L471 1251L208 1251L483 1605L774 1605L1049 1251M849 714Q834 795 779 840Q721 888 630 888Q512 888 449 802Q385 716 385 554Q385 390 449 302Q512 215 630 215Q815 215 849 382L1121 382Q1103 195 974 86Q843-24 630-24Q372-24 232 126Q91 277 91 554Q91 829 231 978Q371 1127 630 1127Q846 1127 976 1015Q1103 905 1121 714L849 714Z"  horiz-adv-x="1203" vert-adv-y="2048"  />

      
      <glyph glyph-name="uni010A" unicode="&#x010A;" d="M787 1580Q718 1580 673 1625Q629 1670 629 1738Q629 1806 673 1851Q718 1896 787 1896Q856 1896 900 1851Q944 1806 944 1738Q944 1670 900 1625Q856 1580 787 1580M787-37Q473-37 292 166Q110 370 110 722Q110 1074 291 1277Q473 1480 787 1480Q1043 1480 1220 1327Q1396 1175 1413 939L1119 939Q1097 1064 1007 1139Q916 1214 787 1214Q617 1214 518 1082Q419 950 419 722Q419 494 518 362Q617 229 788 229Q918 229 1008 300Q1098 371 1120 490L1414 490Q1395 256 1222 110Q1048-37 787-37Z"  horiz-adv-x="1518" vert-adv-y="2048"  />

      
      <glyph glyph-name="uni010B" unicode="&#x010B;" d="M849 714Q834 795 779 840Q721 888 630 888Q512 888 449 802Q385 716 385 554Q385 390 449 302Q512 215 630 215Q815 215 849 382L1121 382Q1103 195 974 86Q843-24 630-24Q372-24 232 126Q91 277 91 554Q91 829 231 978Q371 1127 630 1127Q846 1127 976 1015Q1103 905 1121 714L849 714M629 1278Q559 1278 513 1324Q468 1369 468 1438Q468 1507 513 1553Q559 1599 629 1599Q699 1599 745 1553Q790 1507 790 1438Q790 1369 745 1324Q699 1278 629 1278Z"  horiz-adv-x="1203" vert-adv-y="2048"  />

      
      <glyph glyph-name="uni010C" unicode="&#x010C;" d="M787-37Q473-37 292 166Q110 370 110 722Q110 1074 291 1277Q473 1480 787 1480Q1043 1480 1220 1327Q1396 1175 1413 939L1119 939Q1097 1064 1007 1139Q916 1214 787 1214Q617 1214 518 1082Q419 950 419 722Q419 494 518 362Q617 229 788 229Q918 229 1008 300Q1098 371 1120 490L1414 490Q1395 256 1222 110Q1048-37 787-37M660 1591L379 1909L632 1909L777 1736L797 1736L942 1909L1195 1909L914 1591L660 1591Z"  horiz-adv-x="1518" vert-adv-y="2048"  />

      
      <glyph glyph-name="uni010D" unicode="&#x010D;" d="M483 1251L208 1605L471 1605L620 1396L638 1396L786 1605L1049 1605L774 1251L483 1251M849 714Q834 795 779 840Q721 888 630 888Q512 888 449 802Q385 716 385 554Q385 390 449 302Q512 215 630 215Q815 215 849 382L1121 382Q1103 195 974 86Q843-24 630-24Q372-24 232 126Q91 277 91 554Q91 829 231 978Q371 1127 630 1127Q846 1127 976 1015Q1103 905 1121 714L849 714Z"  horiz-adv-x="1203" vert-adv-y="2048"  />

      
      <glyph glyph-name="uni010E" unicode="&#x010E;" d="M511 1590L230 1908L483 1908L628 1735L648 1735L793 1908L1046 1908L765 1590L511 1590M742 1444Q1064 1444 1241 1258Q1419 1071 1419 732Q1419 381 1243 190Q1066 0 742 0L174 0L174 1444L742 1444M476 258L694 258Q895 258 1003 378Q1111 499 1111 727Q1111 945 1001 1066Q891 1186 694 1186L476 1186L476 258Z"  horiz-adv-x="1530" vert-adv-y="2048"  />

      
      <glyph glyph-name="uni010F" unicode="&#x010F;" d="M1549 1524L1499 1019L1298 1019L1298 1524L1549 1524M540-17Q332-17 211 136Q91 289 91 553Q91 816 212 969Q332 1121 540 1121Q652 1121 739 1070Q826 1018 869 927L886 927L886 1524L1177 1524L1177 0L895 0L895 173L877 173Q833 84 744 33Q655-17 540-17M639 877Q523 877 456 790Q390 704 390 552Q390 399 456 313Q522 226 639 226Q756 226 823 313Q889 399 889 551Q889 702 822 789Q755 877 639 877Z"  horiz-adv-x="1520" vert-adv-y="2048"  />

      
      <glyph glyph-name="uni0110" unicode="&#x0110;" d="M694 258Q895 258 1003 378Q1111 499 1111 727Q1111 945 1001 1066Q891 1186 694 1186L476 1186L476 845L696 845L696 618L476 618L476 258L694 258M742 1444Q1064 1444 1241 1258Q1419 1071 1419 732Q1419 381 1243 190Q1066 0 742 0L174 0L174 618L52 618L52 845L174 845L174 1444L742 1444Z"  horiz-adv-x="1513" vert-adv-y="2048"  />

      
      <glyph glyph-name="uni0111" unicode="&#x0111;" d="M651 226Q768 226 835 313Q901 399 901 551Q901 702 834 789Q767 877 651 877Q535 877 468 790Q402 704 402 552Q402 399 468 313Q534 226 651 226M1313 1260L1189 1260L1189 0L902 0L902 173L884 173Q790-17 549-17Q342-17 223 135Q103 287 103 553Q103 816 224 969Q345 1121 552 1121Q664 1121 752 1069Q838 1018 881 927L898 927L898 1260L675 1260L675 1412L898 1412L898 1555L1189 1555L1189 1412L1313 1412L1313 1260Z"  horiz-adv-x="1343" vert-adv-y="2048"  />

      
      <glyph glyph-name="uni0112" unicode="&#x0112;" d="M1130 0L174 0L174 1443L1130 1443L1130 1185L476 1185L476 848L1093 848L1093 609L476 609L476 258L1130 258L1130 0M279 1632L279 1813L1025 1813L1025 1632L279 1632Z"  horiz-adv-x="1274" vert-adv-y="2048"  />

      
      <glyph glyph-name="uni0113" unicode="&#x0113;" d="M622 904Q521 904 455 839Q390 774 382 667L852 667Q847 777 786 840Q724 904 622 904M1129 314Q1096 157 962 67Q827-24 625-24Q373-24 232 127Q91 277 91 546Q91 815 233 971Q375 1127 621 1127Q865 1127 1001 980Q1138 833 1138 570L1138 481L381 481L381 466Q384 343 452 272Q519 200 633 200Q810 200 858 314L1129 314M254 1316L254 1496L989 1496L989 1316L254 1316Z"  horiz-adv-x="1231" vert-adv-y="2048"  />

      
      <glyph glyph-name="uni0114" unicode="&#x0114;" d="M1130 0L174 0L174 1443L1130 1443L1130 1185L476 1185L476 848L1093 848L1093 609L476 609L476 258L1130 258L1130 0M460 1915Q462 1840 513 1796Q565 1751 652 1751Q739 1751 791 1796Q842 1840 844 1915L1052 1915Q1052 1765 945 1673Q835 1579 652 1579Q469 1579 359 1673Q252 1765 252 1915L460 1915Z"  horiz-adv-x="1274" vert-adv-y="2048"  />

      
      <glyph glyph-name="uni0115" unicode="&#x0115;" d="M622 904Q521 904 455 839Q390 774 382 667L852 667Q847 777 786 840Q724 904 622 904M1129 314Q1096 157 962 67Q827-24 625-24Q373-24 232 127Q91 277 91 546Q91 815 233 971Q375 1127 621 1127Q865 1127 1001 980Q1138 833 1138 570L1138 481L381 481L381 466Q384 343 452 272Q519 200 633 200Q810 200 858 314L1129 314M428 1602Q430 1521 480 1473Q532 1424 620 1424Q708 1424 760 1473Q810 1521 812 1602L1020 1602Q1020 1446 913 1350Q803 1251 620 1251Q437 1251 328 1350Q221 1446 221 1602L428 1602Z"  horiz-adv-x="1231" vert-adv-y="2048"  />

      
      <glyph glyph-name="uni0116" unicode="&#x0116;" d="M652 1579Q583 1579 538 1624Q494 1669 494 1737Q494 1805 538 1850Q583 1895 652 1895Q721 1895 765 1850Q809 1805 809 1737Q809 1669 765 1624Q721 1579 652 1579M1130 0L174 0L174 1443L1130 1443L1130 1185L476 1185L476 848L1093 848L1093 609L476 609L476 258L1130 258L1130 0Z"  horiz-adv-x="1274" vert-adv-y="2048"  />

      
      <glyph glyph-name="uni0117" unicode="&#x0117;" d="M621 1278Q551 1278 505 1324Q460 1369 460 1438Q460 1507 505 1553Q551 1599 621 1599Q691 1599 737 1553Q782 1507 782 1438Q782 1369 737 1324Q691 1278 621 1278M622 904Q521 904 455 839Q390 774 382 667L852 667Q847 777 786 840Q724 904 622 904M1129 314Q1096 157 962 67Q827-24 625-24Q373-24 232 127Q91 277 91 546Q91 815 233 971Q375 1127 621 1127Q865 1127 1001 980Q1138 833 1138 570L1138 481L381 481L381 466Q384 343 452 272Q519 200 633 200Q810 200 858 314L1129 314Z"  horiz-adv-x="1231" vert-adv-y="2048"  />

      
      <glyph glyph-name="uni0118" unicode="&#x0118;" d="M174 0L174 1443L1130 1443L1130 1185L476 1185L476 848L1093 848L1093 609L476 609L476 258L1130 258L1130 33Q934-68 934-187Q934-234 967-263Q1000-291 1055-291Q1100-291 1130-282L1130-444Q1075-469 981-469Q865-469 795-409Q725-350 725-251Q725-99 884 0L174 0Z"  horiz-adv-x="1274" vert-adv-y="2048"  />

      
      <glyph glyph-name="uni0119" unicode="&#x0119;" d="M783-469Q674-469 604-408Q534-348 534-253Q534-141 646-39L646-21Q630-23 608-23Q363-18 227 131Q91 281 91 546Q91 816 233 972Q375 1127 621 1127Q865 1127 1001 980Q1138 833 1138 570L1138 481L381 481L381 466Q384 343 452 271Q520 200 633 200Q809 200 858 314L1129 314Q1101 169 913 28Q739-104 739-198Q739-239 770-265Q802-291 852-291Q893-291 932-282L932-444Q879-469 783-469M622 904Q521 904 455 840Q389 775 382 667L852 667Q847 777 786 840Q724 904 622 904Z"  horiz-adv-x="1231" vert-adv-y="2048"  />

      
      <glyph glyph-name="uni011A" unicode="&#x011A;" d="M525 1590L244 1908L497 1908L642 1735L662 1735L807 1908L1060 1908L779 1590L525 1590M1130 0L174 0L174 1443L1130 1443L1130 1185L476 1185L476 848L1093 848L1093 609L476 609L476 258L1130 258L1130 0Z"  horiz-adv-x="1274" vert-adv-y="2048"  />

      
      <glyph glyph-name="uni011B" unicode="&#x011B;" d="M475 1251L200 1605L463 1605L612 1396L630 1396L778 1605L1041 1605L766 1251L475 1251M622 904Q521 904 455 839Q390 774 382 667L852 667Q847 777 786 840Q724 904 622 904M1129 314Q1096 157 962 67Q827-24 625-24Q373-24 232 127Q91 277 91 546Q91 815 233 971Q375 1127 621 1127Q865 1127 1001 980Q1138 833 1138 570L1138 481L381 481L381 466Q384 343 452 272Q519 200 633 200Q810 200 858 314L1129 314Z"  horiz-adv-x="1231" vert-adv-y="2048"  />

      
      <glyph glyph-name="uni011C" unicode="&#x011C;" d="M1215 1591L950 1591L804 1778L786 1778L640 1591L375 1591L659 1926L931 1926L1215 1591M1442 589Q1442 300 1270 131Q1098-37 802-37Q480-37 295 166Q110 369 110 723Q110 1072 295 1276Q480 1480 795 1480Q1051 1480 1224 1344Q1397 1208 1429 983L1129 983Q1095 1093 1008 1153Q921 1214 795 1214Q620 1214 520 1084Q419 953 419 726Q419 495 524 362Q628 229 807 229Q955 229 1050 309Q1143 389 1148 520L1149 546L836 546L836 773L1442 773L1442 589Z"  horiz-adv-x="1557" vert-adv-y="2048"  />

      
      <glyph glyph-name="uni011D" unicode="&#x011D;" d="M1063 1251L800 1251L652 1460L634 1460L485 1251L222 1251L497 1605L788 1605L1063 1251M887 561Q887 707 820 792Q752 877 635 877Q518 877 452 792Q387 708 387 562Q387 415 452 331Q517 246 635 246Q753 246 820 331Q887 415 887 561M631-418Q413-418 275-329Q140-241 126-95L414-95Q425-146 484-176Q543-206 637-206Q754-206 819-154Q884-103 884-10L884 194L866 194Q772 16 534 16Q328 16 208 164Q88 311 88 561Q88 818 209 969Q331 1121 540 1121Q652 1121 741 1069Q831 1017 875 926L893 926L893 1103L1175 1103L1175 4Q1175-190 1028-304Q881-418 631-418Z"  horiz-adv-x="1322" vert-adv-y="2048"  />

      
      <glyph glyph-name="uni011E" unicode="&#x011E;" d="M1442 589Q1442 300 1270 131Q1098-37 802-37Q480-37 295 166Q110 369 110 723Q110 1072 295 1276Q480 1480 795 1480Q1051 1480 1224 1344Q1397 1208 1429 983L1129 983Q1095 1093 1008 1153Q921 1214 795 1214Q620 1214 520 1084Q419 953 419 726Q419 495 524 362Q628 229 807 229Q955 229 1050 309Q1143 389 1148 520L1149 546L836 546L836 773L1442 773L1442 589M603 1916Q605 1841 656 1797Q708 1752 795 1752Q882 1752 934 1797Q985 1841 987 1916L1195 1916Q1195 1766 1088 1674Q978 1580 795 1580Q612 1580 502 1674Q395 1766 395 1916L603 1916Z"  horiz-adv-x="1557" vert-adv-y="2048"  />

      
      <glyph glyph-name="uni011F" unicode="&#x011F;" d="M450 1602Q452 1521 502 1473Q554 1424 642 1424Q730 1424 782 1473Q832 1521 834 1602L1042 1602Q1042 1446 935 1350Q825 1251 642 1251Q459 1251 350 1350Q243 1446 243 1602L450 1602M887 561Q887 707 820 792Q752 877 635 877Q518 877 452 792Q387 708 387 562Q387 415 452 331Q517 246 635 246Q753 246 820 331Q887 415 887 561M631-418Q413-418 275-329Q140-241 126-95L414-95Q425-146 484-176Q543-206 637-206Q754-206 819-154Q884-103 884-10L884 194L866 194Q772 16 534 16Q328 16 208 164Q88 311 88 561Q88 818 209 969Q331 1121 540 1121Q652 1121 741 1069Q831 1017 875 926L893 926L893 1103L1175 1103L1175 4Q1175-190 1028-304Q881-418 631-418Z"  horiz-adv-x="1322" vert-adv-y="2048"  />

      
      <glyph glyph-name="uni0120" unicode="&#x0120;" d="M795 1580Q726 1580 681 1625Q637 1670 637 1738Q637 1806 681 1851Q726 1896 795 1896Q864 1896 908 1851Q952 1806 952 1738Q952 1670 908 1625Q864 1580 795 1580M1442 589Q1442 300 1270 131Q1098-37 802-37Q480-37 295 166Q110 369 110 723Q110 1072 295 1276Q480 1480 795 1480Q1051 1480 1224 1344Q1397 1208 1429 983L1129 983Q1095 1093 1008 1153Q921 1214 795 1214Q620 1214 520 1084Q419 953 419 726Q419 495 524 362Q628 229 807 229Q955 229 1050 309Q1143 389 1148 520L1149 546L836 546L836 773L1442 773L1442 589Z"  horiz-adv-x="1557" vert-adv-y="2048"  />

      
      <glyph glyph-name="uni0121" unicode="&#x0121;" d="M643 1278Q573 1278 527 1324Q482 1369 482 1438Q482 1507 527 1553Q573 1599 643 1599Q713 1599 759 1553Q804 1507 804 1438Q804 1369 759 1324Q713 1278 643 1278M887 561Q887 707 820 792Q752 877 635 877Q518 877 452 792Q387 708 387 562Q387 415 452 331Q517 246 635 246Q753 246 820 331Q887 415 887 561M631-418Q413-418 275-329Q140-241 126-95L414-95Q425-146 484-176Q543-206 637-206Q754-206 819-154Q884-103 884-10L884 194L866 194Q772 16 534 16Q328 16 208 164Q88 311 88 561Q88 818 209 969Q331 1121 540 1121Q652 1121 741 1069Q831 1017 875 926L893 926L893 1103L1175 1103L1175 4Q1175-190 1028-304Q881-418 631-418Z"  horiz-adv-x="1322" vert-adv-y="2048"  />

      
      <glyph glyph-name="uni0122" unicode="&#x0122;" d="M548-509L680-151L972-151L806-509L548-509M1442 589Q1442 300 1270 131Q1098-37 802-37Q480-37 295 166Q110 369 110 723Q110 1072 295 1276Q480 1480 795 1480Q1051 1480 1224 1344Q1397 1208 1429 983L1129 983Q1095 1093 1008 1153Q921 1214 795 1214Q620 1214 520 1084Q419 953 419 726Q419 495 524 362Q628 229 807 229Q955 229 1050 309Q1143 389 1148 520L1149 546L836 546L836 773L1442 773L1442 589Z"  horiz-adv-x="1557" vert-adv-y="2048"  />

      
      <glyph glyph-name="uni0123" unicode="&#x0123;" d="M926 1649L794 1291L502 1291L668 1649L926 1649M887 561Q887 707 820 792Q752 877 635 877Q518 877 452 792Q387 708 387 562Q387 415 452 331Q517 246 635 246Q753 246 820 331Q887 415 887 561M631-418Q413-418 275-329Q140-241 126-95L414-95Q425-146 484-176Q543-206 637-206Q754-206 819-154Q884-103 884-10L884 194L866 194Q772 16 534 16Q328 16 208 164Q88 311 88 561Q88 818 209 969Q331 1121 540 1121Q652 1121 741 1069Q831 1017 875 926L893 926L893 1103L1175 1103L1175 4Q1175-190 1028-304Q881-418 631-418Z"  horiz-adv-x="1322" vert-adv-y="2048"  />

      
      <glyph glyph-name="uni0124" unicode="&#x0124;" d="M1126 0L1126 603L476 603L476 0L174 0L174 1443L476 1443L476 861L1126 861L1126 1443L1428 1443L1428 0L1126 0M1221 1590L956 1590L810 1777L792 1777L646 1590L381 1590L665 1925L937 1925L1221 1590Z"  horiz-adv-x="1604" vert-adv-y="2048"  />

      
      <glyph glyph-name="uni0125" unicode="&#x0125;" d="M156 1524L442 1524L442 922L460 922Q498 1016 591 1070Q684 1124 806 1124Q991 1124 1093 1016Q1196 908 1196 710L1196 0L905 0L905 641Q905 873 689 873Q580 873 513 807Q447 741 447 633L447 0L156 0L156 1524M719 1671L454 1671L308 1858L290 1858L144 1671L-121 1671L163 2006L435 2006L719 1671Z"  horiz-adv-x="1332" vert-adv-y="2048"  />

      
      <glyph glyph-name="uni0126" unicode="&#x0126;" d="M1102 1055L452 1055L452 861L1102 861L1102 1055M1532 1055L1404 1055L1404 0L1102 0L1102 603L452 603L452 0L150 0L150 1055L22 1055L22 1261L150 1261L150 1443L452 1443L452 1261L1102 1261L1102 1443L1404 1443L1404 1261L1532 1261L1532 1055Z"  horiz-adv-x="1556" vert-adv-y="2048"  />

      
      <glyph glyph-name="uni0127" unicode="&#x0127;" d="M457 922Q495 1016 589 1070Q683 1124 805 1124Q991 1124 1094 1016Q1198 908 1198 710L1198 0L907 0L907 641Q907 755 850 814Q794 873 689 873Q580 873 512 807Q444 740 444 633L444 0L153 0L153 1260L2 1260L2 1412L153 1412L153 1561L439 1561L439 1412L688 1412L688 1260L439 1260L439 922L457 922Z"  horiz-adv-x="1334" vert-adv-y="2048"  />

      
      <glyph glyph-name="uni0128" unicode="&#x0128;" d="M175 0L175 1443L477 1443L477 0L175 0M485 1577Q396 1577 312 1646Q229 1715 190 1715Q108 1715 104 1587L-80 1587Q-80 1732-10 1816Q56 1896 167 1896Q261 1896 346 1827Q430 1758 462 1758Q542 1758 549 1882L732 1882Q732 1741 663 1658Q595 1577 485 1577Z"  horiz-adv-x="652" vert-adv-y="2048"  />

      
      <glyph glyph-name="uni0129" unicode="&#x0129;" d="M151 1103L442 1103L442 0L151 0L151 1103M170 1397Q84 1397 82 1256L-105 1256Q-105 1401-33 1489Q38 1577 156 1577Q241 1577 322 1505Q404 1433 434 1433Q521 1433 522 1571L709 1571Q709 1427 638 1340Q566 1253 448 1253Q363 1253 282 1325Q200 1397 170 1397Z"  horiz-adv-x="593" vert-adv-y="2048"  />

      
      <glyph glyph-name="uni012A" unicode="&#x012A;" d="M175 0L175 1443L477 1443L477 0L175 0M-47 1632L-47 1813L699 1813L699 1632L-47 1632Z"  horiz-adv-x="652" vert-adv-y="2048"  />

      
      <glyph glyph-name="uni012B" unicode="&#x012B;" d="M151 1103L442 1103L442 0L151 0L151 1103M-70 1316L-70 1496L665 1496L665 1316L-70 1316Z"  horiz-adv-x="593" vert-adv-y="2048"  />

      
      <glyph glyph-name="uni012C" unicode="&#x012C;" d="M175 0L175 1443L477 1443L477 0L175 0M134 1915Q136 1840 187 1796Q239 1751 326 1751Q413 1751 465 1796Q516 1840 518 1915L726 1915Q726 1765 619 1673Q509 1579 326 1579Q143 1579 33 1673Q-74 1765-74 1915L134 1915Z"  horiz-adv-x="652" vert-adv-y="2048"  />

      
      <glyph glyph-name="uni012D" unicode="&#x012D;" d="M151 1103L442 1103L442 0L151 0L151 1103M104 1602Q106 1521 156 1473Q208 1424 296 1424Q384 1424 436 1473Q486 1521 488 1602L696 1602Q696 1446 589 1350Q479 1251 296 1251Q113 1251 4 1350Q-103 1446-103 1602L104 1602Z"  horiz-adv-x="593" vert-adv-y="2048"  />

      
      <glyph glyph-name="uni012E" unicode="&#x012E;" d="M480-441Q420-466 332-466Q218-466 150-406Q81-347 81-248Q81-95 237 10L174 10L174 1443L476 1443L476 4L434 4Q285-87 285-186Q285-232 318-261Q351-289 405-289Q442-289 480-280L480-441Z"  horiz-adv-x="652" vert-adv-y="2048"  />

      
      <glyph glyph-name="uni012F" unicode="&#x012F;" d="M293 1257Q215 1257 168 1298Q121 1339 121 1404Q121 1470 168 1510Q215 1551 293 1551Q371 1551 418 1510Q465 1470 465 1404Q465 1339 418 1298Q370 1257 293 1257M441-444Q379-469 292-469Q179-469 110-409Q41-350 41-251Q41-97 204 10L147 10L147 1103L438 1103L438 9L396 9Q246-82 246-189Q246-235 279-263Q312-291 366-291Q408-291 441-282L441-444Z"  horiz-adv-x="593" vert-adv-y="2048"  />

      
      <glyph glyph-name="uni0130" unicode="&#x0130;" d="M174 0L174 1443L476 1443L476 0L174 0M325 1579Q256 1579 211 1624Q167 1669 167 1737Q167 1805 211 1850Q256 1895 325 1895Q394 1895 438 1850Q482 1805 482 1737Q482 1669 438 1624Q394 1579 325 1579Z"  horiz-adv-x="652" vert-adv-y="2048"  />

      
      <glyph glyph-name="uni0131" unicode="&#x0131;" d="M150 1103L441 1103L441 0L150 0L150 1103Z"  horiz-adv-x="593" vert-adv-y="2048"  />

      
      <glyph glyph-name="uni0132" unicode="&#x0132;" d="M174 0L174 1443L476 1443L476 0L174 0M1019 424Q1021 337 1073 285Q1126 233 1213 233Q1405 233 1405 450L1405 1443L1707 1443L1707 448Q1707 216 1577 89Q1448-37 1217-37Q994-37 861 87Q727 213 727 424L1019 424Z"  horiz-adv-x="1883" vert-adv-y="2048"  />

      
      <glyph glyph-name="uni0133" unicode="&#x0133;" d="M147 1103L438 1103L438 0L147 0L147 1103M293 1257Q215 1257 168 1298Q121 1339 121 1404Q121 1470 168 1510Q215 1551 293 1551Q371 1551 418 1510Q465 1470 465 1404Q465 1339 418 1298Q370 1257 293 1257M1035-33Q1035-374 645-374Q603-374 567-371L567-147Q579-149 604-149Q680-149 712-119Q744-91 744-24L744 1103L1035 1103L1035-33M890 1257Q812 1257 765 1298Q718 1339 718 1404Q718 1470 765 1510Q812 1551 890 1551Q968 1551 1015 1510Q1062 1470 1062 1404Q1062 1339 1015 1298Q967 1257 890 1257Z"  horiz-adv-x="1194" vert-adv-y="2048"  />

      
      <glyph glyph-name="uni0134" unicode="&#x0134;" d="M367 424Q369 337 421 285Q474 233 561 233Q753 233 753 450L753 1443L1055 1443L1055 448Q1055 216 925 89Q796-37 565-37Q342-37 209 87Q75 213 75 424L367 424M1324 1590L1059 1590L913 1777L895 1777L749 1590L484 1590L768 1925L1040 1925L1324 1590Z"  horiz-adv-x="1231" vert-adv-y="2048"  />

      
      <glyph glyph-name="uni0135" unicode="&#x0135;" d="M436-33Q436-374 46-374Q4-374-32-371L-32-147Q-20-149 5-149Q81-149 113-119Q145-91 145-24L145 1103L436 1103L436-33M715 1251L452 1251L304 1460L286 1460L137 1251L-126 1251L149 1605L440 1605L715 1251Z"  horiz-adv-x="587" vert-adv-y="2048"  />

      
      <glyph glyph-name="uni0136" unicode="&#x0136;" d="M174 0L174 1443L476 1443L476 800L494 800L1027 1443L1363 1443L837 810L1400 0L1038 0L619 604L476 435L476 0L174 0M437-509L569-151L861-151L695-509L437-509Z"  horiz-adv-x="1453" vert-adv-y="2048"  />

      
      <glyph glyph-name="uni0137" unicode="&#x0137;" d="M833 1103L1164 1103L744 630L1193 0L848 0L526 448L446 366L446 0L155 0L155 1524L446 1524L446 672L464 672L833 1103M386-509L518-151L810-151L644-509L386-509Z"  horiz-adv-x="1232" vert-adv-y="2048"  />

      
      <glyph glyph-name="uni0139" unicode="&#x0139;" d="M461 1908L776 1908L462 1590L184 1590L461 1908M1118 0L174 0L174 1443L476 1443L476 263L1118 263L1118 0Z"  horiz-adv-x="1218" vert-adv-y="2048"  />

      
      <glyph glyph-name="uni013A" unicode="&#x013A;" d="M437 1989L752 1989L438 1671L160 1671L437 1989M155 1524L446 1524L446 0L155 0L155 1524Z"  horiz-adv-x="603" vert-adv-y="2048"  />

      
      <glyph glyph-name="uni013B" unicode="&#x013B;" d="M377-509L509-151L801-151L635-509L377-509M1118 0L174 0L174 1443L476 1443L476 263L1118 263L1118 0Z"  horiz-adv-x="1218" vert-adv-y="2048"  />

      
      <glyph glyph-name="uni013C" unicode="&#x013C;" d="M37-509L169-151L461-151L295-509L37-509M155 1524L446 1524L446 0L155 0L155 1524Z"  horiz-adv-x="603" vert-adv-y="2048"  />

      
      <glyph glyph-name="uni013D" unicode="&#x013D;" d="M920 1443L870 939L674 939L674 1443L920 1443M1118 0L174 0L174 1443L476 1443L476 263L1118 263L1118 0Z"  horiz-adv-x="1218" vert-adv-y="2048"  />

      
      <glyph glyph-name="uni013E" unicode="&#x013E;" d="M803 1524L753 1019L552 1019L552 1524L803 1524M155 1524L446 1524L446 0L155 0L155 1524Z"  horiz-adv-x="774" vert-adv-y="2048"  />

      
      <glyph glyph-name="uni0141" unicode="&#x0141;" d="M1118 263L1118 0L174 0L174 661L22 583L22 788L174 866L174 1443L476 1443L476 1020L714 1142L714 937L476 815L476 263L1118 263Z"  horiz-adv-x="1194" vert-adv-y="2048"  />

      
      <glyph glyph-name="uni0142" unicode="&#x0142;" d="M570 889L446 823L446 0L155 0L155 668L31 602L31 807L155 873L155 1524L446 1524L446 1028L570 1094L570 889Z"  horiz-adv-x="603" vert-adv-y="2048"  />

      
      <glyph glyph-name="uni0143" unicode="&#x0143;" d="M918 1908L1233 1908L919 1590L641 1590L918 1908M174 0L174 1443L426 1443L1090 544L1108 544L1108 1443L1397 1443L1397 0L1147 0L481 903L463 903L463 0L174 0Z"  horiz-adv-x="1573" vert-adv-y="2048"  />

      
      <glyph glyph-name="uni0144" unicode="&#x0144;" d="M758 1634L1067 1634L780 1281L511 1281L758 1634M145 1103L427 1103L427 926L445 926Q483 1019 575 1073Q667 1127 788 1127Q972 1127 1073 1019Q1173 911 1173 713L1173 0L882 0L882 644Q882 876 672 876Q564 876 500 810Q436 745 436 636L436 0L145 0L145 1103Z"  horiz-adv-x="1310" vert-adv-y="2048"  />

      
      <glyph glyph-name="uni0145" unicode="&#x0145;" d="M518-509L650-151L942-151L776-509L518-509M174 0L174 1443L426 1443L1090 544L1108 544L1108 1443L1397 1443L1397 0L1147 0L481 903L463 903L463 0L174 0Z"  horiz-adv-x="1573" vert-adv-y="2048"  />

      
      <glyph glyph-name="uni0146" unicode="&#x0146;" d="M395-509L527-151L819-151L653-509L395-509M145 1103L427 1103L427 926L445 926Q483 1019 575 1073Q667 1127 788 1127Q972 1127 1073 1019Q1173 911 1173 713L1173 0L882 0L882 644Q882 876 672 876Q564 876 500 810Q436 745 436 636L436 0L145 0L145 1103Z"  horiz-adv-x="1310" vert-adv-y="2048"  />

      
      <glyph glyph-name="uni0147" unicode="&#x0147;" d="M655 1590L374 1908L627 1908L772 1735L792 1735L937 1908L1190 1908L909 1590L655 1590M174 0L174 1443L426 1443L1090 544L1108 544L1108 1443L1397 1443L1397 0L1147 0L481 903L463 903L463 0L174 0Z"  horiz-adv-x="1573" vert-adv-y="2048"  />

      
      <glyph glyph-name="uni0148" unicode="&#x0148;" d="M520 1251L245 1605L508 1605L657 1396L675 1396L823 1605L1086 1605L811 1251L520 1251M145 1103L427 1103L427 926L445 926Q483 1019 575 1073Q667 1127 788 1127Q972 1127 1073 1019Q1173 911 1173 713L1173 0L882 0L882 644Q882 876 672 876Q564 876 500 810Q436 745 436 636L436 0L145 0L145 1103Z"  horiz-adv-x="1310" vert-adv-y="2048"  />

      
      <glyph glyph-name="uni014C" unicode="&#x014C;" d="M805 1480Q1125 1480 1311 1276Q1498 1072 1498 722Q1498 371 1312 167Q1125-37 805-37Q484-37 297 167Q110 371 110 722Q110 1072 299 1277Q486 1480 805 1480M805 1215Q629 1215 524 1082Q419 948 419 722Q419 496 523 362Q628 228 805 228Q981 228 1086 362Q1190 496 1190 722Q1190 948 1086 1082Q981 1215 805 1215M432 1632L432 1813L1178 1813L1178 1632L432 1632Z"  horiz-adv-x="1610" vert-adv-y="2048"  />

      
      <glyph glyph-name="uni014D" unicode="&#x014D;" d="M267 1316L267 1496L1002 1496L1002 1316L267 1316M634 214Q750 214 814 303Q878 391 878 552Q878 711 814 800Q749 889 634 889Q518 889 454 800Q390 711 390 552Q390 391 454 302Q517 214 634 214M634-24Q380-24 235 129Q91 282 91 552Q91 820 237 973Q382 1127 634 1127Q886 1127 1032 974Q1177 820 1177 552Q1177 282 1033 129Q888-24 634-24Z"  horiz-adv-x="1269" vert-adv-y="2048"  />

      
      <glyph glyph-name="uni014E" unicode="&#x014E;" d="M805 1480Q1125 1480 1311 1276Q1498 1072 1498 722Q1498 371 1312 167Q1125-37 805-37Q484-37 297 167Q110 371 110 722Q110 1072 299 1277Q486 1480 805 1480M805 1215Q629 1215 524 1082Q419 948 419 722Q419 496 523 362Q628 228 805 228Q981 228 1086 362Q1190 496 1190 722Q1190 948 1086 1082Q981 1215 805 1215M613 1915Q615 1840 666 1796Q718 1751 805 1751Q892 1751 944 1796Q995 1840 997 1915L1205 1915Q1205 1765 1098 1673Q988 1579 805 1579Q622 1579 512 1673Q405 1765 405 1915L613 1915Z"  horiz-adv-x="1610" vert-adv-y="2048"  />

      
      <glyph glyph-name="uni014F" unicode="&#x014F;" d="M441 1602Q443 1521 493 1473Q545 1424 633 1424Q721 1424 773 1473Q823 1521 825 1602L1033 1602Q1033 1446 926 1350Q816 1251 633 1251Q450 1251 341 1350Q234 1446 234 1602L441 1602M634 214Q750 214 814 303Q878 391 878 552Q878 711 814 800Q749 889 634 889Q518 889 454 800Q390 711 390 552Q390 391 454 302Q517 214 634 214M634-24Q380-24 235 129Q91 282 91 552Q91 820 237 973Q382 1127 634 1127Q886 1127 1032 974Q1177 820 1177 552Q1177 282 1033 129Q888-24 634-24Z"  horiz-adv-x="1269" vert-adv-y="2048"  />

      
      <glyph glyph-name="uni0150" unicode="&#x0150;" d="M1126 1908L1396 1908L1118 1590L874 1590L1126 1908M688 1908L959 1908L681 1590L437 1590L688 1908M805 1480Q1125 1480 1311 1276Q1498 1072 1498 722Q1498 371 1312 167Q1125-37 805-37Q484-37 297 167Q110 371 110 722Q110 1072 299 1277Q486 1480 805 1480M805 1215Q629 1215 524 1082Q419 948 419 722Q419 496 523 362Q628 228 805 228Q981 228 1086 362Q1190 496 1190 722Q1190 948 1086 1082Q981 1215 805 1215Z"  horiz-adv-x="1610" vert-adv-y="2048"  />

      
      <glyph glyph-name="uni0151" unicode="&#x0151;" d="M923 1634L1182 1634L940 1281L711 1281L923 1634M487 1634L746 1634L504 1281L275 1281L487 1634M634 214Q750 214 814 303Q878 391 878 552Q878 711 814 800Q749 889 634 889Q518 889 454 800Q390 711 390 552Q390 391 454 302Q517 214 634 214M634-24Q380-24 235 129Q91 282 91 552Q91 820 237 973Q382 1127 634 1127Q886 1127 1032 974Q1177 820 1177 552Q1177 282 1033 129Q888-24 634-24Z"  horiz-adv-x="1269" vert-adv-y="2048"  />

      
      </font>
</defs>
</svg>
