<?xml version="1.0" standalone="no"?>
  <!DOCTYPE svg PUBLIC "-//W3C//DTD SVG 1.1//EN" "http://www.w3.org/Graphics/SVG/1.1/DTD/svg11.dtd" >
  <svg>
  <metadata>
  Created by font-carrier
  </metadata>
  <defs>
  <font id="SFUIText-SemiboldItalic" horiz-adv-x="2898" vert-adv-y="2898" >
    <font-face
      
      font-family="SF UI Text"
      
      font-weight="400"
      
      font-stretch="normal"
      
      units-per-em="2048"
      
      ascent="1950"
      
      descent="-494"
      
    />
      <missing-glyph />

      

      
      <glyph glyph-name="uni21" unicode="&#x21;" d="M723 1444L495 477L264 477L447 1444L723 1444M305-26Q231-26 184 20Q139 64 139 130Q139 201 184 246Q230 293 305 293Q379 293 425 247Q470 203 470 136Q470 66 425 21Q379-26 305-26Z"  horiz-adv-x="695" vert-adv-y="2048"  />

      
      <glyph glyph-name="uni22" unicode="&#x22;" d="M274 857L398 1443L615 1443L491 857L274 857M705 857L829 1443L1047 1443L923 857L705 857Z"  horiz-adv-x="972" vert-adv-y="2048"  />

      
      <glyph glyph-name="uni23" unicode="&#x23;" d="M1139 873L1017 587L1225 587L1148 393L940 393L776 0L576 0L740 393L485 393L321 0L122 0L286 393L80 393L158 587L364 587L485 873L280 873L357 1065L562 1065L720 1443L919 1443L762 1065L1017 1065L1175 1443L1375 1443L1217 1065L1424 1065L1348 873L1139 873M549 574L822 574L954 886L679 886L549 574Z"  horiz-adv-x="1337" vert-adv-y="2048"  />

      
      <glyph glyph-name="uni24" unicode="&#x24;" d="M732 189Q853 192 924 251Q993 308 993 398Q993 463 951 509Q911 552 818 591L732 189M820 1254Q712 1251 644 1195Q577 1140 577 1058Q577 944 740 876L820 1254M904 815Q1251 687 1251 429Q1251 224 1098 101Q948-20 703-20L687-20L662-139L524-139L553-5Q381 31 275 141Q167 253 160 407L407 407Q427 251 597 205L689 639L633 659Q319 773 319 1037Q319 1225 463 1343Q609 1462 846 1462L864 1462L892 1593L1031 1593L999 1444Q1156 1405 1251 1296Q1347 1187 1349 1044L1107 1044Q1087 1184 954 1234L868 828L904 815Z"  horiz-adv-x="1384" vert-adv-y="2048"  />

      
      <glyph glyph-name="uni25" unicode="&#x25;" d="M611 1304Q546 1304 498 1233Q450 1163 450 1066Q450 1000 478 961Q506 922 554 922Q619 922 666 994Q713 1065 713 1164Q713 1229 686 1267Q659 1304 611 1304M158 0L882 758L1488 1443L1756 1443L1019 675L427 0L158 0M545 752Q412 752 332 837Q252 922 252 1065Q252 1236 358 1355Q464 1473 617 1473Q751 1473 831 1388Q911 1303 911 1161Q911 991 805 871Q698 752 545 752M1362 522Q1297 522 1249 451Q1201 380 1201 283Q1201 217 1229 178Q1257 139 1304 139Q1369 139 1416 211Q1463 283 1463 381Q1463 447 1436 485Q1409 522 1362 522M1296-31Q1162-31 1082 54Q1002 140 1002 282Q1002 454 1108 572Q1214 691 1368 691Q1501 691 1581 606Q1661 520 1661 379Q1661 208 1555 89Q1448-31 1296-31Z"  horiz-adv-x="1734" vert-adv-y="2048"  />

      
      <glyph glyph-name="uni26" unicode="&#x26;" d="M641 1099Q641 1019 736 893Q996 977 996 1148Q996 1212 951 1251Q906 1289 835 1289Q755 1289 698 1233Q641 1178 641 1099M623 166Q792 166 913 246L629 669L603 660Q580 652 579 651Q341 564 341 391Q341 293 417 230Q495 166 623 166M1017 83Q839-27 605-27Q391-27 247 86Q102 200 102 370Q102 654 466 796L534 824Q418 992 418 1115Q418 1264 538 1367Q658 1470 836 1470Q1000 1470 1109 1385Q1217 1299 1217 1170Q1217 893 832 753L1077 400Q1185 532 1199 722L1202 762L1419 762L1415 716Q1389 430 1193 223L1342 0L1072 0L1017 83Z"  horiz-adv-x="1500" vert-adv-y="2048"  />

      
      <glyph glyph-name="uni27" unicode="&#x27;" d="M274 857L398 1443L615 1443L491 857L274 857Z"  horiz-adv-x="541" vert-adv-y="2048"  />

      
      <glyph glyph-name="uni28" unicode="&#x28;" d="M300-277Q184-40 184 310Q184 629 304 926Q426 1228 646 1443L911 1443Q690 1221 567 926Q438 620 438 293Q438-4 528-277L300-277Z"  horiz-adv-x="776" vert-adv-y="2048"  />

      
      <glyph glyph-name="uni29" unicode="&#x29;" d="M570 1443Q686 1206 686 855Q686 537 566 240Q444-62 225-277L-40-277Q180-55 304 239Q432 544 432 872Q432 1169 342 1443L570 1443Z"  horiz-adv-x="775" vert-adv-y="2048"  />

      
      <glyph glyph-name="uni2a" unicode="&#x2a;" d="M701 914L666 608L485 616L582 927L290 766L233 939L544 1039L287 1191L413 1346L626 1136L662 1447L843 1439L745 1125L1038 1287L1095 1115L784 1015L1040 862L915 707L701 914Z"  horiz-adv-x="1032" vert-adv-y="2048"  />

      
      <glyph glyph-name="uni2b" unicode="&#x2b;" d="M741 55L520 55L610 474L194 474L240 692L654 692L743 1110L964 1110L876 692L1296 692L1250 474L831 474L741 55Z"  horiz-adv-x="1383" vert-adv-y="2048"  />

      
      <glyph glyph-name="uni2c" unicode="&#x2c;" d="M38-381L252 231L509 231L241-381L38-381Z"  horiz-adv-x="688" vert-adv-y="2048"  />

      
      <glyph glyph-name="uni2d" unicode="&#x2d;" d="M192 465L240 698L897 698L848 465L192 465Z"  horiz-adv-x="983" vert-adv-y="2048"  />

      
      <glyph glyph-name="uni2e" unicode="&#x2e;" d="M278-21Q209-21 163 25Q118 70 118 134Q118 202 163 248Q208 295 278 295Q348 295 394 249Q438 205 438 141Q438 72 394 26Q348-21 278-21Z"  horiz-adv-x="674" vert-adv-y="2048"  />

      
      <glyph glyph-name="uni2f" unicode="&#x2f;" d="M-86-302L709 1443L940 1443L141-302L-86-302Z"  horiz-adv-x="750" vert-adv-y="2048"  />

      
      <glyph glyph-name="uni30" unicode="&#x30;" d="M664-36Q445-36 317 112Q189 259 189 508Q189 924 387 1203Q584 1479 872 1479Q1091 1479 1219 1331Q1347 1184 1347 934Q1347 516 1150 239Q954-36 664-36M448 498Q448 348 508 264Q567 180 675 180Q841 180 965 407Q1089 635 1089 944Q1089 1093 1029 1178Q969 1263 863 1263Q696 1263 572 1035Q448 807 448 498Z"  horiz-adv-x="1361" vert-adv-y="2048"  />

      
      <glyph glyph-name="uni31" unicode="&#x31;" d="M678 1167L660 1167L248 917L302 1179L736 1443L993 1443L686 0L428 0L678 1167Z"  horiz-adv-x="1016" vert-adv-y="2048"  />

      
      <glyph glyph-name="uni32" unicode="&#x32;" d="M283 1038Q301 1232 451 1355Q602 1479 819 1479Q1019 1479 1152 1370Q1284 1261 1284 1096Q1284 966 1194 849Q1108 737 856 530L500 235L496 217L1152 217L1107 0L87 0L127 193L705 676Q904 841 965 916Q1027 992 1027 1071Q1027 1156 962 1211Q898 1266 797 1266Q693 1266 619 1205Q544 1143 525 1041L525 1037L283 1038Z"  horiz-adv-x="1288" vert-adv-y="2048"  />

      
      <glyph glyph-name="uni33" unicode="&#x33;" d="M590 842L788 842Q909 842 988 909Q1067 976 1067 1079Q1067 1164 1001 1216Q934 1268 827 1268Q733 1268 659 1215Q585 1163 558 1077L317 1077Q355 1260 499 1370Q644 1479 849 1479Q1054 1479 1187 1374Q1321 1270 1321 1109Q1321 969 1227 866Q1133 763 985 740L982 722Q1102 696 1167 620Q1232 543 1232 427Q1232 224 1073 94Q915-36 668-36Q442-36 295 79Q148 194 147 371Q147 382 151 420L395 420L395 415Q390 314 468 248Q547 182 674 182Q810 182 891 253Q973 323 973 441Q973 530 899 586Q824 642 707 642L549 642L590 842Z"  horiz-adv-x="1336" vert-adv-y="2048"  />

      
      <glyph glyph-name="uni34" unicode="&#x34;" d="M810 269L103 269L144 509Q384 825 927 1443L1306 1443L1102 487L1297 487L1252 269L1057 269L999 0L752 0L810 269M387 481L859 481L1019 1233L1005 1233Q664 849 390 496L387 481Z"  horiz-adv-x="1378" vert-adv-y="2048"  />

      
      <glyph glyph-name="uni35" unicode="&#x35;" d="M677-36Q461-36 316 83Q171 201 171 378Q171 386 173 412L415 412L415 408Q417 306 493 243Q569 180 689 180Q828 180 915 273Q1002 364 1002 506Q1002 621 928 691Q857 758 743 758Q582 758 485 643L244 643L487 1443L1348 1443L1302 1225L649 1225L530 845L547 844Q659 951 830 951Q1008 951 1129 833Q1252 714 1252 535Q1252 284 1095 125Q935-36 677-36Z"  horiz-adv-x="1327" vert-adv-y="2048"  />

      
      <glyph glyph-name="uni36" unicode="&#x36;" d="M1285 528Q1285 289 1119 127Q953-36 709-36Q469-36 331 114Q192 264 192 524Q192 904 375 1182Q569 1479 897 1479Q1103 1479 1240 1362Q1377 1244 1383 1062L1128 1062Q1117 1154 1051 1208Q983 1262 880 1262Q731 1262 623 1131Q513 1000 467 765L485 764Q621 948 855 948Q1043 948 1164 830Q1285 712 1285 528M773 749Q637 749 543 657Q449 564 449 431Q449 319 523 249Q597 179 716 179Q848 179 939 273Q1030 367 1030 503Q1030 611 958 680Q886 749 773 749Z"  horiz-adv-x="1369" vert-adv-y="2048"  />

      
      <glyph glyph-name="uni37" unicode="&#x37;" d="M1016 1209L1019 1226L304 1226L350 1443L1333 1443L1287 1223L409 0L129 0L1016 1209Z"  horiz-adv-x="1213" vert-adv-y="2048"  />

      
      <glyph glyph-name="uni38" unicode="&#x38;" d="M1263 418Q1263 220 1098 92Q933-36 679-36Q440-36 289 75Q137 185 137 359Q137 520 248 637Q358 755 533 777L537 794Q449 832 397 905Q346 977 346 1063Q346 1243 495 1361Q644 1479 870 1479Q1074 1479 1214 1374Q1353 1269 1353 1115Q1353 975 1264 875Q1174 774 1027 749L1023 731Q1136 690 1199 608Q1263 524 1263 418M718 653Q584 653 496 577Q407 502 407 387Q407 286 484 226Q561 167 690 167Q825 167 914 242Q1002 316 1002 431Q1002 530 923 592Q844 653 718 653M593 1039Q593 954 659 901Q725 847 829 847Q943 847 1019 916Q1095 985 1095 1087Q1095 1173 1029 1226Q964 1279 858 1279Q743 1279 668 1211Q593 1143 593 1039Z"  horiz-adv-x="1376" vert-adv-y="2048"  />

      
      <glyph glyph-name="uni39" unicode="&#x39;" d="M762 692Q897 692 991 784Q1085 877 1085 1011Q1085 1123 1012 1193Q939 1262 820 1262Q688 1262 597 1169Q506 1075 506 938Q506 830 578 761Q650 692 762 692M250 915Q250 1156 416 1317Q581 1479 827 1479Q1067 1479 1204 1329Q1342 1179 1342 918Q1342 540 1158 261Q964-36 640-36Q435-36 297 79Q159 195 151 373L406 373Q415 285 483 232Q551 180 657 180Q808 180 918 312Q1028 443 1071 676L1054 677Q919 493 686 493Q495 493 373 612Q250 731 250 915Z"  horiz-adv-x="1368" vert-adv-y="2048"  />

      
      <glyph glyph-name="uni3a" unicode="&#x3a;" d="M278-21Q209-21 163 25Q118 70 118 134Q118 202 163 248Q208 295 278 295Q348 295 394 249Q438 205 438 141Q438 72 394 26Q348-21 278-21M436 729Q367 729 321 775Q276 819 276 883Q276 951 321 997Q366 1044 436 1044Q505 1044 551 998Q596 954 596 890Q596 822 551 776Q506 729 436 729Z"  horiz-adv-x="674" vert-adv-y="2048"  />

      
      <glyph glyph-name="uni3b" unicode="&#x3b;" d="M-18-381L197 231L454 231L185-381L-18-381M437 729Q368 729 322 775Q277 819 277 883Q277 951 322 997Q367 1044 437 1044Q507 1044 553 998Q597 954 597 890Q597 822 553 776Q507 729 437 729Z"  horiz-adv-x="674" vert-adv-y="2048"  />

      
      <glyph glyph-name="uni3c" unicode="&#x3c;" d="M1083-32L263 518L305 719L1338 1170L1284 907L536 610L533 593L1135 220L1083-32Z"  horiz-adv-x="1383" vert-adv-y="2048"  />

      
      <glyph glyph-name="uni3d" unicode="&#x3d;" d="M151 251L197 470L1246 470L1201 251L151 251M245 697L290 916L1340 916L1294 697L245 697Z"  horiz-adv-x="1384" vert-adv-y="2048"  />

      
      <glyph glyph-name="uni3e" unicode="&#x3e;" d="M401 1170L1221 620L1179 419L146-32L201 231L948 527L951 545L349 918L401 1170Z"  horiz-adv-x="1384" vert-adv-y="2048"  />

      
      <glyph glyph-name="uni3f" unicode="&#x3f;" d="M236 1066Q264 1242 391 1347Q522 1456 723 1456Q923 1456 1049 1355Q1171 1257 1171 1107Q1171 980 1094 874Q1017 769 885 710Q774 661 729 617Q682 572 668 498L659 449L421 449L436 519Q459 647 518 718Q573 783 693 836Q911 937 911 1085Q911 1153 859 1198Q803 1246 709 1246Q623 1246 560 1198Q497 1150 473 1066L236 1066M479-25Q405-25 358 18Q311 61 311 129Q311 201 358 248Q405 295 479 295Q551 295 599 252Q646 208 646 140Q646 69 600 23Q552-25 479-25Z"  horiz-adv-x="1108" vert-adv-y="2048"  />

      
      <glyph glyph-name="uni40" unicode="&#x40;" d="M1149 1442Q1473 1442 1686 1253Q1898 1064 1898 775Q1898 503 1762 319Q1626 135 1426 135Q1325 135 1259 182Q1194 228 1194 301L1195 323L1177 322Q1098 181 938 181Q801 181 717 274Q634 366 634 520Q634 729 751 874Q868 1018 1037 1018Q1125 1018 1192 973Q1259 927 1275 856L1293 855L1318 980L1507 980L1382 406Q1378 382 1378 371Q1378 286 1471 286Q1572 286 1652 433Q1732 581 1732 768Q1732 998 1564 1145Q1397 1292 1135 1292Q819 1292 600 1067Q381 841 381 515Q381 241 570 76Q759-89 1074-89Q1187-89 1249-70L1218-220Q1123-239 1020-239Q665-239 440-32Q216 174 216 501Q216 905 482 1174Q748 1442 1149 1442M1231 652Q1231 739 1186 791Q1141 843 1066 843Q971 843 904 752Q837 660 837 530Q837 447 881 398Q924 349 998 349Q1095 349 1163 438Q1231 526 1231 652Z"  horiz-adv-x="1892" vert-adv-y="2048"  />

      
      <glyph glyph-name="uni41" unicode="&#x41;" d="M1010 369L475 369L272 0L2 0L831 1443L1114 1443L1315 0L1053 0L1010 369M579 573L994 573L922 1166L904 1166L579 573Z"  horiz-adv-x="1457" vert-adv-y="2048"  />

      
      <glyph glyph-name="uni42" unicode="&#x42;" d="M107 0L414 1443L971 1443Q1156 1443 1269 1357Q1382 1271 1382 1129Q1382 989 1293 887Q1203 784 1061 761L1058 743Q1176 722 1245 645Q1313 569 1313 457Q1313 257 1158 129Q1002 0 761 0L107 0M546 840L806 840Q945 840 1032 905Q1120 970 1120 1073Q1120 1242 878 1242L632 1242L546 840M726 208Q866 208 957 280Q1049 352 1049 461Q1049 654 792 654L506 654L410 208L726 208Z"  horiz-adv-x="1393" vert-adv-y="2048"  />

      
      <glyph glyph-name="uni43" unicode="&#x43;" d="M1281 954Q1282 956 1282 963Q1274 1092 1184 1170Q1093 1248 951 1248Q739 1248 595 1057Q451 865 451 583Q451 404 544 299Q636 195 794 195Q926 195 1028 260Q1130 326 1167 433L1426 433Q1376 218 1200 91Q1023-36 771-36Q506-36 347 128Q187 291 187 563Q187 962 408 1221Q629 1479 968 1479Q1211 1479 1374 1337Q1537 1195 1537 983Q1537 974 1535 954L1281 954Z"  horiz-adv-x="1507" vert-adv-y="2048"  />

      
      <glyph glyph-name="uni44" unicode="&#x44;" d="M886 1443Q1171 1443 1331 1283Q1491 1123 1491 840Q1491 477 1278 239Q1064 0 740 0L108 0L414 1443L886 1443M415 222L725 222Q943 222 1083 388Q1225 554 1225 815Q1225 1005 1123 1113Q1020 1222 838 1222L630 1222L415 222Z"  horiz-adv-x="1517" vert-adv-y="2048"  />

      
      <glyph glyph-name="uni45" unicode="&#x45;" d="M1042 0L107 0L414 1443L1349 1443L1302 1220L628 1220L545 837L1182 837L1138 627L501 627L413 223L1088 223L1042 0Z"  horiz-adv-x="1253" vert-adv-y="2048"  />

      
      <glyph glyph-name="uni46" unicode="&#x46;" d="M107 0L414 1443L1335 1443L1288 1220L628 1220L537 800L1141 800L1096 585L492 585L368 0L107 0Z"  horiz-adv-x="1211" vert-adv-y="2048"  />

      
      <glyph glyph-name="uni47" unicode="&#x47;" d="M1479 563Q1419 271 1241 117Q1063-36 784-36Q515-36 352 130Q188 296 188 570Q188 967 408 1223Q627 1479 967 1479Q1202 1479 1365 1347Q1527 1215 1537 1017L1537 982L1283 982Q1275 1101 1184 1174Q1092 1247 950 1247Q737 1247 595 1060Q453 872 453 590Q453 407 549 302Q645 196 811 196Q963 196 1074 283Q1184 370 1213 514L1220 550L879 550L922 751L1517 751L1479 563Z"  horiz-adv-x="1551" vert-adv-y="2048"  />

      
      <glyph glyph-name="uni48" unicode="&#x48;" d="M1065 0L1199 623L500 623L366 0L107 0L414 1443L674 1443L546 846L1245 846L1373 1443L1634 1443L1327 0L1065 0Z"  horiz-adv-x="1575" vert-adv-y="2048"  />

      
      <glyph glyph-name="uni49" unicode="&#x49;" d="M107 0L414 1443L674 1443L367 0L107 0Z"  horiz-adv-x="616" vert-adv-y="2048"  />

      
      <glyph glyph-name="uni4a" unicode="&#x4a;" d="M349 386L349 380Q350 297 402 248Q454 200 544 200Q726 200 776 431L992 1443L1249 1443L1025 387Q981 182 856 74Q728-36 528-36Q330-36 209 77Q88 190 96 366Q96 379 97 386L349 386Z"  horiz-adv-x="1182" vert-adv-y="2048"  />

      
      <glyph glyph-name="uni4b" unicode="&#x4b;" d="M107 0L414 1443L671 1443L530 784L547 784L1248 1443L1561 1443L879 796L1286 0L993 0L668 639L462 449L365 0L107 0Z"  horiz-adv-x="1416" vert-adv-y="2048"  />

      
      <glyph glyph-name="uni4c" unicode="&#x4c;" d="M1027 0L107 0L414 1443L674 1443L414 226L1074 226L1027 0Z"  horiz-adv-x="1199" vert-adv-y="2048"  />

      
      <glyph glyph-name="uni4d" unicode="&#x4d;" d="M107 0L414 1443L708 1443L915 392L932 392L1591 1443L1906 1443L1599 0L1357 0L1574 1015L1560 1015L956 56L772 56L581 1015L566 1015L349 0L107 0Z"  horiz-adv-x="1847" vert-adv-y="2048"  />

      
      <glyph glyph-name="uni4e" unicode="&#x4e;" d="M107 0L414 1443L626 1443L1124 432L1142 432L1359 1443L1612 1443L1305 0L1094 0L593 1005L576 1005L360 0L107 0Z"  horiz-adv-x="1553" vert-adv-y="2048"  />

      
      <glyph glyph-name="uni4f" unicode="&#x4f;" d="M797-36Q527-36 356 137Q187 308 187 571Q187 966 412 1223Q636 1479 974 1479Q1245 1479 1415 1306Q1581 1136 1581 872Q1581 475 1357 219Q1136-36 797-36M1315 851Q1315 1029 1218 1137Q1120 1246 961 1246Q746 1246 600 1057Q454 868 454 591Q454 413 552 305Q650 196 810 196Q1026 196 1170 383Q1315 570 1315 851Z"  horiz-adv-x="1603" vert-adv-y="2048"  />

      
      <glyph glyph-name="uni50" unicode="&#x50;" d="M934 1443Q1134 1443 1259 1331Q1385 1218 1385 1032Q1385 776 1214 622Q1047 473 779 473L469 473L368 0L108 0L414 1443L934 1443M513 687L773 687Q931 687 1026 773Q1122 860 1122 1009Q1122 1114 1053 1171Q986 1227 865 1227L630 1227L513 687Z"  horiz-adv-x="1345" vert-adv-y="2048"  />

      
      <glyph glyph-name="uni51" unicode="&#x51;" d="M1084-149L1013-6Q914-36 797-36Q528-36 356 137Q187 308 187 571Q187 966 413 1224Q636 1479 974 1479Q1246 1479 1415 1306Q1581 1137 1581 872Q1581 621 1485 417Q1390 215 1219 97L1337-149L1084-149M810 194Q871 194 918 206L796 456L1041 456L1107 335Q1317 512 1317 852Q1317 1030 1219 1139Q1121 1248 962 1248Q746 1248 599 1059Q452 870 452 591Q452 412 551 303Q649 194 810 194Z"  horiz-adv-x="1603" vert-adv-y="2048"  />

      
      <glyph glyph-name="uni52" unicode="&#x52;" d="M414 1443L959 1443Q1158 1443 1280 1332Q1403 1222 1403 1044Q1403 880 1304 752Q1203 622 1035 573L1237 0L959 0L781 541L483 541L367 0L107 0L414 1443M525 746L819 746Q961 746 1050 823Q1138 900 1138 1021Q1138 1118 1078 1174Q1018 1229 913 1229L630 1229L525 746Z"  horiz-adv-x="1389" vert-adv-y="2048"  />

      
      <glyph glyph-name="uni53" unicode="&#x53;" d="M362 407Q381 304 472 241Q561 179 689 179Q820 179 902 238Q984 297 984 392Q984 466 931 515Q877 564 751 605L606 652Q450 703 365 803Q280 904 280 1038Q280 1228 436 1354Q591 1479 827 1479Q1052 1479 1201 1357Q1349 1235 1360 1042L1113 1042Q1094 1144 1014 1204Q933 1264 815 1264Q698 1264 622 1208Q545 1152 545 1066Q545 935 752 866L894 819Q1248 702 1248 428Q1248 220 1088 92Q927-36 669-36Q431-36 281 82Q129 202 110 407L362 407Z"  horiz-adv-x="1331" vert-adv-y="2048"  />

      
      <glyph glyph-name="uni54" unicode="&#x54;" d="M464 0L724 1220L281 1220L327 1443L1474 1443L1428 1220L984 1220L724 0L464 0Z"  horiz-adv-x="1328" vert-adv-y="2048"  />

      
      <glyph glyph-name="uni55" unicode="&#x55;" d="M760-36Q508-36 360 96Q219 222 217 426Q217 491 230 553L418 1443L678 1443L493 563Q480 502 481 449Q485 331 562 265Q641 197 784 197Q924 197 1020 278Q1118 359 1150 505L1349 1443L1610 1443L1399 449Q1350 218 1187 93Q1020-36 760-36Z"  horiz-adv-x="1549" vert-adv-y="2048"  />

      
      <glyph glyph-name="uni56" unicode="&#x56;" d="M505 0L307 1443L573 1443L705 305L723 305L1319 1443L1608 1443L802 0L505 0Z"  horiz-adv-x="1442" vert-adv-y="2048"  />

      
      <glyph glyph-name="uni57" unicode="&#x57;" d="M651 0L405 0L325 1443L577 1443L609 369L623 369L1138 1443L1353 1443L1424 369L1439 369L1919 1443L2184 1443L1497 0L1247 0L1168 1022L1153 1022L651 0Z"  horiz-adv-x="2036" vert-adv-y="2048"  />

      
      <glyph glyph-name="uni58" unicode="&#x58;" d="M657 747L343 1443L634 1443L859 920L876 920L1315 1443L1604 1443L964 713L1290 0L1007 0L770 522L752 522L304 0L19 0L657 747Z"  horiz-adv-x="1456" vert-adv-y="2048"  />

      
      <glyph glyph-name="uni59" unicode="&#x59;" d="M506 0L627 564L308 1443L576 1443L799 821L816 821L1292 1443L1577 1443L882 547L767 0L506 0Z"  horiz-adv-x="1412" vert-adv-y="2048"  />

      
      <glyph glyph-name="uni5a" unicode="&#x5a;" d="M105 176L1068 1203L1071 1220L349 1220L395 1443L1452 1443L1415 1267L454 240L452 223L1210 223L1165 0L68 0L105 176Z"  horiz-adv-x="1373" vert-adv-y="2048"  />

      
      <glyph glyph-name="uni5b" unicode="&#x5b;" d="M959 1444L919 1253L629 1253L350-49L653-49L613-240L71-240L429 1444L959 1444Z"  horiz-adv-x="815" vert-adv-y="2048"  />

      
      <glyph glyph-name="uni5c" unicode="&#x5c;" d="M293 1443L515 1443L559-302L338-302L293 1443Z"  horiz-adv-x="750" vert-adv-y="2048"  />

      
      <glyph glyph-name="uni5d" unicode="&#x5d;" d="M502-240L-32-240L7-49L302-49L581 1253L282 1253L322 1443L860 1443L502-240Z"  horiz-adv-x="815" vert-adv-y="2048"  />

      
      <glyph glyph-name="uni5e" unicode="&#x5e;" d="M390 820L159 820L582 1424L812 1424L977 820L760 820L671 1226L653 1226L390 820Z"  horiz-adv-x="930" vert-adv-y="2048"  />

      
      <glyph glyph-name="uni5f" unicode="&#x5f;" d="M-137-298L-97-107L847-107L808-298L-137-298Z"  horiz-adv-x="934" vert-adv-y="2048"  />

      
      <glyph glyph-name="uni60" unicode="&#x60;" d="M763 1275L528 1622L799 1622L999 1275L763 1275Z"  horiz-adv-x="1079" vert-adv-y="2048"  />

      
      <glyph glyph-name="uni61" unicode="&#x61;" d="M517 176Q620 176 700 235Q780 294 800 385L823 491L573 480Q462 476 399 431Q336 388 336 316Q336 255 387 215Q437 176 517 176M419-18Q279-18 184 68Q90 154 90 282Q90 447 216 543Q343 639 572 647L858 658L873 728Q878 753 878 772Q878 838 825 876Q771 914 678 914Q517 914 469 802L228 802Q263 947 390 1031Q517 1116 697 1116Q890 1116 1007 1029Q1125 942 1125 800Q1125 760 1116 711L965 0L724 0L753 138L736 138Q627-18 419-18Z"  horiz-adv-x="1174" vert-adv-y="2048"  />

      
      <glyph glyph-name="uni62" unicode="&#x62;" d="M716-18Q601-18 509 43Q417 103 387 199L370 199L326 0L87 0L409 1517L657 1517L536 942L554 943Q671 1112 888 1112Q1054 1112 1160 996Q1267 879 1267 692Q1267 389 1108 185Q949-18 716-18M671 196Q815 196 912 326Q1009 457 1009 651Q1009 771 948 838Q888 903 784 903Q640 903 539 771Q438 640 438 454Q438 333 502 264Q565 196 671 196Z"  horiz-adv-x="1310" vert-adv-y="2048"  />

      
      <glyph glyph-name="uni63" unicode="&#x63;" d="M937 732Q932 811 870 859Q808 907 718 907Q576 907 483 779Q391 652 391 462Q391 331 456 258Q518 188 622 188Q809 188 865 350L1107 350Q1077 187 943 84Q804-22 605-22Q394-22 267 104Q140 230 140 440Q140 732 306 923Q474 1116 735 1116Q915 1116 1039 1014Q1156 918 1174 777Q1177 756 1177 732L937 732Z"  horiz-adv-x="1181" vert-adv-y="2048"  />

      
      <glyph glyph-name="uni64" unicode="&#x64;" d="M522-18Q355-18 248 98Q137 218 137 415Q137 715 299 915Q458 1112 694 1112Q812 1112 899 1052Q983 995 1011 902L1029 902L1159 1517L1409 1517L1087 0L846 0L878 151L861 151Q735-18 522-18M625 191Q769 191 869 323Q968 454 968 641Q968 761 904 831Q841 899 735 899Q591 899 493 774Q394 647 394 456Q394 336 459 263Q523 191 625 191Z"  horiz-adv-x="1314" vert-adv-y="2048"  />

      
      <glyph glyph-name="uni65" unicode="&#x65;" d="M612-22Q405-22 276 100Q142 227 142 443Q142 744 305 930Q467 1116 726 1116Q918 1116 1042 995Q1171 870 1172 663Q1172 586 1156 490L383 490L382 451Q382 318 457 245Q524 180 628 180Q805 180 865 302L1110 302Q1073 157 942 69Q806-22 612-22M929 658Q932 667 932 698Q932 793 875 854Q815 918 713 918Q605 918 524 847Q444 777 412 658L929 658Z"  horiz-adv-x="1224" vert-adv-y="2048"  />

      
      <glyph glyph-name="uni66" unicode="&#x66;" d="M347 889L171 889L212 1087L386 1087L409 1205Q440 1364 536 1437Q630 1508 802 1508Q882 1508 962 1490L924 1307Q886 1318 814 1318Q681 1318 653 1180L635 1087L870 1087L829 889L597 889L410 0L160 0L347 889Z"  horiz-adv-x="801" vert-adv-y="2048"  />

      
      <glyph glyph-name="uni67" unicode="&#x67;" d="M519-416Q312-416 178-321Q47-229 44-91L295-91Q303-151 365-188Q431-227 536-227Q776-227 824-20L869 177L852 177Q740 20 526 20Q360 20 251 136Q141 254 141 441Q141 729 298 921Q453 1112 684 1112Q798 1112 889 1053Q981 994 1012 899L1029 899L1071 1094L1312 1094L1067-47Q1030-220 887-317Q742-416 519-416M626 212Q768 212 864 333Q961 456 961 641Q961 759 897 829Q832 899 724 899Q582 899 490 782Q397 663 397 475Q397 353 459 282Q520 212 626 212Z"  horiz-adv-x="1298" vert-adv-y="2048"  />

      
      <glyph glyph-name="uni68" unicode="&#x68;" d="M409 1512L658 1512L533 930L550 930Q671 1114 889 1114Q1044 1114 1141 1020Q1234 930 1234 795Q1234 735 1219 666L1079 0L830 0L962 625Q974 680 974 716Q974 801 916 853Q859 904 764 904Q657 904 577 835Q500 767 476 658L336 0L87 0L409 1512Z"  horiz-adv-x="1290" vert-adv-y="2048"  />

      
      <glyph glyph-name="uni69" unicode="&#x69;" d="M322 1094L573 1094L339 0L89 0L322 1094M514 1272Q446 1272 403 1311Q361 1348 361 1406Q361 1465 403 1505Q447 1546 514 1546Q581 1546 624 1508Q667 1470 667 1412Q667 1353 624 1313Q581 1272 514 1272Z"  horiz-adv-x="569" vert-adv-y="2048"  />

      
      <glyph glyph-name="uni6a" unicode="&#x6a;" d="M323-74Q257-381-63-383Q-117-383-175-374L-133-175Q-101-180-74-180Q53-180 81-45L324 1094L572 1094L323-74M515 1272Q447 1272 404 1311Q362 1348 362 1406Q362 1465 404 1505Q448 1546 515 1546Q582 1546 625 1508Q668 1470 668 1412Q668 1353 625 1313Q582 1272 515 1272Z"  horiz-adv-x="569" vert-adv-y="2048"  />

      
      <glyph glyph-name="uni6b" unicode="&#x6b;" d="M979 1094L1277 1094L735 618L1076 0L799 0L535 479L418 385L336 0L87 0L409 1517L658 1517L478 671L495 671L979 1094Z"  horiz-adv-x="1165" vert-adv-y="2048"  />

      
      <glyph glyph-name="uni6c" unicode="&#x6c;" d="M409 1517L659 1517L337 0L87 0L409 1517Z"  horiz-adv-x="565" vert-adv-y="2048"  />

      
      <glyph glyph-name="uni6d" unicode="&#x6d;" d="M311 1100L552 1100L514 924L531 924Q580 1011 662 1063Q746 1116 840 1116Q951 1116 1030 1056Q1102 1001 1124 919L1141 919Q1267 1116 1493 1116Q1626 1116 1713 1031Q1800 945 1800 814Q1800 756 1786 686L1641 0L1392 0L1529 646Q1540 701 1540 738Q1540 811 1495 857Q1449 904 1371 904Q1285 904 1217 843Q1147 779 1124 673L981 0L738 0L875 646Q886 701 886 738Q886 811 841 857Q795 904 718 904Q632 904 564 843Q493 781 472 680L327 0L78 0L311 1100Z"  horiz-adv-x="1852" vert-adv-y="2048"  />

      
      <glyph glyph-name="uni6e" unicode="&#x6e;" d="M311 1100L552 1100L515 930L533 930Q654 1116 877 1116Q1028 1116 1124 1022Q1217 931 1217 795Q1217 738 1203 666L1062 0L813 0L946 625Q957 678 957 716Q957 801 901 852Q845 904 751 904Q646 904 567 835Q491 767 467 658L327 0L78 0L311 1100Z"  horiz-adv-x="1273" vert-adv-y="2048"  />

      
      <glyph glyph-name="uni6f" unicode="&#x6f;" d="M401 460Q401 337 462 263Q526 186 634 186Q763 186 858 310Q956 438 956 622Q956 757 896 833Q836 908 730 908Q583 908 491 779Q401 652 401 460M615-22Q402-22 271 108Q141 237 141 447Q141 730 306 920Q476 1116 745 1116Q959 1116 1088 986Q1217 857 1217 647Q1217 368 1054 178Q883-22 615-22Z"  horiz-adv-x="1267" vert-adv-y="2048"  />

      
      <glyph glyph-name="uni70" unicode="&#x70;" d="M666 196Q810 196 907 326Q1004 457 1004 651Q1004 771 943 838Q883 903 779 903Q635 903 534 771Q433 640 433 454Q433 333 497 264Q560 196 666 196M7-350L315 1094L555 1094L523 943L540 943Q666 1112 882 1112Q1048 1112 1154 996Q1262 879 1262 692Q1262 389 1102 185Q943-18 708-18Q591-18 504 43Q419 102 392 199L374 199L256-350L7-350Z"  horiz-adv-x="1305" vert-adv-y="2048"  />

      
      <glyph glyph-name="uni71" unicode="&#x71;" d="M619 191Q763 191 864 323Q965 454 965 641Q965 761 901 831Q838 899 732 899Q589 899 491 771Q394 643 394 454Q394 329 455 259Q515 191 619 191M763-350L869 151L852 151Q727-18 515-18Q349-18 243 101Q136 221 136 412Q136 711 296 912Q456 1112 691 1112Q808 1112 900 1052Q989 993 1019 902L1036 902L1077 1094L1318 1094L1011-350L763-350Z"  horiz-adv-x="1305" vert-adv-y="2048"  />

      
      <glyph glyph-name="uni72" unicode="&#x72;" d="M305 1094L546 1094L516 948L532 948Q629 1112 812 1112Q900 1112 947 1092L898 861Q829 885 742 885Q512 885 454 619L322 0L72 0L305 1094Z"  horiz-adv-x="865" vert-adv-y="2048"  />

      
      <glyph glyph-name="uni73" unicode="&#x73;" d="M330 307Q345 244 404 206Q464 166 552 166Q646 166 704 204Q763 241 763 301Q763 383 642 422L472 479Q216 567 216 772Q216 926 339 1022Q460 1116 654 1116Q842 1116 960 1029Q1076 944 1091 800L859 800Q846 859 791 893Q735 927 652 927Q567 927 512 891Q457 854 457 797Q457 719 590 674L757 617Q891 572 952 503Q1013 434 1013 327Q1013 172 883 75Q754-22 549-22Q350-22 222 69Q95 160 87 307L330 307Z"  horiz-adv-x="1114" vert-adv-y="2048"  />

      
      <glyph glyph-name="uni74" unicode="&#x74;" d="M536-12Q382-12 299 46Q215 105 215 217Q215 259 226 312L348 883L171 883L212 1082L390 1082L446 1350L695 1350L638 1082L879 1082L838 883L598 883L487 368Q477 320 477 292Q477 188 624 188Q655 188 682 191L641-3Q583-12 536-12Z"  horiz-adv-x="809" vert-adv-y="2048"  />

      
      <glyph glyph-name="uni75" unicode="&#x75;" d="M1054 0L814 0L849 159L832 159Q725-22 488-22Q339-22 244 67Q150 155 150 297Q150 359 165 437L302 1094L552 1094L421 477Q410 418 410 378Q410 195 607 195Q716 195 796 265Q875 335 899 449L1037 1094L1286 1094L1054 0Z"  horiz-adv-x="1272" vert-adv-y="2048"  />

      
      <glyph glyph-name="uni76" unicode="&#x76;" d="M469 1094L555 269L573 269L994 1094L1262 1094L647 0L369 0L220 1094L469 1094Z"  horiz-adv-x="1157" vert-adv-y="2048"  />

      
      <glyph glyph-name="uni77" unicode="&#x77;" d="M1250 0L988 0L940 783L923 783L547 0L290 0L225 1094L463 1094L484 283L501 283L877 1094L1120 1094L1157 277L1174 277L1530 1094L1779 1094L1250 0Z"  horiz-adv-x="1681" vert-adv-y="2048"  />

      
      <glyph glyph-name="uni78" unicode="&#x78;" d="M579 372L279 0L1 0L472 551L231 1094L502 1094L649 720L666 720L961 1094L1242 1094L771 546L1013 0L752 0L596 372L579 372Z"  horiz-adv-x="1149" vert-adv-y="2048"  />

      
      <glyph glyph-name="uni79" unicode="&#x79;" d="M141-399Q62-399 14-391L52-189Q82-197 141-197Q277-197 350-53L378 1L223 1094L474 1094L561 259L578 259L1008 1094L1275 1094L625-69Q524-254 412-328Q306-399 141-399Z"  horiz-adv-x="1173" vert-adv-y="2048"  />

      
      <glyph glyph-name="uni7a" unicode="&#x7a;" d="M88 155L805 877L807 894L252 894L295 1094L1167 1094L1130 925L440 217L438 200L984 200L942 0L56 0L88 155Z"  horiz-adv-x="1140" vert-adv-y="2048"  />

      
      <glyph glyph-name="uni7b" unicode="&#x7b;" d="M385 603Q539 575 539 434Q539 397 530 352L468 66Q457 16 457-18Q457-88 501-118Q545-149 643-149L688-149L649-337L569-337Q404-337 307-267Q211-198 211-84Q211-26 225 37L278 281Q290 337 290 376Q290 438 257 464Q224 489 150 489L201 735Q298 735 345 781Q393 826 418 944L467 1168Q506 1357 631 1440Q748 1519 963 1519L1044 1519L1004 1328L959 1328Q840 1328 779 1280Q718 1232 693 1116L637 858Q591 639 389 620L385 603Z"  horiz-adv-x="889" vert-adv-y="2048"  />

      
      <glyph glyph-name="uni7c" unicode="&#x7c;" d="M114-303L486 1443L710 1443L338-303L114-303Z"  horiz-adv-x="723" vert-adv-y="2048"  />

      
      <glyph glyph-name="uni7d" unicode="&#x7d;" d="M615 580Q461 606 461 748Q461 785 470 830L532 1117Q543 1167 543 1200Q543 1270 499 1301Q455 1332 357 1332L312 1332L351 1519L431 1519Q596 1519 693 1449Q789 1381 789 1267Q789 1208 775 1146L722 902Q710 845 710 806Q710 745 743 719Q775 694 850 694L799 448Q702 448 655 402Q608 356 582 238L533 15Q494-174 369-258Q253-337 37-337L-44-337L-4-146L41-146Q160-146 221-98Q282-49 307 67L363 325Q409 544 611 563L615 580Z"  horiz-adv-x="889" vert-adv-y="2048"  />

      
      <glyph glyph-name="uni7e" unicode="&#x7e;" d="M755 491Q640 491 533 607Q467 679 458 687Q418 723 380 723Q281 723 250 561L42 561Q68 746 162 848Q252 946 381 946Q494 946 601 830Q667 757 675 749Q715 713 752 713Q852 713 883 876L1091 876Q1065 690 973 589Q885 491 755 491Z"  horiz-adv-x="1216" vert-adv-y="2048"  />

      
      <glyph glyph-name="unia1" unicode="&#xa1;" d="M67-329L296 638L526 638L343-329L67-329M486 1140Q560 1140 607 1095Q652 1051 652 985Q652 914 607 869Q560 822 486 822Q412 822 365 868Q320 912 320 978Q320 1049 365 1094Q411 1140 486 1140Z"  horiz-adv-x="695" vert-adv-y="2048"  />

      
      <glyph glyph-name="unia2" unicode="&#xa2;" d="M1235 518Q1206 366 1087 266Q964 162 785 148L747-33L530-33L572 170Q431 213 350 329Q268 446 268 611Q268 887 418 1076Q569 1265 810 1286L844 1447L1061 1447L1022 1265Q1140 1227 1215 1140Q1288 1056 1301 949Q1304 928 1304 904L1065 904Q1059 983 997 1031Q935 1079 845 1079Q703 1079 610 950Q519 823 519 633Q519 502 584 427Q646 356 749 356Q936 356 992 518L1235 518Z"  horiz-adv-x="1383" vert-adv-y="2048"  />

      
      <glyph glyph-name="unia3" unicode="&#xa3;" d="M1187 4L85 4L130 222Q270 237 379 330Q501 435 509 588Q509 612 506 643L194 643L233 831L493 831Q478 962 478 1008Q478 1229 618 1352Q764 1479 1037 1479Q1275 1479 1429 1406L1385 1197Q1268 1262 1067 1262Q912 1262 826 1196Q735 1126 735 990Q735 924 745 831L1146 831L1107 643L758 643Q759 630 759 606Q755 318 508 241L505 223L1233 223L1187 4Z"  horiz-adv-x="1384" vert-adv-y="2048"  />

      
      <glyph glyph-name="unia4" unicode="&#xa4;" d="M488 651Q488 551 560 479Q633 407 733 407Q833 407 906 479Q978 551 978 651Q978 751 906 823Q833 895 733 895Q633 895 560 823Q488 751 488 651M1116 845Q1162 755 1162 651Q1162 508 1077 393L1179 264L1008 121L904 254Q821 218 733 218Q585 218 469 310L244 123L128 274L349 458Q304 548 304 651Q304 794 389 909L286 1039L457 1182L562 1048Q645 1084 733 1084Q882 1084 996 992L1221 1178L1337 1028L1116 845Z"  horiz-adv-x="1383" vert-adv-y="2048"  />

      
      <glyph glyph-name="unia5" unicode="&#xa5;" d="M801 229L753 0L492 0L541 229L267 229L301 386L574 386L605 531L331 531L365 688L571 688L293 1443L562 1443L785 821L802 821L1277 1443L1563 1443L974 688L1169 688L1135 531L864 531L833 386L1105 386L1071 229L801 229Z"  horiz-adv-x="1384" vert-adv-y="2048"  />

      
      <glyph glyph-name="unia6" unicode="&#xa6;" d="M344 774L486 1443L710 1443L567 774L344 774M114-303L256 367L480 367L338-303L114-303Z"  horiz-adv-x="723" vert-adv-y="2048"  />

      
      <glyph glyph-name="unia7" unicode="&#xa7;" d="M598 394Q677 411 725 458Q773 505 773 567Q773 662 660 708L563 752Q481 741 428 694Q373 645 373 581Q373 492 497 440L598 394M449-277Q273-277 155-186Q35-94 29 53L254 53Q266-10 319-49Q374-90 453-90Q539-90 594-50Q648-10 648 52Q648 138 537 182L378 252Q145 352 145 542Q145 650 219 728Q290 804 412 830L415 848Q266 944 266 1087Q266 1236 383 1329Q498 1421 679 1421Q853 1421 964 1332Q1072 1244 1086 1096L866 1096Q857 1158 805 1196Q754 1233 677 1233Q598 1233 548 1195Q497 1156 497 1097Q497 1016 618 966L761 901Q1002 796 1002 611Q1002 505 932 424Q860 342 739 315L737 300Q881 204 881 62Q881-86 759-182Q637-277 449-277Z"  horiz-adv-x="1032" vert-adv-y="2048"  />

      
      <glyph glyph-name="unia8" unicode="&#xa8;" d="M545 1265Q484 1265 443 1306Q402 1346 402 1406Q402 1466 443 1507Q484 1547 545 1547Q606 1547 647 1507Q688 1466 688 1406Q688 1346 647 1306Q606 1265 545 1265M990 1265Q929 1265 888 1306Q847 1346 847 1406Q847 1466 888 1507Q929 1547 990 1547Q1051 1547 1092 1507Q1133 1466 1133 1406Q1133 1346 1092 1306Q1051 1265 990 1265Z"  horiz-adv-x="1079" vert-adv-y="2048"  />

      
      <glyph glyph-name="unia9" unicode="&#xa9;" d="M901-148Q588-148 373 61Q158 271 158 576Q158 939 407 1187Q656 1434 1021 1434Q1339 1434 1552 1227Q1765 1020 1765 711Q1765 347 1516 100Q1267-148 901-148M913 5Q1202 5 1404 208Q1607 411 1607 700Q1607 951 1438 1116Q1268 1281 1010 1281Q722 1281 519 1078Q316 875 316 587Q316 339 487 172Q658 5 913 5M1158 772Q1155 833 1110 872Q1066 910 999 910Q898 910 829 819Q761 727 761 592Q761 498 806 444Q851 390 930 390Q1057 390 1101 497L1273 497Q1245 380 1150 312Q1055 244 921 244Q773 244 682 338Q591 432 591 585Q591 788 709 921Q828 1055 1007 1055Q1148 1055 1236 976Q1324 897 1325 772L1158 772Z"  horiz-adv-x="1742" vert-adv-y="2048"  />

      
      <glyph glyph-name="uniaa" unicode="&#xaa;" d="M594 925Q507 922 458 888Q409 854 409 797Q409 747 448 716Q487 685 550 685Q629 685 689 731Q749 777 766 849L783 932L594 925M457 512Q337 512 259 584Q180 656 180 767Q180 906 284 985Q387 1065 575 1070L814 1077L827 1132Q832 1163 831 1170Q832 1222 791 1251Q749 1281 678 1281Q554 1281 518 1196L296 1196Q328 1322 432 1393Q536 1463 689 1463Q856 1463 958 1388Q1059 1312 1059 1188Q1059 1149 1052 1115L926 525L705 525L727 634L711 635Q623 512 457 512Z"  horiz-adv-x="998" vert-adv-y="2048"  />

      
      <glyph glyph-name="uniab" unicode="&#xab;" d="M943 551L941 539L1191 149L954 149L693 562L695 570L1126 982L1389 982L943 551M447 555L445 542L692 149L455 149L194 562L196 570L621 982L890 982L447 555Z"  horiz-adv-x="1426" vert-adv-y="2048"  />

      
      <glyph glyph-name="uniac" unicode="&#xac;" d="M1145 84L929 84L1012 474L218 474L263 692L1272 692L1145 84Z"  horiz-adv-x="1383" vert-adv-y="2048"  />

      
      <glyph glyph-name="uniae" unicode="&#xae;" d="M490 661L594 1152L840 1152Q905 1152 951 1110Q995 1069 995 1011Q995 947 956 902Q917 858 853 845L941 661L806 661L726 832L642 832L605 661L490 661M661 924L772 924Q868 924 868 998Q868 1053 798 1053L689 1053L661 924M222 893Q222 1112 376 1265Q529 1417 749 1417Q975 1417 1126 1268Q1277 1118 1277 893Q1277 674 1124 522Q970 369 749 369Q525 369 373 519Q222 670 222 893M1154 893Q1154 1067 1039 1182Q924 1297 749 1297Q580 1297 463 1179Q345 1062 345 893Q345 720 459 605Q574 490 747 490Q917 490 1035 608Q1154 725 1154 893Z"  horiz-adv-x="1261" vert-adv-y="2048"  />

      
      <glyph glyph-name="uniaf" unicode="&#xaf;" d="M390 1305L424 1469L1137 1469L1102 1305L390 1305Z"  horiz-adv-x="1079" vert-adv-y="2048"  />

      
      <glyph glyph-name="unib0" unicode="&#xb0;" d="M586 887Q463 887 377 974Q291 1061 291 1184Q291 1307 377 1393Q463 1480 586 1480Q709 1480 796 1393Q882 1306 882 1184Q882 1061 796 974Q709 887 586 887M586 1043Q646 1043 688 1085Q729 1126 729 1184Q729 1243 688 1284Q646 1325 586 1325Q528 1325 486 1284Q443 1242 443 1184Q443 1127 486 1085Q529 1043 586 1043Z"  horiz-adv-x="811" vert-adv-y="2048"  />

      
      <glyph glyph-name="unib1" unicode="&#xb1;" d="M137 86L178 283L1182 283L1142 86L137 86M813 399L598 399L653 654L258 654L297 846L693 846L748 1101L964 1101L908 846L1303 846L1263 654L868 654L813 399Z"  horiz-adv-x="1384" vert-adv-y="2048"  />

      
      <glyph glyph-name="unib2" unicode="&#xb2;" d="M343 1534Q352 1668 458 1755Q565 1841 720 1841Q862 1841 953 1768Q1044 1695 1044 1581Q1044 1498 989 1426Q934 1353 786 1242L688 1168Q599 1100 586 1093L584 1081L960 1081L921 897L229 897L264 1065L598 1321Q729 1419 772 1467Q815 1514 815 1560Q815 1604 783 1632Q751 1660 699 1660Q644 1660 605 1626Q565 1592 555 1536L555 1534L343 1534Z"  horiz-adv-x="894" vert-adv-y="2048"  />

      
      <glyph glyph-name="unib3" unicode="&#xb3;" d="M584 1451L701 1451Q765 1451 806 1484Q847 1517 847 1568Q847 1611 814 1637Q780 1664 724 1664Q617 1664 586 1568L374 1568Q399 1693 500 1767Q600 1841 744 1841Q887 1841 980 1772Q1071 1703 1071 1596Q1071 1506 1010 1442Q948 1378 852 1368L850 1355Q1011 1319 1011 1164Q1011 1036 906 954Q800 872 634 872Q466 872 364 963Q262 1053 278 1188L496 1188Q494 1131 532 1096Q571 1061 634 1061Q701 1061 742 1096Q782 1131 782 1188Q782 1233 745 1262Q708 1290 650 1290L551 1290L584 1451Z"  horiz-adv-x="916" vert-adv-y="2048"  />

      
      <glyph glyph-name="unib4" unicode="&#xb4;" d="M799 1622L1077 1622L719 1275L476 1275L799 1622Z"  horiz-adv-x="1079" vert-adv-y="2048"  />

      
      <glyph glyph-name="unib6" unicode="&#xb6;" d="M557-245L717 502Q533 513 421 626Q309 737 309 906Q309 1140 473 1289Q637 1438 903 1443L1160 1443L801-245L557-245M1320 1443L1564 1443L1205-245L962-245L1320 1443Z"  horiz-adv-x="1459" vert-adv-y="2048"  />

      
      <glyph glyph-name="unib7" unicode="&#xb7;" d="M431 570Q356 570 309 617Q263 662 263 732Q263 806 309 853Q355 901 431 901Q505 901 552 854Q598 808 598 739Q598 665 552 618Q506 570 431 570Z"  horiz-adv-x="689" vert-adv-y="2048"  />

      
      <glyph glyph-name="unib8" unicode="&#xb8;" d="M272-126L374 33L542 33L441-125Q607-149 607-287Q607-379 536-435Q465-492 350-492Q247-492 168-456L194-333Q263-360 338-360Q434-360 434-298Q434-233 312-233L256-233L272-126Z"  horiz-adv-x="1079" vert-adv-y="2048"  />

      
      <glyph glyph-name="unib9" unicode="&#xb9;" d="M586 1593L573 1593L321 1445L365 1658L632 1816L866 1816L670 897L437 897L586 1593Z"  horiz-adv-x="730" vert-adv-y="2048"  />

      
      <glyph glyph-name="uniba" unicode="&#xba;" d="M716 1273Q607 1273 532 1172Q458 1071 458 924Q458 814 505 753Q552 691 637 691Q744 691 820 795Q895 899 895 1047Q895 1152 847 1213Q799 1273 716 1273M623 497Q436 497 327 610Q218 722 218 915Q218 1153 365 1310Q511 1467 732 1467Q919 1467 1026 1355Q1134 1243 1134 1048Q1134 811 988 654Q843 497 623 497Z"  horiz-adv-x="1076" vert-adv-y="2048"  />

      
      <glyph glyph-name="unibb" unicode="&#xbb;" d="M334 982L572 982L833 569L831 561L400 149L137 149L583 580L585 592L334 982M836 982L1073 982L1334 569L1332 561L907 149L638 149L1081 576L1083 589L836 982Z"  horiz-adv-x="1428" vert-adv-y="2048"  />

      
      <glyph glyph-name="unibc" unicode="&#xbc;" d="M1742 147L1289 147L1328 356Q1477 560 1791 919L2127 919L2001 333L2116 333L2077 147L1963 147L1931 0L1711 0L1742 147M1528 324L1785 324L1876 749L1865 749Q1688 546 1531 336L1528 324M602 1220L589 1220L337 1072L381 1285L648 1443L882 1443L686 524L453 524L602 1220M1064 757L1516 1443L1755 1443L1229 704L772 0L533 0L1064 757Z"  horiz-adv-x="2203" vert-adv-y="2048"  />

      
      <glyph glyph-name="unibd" unicode="&#xbd;" d="M1467 637Q1476 771 1582 858Q1689 944 1844 944Q1986 944 2077 871Q2168 798 2168 684Q2168 601 2113 529Q2058 456 1910 345L1812 271Q1723 203 1710 196L1708 184L2084 184L2045 0L1353 0L1388 168L1722 424Q1853 522 1896 570Q1939 617 1939 663Q1939 707 1907 735Q1875 763 1823 763Q1768 763 1729 729Q1689 695 1679 639L1679 637L1467 637M602 1220L589 1220L337 1072L381 1285L648 1443L882 1443L686 524L453 524L602 1220M1064 757L1516 1443L1755 1443L1229 704L772 0L533 0L1064 757Z"  horiz-adv-x="2195" vert-adv-y="2048"  />

      
      <glyph glyph-name="unibe" unicode="&#xbe;" d="M540 1078L657 1078Q721 1078 762 1111Q803 1144 803 1195Q803 1238 770 1264Q736 1291 680 1291Q573 1291 542 1195L330 1195Q355 1320 456 1394Q556 1468 700 1468Q843 1468 936 1399Q1027 1330 1027 1223Q1027 1133 966 1069Q904 1005 808 995L806 982Q967 946 967 791Q967 663 862 581Q756 499 590 499Q422 499 320 590Q218 680 234 815L452 815Q450 758 488 723Q527 688 590 688Q657 688 698 723Q738 758 738 815Q738 860 701 889Q664 917 606 917L507 917L540 1078M1890 147L1437 147L1476 356Q1626 560 1939 919L2275 919L2149 333L2264 333L2225 147L2111 147L2079 0L1859 0L1890 147M1676 324L1933 324L2024 749L2013 749Q1836 546 1679 336L1676 324M1212 757L1664 1443L1903 1443L1377 704L920 0L681 0L1212 757Z"  horiz-adv-x="2337" vert-adv-y="2048"  />

      
      <glyph glyph-name="unibf" unicode="&#xbf;" d="M724 1140Q798 1140 846 1097Q893 1054 893 986Q893 914 846 868Q798 821 724 821Q652 821 605 864Q557 907 557 975Q557 1046 603 1092Q651 1140 724 1140M967 49Q939-127 813-232Q682-341 481-341Q281-341 155-241Q32-143 32 7Q32 135 110 241Q186 346 319 405Q429 454 475 498Q521 543 535 617L545 665L782 665L768 596Q744 467 685 397Q630 331 510 278Q292 178 292 30Q292-38 344-84Q400-132 494-132Q580-132 644-84Q707-36 730 49L967 49Z"  horiz-adv-x="1107" vert-adv-y="2048"  />

      
      <glyph glyph-name="unic0" unicode="&#xc0;" d="M1010 369L475 369L272 0L2 0L831 1443L1114 1443L1315 0L1053 0L1010 369M579 573L994 573L922 1166L904 1166L579 573M1118 1585L882 1585L670 1895L938 1895L1118 1585Z"  horiz-adv-x="1457" vert-adv-y="2048"  />

      
      <glyph glyph-name="unic1" unicode="&#xc1;" d="M1010 369L475 369L272 0L2 0L831 1443L1114 1443L1315 0L1053 0L1010 369M579 573L994 573L922 1166L904 1166L579 573M1229 1895L1511 1895L1125 1585L875 1585L1229 1895Z"  horiz-adv-x="1457" vert-adv-y="2048"  />

      
      <glyph glyph-name="unic2" unicode="&#xc2;" d="M1010 369L475 369L272 0L2 0L831 1443L1114 1443L1315 0L1053 0L1010 369M579 573L994 573L922 1166L904 1166L579 573M1373 1585L1147 1585L1050 1774L1033 1774L857 1585L607 1585L928 1906L1187 1906L1373 1585Z"  horiz-adv-x="1457" vert-adv-y="2048"  />

      
      <glyph glyph-name="unic3" unicode="&#xc3;" d="M1010 369L475 369L272 0L2 0L831 1443L1114 1443L1315 0L1053 0L1010 369M579 573L994 573L922 1166L904 1166L579 573M1189 1577Q1097 1577 1008 1653Q919 1728 885 1728Q801 1728 781 1619L615 1619Q633 1743 707 1816Q779 1887 880 1887Q972 1887 1061 1812Q1150 1736 1184 1736Q1268 1736 1288 1845L1454 1845Q1436 1720 1362 1648Q1290 1577 1189 1577Z"  horiz-adv-x="1457" vert-adv-y="2048"  />

      
      <glyph glyph-name="unic4" unicode="&#xc4;" d="M1010 369L475 369L272 0L2 0L831 1443L1114 1443L1315 0L1053 0L1010 369M579 573L994 573L922 1166L904 1166L579 573M808 1577Q747 1577 706 1618Q665 1658 665 1718Q665 1778 706 1819Q747 1859 808 1859Q869 1859 910 1819Q951 1778 951 1718Q951 1658 910 1618Q869 1577 808 1577M1253 1577Q1192 1577 1151 1618Q1110 1658 1110 1718Q1110 1778 1151 1819Q1192 1859 1253 1859Q1314 1859 1355 1819Q1396 1778 1396 1718Q1396 1658 1355 1618Q1314 1577 1253 1577Z"  horiz-adv-x="1457" vert-adv-y="2048"  />

      
      <glyph glyph-name="unic5" unicode="&#xc5;" d="M1010 369L475 369L272 0L2 0L831 1443L1114 1443L1315 0L1053 0L1010 369M579 573L994 573L922 1166L904 1166L579 573M1051 1576Q949 1576 880 1643Q810 1711 810 1812Q810 1913 880 1980Q949 2047 1051 2047Q1153 2047 1222 1980Q1291 1913 1291 1812Q1291 1711 1222 1643Q1153 1576 1051 1576M1050 1701Q1099 1701 1130 1732Q1162 1764 1162 1811Q1162 1859 1130 1891Q1098 1922 1050 1922Q1002 1922 971 1890Q939 1858 939 1811Q939 1764 971 1732Q1002 1701 1050 1701Z"  horiz-adv-x="1457" vert-adv-y="2048"  />

      
      <glyph glyph-name="unic6" unicode="&#xc6;" d="M1054 1235L647 603L1054 603L1190 1235L1054 1235M1012 398L524 398L264 0L1 0L924 1443L2128 1443L2081 1220L1428 1220L1344 831L1961 831L1917 620L1301 620L1214 223L1867 223L1821 0L926 0L1012 398Z"  horiz-adv-x="2025" vert-adv-y="2048"  />

      
      <glyph glyph-name="unic7" unicode="&#xc7;" d="M1281 954Q1282 956 1282 963Q1274 1092 1184 1170Q1093 1248 951 1248Q739 1248 595 1057Q451 865 451 583Q451 404 544 299Q636 195 794 195Q926 195 1028 260Q1130 326 1167 433L1426 433Q1381 236 1228 112Q1075-12 854-32L793-127Q959-151 959-289Q959-381 888-437Q817-494 702-494Q599-494 520-458L546-335Q615-362 690-362Q786-362 786-300Q786-235 664-235L608-235L624-128L686-31Q457-5 322 155Q187 315 187 563Q187 962 408 1221Q629 1479 968 1479Q1211 1479 1374 1337Q1537 1195 1537 983Q1537 974 1535 954L1281 954Z"  horiz-adv-x="1509" vert-adv-y="2048"  />

      
      <glyph glyph-name="unic8" unicode="&#xc8;" d="M1027 1585L791 1585L579 1895L847 1895L1027 1585M1042 0L107 0L414 1443L1349 1443L1302 1220L628 1220L545 837L1182 837L1138 627L501 627L413 223L1088 223L1042 0Z"  horiz-adv-x="1254" vert-adv-y="2048"  />

      
      <glyph glyph-name="unic9" unicode="&#xc9;" d="M1138 1895L1420 1895L1034 1585L784 1585L1138 1895M1042 0L107 0L414 1443L1349 1443L1302 1220L628 1220L545 837L1182 837L1138 627L501 627L413 223L1088 223L1042 0Z"  horiz-adv-x="1254" vert-adv-y="2048"  />

      
      <glyph glyph-name="unica" unicode="&#xca;" d="M1282 1585L1056 1585L959 1774L942 1774L766 1585L516 1585L837 1906L1096 1906L1282 1585M1042 0L107 0L414 1443L1349 1443L1302 1220L628 1220L545 837L1182 837L1138 627L501 627L413 223L1088 223L1042 0Z"  horiz-adv-x="1254" vert-adv-y="2048"  />

      
      <glyph glyph-name="unicb" unicode="&#xcb;" d="M717 1577Q656 1577 615 1618Q574 1658 574 1718Q574 1778 615 1819Q656 1859 717 1859Q778 1859 819 1819Q860 1778 860 1718Q860 1658 819 1618Q778 1577 717 1577M1162 1577Q1101 1577 1060 1618Q1019 1658 1019 1718Q1019 1778 1060 1819Q1101 1859 1162 1859Q1223 1859 1264 1819Q1305 1778 1305 1718Q1305 1658 1264 1618Q1223 1577 1162 1577M1042 0L107 0L414 1443L1349 1443L1302 1220L628 1220L545 837L1182 837L1138 627L501 627L413 223L1088 223L1042 0Z"  horiz-adv-x="1254" vert-adv-y="2048"  />

      
      <glyph glyph-name="unicc" unicode="&#xcc;" d="M107 0L414 1443L674 1443L367 0L107 0M691 1585L455 1585L243 1895L511 1895L691 1585Z"  horiz-adv-x="616" vert-adv-y="2048"  />

      
      <glyph glyph-name="unicd" unicode="&#xcd;" d="M107 0L414 1443L674 1443L367 0L107 0M802 1895L1084 1895L698 1585L448 1585L802 1895Z"  horiz-adv-x="616" vert-adv-y="2048"  />

      
      <glyph glyph-name="unice" unicode="&#xce;" d="M107 0L414 1443L674 1443L367 0L107 0M946 1585L720 1585L623 1774L606 1774L430 1585L180 1585L501 1906L760 1906L946 1585Z"  horiz-adv-x="616" vert-adv-y="2048"  />

      
      <glyph glyph-name="unicf" unicode="&#xcf;" d="M107 0L414 1443L674 1443L367 0L107 0M381 1577Q320 1577 279 1618Q238 1658 238 1718Q238 1778 279 1819Q320 1859 381 1859Q442 1859 483 1819Q524 1778 524 1718Q524 1658 483 1618Q442 1577 381 1577M826 1577Q765 1577 724 1618Q683 1658 683 1718Q683 1778 724 1819Q765 1859 826 1859Q887 1859 928 1819Q969 1778 969 1718Q969 1658 928 1618Q887 1577 826 1577Z"  horiz-adv-x="616" vert-adv-y="2048"  />

      
      <glyph glyph-name="unid0" unicode="&#xd0;" d="M725 222Q943 222 1083 388Q1225 554 1225 815Q1225 1005 1123 1113Q1020 1222 838 1222L630 1222L547 838L731 838L689 634L504 634L415 222L725 222M886 1443Q1171 1443 1331 1283Q1491 1123 1491 840Q1491 477 1278 239Q1064 0 740 0L108 0L242 634L59 634L102 838L286 838L414 1443L886 1443Z"  horiz-adv-x="1505" vert-adv-y="2048"  />

      
      <glyph glyph-name="unid1" unicode="&#xd1;" d="M1222 1577Q1130 1577 1041 1653Q952 1728 918 1728Q834 1728 814 1619L648 1619Q666 1743 740 1816Q812 1887 913 1887Q1005 1887 1094 1812Q1183 1736 1217 1736Q1301 1736 1321 1845L1487 1845Q1469 1720 1395 1648Q1323 1577 1222 1577M107 0L414 1443L626 1443L1124 432L1142 432L1359 1443L1612 1443L1305 0L1094 0L593 1005L576 1005L360 0L107 0Z"  horiz-adv-x="1553" vert-adv-y="2048"  />

      
      <glyph glyph-name="unid2" unicode="&#xd2;" d="M1119 1584L883 1584L671 1894L939 1894L1119 1584M797-36Q527-36 356 137Q187 308 187 571Q187 966 412 1223Q636 1479 974 1479Q1245 1479 1415 1306Q1581 1136 1581 872Q1581 475 1357 219Q1136-36 797-36M1315 851Q1315 1029 1218 1137Q1120 1246 961 1246Q746 1246 600 1057Q454 868 454 591Q454 413 552 305Q650 196 810 196Q1026 196 1170 383Q1315 570 1315 851Z"  horiz-adv-x="1603" vert-adv-y="2048"  />

      
      <glyph glyph-name="unid3" unicode="&#xd3;" d="M1230 1894L1512 1894L1126 1584L876 1584L1230 1894M797-36Q527-36 356 137Q187 308 187 571Q187 966 412 1223Q636 1479 974 1479Q1245 1479 1415 1306Q1581 1136 1581 872Q1581 475 1357 219Q1136-36 797-36M1315 851Q1315 1029 1218 1137Q1120 1246 961 1246Q746 1246 600 1057Q454 868 454 591Q454 413 552 305Q650 196 810 196Q1026 196 1170 383Q1315 570 1315 851Z"  horiz-adv-x="1603" vert-adv-y="2048"  />

      
      <glyph glyph-name="unid4" unicode="&#xd4;" d="M1374 1584L1148 1584L1051 1773L1034 1773L858 1584L608 1584L929 1905L1188 1905L1374 1584M797-36Q527-36 356 137Q187 308 187 571Q187 966 412 1223Q636 1479 974 1479Q1245 1479 1415 1306Q1581 1136 1581 872Q1581 475 1357 219Q1136-36 797-36M1315 851Q1315 1029 1218 1137Q1120 1246 961 1246Q746 1246 600 1057Q454 868 454 591Q454 413 552 305Q650 196 810 196Q1026 196 1170 383Q1315 570 1315 851Z"  horiz-adv-x="1603" vert-adv-y="2048"  />

      
      <glyph glyph-name="unid5" unicode="&#xd5;" d="M797-36Q527-36 356 137Q187 308 187 571Q187 966 412 1223Q636 1479 974 1479Q1245 1479 1415 1306Q1581 1136 1581 872Q1581 475 1357 219Q1136-36 797-36M1315 851Q1315 1029 1218 1137Q1120 1246 961 1246Q746 1246 600 1057Q454 868 454 591Q454 413 552 305Q650 196 810 196Q1026 196 1170 383Q1315 570 1315 851M1190 1576Q1098 1576 1009 1652Q920 1727 886 1727Q802 1727 782 1618L616 1618Q634 1742 708 1815Q780 1886 881 1886Q973 1886 1062 1811Q1151 1735 1185 1735Q1269 1735 1289 1844L1455 1844Q1437 1719 1363 1647Q1291 1576 1190 1576Z"  horiz-adv-x="1603" vert-adv-y="2048"  />

      
      <glyph glyph-name="unid6" unicode="&#xd6;" d="M809 1576Q748 1576 707 1617Q666 1657 666 1717Q666 1777 707 1818Q748 1858 809 1858Q870 1858 911 1818Q952 1777 952 1717Q952 1657 911 1617Q870 1576 809 1576M1254 1576Q1193 1576 1152 1617Q1111 1657 1111 1717Q1111 1777 1152 1818Q1193 1858 1254 1858Q1315 1858 1356 1818Q1397 1777 1397 1717Q1397 1657 1356 1617Q1315 1576 1254 1576M797-36Q527-36 356 137Q187 308 187 571Q187 966 412 1223Q636 1479 974 1479Q1245 1479 1415 1306Q1581 1136 1581 872Q1581 475 1357 219Q1136-36 797-36M1315 851Q1315 1029 1218 1137Q1120 1246 961 1246Q746 1246 600 1057Q454 868 454 591Q454 413 552 305Q650 196 810 196Q1026 196 1170 383Q1315 570 1315 851Z"  horiz-adv-x="1603" vert-adv-y="2048"  />

      
      <glyph glyph-name="unid7" unicode="&#xd7;" d="M718 423L354 133L228 306L592 596L358 909L537 1047L770 740L1135 1029L1261 856L896 566L1130 251L951 113L718 423Z"  horiz-adv-x="1383" vert-adv-y="2048"  />

      
      <glyph glyph-name="unid8" unicode="&#xd8;" d="M626 244Q707 196 810 196Q1026 196 1170 383Q1315 570 1315 851Q1315 1009 1236 1115L626 244M1146 1197Q1066 1246 961 1246Q746 1246 600 1057Q454 868 454 591Q454 431 535 325L1146 1197M1388 1332Q1581 1160 1581 872Q1581 475 1357 219Q1136-36 797-36Q622-36 484 40L413-61L313 9L384 110Q187 285 187 571Q187 966 412 1223Q636 1479 974 1479Q1149 1479 1289 1402L1358 1500L1462 1438L1388 1332Z"  horiz-adv-x="1577" vert-adv-y="2048"  />

      
      <glyph glyph-name="unid9" unicode="&#xd9;" d="M1157 1585L921 1585L709 1895L977 1895L1157 1585M760-36Q508-36 360 96Q219 222 217 426Q217 491 230 553L418 1443L678 1443L493 563Q480 502 481 449Q485 331 562 265Q641 197 784 197Q924 197 1020 278Q1118 359 1150 505L1349 1443L1610 1443L1399 449Q1350 218 1187 93Q1020-36 760-36Z"  horiz-adv-x="1549" vert-adv-y="2048"  />

      
      <glyph glyph-name="unida" unicode="&#xda;" d="M1268 1895L1550 1895L1164 1585L914 1585L1268 1895M760-36Q508-36 360 96Q219 222 217 426Q217 491 230 553L418 1443L678 1443L493 563Q480 502 481 449Q485 331 562 265Q641 197 784 197Q924 197 1020 278Q1118 359 1150 505L1349 1443L1610 1443L1399 449Q1350 218 1187 93Q1020-36 760-36Z"  horiz-adv-x="1549" vert-adv-y="2048"  />

      
      <glyph glyph-name="unidb" unicode="&#xdb;" d="M1412 1585L1186 1585L1089 1774L1072 1774L896 1585L646 1585L967 1906L1226 1906L1412 1585M760-36Q508-36 360 96Q219 222 217 426Q217 491 230 553L418 1443L678 1443L493 563Q480 502 481 449Q485 331 562 265Q641 197 784 197Q924 197 1020 278Q1118 359 1150 505L1349 1443L1610 1443L1399 449Q1350 218 1187 93Q1020-36 760-36Z"  horiz-adv-x="1549" vert-adv-y="2048"  />

      
      <glyph glyph-name="unidc" unicode="&#xdc;" d="M847 1577Q786 1577 745 1618Q704 1658 704 1718Q704 1778 745 1819Q786 1859 847 1859Q908 1859 949 1819Q990 1778 990 1718Q990 1658 949 1618Q908 1577 847 1577M1292 1577Q1231 1577 1190 1618Q1149 1658 1149 1718Q1149 1778 1190 1819Q1231 1859 1292 1859Q1353 1859 1394 1819Q1435 1778 1435 1718Q1435 1658 1394 1618Q1353 1577 1292 1577M760-36Q508-36 360 96Q219 222 217 426Q217 491 230 553L418 1443L678 1443L493 563Q480 502 481 449Q485 331 562 265Q641 197 784 197Q924 197 1020 278Q1118 359 1150 505L1349 1443L1610 1443L1399 449Q1350 218 1187 93Q1020-36 760-36Z"  horiz-adv-x="1549" vert-adv-y="2048"  />

      
      <glyph glyph-name="unidd" unicode="&#xdd;" d="M506 0L627 564L308 1443L576 1443L799 821L816 821L1292 1443L1577 1443L882 547L767 0L506 0M1198 1895L1480 1895L1094 1585L844 1585L1198 1895Z"  horiz-adv-x="1412" vert-adv-y="2048"  />

      
      <glyph glyph-name="unide" unicode="&#xde;" d="M415 1443L673 1443L620 1199L913 1199Q1094 1199 1210 1092Q1326 984 1326 816Q1326 596 1168 454Q1008 311 756 311L432 311L365 0L108 0L415 1443M476 526L734 526Q888 526 977 597Q1065 667 1065 790Q1065 881 1006 931Q945 982 830 982L574 982L476 526Z"  horiz-adv-x="1345" vert-adv-y="2048"  />

      
      <glyph glyph-name="unidf" unicode="&#xdf;" d="M124 0L356 1082Q392 1249 524 1344Q656 1440 849 1440Q1045 1440 1172 1340Q1299 1241 1299 1086Q1299 952 1211 857Q1124 761 987 744L983 725Q1122 704 1201 624Q1280 544 1280 422Q1280 227 1139 105Q998-17 775-17Q637-17 539 21L583 225Q654 192 756 192Q875 192 954 260Q1033 327 1033 429Q1033 519 960 570Q887 621 763 621L690 621L735 839L811 839Q911 839 980 899Q1050 959 1050 1046Q1050 1128 992 1178Q934 1229 840 1229Q742 1229 676 1169Q609 1109 586 999L373 0L124 0Z"  horiz-adv-x="1381" vert-adv-y="2048"  />

      
      <glyph glyph-name="unie0" unicode="&#xe0;" d="M517 176Q620 176 700 235Q780 294 800 385L823 491L573 480Q462 476 399 431Q336 388 336 316Q336 255 387 215Q437 176 517 176M419-18Q279-18 184 68Q90 154 90 282Q90 447 216 543Q343 639 572 647L858 658L873 728Q878 753 878 772Q878 838 825 876Q771 914 678 914Q517 914 469 802L228 802Q263 947 390 1031Q517 1116 697 1116Q890 1116 1007 1029Q1125 942 1125 800Q1125 760 1116 711L965 0L724 0L753 138L736 138Q627-18 419-18M628 1275L393 1622L664 1622L864 1275L628 1275Z"  horiz-adv-x="1174" vert-adv-y="2048"  />

      
      <glyph glyph-name="unie1" unicode="&#xe1;" d="M517 176Q620 176 700 235Q780 294 800 385L823 491L573 480Q462 476 399 431Q336 388 336 316Q336 255 387 215Q437 176 517 176M419-18Q279-18 184 68Q90 154 90 282Q90 447 216 543Q343 639 572 647L858 658L873 728Q878 753 878 772Q878 838 825 876Q771 914 678 914Q517 914 469 802L228 802Q263 947 390 1031Q517 1116 697 1116Q890 1116 1007 1029Q1125 942 1125 800Q1125 760 1116 711L965 0L724 0L753 138L736 138Q627-18 419-18M955 1622L1233 1622L875 1275L632 1275L955 1622Z"  horiz-adv-x="1174" vert-adv-y="2048"  />

      
      <glyph glyph-name="unie2" unicode="&#xe2;" d="M517 176Q620 176 700 235Q780 294 800 385L823 491L573 480Q462 476 399 431Q336 388 336 316Q336 255 387 215Q437 176 517 176M419-18Q279-18 184 68Q90 154 90 282Q90 447 216 543Q343 639 572 647L858 658L873 728Q878 753 878 772Q878 838 825 876Q771 914 678 914Q517 914 469 802L228 802Q263 947 390 1031Q517 1116 697 1116Q890 1116 1007 1029Q1125 942 1125 800Q1125 760 1116 711L965 0L724 0L753 138L736 138Q627-18 419-18M1137 1243L910 1243L797 1458L779 1458L575 1243L323 1243L675 1591L933 1591L1137 1243Z"  horiz-adv-x="1174" vert-adv-y="2048"  />

      
      <glyph glyph-name="unie3" unicode="&#xe3;" d="M517 176Q620 176 700 235Q780 294 800 385L823 491L573 480Q462 476 399 431Q336 388 336 316Q336 255 387 215Q437 176 517 176M419-18Q279-18 184 68Q90 154 90 282Q90 447 216 543Q343 639 572 647L858 658L873 728Q878 753 878 772Q878 838 825 876Q771 914 678 914Q517 914 469 802L228 802Q263 947 390 1031Q517 1116 697 1116Q890 1116 1007 1029Q1125 942 1125 800Q1125 760 1116 711L965 0L724 0L753 138L736 138Q627-18 419-18M941 1235Q846 1235 761 1321Q676 1407 639 1407Q559 1407 538 1277L369 1277Q385 1411 459 1489Q532 1566 637 1566Q732 1566 816 1481Q901 1395 938 1395Q1019 1395 1040 1524L1209 1524Q1193 1391 1119 1312Q1046 1235 941 1235Z"  horiz-adv-x="1174" vert-adv-y="2048"  />

      
      <glyph glyph-name="unie4" unicode="&#xe4;" d="M517 176Q620 176 700 235Q780 294 800 385L823 491L573 480Q462 476 399 431Q336 388 336 316Q336 255 387 215Q437 176 517 176M419-18Q279-18 184 68Q90 154 90 282Q90 447 216 543Q343 639 572 647L858 658L873 728Q878 753 878 772Q878 838 825 876Q771 914 678 914Q517 914 469 802L228 802Q263 947 390 1031Q517 1116 697 1116Q890 1116 1007 1029Q1125 942 1125 800Q1125 760 1116 711L965 0L724 0L753 138L736 138Q627-18 419-18M549 1242Q488 1242 447 1283Q406 1323 406 1383Q406 1443 447 1484Q488 1524 549 1524Q610 1524 651 1484Q692 1443 692 1383Q692 1323 651 1283Q610 1242 549 1242M994 1242Q933 1242 892 1283Q851 1323 851 1383Q851 1443 892 1484Q933 1524 994 1524Q1055 1524 1096 1484Q1137 1443 1137 1383Q1137 1323 1096 1283Q1055 1242 994 1242Z"  horiz-adv-x="1174" vert-adv-y="2048"  />

      
      <glyph glyph-name="unie5" unicode="&#xe5;" d="M517 176Q620 176 700 235Q780 294 800 385L823 491L573 480Q462 476 399 431Q336 388 336 316Q336 255 387 215Q437 176 517 176M419-18Q279-18 184 68Q90 154 90 282Q90 447 216 543Q343 639 572 647L858 658L873 728Q878 753 878 772Q878 838 825 876Q771 914 678 914Q517 914 469 802L228 802Q263 947 390 1031Q517 1116 697 1116Q890 1116 1007 1029Q1125 942 1125 800Q1125 760 1116 711L965 0L724 0L753 138L736 138Q627-18 419-18M815 1243Q713 1243 644 1310Q574 1378 574 1479Q574 1580 644 1647Q713 1714 815 1714Q917 1714 986 1647Q1055 1580 1055 1479Q1055 1378 986 1310Q917 1243 815 1243M814 1368Q863 1368 894 1399Q926 1431 926 1478Q926 1526 894 1558Q862 1589 814 1589Q766 1589 735 1557Q703 1525 703 1478Q703 1431 735 1399Q766 1368 814 1368Z"  horiz-adv-x="1174" vert-adv-y="2048"  />

      
      <glyph glyph-name="unie6" unicode="&#xe6;" d="M1287-22Q1163-22 1055 37Q945 97 901 193L884 193Q826 101 717 42Q600-22 468-22Q303-22 196 67Q91 154 91 285Q91 454 216 549Q341 644 573 652L859 662L874 728Q879 752 879 772Q879 838 826 876Q772 914 679 914Q518 914 470 802L229 802Q265 949 391 1033Q515 1116 694 1116Q943 1116 1034 956L1052 956Q1193 1116 1413 1116Q1599 1116 1723 995Q1851 868 1852 663Q1852 586 1836 490L1064 490L1063 450Q1063 316 1138 244Q1205 180 1309 180Q1485 180 1545 302L1790 302Q1753 157 1621 69Q1484-22 1287-22M1610 658Q1613 667 1613 698Q1613 793 1556 854Q1496 918 1394 918Q1286 918 1205 847Q1125 777 1093 658L1610 658M518 171Q621 171 701 233Q781 293 801 385L824 491L574 480Q463 476 400 432Q337 388 337 315Q337 253 388 212Q439 171 518 171Z"  horiz-adv-x="1904" vert-adv-y="2048"  />

      
      <glyph glyph-name="unie7" unicode="&#xe7;" d="M937 732Q932 811 870 859Q808 907 718 907Q576 907 483 779Q391 652 391 462Q391 331 456 258Q518 188 622 188Q809 188 865 350L1107 350Q1079 196 957 95Q831-9 647-21L579-127Q745-151 745-289Q745-381 674-437Q603-494 488-494Q385-494 306-458L332-335Q401-362 476-362Q572-362 572-300Q572-235 450-235L394-235L410-128L486-10Q325 24 233 143Q140 262 140 440Q140 732 306 923Q474 1116 735 1116Q915 1116 1039 1014Q1156 918 1174 777Q1177 756 1177 732L937 732Z"  horiz-adv-x="1189" vert-adv-y="2048"  />

      
      <glyph glyph-name="unie8" unicode="&#xe8;" d="M615 1275L380 1622L651 1622L851 1275L615 1275M612-22Q405-22 276 100Q142 227 142 443Q142 744 305 930Q467 1116 726 1116Q918 1116 1042 995Q1171 870 1172 663Q1172 586 1156 490L383 490L382 451Q382 318 457 245Q524 180 628 180Q805 180 865 302L1110 302Q1073 157 942 69Q806-22 612-22M929 658Q932 667 932 698Q932 793 875 854Q815 918 713 918Q605 918 524 847Q444 777 412 658L929 658Z"  horiz-adv-x="1219" vert-adv-y="2048"  />

      
      <glyph glyph-name="unie9" unicode="&#xe9;" d="M942 1622L1220 1622L862 1275L619 1275L942 1622M612-22Q405-22 276 100Q142 227 142 443Q142 744 305 930Q467 1116 726 1116Q918 1116 1042 995Q1171 870 1172 663Q1172 586 1156 490L383 490L382 451Q382 318 457 245Q524 180 628 180Q805 180 865 302L1110 302Q1073 157 942 69Q806-22 612-22M929 658Q932 667 932 698Q932 793 875 854Q815 918 713 918Q605 918 524 847Q444 777 412 658L929 658Z"  horiz-adv-x="1219" vert-adv-y="2048"  />

      
      <glyph glyph-name="uniea" unicode="&#xea;" d="M1146 1243L919 1243L806 1458L788 1458L584 1243L332 1243L684 1591L942 1591L1146 1243M612-22Q405-22 276 100Q142 227 142 443Q142 744 305 930Q467 1116 726 1116Q918 1116 1042 995Q1171 870 1172 663Q1172 586 1156 490L383 490L382 451Q382 318 457 245Q524 180 628 180Q805 180 865 302L1110 302Q1073 157 942 69Q806-22 612-22M929 658Q932 667 932 698Q932 793 875 854Q815 918 713 918Q605 918 524 847Q444 777 412 658L929 658Z"  horiz-adv-x="1219" vert-adv-y="2048"  />

      
      <glyph glyph-name="unieb" unicode="&#xeb;" d="M612-22Q405-22 276 100Q142 227 142 443Q142 744 305 930Q467 1116 726 1116Q918 1116 1042 995Q1171 870 1172 663Q1172 586 1156 490L383 490L382 451Q382 318 457 245Q524 180 628 180Q805 180 865 302L1110 302Q1073 157 942 69Q806-22 612-22M929 658Q932 667 932 698Q932 793 875 854Q815 918 713 918Q605 918 524 847Q444 777 412 658L929 658M558 1242Q497 1242 456 1283Q415 1323 415 1383Q415 1443 456 1484Q497 1524 558 1524Q619 1524 660 1484Q701 1443 701 1383Q701 1323 660 1283Q619 1242 558 1242M1003 1242Q942 1242 901 1283Q860 1323 860 1383Q860 1443 901 1484Q942 1524 1003 1524Q1064 1524 1105 1484Q1146 1443 1146 1383Q1146 1323 1105 1283Q1064 1242 1003 1242Z"  horiz-adv-x="1219" vert-adv-y="2048"  />

      
      <glyph glyph-name="uniec" unicode="&#xec;" d="M341 1275L106 1622L377 1622L577 1275L341 1275M322 1094L570 1094L338 0L90 0L322 1094Z"  horiz-adv-x="569" vert-adv-y="2048"  />

      
      <glyph glyph-name="unied" unicode="&#xed;" d="M668 1622L946 1622L588 1275L345 1275L668 1622M322 1094L570 1094L338 0L90 0L322 1094Z"  horiz-adv-x="569" vert-adv-y="2048"  />

      
      <glyph glyph-name="uniee" unicode="&#xee;" d="M872 1243L645 1243L532 1458L514 1458L310 1243L58 1243L410 1591L668 1591L872 1243M322 1094L570 1094L338 0L90 0L322 1094Z"  horiz-adv-x="569" vert-adv-y="2048"  />

      
      <glyph glyph-name="unief" unicode="&#xef;" d="M322 1094L570 1094L338 0L90 0L322 1094M284 1242Q223 1242 182 1283Q141 1323 141 1383Q141 1443 182 1484Q223 1524 284 1524Q345 1524 386 1484Q427 1443 427 1383Q427 1323 386 1283Q345 1242 284 1242M729 1242Q668 1242 627 1283Q586 1323 586 1383Q586 1443 627 1484Q668 1524 729 1524Q790 1524 831 1484Q872 1443 872 1383Q872 1323 831 1283Q790 1242 729 1242Z"  horiz-adv-x="569" vert-adv-y="2048"  />

      
      <glyph glyph-name="unif0" unicode="&#xf0;" d="M615-22Q404-22 267 107Q132 235 132 431Q132 701 282 884Q432 1067 656 1067Q765 1067 857 1019Q948 971 983 895L999 894Q993 1055 894 1233L568 1135L550 1278L811 1357Q762 1420 665 1512L944 1512Q994 1460 1020 1423L1265 1500L1285 1357L1099 1300Q1234 1052 1234 787Q1234 618 1193 475Q1128 244 975 111Q821-22 615-22M964 608Q964 723 893 794Q823 866 711 866Q577 866 483 745Q390 623 390 450Q390 332 456 262Q522 192 633 192Q762 192 863 318Q964 445 964 608Z"  horiz-adv-x="1260" vert-adv-y="2048"  />

      
      <glyph glyph-name="unif1" unicode="&#xf1;" d="M988 1239Q893 1239 808 1325Q723 1411 686 1411Q606 1411 585 1281L416 1281Q432 1415 506 1493Q579 1570 684 1570Q779 1570 863 1485Q948 1399 985 1399Q1066 1399 1087 1528L1256 1528Q1240 1395 1166 1316Q1093 1239 988 1239M311 1100L552 1100L515 930L533 930Q654 1116 877 1116Q1028 1116 1124 1022Q1217 931 1217 795Q1217 738 1203 666L1062 0L813 0L946 625Q957 678 957 716Q957 801 901 852Q845 904 751 904Q646 904 567 835Q491 767 467 658L327 0L78 0L311 1100Z"  horiz-adv-x="1271" vert-adv-y="2048"  />

      
      <glyph glyph-name="unif2" unicode="&#xf2;" d="M634 1275L399 1622L670 1622L870 1275L634 1275M401 460Q401 337 462 263Q526 186 634 186Q763 186 858 310Q956 438 956 622Q956 757 896 833Q836 908 730 908Q583 908 491 779Q401 652 401 460M615-22Q402-22 271 108Q141 237 141 447Q141 730 306 920Q476 1116 745 1116Q959 1116 1088 986Q1217 857 1217 647Q1217 368 1054 178Q883-22 615-22Z"  horiz-adv-x="1260" vert-adv-y="2048"  />

      
      <glyph glyph-name="unif3" unicode="&#xf3;" d="M961 1622L1239 1622L881 1275L638 1275L961 1622M401 460Q401 337 462 263Q526 186 634 186Q763 186 858 310Q956 438 956 622Q956 757 896 833Q836 908 730 908Q583 908 491 779Q401 652 401 460M615-22Q402-22 271 108Q141 237 141 447Q141 730 306 920Q476 1116 745 1116Q959 1116 1088 986Q1217 857 1217 647Q1217 368 1054 178Q883-22 615-22Z"  horiz-adv-x="1260" vert-adv-y="2048"  />

      
      <glyph glyph-name="unif4" unicode="&#xf4;" d="M1165 1243L938 1243L825 1458L807 1458L603 1243L351 1243L703 1591L961 1591L1165 1243M401 460Q401 337 462 263Q526 186 634 186Q763 186 858 310Q956 438 956 622Q956 757 896 833Q836 908 730 908Q583 908 491 779Q401 652 401 460M615-22Q402-22 271 108Q141 237 141 447Q141 730 306 920Q476 1116 745 1116Q959 1116 1088 986Q1217 857 1217 647Q1217 368 1054 178Q883-22 615-22Z"  horiz-adv-x="1260" vert-adv-y="2048"  />

      
      <glyph glyph-name="unif5" unicode="&#xf5;" d="M969 1235Q874 1235 789 1321Q704 1407 667 1407Q587 1407 566 1277L397 1277Q413 1411 487 1489Q560 1566 665 1566Q760 1566 844 1481Q929 1395 966 1395Q1047 1395 1068 1524L1237 1524Q1221 1391 1147 1312Q1074 1235 969 1235M401 460Q401 337 462 263Q526 186 634 186Q763 186 858 310Q956 438 956 622Q956 757 896 833Q836 908 730 908Q583 908 491 779Q401 652 401 460M615-22Q402-22 271 108Q141 237 141 447Q141 730 306 920Q476 1116 745 1116Q959 1116 1088 986Q1217 857 1217 647Q1217 368 1054 178Q883-22 615-22Z"  horiz-adv-x="1260" vert-adv-y="2048"  />

      
      <glyph glyph-name="unif6" unicode="&#xf6;" d="M577 1242Q516 1242 475 1283Q434 1323 434 1383Q434 1443 475 1484Q516 1524 577 1524Q638 1524 679 1484Q720 1443 720 1383Q720 1323 679 1283Q638 1242 577 1242M1022 1242Q961 1242 920 1283Q879 1323 879 1383Q879 1443 920 1484Q961 1524 1022 1524Q1083 1524 1124 1484Q1165 1443 1165 1383Q1165 1323 1124 1283Q1083 1242 1022 1242M401 460Q401 337 462 263Q526 186 634 186Q763 186 858 310Q956 438 956 622Q956 757 896 833Q836 908 730 908Q583 908 491 779Q401 652 401 460M615-22Q402-22 271 108Q141 237 141 447Q141 730 306 920Q476 1116 745 1116Q959 1116 1088 986Q1217 857 1217 647Q1217 368 1054 178Q883-22 615-22Z"  horiz-adv-x="1260" vert-adv-y="2048"  />

      
      <glyph glyph-name="unif7" unicode="&#xf7;" d="M196 484L237 681L1295 681L1254 484L196 484M817 813Q750 813 707 855Q666 896 666 959Q666 1025 707 1068Q750 1111 817 1111Q883 1111 926 1068Q967 1027 967 965Q967 898 926 856Q884 813 817 813M657 55Q590 55 547 97Q506 138 506 200Q506 266 547 309Q590 352 657 352Q723 352 766 310Q807 268 807 207Q807 140 766 98Q724 55 657 55Z"  horiz-adv-x="1384" vert-adv-y="2048"  />

      
      <glyph glyph-name="unif8" unicode="&#xf8;" d="M484 240Q544 186 634 186Q763 186 858 310Q956 438 956 622Q956 705 933 766L484 240M869 860Q813 908 730 908Q583 908 491 779Q401 652 401 460Q401 393 421 336L869 860M1105 968Q1217 842 1217 647Q1217 368 1054 178Q883-22 615-22Q448-22 329 60L227-60L138 5L248 133Q141 259 141 447Q141 730 306 920Q476 1116 745 1116Q908 1116 1023 1039L1120 1153L1211 1092L1105 968Z"  horiz-adv-x="1267" vert-adv-y="2048"  />

      
      <glyph glyph-name="unif9" unicode="&#xf9;" d="M684 1275L449 1622L720 1622L920 1275L684 1275M1054 0L814 0L849 159L832 159Q725-22 488-22Q339-22 244 67Q150 155 150 297Q150 359 165 437L302 1094L552 1094L421 477Q410 418 410 378Q410 195 607 195Q716 195 796 265Q875 335 899 449L1037 1094L1286 1094L1054 0Z"  horiz-adv-x="1272" vert-adv-y="2048"  />

      
      <glyph glyph-name="unifa" unicode="&#xfa;" d="M1011 1622L1289 1622L931 1275L688 1275L1011 1622M1054 0L814 0L849 159L832 159Q725-22 488-22Q339-22 244 67Q150 155 150 297Q150 359 165 437L302 1094L552 1094L421 477Q410 418 410 378Q410 195 607 195Q716 195 796 265Q875 335 899 449L1037 1094L1286 1094L1054 0Z"  horiz-adv-x="1272" vert-adv-y="2048"  />

      
      <glyph glyph-name="unifb" unicode="&#xfb;" d="M1215 1243L988 1243L875 1458L857 1458L653 1243L401 1243L753 1591L1011 1591L1215 1243M1054 0L814 0L849 159L832 159Q725-22 488-22Q339-22 244 67Q150 155 150 297Q150 359 165 437L302 1094L552 1094L421 477Q410 418 410 378Q410 195 607 195Q716 195 796 265Q875 335 899 449L1037 1094L1286 1094L1054 0Z"  horiz-adv-x="1272" vert-adv-y="2048"  />

      
      <glyph glyph-name="unifc" unicode="&#xfc;" d="M1054 0L814 0L849 159L832 159Q725-22 488-22Q339-22 244 67Q150 155 150 297Q150 359 165 437L302 1094L552 1094L421 477Q410 418 410 378Q410 195 607 195Q716 195 796 265Q875 335 899 449L1037 1094L1286 1094L1054 0M627 1242Q566 1242 525 1283Q484 1323 484 1383Q484 1443 525 1484Q566 1524 627 1524Q688 1524 729 1484Q770 1443 770 1383Q770 1323 729 1283Q688 1242 627 1242M1072 1242Q1011 1242 970 1283Q929 1323 929 1383Q929 1443 970 1484Q1011 1524 1072 1524Q1133 1524 1174 1484Q1215 1443 1215 1383Q1215 1323 1174 1283Q1133 1242 1072 1242Z"  horiz-adv-x="1272" vert-adv-y="2048"  />

      
      <glyph glyph-name="unifd" unicode="&#xfd;" d="M141-399Q62-399 14-391L52-189Q82-197 141-197Q277-197 350-53L378 1L223 1094L474 1094L561 259L578 259L1008 1094L1275 1094L625-69Q524-254 412-328Q306-399 141-399M970 1622L1248 1622L890 1275L647 1275L970 1622Z"  horiz-adv-x="1173" vert-adv-y="2048"  />

      
      <glyph glyph-name="unife" unicode="&#xfe;" d="M670 196Q814 196 911 326Q1008 457 1008 651Q1008 771 946 838Q886 903 782 903Q638 903 538 771Q437 640 437 454Q437 333 501 264Q564 196 670 196M259-350L11-350L406 1507L654 1507L535 943L552 943Q675 1113 887 1113Q1052 1113 1158 997Q1265 879 1265 692Q1265 389 1106 185Q947-18 712-18Q595-18 508 43Q423 102 395 199L378 199L259-350Z"  horiz-adv-x="1309" vert-adv-y="2048"  />

      
      <glyph glyph-name="uniff" unicode="&#xff;" d="M141-399Q62-399 14-391L52-189Q82-197 141-197Q277-197 350-53L378 1L223 1094L474 1094L561 259L578 259L1008 1094L1275 1094L625-69Q524-254 412-328Q306-399 141-399M586 1242Q525 1242 484 1283Q443 1323 443 1383Q443 1443 484 1484Q525 1524 586 1524Q647 1524 688 1484Q729 1443 729 1383Q729 1323 688 1283Q647 1242 586 1242M1031 1242Q970 1242 929 1283Q888 1323 888 1383Q888 1443 929 1484Q970 1524 1031 1524Q1092 1524 1133 1484Q1174 1443 1174 1383Q1174 1323 1133 1283Q1092 1242 1031 1242Z"  horiz-adv-x="1173" vert-adv-y="2048"  />

      
      <glyph glyph-name="uni0100" unicode="&#x0100;" d="M1010 369L475 369L272 0L2 0L831 1443L1114 1443L1315 0L1053 0L1010 369M579 573L994 573L922 1166L904 1166L579 573M651 1628L686 1792L1405 1792L1371 1628L651 1628Z"  horiz-adv-x="1457" vert-adv-y="2048"  />

      
      <glyph glyph-name="uni0101" unicode="&#x0101;" d="M517 176Q620 176 700 235Q780 294 800 385L823 491L573 480Q462 476 399 431Q336 388 336 316Q336 255 387 215Q437 176 517 176M419-18Q279-18 184 68Q90 154 90 282Q90 447 216 543Q343 639 572 647L858 658L873 728Q878 753 878 772Q878 838 825 876Q771 914 678 914Q517 914 469 802L228 802Q263 947 390 1031Q517 1116 697 1116Q890 1116 1007 1029Q1125 942 1125 800Q1125 760 1116 711L965 0L724 0L753 138L736 138Q627-18 419-18M399 1305L433 1469L1146 1469L1111 1305L399 1305Z"  horiz-adv-x="1174" vert-adv-y="2048"  />

      
      <glyph glyph-name="uni0102" unicode="&#x0102;" d="M1010 369L475 369L272 0L2 0L831 1443L1114 1443L1315 0L1053 0L1010 369M579 573L994 573L922 1166L904 1166L579 573M650 1876Q650 1892 651 1900L836 1900L836 1882Q836 1817 889 1775Q942 1733 1022 1733Q1194 1733 1233 1900L1419 1900Q1396 1753 1287 1666Q1179 1578 1017 1578Q856 1578 753 1662Q650 1746 650 1876Z"  horiz-adv-x="1457" vert-adv-y="2048"  />

      
      <glyph glyph-name="uni0103" unicode="&#x0103;" d="M517 176Q620 176 700 235Q780 294 800 385L823 491L573 480Q462 476 399 431Q336 388 336 316Q336 255 387 215Q437 176 517 176M419-18Q279-18 184 68Q90 154 90 282Q90 447 216 543Q343 639 572 647L858 658L873 728Q878 753 878 772Q878 838 825 876Q771 914 678 914Q517 914 469 802L228 802Q263 947 390 1031Q517 1116 697 1116Q890 1116 1007 1029Q1125 942 1125 800Q1125 760 1116 711L965 0L724 0L753 138L736 138Q627-18 419-18M587 1585Q585 1569 585 1555Q585 1484 636 1441Q688 1398 773 1398Q964 1398 995 1585L1183 1585Q1167 1429 1057 1337Q944 1243 765 1243Q597 1243 496 1329Q398 1411 398 1541Q398 1563 401 1585L587 1585Z"  horiz-adv-x="1174" vert-adv-y="2048"  />

      
      <glyph glyph-name="uni0104" unicode="&#x0104;" d="M579 573L994 573L922 1166L904 1166L579 573M1244-434Q1197-448 1140-448Q1029-448 964-395Q898-343 898-253Q898-100 1083 12L1085 19L1051 19L1010 369L475 369L272 0L2 0L831 1443L1114 1443L1312 26Q1099-77 1099-199Q1099-290 1213-290Q1256-290 1275-283L1244-434Z"  horiz-adv-x="1457" vert-adv-y="2048"  />

      
      <glyph glyph-name="uni0105" unicode="&#x0105;" d="M793-448Q675-448 611-385Q546-322 561-222Q580-89 749 1L750 8L728 8L753 138L736 138Q627-18 419-18Q279-18 184 68Q90 154 90 282Q90 447 217 543Q343 639 572 647L858 658L873 728Q878 757 878 772Q878 838 825 876Q771 914 678 914Q517 914 469 802L228 802Q263 947 390 1031Q517 1116 697 1116Q890 1116 1007 1029Q1125 942 1125 800Q1125 760 1116 711L970 26Q775-67 760-180Q752-230 781-260Q810-290 867-290Q915-290 933-283L902-434Q855-448 793-448M517 176Q620 176 700 235Q780 294 800 385L823 491L573 480Q462 476 399 432Q336 388 336 316Q336 254 387 215Q437 176 517 176Z"  horiz-adv-x="1174" vert-adv-y="2048"  />

      
      <glyph glyph-name="uni0106" unicode="&#x0106;" d="M1217 1897L1499 1897L1113 1587L863 1587L1217 1897M1281 954Q1282 956 1282 963Q1274 1092 1184 1170Q1093 1248 951 1248Q739 1248 595 1057Q451 865 451 583Q451 404 544 299Q636 195 794 195Q926 195 1028 260Q1130 326 1167 433L1426 433Q1376 218 1200 91Q1023-36 771-36Q506-36 347 128Q187 291 187 563Q187 962 408 1221Q629 1479 968 1479Q1211 1479 1374 1337Q1537 1195 1537 983Q1537 974 1535 954L1281 954Z"  horiz-adv-x="1509" vert-adv-y="2048"  />

      
      <glyph glyph-name="uni0107" unicode="&#x0107;" d="M937 732Q932 811 870 859Q808 907 718 907Q576 907 483 779Q391 652 391 462Q391 331 456 258Q518 188 622 188Q809 188 865 350L1107 350Q1077 187 943 84Q804-22 605-22Q394-22 267 104Q140 230 140 440Q140 732 306 923Q474 1116 735 1116Q915 1116 1039 1014Q1156 918 1174 777Q1177 756 1177 732L937 732M975 1622L1253 1622L895 1275L652 1275L975 1622Z"  horiz-adv-x="1192" vert-adv-y="2048"  />

      
      <glyph glyph-name="uni0108" unicode="&#x0108;" d="M1281 954Q1282 956 1282 963Q1274 1092 1184 1170Q1093 1248 951 1248Q739 1248 595 1057Q451 865 451 583Q451 404 544 299Q636 195 794 195Q926 195 1028 260Q1130 326 1167 433L1426 433Q1376 218 1200 91Q1023-36 771-36Q506-36 347 128Q187 291 187 563Q187 962 408 1221Q629 1479 968 1479Q1211 1479 1374 1337Q1537 1195 1537 983Q1537 974 1535 954L1281 954M1361 1587L1135 1587L1038 1776L1021 1776L845 1587L595 1587L916 1908L1175 1908L1361 1587Z"  horiz-adv-x="1509" vert-adv-y="2048"  />

      
      <glyph glyph-name="uni0109" unicode="&#x0109;" d="M1179 1243L952 1243L839 1458L821 1458L617 1243L365 1243L717 1591L975 1591L1179 1243M937 732Q932 811 870 859Q808 907 718 907Q576 907 483 779Q391 652 391 462Q391 331 456 258Q518 188 622 188Q809 188 865 350L1107 350Q1077 187 943 84Q804-22 605-22Q394-22 267 104Q140 230 140 440Q140 732 306 923Q474 1116 735 1116Q915 1116 1039 1014Q1156 918 1174 777Q1177 756 1177 732L937 732Z"  horiz-adv-x="1192" vert-adv-y="2048"  />

      
      <glyph glyph-name="uni010A" unicode="&#x010A;" d="M1021 1580Q958 1580 917 1622Q876 1663 876 1724Q876 1786 917 1827Q958 1869 1021 1869Q1082 1869 1123 1827Q1164 1786 1164 1724Q1164 1663 1123 1622Q1082 1580 1021 1580M1281 954Q1282 956 1282 963Q1274 1092 1184 1170Q1093 1248 951 1248Q739 1248 595 1057Q451 865 451 583Q451 404 544 299Q636 195 794 195Q926 195 1028 260Q1130 326 1167 433L1426 433Q1376 218 1200 91Q1023-36 771-36Q506-36 347 128Q187 291 187 563Q187 962 408 1221Q629 1479 968 1479Q1211 1479 1374 1337Q1537 1195 1537 983Q1537 974 1535 954L1281 954Z"  horiz-adv-x="1509" vert-adv-y="2048"  />

      
      <glyph glyph-name="uni010B" unicode="&#x010B;" d="M937 732Q932 811 870 859Q808 907 718 907Q576 907 483 779Q391 652 391 462Q391 331 456 258Q518 188 622 188Q809 188 865 350L1107 350Q1077 187 943 84Q804-22 605-22Q394-22 267 104Q140 230 140 440Q140 732 306 923Q474 1116 735 1116Q915 1116 1039 1014Q1156 918 1174 777Q1177 756 1177 732L937 732M824 1279Q762 1279 718 1323Q675 1366 675 1430Q675 1493 718 1537Q762 1580 824 1580Q886 1580 930 1537Q973 1493 973 1430Q973 1366 930 1323Q886 1279 824 1279Z"  horiz-adv-x="1192" vert-adv-y="2048"  />

      
      <glyph glyph-name="uni010C" unicode="&#x010C;" d="M1281 954Q1282 956 1282 963Q1274 1092 1184 1170Q1093 1248 951 1248Q739 1248 595 1057Q451 865 451 583Q451 404 544 299Q636 195 794 195Q926 195 1028 260Q1130 326 1167 433L1426 433Q1376 218 1200 91Q1023-36 771-36Q506-36 347 128Q187 291 187 563Q187 962 408 1221Q629 1479 968 1479Q1211 1479 1374 1337Q1537 1195 1537 983Q1537 974 1535 954L1281 954M686 1908L912 1908L1009 1719L1026 1719L1202 1908L1452 1908L1131 1587L872 1587L686 1908Z"  horiz-adv-x="1509" vert-adv-y="2048"  />

      
      <glyph glyph-name="uni010D" unicode="&#x010D;" d="M669 1243L465 1591L691 1591L804 1376L821 1376L1026 1591L1279 1591L927 1243L669 1243M937 732Q932 811 870 859Q808 907 718 907Q576 907 483 779Q391 652 391 462Q391 331 456 258Q518 188 622 188Q809 188 865 350L1107 350Q1077 187 943 84Q804-22 605-22Q394-22 267 104Q140 230 140 440Q140 732 306 923Q474 1116 735 1116Q915 1116 1039 1014Q1156 918 1174 777Q1177 756 1177 732L937 732Z"  horiz-adv-x="1192" vert-adv-y="2048"  />

      
      <glyph glyph-name="uni010E" unicode="&#x010E;" d="M543 1906L769 1906L866 1717L883 1717L1059 1906L1309 1906L988 1585L729 1585L543 1906M886 1443Q1171 1443 1331 1283Q1491 1123 1491 840Q1491 477 1278 239Q1064 0 740 0L108 0L414 1443L886 1443M415 222L725 222Q943 222 1083 388Q1225 554 1225 815Q1225 1005 1123 1113Q1020 1222 838 1222L630 1222L415 222Z"  horiz-adv-x="1517" vert-adv-y="2048"  />

      
      <glyph glyph-name="uni010F" unicode="&#x010F;" d="M1758 1517L1602 1019L1430 1019L1536 1517L1758 1517M522-18Q355-18 248 98Q137 218 137 415Q137 715 299 915Q458 1112 694 1112Q812 1112 899 1052Q983 995 1011 902L1029 902L1159 1517L1409 1517L1087 0L846 0L878 151L861 151Q735-18 522-18M625 191Q769 191 869 323Q968 454 968 641Q968 761 904 831Q841 899 735 899Q591 899 493 774Q394 647 394 456Q394 336 459 263Q523 191 625 191Z"  horiz-adv-x="1485" vert-adv-y="2048"  />

      
      <glyph glyph-name="uni0110" unicode="&#x0110;" d="M725 222Q943 222 1083 388Q1225 554 1225 815Q1225 1005 1123 1113Q1020 1222 838 1222L630 1222L547 838L750 838L707 634L504 634L415 222L725 222M886 1443Q1171 1443 1331 1283Q1491 1123 1491 840Q1491 477 1278 239Q1064 0 740 0L108 0L242 634L77 634L120 838L286 838L414 1443L886 1443Z"  horiz-adv-x="1494" vert-adv-y="2048"  />

      
      <glyph glyph-name="uni0111" unicode="&#x0111;" d="M625 191Q769 191 869 323Q968 454 968 641Q968 761 904 831Q841 899 735 899Q591 899 493 774Q394 647 394 456Q394 336 459 263Q523 191 625 191M1497 1270L1357 1270L1087 0L846 0L878 151L861 151Q735-18 522-18Q355-18 248 98Q137 218 137 415Q137 715 299 915Q458 1112 694 1112Q812 1112 899 1052Q983 995 1011 902L1029 902L1107 1270L907 1270L937 1412L1137 1412L1159 1517L1409 1517L1387 1412L1526 1412L1497 1270Z"  horiz-adv-x="1312" vert-adv-y="2048"  />

      
      <glyph glyph-name="uni0112" unicode="&#x0112;" d="M1042 0L107 0L414 1443L1349 1443L1302 1220L628 1220L545 837L1182 837L1138 627L501 627L413 223L1088 223L1042 0M560 1628L595 1792L1314 1792L1280 1628L560 1628Z"  horiz-adv-x="1254" vert-adv-y="2048"  />

      
      <glyph glyph-name="uni0113" unicode="&#x0113;" d="M612-22Q405-22 276 100Q142 227 142 443Q142 744 305 930Q467 1116 726 1116Q918 1116 1042 995Q1171 870 1172 663Q1172 586 1156 490L383 490L382 451Q382 318 457 245Q524 180 628 180Q805 180 865 302L1110 302Q1073 157 942 69Q806-22 612-22M929 658Q932 667 932 698Q932 793 875 854Q815 918 713 918Q605 918 524 847Q444 777 412 658L929 658M408 1305L442 1469L1155 1469L1120 1305L408 1305Z"  horiz-adv-x="1219" vert-adv-y="2048"  />

      
      <glyph glyph-name="uni0114" unicode="&#x0114;" d="M1042 0L107 0L414 1443L1349 1443L1302 1220L628 1220L545 837L1182 837L1138 627L501 627L413 223L1088 223L1042 0M559 1876Q559 1892 560 1900L745 1900L745 1882Q745 1817 798 1775Q851 1733 931 1733Q1103 1733 1142 1900L1328 1900Q1305 1753 1196 1666Q1088 1578 926 1578Q765 1578 662 1662Q559 1746 559 1876Z"  horiz-adv-x="1254" vert-adv-y="2048"  />

      
      <glyph glyph-name="uni0115" unicode="&#x0115;" d="M612-22Q405-22 276 100Q142 227 142 443Q142 744 305 930Q467 1116 726 1116Q918 1116 1042 995Q1171 870 1172 663Q1172 586 1156 490L383 490L382 451Q382 318 457 245Q524 180 628 180Q805 180 865 302L1110 302Q1073 157 942 69Q806-22 612-22M929 658Q932 667 932 698Q932 793 875 854Q815 918 713 918Q605 918 524 847Q444 777 412 658L929 658M596 1585Q594 1569 594 1555Q594 1484 645 1441Q697 1398 782 1398Q973 1398 1004 1585L1192 1585Q1176 1429 1066 1337Q953 1243 774 1243Q606 1243 505 1329Q407 1411 407 1541Q407 1563 410 1585L596 1585Z"  horiz-adv-x="1219" vert-adv-y="2048"  />

      
      <glyph glyph-name="uni0116" unicode="&#x0116;" d="M942 1578Q879 1578 838 1620Q797 1661 797 1722Q797 1784 838 1825Q879 1867 942 1867Q1003 1867 1044 1825Q1085 1784 1085 1722Q1085 1661 1044 1620Q1003 1578 942 1578M1042 0L107 0L414 1443L1349 1443L1302 1220L628 1220L545 837L1182 837L1138 627L501 627L413 223L1088 223L1042 0Z"  horiz-adv-x="1254" vert-adv-y="2048"  />

      
      <glyph glyph-name="uni0117" unicode="&#x0117;" d="M791 1279Q729 1279 685 1323Q642 1366 642 1430Q642 1493 685 1537Q729 1580 791 1580Q853 1580 897 1537Q940 1493 940 1430Q940 1366 897 1323Q853 1279 791 1279M612-22Q405-22 276 100Q142 227 142 443Q142 744 305 930Q467 1116 726 1116Q918 1116 1042 995Q1171 870 1172 663Q1172 586 1156 490L383 490L382 451Q382 318 457 245Q524 180 628 180Q805 180 865 302L1110 302Q1073 157 942 69Q806-22 612-22M929 658Q932 667 932 698Q932 793 875 854Q815 918 713 918Q605 918 524 847Q444 777 412 658L929 658Z"  horiz-adv-x="1219" vert-adv-y="2048"  />

      
      <glyph glyph-name="uni0118" unicode="&#x0118;" d="M846-448Q734-448 669-395Q603-343 603-253Q603-113 759-7L761 0L107 0L414 1443L1349 1443L1302 1220L628 1220L545 837L1182 837L1138 627L501 627L413 223L1088 223L1048 39Q805-53 805-199Q805-240 836-265Q866-290 918-290Q961-290 980-283L949-434Q902-448 846-448Z"  horiz-adv-x="1254" vert-adv-y="2048"  />

      
      <glyph glyph-name="uni0119" unicode="&#x0119;" d="M736-448Q625-448 556-394Q490-341 490-259Q490-126 614-38L613-21L599-21Q391-17 267 109Q142 236 142 443Q142 742 304 929Q466 1116 726 1116Q923 1116 1047 990Q1171 864 1172 663Q1172 584 1156 490L383 490L382 451Q382 327 449 254Q516 180 628 180Q804 180 865 302L1110 302Q1071 155 871 21Q689-99 689-199Q689-293 815-293Q847-293 859-290L829-437Q791-448 736-448M929 658Q932 667 932 698Q932 797 872 858Q811 918 713 918Q606 918 526 848Q445 779 412 658L929 658Z"  horiz-adv-x="1224" vert-adv-y="2048"  />

      
      <glyph glyph-name="uni011A" unicode="&#x011A;" d="M607 1906L833 1906L930 1717L947 1717L1123 1906L1373 1906L1052 1585L793 1585L607 1906M1042 0L107 0L414 1443L1349 1443L1302 1220L628 1220L545 837L1182 837L1138 627L501 627L413 223L1088 223L1042 0Z"  horiz-adv-x="1254" vert-adv-y="2048"  />

      
      <glyph glyph-name="uni011B" unicode="&#x011B;" d="M636 1243L432 1591L658 1591L771 1376L788 1376L993 1591L1246 1591L894 1243L636 1243M612-22Q405-22 276 100Q142 227 142 443Q142 744 305 930Q467 1116 726 1116Q918 1116 1042 995Q1171 870 1172 663Q1172 586 1156 490L383 490L382 451Q382 318 457 245Q524 180 628 180Q805 180 865 302L1110 302Q1073 157 942 69Q806-22 612-22M929 658Q932 667 932 698Q932 793 875 854Q815 918 713 918Q605 918 524 847Q444 777 412 658L929 658Z"  horiz-adv-x="1219" vert-adv-y="2048"  />

      
      <glyph glyph-name="uni011C" unicode="&#x011C;" d="M1358 1586L1132 1586L1035 1775L1018 1775L842 1586L592 1586L913 1907L1172 1907L1358 1586M1479 563Q1419 271 1241 117Q1063-36 784-36Q515-36 352 130Q188 296 188 570Q188 967 408 1223Q627 1479 967 1479Q1202 1479 1365 1347Q1527 1215 1537 1017L1537 982L1283 982Q1275 1101 1184 1174Q1092 1247 950 1247Q737 1247 595 1060Q453 872 453 590Q453 407 549 302Q645 196 811 196Q963 196 1074 283Q1184 370 1213 514L1220 550L879 550L922 751L1517 751L1479 563Z"  horiz-adv-x="1553" vert-adv-y="2048"  />

      
      <glyph glyph-name="uni011D" unicode="&#x011D;" d="M1171 1243L944 1243L831 1458L813 1458L609 1243L357 1243L709 1591L967 1591L1171 1243M519-416Q312-416 178-321Q47-229 44-91L295-91Q303-151 365-188Q431-227 536-227Q776-227 824-20L869 177L852 177Q740 20 526 20Q360 20 251 136Q141 254 141 441Q141 729 298 921Q453 1112 684 1112Q798 1112 889 1053Q981 994 1012 899L1029 899L1071 1094L1312 1094L1067-47Q1030-220 887-317Q742-416 519-416M626 212Q768 212 864 333Q961 456 961 641Q961 759 897 829Q832 899 724 899Q582 899 490 782Q397 663 397 475Q397 353 459 282Q520 212 626 212Z"  horiz-adv-x="1298" vert-adv-y="2048"  />

      
      <glyph glyph-name="uni011E" unicode="&#x011E;" d="M1479 563Q1419 271 1241 117Q1063-36 784-36Q515-36 352 130Q188 296 188 570Q188 967 408 1223Q627 1479 967 1479Q1202 1479 1365 1347Q1527 1215 1537 1017L1537 982L1283 982Q1275 1101 1184 1174Q1092 1247 950 1247Q737 1247 595 1060Q453 872 453 590Q453 407 549 302Q645 196 811 196Q963 196 1074 283Q1184 370 1213 514L1220 550L879 550L922 751L1517 751L1479 563M635 1877Q635 1893 636 1901L821 1901L821 1883Q821 1818 874 1776Q927 1734 1007 1734Q1179 1734 1218 1901L1404 1901Q1381 1754 1272 1667Q1164 1579 1002 1579Q841 1579 738 1663Q635 1747 635 1877Z"  horiz-adv-x="1553" vert-adv-y="2048"  />

      
      <glyph glyph-name="uni011F" unicode="&#x011F;" d="M621 1585Q619 1569 619 1555Q619 1484 670 1441Q722 1398 807 1398Q998 1398 1029 1585L1217 1585Q1201 1429 1091 1337Q978 1243 799 1243Q631 1243 530 1329Q432 1411 432 1541Q432 1563 435 1585L621 1585M519-416Q312-416 178-321Q47-229 44-91L295-91Q303-151 365-188Q431-227 536-227Q776-227 824-20L869 177L852 177Q740 20 526 20Q360 20 251 136Q141 254 141 441Q141 729 298 921Q453 1112 684 1112Q798 1112 889 1053Q981 994 1012 899L1029 899L1071 1094L1312 1094L1067-47Q1030-220 887-317Q742-416 519-416M626 212Q768 212 864 333Q961 456 961 641Q961 759 897 829Q832 899 724 899Q582 899 490 782Q397 663 397 475Q397 353 459 282Q520 212 626 212Z"  horiz-adv-x="1298" vert-adv-y="2048"  />

      
      <glyph glyph-name="uni0120" unicode="&#x0120;" d="M1018 1579Q955 1579 914 1621Q873 1662 873 1723Q873 1785 914 1826Q955 1868 1018 1868Q1079 1868 1120 1826Q1161 1785 1161 1723Q1161 1662 1120 1621Q1079 1579 1018 1579M1479 563Q1419 271 1241 117Q1063-36 784-36Q515-36 352 130Q188 296 188 570Q188 967 408 1223Q627 1479 967 1479Q1202 1479 1365 1347Q1527 1215 1537 1017L1537 982L1283 982Q1275 1101 1184 1174Q1092 1247 950 1247Q737 1247 595 1060Q453 872 453 590Q453 407 549 302Q645 196 811 196Q963 196 1074 283Q1184 370 1213 514L1220 550L879 550L922 751L1517 751L1479 563Z"  horiz-adv-x="1553" vert-adv-y="2048"  />

      
      <glyph glyph-name="uni0121" unicode="&#x0121;" d="M816 1279Q754 1279 710 1323Q667 1366 667 1430Q667 1493 710 1537Q754 1580 816 1580Q878 1580 922 1537Q965 1493 965 1430Q965 1366 922 1323Q878 1279 816 1279M519-416Q312-416 178-321Q47-229 44-91L295-91Q303-151 365-188Q431-227 536-227Q776-227 824-20L869 177L852 177Q740 20 526 20Q360 20 251 136Q141 254 141 441Q141 729 298 921Q453 1112 684 1112Q798 1112 889 1053Q981 994 1012 899L1029 899L1071 1094L1312 1094L1067-47Q1030-220 887-317Q742-416 519-416M626 212Q768 212 864 333Q961 456 961 641Q961 759 897 829Q832 899 724 899Q582 899 490 782Q397 663 397 475Q397 353 459 282Q520 212 626 212Z"  horiz-adv-x="1298" vert-adv-y="2048"  />

      
      <glyph glyph-name="uni0122" unicode="&#x0122;" d="M482-512L658-148L910-148L707-512L482-512M1479 563Q1419 271 1241 117Q1063-36 784-36Q515-36 352 130Q188 296 188 570Q188 967 408 1223Q627 1479 967 1479Q1202 1479 1365 1347Q1527 1215 1537 1017L1537 982L1283 982Q1275 1101 1184 1174Q1092 1247 950 1247Q737 1247 595 1060Q453 872 453 590Q453 407 549 302Q645 196 811 196Q963 196 1074 283Q1184 370 1213 514L1220 550L879 550L922 751L1517 751L1479 563Z"  horiz-adv-x="1553" vert-adv-y="2048"  />

      
      <glyph glyph-name="uni0123" unicode="&#x0123;" d="M1316 1654L1140 1290L888 1290L1091 1654L1316 1654M519-416Q312-416 178-321Q47-229 44-91L295-91Q303-151 365-188Q431-227 536-227Q776-227 824-20L869 177L852 177Q740 20 526 20Q360 20 251 136Q141 254 141 441Q141 729 298 921Q453 1112 684 1112Q798 1112 889 1053Q981 994 1012 899L1029 899L1071 1094L1312 1094L1067-47Q1030-220 887-317Q742-416 519-416M626 212Q768 212 864 333Q961 456 961 641Q961 759 897 829Q832 899 724 899Q582 899 490 782Q397 663 397 475Q397 353 459 282Q520 212 626 212Z"  horiz-adv-x="1299" vert-adv-y="2048"  />

      
      <glyph glyph-name="uni0124" unicode="&#x0124;" d="M1065 0L1199 623L500 623L366 0L107 0L414 1443L674 1443L546 846L1245 846L1373 1443L1634 1443L1327 0L1065 0M1425 1585L1199 1585L1102 1774L1085 1774L909 1585L659 1585L980 1906L1239 1906L1425 1585Z"  horiz-adv-x="1575" vert-adv-y="2048"  />

      
      <glyph glyph-name="uni0125" unicode="&#x0125;" d="M409 1512L658 1512L533 930L550 930Q671 1114 889 1114Q1044 1114 1141 1020Q1234 930 1234 795Q1234 735 1219 666L1079 0L830 0L962 625Q974 680 974 716Q974 801 916 853Q859 904 764 904Q657 904 577 835Q500 767 476 658L336 0L87 0L409 1512M933 1654L707 1654L610 1843L593 1843L417 1654L167 1654L488 1975L747 1975L933 1654Z"  horiz-adv-x="1290" vert-adv-y="2048"  />

      
      <glyph glyph-name="uni0126" unicode="&#x0126;" d="M1268 1062L569 1062L523 846L1222 846L1268 1062M1658 1062L1530 1062L1304 0L1042 0L1176 623L477 623L343 0L84 0L310 1062L179 1062L217 1246L349 1246L391 1443L651 1443L609 1246L1308 1246L1350 1443L1611 1443L1569 1246L1696 1246L1658 1062Z"  horiz-adv-x="1526" vert-adv-y="2048"  />

      
      <glyph glyph-name="uni0127" unicode="&#x0127;" d="M550 930Q671 1114 889 1114Q1044 1114 1141 1020Q1234 930 1234 795Q1234 735 1219 666L1079 0L830 0L962 625Q974 680 974 716Q974 801 916 853Q859 904 764 904Q657 904 577 835Q500 767 476 658L336 0L87 0L357 1270L195 1270L225 1416L389 1416L409 1512L658 1512L637 1416L861 1416L831 1270L606 1270L533 930L550 930Z"  horiz-adv-x="1307" vert-adv-y="2048"  />

      
      <glyph glyph-name="uni0128" unicode="&#x0128;" d="M107 0L414 1443L674 1443L367 0L107 0M762 1577Q670 1577 581 1653Q492 1728 458 1728Q374 1728 354 1619L188 1619Q206 1743 280 1816Q352 1887 453 1887Q545 1887 634 1812Q723 1736 757 1736Q841 1736 861 1845L1027 1845Q1009 1720 935 1648Q863 1577 762 1577Z"  horiz-adv-x="616" vert-adv-y="2048"  />

      
      <glyph glyph-name="uni0129" unicode="&#x0129;" d="M322 1094L570 1094L338 0L90 0L322 1094M676 1235Q581 1235 496 1321Q411 1407 374 1407Q294 1407 273 1277L104 1277Q120 1411 194 1489Q267 1566 372 1566Q467 1566 551 1481Q636 1395 673 1395Q754 1395 775 1524L944 1524Q928 1391 854 1312Q781 1235 676 1235Z"  horiz-adv-x="569" vert-adv-y="2048"  />

      
      <glyph glyph-name="uni012A" unicode="&#x012A;" d="M107 0L414 1443L674 1443L367 0L107 0M224 1628L259 1792L978 1792L944 1628L224 1628Z"  horiz-adv-x="616" vert-adv-y="2048"  />

      
      <glyph glyph-name="uni012B" unicode="&#x012B;" d="M322 1094L570 1094L338 0L90 0L322 1094M134 1305L168 1469L881 1469L846 1305L134 1305Z"  horiz-adv-x="569" vert-adv-y="2048"  />

      
      <glyph glyph-name="uni012C" unicode="&#x012C;" d="M107 0L414 1443L674 1443L367 0L107 0M223 1876Q223 1892 224 1900L409 1900L409 1882Q409 1817 462 1775Q515 1733 595 1733Q767 1733 806 1900L992 1900Q969 1753 860 1666Q752 1578 590 1578Q429 1578 326 1662Q223 1746 223 1876Z"  horiz-adv-x="616" vert-adv-y="2048"  />

      
      <glyph glyph-name="uni012D" unicode="&#x012D;" d="M322 1094L570 1094L338 0L90 0L322 1094M322 1585Q320 1569 320 1555Q320 1484 371 1441Q423 1398 508 1398Q699 1398 730 1585L918 1585Q902 1429 792 1337Q679 1243 500 1243Q332 1243 231 1329Q133 1411 133 1541Q133 1563 136 1585L322 1585Z"  horiz-adv-x="569" vert-adv-y="2048"  />

      
      <glyph glyph-name="uni012E" unicode="&#x012E;" d="M675 1443L377 39Q154-62 154-192Q154-238 184-264Q215-290 268-290Q312-290 329-283L299-434Q252-448 195-448Q85-448 19-393Q-47-337-47-246Q-47-91 146 30L147 37L116 37L415 1443L675 1443Z"  horiz-adv-x="616" vert-adv-y="2048"  />

      
      <glyph glyph-name="uni012F" unicode="&#x012F;" d="M515 1272Q448 1272 405 1310Q362 1348 362 1406Q362 1467 406 1506Q449 1546 515 1546Q581 1546 625 1508Q668 1470 668 1412Q668 1351 625 1312Q581 1272 515 1272M172-448Q62-448-4-393Q-70-337-70-246Q-70-93 128 30L129 37L98 37L323 1094L574 1094L349 39Q131-61 131-192Q131-238 161-264Q192-290 245-290Q289-290 306-283L276-434Q225-448 172-448Z"  horiz-adv-x="569" vert-adv-y="2048"  />

      
      <glyph glyph-name="uni0130" unicode="&#x0130;" d="M107 0L414 1443L674 1443L367 0L107 0M605 1578Q542 1578 501 1620Q460 1661 460 1722Q460 1784 501 1825Q542 1867 605 1867Q666 1867 707 1825Q748 1784 748 1722Q748 1661 707 1620Q666 1578 605 1578Z"  horiz-adv-x="616" vert-adv-y="2048"  />

      
      <glyph glyph-name="uni0131" unicode="&#x0131;" d="M322 1094L570 1094L338 0L90 0L322 1094Z"  horiz-adv-x="569" vert-adv-y="2048"  />

      
      <glyph glyph-name="uni0132" unicode="&#x0132;" d="M107 0L414 1443L674 1443L367 0L107 0M955 386L955 380Q957 297 1009 248Q1061 200 1150 200Q1333 200 1382 431L1598 1443L1855 1443L1631 387Q1588 182 1462 74Q1334-36 1134-36Q937-36 816 77Q694 190 702 366Q702 379 703 386L955 386Z"  horiz-adv-x="1797" vert-adv-y="2048"  />

      
      <glyph glyph-name="uni0133" unicode="&#x0133;" d="M322 1094L573 1094L339 0L89 0L322 1094M514 1272Q446 1272 403 1311Q361 1348 361 1406Q361 1465 403 1505Q447 1546 514 1546Q581 1546 624 1508Q667 1470 667 1412Q667 1353 624 1313Q581 1272 514 1272M891-74Q825-381 505-383Q451-383 393-374L435-175Q467-180 494-180Q621-180 649-45L892 1094L1140 1094L891-74M1083 1272Q1015 1272 972 1311Q930 1348 930 1406Q930 1465 972 1505Q1016 1546 1083 1546Q1150 1546 1193 1508Q1236 1470 1236 1412Q1236 1353 1193 1313Q1150 1272 1083 1272Z"  horiz-adv-x="1138" vert-adv-y="2048"  />

      
      <glyph glyph-name="uni0134" unicode="&#x0134;" d="M349 386L349 380Q350 297 402 248Q454 200 544 200Q726 200 776 431L992 1443L1249 1443L1025 387Q981 182 856 74Q728-36 528-36Q330-36 209 77Q88 190 96 366Q96 379 97 386L349 386M1521 1585L1295 1585L1198 1774L1181 1774L1005 1585L755 1585L1076 1906L1335 1906L1521 1585Z"  horiz-adv-x="1182" vert-adv-y="2048"  />

      
      <glyph glyph-name="uni0135" unicode="&#x0135;" d="M323-74Q257-381-63-383Q-117-383-175-374L-133-175Q-101-180-74-180Q53-180 81-45L324 1094L572 1094L323-74M874 1243L647 1243L534 1458L516 1458L312 1243L60 1243L412 1591L670 1591L874 1243Z"  horiz-adv-x="569" vert-adv-y="2048"  />

      
      <glyph glyph-name="uni0136" unicode="&#x0136;" d="M107 0L414 1443L671 1443L530 784L547 784L1248 1443L1561 1443L879 796L1286 0L993 0L668 639L462 449L365 0L107 0M348-512L524-148L776-148L573-512L348-512Z"  horiz-adv-x="1416" vert-adv-y="2048"  />

      
      <glyph glyph-name="uni0137" unicode="&#x0137;" d="M979 1094L1277 1094L735 618L1076 0L799 0L535 479L418 385L336 0L87 0L409 1517L658 1517L478 671L495 671L979 1094M247-512L423-148L675-148L472-512L247-512Z"  horiz-adv-x="1183" vert-adv-y="2048"  />

      
      <glyph glyph-name="uni0139" unicode="&#x0139;" d="M801 1895L1083 1895L697 1585L447 1585L801 1895M1027 0L107 0L414 1443L674 1443L414 226L1074 226L1027 0Z"  horiz-adv-x="1199" vert-adv-y="2048"  />

      
      <glyph glyph-name="uni013A" unicode="&#x013A;" d="M792 1969L1074 1969L688 1659L438 1659L792 1969M409 1517L659 1517L337 0L87 0L409 1517Z"  horiz-adv-x="566" vert-adv-y="2048"  />

      
      <glyph glyph-name="uni013B" unicode="&#x013B;" d="M251-512L427-148L679-148L476-512L251-512M1027 0L107 0L414 1443L674 1443L414 226L1074 226L1027 0Z"  horiz-adv-x="1199" vert-adv-y="2048"  />

      
      <glyph glyph-name="uni013C" unicode="&#x013C;" d="M-103-512L73-148L325-148L122-512L-103-512M410 1517L660 1517L338 0L88 0L410 1517Z"  horiz-adv-x="566" vert-adv-y="2048"  />

      
      <glyph glyph-name="uni013D" unicode="&#x013D;" d="M1108 1443L952 945L784 945L890 1443L1108 1443M1027 0L107 0L414 1443L674 1443L414 226L1074 226L1027 0Z"  horiz-adv-x="1199" vert-adv-y="2048"  />

      
      <glyph glyph-name="uni013E" unicode="&#x013E;" d="M1009 1517L853 1019L682 1019L788 1517L1009 1517M409 1517L659 1517L337 0L87 0L409 1517Z"  horiz-adv-x="741" vert-adv-y="2048"  />

      
      <glyph glyph-name="uni0141" unicode="&#x0141;" d="M1092 226L1045 0L125 0L271 685L91 605L128 787L310 868L432 1443L692 1443L597 997L870 1119L832 936L557 813L432 226L1092 226Z"  horiz-adv-x="1183" vert-adv-y="2048"  />

      
      <glyph glyph-name="uni0142" unicode="&#x0142;" d="M645 872L509 809L337 0L87 0L231 680L99 618L137 801L270 863L409 1517L659 1517L548 992L683 1055L645 872Z"  horiz-adv-x="565" vert-adv-y="2048"  />

      
      <glyph glyph-name="uni0143" unicode="&#x0143;" d="M1262 1895L1544 1895L1158 1585L908 1585L1262 1895M107 0L414 1443L626 1443L1124 432L1142 432L1359 1443L1612 1443L1305 0L1094 0L593 1005L576 1005L360 0L107 0Z"  horiz-adv-x="1553" vert-adv-y="2048"  />

      
      <glyph glyph-name="uni0144" unicode="&#x0144;" d="M980 1626L1258 1626L900 1279L657 1279L980 1626M311 1100L552 1100L515 930L533 930Q654 1116 877 1116Q1028 1116 1124 1022Q1217 931 1217 795Q1217 738 1203 666L1062 0L813 0L946 625Q957 678 957 716Q957 801 901 852Q845 904 751 904Q646 904 567 835Q491 767 467 658L327 0L78 0L311 1100Z"  horiz-adv-x="1271" vert-adv-y="2048"  />

      
      <glyph glyph-name="uni0145" unicode="&#x0145;" d="M405-512L581-148L833-148L630-512L405-512M107 0L414 1443L626 1443L1124 432L1142 432L1359 1443L1612 1443L1305 0L1094 0L593 1005L576 1005L360 0L107 0Z"  horiz-adv-x="1553" vert-adv-y="2048"  />

      
      <glyph glyph-name="uni0146" unicode="&#x0146;" d="M253-512L429-148L681-148L478-512L253-512M311 1100L552 1100L515 930L533 930Q654 1116 877 1116Q1028 1116 1124 1022Q1217 931 1217 795Q1217 738 1203 666L1062 0L813 0L946 625Q957 678 957 716Q957 801 901 852Q845 904 751 904Q646 904 567 835Q491 767 467 658L327 0L78 0L311 1100Z"  horiz-adv-x="1271" vert-adv-y="2048"  />

      
      <glyph glyph-name="uni0147" unicode="&#x0147;" d="M731 1906L957 1906L1054 1717L1071 1717L1247 1906L1497 1906L1176 1585L917 1585L731 1906M107 0L414 1443L626 1443L1124 432L1142 432L1359 1443L1612 1443L1305 0L1094 0L593 1005L576 1005L360 0L107 0Z"  horiz-adv-x="1553" vert-adv-y="2048"  />

      
      <glyph glyph-name="uni0148" unicode="&#x0148;" d="M674 1247L470 1595L696 1595L809 1380L826 1380L1031 1595L1284 1595L932 1247L674 1247M311 1100L552 1100L515 930L533 930Q654 1116 877 1116Q1028 1116 1124 1022Q1217 931 1217 795Q1217 738 1203 666L1062 0L813 0L946 625Q957 678 957 716Q957 801 901 852Q845 904 751 904Q646 904 567 835Q491 767 467 658L327 0L78 0L311 1100Z"  horiz-adv-x="1271" vert-adv-y="2048"  />

      
      <glyph glyph-name="uni014C" unicode="&#x014C;" d="M797-36Q527-36 356 137Q187 308 187 571Q187 966 412 1223Q636 1479 974 1479Q1245 1479 1415 1306Q1581 1136 1581 872Q1581 475 1357 219Q1136-36 797-36M1315 851Q1315 1029 1218 1137Q1120 1246 961 1246Q746 1246 600 1057Q454 868 454 591Q454 413 552 305Q650 196 810 196Q1026 196 1170 383Q1315 570 1315 851M652 1627L687 1791L1406 1791L1372 1627L652 1627Z"  horiz-adv-x="1603" vert-adv-y="2048"  />

      
      </font>
</defs>
</svg>
